<!-- Generator: Adobe Illustrator 14.0.0, SVG Export Plug-In . SVG Version: 6.00 Build 43363)  -->
<!DOCTYPE svg PUBLIC "-//W3C//DTD SVG 1.1//EN" "http://www.w3.org/Graphics/SVG/1.1/DTD/svg11.dtd">
<svg version="1.1" id="Layer_1" xmlns="http://www.w3.org/2000/svg" xmlns:xlink="http://www.w3.org/1999/xlink" x="0px" y="0px"
	 width="442.08px" height="187.92px" viewBox="0 0 442.08 187.92" enable-background="new 0 0 442.08 187.92" xml:space="preserve">
<g>
	<g>
		<path fill="none" stroke="#676868" stroke-width="0.5" d="M13.04,13.682l0.099-0.369c0.05-0.189,0.028-0.345-0.068-0.468
			s-0.343-0.315-0.741-0.579c-0.155-0.097-0.242-0.187-0.258-0.27c-0.017-0.083-0.001-0.213,0.046-0.389
			c0.052-0.194,0.098-0.315,0.139-0.364c0.041-0.049,0.097-0.064,0.165-0.046c0.048,0.013,0.123,0.044,0.224,0.094l1.174,0.557
			c0.12,0.06,0.195,0.116,0.226,0.167c0.03,0.053,0.029,0.141-0.004,0.266l-1.139,4.248c-0.048,0.181-0.163,0.248-0.342,0.2
			c-0.138-0.037-0.222-0.072-0.256-0.107c-0.034-0.034-0.049-0.092-0.05-0.175c0.004-0.262-0.144-0.433-0.442-0.513L5.673,14.29
			c-0.127-0.034-0.238,0.019-0.335,0.158c-0.08,0.122-0.151,0.19-0.215,0.206c-0.063,0.015-0.159,0.006-0.286-0.028
			c-0.151-0.041-0.242-0.079-0.271-0.114c-0.029-0.036-0.03-0.109,0-0.221l0.797-2.976c0.03-0.112,0.072-0.184,0.126-0.212
			c0.055-0.029,0.177-0.019,0.365,0.032c0.114,0.03,0.187,0.064,0.219,0.103c0.031,0.039,0.047,0.121,0.047,0.245
			c0.001,0.231,0.086,0.369,0.254,0.415L13.04,13.682z"/>
		<path fill="none" stroke="#676868" stroke-width="0.5" d="M7.368,6.378l2.948,0.79l0.118-0.439c0.032-0.12,0.036-0.214,0.01-0.281
			c-0.027-0.067-0.105-0.134-0.235-0.202c-0.23-0.117-0.366-0.198-0.405-0.243C9.766,5.957,9.755,5.9,9.773,5.832
			c0.091-0.34,0.153-0.53,0.189-0.569c0.034-0.039,0.126-0.039,0.278,0.002l1.72,0.461c0.107,0.029,0.172,0.069,0.192,0.121
			c0.021,0.052,0.002,0.19-0.058,0.414c-0.039,0.146-0.088,0.238-0.143,0.277c-0.056,0.038-0.191,0.053-0.403,0.047
			c-0.195-0.002-0.319,0.015-0.373,0.049c-0.053,0.034-0.092,0.099-0.118,0.193L10.922,7.33l3.559,0.953l0.092-0.343
			c0.057-0.21,0.049-0.368-0.025-0.474c-0.072-0.104-0.312-0.306-0.716-0.603c-0.17-0.124-0.273-0.233-0.312-0.326
			c-0.038-0.093-0.031-0.237,0.021-0.431c0.071-0.267,0.177-0.382,0.314-0.345c0.041,0.011,0.099,0.036,0.173,0.074l1.109,0.554
			c0.201,0.101,0.321,0.169,0.356,0.209c0.034,0.04,0.033,0.133-0.006,0.279l-1.154,4.306c-0.029,0.108-0.068,0.172-0.115,0.191
			c-0.048,0.02-0.167,0.003-0.356-0.048c-0.12-0.032-0.188-0.133-0.201-0.302c-0.016-0.258-0.092-0.405-0.23-0.442L6.992,8.858
			C6.925,8.844,6.834,8.923,6.718,9.096c-0.08,0.117-0.144,0.182-0.19,0.194c-0.048,0.013-0.151-0.002-0.31-0.044
			c-0.134-0.036-0.211-0.07-0.23-0.104C5.969,9.109,5.976,9.031,6.01,8.906l1.104-4.12c0.028-0.103,0.062-0.174,0.102-0.214
			S7.331,4.513,7.44,4.515l1.421,0.027c0.074,0.002,0.122,0.005,0.146,0.012c0.093,0.025,0.112,0.142,0.056,0.35
			c-0.063,0.234-0.126,0.384-0.191,0.45C8.811,5.42,8.683,5.468,8.49,5.495c-0.346,0.05-0.591,0.107-0.737,0.171
			S7.518,5.821,7.485,5.94L7.368,6.378z"/>
	</g>
	<circle fill="none" stroke="#CECCCB" stroke-width="0.5" cx="10.608" cy="10.585" r="8.315"/>
	<circle fill="none" stroke="#CECCCB" stroke-width="0.5" cx="10.608" cy="10.584" r="10.098"/>
</g>
<line fill="none" stroke="#010101" x1="22.114" y1="60.301" x2="22.114" y2="125.826"/>
<line fill="none" stroke="#010101" x1="30.749" y1="61.868" x2="30.749" y2="124.768"/>
<line fill="none" stroke="#010101" x1="421.802" y1="64.706" x2="421.802" y2="132.639"/>
<line fill="none" stroke="#010101" x1="413.168" y1="67.97" x2="413.168" y2="132.696"/>
<rect x="5.731" y="4.33" fill="none" stroke="#010101" stroke-width="0.5" width="430.619" height="173.598"/>
<rect y="0.487" fill="none" stroke="#010101" stroke-width="0.5" width="442.08" height="187.433"/>
<g>
	<path fill="#030303" d="M33.375,180.171h-0.401c-0.131,0-0.238,0.037-0.321,0.111c-0.083,0.075-0.169,0.276-0.259,0.604
		c-0.042,0.145-0.107,0.234-0.195,0.271c-0.088,0.036-0.265,0.055-0.53,0.055c-0.253,0-0.417-0.014-0.491-0.04
		s-0.11-0.079-0.11-0.157c0-0.045,0.003-0.091,0.009-0.137l0.107-0.883c0.012-0.104,0.053-0.171,0.123-0.202
		c0.071-0.032,0.248-0.048,0.531-0.048h6.488c0.189,0,0.304,0.011,0.345,0.03c0.041,0.021,0.074,0.094,0.098,0.22l0.15,0.781
		c0.012,0.061,0.018,0.122,0.018,0.186c0,0.075-0.022,0.134-0.066,0.174c-0.044,0.041-0.184,0.061-0.42,0.061
		c-0.301,0-0.494-0.013-0.579-0.037c-0.085-0.025-0.155-0.105-0.208-0.239c-0.094-0.22-0.197-0.399-0.309-0.54
		c-0.112-0.14-0.251-0.21-0.416-0.21h-0.266v4.865c0,0.139,0.142,0.235,0.424,0.288c0.118,0.022,0.196,0.05,0.234,0.081
		c0.039,0.032,0.058,0.099,0.058,0.199c0,0.129-0.027,0.204-0.08,0.226c-0.053,0.021-0.174,0.032-0.363,0.032h-3.898
		c-0.153,0-0.252-0.013-0.296-0.038c-0.044-0.025-0.066-0.097-0.066-0.216c0-0.142,0.092-0.228,0.277-0.258
		c0.179-0.03,0.292-0.06,0.34-0.089s0.072-0.079,0.072-0.149V180.171z"/>
	<path fill="#030303" d="M43.534,182.368h1.415v-1.905c0-0.061-0.013-0.102-0.04-0.122c-0.026-0.02-0.099-0.045-0.216-0.075
		c-0.13-0.03-0.195-0.102-0.195-0.212c0-0.142,0.015-0.229,0.044-0.26c0.029-0.032,0.112-0.048,0.248-0.048h3.837
		c0.171,0,0.274,0.014,0.309,0.04c0.036,0.026,0.053,0.113,0.053,0.26c0,0.088-0.019,0.141-0.058,0.157
		c-0.038,0.017-0.158,0.046-0.358,0.089c-0.218,0.051-0.327,0.129-0.327,0.235v4.535c0,0.119,0.126,0.214,0.38,0.284
		c0.206,0.056,0.309,0.106,0.309,0.151v0.239c0,0.051-0.018,0.084-0.053,0.101c-0.036,0.017-0.139,0.024-0.31,0.024h-3.855
		c-0.13,0-0.209-0.01-0.239-0.03c-0.03-0.021-0.044-0.113-0.044-0.28c0-0.084,0.08-0.149,0.239-0.197
		c0.183-0.056,0.274-0.12,0.274-0.193v-2.364h-1.415v2.387c0,0.081,0.077,0.146,0.23,0.193c0.153,0.054,0.23,0.128,0.23,0.224
		c0,0.134-0.018,0.211-0.053,0.231c-0.035,0.021-0.106,0.03-0.212,0.03h-3.882c-0.124,0-0.2-0.012-0.229-0.034
		c-0.03-0.022-0.044-0.112-0.044-0.269c0-0.073,0.015-0.122,0.044-0.145c0.029-0.022,0.112-0.051,0.248-0.083
		c0.248-0.056,0.371-0.13,0.371-0.224v-4.581c0-0.073-0.109-0.144-0.327-0.209c-0.218-0.068-0.327-0.165-0.327-0.292
		c0-0.134,0.025-0.214,0.075-0.24s0.161-0.04,0.332-0.04h3.625c0.159,0,0.269,0.013,0.327,0.036c0.059,0.024,0.088,0.08,0.088,0.169
		v0.178c-0.012,0.046-0.085,0.086-0.221,0.121c-0.183,0.043-0.274,0.114-0.274,0.213V182.368z"/>
	<path fill="#030303" d="M49.502,180.064v-0.2c0-0.079,0.097-0.118,0.292-0.118h4.235c0.159,0,0.263,0.009,0.31,0.026
		c0.047,0.019,0.071,0.071,0.071,0.159c0,0.135-0.016,0.218-0.048,0.25c-0.033,0.033-0.105,0.054-0.217,0.062
		c-0.366,0.027-0.548,0.127-0.548,0.299v4.555c0,0.097,0.133,0.172,0.398,0.228c0.171,0.035,0.274,0.067,0.31,0.095
		c0.035,0.028,0.053,0.076,0.053,0.144v0.148c0,0.081-0.018,0.126-0.053,0.136c-0.036,0.011-0.127,0.016-0.274,0.016h-4.314
		c-0.165,0-0.248-0.027-0.248-0.083c0-0.183,0.015-0.293,0.044-0.334c0.03-0.04,0.133-0.072,0.31-0.095
		c0.318-0.038,0.478-0.109,0.478-0.216v-4.498c0-0.106-0.03-0.187-0.088-0.24c-0.059-0.055-0.189-0.1-0.389-0.135
		c-0.147-0.027-0.237-0.053-0.27-0.074C49.519,180.166,49.502,180.125,49.502,180.064z"/>
	<path fill="#030303" d="M58.928,179.909c0.035-0.013,0.135-0.069,0.3-0.171c0.106-0.065,0.248-0.098,0.425-0.098
		c0.041,0,0.206,0.009,0.495,0.026c0.059,0.025,0.103,0.078,0.132,0.159l0.478,1.284c0.023,0.068,0.036,0.108,0.036,0.121
		c0,0.048-0.031,0.08-0.093,0.095c-0.062,0.016-0.225,0.023-0.491,0.023c-0.3,0-0.495-0.017-0.583-0.05
		c-0.088-0.032-0.256-0.169-0.504-0.409c-0.524-0.508-0.993-0.762-1.406-0.762c-0.295,0-0.442,0.089-0.442,0.266
		c0,0.22,0.445,0.651,1.335,1.296c1.02,0.742,1.684,1.28,1.994,1.612s0.464,0.704,0.464,1.116c0,0.487-0.269,0.861-0.805,1.121
		c-0.537,0.261-1.141,0.391-1.813,0.391c-0.424,0-0.834-0.052-1.229-0.155c-0.153-0.041-0.274-0.061-0.363-0.061
		c-0.077,0-0.138,0.023-0.186,0.071c-0.094,0.097-0.324,0.145-0.689,0.145c-0.142,0-0.237-0.01-0.288-0.028
		c-0.05-0.02-0.087-0.069-0.11-0.15l-0.442-1.262c-0.059-0.161-0.089-0.247-0.089-0.258c0-0.073,0.156-0.109,0.469-0.109
		c0.424,0,0.675,0.024,0.751,0.072s0.186,0.157,0.327,0.329c0.519,0.614,1.041,0.921,1.565,0.921c0.195,0,0.353-0.03,0.473-0.091
		c0.121-0.061,0.181-0.137,0.181-0.228c0-0.159-0.134-0.348-0.402-0.566c-0.269-0.219-0.597-0.462-0.986-0.729
		c-0.932-0.642-1.59-1.153-1.977-1.536c-0.386-0.383-0.579-0.773-0.579-1.173c0-0.45,0.23-0.809,0.69-1.076
		c0.459-0.268,1.022-0.402,1.688-0.402C57.717,179.644,58.274,179.732,58.928,179.909z"/>
	<path fill="#030303" d="M66.01,180.064v-0.2c0-0.079,0.097-0.118,0.292-0.118h4.235c0.159,0,0.263,0.009,0.31,0.026
		c0.047,0.019,0.071,0.071,0.071,0.159c0,0.135-0.016,0.218-0.048,0.25c-0.033,0.033-0.105,0.054-0.217,0.062
		c-0.366,0.027-0.548,0.127-0.548,0.299v4.555c0,0.097,0.133,0.172,0.398,0.228c0.171,0.035,0.274,0.067,0.31,0.095
		c0.035,0.028,0.053,0.076,0.053,0.144v0.148c0,0.081-0.018,0.126-0.053,0.136c-0.036,0.011-0.127,0.016-0.274,0.016h-4.314
		c-0.165,0-0.248-0.027-0.248-0.083c0-0.183,0.015-0.293,0.044-0.334c0.03-0.04,0.133-0.072,0.31-0.095
		c0.318-0.038,0.478-0.109,0.478-0.216v-4.498c0-0.106-0.03-0.187-0.088-0.24c-0.059-0.055-0.189-0.1-0.389-0.135
		c-0.147-0.027-0.237-0.053-0.27-0.074C66.026,180.166,66.01,180.125,66.01,180.064z"/>
	<path fill="#030303" d="M75.436,179.909c0.035-0.013,0.135-0.069,0.3-0.171c0.106-0.065,0.248-0.098,0.425-0.098
		c0.041,0,0.206,0.009,0.495,0.026c0.059,0.025,0.103,0.078,0.132,0.159l0.478,1.284c0.023,0.068,0.036,0.108,0.036,0.121
		c0,0.048-0.031,0.08-0.093,0.095c-0.062,0.016-0.225,0.023-0.491,0.023c-0.3,0-0.495-0.017-0.583-0.05
		c-0.088-0.032-0.256-0.169-0.504-0.409c-0.524-0.508-0.993-0.762-1.406-0.762c-0.295,0-0.442,0.089-0.442,0.266
		c0,0.22,0.445,0.651,1.335,1.296c1.02,0.742,1.684,1.28,1.994,1.612s0.464,0.704,0.464,1.116c0,0.487-0.269,0.861-0.805,1.121
		c-0.537,0.261-1.141,0.391-1.813,0.391c-0.424,0-0.834-0.052-1.229-0.155c-0.153-0.041-0.274-0.061-0.363-0.061
		c-0.077,0-0.138,0.023-0.186,0.071c-0.094,0.097-0.324,0.145-0.689,0.145c-0.142,0-0.237-0.01-0.288-0.028
		c-0.05-0.02-0.087-0.069-0.11-0.15l-0.442-1.262c-0.059-0.161-0.089-0.247-0.089-0.258c0-0.073,0.156-0.109,0.469-0.109
		c0.424,0,0.675,0.024,0.751,0.072s0.186,0.157,0.327,0.329c0.519,0.614,1.041,0.921,1.565,0.921c0.195,0,0.353-0.03,0.473-0.091
		c0.121-0.061,0.181-0.137,0.181-0.228c0-0.159-0.134-0.348-0.402-0.566c-0.269-0.219-0.597-0.462-0.986-0.729
		c-0.932-0.642-1.59-1.153-1.977-1.536c-0.386-0.383-0.579-0.773-0.579-1.173c0-0.45,0.23-0.809,0.69-1.076
		c0.459-0.268,1.022-0.402,1.688-0.402C74.225,179.644,74.782,179.732,75.436,179.909z"/>
	<path fill="#030303" d="M84.711,182.396v2.675c0,0.111,0.147,0.194,0.442,0.25c0.248,0.048,0.372,0.116,0.372,0.205
		c0,0.185-0.01,0.286-0.031,0.307c-0.021,0.021-0.107,0.03-0.26,0.03h-2.345c-0.118,0-0.191-0.02-0.22-0.059
		s-0.044-0.136-0.044-0.29c0-0.07,0.078-0.12,0.235-0.147c0.303-0.059,0.454-0.124,0.454-0.197v-4.479
		c0-0.108-0.023-0.189-0.07-0.244c-0.047-0.054-0.152-0.099-0.314-0.135c-0.146-0.03-0.244-0.063-0.293-0.098
		c-0.05-0.036-0.074-0.103-0.074-0.201c0-0.177,0.108-0.266,0.325-0.266h2.446l2.976,2.958v-2.181c0-0.121-0.145-0.207-0.433-0.258
		c-0.171-0.033-0.282-0.07-0.332-0.112c-0.05-0.041-0.075-0.123-0.075-0.244c0-0.076,0.018-0.122,0.053-0.139
		c0.036-0.016,0.103-0.024,0.204-0.024h2.44c0.135,0.008,0.203,0.091,0.203,0.25c0,0.094-0.013,0.153-0.04,0.179
		c-0.027,0.025-0.087,0.047-0.182,0.064c-0.206,0.035-0.336,0.069-0.389,0.102c-0.053,0.033-0.08,0.079-0.08,0.137v5.385h-1.503
		L84.711,182.396z"/>
	<path fill="#030303" d="M95.471,179.644c0.867,0,1.617,0.125,2.25,0.374c0.634,0.249,1.151,0.603,1.552,1.063
		s0.602,1.05,0.602,1.77c0,0.864-0.391,1.594-1.172,2.188c-0.781,0.595-1.882,0.893-3.302,0.893c-1.35,0-2.414-0.291-3.192-0.872
		c-0.778-0.581-1.167-1.331-1.167-2.25c0-0.942,0.399-1.706,1.198-2.289C93.038,179.936,94.115,179.644,95.471,179.644z
		 M96.17,180.542c0-0.315-0.239-0.474-0.716-0.474c-0.201,0-0.372,0.039-0.513,0.117c-0.142,0.079-0.212,0.175-0.212,0.288v4.574
		c0,0.154,0.071,0.271,0.212,0.351c0.141,0.079,0.309,0.119,0.504,0.119c0.218,0,0.393-0.044,0.526-0.133
		c0.133-0.088,0.199-0.187,0.199-0.296V180.542z"/>
	<path fill="#030303" d="M102.987,180.171h-0.401c-0.131,0-0.238,0.037-0.321,0.111c-0.083,0.075-0.169,0.276-0.259,0.604
		c-0.042,0.145-0.107,0.234-0.195,0.271c-0.088,0.036-0.265,0.055-0.53,0.055c-0.253,0-0.417-0.014-0.491-0.04
		s-0.11-0.079-0.11-0.157c0-0.045,0.003-0.091,0.009-0.137l0.107-0.883c0.012-0.104,0.053-0.171,0.123-0.202
		c0.071-0.032,0.248-0.048,0.531-0.048h6.488c0.189,0,0.304,0.011,0.345,0.03c0.041,0.021,0.074,0.094,0.098,0.22l0.15,0.781
		c0.012,0.061,0.018,0.122,0.018,0.186c0,0.075-0.022,0.134-0.066,0.174c-0.044,0.041-0.184,0.061-0.42,0.061
		c-0.301,0-0.494-0.013-0.579-0.037c-0.085-0.025-0.155-0.105-0.208-0.239c-0.094-0.22-0.197-0.399-0.309-0.54
		c-0.112-0.14-0.251-0.21-0.416-0.21h-0.266v4.865c0,0.139,0.142,0.235,0.424,0.288c0.118,0.022,0.196,0.05,0.234,0.081
		c0.039,0.032,0.058,0.099,0.058,0.199c0,0.129-0.027,0.204-0.08,0.226c-0.053,0.021-0.174,0.032-0.363,0.032h-3.898
		c-0.153,0-0.252-0.013-0.296-0.038c-0.044-0.025-0.066-0.097-0.066-0.216c0-0.142,0.092-0.228,0.277-0.258
		c0.179-0.03,0.292-0.06,0.34-0.089s0.072-0.079,0.072-0.149V180.171z"/>
	<path fill="#030303" d="M117.558,185.435h0.504c0.259,0,0.451-0.045,0.575-0.133c0.124-0.089,0.286-0.293,0.486-0.614
		c0.071-0.124,0.156-0.199,0.256-0.226c0.101-0.026,0.271-0.04,0.513-0.04c0.265,0,0.436,0.01,0.513,0.029
		c0.077,0.019,0.115,0.054,0.115,0.104c0,0.036-0.015,0.093-0.044,0.171l-0.31,0.905c-0.035,0.094-0.081,0.155-0.137,0.186
		c-0.056,0.03-0.169,0.046-0.34,0.046h-5.818c-0.248,0-0.371-0.065-0.371-0.197c0-0.101,0.016-0.166,0.048-0.195
		c0.032-0.028,0.102-0.051,0.208-0.066c0.336-0.045,0.504-0.178,0.504-0.397v-4.502c0-0.093-0.106-0.16-0.318-0.2
		c-0.183-0.033-0.295-0.069-0.336-0.11c-0.042-0.04-0.062-0.107-0.062-0.201c0-0.11,0.018-0.18,0.053-0.206
		c0.035-0.026,0.129-0.04,0.283-0.04h4.076c0.153,0,0.258,0.016,0.314,0.048c0.056,0.031,0.084,0.116,0.084,0.256
		c0,0.083-0.019,0.14-0.058,0.168c-0.038,0.029-0.137,0.056-0.296,0.078c-0.295,0.043-0.442,0.126-0.442,0.25V185.435z"/>
	<path fill="#030303" d="M124.95,180.213v2.163h0.601c0.165,0,0.286-0.015,0.362-0.045s0.136-0.097,0.177-0.197
		c0.07-0.18,0.128-0.287,0.172-0.322c0.044-0.035,0.113-0.053,0.208-0.053c0.466,0,0.729,0.008,0.792,0.024s0.093,0.08,0.093,0.191
		v1.262c0,0.078-0.03,0.13-0.088,0.153c-0.059,0.024-0.242,0.036-0.548,0.036c-0.2,0-0.334-0.016-0.402-0.048
		c-0.068-0.031-0.134-0.12-0.199-0.267c-0.065-0.134-0.128-0.216-0.19-0.246c-0.062-0.03-0.158-0.046-0.288-0.046h-0.689v2.611
		h0.468c0.289,0,0.488-0.035,0.597-0.104c0.109-0.069,0.284-0.27,0.526-0.601c0.1-0.139,0.204-0.229,0.31-0.272
		s0.292-0.064,0.557-0.064c0.365,0,0.548,0.05,0.548,0.151c0,0.03-0.012,0.074-0.035,0.133l-0.328,0.859
		c-0.058,0.157-0.106,0.251-0.145,0.282c-0.039,0.032-0.158,0.048-0.358,0.048h-5.897c-0.147,0-0.242-0.015-0.283-0.044
		c-0.041-0.028-0.062-0.112-0.062-0.252c0-0.088,0.106-0.152,0.318-0.193c0.324-0.058,0.486-0.138,0.486-0.238v-4.726
		c-0.006-0.048-0.138-0.096-0.397-0.144c-0.177-0.033-0.282-0.064-0.314-0.095c-0.033-0.03-0.049-0.104-0.049-0.22
		c0-0.099,0.018-0.157,0.053-0.177c0.035-0.019,0.138-0.028,0.31-0.028h5.641c0.142,0,0.245,0.011,0.31,0.03
		c0.065,0.021,0.115,0.068,0.15,0.145l0.451,0.978c0.023,0.051,0.035,0.085,0.035,0.103c0,0.067-0.143,0.102-0.427,0.102
		c-0.32,0-0.534-0.016-0.641-0.047s-0.21-0.11-0.312-0.237c-0.182-0.227-0.338-0.385-0.47-0.474
		c-0.132-0.088-0.28-0.132-0.444-0.132H124.95z"/>
	<path fill="#030303" d="M134.764,185.491c-0.53,0.293-1.185,0.439-1.963,0.439c-1.214,0-2.208-0.306-2.979-0.917
		c-0.772-0.611-1.158-1.337-1.158-2.175c0-0.95,0.436-1.72,1.309-2.31c0.872-0.59,1.904-0.886,3.095-0.886
		c0.571,0,1.079,0.063,1.521,0.189c0.142,0.038,0.25,0.058,0.327,0.058c0.106,0,0.198-0.043,0.274-0.129
		c0.07-0.078,0.194-0.118,0.371-0.118h0.106l0.283,0.008c0.188,0.013,0.306,0.069,0.354,0.171l0.566,1.205
		c0.059,0.124,0.088,0.207,0.088,0.25c0,0.088-0.156,0.133-0.469,0.133c-0.306,0-0.504-0.02-0.592-0.058
		c-0.088-0.037-0.265-0.17-0.53-0.397c-0.354-0.309-0.665-0.522-0.933-0.643c-0.268-0.119-0.556-0.18-0.862-0.18
		c-0.808,0-1.211,0.275-1.211,0.826v4.069c0,0.299,0.221,0.447,0.663,0.447c0.483,0,0.725-0.148,0.725-0.446v-1.979
		c0-0.128-0.103-0.211-0.31-0.249c-0.224-0.041-0.336-0.124-0.336-0.248c0-0.135,0.029-0.216,0.088-0.242
		c0.059-0.027,0.186-0.04,0.38-0.04h3.74c0.183,0,0.305,0.014,0.367,0.041c0.062,0.028,0.093,0.092,0.093,0.191
		c0,0.104-0.019,0.174-0.058,0.21c-0.038,0.035-0.131,0.064-0.278,0.088c-0.212,0.032-0.318,0.102-0.318,0.208v2.573
		c0,0.154-0.023,0.251-0.071,0.29s-0.171,0.059-0.371,0.059c-0.183,0-0.314-0.006-0.394-0.018c-0.08-0.011-0.19-0.046-0.332-0.104
		C135.554,185.646,135.159,185.539,134.764,185.491z"/>
	<path fill="#030303" d="M142.482,184.555h-2.204l-0.102,0.349c0,0.008-0.006,0.02-0.019,0.034c-0.05,0.073-0.075,0.139-0.075,0.197
		c0,0.091,0.138,0.168,0.414,0.231c0.146,0.032,0.237,0.066,0.272,0.102c0.035,0.036,0.053,0.094,0.053,0.175
		c0,0.104-0.014,0.166-0.04,0.188s-0.089,0.032-0.189,0.032h-2.327c-0.129,0-0.194-0.058-0.194-0.174c0-0.14,0.103-0.252,0.31-0.338
		c0.194-0.078,0.306-0.161,0.336-0.25l1.638-4.46c0.029-0.068,0.044-0.127,0.044-0.178c0-0.078-0.127-0.148-0.381-0.209
		c-0.118-0.03-0.177-0.097-0.177-0.2c0-0.14,0.018-0.226,0.053-0.258c0.036-0.033,0.13-0.05,0.283-0.05h3.376
		c0.207,0,0.351,0.042,0.433,0.125c0.083,0.084,0.165,0.266,0.248,0.546c0.036,0.108,0.071,0.216,0.106,0.322l1.451,4.164
		c0.071,0.202,0.245,0.356,0.522,0.463c0.076,0.027,0.126,0.05,0.15,0.066c0.024,0.016,0.036,0.065,0.036,0.149
		c0,0.129-0.021,0.208-0.062,0.236c-0.041,0.029-0.129,0.044-0.265,0.044h-3.927c-0.118,0-0.176-0.048-0.176-0.144
		c0-0.122,0.015-0.197,0.044-0.228s0.114-0.066,0.255-0.106c0.205-0.056,0.308-0.127,0.308-0.213
		C142.674,185.084,142.61,184.878,142.482,184.555z M141.424,181.158l-0.999,2.961h1.966L141.424,181.158z"/>
	<path fill="#030303" d="M150.936,185.435h0.504c0.259,0,0.451-0.045,0.575-0.133c0.124-0.089,0.286-0.293,0.486-0.614
		c0.071-0.124,0.156-0.199,0.256-0.226c0.101-0.026,0.271-0.04,0.513-0.04c0.265,0,0.436,0.01,0.513,0.029
		c0.077,0.019,0.115,0.054,0.115,0.104c0,0.036-0.015,0.093-0.044,0.171l-0.31,0.905c-0.035,0.094-0.081,0.155-0.137,0.186
		c-0.056,0.03-0.169,0.046-0.34,0.046h-5.818c-0.248,0-0.371-0.065-0.371-0.197c0-0.101,0.016-0.166,0.048-0.195
		c0.032-0.028,0.102-0.051,0.208-0.066c0.336-0.045,0.504-0.178,0.504-0.397v-4.502c0-0.093-0.106-0.16-0.318-0.2
		c-0.183-0.033-0.295-0.069-0.336-0.11c-0.042-0.04-0.062-0.107-0.062-0.201c0-0.11,0.018-0.18,0.053-0.206
		c0.035-0.026,0.129-0.04,0.283-0.04h4.076c0.153,0,0.258,0.016,0.314,0.048c0.056,0.031,0.084,0.116,0.084,0.256
		c0,0.083-0.019,0.14-0.058,0.168c-0.038,0.029-0.137,0.056-0.296,0.078c-0.295,0.043-0.442,0.126-0.442,0.25V185.435z"/>
	<path fill="#030303" d="M161.069,180.171h-0.401c-0.131,0-0.238,0.037-0.321,0.111c-0.083,0.075-0.169,0.276-0.259,0.604
		c-0.042,0.145-0.107,0.234-0.195,0.271c-0.088,0.036-0.265,0.055-0.53,0.055c-0.253,0-0.417-0.014-0.491-0.04
		s-0.11-0.079-0.11-0.157c0-0.045,0.003-0.091,0.009-0.137l0.107-0.883c0.012-0.104,0.053-0.171,0.123-0.202
		c0.071-0.032,0.248-0.048,0.531-0.048h6.488c0.189,0,0.304,0.011,0.345,0.03c0.041,0.021,0.074,0.094,0.098,0.22l0.15,0.781
		c0.012,0.061,0.018,0.122,0.018,0.186c0,0.075-0.022,0.134-0.066,0.174c-0.044,0.041-0.184,0.061-0.42,0.061
		c-0.301,0-0.494-0.013-0.579-0.037c-0.085-0.025-0.155-0.105-0.208-0.239c-0.094-0.22-0.197-0.399-0.309-0.54
		c-0.112-0.14-0.251-0.21-0.416-0.21h-0.266v4.865c0,0.139,0.142,0.235,0.424,0.288c0.118,0.022,0.196,0.05,0.234,0.081
		c0.039,0.032,0.058,0.099,0.058,0.199c0,0.129-0.027,0.204-0.08,0.226c-0.053,0.021-0.174,0.032-0.363,0.032h-3.898
		c-0.153,0-0.252-0.013-0.296-0.038c-0.044-0.025-0.066-0.097-0.066-0.216c0-0.142,0.092-0.228,0.277-0.258
		c0.179-0.03,0.292-0.06,0.34-0.089s0.072-0.079,0.072-0.149V180.171z"/>
	<path fill="#030303" d="M171.246,180.213v2.163h0.601c0.165,0,0.286-0.015,0.362-0.045s0.136-0.097,0.177-0.197
		c0.07-0.18,0.128-0.287,0.172-0.322c0.044-0.035,0.113-0.053,0.208-0.053c0.466,0,0.729,0.008,0.792,0.024s0.093,0.08,0.093,0.191
		v1.262c0,0.078-0.03,0.13-0.088,0.153c-0.059,0.024-0.242,0.036-0.548,0.036c-0.2,0-0.334-0.016-0.402-0.048
		c-0.068-0.031-0.134-0.12-0.199-0.267c-0.065-0.134-0.128-0.216-0.19-0.246c-0.062-0.03-0.158-0.046-0.288-0.046h-0.689v2.611
		h0.468c0.289,0,0.488-0.035,0.597-0.104c0.109-0.069,0.284-0.27,0.526-0.601c0.1-0.139,0.204-0.229,0.31-0.272
		s0.292-0.064,0.557-0.064c0.365,0,0.548,0.05,0.548,0.151c0,0.03-0.012,0.074-0.035,0.133l-0.328,0.859
		c-0.058,0.157-0.106,0.251-0.145,0.282c-0.039,0.032-0.158,0.048-0.358,0.048h-5.897c-0.147,0-0.242-0.015-0.283-0.044
		c-0.041-0.028-0.062-0.112-0.062-0.252c0-0.088,0.106-0.152,0.318-0.193c0.324-0.058,0.486-0.138,0.486-0.238v-4.726
		c-0.006-0.048-0.138-0.096-0.397-0.144c-0.177-0.033-0.282-0.064-0.314-0.095c-0.033-0.03-0.049-0.104-0.049-0.22
		c0-0.099,0.018-0.157,0.053-0.177c0.035-0.019,0.138-0.028,0.31-0.028h5.641c0.142,0,0.245,0.011,0.31,0.03
		c0.065,0.021,0.115,0.068,0.15,0.145l0.451,0.978c0.023,0.051,0.035,0.085,0.035,0.103c0,0.067-0.143,0.102-0.427,0.102
		c-0.32,0-0.534-0.016-0.641-0.047s-0.21-0.11-0.312-0.237c-0.182-0.227-0.338-0.385-0.47-0.474
		c-0.132-0.088-0.28-0.132-0.444-0.132H171.246z"/>
	<path fill="#030303" d="M176.931,182.396v2.675c0,0.111,0.147,0.194,0.442,0.25c0.248,0.048,0.372,0.116,0.372,0.205
		c0,0.185-0.01,0.286-0.031,0.307c-0.021,0.021-0.107,0.03-0.26,0.03h-2.345c-0.118,0-0.191-0.02-0.22-0.059
		s-0.044-0.136-0.044-0.29c0-0.07,0.078-0.12,0.235-0.147c0.303-0.059,0.454-0.124,0.454-0.197v-4.479
		c0-0.108-0.023-0.189-0.07-0.244c-0.047-0.054-0.152-0.099-0.314-0.135c-0.146-0.03-0.244-0.063-0.293-0.098
		c-0.05-0.036-0.074-0.103-0.074-0.201c0-0.177,0.108-0.266,0.325-0.266h2.446l2.976,2.958v-2.181c0-0.121-0.145-0.207-0.433-0.258
		c-0.171-0.033-0.282-0.07-0.332-0.112c-0.05-0.041-0.075-0.123-0.075-0.244c0-0.076,0.018-0.122,0.053-0.139
		c0.036-0.016,0.103-0.024,0.204-0.024h2.44c0.135,0.008,0.203,0.091,0.203,0.25c0,0.094-0.013,0.153-0.04,0.179
		c-0.027,0.025-0.087,0.047-0.182,0.064c-0.206,0.035-0.336,0.069-0.389,0.102c-0.053,0.033-0.08,0.079-0.08,0.137v5.385h-1.503
		L176.931,182.396z"/>
	<path fill="#030303" d="M183.712,185.021v-4.589c-0.018-0.051-0.124-0.089-0.318-0.114c-0.154-0.021-0.257-0.05-0.31-0.089
		c-0.053-0.039-0.08-0.123-0.08-0.252c0-0.094,0.038-0.155,0.115-0.186s0.274-0.046,0.592-0.046h4.235
		c1.208,0,2.209,0.239,3.002,0.717c0.792,0.478,1.189,1.271,1.189,2.379c0,1.011-0.383,1.767-1.149,2.269
		c-0.766,0.501-1.78,0.752-3.042,0.752h-4.668c-0.13,0-0.22-0.014-0.27-0.04c-0.05-0.026-0.075-0.085-0.075-0.176
		c0-0.108,0.009-0.177,0.026-0.205c0.018-0.027,0.103-0.059,0.256-0.095C183.547,185.273,183.712,185.165,183.712,185.021z
		 M187.002,180.197v5.248h0.468c0.33,0,0.572-0.059,0.725-0.176c0.153-0.118,0.23-0.327,0.23-0.627v-3.873
		c0-0.169-0.094-0.307-0.283-0.413c-0.189-0.106-0.457-0.159-0.805-0.159H187.002z"/>
	<path fill="#030303" d="M196.896,180.213v2.163h0.601c0.165,0,0.286-0.015,0.362-0.045s0.136-0.097,0.177-0.197
		c0.07-0.18,0.128-0.287,0.172-0.322c0.044-0.035,0.113-0.053,0.208-0.053c0.466,0,0.729,0.008,0.792,0.024s0.093,0.08,0.093,0.191
		v1.262c0,0.078-0.03,0.13-0.088,0.153c-0.059,0.024-0.242,0.036-0.548,0.036c-0.2,0-0.334-0.016-0.402-0.048
		c-0.068-0.031-0.134-0.12-0.199-0.267c-0.065-0.134-0.128-0.216-0.19-0.246c-0.062-0.03-0.158-0.046-0.288-0.046h-0.689v2.611
		h0.468c0.289,0,0.488-0.035,0.597-0.104c0.109-0.069,0.284-0.27,0.526-0.601c0.1-0.139,0.204-0.229,0.31-0.272
		s0.292-0.064,0.557-0.064c0.365,0,0.548,0.05,0.548,0.151c0,0.03-0.012,0.074-0.035,0.133l-0.328,0.859
		c-0.058,0.157-0.106,0.251-0.145,0.282c-0.039,0.032-0.158,0.048-0.358,0.048h-5.897c-0.147,0-0.242-0.015-0.283-0.044
		c-0.041-0.028-0.062-0.112-0.062-0.252c0-0.088,0.106-0.152,0.318-0.193c0.324-0.058,0.486-0.138,0.486-0.238v-4.726
		c-0.006-0.048-0.138-0.096-0.397-0.144c-0.177-0.033-0.282-0.064-0.314-0.095c-0.033-0.03-0.049-0.104-0.049-0.22
		c0-0.099,0.018-0.157,0.053-0.177c0.035-0.019,0.138-0.028,0.31-0.028h5.641c0.142,0,0.245,0.011,0.31,0.03
		c0.065,0.021,0.115,0.068,0.15,0.145l0.451,0.978c0.023,0.051,0.035,0.085,0.035,0.103c0,0.067-0.143,0.102-0.427,0.102
		c-0.32,0-0.534-0.016-0.641-0.047s-0.21-0.11-0.312-0.237c-0.182-0.227-0.338-0.385-0.47-0.474
		c-0.132-0.088-0.28-0.132-0.444-0.132H196.896z"/>
	<path fill="#030303" d="M204.473,183.172v1.88c0,0.088,0.013,0.147,0.039,0.178s0.1,0.062,0.222,0.095
		c0.156,0.043,0.234,0.115,0.234,0.216c0,0.146-0.031,0.237-0.093,0.271c-0.062,0.034-0.175,0.051-0.339,0.051h-3.733
		c-0.212,0-0.318-0.065-0.318-0.197c0-0.126,0.009-0.208,0.027-0.244c0.018-0.037,0.076-0.063,0.177-0.078
		c0.324-0.056,0.486-0.164,0.486-0.326v-4.44c0-0.164-0.142-0.264-0.424-0.3c-0.142-0.02-0.23-0.04-0.266-0.06
		c-0.035-0.021-0.053-0.079-0.053-0.177c0-0.196,0.124-0.294,0.371-0.294h4.89c0.973,0,1.84,0.157,2.604,0.47
		c0.763,0.313,1.145,0.734,1.145,1.263c0,0.75-0.893,1.24-2.679,1.47c1.633,0.154,2.449,0.598,2.449,1.33v0.902
		c0,0.075,0.068,0.132,0.203,0.17c0.159,0.046,0.239,0.115,0.239,0.209c0,0.146-0.021,0.233-0.062,0.261
		c-0.042,0.028-0.15,0.042-0.327,0.042h-2.37c-0.283,0-0.516-0.068-0.699-0.206s-0.274-0.308-0.274-0.51v-1.527
		c0-0.298-0.351-0.447-1.052-0.447H204.473z M204.473,180.179v2.554h0.575c0.583,0,0.875-0.251,0.875-0.754v-1.221
		c0-0.212-0.093-0.361-0.279-0.449c-0.186-0.087-0.476-0.13-0.871-0.13H204.473z"/>
	<path fill="#030303" d="M210.769,184.96c0-0.151,0.112-0.288,0.336-0.411c0.224-0.122,0.545-0.184,0.964-0.184
		c0.489,0,0.9,0.083,1.233,0.248c0.333,0.166,0.5,0.387,0.5,0.662c0,0.396-0.31,0.749-0.928,1.059
		c-0.619,0.31-1.052,0.464-1.3,0.464c-0.118,0-0.25-0.031-0.398-0.095c-0.147-0.063-0.221-0.107-0.221-0.132
		c0-0.033,0.059-0.075,0.177-0.125c0.542-0.218,0.813-0.434,0.813-0.648c0-0.056-0.028-0.107-0.084-0.155
		c-0.056-0.048-0.196-0.111-0.42-0.189c-0.224-0.078-0.392-0.154-0.504-0.229C210.825,185.149,210.769,185.062,210.769,184.96z"/>
	<path fill="#030303" d="M225.613,182.376c1.08,0.162,1.822,0.362,2.229,0.601c0.406,0.239,0.609,0.568,0.609,0.987
		c0,0.639-0.373,1.115-1.123,1.429c-0.748,0.313-1.906,0.47-3.475,0.47h-4.323c-0.177,0-0.266-0.039-0.266-0.117v-0.228
		c0-0.063,0.08-0.11,0.239-0.141c0.336-0.068,0.504-0.168,0.504-0.299v-4.574c0-0.063-0.023-0.105-0.07-0.129
		c-0.047-0.022-0.189-0.058-0.425-0.105c-0.118-0.023-0.187-0.048-0.208-0.076c-0.021-0.027-0.031-0.096-0.031-0.204
		c0-0.097,0.031-0.161,0.093-0.193c0.062-0.033,0.169-0.05,0.323-0.05h4.845c1.166,0,2.063,0.128,2.688,0.383
		s0.938,0.58,0.938,0.974c0,0.329-0.246,0.604-0.738,0.826C226.93,182.151,226.326,182.301,225.613,182.376z M223.297,180.175v1.989
		h0.469c0.295,0,0.525-0.037,0.693-0.11s0.266-0.195,0.293-0.365c0.025-0.171,0.039-0.386,0.039-0.646
		c0-0.363-0.08-0.599-0.242-0.706s-0.424-0.161-0.783-0.161H223.297z M223.297,182.596v2.831c0.543,0,0.906-0.032,1.092-0.095
		c0.186-0.063,0.295-0.188,0.328-0.375c0.031-0.188,0.049-0.503,0.049-0.947c0-0.092-0.01-0.298-0.027-0.62
		s-0.053-0.516-0.105-0.581c-0.053-0.066-0.146-0.118-0.279-0.156c-0.133-0.037-0.328-0.057-0.588-0.057H223.297z"/>
	<path fill="#030303" d="M229.514,179.746h3.828c0.129,0,0.211,0.013,0.248,0.036c0.035,0.024,0.053,0.098,0.053,0.222
		s-0.086,0.206-0.258,0.246c-0.129,0.03-0.215,0.063-0.26,0.095c-0.045,0.033-0.066,0.097-0.066,0.19v4.247
		c0,0.116,0.076,0.21,0.23,0.282c0.152,0.072,0.348,0.108,0.582,0.108c0.219,0,0.404-0.041,0.559-0.121
		c0.152-0.081,0.229-0.171,0.229-0.27v-4.244c0-0.073-0.016-0.124-0.049-0.153c-0.031-0.029-0.113-0.064-0.242-0.108
		c-0.201-0.065-0.301-0.167-0.301-0.305c0-0.107,0.027-0.171,0.084-0.193c0.057-0.021,0.137-0.032,0.244-0.032h1.908
		c0.213,0,0.318,0.046,0.318,0.137v0.182c0,0.081-0.012,0.132-0.035,0.153s-0.092,0.041-0.203,0.059
		c-0.277,0.041-0.416,0.123-0.416,0.247v4.134c0,0.392-0.262,0.702-0.787,0.931c-0.523,0.229-1.254,0.343-2.191,0.343
		c-1.049,0-1.85-0.121-2.4-0.364c-0.553-0.242-0.828-0.592-0.828-1.049v-3.994c0-0.106-0.129-0.185-0.389-0.235
		c-0.129-0.025-0.207-0.049-0.234-0.07c-0.025-0.021-0.039-0.067-0.039-0.138c0-0.146,0.02-0.239,0.063-0.277
		C229.201,179.766,229.318,179.746,229.514,179.746z"/>
	<path fill="#030303" d="M239.434,180.171h-0.402c-0.131,0-0.238,0.037-0.32,0.111c-0.082,0.075-0.17,0.276-0.26,0.604
		c-0.041,0.145-0.105,0.234-0.195,0.271c-0.088,0.036-0.264,0.055-0.529,0.055c-0.254,0-0.416-0.014-0.49-0.04
		s-0.111-0.079-0.111-0.157c0-0.045,0.004-0.091,0.01-0.137l0.107-0.883c0.012-0.104,0.053-0.171,0.123-0.202
		c0.07-0.032,0.246-0.048,0.529-0.048h6.49c0.188,0,0.303,0.011,0.344,0.03c0.041,0.021,0.074,0.094,0.098,0.22l0.15,0.781
		c0.012,0.061,0.018,0.122,0.018,0.186c0,0.075-0.021,0.134-0.066,0.174c-0.043,0.041-0.184,0.061-0.42,0.061
		c-0.301,0-0.494-0.013-0.578-0.037c-0.086-0.025-0.154-0.105-0.209-0.239c-0.094-0.22-0.197-0.399-0.309-0.54
		c-0.111-0.14-0.25-0.21-0.416-0.21h-0.266v4.865c0,0.139,0.143,0.235,0.426,0.288c0.117,0.022,0.195,0.05,0.234,0.081
		c0.037,0.032,0.057,0.099,0.057,0.199c0,0.129-0.027,0.204-0.08,0.226s-0.174,0.032-0.363,0.032h-3.896
		c-0.154,0-0.254-0.013-0.297-0.038c-0.045-0.025-0.066-0.097-0.066-0.216c0-0.142,0.092-0.228,0.277-0.258
		c0.18-0.03,0.293-0.06,0.34-0.089c0.049-0.029,0.072-0.079,0.072-0.149V180.171z"/>
	<path fill="#030303" d="M255.604,181.538l-0.414-0.984c-0.035-0.094-0.15-0.184-0.346-0.27c-0.129-0.056-0.193-0.108-0.193-0.159
		v-0.265c0-0.076,0.084-0.114,0.256-0.114h3.617c0.117,0,0.191,0.013,0.225,0.038s0.049,0.082,0.049,0.171
		c0,0.134-0.016,0.214-0.049,0.24c-0.031,0.026-0.107,0.054-0.223,0.081c-0.176,0.041-0.264,0.081-0.264,0.122
		c0,0.053,0.023,0.131,0.07,0.235l1.016,2.442l1.057-2.522c0.006-0.025,0.01-0.052,0.01-0.079c0-0.116-0.15-0.205-0.451-0.266
		c-0.152-0.03-0.232-0.116-0.238-0.258c0-0.038-0.002-0.064-0.008-0.08v-0.034c0-0.061,0.105-0.091,0.316-0.091h2.027
		c0.141,0,0.232,0.011,0.273,0.032s0.061,0.067,0.061,0.139c0,0.022-0.002,0.045-0.008,0.068l-0.027,0.147
		c-0.023,0.059-0.117,0.11-0.283,0.155c-0.164,0.046-0.27,0.123-0.318,0.231l-2.131,5.002c-0.082,0.197-0.148,0.314-0.203,0.353
		c-0.053,0.037-0.15,0.057-0.291,0.057h-1.486c-0.158,0-0.258-0.072-0.299-0.216c-0.008-0.028-0.014-0.05-0.02-0.064l-1.121-2.674
		l-1.115,2.719c-0.041,0.109-0.086,0.175-0.133,0.199s-0.123,0.036-0.229,0.036h-1.549c-0.176,0-0.303-0.133-0.379-0.398
		c-0.012-0.048-0.023-0.084-0.035-0.109l-2.113-4.903c-0.049-0.104-0.172-0.18-0.373-0.228c-0.164-0.038-0.246-0.094-0.246-0.167
		v-0.292c0-0.058,0.082-0.087,0.246-0.087h3.502c0.117,0,0.201,0.014,0.248,0.04s0.07,0.088,0.07,0.184
		c0,0.108-0.008,0.177-0.025,0.205c-0.018,0.027-0.074,0.06-0.166,0.095c-0.117,0.048-0.176,0.097-0.176,0.147
		c0,0.058,0.018,0.13,0.053,0.216l1.119,2.559L255.604,181.538z"/>
	<path fill="#030303" d="M266.869,180.213v2.163h0.602c0.164,0,0.285-0.015,0.361-0.045c0.078-0.03,0.137-0.097,0.178-0.197
		c0.07-0.18,0.129-0.287,0.172-0.322c0.045-0.035,0.113-0.053,0.209-0.053c0.465,0,0.729,0.008,0.791,0.024
		c0.061,0.017,0.092,0.08,0.092,0.191v1.262c0,0.078-0.029,0.13-0.088,0.153c-0.059,0.024-0.242,0.036-0.549,0.036
		c-0.199,0-0.334-0.016-0.402-0.048c-0.066-0.031-0.133-0.12-0.199-0.267c-0.064-0.134-0.127-0.216-0.189-0.246
		s-0.158-0.046-0.287-0.046h-0.689v2.611h0.469c0.289,0,0.488-0.035,0.596-0.104c0.109-0.069,0.285-0.27,0.527-0.601
		c0.1-0.139,0.203-0.229,0.309-0.272c0.107-0.043,0.293-0.064,0.557-0.064c0.367,0,0.549,0.05,0.549,0.151
		c0,0.03-0.012,0.074-0.035,0.133l-0.328,0.859c-0.059,0.157-0.107,0.251-0.145,0.282c-0.039,0.032-0.158,0.048-0.359,0.048h-5.896
		c-0.148,0-0.242-0.015-0.283-0.044c-0.041-0.028-0.063-0.112-0.063-0.252c0-0.088,0.107-0.152,0.318-0.193
		c0.324-0.058,0.486-0.138,0.486-0.238v-4.726c-0.006-0.048-0.139-0.096-0.396-0.144c-0.178-0.033-0.283-0.064-0.314-0.095
		c-0.033-0.03-0.049-0.104-0.049-0.22c0-0.099,0.018-0.157,0.053-0.177c0.035-0.019,0.139-0.028,0.311-0.028h5.641
		c0.141,0,0.244,0.011,0.309,0.03c0.064,0.021,0.115,0.068,0.15,0.145l0.451,0.978c0.023,0.051,0.035,0.085,0.035,0.103
		c0,0.067-0.143,0.102-0.426,0.102c-0.322,0-0.535-0.016-0.643-0.047c-0.105-0.031-0.209-0.11-0.311-0.237
		c-0.182-0.227-0.338-0.385-0.471-0.474c-0.131-0.088-0.279-0.132-0.443-0.132H266.869z"/>
	<path fill="#030303" d="M277.152,180.171h-0.402c-0.131,0-0.238,0.037-0.32,0.111c-0.082,0.075-0.17,0.276-0.26,0.604
		c-0.041,0.145-0.105,0.234-0.195,0.271c-0.088,0.036-0.264,0.055-0.529,0.055c-0.254,0-0.416-0.014-0.49-0.04
		s-0.111-0.079-0.111-0.157c0-0.045,0.004-0.091,0.01-0.137l0.107-0.883c0.012-0.104,0.053-0.171,0.123-0.202
		c0.07-0.032,0.246-0.048,0.529-0.048h6.49c0.188,0,0.303,0.011,0.344,0.03c0.041,0.021,0.074,0.094,0.098,0.22l0.15,0.781
		c0.012,0.061,0.018,0.122,0.018,0.186c0,0.075-0.021,0.134-0.066,0.174c-0.043,0.041-0.184,0.061-0.42,0.061
		c-0.301,0-0.494-0.013-0.578-0.037c-0.086-0.025-0.154-0.105-0.209-0.239c-0.094-0.22-0.197-0.399-0.309-0.54
		c-0.111-0.14-0.25-0.21-0.416-0.21h-0.266v4.865c0,0.139,0.143,0.235,0.426,0.288c0.117,0.022,0.195,0.05,0.234,0.081
		c0.037,0.032,0.057,0.099,0.057,0.199c0,0.129-0.027,0.204-0.08,0.226s-0.174,0.032-0.363,0.032h-3.896
		c-0.154,0-0.254-0.013-0.297-0.038c-0.045-0.025-0.066-0.097-0.066-0.216c0-0.142,0.092-0.228,0.277-0.258
		c0.18-0.03,0.293-0.06,0.34-0.089c0.049-0.029,0.072-0.079,0.072-0.149V180.171z"/>
	<path fill="#030303" d="M287.311,182.368h1.416v-1.905c0-0.061-0.014-0.102-0.041-0.122c-0.025-0.02-0.098-0.045-0.217-0.075
		c-0.129-0.03-0.193-0.102-0.193-0.212c0-0.142,0.014-0.229,0.043-0.26c0.031-0.032,0.113-0.048,0.248-0.048h3.838
		c0.17,0,0.273,0.014,0.309,0.04s0.055,0.113,0.055,0.26c0,0.088-0.02,0.141-0.059,0.157s-0.158,0.046-0.357,0.089
		c-0.219,0.051-0.328,0.129-0.328,0.235v4.535c0,0.119,0.127,0.214,0.381,0.284c0.207,0.056,0.309,0.106,0.309,0.151v0.239
		c0,0.051-0.018,0.084-0.053,0.101s-0.139,0.024-0.309,0.024h-3.855c-0.129,0-0.209-0.01-0.238-0.03s-0.045-0.113-0.045-0.28
		c0-0.084,0.08-0.149,0.238-0.197c0.184-0.056,0.275-0.12,0.275-0.193v-2.364h-1.416v2.387c0,0.081,0.078,0.146,0.23,0.193
		c0.154,0.054,0.23,0.128,0.23,0.224c0,0.134-0.018,0.211-0.053,0.231c-0.037,0.021-0.107,0.03-0.213,0.03h-3.881
		c-0.125,0-0.201-0.012-0.23-0.034s-0.045-0.112-0.045-0.269c0-0.073,0.016-0.122,0.045-0.145s0.111-0.051,0.248-0.083
		c0.246-0.056,0.371-0.13,0.371-0.224v-4.581c0-0.073-0.109-0.144-0.328-0.209c-0.217-0.068-0.326-0.165-0.326-0.292
		c0-0.134,0.025-0.214,0.074-0.24c0.051-0.026,0.16-0.04,0.332-0.04h3.625c0.16,0,0.268,0.013,0.328,0.036
		c0.059,0.024,0.088,0.08,0.088,0.169v0.178c-0.012,0.046-0.086,0.086-0.221,0.121c-0.184,0.043-0.275,0.114-0.275,0.213V182.368z"
		/>
	<path fill="#030303" d="M293.279,180.064v-0.2c0-0.079,0.098-0.118,0.291-0.118h4.236c0.158,0,0.262,0.009,0.309,0.026
		c0.047,0.019,0.072,0.071,0.072,0.159c0,0.135-0.018,0.218-0.049,0.25c-0.033,0.033-0.105,0.054-0.217,0.062
		c-0.365,0.027-0.549,0.127-0.549,0.299v4.555c0,0.097,0.133,0.172,0.398,0.228c0.17,0.035,0.273,0.067,0.309,0.095
		c0.035,0.028,0.053,0.076,0.053,0.144v0.148c0,0.081-0.018,0.126-0.053,0.136c-0.035,0.011-0.127,0.016-0.273,0.016h-4.314
		c-0.166,0-0.248-0.027-0.248-0.083c0-0.183,0.014-0.293,0.045-0.334c0.029-0.04,0.131-0.072,0.309-0.095
		c0.318-0.038,0.477-0.109,0.477-0.216v-4.498c0-0.106-0.029-0.187-0.088-0.24c-0.059-0.055-0.188-0.1-0.389-0.135
		c-0.146-0.027-0.236-0.053-0.27-0.074S293.279,180.125,293.279,180.064z"/>
	<path fill="#030303" d="M300.76,182.396v2.675c0,0.111,0.146,0.194,0.441,0.25c0.248,0.048,0.371,0.116,0.371,0.205
		c0,0.185-0.01,0.286-0.031,0.307c-0.02,0.021-0.107,0.03-0.26,0.03h-2.344c-0.117,0-0.191-0.02-0.221-0.059
		s-0.045-0.136-0.045-0.29c0-0.07,0.08-0.12,0.236-0.147c0.303-0.059,0.453-0.124,0.453-0.197v-4.479
		c0-0.108-0.021-0.189-0.068-0.244c-0.047-0.054-0.152-0.099-0.314-0.135c-0.146-0.03-0.244-0.063-0.293-0.098
		c-0.051-0.036-0.074-0.103-0.074-0.201c0-0.177,0.107-0.266,0.324-0.266h2.447l2.975,2.958v-2.181c0-0.121-0.145-0.207-0.434-0.258
		c-0.17-0.033-0.281-0.07-0.33-0.112c-0.051-0.041-0.076-0.123-0.076-0.244c0-0.076,0.018-0.122,0.053-0.139
		c0.035-0.016,0.104-0.024,0.203-0.024h2.441c0.135,0.008,0.203,0.091,0.203,0.25c0,0.094-0.014,0.153-0.039,0.179
		c-0.027,0.025-0.088,0.047-0.182,0.064c-0.207,0.035-0.336,0.069-0.389,0.102c-0.055,0.033-0.08,0.079-0.08,0.137v5.385h-1.504
		L300.76,182.396z"/>
	<path fill="#030303" d="M313.166,181.464l2.289,3.621c0.076,0.124,0.225,0.209,0.443,0.255c0.141,0.03,0.211,0.098,0.211,0.204
		c0,0.013-0.008,0.089-0.025,0.228c-0.018,0.061-0.143,0.091-0.373,0.091h-3.52c-0.129,0-0.215-0.01-0.256-0.03
		s-0.063-0.076-0.063-0.167c0-0.015,0.006-0.081,0.018-0.197c0.018-0.045,0.09-0.078,0.213-0.098
		c0.189-0.028,0.283-0.075,0.283-0.141c0-0.018-0.006-0.039-0.018-0.064l-1.238-1.912l-0.301,0.285v1.547
		c0,0.129,0.133,0.228,0.398,0.296c0.111,0.028,0.168,0.091,0.168,0.189c0,0.116-0.023,0.194-0.07,0.233
		c-0.049,0.039-0.162,0.059-0.346,0.059h-3.705c-0.135,0-0.229-0.012-0.283-0.036c-0.053-0.024-0.078-0.093-0.078-0.204
		c0-0.112,0.02-0.183,0.061-0.212s0.121-0.056,0.24-0.078c0.217-0.038,0.326-0.106,0.326-0.205v-4.547
		c0-0.114-0.105-0.198-0.318-0.254c-0.141-0.038-0.227-0.069-0.256-0.093c-0.029-0.024-0.045-0.074-0.045-0.149
		c0-0.172,0.016-0.271,0.045-0.298s0.115-0.04,0.256-0.04h4.031c0.189,0,0.283,0.033,0.283,0.099c0,0.205-0.008,0.323-0.025,0.354
		s-0.104,0.066-0.258,0.104c-0.281,0.063-0.424,0.144-0.424,0.242v1.941l1.922-1.878c0.105-0.103,0.158-0.18,0.158-0.231
		c0-0.033-0.07-0.071-0.213-0.116c-0.154-0.046-0.246-0.085-0.279-0.117c-0.033-0.033-0.049-0.116-0.049-0.25
		c0-0.099,0.086-0.148,0.258-0.148h2.35c0.135,0,0.219,0.012,0.248,0.034s0.045,0.088,0.045,0.195c0,0.115-0.02,0.186-0.059,0.211
		c-0.037,0.025-0.158,0.056-0.357,0.09c-0.154,0.025-0.25,0.046-0.291,0.062c-0.043,0.015-0.092,0.048-0.15,0.099L313.166,181.464z"
		/>
	<path fill="#030303" d="M320.928,180.064v-0.2c0-0.079,0.098-0.118,0.291-0.118h4.236c0.158,0,0.262,0.009,0.309,0.026
		c0.047,0.019,0.072,0.071,0.072,0.159c0,0.135-0.018,0.218-0.049,0.25c-0.033,0.033-0.105,0.054-0.217,0.062
		c-0.365,0.027-0.549,0.127-0.549,0.299v4.555c0,0.097,0.133,0.172,0.398,0.228c0.17,0.035,0.273,0.067,0.309,0.095
		c0.035,0.028,0.053,0.076,0.053,0.144v0.148c0,0.081-0.018,0.126-0.053,0.136c-0.035,0.011-0.127,0.016-0.273,0.016h-4.314
		c-0.166,0-0.248-0.027-0.248-0.083c0-0.183,0.014-0.293,0.045-0.334c0.029-0.04,0.131-0.072,0.309-0.095
		c0.318-0.038,0.477-0.109,0.477-0.216v-4.498c0-0.106-0.029-0.187-0.088-0.24c-0.059-0.055-0.188-0.1-0.389-0.135
		c-0.146-0.027-0.236-0.053-0.27-0.074S320.928,180.125,320.928,180.064z"/>
	<path fill="#030303" d="M328.576,180.171h-0.402c-0.131,0-0.238,0.037-0.32,0.111c-0.082,0.075-0.17,0.276-0.26,0.604
		c-0.041,0.145-0.105,0.234-0.195,0.271c-0.088,0.036-0.264,0.055-0.529,0.055c-0.254,0-0.416-0.014-0.49-0.04
		s-0.111-0.079-0.111-0.157c0-0.045,0.004-0.091,0.01-0.137l0.107-0.883c0.012-0.104,0.053-0.171,0.123-0.202
		c0.07-0.032,0.246-0.048,0.529-0.048h6.49c0.188,0,0.303,0.011,0.344,0.03c0.041,0.021,0.074,0.094,0.098,0.22l0.15,0.781
		c0.012,0.061,0.018,0.122,0.018,0.186c0,0.075-0.021,0.134-0.066,0.174c-0.043,0.041-0.184,0.061-0.42,0.061
		c-0.301,0-0.494-0.013-0.578-0.037c-0.086-0.025-0.154-0.105-0.209-0.239c-0.094-0.22-0.197-0.399-0.309-0.54
		c-0.111-0.14-0.25-0.21-0.416-0.21h-0.266v4.865c0,0.139,0.143,0.235,0.426,0.288c0.117,0.022,0.195,0.05,0.234,0.081
		c0.037,0.032,0.057,0.099,0.057,0.199c0,0.129-0.027,0.204-0.08,0.226s-0.174,0.032-0.363,0.032h-3.896
		c-0.154,0-0.254-0.013-0.297-0.038c-0.045-0.025-0.066-0.097-0.066-0.216c0-0.142,0.092-0.228,0.277-0.258
		c0.18-0.03,0.293-0.06,0.34-0.089c0.049-0.029,0.072-0.079,0.072-0.149V180.171z"/>
	<path fill="#030303" d="M343.271,179.909c0.035-0.013,0.135-0.069,0.301-0.171c0.105-0.065,0.246-0.098,0.424-0.098
		c0.041,0,0.207,0.009,0.494,0.026c0.061,0.025,0.104,0.078,0.133,0.159l0.479,1.284c0.023,0.068,0.035,0.108,0.035,0.121
		c0,0.048-0.031,0.08-0.094,0.095c-0.061,0.016-0.225,0.023-0.49,0.023c-0.301,0-0.494-0.017-0.584-0.05
		c-0.088-0.032-0.256-0.169-0.504-0.409c-0.523-0.508-0.992-0.762-1.406-0.762c-0.293,0-0.441,0.089-0.441,0.266
		c0,0.22,0.445,0.651,1.336,1.296c1.02,0.742,1.684,1.28,1.994,1.612c0.309,0.332,0.463,0.704,0.463,1.116
		c0,0.487-0.268,0.861-0.805,1.121c-0.535,0.261-1.141,0.391-1.813,0.391c-0.424,0-0.834-0.052-1.229-0.155
		c-0.154-0.041-0.273-0.061-0.363-0.061c-0.076,0-0.139,0.023-0.186,0.071c-0.094,0.097-0.324,0.145-0.689,0.145
		c-0.141,0-0.236-0.01-0.287-0.028c-0.051-0.02-0.086-0.069-0.111-0.15l-0.441-1.262c-0.059-0.161-0.088-0.247-0.088-0.258
		c0-0.073,0.156-0.109,0.469-0.109c0.424,0,0.674,0.024,0.752,0.072c0.076,0.048,0.186,0.157,0.326,0.329
		c0.52,0.614,1.041,0.921,1.564,0.921c0.195,0,0.354-0.03,0.475-0.091c0.119-0.061,0.18-0.137,0.18-0.228
		c0-0.159-0.133-0.348-0.402-0.566c-0.268-0.219-0.596-0.462-0.984-0.729c-0.932-0.642-1.592-1.153-1.977-1.536
		c-0.387-0.383-0.58-0.773-0.58-1.173c0-0.45,0.23-0.809,0.689-1.076c0.461-0.268,1.023-0.402,1.689-0.402
		C342.059,179.644,342.617,179.732,343.271,179.909z"/>
	<path fill="#030303" d="M349.955,182.368h1.414v-1.905c0-0.061-0.014-0.102-0.039-0.122c-0.027-0.02-0.1-0.045-0.217-0.075
		c-0.131-0.03-0.195-0.102-0.195-0.212c0-0.142,0.016-0.229,0.045-0.26c0.029-0.032,0.111-0.048,0.248-0.048h3.836
		c0.172,0,0.275,0.014,0.311,0.04s0.053,0.113,0.053,0.26c0,0.088-0.02,0.141-0.057,0.157c-0.039,0.017-0.158,0.046-0.359,0.089
		c-0.217,0.051-0.326,0.129-0.326,0.235v4.535c0,0.119,0.127,0.214,0.379,0.284c0.207,0.056,0.311,0.106,0.311,0.151v0.239
		c0,0.051-0.018,0.084-0.053,0.101s-0.139,0.024-0.311,0.024h-3.855c-0.129,0-0.209-0.01-0.238-0.03s-0.043-0.113-0.043-0.28
		c0-0.084,0.078-0.149,0.238-0.197c0.182-0.056,0.273-0.12,0.273-0.193v-2.364h-1.414v2.387c0,0.081,0.076,0.146,0.23,0.193
		c0.152,0.054,0.229,0.128,0.229,0.224c0,0.134-0.018,0.211-0.053,0.231s-0.105,0.03-0.213,0.03h-3.881
		c-0.123,0-0.201-0.012-0.23-0.034s-0.043-0.112-0.043-0.269c0-0.073,0.014-0.122,0.043-0.145s0.113-0.051,0.248-0.083
		c0.248-0.056,0.371-0.13,0.371-0.224v-4.581c0-0.073-0.109-0.144-0.326-0.209c-0.219-0.068-0.328-0.165-0.328-0.292
		c0-0.134,0.025-0.214,0.076-0.24c0.049-0.026,0.16-0.04,0.332-0.04h3.625c0.158,0,0.268,0.013,0.326,0.036
		c0.059,0.024,0.088,0.08,0.088,0.169v0.178c-0.012,0.046-0.084,0.086-0.221,0.121c-0.182,0.043-0.273,0.114-0.273,0.213V182.368z"
		/>
	<path fill="#030303" d="M360.574,179.644c0.865,0,1.615,0.125,2.25,0.374c0.633,0.249,1.15,0.603,1.551,1.063
		c0.402,0.46,0.602,1.05,0.602,1.77c0,0.864-0.391,1.594-1.172,2.188s-1.881,0.893-3.301,0.893c-1.352,0-2.414-0.291-3.193-0.872
		c-0.777-0.581-1.166-1.331-1.166-2.25c0-0.942,0.398-1.706,1.197-2.289C358.141,179.936,359.219,179.644,360.574,179.644z
		 M361.271,180.542c0-0.315-0.238-0.474-0.715-0.474c-0.201,0-0.371,0.039-0.514,0.117c-0.141,0.079-0.213,0.175-0.213,0.288v4.574
		c0,0.154,0.072,0.271,0.213,0.351c0.143,0.079,0.311,0.119,0.504,0.119c0.219,0,0.395-0.044,0.527-0.133
		c0.131-0.088,0.197-0.187,0.197-0.296V180.542z"/>
	<path fill="#030303" d="M366.092,179.746h3.828c0.129,0,0.211,0.013,0.248,0.036c0.035,0.024,0.053,0.098,0.053,0.222
		s-0.086,0.206-0.258,0.246c-0.129,0.03-0.215,0.063-0.26,0.095c-0.045,0.033-0.066,0.097-0.066,0.19v4.247
		c0,0.116,0.076,0.21,0.23,0.282c0.152,0.072,0.348,0.108,0.582,0.108c0.219,0,0.404-0.041,0.559-0.121
		c0.152-0.081,0.229-0.171,0.229-0.27v-4.244c0-0.073-0.016-0.124-0.049-0.153c-0.031-0.029-0.113-0.064-0.242-0.108
		c-0.201-0.065-0.301-0.167-0.301-0.305c0-0.107,0.027-0.171,0.084-0.193c0.057-0.021,0.137-0.032,0.244-0.032h1.908
		c0.213,0,0.318,0.046,0.318,0.137v0.182c0,0.081-0.012,0.132-0.035,0.153s-0.092,0.041-0.203,0.059
		c-0.277,0.041-0.416,0.123-0.416,0.247v4.134c0,0.392-0.262,0.702-0.787,0.931c-0.523,0.229-1.254,0.343-2.191,0.343
		c-1.049,0-1.85-0.121-2.4-0.364c-0.553-0.242-0.828-0.592-0.828-1.049v-3.994c0-0.106-0.129-0.185-0.389-0.235
		c-0.129-0.025-0.207-0.049-0.234-0.07c-0.025-0.021-0.039-0.067-0.039-0.138c0-0.146,0.02-0.239,0.063-0.277
		C365.779,179.766,365.896,179.746,366.092,179.746z"/>
	<path fill="#030303" d="M377.664,185.435h0.504c0.26,0,0.451-0.045,0.576-0.133c0.123-0.089,0.285-0.293,0.486-0.614
		c0.07-0.124,0.156-0.199,0.256-0.226s0.271-0.04,0.512-0.04c0.266,0,0.438,0.01,0.514,0.029c0.076,0.019,0.115,0.054,0.115,0.104
		c0,0.036-0.016,0.093-0.045,0.171l-0.309,0.905c-0.035,0.094-0.082,0.155-0.137,0.186c-0.057,0.03-0.17,0.046-0.342,0.046h-5.816
		c-0.248,0-0.373-0.065-0.373-0.197c0-0.101,0.018-0.166,0.049-0.195c0.033-0.028,0.102-0.051,0.209-0.066
		c0.336-0.045,0.504-0.178,0.504-0.397v-4.502c0-0.093-0.107-0.16-0.318-0.2c-0.184-0.033-0.295-0.069-0.336-0.11
		c-0.041-0.04-0.063-0.107-0.063-0.201c0-0.11,0.018-0.18,0.053-0.206s0.131-0.04,0.283-0.04h4.076c0.152,0,0.258,0.016,0.314,0.048
		c0.055,0.031,0.084,0.116,0.084,0.256c0,0.083-0.02,0.14-0.059,0.168c-0.037,0.029-0.137,0.056-0.295,0.078
		c-0.295,0.043-0.443,0.126-0.443,0.25V185.435z"/>
	<path fill="#030303" d="M381.68,185.021v-4.589c-0.018-0.051-0.125-0.089-0.318-0.114c-0.154-0.021-0.258-0.05-0.311-0.089
		s-0.08-0.123-0.08-0.252c0-0.094,0.039-0.155,0.115-0.186s0.275-0.046,0.594-0.046h4.234c1.209,0,2.209,0.239,3.002,0.717
		s1.189,1.271,1.189,2.379c0,1.011-0.383,1.767-1.15,2.269c-0.766,0.501-1.779,0.752-3.041,0.752h-4.668
		c-0.131,0-0.221-0.014-0.27-0.04c-0.051-0.026-0.076-0.085-0.076-0.176c0-0.108,0.01-0.177,0.027-0.205
		c0.018-0.027,0.104-0.059,0.256-0.095C381.514,185.273,381.68,185.165,381.68,185.021z M384.969,180.197v5.248h0.469
		c0.33,0,0.57-0.059,0.725-0.176c0.152-0.118,0.229-0.327,0.229-0.627v-3.873c0-0.169-0.094-0.307-0.281-0.413
		c-0.189-0.106-0.457-0.159-0.805-0.159H384.969z"/>
	<path fill="#030303" d="M401.52,182.376c1.08,0.162,1.822,0.362,2.229,0.601c0.406,0.239,0.609,0.568,0.609,0.987
		c0,0.639-0.373,1.115-1.123,1.429c-0.748,0.313-1.906,0.47-3.475,0.47h-4.322c-0.178,0-0.266-0.039-0.266-0.117v-0.228
		c0-0.063,0.08-0.11,0.238-0.141c0.336-0.068,0.504-0.168,0.504-0.299v-4.574c0-0.063-0.023-0.105-0.07-0.129
		c-0.047-0.022-0.189-0.058-0.424-0.105c-0.119-0.023-0.188-0.048-0.209-0.076c-0.02-0.027-0.031-0.096-0.031-0.204
		c0-0.097,0.031-0.161,0.094-0.193c0.063-0.033,0.17-0.05,0.322-0.05h4.846c1.166,0,2.063,0.128,2.688,0.383s0.938,0.58,0.938,0.974
		c0,0.329-0.246,0.604-0.738,0.826C402.836,182.151,402.232,182.301,401.52,182.376z M399.203,180.175v1.989h0.469
		c0.295,0,0.525-0.037,0.693-0.11s0.266-0.195,0.293-0.365c0.025-0.171,0.039-0.386,0.039-0.646c0-0.363-0.08-0.599-0.242-0.706
		s-0.424-0.161-0.783-0.161H399.203z M399.203,182.596v2.831c0.543,0,0.906-0.032,1.092-0.095c0.186-0.063,0.295-0.188,0.328-0.375
		c0.031-0.188,0.049-0.503,0.049-0.947c0-0.092-0.01-0.298-0.027-0.62s-0.053-0.516-0.105-0.581
		c-0.053-0.066-0.146-0.118-0.279-0.156c-0.133-0.037-0.328-0.057-0.588-0.057H399.203z"/>
	<path fill="#030303" d="M409.105,180.213v2.163h0.602c0.166,0,0.287-0.015,0.363-0.045s0.135-0.097,0.176-0.197
		c0.072-0.18,0.129-0.287,0.174-0.322c0.043-0.035,0.113-0.053,0.207-0.053c0.465,0,0.73,0.008,0.791,0.024
		c0.063,0.017,0.094,0.08,0.094,0.191v1.262c0,0.078-0.029,0.13-0.09,0.153c-0.059,0.024-0.24,0.036-0.547,0.036
		c-0.201,0-0.336-0.016-0.402-0.048c-0.068-0.031-0.135-0.12-0.199-0.267c-0.064-0.134-0.129-0.216-0.189-0.246
		c-0.063-0.03-0.158-0.046-0.287-0.046h-0.691v2.611h0.469c0.289,0,0.488-0.035,0.598-0.104s0.283-0.27,0.525-0.601
		c0.102-0.139,0.203-0.229,0.311-0.272c0.105-0.043,0.291-0.064,0.557-0.064c0.365,0,0.549,0.05,0.549,0.151
		c0,0.03-0.012,0.074-0.037,0.133l-0.326,0.859c-0.059,0.157-0.107,0.251-0.146,0.282c-0.037,0.032-0.156,0.048-0.357,0.048h-5.898
		c-0.146,0-0.24-0.015-0.281-0.044c-0.043-0.028-0.063-0.112-0.063-0.252c0-0.088,0.105-0.152,0.318-0.193
		c0.324-0.058,0.486-0.138,0.486-0.238v-4.726c-0.006-0.048-0.139-0.096-0.398-0.144c-0.176-0.033-0.281-0.064-0.314-0.095
		c-0.031-0.03-0.047-0.104-0.047-0.22c0-0.099,0.018-0.157,0.053-0.177c0.035-0.019,0.139-0.028,0.309-0.028h5.641
		c0.143,0,0.246,0.011,0.311,0.03c0.064,0.021,0.115,0.068,0.15,0.145l0.451,0.978c0.023,0.051,0.035,0.085,0.035,0.103
		c0,0.067-0.143,0.102-0.428,0.102c-0.32,0-0.533-0.016-0.641-0.047s-0.211-0.11-0.311-0.237c-0.182-0.227-0.34-0.385-0.471-0.474
		c-0.133-0.088-0.281-0.132-0.445-0.132H409.105z"/>
</g>
<g>
	<ellipse fill="#FFFFFF" cx="36.163" cy="142.029" rx="25.004" ry="27.667"/>
	<g>
		<g>
			<path fill-rule="evenodd" clip-rule="evenodd" fill="#010101" d="M15.988,142.478c-2.932,5.528-1.779,12.919,2.501,18.078
				c4.2,5.279,11.371,7.951,17.704,6.987c13.246-2.448,19.197-13.27,24.515-25.193c5.131,3.234-2.788,11.695-1.785,16.407
				c1.209,0.874,2.724-5.054,4.181-4.24c1.819,4.663-5.03,13.26-9.477,11.857c-3.875,4.513-9.514,8.894-16.594,10.368
				c-6.959,1.614-15.016-0.276-19.993-5.024c-1.918-3.048,0.143-2.661,0.104-4.093c-7.133-3.556-10.414-12.645-9.118-18.375
				C9.152,143.287,13.021,140.928,15.988,142.478z"/>
			<path fill-rule="evenodd" clip-rule="evenodd" fill="#010101" d="M54.125,148.479c-0.152-0.777-1.316,0.118-1.621-0.407
				c1.307-2.18,5.077-5.06,7.15-8.227c-1.268,0.356-2.489-1.522-1.136-4.038c0.615-0.41,1.177,0.929,1.804,0.295
				c0.9-2.222-0.854-3.598-1.215-5.097c0.237-1.074,0.521-1.785,0.878-2.078c3.476,4.589,2.507,11.343-0.292,16.156
				c-2.832,5.034-6.995,8.053-9.519,11.028C48.494,154.163,49.437,150.432,54.125,148.479z"/>
			<g>
				<g>
					<path fill="#010101" d="M55.651,158.133c11.295-10.048,9.833-33.584-6.181-42.65c-7.618-4.517-17.655-4.51-25.014-0.056
						c-7.501,4.264-12.188,11.894-13.915,19.672c0.359,1.548,1.01,3.047,1.583,4.422c0.168-1.265,0.255-2.553,0.589-3.789
						c-0.479-1.466-0.785-2.989-1.018-4.602c-0.322,1.071-0.762,2.113-0.971,3.215c-0.976,3.214,1.155,10.917,1.484,4.462
						c0.165-1.025,0.232-2.07,0.504-3.075c0.304-2.656,1.718-10.882-1.018-4.602c-0.455,1.303-0.888,2.614-1.154,3.969
						c-0.872,3.229,1.354,10.894,1.583,4.422c0.29-14.066,14.508-29.261,30.571-24.548c15.891,4.071,21.788,24.462,14.375,35.543
						C56.391,152.446,53.435,160.365,55.651,158.133L55.651,158.133z"/>
				</g>
			</g>
		</g>
	</g>
</g>
<text transform="matrix(1 0 0 1 179.2427 67.9697)" fill="#4F4F4F" font-family="'Arial'" font-size="14">LE Buck Code:</text>
<text transform="matrix(1 0 0 1 70.4629 130.8877)" fill="#4F4F4F" font-family="'Arial'" font-size="14">Enter your code by:</text>
<g>
	<ellipse fill="#FFFFFF" cx="37.519" cy="40.292" rx="24.948" ry="30.009"/>
	<g>
		<g>
			<path fill-rule="evenodd" clip-rule="evenodd" fill="#010101" d="M7.573,39.662C10.754,32.071,14,25.588,18.489,19.764
				c4.417-5.692,10.804-10.831,19.067-11.722c8.171-0.992,16.941,3.168,21.742,9.798c4.953,6.546,6.309,15.188,3.618,22.104
				c-4.518-2.133-0.667-12.996-6.679-14.796c-1.225,0.484,2.043,4.616,0.112,5.111c-3.646-1.938-6.331-6.875-5.553-10.813
				c-4.132-2.78-9.243-3.062-12.829-1.715c-3.727,1.272-5.945,3.241-9.09,4.829c-2.135,0.319-2.18-1.069-3.392-1.479
				c-2.209,4.934-5.088,9.211-8.244,13.276C14.157,38.227,10.782,41.746,7.573,39.662z"/>
			<path fill-rule="evenodd" clip-rule="evenodd" fill="#010101" d="M67.705,30.28c0.568,1.044,1.116-1.056,1.683-0.482
				c0.502,4.68-2.815,9.987-5.549,12.979c1.399-0.374,2.392,2.573-0.084,4.861c-0.77,0.141-0.688-1.459-1.582-1.049
				c-1.733,1.739-0.927,3.717-1.646,5.267c-0.973,0.668-1.7,0.912-2.168,0.846c0.75-5.116,3.404-9.723,5.301-15.872
				c1.843-5.955,2.281-13.525-1.392-19.273C64.653,15.965,71.004,23.997,67.705,30.28z"/>
			<g>
				<g>
					<path fill="#010101" d="M58.41,22.507c5.038,14.747,1.982,32.514-10.116,41.599c-5.912,4.372-14.29,5.118-20.922,1.283
						c-6.719-3.657-11.226-10.958-12.667-18.443c-1.075-1.183-1.973-2.5-2.908-3.892c0.141,1.4,0.274,2.811,0.559,4.19
						c1.041,1.294,2.152,2.471,3.334,3.525c-0.318-1.021-0.653-2.04-0.838-3.097c-0.812-2.703-3.324-10.79-2.997-3.828
						c0.171,1.131,0.22,2.286,0.5,3.4c0.474,3.337,5.705,9.773,3.334,3.525c-0.41-1.252-0.748-2.525-0.985-3.824
						c-0.716-2.718-3.12-10.864-2.908-3.892c0.566,7.81,3.969,15.793,10.089,21.104c5.966,5.464,14.815,7.442,22.209,4.658
						c15.14-5.94,21.123-23.557,19.738-39.106C63.949,26.595,57.167,18.79,58.41,22.507L58.41,22.507z"/>
				</g>
			</g>
		</g>
	</g>
</g>
<line fill="none" stroke="#000000" x1="392.205" y1="17.569" x2="56.424" y2="17.569"/>
<path fill="#010101" d="M102.29,4.568c0,0,10.577-1.653,17.209,13.001h203.367c0,0-0.696-13.43,17.944-13.43"/>
<g>
	<path fill="#FFFFFF" d="M119.685,8.45V8.196c0-0.099,0.123-0.149,0.369-0.149h5.361c0.202,0,0.332,0.011,0.392,0.034
		c0.06,0.022,0.09,0.089,0.09,0.201c0,0.17-0.021,0.275-0.062,0.317c-0.041,0.042-0.133,0.067-0.274,0.077
		c-0.463,0.035-0.694,0.162-0.694,0.379v5.766c0,0.122,0.168,0.217,0.503,0.288c0.216,0.045,0.347,0.085,0.392,0.12
		c0.044,0.035,0.067,0.096,0.067,0.182v0.187c0,0.103-0.022,0.16-0.067,0.173c-0.045,0.013-0.161,0.019-0.347,0.019h-5.462
		c-0.209,0-0.313-0.035-0.313-0.105c0-0.23,0.019-0.371,0.056-0.422c0.037-0.051,0.167-0.091,0.392-0.12
		c0.403-0.048,0.604-0.139,0.604-0.273V9.175c0-0.134-0.038-0.236-0.112-0.305c-0.074-0.069-0.239-0.125-0.492-0.17
		c-0.187-0.035-0.3-0.066-0.341-0.093C119.706,8.579,119.685,8.527,119.685,8.45z"/>
	<path fill="#FFFFFF" d="M129.154,11.4v3.387c0,0.141,0.186,0.246,0.56,0.316c0.313,0.061,0.47,0.147,0.47,0.259
		c0,0.233-0.013,0.363-0.039,0.388c-0.026,0.026-0.136,0.039-0.329,0.039h-2.968c-0.149,0-0.242-0.025-0.279-0.074
		c-0.037-0.05-0.056-0.172-0.056-0.367c0-0.089,0.099-0.152,0.298-0.187c0.383-0.074,0.575-0.157,0.575-0.25v-5.67
		c0-0.137-0.03-0.24-0.089-0.309s-0.191-0.125-0.398-0.17c-0.185-0.039-0.308-0.08-0.371-0.125
		c-0.063-0.044-0.094-0.129-0.094-0.254c0-0.224,0.137-0.336,0.412-0.336h3.096l3.767,3.744v-2.76c0-0.154-0.183-0.263-0.548-0.327
		c-0.217-0.042-0.356-0.089-0.42-0.142s-0.095-0.156-0.095-0.31c0-0.096,0.022-0.154,0.067-0.175s0.13-0.031,0.257-0.031h3.089
		c0.171,0.01,0.257,0.115,0.257,0.316c0,0.119-0.017,0.194-0.05,0.226c-0.034,0.032-0.11,0.059-0.229,0.082
		c-0.261,0.045-0.425,0.088-0.493,0.129c-0.067,0.042-0.101,0.1-0.101,0.173v6.816h-1.903L129.154,11.4z"/>
	<path fill="#FFFFFF" d="M147.622,8.637v2.739h0.761c0.209,0,0.362-0.019,0.459-0.058c0.097-0.039,0.171-0.122,0.224-0.25
		c0.09-0.227,0.163-0.363,0.218-0.408c0.056-0.044,0.144-0.067,0.263-0.067c0.589,0,0.923,0.01,1.002,0.031
		c0.078,0.021,0.117,0.102,0.117,0.243v1.597c0,0.099-0.037,0.164-0.112,0.194s-0.306,0.045-0.694,0.045
		c-0.254,0-0.424-0.02-0.509-0.06c-0.086-0.04-0.17-0.152-0.252-0.338c-0.082-0.169-0.162-0.273-0.241-0.312
		c-0.078-0.038-0.2-0.058-0.364-0.058h-0.873v3.305h0.593c0.366,0,0.617-0.044,0.755-0.132s0.36-0.341,0.666-0.76
		c0.127-0.176,0.258-0.291,0.392-0.346c0.134-0.054,0.369-0.082,0.705-0.082c0.462,0,0.694,0.064,0.694,0.192
		c0,0.039-0.015,0.095-0.045,0.168l-0.415,1.089c-0.074,0.198-0.135,0.317-0.184,0.357c-0.049,0.04-0.2,0.06-0.453,0.06h-7.466
		c-0.187,0-0.306-0.019-0.358-0.055c-0.052-0.037-0.079-0.143-0.079-0.319c0-0.112,0.134-0.193,0.403-0.245
		c0.411-0.074,0.616-0.174,0.616-0.302V8.887c-0.007-0.061-0.175-0.122-0.503-0.182c-0.224-0.042-0.356-0.082-0.397-0.12
		c-0.041-0.038-0.062-0.131-0.062-0.278c0-0.125,0.022-0.199,0.067-0.223c0.045-0.024,0.175-0.036,0.392-0.036h7.141
		c0.179,0,0.31,0.013,0.392,0.039c0.082,0.025,0.146,0.086,0.19,0.182l0.571,1.238c0.03,0.064,0.045,0.107,0.045,0.129
		c0,0.086-0.18,0.129-0.541,0.129c-0.406,0-0.676-0.02-0.812-0.06s-0.266-0.14-0.394-0.3c-0.23-0.288-0.428-0.487-0.595-0.6
		c-0.167-0.112-0.354-0.168-0.562-0.168H147.622z"/>
	<path fill="#FFFFFF" d="M152.894,14.725V8.916c-0.022-0.064-0.157-0.112-0.403-0.144c-0.194-0.025-0.325-0.063-0.392-0.112
		c-0.067-0.05-0.101-0.156-0.101-0.319c0-0.118,0.048-0.196,0.146-0.235c0.097-0.039,0.347-0.058,0.75-0.058h5.361
		c1.529,0,2.796,0.302,3.8,0.907c1.003,0.604,1.505,1.608,1.505,3.012c0,1.279-0.485,2.236-1.455,2.871s-2.253,0.952-3.85,0.952
		h-5.91c-0.165,0-0.278-0.017-0.342-0.05s-0.095-0.108-0.095-0.223c0-0.137,0.011-0.224,0.033-0.259
		c0.022-0.035,0.131-0.075,0.325-0.12C152.685,15.044,152.894,14.907,152.894,14.725z M157.057,8.618v6.644h0.593
		c0.418,0,0.724-0.074,0.918-0.223c0.194-0.149,0.291-0.414,0.291-0.794V9.343c0-0.214-0.12-0.389-0.358-0.523
		s-0.578-0.202-1.019-0.202H157.057z"/>
	<path fill="#FFFFFF" d="M164.915,8.047h4.846c0.164,0,0.269,0.015,0.313,0.045c0.045,0.031,0.067,0.124,0.067,0.281
		s-0.108,0.261-0.324,0.312c-0.165,0.038-0.274,0.078-0.331,0.12c-0.056,0.042-0.083,0.122-0.083,0.24v5.376
		c0,0.147,0.097,0.267,0.291,0.358c0.194,0.091,0.44,0.137,0.739,0.137c0.276,0,0.511-0.051,0.706-0.153
		c0.194-0.103,0.291-0.216,0.291-0.341V9.05c0-0.093-0.021-0.157-0.062-0.194c-0.041-0.037-0.144-0.082-0.308-0.137
		c-0.254-0.083-0.38-0.212-0.38-0.386c0-0.135,0.035-0.217,0.106-0.244c0.071-0.027,0.174-0.041,0.308-0.041h2.417
		c0.269,0,0.403,0.058,0.403,0.173v0.23c0,0.103-0.015,0.167-0.044,0.194c-0.03,0.027-0.116,0.052-0.258,0.074
		c-0.351,0.051-0.526,0.155-0.526,0.312v5.233c0,0.496-0.332,0.888-0.996,1.178s-1.589,0.434-2.776,0.434
		c-1.328,0-2.341-0.154-3.039-0.46c-0.698-0.307-1.047-0.75-1.047-1.329V9.031c0-0.134-0.164-0.233-0.492-0.297
		c-0.165-0.032-0.263-0.062-0.297-0.089c-0.033-0.027-0.05-0.085-0.05-0.175c0-0.186,0.026-0.302,0.079-0.351
		C164.519,8.071,164.668,8.047,164.915,8.047z"/>
	<path fill="#FFFFFF" d="M181.938,7.918h0.582c0.134,0,0.235,0.021,0.302,0.064c0.067,0.043,0.116,0.159,0.146,0.348l0.257,1.544
		c0.007,0.032,0.011,0.063,0.011,0.091c0,0.112-0.044,0.19-0.134,0.235c-0.089,0.045-0.269,0.067-0.537,0.067
		c-0.329,0-0.556-0.037-0.683-0.11c-0.127-0.074-0.25-0.248-0.37-0.523c-0.306-0.697-0.743-1.046-1.31-1.046
		c-0.47,0-0.705,0.251-0.705,0.753v5.396c0,0.358,0.246,0.537,0.739,0.537c0.627,0,0.978-0.299,1.052-0.897
		c0.022-0.173,0.101-0.293,0.235-0.36c0.134-0.067,0.41-0.101,0.828-0.101c0.313,0,0.532,0.024,0.655,0.074s0.185,0.146,0.185,0.29
		c0,0.458-0.321,0.837-0.963,1.139c-0.642,0.302-1.44,0.454-2.395,0.454c-0.925,0-1.739-0.126-2.44-0.379
		c-0.702-0.253-1.308-0.688-1.819-1.307c-0.511-0.619-0.767-1.411-0.767-2.377c0-0.912,0.215-1.64,0.644-2.185
		c0.429-0.545,0.978-0.966,1.646-1.263s1.446-0.446,2.334-0.447c0.537,0,1.003,0.063,1.399,0.187
		c0.149,0.045,0.261,0.067,0.336,0.067c0.089,0,0.216-0.044,0.38-0.134C181.688,7.958,181.819,7.918,181.938,7.918z"/>
	<path fill="#FFFFFF" d="M189.156,14.135h-2.79l-0.129,0.441c0,0.01-0.008,0.024-0.023,0.043c-0.063,0.093-0.094,0.176-0.094,0.249
		c0,0.115,0.174,0.213,0.523,0.293c0.186,0.042,0.3,0.085,0.345,0.129c0.044,0.045,0.067,0.119,0.067,0.221
		c0,0.131-0.017,0.21-0.05,0.237c-0.033,0.027-0.113,0.041-0.24,0.041h-2.945c-0.164,0-0.246-0.074-0.246-0.221
		c0-0.176,0.13-0.318,0.392-0.427c0.246-0.099,0.388-0.205,0.425-0.317l2.073-5.646c0.037-0.086,0.056-0.161,0.056-0.226
		c0-0.099-0.161-0.187-0.483-0.264c-0.15-0.039-0.225-0.123-0.225-0.254c0-0.176,0.022-0.285,0.067-0.326
		c0.045-0.042,0.164-0.063,0.358-0.063h4.274c0.261,0,0.444,0.053,0.548,0.158c0.104,0.105,0.208,0.336,0.313,0.691
		c0.045,0.138,0.09,0.273,0.135,0.408l1.837,5.272c0.089,0.256,0.31,0.451,0.66,0.585c0.097,0.035,0.161,0.063,0.19,0.084
		s0.045,0.084,0.045,0.189c0,0.163-0.026,0.263-0.079,0.3c-0.052,0.037-0.164,0.055-0.335,0.055h-4.971
		c-0.149,0-0.224-0.061-0.224-0.182c0-0.154,0.019-0.25,0.056-0.288c0.037-0.038,0.145-0.083,0.323-0.134
		c0.26-0.07,0.39-0.16,0.39-0.269C189.4,14.804,189.318,14.543,189.156,14.135z M187.817,9.834l-1.265,3.749h2.489L187.817,9.834z"
		/>
	<path fill="#FFFFFF" d="M196.165,8.584h-0.508c-0.166,0-0.301,0.047-0.406,0.142s-0.214,0.35-0.328,0.765
		c-0.053,0.182-0.135,0.297-0.247,0.343c-0.111,0.046-0.335,0.069-0.671,0.069c-0.321,0-0.528-0.017-0.621-0.05
		c-0.094-0.034-0.14-0.1-0.14-0.199c0-0.058,0.004-0.115,0.011-0.173l0.136-1.118c0.015-0.131,0.066-0.216,0.156-0.256
		s0.313-0.06,0.672-0.06h8.213c0.239,0,0.385,0.013,0.437,0.039c0.052,0.025,0.093,0.118,0.124,0.278l0.19,0.988
		c0.015,0.077,0.022,0.155,0.022,0.235c0,0.096-0.028,0.169-0.084,0.22c-0.056,0.051-0.233,0.077-0.531,0.077
		c-0.381,0-0.625-0.016-0.733-0.048c-0.108-0.032-0.196-0.132-0.263-0.302c-0.12-0.278-0.25-0.506-0.392-0.684
		c-0.142-0.178-0.317-0.267-0.526-0.267h-0.336v6.159c0,0.176,0.179,0.297,0.537,0.365c0.149,0.029,0.248,0.063,0.297,0.103
		c0.048,0.04,0.073,0.124,0.073,0.252c0,0.163-0.034,0.258-0.101,0.285c-0.067,0.027-0.22,0.041-0.459,0.041h-4.934
		c-0.195,0-0.32-0.016-0.376-0.048c-0.056-0.032-0.084-0.123-0.084-0.273c0-0.179,0.117-0.288,0.352-0.326
		c0.227-0.039,0.37-0.076,0.431-0.113s0.091-0.1,0.091-0.189V8.584z"/>
	<path fill="#FFFFFF" d="M203.921,8.45V8.196c0-0.099,0.123-0.149,0.369-0.149h5.361c0.202,0,0.332,0.011,0.392,0.034
		c0.06,0.022,0.09,0.089,0.09,0.201c0,0.17-0.021,0.275-0.062,0.317c-0.041,0.042-0.133,0.067-0.274,0.077
		c-0.463,0.035-0.694,0.162-0.694,0.379v5.766c0,0.122,0.168,0.217,0.503,0.288c0.216,0.045,0.347,0.085,0.392,0.12
		c0.044,0.035,0.067,0.096,0.067,0.182v0.187c0,0.103-0.022,0.16-0.067,0.173c-0.045,0.013-0.161,0.019-0.347,0.019h-5.462
		c-0.209,0-0.313-0.035-0.313-0.105c0-0.23,0.019-0.371,0.056-0.422c0.037-0.051,0.167-0.091,0.392-0.12
		c0.403-0.048,0.604-0.139,0.604-0.273V9.175c0-0.134-0.038-0.236-0.112-0.305c-0.074-0.069-0.239-0.125-0.492-0.17
		c-0.187-0.035-0.3-0.066-0.341-0.093C203.942,8.579,203.921,8.527,203.921,8.45z"/>
	<path fill="#FFFFFF" d="M216.502,7.918c1.097,0,2.046,0.157,2.849,0.472c0.802,0.315,1.457,0.764,1.964,1.346
		c0.507,0.582,0.761,1.329,0.761,2.24c0,1.094-0.494,2.017-1.483,2.77c-0.989,0.753-2.382,1.13-4.18,1.13
		c-1.709,0-3.056-0.368-4.041-1.104c-0.985-0.735-1.478-1.685-1.478-2.849c0-1.193,0.505-2.159,1.517-2.897
		C213.422,8.287,214.786,7.918,216.502,7.918z M217.386,9.055c0-0.4-0.302-0.6-0.907-0.6c-0.254,0-0.47,0.05-0.649,0.149
		c-0.179,0.099-0.269,0.221-0.269,0.364v5.79c0,0.195,0.089,0.343,0.269,0.444c0.179,0.101,0.392,0.151,0.638,0.151
		c0.276,0,0.498-0.056,0.666-0.168c0.168-0.112,0.252-0.236,0.252-0.374V9.055z"/>
	<path fill="#FFFFFF" d="M225.803,11.4v3.387c0,0.141,0.187,0.246,0.56,0.316c0.313,0.061,0.471,0.147,0.471,0.259
		c0,0.233-0.014,0.363-0.039,0.388c-0.026,0.026-0.136,0.039-0.329,0.039h-2.969c-0.148,0-0.242-0.025-0.278-0.074
		c-0.038-0.05-0.057-0.172-0.057-0.367c0-0.089,0.1-0.152,0.299-0.187c0.383-0.074,0.574-0.157,0.574-0.25v-5.67
		c0-0.137-0.029-0.24-0.088-0.309c-0.06-0.069-0.192-0.125-0.398-0.17c-0.185-0.039-0.309-0.08-0.371-0.125
		c-0.063-0.044-0.094-0.129-0.094-0.254c0-0.224,0.138-0.336,0.412-0.336h3.096l3.768,3.744v-2.76c0-0.154-0.183-0.263-0.549-0.327
		c-0.216-0.042-0.356-0.089-0.419-0.142c-0.063-0.053-0.096-0.156-0.096-0.31c0-0.096,0.022-0.154,0.067-0.175
		s0.131-0.031,0.258-0.031h3.089c0.172,0.01,0.258,0.115,0.258,0.316c0,0.119-0.018,0.194-0.051,0.226
		c-0.033,0.032-0.11,0.059-0.229,0.082c-0.262,0.045-0.426,0.088-0.492,0.129c-0.067,0.042-0.101,0.1-0.101,0.173v6.816h-1.903
		L225.803,11.4z"/>
	<path fill="#FFFFFF" d="M246.249,10.315l-0.523-1.246c-0.045-0.119-0.19-0.232-0.437-0.341c-0.164-0.07-0.246-0.137-0.246-0.202
		V8.191c0-0.096,0.107-0.144,0.324-0.144h4.579c0.148,0,0.243,0.016,0.284,0.048c0.041,0.032,0.062,0.104,0.062,0.216
		c0,0.17-0.021,0.271-0.061,0.305c-0.041,0.034-0.136,0.068-0.283,0.103c-0.223,0.051-0.334,0.103-0.334,0.154
		c0,0.067,0.029,0.167,0.089,0.298l1.287,3.093l1.338-3.193c0.007-0.032,0.011-0.065,0.011-0.101c0-0.147-0.189-0.259-0.569-0.336
		c-0.194-0.039-0.295-0.147-0.302-0.326c0-0.048-0.004-0.082-0.012-0.101V8.163c0-0.077,0.134-0.115,0.402-0.115h2.565
		c0.179,0,0.294,0.014,0.346,0.041c0.052,0.027,0.078,0.085,0.078,0.175c0,0.029-0.004,0.058-0.011,0.086l-0.034,0.187
		c-0.029,0.074-0.149,0.139-0.358,0.197s-0.343,0.155-0.402,0.292l-2.697,6.332c-0.104,0.25-0.19,0.398-0.258,0.446
		c-0.067,0.048-0.19,0.072-0.369,0.072h-1.881c-0.201,0-0.328-0.091-0.38-0.273c-0.008-0.035-0.016-0.063-0.022-0.082l-1.421-3.384
		l-1.411,3.442c-0.053,0.137-0.108,0.221-0.168,0.252c-0.06,0.03-0.156,0.045-0.291,0.045h-1.959c-0.224,0-0.384-0.168-0.48-0.504
		c-0.016-0.061-0.03-0.107-0.045-0.139l-2.676-6.207c-0.06-0.131-0.216-0.227-0.47-0.288C239.305,8.69,239.2,8.62,239.2,8.527V8.158
		c0-0.074,0.104-0.11,0.313-0.11h4.433c0.149,0,0.253,0.017,0.313,0.05c0.06,0.034,0.089,0.111,0.089,0.233
		c0,0.137-0.011,0.224-0.033,0.259c-0.021,0.035-0.092,0.075-0.21,0.12c-0.148,0.061-0.223,0.123-0.223,0.187
		c0,0.073,0.022,0.165,0.067,0.273l1.418,3.239L246.249,10.315z"/>
	<path fill="#FFFFFF" d="M260.511,8.637v2.739h0.762c0.208,0,0.361-0.019,0.458-0.058c0.098-0.039,0.172-0.122,0.225-0.25
		c0.089-0.227,0.162-0.363,0.218-0.408c0.056-0.044,0.144-0.067,0.263-0.067c0.59,0,0.924,0.01,1.002,0.031
		c0.079,0.021,0.118,0.102,0.118,0.243v1.597c0,0.099-0.038,0.164-0.112,0.194s-0.306,0.045-0.694,0.045
		c-0.253,0-0.423-0.02-0.509-0.06c-0.086-0.04-0.17-0.152-0.252-0.338c-0.082-0.169-0.162-0.273-0.24-0.312
		c-0.079-0.038-0.2-0.058-0.364-0.058h-0.873v3.305h0.594c0.365,0,0.617-0.044,0.755-0.132c0.139-0.088,0.36-0.341,0.666-0.76
		c0.127-0.176,0.258-0.291,0.392-0.346c0.135-0.054,0.37-0.082,0.705-0.082c0.463,0,0.694,0.064,0.694,0.192
		c0,0.039-0.015,0.095-0.045,0.168l-0.415,1.089c-0.074,0.198-0.135,0.317-0.184,0.357s-0.2,0.06-0.453,0.06h-7.466
		c-0.187,0-0.306-0.019-0.358-0.055c-0.052-0.037-0.078-0.143-0.078-0.319c0-0.112,0.135-0.193,0.403-0.245
		c0.41-0.074,0.615-0.174,0.615-0.302V8.887c-0.008-0.061-0.176-0.122-0.504-0.182c-0.224-0.042-0.356-0.082-0.397-0.12
		c-0.041-0.038-0.062-0.131-0.062-0.278c0-0.125,0.022-0.199,0.067-0.223s0.176-0.036,0.392-0.036h7.142
		c0.179,0,0.31,0.013,0.392,0.039c0.082,0.025,0.146,0.086,0.19,0.182l0.57,1.238c0.03,0.064,0.045,0.107,0.045,0.129
		c0,0.086-0.181,0.129-0.541,0.129c-0.405,0-0.676-0.02-0.811-0.06c-0.136-0.04-0.267-0.14-0.395-0.3
		c-0.229-0.288-0.429-0.487-0.596-0.6c-0.167-0.112-0.354-0.168-0.562-0.168H260.511z"/>
	<path fill="#FFFFFF" d="M273.528,8.584h-0.508c-0.166,0-0.302,0.047-0.406,0.142s-0.214,0.35-0.328,0.765
		c-0.053,0.182-0.136,0.297-0.247,0.343s-0.335,0.069-0.671,0.069c-0.321,0-0.528-0.017-0.621-0.05
		c-0.094-0.034-0.14-0.1-0.14-0.199c0-0.058,0.003-0.115,0.011-0.173l0.137-1.118c0.014-0.131,0.065-0.216,0.155-0.256
		c0.089-0.04,0.313-0.06,0.672-0.06h8.213c0.239,0,0.385,0.013,0.438,0.039c0.052,0.025,0.093,0.118,0.123,0.278l0.19,0.988
		c0.015,0.077,0.022,0.155,0.022,0.235c0,0.096-0.027,0.169-0.084,0.22c-0.056,0.051-0.233,0.077-0.531,0.077
		c-0.381,0-0.625-0.016-0.733-0.048c-0.108-0.032-0.195-0.132-0.263-0.302c-0.12-0.278-0.25-0.506-0.392-0.684
		c-0.143-0.178-0.317-0.267-0.526-0.267h-0.336v6.159c0,0.176,0.179,0.297,0.537,0.365c0.149,0.029,0.248,0.063,0.297,0.103
		s0.072,0.124,0.072,0.252c0,0.163-0.033,0.258-0.101,0.285c-0.067,0.027-0.221,0.041-0.46,0.041h-4.934
		c-0.194,0-0.32-0.016-0.376-0.048c-0.056-0.032-0.084-0.123-0.084-0.273c0-0.179,0.117-0.288,0.352-0.326
		c0.227-0.039,0.37-0.076,0.431-0.113s0.091-0.1,0.091-0.189V8.584z"/>
	<path fill="#FFFFFF" d="M286.456,12.384v2.379c0,0.112,0.017,0.187,0.05,0.225c0.032,0.039,0.126,0.079,0.28,0.12
		c0.197,0.054,0.297,0.146,0.297,0.273c0,0.186-0.039,0.3-0.117,0.343c-0.078,0.043-0.222,0.065-0.431,0.065h-4.725
		c-0.269,0-0.402-0.083-0.402-0.25c0-0.16,0.011-0.263,0.033-0.309s0.098-0.08,0.225-0.099c0.41-0.07,0.615-0.208,0.615-0.413V9.098
		c0-0.208-0.179-0.334-0.537-0.379c-0.18-0.025-0.291-0.05-0.336-0.076c-0.045-0.025-0.067-0.1-0.067-0.224
		c0-0.248,0.157-0.372,0.471-0.372h6.189c1.23,0,2.329,0.198,3.296,0.595c0.966,0.396,1.449,0.929,1.449,1.598
		c0,0.95-1.13,1.57-3.392,1.861c2.067,0.195,3.101,0.756,3.101,1.684v1.142c0,0.096,0.086,0.168,0.258,0.216
		c0.201,0.058,0.302,0.146,0.302,0.264c0,0.186-0.026,0.296-0.078,0.331s-0.19,0.053-0.414,0.053h-3
		c-0.357,0-0.652-0.087-0.884-0.261s-0.347-0.39-0.347-0.646V12.95c0-0.377-0.444-0.566-1.332-0.566H286.456z M286.456,8.594v3.233
		h0.728c0.738,0,1.108-0.318,1.108-0.955V9.328c0-0.269-0.118-0.458-0.353-0.568c-0.235-0.11-0.604-0.166-1.103-0.166H286.456z"/>
	<path fill="#FFFFFF" d="M294.157,8.047h4.847c0.163,0,0.269,0.015,0.313,0.045c0.045,0.031,0.067,0.124,0.067,0.281
		s-0.108,0.261-0.324,0.312c-0.164,0.038-0.274,0.078-0.33,0.12c-0.057,0.042-0.084,0.122-0.084,0.24v5.376
		c0,0.147,0.097,0.267,0.291,0.358c0.193,0.091,0.439,0.137,0.738,0.137c0.276,0,0.511-0.051,0.705-0.153
		c0.194-0.103,0.291-0.216,0.291-0.341V9.05c0-0.093-0.021-0.157-0.062-0.194c-0.041-0.037-0.144-0.082-0.308-0.137
		c-0.254-0.083-0.381-0.212-0.381-0.386c0-0.135,0.036-0.217,0.106-0.244c0.071-0.027,0.174-0.041,0.308-0.041h2.418
		c0.269,0,0.403,0.058,0.403,0.173v0.23c0,0.103-0.016,0.167-0.045,0.194c-0.03,0.027-0.116,0.052-0.258,0.074
		c-0.351,0.051-0.525,0.155-0.525,0.312v5.233c0,0.496-0.333,0.888-0.997,1.178s-1.589,0.434-2.775,0.434
		c-1.328,0-2.341-0.154-3.039-0.46c-0.697-0.307-1.046-0.75-1.046-1.329V9.031c0-0.134-0.164-0.233-0.493-0.297
		c-0.164-0.032-0.263-0.062-0.296-0.089c-0.034-0.027-0.051-0.085-0.051-0.175c0-0.186,0.026-0.302,0.078-0.351
		C293.762,8.071,293.911,8.047,294.157,8.047z"/>
	<path fill="#FFFFFF" d="M308.965,8.253c0.045-0.016,0.171-0.088,0.38-0.216c0.135-0.083,0.313-0.125,0.538-0.125
		c0.052,0,0.261,0.011,0.626,0.034c0.075,0.032,0.131,0.099,0.168,0.201l0.604,1.626c0.03,0.086,0.045,0.137,0.045,0.153
		c0,0.061-0.039,0.101-0.117,0.12c-0.078,0.019-0.286,0.029-0.621,0.029c-0.381,0-0.627-0.021-0.739-0.063
		c-0.111-0.042-0.324-0.214-0.638-0.518c-0.664-0.643-1.258-0.964-1.779-0.964c-0.374,0-0.561,0.112-0.561,0.336
		c0,0.278,0.563,0.825,1.69,1.641c1.291,0.94,2.133,1.621,2.524,2.041s0.587,0.892,0.587,1.413c0,0.617-0.339,1.09-1.019,1.42
		c-0.679,0.33-1.443,0.494-2.294,0.494c-0.537,0-1.056-0.065-1.556-0.197c-0.194-0.051-0.348-0.077-0.459-0.077
		c-0.098,0-0.176,0.03-0.235,0.091c-0.119,0.121-0.41,0.182-0.873,0.182c-0.179,0-0.301-0.012-0.363-0.036
		c-0.063-0.024-0.11-0.087-0.141-0.189l-0.56-1.597c-0.074-0.205-0.111-0.313-0.111-0.326c0-0.093,0.197-0.139,0.593-0.139
		c0.537,0,0.854,0.03,0.951,0.091c0.098,0.061,0.235,0.2,0.414,0.417c0.657,0.777,1.317,1.166,1.981,1.166
		c0.246,0,0.446-0.038,0.599-0.115c0.153-0.077,0.229-0.173,0.229-0.288c0-0.201-0.17-0.44-0.509-0.717
		c-0.34-0.276-0.756-0.584-1.248-0.923c-1.18-0.812-2.013-1.46-2.502-1.945c-0.488-0.485-0.733-0.979-0.733-1.485
		c0-0.569,0.291-1.023,0.873-1.362s1.295-0.508,2.139-0.508C307.432,7.918,308.137,8.03,308.965,8.253z"/>
	<path fill="#FFFFFF" d="M315.311,8.584h-0.508c-0.166,0-0.302,0.047-0.406,0.142s-0.214,0.35-0.328,0.765
		c-0.053,0.182-0.136,0.297-0.247,0.343s-0.335,0.069-0.671,0.069c-0.321,0-0.528-0.017-0.621-0.05
		c-0.094-0.034-0.14-0.1-0.14-0.199c0-0.058,0.003-0.115,0.011-0.173l0.137-1.118c0.014-0.131,0.065-0.216,0.155-0.256
		c0.089-0.04,0.313-0.06,0.672-0.06h8.213c0.239,0,0.385,0.013,0.438,0.039c0.052,0.025,0.093,0.118,0.123,0.278l0.19,0.988
		c0.015,0.077,0.022,0.155,0.022,0.235c0,0.096-0.027,0.169-0.084,0.22c-0.056,0.051-0.233,0.077-0.531,0.077
		c-0.381,0-0.625-0.016-0.733-0.048c-0.108-0.032-0.195-0.132-0.263-0.302c-0.12-0.278-0.25-0.506-0.392-0.684
		c-0.143-0.178-0.317-0.267-0.526-0.267h-0.336v6.159c0,0.176,0.179,0.297,0.537,0.365c0.149,0.029,0.248,0.063,0.297,0.103
		s0.072,0.124,0.072,0.252c0,0.163-0.033,0.258-0.101,0.285c-0.067,0.027-0.221,0.041-0.46,0.041h-4.934
		c-0.194,0-0.32-0.016-0.376-0.048c-0.056-0.032-0.084-0.123-0.084-0.273c0-0.179,0.117-0.288,0.352-0.326
		c0.227-0.039,0.37-0.076,0.431-0.113s0.091-0.1,0.091-0.189V8.584z"/>
</g>
<g>
	<ellipse fill="#FFFFFF" cx="407.268" cy="43.387" rx="25.004" ry="27.667"/>
	<g>
		<g>
			<path fill-rule="evenodd" clip-rule="evenodd" fill="#010101" d="M427.443,42.939c2.932-5.528,1.779-12.919-2.502-18.079
				c-4.2-5.279-11.371-7.951-17.704-6.987c-13.246,2.447-19.196,13.269-24.516,25.192c-5.13-3.234,2.788-11.695,1.785-16.406
				c-1.209-0.875-2.725,5.054-4.181,4.24c-1.819-4.663,5.03-13.26,9.477-11.857c3.875-4.513,9.515-8.894,16.595-10.368
				c6.96-1.613,15.016,0.277,19.992,5.026c1.918,3.047-0.143,2.661-0.104,4.093c7.133,3.555,10.414,12.645,9.118,18.375
				C434.279,42.13,430.411,44.489,427.443,42.939z"/>
			<path fill-rule="evenodd" clip-rule="evenodd" fill="#010101" d="M389.307,36.937c0.152,0.777,1.316-0.118,1.62,0.407
				c-1.306,2.18-5.076,5.06-7.15,8.226c1.268-0.355,2.489,1.523,1.136,4.038c-0.614,0.411-1.177-0.928-1.803-0.294
				c-0.901,2.222,0.853,3.598,1.214,5.097c-0.237,1.074-0.521,1.785-0.878,2.079c-3.476-4.589-2.507-11.343,0.293-16.157
				c2.832-5.034,6.995-8.053,9.52-11.028C394.938,31.252,393.994,34.984,389.307,36.937z"/>
			<g>
				<g>
					<path fill="#010101" d="M387.779,27.283c-11.294,10.048-9.833,33.583,6.181,42.651c7.617,4.517,17.654,4.51,25.013,0.055
						c7.502-4.264,12.189-11.893,13.916-19.671c-0.359-1.548-1.01-3.047-1.582-4.422c-0.169,1.266-0.255,2.554-0.589,3.79
						c0.479,1.466,0.784,2.989,1.017,4.602c0.322-1.072,0.763-2.113,0.972-3.215c0.976-3.213-1.155-10.916-1.484-4.461
						c-0.165,1.025-0.231,2.07-0.504,3.075c-0.305,2.656-1.719,10.881,1.017,4.602c0.455-1.302,0.889-2.614,1.154-3.969
						c0.872-3.229-1.354-10.894-1.582-4.422c-0.291,14.066-14.509,29.26-30.572,24.548c-15.892-4.072-21.787-24.462-14.374-35.543
						C387.04,32.969,389.997,25.05,387.779,27.283L387.779,27.283z"/>
				</g>
			</g>
		</g>
	</g>
</g>
<g>
	<ellipse fill="#FFFFFF" cx="405.913" cy="145.123" rx="24.948" ry="30.01"/>
	<g>
		<g>
			<path fill-rule="evenodd" clip-rule="evenodd" fill="#010101" d="M435.858,145.754c-3.182,7.591-6.427,14.073-10.916,19.898
				c-4.416,5.692-10.804,10.83-19.066,11.722c-8.172,0.993-16.942-3.168-21.743-9.798c-4.953-6.547-6.308-15.189-3.617-22.104
				c4.518,2.133,0.668,12.996,6.68,14.797c1.225-0.484-2.044-4.616-0.112-5.111c3.646,1.938,6.331,6.875,5.553,10.813
				c4.132,2.78,9.243,3.062,12.829,1.715c3.727-1.272,5.945-3.241,9.091-4.829c2.135-0.319,2.18,1.068,3.392,1.479
				c2.209-4.935,5.088-9.212,8.244-13.276C429.274,147.188,432.648,143.669,435.858,145.754z"/>
			<path fill-rule="evenodd" clip-rule="evenodd" fill="#010101" d="M375.726,155.136c-0.568-1.044-1.115,1.056-1.683,0.482
				c-0.502-4.681,2.815-9.987,5.549-12.979c-1.398,0.374-2.392-2.573,0.085-4.861c0.77-0.141,0.688,1.46,1.582,1.049
				c1.732-1.739,0.927-3.717,1.646-5.267c0.973-0.669,1.699-0.912,2.168-0.846c-0.751,5.116-3.403,9.723-5.302,15.872
				c-1.843,5.955-2.281,13.525,1.392,19.273C378.777,169.451,372.427,161.419,375.726,155.136z"/>
			<g>
				<g>
					<path fill="#010101" d="M385.021,162.909c-5.037-14.748-1.982-32.515,10.116-41.601c5.911-4.372,14.289-5.117,20.922-1.282
						c6.719,3.657,11.227,10.958,12.668,18.442c1.075,1.183,1.973,2.5,2.907,3.893c-0.141-1.4-0.274-2.811-0.559-4.19
						c-1.041-1.295-2.151-2.472-3.335-3.525c0.319,1.021,0.653,2.04,0.839,3.097c0.812,2.703,3.323,10.791,2.996,3.829
						c-0.171-1.132-0.22-2.287-0.5-3.4c-0.474-3.338-5.704-9.773-3.335-3.525c0.41,1.252,0.748,2.524,0.986,3.823
						c0.715,2.719,3.119,10.864,2.907,3.893c-0.565-7.81-3.969-15.794-10.089-21.104c-5.966-5.465-14.815-7.442-22.209-4.658
						c-15.141,5.94-21.122,23.558-19.738,39.106C379.482,158.821,386.264,166.626,385.021,162.909L385.021,162.909z"/>
				</g>
			</g>
		</g>
	</g>
</g>
<path fill="none" stroke="#010101" d="M59.193,153.401h121.617c0,0,16.694,12.306,43.932,12.306
	c27.236,0,39.663-11.906,39.663-11.906h115.207"/>
<line fill="#FFFFFF" stroke="#010101" x1="384.19" y1="25.441" x2="57.891" y2="25.441"/>
<path fill="none" stroke="#010101" d="M58.876,161.588h121.617c0,0,16.694,12.306,43.932,12.306s39.664-11.906,39.664-11.906
	h119.116"/>
<text transform="matrix(1 0 0 1 37.52 96.0391)" fill="#4F4F4F" font-family="'Arial'" font-size="14">Teacher:</text>
<path d="M353.198,172.084c0.109,0,0.164-0.055,0.164-0.164v-1.988c0-0.455,0.079-0.775,0.237-0.963s0.357-0.28,0.595-0.28
	c0.242,0,0.422,0.068,0.537,0.207c0.116,0.14,0.174,0.446,0.174,0.92v2.104c0,0.109,0.055,0.164,0.164,0.164h0.312
	c0.108,0,0.162-0.055,0.162-0.164v-1.988c0-0.416,0.079-0.728,0.238-0.935c0.159-0.206,0.356-0.309,0.595-0.309
	c0.242,0,0.421,0.068,0.537,0.207c0.116,0.14,0.174,0.446,0.174,0.92v2.104c0,0.109,0.055,0.164,0.163,0.164h0.313
	c0.108,0,0.162-0.055,0.162-0.164v-2.314c0-0.432-0.097-0.77-0.289-1.018c-0.193-0.247-0.479-0.371-0.859-0.371
	c-0.227,0-0.439,0.05-0.641,0.148c-0.2,0.099-0.365,0.221-0.497,0.365h-0.014c-0.049-0.113-0.155-0.229-0.322-0.343
	c-0.166-0.113-0.403-0.171-0.711-0.171c-0.168,0-0.343,0.042-0.524,0.126c-0.182,0.085-0.35,0.215-0.505,0.388v-0.289
	c0-0.108-0.056-0.163-0.165-0.163h-0.308c-0.111,0-0.166,0.055-0.166,0.163v3.479c0,0.109,0.055,0.164,0.163,0.164H353.198z
	 M349.331,169.054c0.201-0.244,0.467-0.365,0.798-0.365s0.597,0.121,0.798,0.365c0.199,0.244,0.301,0.62,0.301,1.127
	c0,0.508-0.102,0.884-0.301,1.127c-0.201,0.244-0.467,0.366-0.798,0.366s-0.597-0.122-0.798-0.366
	c-0.2-0.243-0.301-0.619-0.301-1.127C349.03,169.674,349.131,169.298,349.331,169.054 M348.808,171.589
	c0.302,0.371,0.742,0.557,1.321,0.557c0.581,0,1.02-0.186,1.32-0.557c0.301-0.37,0.452-0.84,0.452-1.408
	c0-0.567-0.151-1.037-0.452-1.408c-0.301-0.37-0.739-0.556-1.32-0.556c-0.579,0-1.02,0.186-1.321,0.556
	c-0.301,0.371-0.451,0.841-0.451,1.408C348.356,170.749,348.507,171.219,348.808,171.589 M345.062,171.589
	c0.281,0.371,0.711,0.557,1.291,0.557c0.457,0,0.792-0.094,1.006-0.281s0.351-0.333,0.411-0.437c0.051-0.087,0.04-0.152-0.032-0.196
	l-0.243-0.145c-0.079-0.049-0.151-0.016-0.214,0.098c-0.065,0.121-0.169,0.232-0.312,0.335c-0.144,0.104-0.348,0.154-0.616,0.154
	c-0.331,0-0.587-0.122-0.768-0.366c-0.182-0.243-0.273-0.619-0.273-1.127c0-0.507,0.092-0.883,0.273-1.127
	c0.181-0.244,0.437-0.365,0.768-0.365c0.253,0,0.443,0.039,0.571,0.118c0.126,0.081,0.225,0.176,0.295,0.286
	c0.072,0.116,0.146,0.149,0.218,0.099l0.229-0.148c0.072-0.049,0.083-0.113,0.032-0.192c-0.093-0.145-0.24-0.286-0.448-0.426
	c-0.207-0.139-0.505-0.208-0.896-0.208c-0.58,0-1.01,0.186-1.291,0.556c-0.282,0.371-0.424,0.841-0.424,1.408
	C344.638,170.749,344.779,171.219,345.062,171.589 M343.446,172.084c0.109,0,0.163-0.055,0.163-0.164v-0.442
	c0-0.108-0.054-0.163-0.163-0.163h-0.406c-0.108,0-0.163,0.055-0.163,0.163v0.442c0,0.109,0.055,0.164,0.163,0.164H343.446z
	 M339.533,171.991c0.258,0.103,0.566,0.154,0.927,0.154c0.266,0,0.492-0.029,0.681-0.089c0.189-0.06,0.36-0.179,0.513-0.357
	c0.153-0.179,0.23-0.397,0.23-0.655c0-0.141-0.018-0.269-0.055-0.383c-0.035-0.115-0.102-0.222-0.197-0.32
	c-0.096-0.1-0.23-0.19-0.407-0.272c-0.136-0.063-0.287-0.116-0.454-0.159c-0.169-0.044-0.354-0.092-0.557-0.146
	c-0.131-0.033-0.232-0.078-0.306-0.134c-0.071-0.056-0.121-0.116-0.148-0.184c-0.026-0.065-0.039-0.142-0.039-0.226
	c0-0.111,0.034-0.208,0.102-0.291c0.067-0.081,0.155-0.14,0.264-0.173c0.109-0.034,0.239-0.051,0.392-0.051
	c0.123,0,0.268,0.027,0.432,0.083c0.165,0.056,0.291,0.114,0.381,0.178c0.105,0.075,0.185,0.077,0.235,0.007l0.163-0.217
	c0.056-0.073,0.045-0.137-0.032-0.191c-0.133-0.095-0.291-0.177-0.474-0.245c-0.182-0.069-0.424-0.104-0.723-0.104
	c-0.203,0-0.412,0.03-0.627,0.092s-0.394,0.178-0.537,0.347c-0.142,0.169-0.213,0.371-0.213,0.605c0,0.229,0.043,0.409,0.132,0.541
	c0.088,0.132,0.191,0.235,0.311,0.312c0.118,0.077,0.243,0.136,0.376,0.178c0.198,0.063,0.358,0.109,0.479,0.141
	c0.124,0.03,0.245,0.068,0.369,0.114c0.075,0.026,0.151,0.063,0.23,0.109c0.078,0.046,0.136,0.107,0.173,0.185
	c0.038,0.076,0.057,0.157,0.057,0.243c0,0.15-0.04,0.27-0.118,0.359c-0.078,0.089-0.169,0.149-0.273,0.183
	c-0.104,0.032-0.222,0.049-0.354,0.049c-0.226,0-0.426-0.032-0.601-0.098s-0.333-0.152-0.476-0.262
	c-0.104-0.079-0.183-0.083-0.236-0.01l-0.163,0.228c-0.044,0.061-0.027,0.125,0.047,0.196
	C339.11,171.801,339.276,171.889,339.533,171.991 M335.892,169.101c0.153-0.274,0.413-0.412,0.78-0.412
	c0.262,0,0.479,0.088,0.651,0.266s0.259,0.447,0.259,0.81v0.834c0,0.362-0.086,0.633-0.259,0.81
	c-0.173,0.178-0.39,0.267-0.651,0.267c-0.367,0-0.627-0.138-0.78-0.413s-0.229-0.635-0.229-1.08
	C335.662,169.736,335.738,169.376,335.892,169.101 M335.364,171.553c0.252,0.395,0.618,0.593,1.103,0.593
	c0.276,0,0.501-0.049,0.671-0.146c0.171-0.096,0.319-0.229,0.444-0.395h0.008c-0.005,0.071-0.008,0.146-0.008,0.221v0.217
	c0,0.44-0.075,0.73-0.227,0.87c-0.15,0.141-0.391,0.211-0.719,0.211c-0.29,0-0.495-0.025-0.612-0.075
	c-0.119-0.05-0.242-0.131-0.37-0.247c-0.1-0.088-0.177-0.104-0.231-0.052l-0.2,0.196c-0.058,0.056-0.054,0.123,0.012,0.202
	c0.089,0.107,0.239,0.208,0.448,0.304c0.21,0.095,0.526,0.143,0.95,0.143c0.631,0,1.053-0.131,1.267-0.394
	c0.214-0.262,0.32-0.625,0.32-1.089v-3.671c0-0.108-0.058-0.163-0.174-0.163h-0.324c-0.093,0-0.14,0.055-0.14,0.163v0.289
	c-0.132-0.158-0.283-0.284-0.449-0.376c-0.167-0.092-0.39-0.138-0.666-0.138c-0.484,0-0.851,0.198-1.103,0.593
	c-0.251,0.395-0.377,0.853-0.377,1.371C334.987,170.7,335.113,171.157,335.364,171.553 M331.581,172.084
	c0.109,0,0.163-0.055,0.163-0.164v-1.988c0-0.455,0.081-0.775,0.242-0.963c0.163-0.188,0.4-0.28,0.714-0.28
	c0.242,0,0.441,0.063,0.598,0.189c0.158,0.127,0.236,0.427,0.236,0.9v2.142c0,0.109,0.055,0.164,0.164,0.164h0.311
	c0.108,0,0.163-0.055,0.163-0.164v-2.314c0-0.432-0.097-0.77-0.289-1.018c-0.192-0.247-0.51-0.371-0.95-0.371
	c-0.271,0-0.498,0.042-0.68,0.126c-0.183,0.085-0.352,0.215-0.509,0.388v-0.289c0-0.108-0.056-0.163-0.166-0.163h-0.307
	c-0.11,0-0.166,0.055-0.166,0.163v3.479c0,0.109,0.055,0.164,0.163,0.164H331.581z M329.914,167.59c0.108,0,0.163-0.055,0.163-0.163
	v-0.312c0-0.108-0.055-0.163-0.163-0.163h-0.312c-0.109,0-0.164,0.055-0.164,0.163v0.312c0,0.108,0.055,0.163,0.164,0.163H329.914z
	 M329.914,172.084c0.108,0,0.163-0.055,0.163-0.164v-3.479c0-0.108-0.055-0.163-0.163-0.163h-0.312
	c-0.109,0-0.164,0.055-0.164,0.163v3.479c0,0.109,0.055,0.164,0.164,0.164H329.914z M325.826,172.084
	c0.108,0,0.162-0.055,0.162-0.164v-1.988c0-0.455,0.082-0.775,0.244-0.963c0.161-0.188,0.399-0.28,0.713-0.28
	c0.241,0,0.441,0.063,0.598,0.189c0.157,0.127,0.236,0.427,0.236,0.9v2.142c0,0.109,0.054,0.164,0.163,0.164h0.312
	c0.108,0,0.162-0.055,0.162-0.164v-2.314c0-0.432-0.095-0.77-0.288-1.018c-0.193-0.247-0.509-0.371-0.951-0.371
	c-0.271,0-0.497,0.042-0.679,0.126c-0.182,0.085-0.353,0.215-0.51,0.388v-0.289c0-0.108-0.054-0.163-0.165-0.163h-0.308
	c-0.109,0-0.165,0.055-0.165,0.163v3.479c0,0.109,0.055,0.164,0.164,0.164H325.826z M323.209,172.084
	c0.108,0,0.163-0.055,0.163-0.164v-1.808c0-0.44,0.091-0.788,0.276-1.042c0.183-0.256,0.417-0.382,0.699-0.382
	c0.075,0,0.153,0.007,0.239,0.024c0.05,0.01,0.082-0.007,0.094-0.051l0.084-0.297c0.014-0.052-0.007-0.087-0.063-0.109
	c-0.063-0.026-0.173-0.039-0.328-0.039c-0.235,0-0.433,0.055-0.59,0.167c-0.158,0.11-0.296,0.275-0.412,0.492v-0.435
	c0-0.108-0.055-0.163-0.165-0.163h-0.308c-0.11,0-0.165,0.055-0.165,0.163v3.479c0,0.109,0.054,0.164,0.162,0.164H323.209z
	 M319.575,170.57c0.171-0.153,0.668-0.262,1.491-0.324v1.068c-0.176,0.155-0.347,0.251-0.514,0.287s-0.344,0.054-0.53,0.054
	c-0.243,0-0.421-0.042-0.534-0.126c-0.111-0.085-0.168-0.245-0.168-0.482C319.32,170.883,319.406,170.724,319.575,170.57
	 M318.982,171.86c0.212,0.19,0.518,0.285,0.914,0.285c0.225,0,0.429-0.029,0.61-0.089c0.183-0.06,0.369-0.164,0.56-0.314v0.178
	c0,0.109,0.049,0.164,0.144,0.164h0.33c0.11,0,0.165-0.055,0.165-0.164v-2.246c0-0.452-0.107-0.808-0.323-1.067
	c-0.215-0.261-0.574-0.39-1.079-0.39c-0.187,0-0.412,0.034-0.678,0.104c-0.266,0.068-0.497,0.197-0.696,0.386
	c-0.09,0.084-0.107,0.157-0.055,0.217l0.189,0.218c0.057,0.065,0.118,0.062,0.185-0.011c0.142-0.16,0.295-0.272,0.458-0.341
	c0.163-0.067,0.362-0.101,0.597-0.101c0.305,0,0.508,0.082,0.61,0.247c0.102,0.166,0.153,0.362,0.153,0.589v0.246
	c-0.799,0.034-1.4,0.151-1.803,0.353c-0.402,0.2-0.603,0.516-0.603,0.945C318.661,171.407,318.768,171.671,318.982,171.86
	 M317.827,172.084c0.134,0,0.199-0.055,0.199-0.164v-0.268c0-0.108-0.065-0.163-0.199-0.163h-2.766v-1.813h2.439
	c0.132,0,0.199-0.054,0.199-0.162v-0.269c0-0.109-0.067-0.163-0.199-0.163h-2.439v-1.603h2.656c0.134,0,0.2-0.054,0.2-0.163v-0.268
	c0-0.109-0.066-0.163-0.2-0.163h-3.17c-0.121,0-0.182,0.066-0.182,0.198v4.8c0,0.132,0.061,0.199,0.182,0.199H317.827z
	 M310.907,169.101c0.153-0.274,0.413-0.412,0.78-0.412c0.261,0,0.479,0.088,0.65,0.266c0.173,0.178,0.26,0.447,0.26,0.81v0.834
	c0,0.362-0.087,0.633-0.26,0.81c-0.172,0.178-0.39,0.267-0.65,0.267c-0.367,0-0.627-0.138-0.78-0.413
	c-0.154-0.275-0.23-0.635-0.23-1.08C310.677,169.736,310.753,169.376,310.907,169.101 M310.38,171.553
	c0.251,0.395,0.618,0.593,1.102,0.593c0.277,0,0.502-0.049,0.672-0.146c0.17-0.096,0.318-0.229,0.444-0.395h0.007
	c-0.005,0.071-0.007,0.146-0.007,0.221v0.217c0,0.44-0.076,0.73-0.227,0.87c-0.151,0.141-0.391,0.211-0.72,0.211
	c-0.289,0-0.493-0.025-0.612-0.075s-0.242-0.131-0.37-0.247c-0.099-0.088-0.176-0.104-0.231-0.052l-0.2,0.196
	c-0.057,0.056-0.054,0.123,0.012,0.202c0.089,0.107,0.239,0.208,0.449,0.304c0.21,0.095,0.527,0.143,0.949,0.143
	c0.632,0,1.054-0.131,1.267-0.394c0.214-0.262,0.321-0.625,0.321-1.089v-3.671c0-0.108-0.059-0.163-0.175-0.163h-0.324
	c-0.093,0-0.139,0.055-0.139,0.163v0.289c-0.134-0.158-0.283-0.284-0.45-0.376c-0.166-0.092-0.389-0.138-0.666-0.138
	c-0.483,0-0.851,0.198-1.102,0.593s-0.377,0.853-0.377,1.371C310.003,170.7,310.129,171.157,310.38,171.553 M306.596,172.084
	c0.109,0,0.163-0.055,0.163-0.164v-1.988c0-0.455,0.081-0.775,0.242-0.963c0.163-0.188,0.4-0.28,0.715-0.28
	c0.241,0,0.441,0.063,0.598,0.189c0.157,0.127,0.236,0.427,0.236,0.9v2.142c0,0.109,0.055,0.164,0.163,0.164h0.311
	c0.108,0,0.163-0.055,0.163-0.164v-2.314c0-0.432-0.096-0.77-0.288-1.018c-0.192-0.247-0.511-0.371-0.95-0.371
	c-0.271,0-0.498,0.042-0.681,0.126c-0.182,0.085-0.352,0.215-0.509,0.388v-0.289c0-0.108-0.055-0.163-0.164-0.163h-0.309
	c-0.11,0-0.165,0.055-0.165,0.163v3.479c0,0.109,0.055,0.164,0.163,0.164H306.596z M304.928,167.59c0.109,0,0.164-0.055,0.164-0.163
	v-0.312c0-0.108-0.055-0.163-0.164-0.163h-0.311c-0.109,0-0.163,0.055-0.163,0.163v0.312c0,0.108,0.054,0.163,0.163,0.163H304.928z
	 M304.928,172.084c0.109,0,0.164-0.055,0.164-0.164v-3.479c0-0.108-0.055-0.163-0.164-0.163h-0.311
	c-0.109,0-0.163,0.055-0.163,0.163v3.479c0,0.109,0.054,0.164,0.163,0.164H304.928z M300.841,172.084
	c0.108,0,0.163-0.055,0.163-0.164v-1.988c0-0.455,0.081-0.775,0.243-0.963c0.161-0.188,0.4-0.28,0.714-0.28
	c0.241,0,0.44,0.063,0.599,0.189c0.156,0.127,0.234,0.427,0.234,0.9v2.142c0,0.109,0.055,0.164,0.163,0.164h0.312
	c0.109,0,0.164-0.055,0.164-0.164v-2.314c0-0.432-0.097-0.77-0.289-1.018c-0.192-0.247-0.51-0.371-0.951-0.371
	c-0.271,0-0.498,0.042-0.68,0.126c-0.182,0.085-0.352,0.215-0.509,0.388v-0.289c0-0.108-0.055-0.163-0.165-0.163h-0.309
	c-0.108,0-0.164,0.055-0.164,0.163v3.479c0,0.109,0.054,0.164,0.163,0.164H300.841z M298.225,172.084
	c0.108,0,0.162-0.055,0.162-0.164v-1.808c0-0.44,0.093-0.788,0.276-1.042c0.184-0.256,0.417-0.382,0.699-0.382
	c0.075,0,0.155,0.007,0.239,0.024c0.051,0.01,0.082-0.007,0.094-0.051l0.083-0.297c0.015-0.052-0.005-0.087-0.062-0.109
	c-0.063-0.026-0.171-0.039-0.328-0.039c-0.235,0-0.432,0.055-0.59,0.167c-0.157,0.11-0.296,0.275-0.412,0.492v-0.435
	c0-0.108-0.054-0.163-0.165-0.163h-0.308c-0.109,0-0.165,0.055-0.165,0.163v3.479c0,0.109,0.055,0.164,0.164,0.164H298.225z
	 M294.592,170.57c0.17-0.153,0.667-0.262,1.491-0.324v1.068c-0.177,0.155-0.349,0.251-0.515,0.287
	c-0.167,0.036-0.343,0.054-0.529,0.054c-0.245,0-0.423-0.042-0.534-0.126c-0.113-0.085-0.17-0.245-0.17-0.482
	C294.335,170.883,294.421,170.724,294.592,170.57 M293.997,171.86c0.214,0.19,0.519,0.285,0.915,0.285
	c0.224,0,0.428-0.029,0.609-0.089c0.184-0.06,0.37-0.164,0.562-0.314v0.178c0,0.109,0.047,0.164,0.143,0.164h0.329
	c0.111,0,0.165-0.055,0.165-0.164v-2.246c0-0.452-0.107-0.808-0.322-1.067c-0.215-0.261-0.575-0.39-1.08-0.39
	c-0.186,0-0.412,0.034-0.678,0.104c-0.266,0.068-0.497,0.197-0.696,0.386c-0.089,0.084-0.106,0.157-0.054,0.217l0.188,0.218
	c0.058,0.065,0.119,0.062,0.185-0.011c0.143-0.16,0.297-0.272,0.459-0.341c0.163-0.067,0.361-0.101,0.596-0.101
	c0.305,0,0.509,0.082,0.611,0.247c0.103,0.166,0.154,0.362,0.154,0.589v0.246c-0.801,0.034-1.4,0.151-1.804,0.353
	c-0.403,0.2-0.603,0.516-0.603,0.945C293.677,171.407,293.782,171.671,293.997,171.86 M290.704,168.965
	c0.195-0.185,0.433-0.276,0.714-0.276c0.319,0,0.561,0.125,0.725,0.377c0.165,0.252,0.252,0.545,0.262,0.88h-2.048
	C290.393,169.478,290.509,169.15,290.704,168.965 M290.126,171.612c0.286,0.355,0.731,0.533,1.336,0.533
	c0.464,0,0.804-0.077,1.02-0.231c0.216-0.153,0.347-0.265,0.394-0.334c0.056-0.085,0.056-0.151,0-0.199l-0.214-0.185
	c-0.072-0.063-0.147-0.044-0.225,0.058c-0.07,0.092-0.182,0.185-0.332,0.278c-0.151,0.095-0.367,0.142-0.649,0.142
	c-0.268,0-0.507-0.091-0.72-0.274c-0.211-0.183-0.338-0.508-0.379-0.976h2.539c0.101,0,0.149-0.055,0.149-0.163
	c0-0.713-0.152-1.232-0.458-1.558c-0.306-0.323-0.69-0.486-1.154-0.486c-0.558,0-0.986,0.178-1.286,0.533
	c-0.3,0.354-0.449,0.831-0.449,1.431C289.697,170.779,289.839,171.257,290.126,171.612 M288.986,172.084
	c0.133,0,0.199-0.055,0.199-0.164v-0.268c0-0.108-0.066-0.163-0.199-0.163h-2.402v-4.404c0-0.132-0.062-0.198-0.182-0.198h-0.334
	c-0.12,0-0.181,0.066-0.181,0.198v4.8c0,0.132,0.061,0.199,0.181,0.199H288.986z"/>
<path fill="#939598" d="M295.916,46.452c-0.15-0.45-0.355-0.881-0.613-1.29c-0.258-0.407-0.562-0.766-0.913-1.074
	s-0.734-0.534-1.15-0.678c-0.459-0.143-0.996-0.269-1.612-0.376c-0.617-0.107-1.259-0.196-1.925-0.269s-1.319-0.136-1.957-0.194
	c-0.637-0.057-1.193-0.106-1.666-0.149c-0.057,0-0.211-0.015-0.463-0.043c-0.25-0.029-0.516-0.058-0.795-0.086
	c-0.279-0.029-0.535-0.058-0.764-0.087c-0.229-0.028-0.351-0.05-0.365-0.064c-0.058-0.071-0.09-0.172-0.097-0.301
	c-0.008-0.129-0.011-0.236-0.011-0.322c0-0.172,0.007-0.341,0.021-0.506c0.014-0.164,0.057-0.326,0.129-0.483
	c0.401-0.028,0.738-0.054,1.01-0.076c0.272-0.021,0.556-0.039,0.85-0.053c0.294-0.015,0.527-0.021,0.699-0.021
	c1.376-0.058,2.742-0.098,4.096-0.118c1.355-0.022,2.713-0.047,4.075-0.075c-0.043-0.416-0.086-0.835-0.129-1.258
	s-0.065-0.842-0.065-1.258s0.004-0.828,0.012-1.236c0.006-0.409,0.018-0.821,0.031-1.237c-1.031-0.2-2.063-0.365-3.096-0.494
	s-2.079-0.193-3.139-0.193c-0.903,0-1.846,0.064-2.828,0.193s-1.903,0.358-2.764,0.688c-0.502,0.201-0.924,0.455-1.268,0.763
	c-0.344,0.309-0.627,0.663-0.85,1.064s-0.383,0.836-0.483,1.301c-0.101,0.466-0.151,0.957-0.151,1.473
	c0,0.316,0.032,0.703,0.098,1.161c0.064,0.459,0.172,0.914,0.322,1.366c0.15,0.451,0.352,0.853,0.602,1.204
	c0.251,0.351,0.557,0.577,0.914,0.677c0.373,0.115,0.777,0.193,1.215,0.236s0.864,0.086,1.28,0.129
	c0.917,0.072,1.831,0.122,2.741,0.15c0.91,0.029,1.824,0.079,2.74,0.15c0.016,0,0.065,0.004,0.151,0.011
	c0.086,0.009,0.179,0.016,0.278,0.022c0.102,0.007,0.19,0.018,0.27,0.032c0.079,0.014,0.126,0.028,0.141,0.043
	c0.086,0.143,0.149,0.325,0.192,0.548c0.044,0.223,0.065,0.412,0.065,0.57c0,0.086-0.008,0.183-0.021,0.289
	c-0.015,0.108-0.051,0.19-0.107,0.248c-0.072,0.058-0.176,0.101-0.313,0.13c-0.136,0.027-0.283,0.05-0.441,0.063
	c-0.156,0.015-0.308,0.022-0.451,0.022h-0.322c-0.43,0-0.855-0.008-1.279-0.022c-0.423-0.014-0.842-0.028-1.258-0.043
	c-1.075-0.028-2.146-0.054-3.214-0.075s-2.14-0.047-3.215-0.075c0.129,1.434,0.172,2.882,0.129,4.344
	c0.903,0.057,1.796,0.1,2.677,0.129c0.882,0.028,1.773,0.043,2.678,0.043c0.529,0,1.189-0.007,1.978-0.022
	c0.788-0.014,1.591-0.046,2.407-0.096c0.818-0.05,1.606-0.136,2.367-0.258c0.758-0.122,1.39-0.291,1.892-0.506
	c0.602-0.259,1.067-0.599,1.397-1.021c0.329-0.423,0.494-0.978,0.494-1.666C296.142,47.346,296.067,46.904,295.916,46.452
	 M277.183,48.27c-0.015-1.204-0.072-2.415-0.172-3.634c-0.988,0-1.982,0.004-2.979,0.011c-0.996,0.008-1.988-0.025-2.978-0.097
	l0.193,4.149h-3.806c-0.115-0.271-0.223-0.623-0.322-1.053c-0.102-0.43-0.188-0.882-0.258-1.354
	c-0.072-0.474-0.133-0.936-0.184-1.388c-0.05-0.451-0.074-0.842-0.074-1.172c0-0.157,0.006-0.358,0.021-0.602
	c0.014-0.243,0.04-0.491,0.075-0.742c0.035-0.25,0.086-0.49,0.15-0.72c0.065-0.229,0.141-0.408,0.227-0.537
	c0.172-0.259,0.473-0.463,0.902-0.613c0.43-0.151,0.893-0.265,1.387-0.344s0.979-0.133,1.451-0.161
	c0.474-0.029,0.854-0.043,1.141-0.043c1.563,0,3.074,0.229,4.537,0.688l-0.172-4.602c-1.535-0.301-3.068-0.451-4.603-0.451
	c-0.717,0-1.502,0.039-2.354,0.118s-1.68,0.244-2.483,0.495c-0.804,0.25-1.537,0.602-2.204,1.053
	c-0.666,0.452-1.171,1.05-1.516,1.795c-0.071,0.172-0.129,0.388-0.172,0.646c-0.043,0.258-0.075,0.529-0.096,0.816
	c-0.023,0.287-0.037,0.563-0.044,0.827c-0.008,0.266-0.011,0.492-0.011,0.678c0,1.019,0.036,2.032,0.107,3.042
	c0.072,1.012,0.172,2.019,0.302,3.021c0.043,0.387,0.093,0.734,0.149,1.043c0.058,0.308,0.151,0.588,0.28,0.839
	s0.312,0.473,0.548,0.666c0.236,0.194,0.563,0.369,0.979,0.527c0.201,0.071,0.427,0.117,0.677,0.14
	c0.251,0.021,0.478,0.046,0.679,0.075c1.733,0.201,3.508,0.33,5.32,0.387c1.814,0.057,3.588,0.1,5.322,0.129
	C277.204,50.686,277.196,49.474,277.183,48.27 M260.028,40.186c-0.043-1.477-0.092-2.96-0.149-4.451l-4.343-0.516
	c0.027,1.806,0.066,3.598,0.117,5.375s0.082,3.562,0.098,5.354c-0.416-1.118-0.832-2.231-1.247-3.344
	c-0.416-1.11-0.789-2.232-1.119-3.365c-0.229-0.745-0.469-1.479-0.72-2.203c-0.252-0.724-0.52-1.443-0.807-2.161l-8.406,0.044
	c0.143,2.752,0.242,5.489,0.301,8.213c0.057,2.724,0.121,5.462,0.193,8.214l4.645,0.129c0.086-1.936,0.195-3.86,0.333-5.773
	c0.136-1.914,0.269-3.838,0.397-5.772c0.358,0.889,0.717,1.77,1.076,2.644c0.357,0.875,0.737,1.749,1.139,2.623
	c0.545,1.19,1.089,2.369,1.634,3.537c0.545,1.169,1.09,2.348,1.635,3.538c0.431-0.072,0.863-0.13,1.3-0.173
	c0.438-0.043,0.871-0.064,1.301-0.064c0.875,0,1.756,0.021,2.646,0.064c0.015-1.261,0.024-2.504,0.032-3.73
	c0.007-1.226,0.011-2.469,0.011-3.73C260.094,43.146,260.071,41.661,260.028,40.186 M236.028,36.067
	c-1.541,0.079-3.094,0.147-4.656,0.204c0.029,0.602,0.055,1.201,0.076,1.796s0.047,1.193,0.074,1.795l2.043,0.258
	c0.101,1.333,0.197,2.659,0.291,3.979c0.092,1.319,0.176,2.652,0.248,3.999l-1.398,0.021c0.043,0.702,0.072,1.395,0.086,2.075
	c0.014,0.682,0.021,1.372,0.021,2.075l7.719-0.13c-0.071-0.344-0.119-0.695-0.14-1.053c-0.022-0.358-0.032-0.718-0.032-1.075v-1.29
	c0-0.43,0.015-0.854,0.043-1.27l-2.193-0.043c-0.014-0.602-0.025-1.192-0.032-1.773c-0.007-0.58-0.011-1.172-0.011-1.774
	c0-0.501,0.004-0.996,0.011-1.482c0.007-0.487,0.019-0.982,0.032-1.484l2.387,0.086c0.029-0.86,0.036-1.723,0.021-2.591
	c-0.014-0.867,0.015-1.738,0.086-2.612C239.128,35.893,237.569,35.988,236.028,36.067"/>
<path d="M229.206,40.186c-0.043-1.477-0.094-2.96-0.15-4.451l-4.344-0.517c0.029,1.807,0.068,3.599,0.119,5.375
	c0.049,1.778,0.082,3.563,0.097,5.354c-0.416-1.118-0.832-2.232-1.247-3.343c-0.416-1.111-0.789-2.233-1.118-3.365
	c-0.229-0.745-0.47-1.48-0.722-2.204c-0.25-0.724-0.519-1.444-0.805-2.161l-8.408,0.043c0.144,2.752,0.244,5.49,0.302,8.214
	c0.057,2.724,0.12,5.461,0.192,8.213l4.646,0.13c0.086-1.936,0.196-3.859,0.333-5.773c0.136-1.914,0.27-3.838,0.398-5.773
	c0.357,0.89,0.715,1.771,1.074,2.646c0.358,0.874,0.738,1.749,1.139,2.623c0.545,1.189,1.091,2.369,1.636,3.537
	c0.544,1.168,1.089,2.347,1.634,3.537c0.43-0.072,0.863-0.129,1.301-0.172s0.87-0.065,1.301-0.065c0.875,0,1.756,0.022,2.645,0.065
	c0.014-1.262,0.025-2.506,0.031-3.731c0.008-1.225,0.012-2.469,0.012-3.73C229.271,43.146,229.249,41.661,229.206,40.186
	 M205.204,40.766c-0.007,0.172-0.014,0.348-0.021,0.526c-0.009,0.181-0.026,0.353-0.054,0.517c-0.029,0.165-0.065,0.275-0.108,0.334
	c-0.101,0.129-0.276,0.232-0.526,0.311c-0.25,0.079-0.523,0.14-0.816,0.183c-0.295,0.044-0.581,0.072-0.861,0.087
	c-0.279,0.015-0.49,0.021-0.634,0.021c-0.33,0-0.666-0.015-1.011-0.043c-0.344-0.029-0.674-0.079-0.988-0.151l-0.581-4.171
	c0.545-0.086,1.093-0.157,1.646-0.215c0.551-0.057,1.113-0.086,1.688-0.086c0.07,0,0.197,0.003,0.376,0.01
	c0.179,0.009,0.366,0.022,0.56,0.043c0.193,0.022,0.375,0.047,0.547,0.076s0.295,0.072,0.367,0.129
	c0.1,0.086,0.178,0.219,0.235,0.397c0.058,0.18,0.101,0.373,0.129,0.581c0.029,0.208,0.047,0.412,0.054,0.612
	c0.008,0.201,0.012,0.358,0.012,0.474C205.216,40.473,205.212,40.593,205.204,40.766 M209.612,38.303
	c-0.394-0.766-0.957-1.379-1.688-1.838c-0.301-0.186-0.643-0.337-1.021-0.45c-0.38-0.115-0.773-0.205-1.183-0.27
	c-0.408-0.064-0.813-0.104-1.216-0.119c-0.4-0.014-0.773-0.021-1.117-0.021c-1.348,0-2.691,0.043-4.031,0.129
	c-1.341,0.086-2.686,0.165-4.031,0.237c-0.087,2.321-0.15,4.644-0.193,6.966c-0.016,1.305-0.065,2.612-0.151,3.924
	s-0.179,2.627-0.278,3.946c0.4,0.043,0.797,0.071,1.192,0.086c0.394,0.014,0.799,0.021,1.215,0.021c0.817,0,1.634-0.021,2.451-0.063
	l-0.108-4.882c0.459-0.028,0.922-0.064,1.387-0.107c0.467-0.043,0.937-0.078,1.41-0.107c0.414,1.075,0.737,2.101,0.967,3.075
	c0.229,0.976,0.4,2.042,0.516,3.203l6.279-0.15c-1.061-2.479-2.301-4.902-3.721-7.268c1.176-0.057,2.121-0.422,2.838-1.096
	c0.718-0.675,1.076-1.6,1.076-2.774C210.204,39.884,210.007,39.07,209.612,38.303 M183.202,44.809
	c0.014-0.029,0.041-0.137,0.076-0.323s0.082-0.408,0.139-0.666c0.058-0.258,0.119-0.531,0.184-0.817
	c0.064-0.287,0.129-0.556,0.193-0.807c0.064-0.25,0.119-0.462,0.162-0.634s0.078-0.266,0.106-0.28
	c0.043-0.043,0.126-0.078,0.248-0.107c0.121-0.028,0.25-0.046,0.387-0.054c0.136-0.007,0.265-0.011,0.388-0.011h0.289h0.237
	c0.114,0,0.231,0.008,0.354,0.021c0.121,0.015,0.236,0.029,0.344,0.043c0.107,0.015,0.176,0.029,0.205,0.043
	c0.086,0.058,0.175,0.247,0.268,0.57c0.094,0.322,0.176,0.681,0.248,1.075c0.071,0.394,0.137,0.767,0.193,1.118
	c0.057,0.351,0.093,0.591,0.107,0.72L183.202,44.809z M192.029,48.033c-0.208-1.147-0.397-2.308-0.569-3.483
	c-0.244-1.49-0.478-2.978-0.699-4.462c-0.223-1.483-0.448-2.97-0.678-4.462c-1.275-0.042-2.551-0.063-3.826-0.063
	c-1.047,0-2.084,0.057-3.107,0.172c-1.025,0.115-2.054,0.258-3.086,0.43c-0.201,2.423-0.408,4.838-0.623,7.246
	s-0.423,4.831-0.624,7.268h3.312l0.666-2.859l5.289-0.194c0.215,0.732,0.438,1.459,0.668,2.184c0.229,0.724,0.457,1.45,0.688,2.182
	l3.268-0.494C192.462,50.334,192.236,49.181,192.029,48.033 M176.714,35.605c-0.875-0.043-1.744-0.082-2.611-0.118
	c-0.868-0.036-1.739-0.054-2.613-0.054c-1.146,0-2.283,0.004-3.408,0.011s-2.254,0.003-3.386-0.011
	c0.028,0.988,0.058,1.967,0.087,2.935c0.027,0.968,0.043,1.939,0.043,2.913v0.409c0,1.691-0.029,3.369-0.087,5.031
	s-0.108,3.333-0.151,5.01c2.035,0,4.057-0.01,6.064-0.032c2.006-0.021,4.027-0.025,6.063-0.011c-0.186-0.688-0.33-1.395-0.43-2.118
	c-0.1-0.723-0.201-1.444-0.301-2.161c-1.104,0.101-2.197,0.219-3.279,0.355s-2.168,0.239-3.258,0.312l-0.322-2.666l5.16-0.925
	c0-0.2,0.004-0.408,0.012-0.623c0.007-0.215,0.011-0.423,0.011-0.624c0-0.487-0.019-0.967-0.054-1.441
	c-0.037-0.473-0.09-0.953-0.162-1.439l-5.547,0.322l0.043-1.698c1.404-0.115,2.799-0.212,4.182-0.291
	c1.384-0.078,2.777-0.153,4.184-0.226L176.714,35.605z"/>
<path fill="#939598" d="M162.743,47.001c-0.932-0.029-1.859-0.043-2.784-0.043c-0.925,0-1.86-0.014-2.806-0.043
	c0.028-0.903,0.06-1.802,0.096-2.698c0.036-0.896,0.083-1.796,0.14-2.698c0.072-1.075,0.175-2.146,0.312-3.215
	c0.136-1.067,0.283-2.132,0.441-3.192c-0.946,0.07-1.885,0.129-2.817,0.172s-1.878,0.071-2.838,0.086
	c0.114,2.752,0.193,5.479,0.236,8.181s0.1,5.422,0.172,8.16c1.706-0.101,3.401-0.208,5.085-0.323
	c1.685-0.113,3.38-0.235,5.086-0.364L162.743,47.001z"/>
</svg>
