<svg xmlns="http://www.w3.org/2000/svg" xmlns:xlink="http://www.w3.org/1999/xlink" viewBox="-1553 -10973 50 50">
  <defs>
    <style>
      .cls-1 {
        clip-path: url(#clip-icon-students-selected_1);
      }

      .cls-2 {
        fill: #fff;
      }
    </style>
    <clipPath id="clip-icon-students-selected_1">
      <rect x="-1553" y="-10973" width="50" height="50"/>
    </clipPath>
  </defs>
  <g id="icon-students-selected_1" data-name="icon-students-selected – 1" class="cls-1">
    <g id="Symbol_46_14" data-name="Symbol 46 – 14" transform="translate(-1543.979 -10964.022)">
      <path id="Path_2307" data-name="Path 2307" class="cls-2" d="M4.374.021A4.846,4.846,0,0,1,8.819,2.479c.981,1.879.288,1.961.332,4.209a6.123,6.123,0,0,1,.141,2.257,4.8,4.8,0,0,1-.9,1.916,3.947,3.947,0,0,1-.383,1.419s-.565.482-.317,2.718c1.9.755,6.166,1.692,6.417,2.716a15.062,15.062,0,0,1,.176,3.4c-.031.47-.274.913-.738.918s-17.671-.012-18.12,0a.906.906,0,0,1-.916-.712,12,12,0,0,1,.16-3.769c.389-.984,5.478-2.169,6.691-2.712.207-2-.552-2.058-.717-2.835s-.06-.663-.2-1.14A3.767,3.767,0,0,1-.485,8.729c-.185-1,.138-1.278.138-2.04,0-1.963-.651-2.556.474-4.431A4.683,4.683,0,0,1,4.374.021Z" transform="translate(16 5)"/>
      <path id="Path_2308" data-name="Path 2308" class="cls-2" d="M2.07-.079A4.182,4.182,0,0,1,5.8,1.889c.777,1.489.062,1.98.1,3.76a4.529,4.529,0,0,1,0,1.532,3.259,3.259,0,0,1-.642,1.4,2.789,2.789,0,0,1-.24,1.406s-.531.154-.335,1.926c.89.354.151.026,1.62.579-1.468.7-3.989,1.151-4.589,2.568a5.331,5.331,0,0,0-.348,2.772H-5.157a.921.921,0,0,1-.784-.714,6.587,6.587,0,0,1,.254-3.007c.489-.986,4.5-1.548,5.29-2.2.164-1.583-.308-1.442-.438-2.058A10.483,10.483,0,0,0-1.11,8.781c-.269-.146-.4-.483-.676-1.6s0-.929,0-1.532c0-1.555-.583-2.451.308-3.936A4.013,4.013,0,0,1,2.07-.079Z" transform="translate(7.985 7.196)"/>
    </g>
  </g>
</svg>
