<svg xmlns="http://www.w3.org/2000/svg" xmlns:xlink="http://www.w3.org/1999/xlink" viewBox="-1137 -10974 50 50">
  <defs>
    <style>
      .cls-1 {
        clip-path: url(#clip-icon-help);
      }

      .cls-2, .cls-3 {
        fill: #fff;
      }

      .cls-3 {
        stroke: rgba(0,0,0,0);
        stroke-width: 1px;
      }
    </style>
    <clipPath id="clip-icon-help">
      <rect x="-1137" y="-10974" width="50" height="50"/>
    </clipPath>
  </defs>
  <g id="icon-help" class="cls-1">
    <g id="Group_14895" data-name="Group 14895" transform="translate(-1946 -11035.563)">
      <path id="Path_3835" data-name="Path 3835" class="cls-2" d="M6.661,0a6.661,6.661,0,1,0,6.661,6.661A6.642,6.642,0,0,0,6.661,0Zm0,11.959A5.334,5.334,0,0,1,1.786,8.75h0a5.536,5.536,0,0,1-.242-.757h0c-.03-.091-.03-.151-.061-.242V7.72a.667.667,0,0,1-.03-.242v-.03c0-.061-.03-.151-.03-.212V7.175a.515.515,0,0,0-.03-.212V6.63a5.283,5.283,0,1,1,10.566.03v.333a.515.515,0,0,1-.03.212v.061c0,.061-.03.151-.03.212v.03c0,.091-.03.151-.03.242v.03c-.03.091-.03.151-.061.242h0a5.112,5.112,0,0,1-.242.727h0A5.41,5.41,0,0,1,6.661,11.959Z" transform="translate(827 79.563)"/>
      <path id="Path_3838" data-name="Path 3838" class="cls-3" d="M2.648-1.117H3.717V0H2.648ZM1.493-7.286a2.334,2.334,0,0,1,1.8-.706,2.36,2.36,0,0,1,1.695.6,2.036,2.036,0,0,1,.636,1.544,1.651,1.651,0,0,1-.234.924,7.354,7.354,0,0,1-.943,1.042,3.015,3.015,0,0,0-.669.846,2.641,2.641,0,0,0-.153,1.023H2.669a3.482,3.482,0,0,1,.183-1.238,3.336,3.336,0,0,1,.8-1.077l.43-.424a1.778,1.778,0,0,0,.312-.381,1.365,1.365,0,0,0,.215-.725,1.4,1.4,0,0,0-.314-.913,1.265,1.265,0,0,0-1.039-.387,1.271,1.271,0,0,0-1.241.666,2.583,2.583,0,0,0-.22,1.069H.838A2.635,2.635,0,0,1,1.493-7.286Z" transform="translate(830.162 90.555)"/>
    </g>
  </g>
</svg>
