<svg xmlns="http://www.w3.org/2000/svg" xmlns:xlink="http://www.w3.org/1999/xlink" viewBox="-1292 -10866 14 14">
  <defs>
    <style>
      .cls-1 {
        clip-path: url(#clip-icon-settings);
      }

      .cls-2 {
        fill: #fff;
      }
    </style>
    <clipPath id="clip-icon-settings">
      <rect x="-1292" y="-10866" width="14" height="14"/>
    </clipPath>
  </defs>
  <g id="icon-settings" class="cls-1">
    <path id="Path_3870" data-name="Path 3870" class="cls-2" d="M13.212,5.833h0a.437.437,0,0,1-.408-.321,6.168,6.168,0,0,0-.642-1.575.44.44,0,0,1,.058-.525h0a.811.811,0,0,0,0-1.108l-.554-.525a.811.811,0,0,0-1.108,0h0a.44.44,0,0,1-.525.058A6.168,6.168,0,0,0,8.458,1.2.485.485,0,0,1,8.167.787h0A.784.784,0,0,0,7.379,0H6.592a.779.779,0,0,0-.758.787h0a.437.437,0,0,1-.321.408,6.168,6.168,0,0,0-1.575.642.44.44,0,0,1-.525-.058h0a.811.811,0,0,0-1.108,0l-.525.554a.811.811,0,0,0,0,1.108h0a.44.44,0,0,1,.058.525A6.168,6.168,0,0,0,1.2,5.542a.485.485,0,0,1-.408.292h0A.784.784,0,0,0,0,6.621v.787a.779.779,0,0,0,.787.758h0a.437.437,0,0,1,.408.321,6.168,6.168,0,0,0,.642,1.575.44.44,0,0,1-.058.525h0a.811.811,0,0,0,0,1.108l.554.525a.811.811,0,0,0,1.108,0h0a.44.44,0,0,1,.525-.058,6.168,6.168,0,0,0,1.575.642.437.437,0,0,1,.321.408h0A.784.784,0,0,0,6.65,14h.787a.784.784,0,0,0,.788-.787h0a.437.437,0,0,1,.321-.408,6.168,6.168,0,0,0,1.575-.642.44.44,0,0,1,.525.058h0a.811.811,0,0,0,1.108,0l.554-.554a.811.811,0,0,0,0-1.108h0a.44.44,0,0,1-.058-.525,6.168,6.168,0,0,0,.642-1.575.437.437,0,0,1,.408-.321h0a.784.784,0,0,0,.787-.788V6.562A.936.936,0,0,0,13.212,5.833ZM9.333,8.517c-.029.029-.058.058-.058.088-.029.029-.058.058-.058.087l-.088.087-.087.088c-.029.058-.087.087-.117.117l-.087.087-.088.088c-.029.029-.058.058-.087.058-.029.029-.058.058-.087.058a3.579,3.579,0,0,1-.758.35h0a1.036,1.036,0,0,1-.292.058.175.175,0,0,0-.117.029H6.767a.175.175,0,0,1-.117-.029c-.088-.029-.2-.029-.292-.058h0a3.579,3.579,0,0,1-.758-.35c-.029-.029-.058-.058-.088-.058-.029-.029-.058-.058-.087-.058l-.088-.087L5.25,8.983c-.058-.029-.088-.087-.117-.117l-.087-.088-.088-.087C4.929,8.662,4.9,8.633,4.9,8.6c-.029-.029-.058-.058-.058-.088a3.579,3.579,0,0,1-.35-.758h0a1.036,1.036,0,0,1-.058-.292A.175.175,0,0,0,4.4,7.35V6.708a.175.175,0,0,1,.029-.117c.029-.088.029-.2.058-.292h0a3.579,3.579,0,0,1,.35-.758c.029-.029.058-.058.058-.087.029-.029.058-.058.058-.087l.088-.087.087-.087c.029-.058.087-.087.117-.117l.087-.087L5.425,4.9c.029-.029.058-.058.087-.058.029-.029.058-.058.088-.058a3.579,3.579,0,0,1,.758-.35h0a1.036,1.036,0,0,1,.292-.058.175.175,0,0,0,.117-.029h.642a.175.175,0,0,1,.117.029c.088.029.2.029.292.058h0a3.579,3.579,0,0,1,.758.35c.029.029.058.058.087.058.029.029.058.058.087.058l.088.087.087.087c.058.029.087.088.117.117l.087.087.088.087c.029.029.058.058.058.087.029.029.058.058.058.087a3.579,3.579,0,0,1,.35.758h0a1.036,1.036,0,0,1,.058.292.175.175,0,0,0,.029.117V7.35a.175.175,0,0,1-.029.117c-.029.087-.029.2-.058.292h0A3.016,3.016,0,0,1,9.333,8.517Z" transform="translate(-1292 -10866)"/>
  </g>
</svg>
