<svg xmlns="http://www.w3.org/2000/svg" xmlns:xlink="http://www.w3.org/1999/xlink" viewBox="-1487 -10863 20 20">
  <defs>
    <style>
      .cls-1 {
        clip-path: url(#clip-icon-play);
      }

      .cls-2 {
        fill: #fff;
      }
    </style>
    <clipPath id="clip-icon-play">
      <rect x="-1487" y="-10863" width="20" height="20"/>
    </clipPath>
  </defs>
  <g id="icon-play" class="cls-1">
    <g id="Symbol_40_3" data-name="Symbol 40 – 3" transform="translate(-1490 -10866.18)">
      <path id="Subtraction_1" data-name="Subtraction 1" class="cls-2" d="M1414.594,1623.647a4.556,4.556,0,0,1-2.936-1.046c-.253-.323-2.543-3.156-4.937-3.156-1.677.016-3.006,1.392-3.976,2.4-.28.291-.535.554-.764.754a5.086,5.086,0,0,1-2.884,1.044,1.938,1.938,0,0,1-1.521-.6,3.513,3.513,0,0,1-.524-2.771,18.412,18.412,0,0,1,3.693-9.508,3.324,3.324,0,0,1,1.789-.76h8.527a3.693,3.693,0,0,1,1.925.76,17.647,17.647,0,0,1,3.963,9.513,3.321,3.321,0,0,1-.533,2.669A2.342,2.342,0,0,1,1414.594,1623.647Zm-12.382-6.338v1.489h.744v-1.489h1.489v-.744h-1.489v-1.489h-.744v1.489h-1.489v.744Zm9.356,0a.744.744,0,1,0,.744.744A.745.745,0,0,0,1411.568,1617.309Zm1.489-1.489a.745.745,0,1,0,.744.745A.746.746,0,0,0,1413.056,1615.82Zm-2.977,0a.745.745,0,1,0,.744.745A.745.745,0,0,0,1410.079,1615.82Zm1.489-1.489a.744.744,0,1,0,.744.744A.745.745,0,0,0,1411.568,1614.331Z" transform="translate(-1394 -1603.819)"/>
    </g>
  </g>
</svg>
