<svg xmlns="http://www.w3.org/2000/svg" xmlns:xlink="http://www.w3.org/1999/xlink" viewBox="-1077 -11034 50 50">
  <defs>
    <style>
      .cls-1 {
        clip-path: url(#clip-icon-settings);
      }

      .cls-2 {
        fill: #fff;
      }
    </style>
    <clipPath id="clip-icon-settings">
      <rect x="-1077" y="-11034" width="50" height="50"/>
    </clipPath>
  </defs>
  <g id="icon-settings" class="cls-1">
    <path id="Path_3834" data-name="Path 3834" class="cls-2" d="M12.572,5.551h0a.416.416,0,0,1-.389-.305,5.869,5.869,0,0,0-.611-1.5.418.418,0,0,1,.056-.5h0a.772.772,0,0,0,0-1.055l-.527-.5a.772.772,0,0,0-1.055,0h0a.418.418,0,0,1-.5.056,5.869,5.869,0,0,0-1.5-.611A.461.461,0,0,1,7.771.749h0A.746.746,0,0,0,7.022,0H6.272a.741.741,0,0,0-.722.749h0a.416.416,0,0,1-.305.389,5.869,5.869,0,0,0-1.5.611.418.418,0,0,1-.5-.056h0a.772.772,0,0,0-1.055,0l-.5.527a.772.772,0,0,0,0,1.055h0a.418.418,0,0,1,.056.5,5.869,5.869,0,0,0-.611,1.5.461.461,0,0,1-.389.278h0A.746.746,0,0,0,0,6.3v.749a.741.741,0,0,0,.749.722h0a.416.416,0,0,1,.389.305,5.869,5.869,0,0,0,.611,1.5.418.418,0,0,1-.056.5h0a.772.772,0,0,0,0,1.055l.527.5a.772.772,0,0,0,1.055,0h0a.418.418,0,0,1,.5-.056,5.869,5.869,0,0,0,1.5.611.416.416,0,0,1,.305.389h0a.746.746,0,0,0,.749.749h.749a.746.746,0,0,0,.749-.749h0a.416.416,0,0,1,.305-.389,5.869,5.869,0,0,0,1.5-.611.418.418,0,0,1,.5.056h0a.772.772,0,0,0,1.055,0l.527-.527a.772.772,0,0,0,0-1.055h0a.418.418,0,0,1-.056-.5,5.869,5.869,0,0,0,.611-1.5.416.416,0,0,1,.389-.305h0a.746.746,0,0,0,.749-.749V6.244A.89.89,0,0,0,12.572,5.551ZM8.881,8.1c-.028.028-.056.056-.056.083-.028.028-.056.056-.056.083l-.083.083L8.6,8.437c-.028.056-.083.083-.111.111l-.083.083-.083.083c-.028.028-.056.056-.083.056-.028.028-.056.056-.083.056a3.406,3.406,0,0,1-.722.333h0a.986.986,0,0,1-.278.056.167.167,0,0,0-.111.028H6.439a.167.167,0,0,1-.111-.028c-.083-.028-.194-.028-.278-.056h0a3.406,3.406,0,0,1-.722-.333C5.3,8.8,5.273,8.77,5.245,8.77c-.028-.028-.056-.056-.083-.056l-.083-.083L5,8.548c-.056-.028-.083-.083-.111-.111L4.8,8.354,4.718,8.27c-.028-.028-.056-.056-.056-.083-.028-.028-.056-.056-.056-.083a3.406,3.406,0,0,1-.333-.722h0A.986.986,0,0,1,4.218,7.1a.167.167,0,0,0-.028-.111V6.383a.167.167,0,0,1,.028-.111c.028-.083.028-.194.056-.278h0a3.406,3.406,0,0,1,.333-.722c.028-.028.056-.056.056-.083.028-.028.056-.056.056-.083L4.8,5.023l.083-.083c.028-.056.083-.083.111-.111l.083-.083.083-.083c.028-.028.056-.056.083-.056.028-.028.056-.056.083-.056a3.406,3.406,0,0,1,.722-.333h0a.986.986,0,0,1,.278-.056.167.167,0,0,0,.111-.028h.611a.167.167,0,0,1,.111.028c.083.028.194.028.278.056h0a3.406,3.406,0,0,1,.722.333c.028.028.056.056.083.056.028.028.056.056.083.056l.083.083.083.083c.056.028.083.083.111.111l.083.083.083.083c.028.028.056.056.056.083.028.028.056.056.056.083a3.406,3.406,0,0,1,.333.722h0a.986.986,0,0,1,.056.278.167.167,0,0,0,.028.111v.611A.167.167,0,0,1,9.27,7.1c-.028.083-.028.194-.056.278h0A2.87,2.87,0,0,1,8.881,8.1Z" transform="translate(-1059 -11016)"/>
  </g>
</svg>
