<svg xmlns="http://www.w3.org/2000/svg" xmlns:xlink="http://www.w3.org/1999/xlink" viewBox="-1501 -11034 50 50">
  <defs>
    <style>
      .cls-1 {
        clip-path: url(#clip-icon-teachers_1);
      }

      .cls-2 {
        fill: none;
        stroke: #fff;
        stroke-width: 1px;
      }
    </style>
    <clipPath id="clip-icon-teachers_1">
      <rect x="-1501" y="-11034" width="50" height="50"/>
    </clipPath>
  </defs>
  <g id="icon-teachers_1" data-name="icon-teachers – 1" class="cls-1">
    <g id="Symbol_50_9" data-name="Symbol 50 – 9" transform="translate(-1492.779 -11025.541)">
      <path id="Path_2311" data-name="Path 2311" class="cls-2" d="M4.4.541c1.528,0,2.979.146,3.96,2.025s.293,1.875.337,4.122a4.91,4.91,0,0,1,.123,2.04,5.869,5.869,0,0,1-.811,1.966A7.747,7.747,0,0,1,7.541,12.3s-.563.722-.316,2.958c1.9.755,6.314,1.866,6.5,2.664a16.29,16.29,0,0,1,.14,3.142c-.031.47-.239.53-.7.534s-17.112.065-17.56.077a.719.719,0,0,1-.741-.7,7.934,7.934,0,0,1,.153-3.053c.389-.984,5.829-1.974,6.83-2.8.207-2-.564-2.56-.729-3.337a10.258,10.258,0,0,0-.245-1.1,3.167,3.167,0,0,1-.9-1.966c-.185-1,.159-1.278.159-2.04,0-1.963-.752-2.35.373-4.225A3.865,3.865,0,0,1,4.4.541Z" transform="translate(12 5)"/>
    </g>
  </g>
</svg>
