<svg xmlns="http://www.w3.org/2000/svg" xmlns:xlink="http://www.w3.org/1999/xlink" viewBox="-1077 -10974 50 50">
  <defs>
    <style>
      .cls-1 {
        clip-path: url(#clip-icon-logout);
      }

      .cls-2 {
        fill: #fff;
      }
    </style>
    <clipPath id="clip-icon-logout">
      <rect x="-1077" y="-10974" width="50" height="50"/>
    </clipPath>
  </defs>
  <g id="icon-logout" class="cls-1">
    <g id="Group_14896" data-name="Group 14896" transform="translate(-1886 -11036.563)">
      <path id="Subtraction_13" data-name="Subtraction 13" class="cls-2" d="M1160.223-2700.178a6.669,6.669,0,0,1-6.661-6.661,6.649,6.649,0,0,1,3.494-5.868l.65,1.186a5.293,5.293,0,0,0-2.75,4.651v.273a1.07,1.07,0,0,1,.03.273.712.712,0,0,0,.015.166.594.594,0,0,1,.015.107.762.762,0,0,0,.03.272l.031.151a.93.93,0,0,0,.031.121,5.484,5.484,0,0,0,.241.753,5.325,5.325,0,0,0,4.876,3.213,5.413,5.413,0,0,0,4.9-3.209,5.042,5.042,0,0,0,.242-.726.957.957,0,0,0,.029-.118.917.917,0,0,1,.031-.125.656.656,0,0,1,.015-.15.583.583,0,0,0,.016-.122.625.625,0,0,1,.015-.136.6.6,0,0,0,.015-.106,1.038,1.038,0,0,0,.031-.273v-.333a5.336,5.336,0,0,0-2.738-4.681l.63-1.174a6.652,6.652,0,0,1,3.47,5.855A6.668,6.668,0,0,1,1160.223-2700.178Z" transform="translate(-326.563 2794.5)"/>
      <rect id="Rectangle_3275" data-name="Rectangle 3275" class="cls-2" width="2" height="8" rx="1" transform="translate(832.563 80.563)"/>
    </g>
  </g>
</svg>
