<svg xmlns="http://www.w3.org/2000/svg" xmlns:xlink="http://www.w3.org/1999/xlink" viewBox="3616 1356 440 65">
  <defs>
    <style>
      .cls-1 {
        clip-path: url(#clip-logo-learning-earnings-ondark);
      }

      .cls-2 {
        fill: url(#linear-gradient);
      }

      .cls-3 {
        fill: #fff;
        stroke: rgba(0,0,0,0);
        stroke-width: 1px;
      }
    </style>
    <linearGradient id="linear-gradient" y1="0.499" x2="1" y2="0.499" gradientUnits="objectBoundingBox">
      <stop offset="0" stop-color="#e04e5b"/>
      <stop offset="0.25" stop-color="#faa930"/>
      <stop offset="0.37" stop-color="#c1ae42"/>
      <stop offset="0.51" stop-color="#7db457"/>
      <stop offset="0.53" stop-color="#7cb45c"/>
      <stop offset="0.67" stop-color="#70b783"/>
      <stop offset="0.8" stop-color="#68b9a0"/>
      <stop offset="0.92" stop-color="#63bab1"/>
      <stop offset="1" stop-color="#61bab7"/>
    </linearGradient>
    <clipPath id="clip-logo-learning-earnings-ondark">
      <rect x="3616" y="1356" width="440" height="65"/>
    </clipPath>
  </defs>
  <g id="logo-learning-earnings-ondark" class="cls-1">
    <path id="path" class="cls-2" d="M25.21,10.5a1.31,1.31,0,0,0-1.31,1.31V71.89H19.75V11.81a1.31,1.31,0,0,0-1.31-1.31H11.7a1.31,1.31,0,0,0-1.31,1.31V73.19a1.31,1.31,0,1,0,2.61,0V13.11h4.14V73.19a1.31,1.31,0,0,0,1.31,1.31h6.77a1.31,1.31,0,0,0,1.31-1.31V13.11h5C45.35,13.11,55,21.55,55,33.63,55,45.25,46,53.48,32.81,54V50.07C43,49.53,50.22,42.76,50.22,33.58,50.22,23.84,42.52,17,31.5,17a1.31,1.31,0,0,0-1.31,1.31v6.82a1.31,1.31,0,0,0,1.31,1.31c4.14,0,8.31,2.19,8.31,7.1,0,4.18-3.42,7.1-8.31,7.1a1.31,1.31,0,0,0,0,2.61c6.33,0,10.92-4.08,10.92-9.71,0-5.32-3.89-9.15-9.62-9.65V19.7c8.78.5,14.8,6.07,14.8,13.88,0,8.19-6.62,13.92-16.11,13.92a1.31,1.31,0,0,0-1.31,1.31v6.53a1.31,1.31,0,0,0,1.31,1.31c15.15,0,26.14-9.68,26.14-23C57.64,20,46.89,10.5,31.5,10.5Z" transform="translate(3605.615 1345.5)"/>
    <path id="Assessment" class="cls-3" d="M3.275-30.843H7.454V-3.674H23.075V0H3.275ZM40.69-21.867a8.557,8.557,0,0,1,3.422,2.908,10.032,10.032,0,0,1,1.512,3.968,25.963,25.963,0,0,1,.336,4.955H29.479A9.618,9.618,0,0,0,31.1-4.546a5.413,5.413,0,0,0,4.682,2.068A6.053,6.053,0,0,0,40.5-4.43a6.583,6.583,0,0,0,1.428-2.625h3.716a7.827,7.827,0,0,1-.976,2.761,9.82,9.82,0,0,1-1.858,2.488A8.807,8.807,0,0,1,38.549.462,12.948,12.948,0,0,1,35.462.8a9.47,9.47,0,0,1-7.118-3.055q-2.918-3.055-2.918-8.556a12.924,12.924,0,0,1,2.939-8.8,9.7,9.7,0,0,1,7.685-3.38A10.257,10.257,0,0,1,40.69-21.867Zm1.386,8.829a9.791,9.791,0,0,0-1.071-3.926,5.488,5.488,0,0,0-5.186-2.729,5.749,5.749,0,0,0-4.367,1.879,7.1,7.1,0,0,0-1.869,4.777ZM54.695-3.4a4.437,4.437,0,0,0,2.834.945,8.618,8.618,0,0,0,3.863-.924A5.2,5.2,0,0,0,64.542-8.4v-3.044a6.466,6.466,0,0,1-1.785.735,15.207,15.207,0,0,1-2.142.42l-2.289.294a8.753,8.753,0,0,0-3.086.861A3.353,3.353,0,0,0,53.5-5.984,3.112,3.112,0,0,0,54.695-3.4Zm7.958-10.225A2.053,2.053,0,0,0,64.4-14.718a3.322,3.322,0,0,0,.252-1.449,3.069,3.069,0,0,0-1.375-2.8,7.378,7.378,0,0,0-3.937-.871q-2.96,0-4.2,1.6a5.25,5.25,0,0,0-.9,2.625H50.706q.1-4.157,2.7-5.784a11.077,11.077,0,0,1,6.015-1.627,12.24,12.24,0,0,1,6.446,1.512,5.129,5.129,0,0,1,2.457,4.7V-3.863a1.659,1.659,0,0,0,.241.945,1.165,1.165,0,0,0,1.018.357q.252,0,.567-.031t.672-.094V.1A10.526,10.526,0,0,1,69.476.42a9.82,9.82,0,0,1-1.26.063A3.108,3.108,0,0,1,65.382-.9a5.348,5.348,0,0,1-.651-2.079A9.615,9.615,0,0,1,61.414-.357,10.261,10.261,0,0,1,56.647.756a7.087,7.087,0,0,1-5.113-1.9A6.312,6.312,0,0,1,49.551-5.9,6.125,6.125,0,0,1,51.5-10.75a9.29,9.29,0,0,1,5.123-2.121Zm11.968-8.86h3.59V-18.6a8.582,8.582,0,0,1,2.163-2.761,5.607,5.607,0,0,1,3.968-1.627q.1,0,.357.021t.861.084V-18.9a5.645,5.645,0,0,0-.619-.084Q84.656-19,84.32-19a5.393,5.393,0,0,0-4.388,1.837A6.413,6.413,0,0,0,78.4-12.934V0H74.62Zm14.214,0h3.59V-19.3a10.07,10.07,0,0,1,3.38-2.834,9.014,9.014,0,0,1,3.968-.861q4.787,0,6.467,3.338a11.854,11.854,0,0,1,.924,5.228V0h-3.842V-14.172a7.674,7.674,0,0,0-.609-3.317,3.691,3.691,0,0,0-3.653-2.1,7.439,7.439,0,0,0-2.2.273,5.677,5.677,0,0,0-2.729,1.848,5.563,5.563,0,0,0-1.228,2.3,15.475,15.475,0,0,0-.283,3.391V0H88.834Zm23.915.1h3.842V0h-3.842Zm0-8.461h3.842v4.283h-3.842Zm9.553,8.356h3.59V-19.3a10.07,10.07,0,0,1,3.38-2.834,9.014,9.014,0,0,1,3.968-.861q4.787,0,6.467,3.338a11.854,11.854,0,0,1,.924,5.228V0H136.79V-14.172a7.674,7.674,0,0,0-.609-3.317,3.691,3.691,0,0,0-3.653-2.1,7.439,7.439,0,0,0-2.2.273,5.677,5.677,0,0,0-2.729,1.848,5.563,5.563,0,0,0-1.228,2.3,15.475,15.475,0,0,0-.283,3.391V0H122.3Zm36.47.9a10.375,10.375,0,0,1,2.184,2.142v-2.834h3.485v20.45a15.081,15.081,0,0,1-1.26,6.761Q160.83,9.511,154.3,9.511a10.894,10.894,0,0,1-6.11-1.627,6.346,6.346,0,0,1-2.771-5.092h3.842a4.276,4.276,0,0,0,1.092,2.331,5.566,5.566,0,0,0,4.031,1.26q4.346,0,5.69-3.065.8-1.806.735-6.446A7.415,7.415,0,0,1,158.08-.567a9.08,9.08,0,0,1-4.22.84,9.009,9.009,0,0,1-6.393-2.593q-2.74-2.593-2.74-8.577,0-5.648,2.761-8.818a8.538,8.538,0,0,1,6.666-3.17A8.2,8.2,0,0,1,158.772-21.584Zm.462,4.052a5.516,5.516,0,0,0-4.388-2.016,5.419,5.419,0,0,0-5.459,3.737,14.655,14.655,0,0,0-.777,5.228A9.28,9.28,0,0,0,150.154-4.8,4.982,4.982,0,0,0,154.3-2.813a5.822,5.822,0,0,0,5.732-3.674,11.851,11.851,0,0,0,.924-4.85Q160.956-15.516,159.234-17.532Zm23.747-13.312h22.487v3.779H187.054V-17.7h17.028v3.569H187.054V-3.674h18.729V0h-22.8ZM214.853-3.4a4.437,4.437,0,0,0,2.834.945,8.618,8.618,0,0,0,3.863-.924A5.2,5.2,0,0,0,224.7-8.4v-3.044a6.466,6.466,0,0,1-1.785.735,15.207,15.207,0,0,1-2.142.42l-2.289.294a8.753,8.753,0,0,0-3.086.861,3.353,3.353,0,0,0-1.743,3.149A3.112,3.112,0,0,0,214.853-3.4Zm7.958-10.225a2.053,2.053,0,0,0,1.743-1.092,3.322,3.322,0,0,0,.252-1.449,3.069,3.069,0,0,0-1.375-2.8,7.378,7.378,0,0,0-3.937-.871q-2.96,0-4.2,1.6a5.25,5.25,0,0,0-.9,2.625h-3.527q.1-4.157,2.7-5.784a11.077,11.077,0,0,1,6.015-1.627,12.24,12.24,0,0,1,6.446,1.512,5.129,5.129,0,0,1,2.457,4.7V-3.863a1.659,1.659,0,0,0,.241.945,1.165,1.165,0,0,0,1.018.357q.252,0,.567-.031t.672-.094V.1a10.526,10.526,0,0,1-1.344.315,9.82,9.82,0,0,1-1.26.063A3.108,3.108,0,0,1,225.54-.9a5.348,5.348,0,0,1-.651-2.079,9.615,9.615,0,0,1-3.317,2.625A10.261,10.261,0,0,1,216.806.756a7.087,7.087,0,0,1-5.113-1.9A6.312,6.312,0,0,1,209.709-5.9a6.125,6.125,0,0,1,1.953-4.85,9.29,9.29,0,0,1,5.123-2.121Zm11.968-8.86h3.59V-18.6a8.582,8.582,0,0,1,2.163-2.761,5.607,5.607,0,0,1,3.968-1.627q.1,0,.357.021t.861.084V-18.9a5.645,5.645,0,0,0-.619-.084q-.283-.021-.619-.021a5.393,5.393,0,0,0-4.388,1.837,6.413,6.413,0,0,0-1.533,4.231V0h-3.779Zm14.214,0h3.59V-19.3a10.07,10.07,0,0,1,3.38-2.834,9.015,9.015,0,0,1,3.968-.861q4.787,0,6.467,3.338a11.854,11.854,0,0,1,.924,5.228V0H263.48V-14.172a7.674,7.674,0,0,0-.609-3.317,3.691,3.691,0,0,0-3.653-2.1,7.439,7.439,0,0,0-2.2.273,5.677,5.677,0,0,0-2.729,1.848,5.563,5.563,0,0,0-1.228,2.3,15.475,15.475,0,0,0-.283,3.391V0h-3.779Zm23.915.1h3.842V0h-3.842Zm0-8.461h3.842v4.283h-3.842Zm9.553,8.356h3.59V-19.3a10.07,10.07,0,0,1,3.38-2.834,9.015,9.015,0,0,1,3.968-.861q4.787,0,6.467,3.338a11.854,11.854,0,0,1,.924,5.228V0h-3.842V-14.172a7.674,7.674,0,0,0-.609-3.317,3.691,3.691,0,0,0-3.653-2.1,7.439,7.439,0,0,0-2.2.273,5.677,5.677,0,0,0-2.729,1.848,5.563,5.563,0,0,0-1.228,2.3,15.475,15.475,0,0,0-.283,3.391V0H282.46Zm36.47.9a10.375,10.375,0,0,1,2.184,2.142v-2.834H324.6v20.45a15.081,15.081,0,0,1-1.26,6.761q-2.352,4.577-8.881,4.577a10.894,10.894,0,0,1-6.11-1.627,6.346,6.346,0,0,1-2.771-5.092h3.842a4.276,4.276,0,0,0,1.092,2.331,5.566,5.566,0,0,0,4.031,1.26q4.346,0,5.69-3.065.8-1.806.735-6.446a7.415,7.415,0,0,1-2.729,2.562,9.08,9.08,0,0,1-4.22.84,9.009,9.009,0,0,1-6.393-2.593q-2.74-2.593-2.74-8.577,0-5.648,2.761-8.818a8.538,8.538,0,0,1,6.666-3.17A8.2,8.2,0,0,1,318.931-21.584Zm.462,4.052A5.516,5.516,0,0,0,315-19.547a5.419,5.419,0,0,0-5.459,3.737,14.654,14.654,0,0,0-.777,5.228A9.28,9.28,0,0,0,310.312-4.8a4.982,4.982,0,0,0,4.147,1.984,5.822,5.822,0,0,0,5.732-3.674,11.851,11.851,0,0,0,.924-4.85Q321.114-15.516,319.393-17.532ZM332.536-7.055a5.5,5.5,0,0,0,.945,2.9q1.428,1.827,4.955,1.827a7.308,7.308,0,0,0,3.7-.913,3.033,3.033,0,0,0,1.6-2.824,2.415,2.415,0,0,0-1.281-2.2,15.227,15.227,0,0,0-3.233-1.071l-3-.756a14.647,14.647,0,0,1-4.241-1.6,4.769,4.769,0,0,1-2.436-4.241,6.48,6.48,0,0,1,2.3-5.165,9.172,9.172,0,0,1,6.183-1.974q5.081,0,7.328,2.981a6.47,6.47,0,0,1,1.365,4.073h-3.569a4.372,4.372,0,0,0-.9-2.331q-1.3-1.491-4.514-1.491a5.4,5.4,0,0,0-3.244.819,2.566,2.566,0,0,0-1.1,2.163,2.662,2.662,0,0,0,1.449,2.352,8.706,8.706,0,0,0,2.478.924l2.5.609a19.318,19.318,0,0,1,5.459,1.911,5.059,5.059,0,0,1,2.2,4.556,6.943,6.943,0,0,1-2.278,5.186Q342.908.861,338.247.861q-5.018,0-7.107-2.278A8.615,8.615,0,0,1,328.9-7.055Z" transform="translate(3692 1405)"/>
  </g>
</svg>
