<svg xmlns="http://www.w3.org/2000/svg" xmlns:xlink="http://www.w3.org/1999/xlink" viewBox="1854 886 400 65">
  <defs>
    <style>
      .cls-1 {
        clip-path: url(#clip-logo-powerschool-ondark);
      }

      .cls-2 {
        fill: url(#linear-gradient);
      }

      .cls-3 {
        fill: #fff;
      }
    </style>
    <linearGradient id="linear-gradient" y1="0.499" x2="1" y2="0.499" gradientUnits="objectBoundingBox">
      <stop offset="0" stop-color="#e04e5b"/>
      <stop offset="0.25" stop-color="#faa930"/>
      <stop offset="0.37" stop-color="#c1ae42"/>
      <stop offset="0.51" stop-color="#7db457"/>
      <stop offset="0.53" stop-color="#7cb45c"/>
      <stop offset="0.67" stop-color="#70b783"/>
      <stop offset="0.8" stop-color="#68b9a0"/>
      <stop offset="0.92" stop-color="#63bab1"/>
      <stop offset="1" stop-color="#61bab7"/>
    </linearGradient>
    <clipPath id="clip-logo-powerschool-ondark">
      <rect x="1854" y="886" width="400" height="65"/>
    </clipPath>
  </defs>
  <g id="logo-powerschool-ondark" class="cls-1">
    <path id="path" class="cls-2" d="M25.21,10.5a1.31,1.31,0,0,0-1.31,1.31V71.89H19.75V11.81a1.31,1.31,0,0,0-1.31-1.31H11.7a1.31,1.31,0,0,0-1.31,1.31V73.19a1.31,1.31,0,1,0,2.61,0V13.11h4.14V73.19a1.31,1.31,0,0,0,1.31,1.31h6.77a1.31,1.31,0,0,0,1.31-1.31V13.11h5C45.35,13.11,55,21.55,55,33.63,55,45.25,46,53.48,32.81,54V50.07C43,49.53,50.22,42.76,50.22,33.58,50.22,23.84,42.52,17,31.5,17a1.31,1.31,0,0,0-1.31,1.31v6.82a1.31,1.31,0,0,0,1.31,1.31c4.14,0,8.31,2.19,8.31,7.1,0,4.18-3.42,7.1-8.31,7.1a1.31,1.31,0,0,0,0,2.61c6.33,0,10.92-4.08,10.92-9.71,0-5.32-3.89-9.15-9.62-9.65V19.7c8.78.5,14.8,6.07,14.8,13.88,0,8.19-6.62,13.92-16.11,13.92a1.31,1.31,0,0,0-1.31,1.31v6.53a1.31,1.31,0,0,0,1.31,1.31c15.15,0,26.14-9.68,26.14-23C57.64,20,46.89,10.5,31.5,10.5Z" transform="translate(1843.615 875.5)"/>
    <g id="group-10" transform="translate(1846.381 890.8)">
      <path id="path-2" data-name="path" class="cls-3" d="M105.074,23.36c4.342,0,6.379.5,8.3,1.957a9.46,9.46,0,0,1,3.3,7.341A9.676,9.676,0,0,1,113.507,40c-2.046,1.617-4.132,2.086-8.134,2.086h-4.964V54.213H96.94V23.36ZM100.4,39.045h4.924c2.587,0,4.172-.291,5.716-1.294a6.056,6.056,0,0,0,2.288-4.98,6,6,0,0,0-2.337-5.045c-1.544-1-3.129-1.294-5.757-1.294h-4.851Z" transform="translate(-10.385 -10.626)"/>
      <path id="path-3" data-name="path" class="cls-3" d="M123.09,44.794a11.93,11.93,0,1,1,0,.04Zm3.048.081a8.845,8.845,0,1,0,17.682-.04,8.845,8.845,0,1,0-17.682,0Z" transform="translate(-15.392 -12.454)"/>
      <path id="path-4" data-name="path" class="cls-3" d="M154,33.78h3.234l6.177,18.475,5.377-16.478h2.547l5.425,16.478,6.129-18.475h3.234l-7.762,22.436h-3.048l-5.3-16.348L164.8,56.216h-3Z" transform="translate(-21.311 -12.622)"/>
      <path id="path-5" data-name="path" class="cls-3" d="M198.008,45.688a8.546,8.546,0,0,0,8.756,8.3,8.3,8.3,0,0,0,7.713-4.633h3.234a11.893,11.893,0,0,1-4.568,5.441,11.748,11.748,0,0,1-6.379,1.835,11.589,11.589,0,0,1-11.845-11.8,11.788,11.788,0,1,1,23.528.809ZM215.4,43.262a8.747,8.747,0,0,0-17.351,0Z" transform="translate(-29.146 -12.434)"/>
      <path id="path-6" data-name="path" class="cls-3" d="M229.429,33.633h2.878V37.3c1.617-3.339,4.544-4.212,7.172-4.293v3.048h-.291c-4.342,0-6.759,2.709-6.759,7.8V56.077H229.38Z" transform="translate(-35.745 -12.474)"/>
      <path id="path-7" data-name="path" class="cls-3" d="M247.755,45.508c.5,5.134,4.253,6.217,6.177,6.217a6.048,6.048,0,0,0,6.169-5.878c0-4.342-3.711-5.3-7.277-6.468-2.5-.752-7.883-2.337-7.883-8.174-.081-5.466,4.463-8.506,9.177-8.506,3.84,0,8.255,2.126,8.756,7.964h-3.46c-.372-2.005-1.375-5.045-5.466-5.045-3.089,0-5.66,2.086-5.66,5.3-.04,3.752,3,4.673,7.673,6.258,2.967,1.132,7.56,2.749,7.56,8.409,0,5.045-3.792,9.055-9.549,9.055-5.174,0-9.468-3.234-9.7-9.136Z" transform="translate(-38.596 -10.5)"/>
      <path id="path-8" data-name="path" class="cls-3" d="M295.237,48.48a11.886,11.886,0,1,1,.04-7.091h-3.169a8.894,8.894,0,0,0-14.472-3,9.209,9.209,0,0,0-2.547,6.468,8.724,8.724,0,0,0,8.845,8.966,8.465,8.465,0,0,0,8.134-5.336Z" transform="translate(-43.906 -12.469)"/>
      <path id="path-9" data-name="path" class="cls-3" d="M306,23.36h3.089V35.488c1.374-2.959,4.851-4.382,8.012-4.293,3.541,0,5.878,1.124,7.422,3.089s2.126,4.673,2.126,7.883V54.294H323.6V42.255a9.589,9.589,0,0,0-1.617-5.926c-1.213-1.463-2.959-2.3-5.66-2.3a7,7,0,0,0-5.474,2.215,7.616,7.616,0,0,0-1.795,5.215V54.229H306Z" transform="translate(-50.417 -10.626)"/>
      <path id="path-10" data-name="path" class="cls-3" d="M337.12,44.794a11.93,11.93,0,1,1,0,.04Zm3.048.081a8.845,8.845,0,1,0,17.682-.04,8.845,8.845,0,1,0-17.682,0Z" transform="translate(-56.376 -12.454)"/>
      <path id="path-11" data-name="path" class="cls-3" d="M370.6,44.794a11.921,11.921,0,1,1,0,.04Zm3.048.081a8.845,8.845,0,1,0,17.682-.04,8.845,8.845,0,1,0-17.682,0Z" transform="translate(-62.787 -12.454)"/>
      <path id="path-12" data-name="path" class="cls-3" d="M405.79,23.36h3.089V54.229H405.79Z" transform="translate(-69.525 -10.626)"/>
    </g>
  </g>
</svg>
