<svg xmlns="http://www.w3.org/2000/svg" xmlns:xlink="http://www.w3.org/1999/xlink" viewBox="-1358 -10874 32 32">
  <defs>
    <style>
      .cls-1 {
        clip-path: url(#clip-logo-powerschool);
      }

      .cls-2 {
        fill: url(#linear-gradient);
      }

      .cls-3 {
        clip-path: url(#clip-path);
      }
    </style>
    <linearGradient id="linear-gradient" y1="0.55" x2="1" y2="0.55" gradientUnits="objectBoundingBox">
      <stop offset="0" stop-color="#e04c5a"/>
      <stop offset="0.25" stop-color="#fca92f"/>
      <stop offset="0.367" stop-color="#c2af42"/>
      <stop offset="0.512" stop-color="#7eb558"/>
      <stop offset="0.527" stop-color="#7db55d"/>
      <stop offset="0.67" stop-color="#71b784"/>
      <stop offset="0.802" stop-color="#68b9a1"/>
      <stop offset="0.916" stop-color="#63bab2"/>
      <stop offset="1" stop-color="#61bab8"/>
    </linearGradient>
    <clipPath id="clip-path">
      <path id="path" d="M7.476,0a.656.656,0,0,0-.659.653V30.694h-2.1V.653A.656.656,0,0,0,4.063,0H.659A.656.656,0,0,0,0,.653V31.347a.659.659,0,0,0,1.318,0V1.306H3.4V31.347A.656.656,0,0,0,4.063,32H7.476a.656.656,0,0,0,.659-.653V1.306h2.514c6.987,0,11.867,4.217,11.867,10.256,0,5.813-4.575,9.93-11.208,10.184V19.785c5.13-.268,8.787-3.653,8.787-8.247,0-4.866-3.884-8.264-9.445-8.264a.662.662,0,0,0-.466.192.65.65,0,0,0-.193.462l0,3.409a.656.656,0,0,0,.659.652c2.087,0,4.193,1.1,4.193,3.55,0,2.09-1.724,3.549-4.193,3.549a.653.653,0,1,0,0,1.306c3.193,0,5.51-2.042,5.51-4.855,0-2.662-1.963-4.576-4.852-4.827l0-2.112c4.43.251,7.468,3.034,7.468,6.939,0,4.1-3.342,6.958-8.127,6.958a.656.656,0,0,0-.659.653v3.264a.656.656,0,0,0,.659.653c7.64,0,13.184-4.838,13.184-11.5C23.834,4.755,18.412,0,10.649,0Z"/>
    </clipPath>
    <clipPath id="clip-logo-powerschool">
      <rect x="-1358" y="-10874" width="32" height="32"/>
    </clipPath>
  </defs>
  <g id="logo-powerschool" class="cls-1">
    <g id="powerschool-logo" transform="translate(-1358 -10874)">
      <g id="group">
        <g id="group-2" data-name="group">
          <path id="SVGID_1_" class="cls-2" d="M7.476,0a.656.656,0,0,0-.659.653V30.694h-2.1V.653A.656.656,0,0,0,4.063,0H.659A.656.656,0,0,0,0,.653V31.347a.659.659,0,0,0,1.318,0V1.306H3.4V31.347A.656.656,0,0,0,4.063,32H7.476a.656.656,0,0,0,.659-.653V1.306h2.514c6.987,0,11.867,4.217,11.867,10.256,0,5.813-4.575,9.93-11.208,10.184V19.785c5.13-.268,8.787-3.653,8.787-8.247,0-4.866-3.884-8.264-9.445-8.264a.662.662,0,0,0-.466.192.65.65,0,0,0-.193.462l0,3.409a.656.656,0,0,0,.659.652c2.087,0,4.193,1.1,4.193,3.55,0,2.09-1.724,3.549-4.193,3.549a.653.653,0,1,0,0,1.306c3.193,0,5.51-2.042,5.51-4.855,0-2.662-1.963-4.576-4.852-4.827l0-2.112c4.43.251,7.468,3.034,7.468,6.939,0,4.1-3.342,6.958-8.127,6.958a.656.656,0,0,0-.659.653v3.264a.656.656,0,0,0,.659.653c7.64,0,13.184-4.838,13.184-11.5C23.834,4.755,18.412,0,10.649,0Z"/>
        </g>
        <g id="group-3" data-name="group">
          <g id="group-4" data-name="group">
            <g id="group-5" data-name="group">
              <g id="group-6" data-name="group" class="cls-3">
                <rect id="rectangle" class="cls-2" width="23.833" height="32" transform="translate(0 0)"/>
              </g>
            </g>
          </g>
        </g>
      </g>
    </g>
  </g>
</svg>
