<svg xmlns="http://www.w3.org/2000/svg" xmlns:xlink="http://www.w3.org/1999/xlink" viewBox="-1657 -10874 229 32">
  <defs>
    <style>
      .cls-1 {
        clip-path: url(#clip-logo-learning-earnings);
      }

      .cls-2 {
        fill: url(#linear-gradient);
      }

      .cls-3 {
        clip-path: url(#clip-path);
      }

      .cls-4 {
        fill: #fff;
      }
    </style>
    <linearGradient id="linear-gradient" y1="0.55" x2="1" y2="0.55" gradientUnits="objectBoundingBox">
      <stop offset="0" stop-color="#e04c5a"/>
      <stop offset="0.25" stop-color="#fca92f"/>
      <stop offset="0.367" stop-color="#c2af42"/>
      <stop offset="0.512" stop-color="#7eb558"/>
      <stop offset="0.527" stop-color="#7db55d"/>
      <stop offset="0.67" stop-color="#71b784"/>
      <stop offset="0.802" stop-color="#68b9a1"/>
      <stop offset="0.916" stop-color="#63bab2"/>
      <stop offset="1" stop-color="#61bab8"/>
    </linearGradient>
    <clipPath id="clip-path">
      <path id="path" d="M7.476,0a.656.656,0,0,0-.659.653V30.694h-2.1V.653A.656.656,0,0,0,4.063,0H.659A.656.656,0,0,0,0,.653V31.347a.659.659,0,0,0,1.318,0V1.306H3.4V31.347A.656.656,0,0,0,4.063,32H7.476a.656.656,0,0,0,.659-.653V1.306h2.514c6.987,0,11.867,4.217,11.867,10.256,0,5.813-4.575,9.93-11.208,10.184V19.785c5.13-.268,8.787-3.653,8.787-8.247,0-4.866-3.884-8.264-9.445-8.264a.662.662,0,0,0-.466.192.65.65,0,0,0-.193.462l0,3.409a.656.656,0,0,0,.659.652c2.087,0,4.193,1.1,4.193,3.55,0,2.09-1.724,3.549-4.193,3.549a.653.653,0,1,0,0,1.306c3.193,0,5.51-2.042,5.51-4.855,0-2.662-1.963-4.576-4.852-4.827l0-2.112c4.43.251,7.468,3.034,7.468,6.939,0,4.1-3.342,6.958-8.127,6.958a.656.656,0,0,0-.659.653v3.264a.656.656,0,0,0,.659.653c7.64,0,13.184-4.838,13.184-11.5C23.834,4.755,18.412,0,10.649,0Z"/>
    </clipPath>
    <clipPath id="clip-logo-learning-earnings">
      <rect x="-1657" y="-10874" width="229" height="32"/>
    </clipPath>
  </defs>
  <g id="logo-learning-earnings" class="cls-1">
    <g id="powerschool-logo" transform="translate(-1657 -10874)">
      <g id="group">
        <g id="group-2" data-name="group">
          <path id="SVGID_1_" class="cls-2" d="M7.476,0a.656.656,0,0,0-.659.653V30.694h-2.1V.653A.656.656,0,0,0,4.063,0H.659A.656.656,0,0,0,0,.653V31.347a.659.659,0,0,0,1.318,0V1.306H3.4V31.347A.656.656,0,0,0,4.063,32H7.476a.656.656,0,0,0,.659-.653V1.306h2.514c6.987,0,11.867,4.217,11.867,10.256,0,5.813-4.575,9.93-11.208,10.184V19.785c5.13-.268,8.787-3.653,8.787-8.247,0-4.866-3.884-8.264-9.445-8.264a.662.662,0,0,0-.466.192.65.65,0,0,0-.193.462l0,3.409a.656.656,0,0,0,.659.652c2.087,0,4.193,1.1,4.193,3.55,0,2.09-1.724,3.549-4.193,3.549a.653.653,0,1,0,0,1.306c3.193,0,5.51-2.042,5.51-4.855,0-2.662-1.963-4.576-4.852-4.827l0-2.112c4.43.251,7.468,3.034,7.468,6.939,0,4.1-3.342,6.958-8.127,6.958a.656.656,0,0,0-.659.653v3.264a.656.656,0,0,0,.659.653c7.64,0,13.184-4.838,13.184-11.5C23.834,4.755,18.412,0,10.649,0Z"/>
        </g>
        <g id="group-3" data-name="group">
          <g id="group-4" data-name="group">
            <g id="group-5" data-name="group">
              <g id="group-6" data-name="group" class="cls-3">
                <rect id="rectangle" class="cls-2" width="23.833" height="32" transform="translate(0 0)"/>
              </g>
            </g>
          </g>
        </g>
      </g>
    </g>
    <path id="Grading" class="cls-4" d="M1.6,4.937H3.64V18.206h7.629V20H1.6ZM19.893,9.321a4.179,4.179,0,0,1,1.671,1.42,4.9,4.9,0,0,1,.738,1.938,12.68,12.68,0,0,1,.164,2.42H14.417a4.7,4.7,0,0,0,.79,2.681,2.644,2.644,0,0,0,2.287,1.01,2.956,2.956,0,0,0,2.307-.954,3.215,3.215,0,0,0,.7-1.282h1.815a3.822,3.822,0,0,1-.477,1.348,4.8,4.8,0,0,1-.907,1.215,4.3,4.3,0,0,1-2.082,1.107,6.323,6.323,0,0,1-1.507.164A4.625,4.625,0,0,1,13.864,18.9a5.805,5.805,0,0,1-1.425-4.178,6.312,6.312,0,0,1,1.436-4.3,4.736,4.736,0,0,1,3.753-1.651A5.009,5.009,0,0,1,19.893,9.321Zm.677,4.312a4.782,4.782,0,0,0-.523-1.917,2.68,2.68,0,0,0-2.533-1.333,2.807,2.807,0,0,0-2.133.918,3.467,3.467,0,0,0-.913,2.333Zm6.184,4.707a2.167,2.167,0,0,0,1.384.461,4.209,4.209,0,0,0,1.887-.451A2.539,2.539,0,0,0,31.563,15.9V14.412a3.158,3.158,0,0,1-.872.359,7.427,7.427,0,0,1-1.046.205l-1.118.144a4.275,4.275,0,0,0-1.507.42,1.638,1.638,0,0,0-.851,1.538A1.52,1.52,0,0,0,26.753,18.339Zm3.886-4.994a1,1,0,0,0,.851-.533,1.622,1.622,0,0,0,.123-.708,1.5,1.5,0,0,0-.672-1.369,3.6,3.6,0,0,0-1.923-.426,2.443,2.443,0,0,0-2.051.779,2.564,2.564,0,0,0-.441,1.282H24.805a3.171,3.171,0,0,1,1.318-2.825,5.41,5.41,0,0,1,2.938-.795,5.977,5.977,0,0,1,3.148.738,2.5,2.5,0,0,1,1.2,2.3v6.327a.81.81,0,0,0,.118.461.569.569,0,0,0,.5.174q.123,0,.277-.015t.328-.046v1.364a5.14,5.14,0,0,1-.656.154,4.8,4.8,0,0,1-.615.031,1.518,1.518,0,0,1-1.384-.677,2.612,2.612,0,0,1-.318-1.015,4.7,4.7,0,0,1-1.62,1.282,5.011,5.011,0,0,1-2.328.543,3.461,3.461,0,0,1-2.5-.928,3.082,3.082,0,0,1-.969-2.323,2.991,2.991,0,0,1,.954-2.369,4.537,4.537,0,0,1,2.5-1.036Zm5.866-4.327h1.753v1.9a4.191,4.191,0,0,1,1.056-1.348,2.738,2.738,0,0,1,1.938-.795q.051,0,.174.01t.42.041v1.948a2.757,2.757,0,0,0-.3-.041q-.138-.01-.3-.01a2.634,2.634,0,0,0-2.143.9,3.132,3.132,0,0,0-.749,2.066V20H36.505Zm6.963,0h1.753v1.559a4.918,4.918,0,0,1,1.651-1.384,4.4,4.4,0,0,1,1.938-.42,3.2,3.2,0,0,1,3.158,1.63,5.789,5.789,0,0,1,.451,2.553V20H50.543V13.079a3.748,3.748,0,0,0-.3-1.62,1.8,1.8,0,0,0-1.784-1.025,3.633,3.633,0,0,0-1.077.133,2.773,2.773,0,0,0-1.333.9,2.717,2.717,0,0,0-.6,1.123,7.558,7.558,0,0,0-.138,1.656V20H43.468Zm11.7.051h1.876V20H55.168Zm0-4.132h1.876V7.029H55.168Zm4.687,4.081h1.753v1.559a4.918,4.918,0,0,1,1.651-1.384,4.4,4.4,0,0,1,1.938-.42,3.2,3.2,0,0,1,3.158,1.63,5.789,5.789,0,0,1,.451,2.553V20H66.93V13.079a3.748,3.748,0,0,0-.3-1.62,1.8,1.8,0,0,0-1.784-1.025,3.633,3.633,0,0,0-1.077.133,2.773,2.773,0,0,0-1.333.9,2.717,2.717,0,0,0-.6,1.123,7.558,7.558,0,0,0-.138,1.656V20H59.855Zm17.832.441A5.067,5.067,0,0,1,78.753,10.5V9.121h1.7v9.987a7.365,7.365,0,0,1-.615,3.3q-1.148,2.235-4.337,2.235a5.321,5.321,0,0,1-2.984-.795,3.1,3.1,0,0,1-1.354-2.487h1.876a2.088,2.088,0,0,0,.533,1.138,3.375,3.375,0,0,0,4.748-.882,8.431,8.431,0,0,0,.359-3.148,3.621,3.621,0,0,1-1.333,1.251,4.78,4.78,0,0,1-5.183-.856q-1.338-1.266-1.338-4.189a6.344,6.344,0,0,1,1.348-4.307,4.169,4.169,0,0,1,3.256-1.548A4,4,0,0,1,77.687,9.459Zm.226,1.979a2.694,2.694,0,0,0-2.143-.984A2.646,2.646,0,0,0,73.1,12.279a7.157,7.157,0,0,0-.379,2.553,4.532,4.532,0,0,0,.754,2.825,2.433,2.433,0,0,0,2.025.969,2.843,2.843,0,0,0,2.8-1.794,5.788,5.788,0,0,0,.451-2.369A4.578,4.578,0,0,0,77.913,11.438Zm11.639-6.5h10.982V6.783H91.541v4.573h8.316V13.1H91.541v5.106h9.146V20H89.552Zm15.586,13.4a2.167,2.167,0,0,0,1.384.461,4.209,4.209,0,0,0,1.887-.451,2.539,2.539,0,0,0,1.538-2.451V14.412a3.158,3.158,0,0,1-.872.359,7.427,7.427,0,0,1-1.046.205l-1.118.144a4.275,4.275,0,0,0-1.507.42,1.638,1.638,0,0,0-.851,1.538A1.52,1.52,0,0,0,105.138,18.339Zm3.886-4.994a1,1,0,0,0,.851-.533A1.622,1.622,0,0,0,110,12.1a1.5,1.5,0,0,0-.672-1.369,3.6,3.6,0,0,0-1.923-.426,2.443,2.443,0,0,0-2.051.779,2.564,2.564,0,0,0-.441,1.282H103.19a3.171,3.171,0,0,1,1.318-2.825,5.41,5.41,0,0,1,2.938-.795,5.977,5.977,0,0,1,3.148.738,2.5,2.5,0,0,1,1.2,2.3v6.327a.81.81,0,0,0,.118.461.569.569,0,0,0,.5.174q.123,0,.277-.015t.328-.046v1.364a5.14,5.14,0,0,1-.656.154,4.8,4.8,0,0,1-.615.031,1.518,1.518,0,0,1-1.384-.677,2.612,2.612,0,0,1-.318-1.015,4.7,4.7,0,0,1-1.62,1.282,5.011,5.011,0,0,1-2.328.543,3.461,3.461,0,0,1-2.5-.928,3.082,3.082,0,0,1-.969-2.323,2.991,2.991,0,0,1,.954-2.369,4.537,4.537,0,0,1,2.5-1.036Zm5.866-4.327h1.753v1.9A4.191,4.191,0,0,1,117.7,9.567a2.738,2.738,0,0,1,1.938-.795q.051,0,.174.01t.42.041v1.948a2.757,2.757,0,0,0-.3-.041q-.138-.01-.3-.01a2.634,2.634,0,0,0-2.143.9,3.132,3.132,0,0,0-.749,2.066V20H114.89Zm6.963,0h1.753v1.559a4.918,4.918,0,0,1,1.651-1.384,4.4,4.4,0,0,1,1.938-.42,3.2,3.2,0,0,1,3.158,1.63,5.789,5.789,0,0,1,.451,2.553V20h-1.876V13.079a3.748,3.748,0,0,0-.3-1.62,1.8,1.8,0,0,0-1.784-1.025,3.633,3.633,0,0,0-1.077.133,2.773,2.773,0,0,0-1.333.9,2.717,2.717,0,0,0-.6,1.123,7.558,7.558,0,0,0-.138,1.656V20h-1.846Zm11.7.051h1.876V20h-1.876Zm0-4.132h1.876V7.029h-1.876Zm4.687,4.081h1.753v1.559a4.918,4.918,0,0,1,1.651-1.384,4.4,4.4,0,0,1,1.938-.42,3.2,3.2,0,0,1,3.158,1.63,5.789,5.789,0,0,1,.451,2.553V20h-1.876V13.079a3.748,3.748,0,0,0-.3-1.62,1.8,1.8,0,0,0-1.784-1.025,3.633,3.633,0,0,0-1.077.133,2.773,2.773,0,0,0-1.333.9,2.717,2.717,0,0,0-.6,1.123,7.558,7.558,0,0,0-.138,1.656V20H138.24Zm17.832.441a5.067,5.067,0,0,1,1.066,1.046V9.121h1.7v9.987a7.365,7.365,0,0,1-.615,3.3q-1.148,2.235-4.337,2.235a5.321,5.321,0,0,1-2.984-.795,3.1,3.1,0,0,1-1.354-2.487h1.876a2.088,2.088,0,0,0,.533,1.138,3.375,3.375,0,0,0,4.748-.882,8.431,8.431,0,0,0,.359-3.148,3.621,3.621,0,0,1-1.333,1.251,4.78,4.78,0,0,1-5.183-.856q-1.338-1.266-1.338-4.189a6.344,6.344,0,0,1,1.348-4.307,4.169,4.169,0,0,1,3.256-1.548A4,4,0,0,1,156.072,9.459Zm.226,1.979a2.694,2.694,0,0,0-2.143-.984,2.646,2.646,0,0,0-2.666,1.825,7.157,7.157,0,0,0-.379,2.553,4.532,4.532,0,0,0,.754,2.825,2.433,2.433,0,0,0,2.025.969,2.843,2.843,0,0,0,2.8-1.794,5.788,5.788,0,0,0,.451-2.369A4.578,4.578,0,0,0,156.3,11.438Zm6.44,5.117a2.684,2.684,0,0,0,.461,1.415,2.9,2.9,0,0,0,2.42.892,3.569,3.569,0,0,0,1.8-.446,1.481,1.481,0,0,0,.779-1.379,1.179,1.179,0,0,0-.625-1.077A7.437,7.437,0,0,0,166,15.437l-1.466-.369a7.153,7.153,0,0,1-2.071-.779,2.329,2.329,0,0,1-1.189-2.071,3.165,3.165,0,0,1,1.123-2.522,4.479,4.479,0,0,1,3.02-.964,4.192,4.192,0,0,1,3.579,1.456,3.16,3.16,0,0,1,.667,1.989h-1.743a2.135,2.135,0,0,0-.441-1.138,2.812,2.812,0,0,0-2.2-.728,2.635,2.635,0,0,0-1.584.4,1.253,1.253,0,0,0-.538,1.056,1.3,1.3,0,0,0,.708,1.148,4.252,4.252,0,0,0,1.21.451l1.22.3a9.434,9.434,0,0,1,2.666.933,2.471,2.471,0,0,1,1.077,2.225,3.391,3.391,0,0,1-1.113,2.533,4.736,4.736,0,0,1-3.389,1.066,4.547,4.547,0,0,1-3.471-1.113,4.207,4.207,0,0,1-1.092-2.753Z" transform="translate(-1617 -10871)"/>
  </g>
</svg>
