<?xml version="1.0" encoding="utf-8"?>
<!-- Generator: Adobe Illustrator 16.0.0, SVG Export Plug-In . SVG Version: 6.00 Build 0)  -->
<!DOCTYPE svg PUBLIC "-//W3C//DTD SVG 1.1//EN" "http://www.w3.org/Graphics/SVG/1.1/DTD/svg11.dtd">
<svg version="1.1" xmlns="http://www.w3.org/2000/svg" xmlns:xlink="http://www.w3.org/1999/xlink" x="0px" y="0px" width="320px"
	 height="50px" viewBox="0.5 0 320 50" enable-background="new 0.5 0 320 50" xml:space="preserve">
<g id="Layer_1">
	<g id="Layer_1_1_" display="none">
		<rect display="inline" width="320" height="45"/>
	</g>
</g>
<g id="Layer_2_1_">
	
		<linearGradient id="SVGID_1_" gradientUnits="userSpaceOnUse" x1="0" y1="0" x2="45" y2="0">
		<stop  offset="0" style="stop-color:#E04E5B"/>
		<stop  offset="0.2498" style="stop-color:#FAA930"/>
		<stop  offset="0.3831" style="stop-color:#BEB247"/>
		<stop  offset="0.5118" style="stop-color:#7DB457"/>
		<stop  offset="0.6301" style="stop-color:#75B67C"/>
		<stop  offset="0.7426" style="stop-color:#6DB795"/>
		<stop  offset="0.8452" style="stop-color:#67B9A8"/>
		<stop  offset="0.9343" style="stop-color:#63B9B3"/>
		<stop  offset="1" style="stop-color:#61BAB7"/>
	</linearGradient>
	<path fill="url(#SVGID_1_)" d="M17.065,0h-4.914c-0.564,0-1.021,0.458-1.021,1.02v46.937H7.885V1.02C7.885,0.458,7.427,0,6.864,0
		H1.592c-0.563,0-1.02,0.458-1.02,1.02v47.958c0,0.566,0.457,1.021,1.02,1.021c0.562,0,1.02-0.455,1.02-1.021V2.041h3.232v46.938
		c0,0.566,0.458,1.021,1.02,1.021h5.288c0.564,0,1.021-0.455,1.021-1.021V2.041h3.894c10.821,0,18.381,6.591,18.381,16.026
		c0,9.078-7.086,15.511-17.361,15.909v-3.065c7.947-0.418,13.608-5.709,13.608-12.882c0-7.604-6.016-12.914-14.629-12.914
		c-0.271,0-0.53,0.108-0.721,0.3c-0.191,0.19-0.299,0.451-0.299,0.721l0.006,5.325c0,0.564,0.456,1.019,1.02,1.019
		c3.231,0,6.494,1.714,6.494,5.547c0,3.266-2.668,5.545-6.494,5.545c-0.564,0-1.02,0.456-1.02,1.02c0,0.56,0.456,1.016,1.02,1.016
		c4.946,0,8.535-3.186,8.535-7.582c0-4.159-3.041-7.151-7.515-7.543l-0.003-3.301c6.862,0.392,11.567,4.74,11.567,10.844
		c0,6.402-5.177,10.868-12.588,10.868c-0.564,0-1.021,0.455-1.021,1.02v5.103c0,0.563,0.457,1.019,1.021,1.019
		c11.833,0,20.422-7.56,20.422-17.97C37.487,7.43,29.089,0,17.065,0z"/>
	<g>
		<path fill="#012D40" d="M69.055,12c3.496,0,5.144,0.404,6.689,1.58c1.646,1.277,2.654,3.597,2.654,5.917
			c0,2.352-1.042,4.732-2.555,5.908c-1.646,1.279-3.329,1.682-6.553,1.682H65.29v9.782H62.5V12H69.055z M65.29,24.632h3.968
			c2.083,0,3.36-0.236,4.604-1.042c1.076-0.699,1.849-2.279,1.849-4.026c0-1.782-0.773-3.361-1.883-4.067
			c-1.244-0.807-2.521-1.042-4.639-1.042H65.29V24.632z"/>
		<path fill="#012D40" d="M79.544,27.322c0-5.036,3.763-9.507,9.578-9.507c5.849,0,9.614,4.47,9.614,9.541
			c0,5.076-3.765,9.512-9.614,9.512c-5.814,0-9.578-4.438-9.578-9.512V27.322z M81.998,27.389c0,4.103,3.126,7.192,7.125,7.192
			c4.034,0,7.126-3.09,7.126-7.225c0-4.137-3.092-7.221-7.126-7.221c-3.998,0-7.125,3.084-7.125,7.221V27.389z"/>
		<path fill="#012D40" d="M99.679,18.79h2.623l4.975,14.883l4.334-13.27h2.05l4.37,13.27l4.94-14.883h2.589l-6.252,18.079h-2.452
			l-4.271-13.178l-4.2,13.178h-2.419L99.679,18.79z"/>
		<path fill="#012D40" d="M128.824,28.028c0.133,4.537,4,6.721,7.058,6.687c2.791,0,5.042-1.379,6.219-3.73h2.587
			c-0.84,1.949-2.117,3.428-3.664,4.405c-1.514,0.975-3.294,1.479-5.144,1.479c-6.285,0-9.545-5.01-9.545-9.513
			c0-5.306,4.101-9.574,9.512-9.574c2.555,0,4.906,0.908,6.622,2.555c2.083,2.014,3.092,4.798,2.823,7.693L128.824,28.028
			L128.824,28.028z M142.839,26.045c-0.168-3.159-3.227-6.247-6.958-6.146c-3.898,0-6.789,2.852-7.024,6.146H142.839z"/>
		<path fill="#012D40" d="M148.827,18.79h2.355v2.958c1.311-2.689,3.666-3.395,5.785-3.462v2.454h-0.235
			c-3.499,0-5.45,2.183-5.45,6.28v9.849h-2.455V18.79z"/>
		<path fill="#012D40" d="M161.477,29.875c0.389,4,3.318,4.847,4.817,4.847c2.506,0,4.817-1.919,4.817-4.585
			c0-3.383-2.897-4.133-5.696-5.044c-1.951-0.586-6.152-1.817-6.152-6.368c-0.064-4.261,3.483-6.636,7.161-6.636
			c2.994,0,6.442,1.659,6.831,6.213h-2.665c-0.294-1.561-1.074-3.936-4.263-3.936c-2.409,0-4.395,1.626-4.395,4.131
			c-0.032,2.926,2.345,3.643,5.988,4.875c2.276,0.874,5.854,2.145,5.854,6.568c0,3.936-2.958,7.059-7.447,7.059
			c-4.037,0-7.39-2.537-7.553-7.124L161.477,29.875L161.477,29.875z"/>
		<path fill="#012D40" d="M195.292,30.244c-1.176,3.833-4.707,6.624-9.042,6.624c-6.116,0-9.715-4.707-9.715-9.547
			c0-5.338,4.07-9.54,9.546-9.54c4.069,0,7.966,2.42,9.211,6.748h-2.555c-1.146-3.051-4.001-4.463-6.555-4.463
			c-2.115,0-3.597,0.638-5.109,2.05c-1.211,1.17-2.05,3.119-2.05,5.205c0,4.269,3.226,7.226,7.126,7.226
			c3.462-0.033,5.779-2.117,6.553-4.303H195.292L195.292,30.244z"/>
		<path fill="#012D40" d="M198.688,12.089h2.486v6.534v3.125c1.112-2.386,3.9-3.529,6.455-3.462c2.855,0,4.739,0.908,5.98,2.487
			c1.246,1.58,1.715,3.756,1.715,6.347v9.748h-2.451v-9.646c0-1.953-0.405-3.6-1.313-4.77c-0.974-1.176-2.384-1.848-4.536-1.848
			c-1.983,0-3.463,0.706-4.402,1.781c-0.976,1.069-1.447,2.547-1.447,4.196v10.286h-2.486V12.089L198.688,12.089z"/>
		<path fill="#012D40" d="M218.993,27.322c0-5.036,3.763-9.507,9.578-9.507c5.849,0,9.611,4.47,9.611,9.541
			c0,5.076-3.763,9.512-9.611,9.512c-5.815,0-9.578-4.438-9.578-9.512V27.322L218.993,27.322z M221.445,27.389
			c0,4.103,3.127,7.192,7.126,7.192c4.035,0,7.125-3.09,7.125-7.225c0-4.137-3.09-7.221-7.125-7.221
			c-3.999,0-7.126,3.084-7.126,7.221V27.389L221.445,27.389z"/>
		<path fill="#012D40" d="M240.809,27.322c0-5.036,3.764-9.507,9.578-9.507c5.848,0,9.613,4.47,9.613,9.541
			c0,5.076-3.766,9.512-9.613,9.512c-5.814,0-9.578-4.438-9.578-9.512V27.322z M243.262,27.389c0,4.103,3.127,7.192,7.125,7.192
			c4.035,0,7.126-3.09,7.126-7.225c0-4.137-3.091-7.221-7.126-7.221c-3.998,0-7.125,3.084-7.125,7.221V27.389z"/>
		<path fill="#012D40" d="M263.734,12h2.487v24.868h-2.487V12z"/>
	</g>
</g>
</svg>
