<?xml version="1.0" encoding="UTF-8" standalone="no"?>
<!-- Created with Inkscape (http://www.inkscape.org/) -->

<svg
   xmlns:dc="http://purl.org/dc/elements/1.1/"
   xmlns:cc="http://creativecommons.org/ns#"
   xmlns:rdf="http://www.w3.org/1999/02/22-rdf-syntax-ns#"
   xmlns:svg="http://www.w3.org/2000/svg"
   xmlns="http://www.w3.org/2000/svg"
   version="1.1"
   width="268.49533"
   height="373.2579"
   id="svg2">
  <defs
     id="defs4" />
  <metadata
     id="metadata7">
    <rdf:RDF>
      <cc:Work
         rdf:about="">
        <dc:format>image/svg+xml</dc:format>
        <dc:type
           rdf:resource="http://purl.org/dc/dcmitype/StillImage" />
        <dc:title></dc:title>
      </cc:Work>
    </rdf:RDF>
  </metadata>
  <g
     transform="translate(-261.21895,-251.31855)"
     id="layer1">
    <g
       transform="translate(-24.285711,-8.5714286)"
       id="g3015">
      <path
         d="m 365.63214,631.07318 c -2.29992,-1.80913 -2.71492,-1.87313 -3.24184,-0.5 -1.23456,3.21721 -5.15083,1.78312 -8.52564,-3.122 -6.11282,-8.88468 -15.67622,-26.37736 -19.92334,-36.44235 l -4.25442,-10.08228 -4.09345,0.68463 c -2.2514,0.37654 -7.69345,1.09715 -12.09345,1.60134 -4.4,0.5042 -10.37402,1.19012 -13.2756,1.52429 -7.52014,0.86605 -10.447,-1.14698 -10.02902,-6.89776 0.27358,-3.76404 0.63583,-4.28867 3.55462,-5.14796 2.5867,-0.76152 3.25,-1.4868 3.25,-3.55365 0,-4.00374 4.82102,-12.75125 8.62788,-15.65489 3.02317,-2.30588 4.05804,-2.54367 8.89662,-2.04429 l 5.4755,0.56512 -0.003,-7.17774 c -0.002,-6.30549 -4.42303,-28.32159 -6.29479,-31.35017 -0.31906,-0.51625 -3.10781,-2.21754 -6.19721,-3.78063 -15.73868,-7.96307 -22.97089,-20.62324 -21.8961,-38.32977 0.50227,-8.27445 1.11165,-10.57407 5.71363,-21.56133 2.90039,-6.92471 10.37551,-17.02873 15.51141,-20.96657 3.77202,-2.89211 11.7676,-7.83434 20.81765,-12.86779 5.4925,-3.05482 8.98746,-8.72078 7.31849,-11.8646 -0.45056,-0.84871 -3.21569,-7.82371 -6.14474,-15.5 L 323.5,374.64789 l 0,-15.27603 0,-15.27602 -4.71243,-3.72398 c -5.48103,-4.33135 -8.54024,-8.22723 -13.52496,-17.22397 -1.98077,-3.575 -3.71581,-6.65315 -3.85567,-6.84033 -0.13985,-0.18719 -2.95591,0.87209 -6.25792,2.35394 -3.302,1.48185 -6.48635,2.39594 -7.07633,2.03131 C 287.48271,320.32819 287,318.31128 287,316.2108 c 0,-3.75325 0.10375,-3.85786 6.02125,-6.07086 3.31168,-1.23848 6.19846,-2.53853 6.41506,-2.88899 0.21659,-0.35046 -0.0358,-4.45452 -0.56095,-9.12013 -1.30829,-11.62416 -0.95476,-12.5849 5.31622,-14.44718 11.26677,-3.34588 21.53209,-1.17593 30.75777,6.50176 l 5.96603,4.96498 11.29231,-4.18205 c 6.21077,-2.30012 12.41731,-5.19705 13.79231,-6.43762 3.82311,-3.44934 7.97097,-4.73631 10.64777,-3.30374 2.50491,1.34059 1.77653,1.49215 26.85223,-5.58718 37.97404,-10.72078 52.14313,-14.49285 54.49362,-14.50721 1.37851,-0.008 3.14112,-0.41713 3.9169,-0.90823 1.80124,-1.14025 5.08948,0.82492 5.08948,3.04164 0,2.12882 -1.78939,3.55807 -5.50559,4.39751 -1.64693,0.37201 -9.74441,2.64137 -17.99441,5.04302 -8.25,2.40164 -19.275,5.53354 -24.5,6.95977 -5.225,1.42624 -9.93194,3.0225 -10.45988,3.54725 -0.85505,0.84991 1.69362,16.50142 2.88031,17.68811 0.22435,0.22435 3.48403,-2.66927 7.24374,-6.43027 8.66807,-8.67106 19.75548,-15.06091 28.83023,-16.61535 9.33944,-1.59978 9.93567,-1.05507 10.29095,9.40185 l 0.28535,8.39866 -7.53535,11.96839 C 446.39091,314.20754 443,320.17815 443,320.89294 c 0,5.488 20.10037,17.78583 34.13505,20.88454 9.62771,2.1257 13.31108,4.96557 17.20096,13.26186 2.55631,5.45209 3.09365,7.83351 3.07059,13.60855 -0.0338,8.45838 -2.26062,13.35066 -9.61771,21.1297 -6.96104,7.36028 -11.68482,8.86495 -27.78889,8.85165 -6.875,-0.006 -13.99866,-0.33728 -15.83036,-0.73691 -4.35691,-0.95055 -3.8068,0.14263 2.61558,5.19772 3.63324,2.85975 5.4748,5.10793 5.89175,7.19271 0.7306,3.65298 2.59337,4.56581 17.82303,8.734 29.49053,8.07123 62.21738,12.1251 74.61635,9.24273 2.07914,-0.48334 4.31077,-0.45208 5.25,0.0735 2.04637,1.14521 2.12514,5.16207 0.13365,6.81486 -2.11396,1.75443 -1.86539,2.80884 0.75,3.18146 1.81794,0.25901 2.21136,0.89646 2.04876,3.31956 -0.14824,2.2091 -1.66215,4.36981 -5.74795,8.20367 -9.63446,9.04039 -26.11743,17.28164 -48.41054,24.20458 l -10.35973,3.21713 0.58358,6.1868 c 0.32097,3.40274 0.85716,12.0368 1.19155,19.1868 0.55477,11.86244 0.34501,14.31543 -2.39709,28.03272 -1.65277,8.268 -3.97389,18.82731 -5.15803,23.46513 -1.18414,4.63783 -2.37805,11.5981 -2.65313,15.46728 -0.27508,3.86918 -1.6745,12.20987 -3.10983,18.53487 -2.17685,9.59261 -3.94718,14.15376 -10.67364,27.5 -7.18686,14.25974 -8.35875,16.034 -10.77437,16.3126 -2.29698,0.26492 -2.94455,-0.24774 -4.24528,-3.36081 l -1.53485,-3.67342 -2.90593,3.11082 c -4.64194,4.9692 -6.50326,4.19384 -9.33639,-3.88919 -2.66435,-7.60148 -3.07042,-10.08497 -3.67894,-22.5 -0.39252,-8.00801 -0.95943,-11.9317 -1.70416,-11.79468 -8.24747,1.51742 -33.8086,3.43207 -40.63403,3.04368 -4.8125,-0.27385 -8.75,-0.44101 -8.75,-0.37147 0,2.22502 -4.66366,23.22656 -6.54825,29.48826 -3.3859,11.24995 -5.63779,13.13551 -10.8196,9.0595 z m 31.72924,-204.1278 c 2.78767,-3.56198 2.60676,-4.79749 -0.70247,-4.79749 -1.22268,0 -4.68362,-0.68062 -7.69098,-1.51249 -3.00736,-0.83186 -8.16793,-2.15994 -11.46793,-2.95128 -3.3,-0.79134 -11.85,-3.03012 -19,-4.97506 -15.14475,-4.11967 -17.5,-4.34289 -17.5,-1.65857 0,1.48395 1.51943,2.36411 6.90524,4 3.79788,1.15357 7.43848,2.0974 8.09022,2.0974 1.59876,0 27.13193,8.69032 32.34456,11.0086 5.66539,2.51965 6.15282,2.45421 9.02136,-1.21111 z m 30.29187,-1.36641 4.84675,-4.56892 -4.88957,0.56892 c -2.68927,0.31291 -6.17677,0.56892 -7.75,0.56892 -1.57324,0 -2.85875,0.3375 -2.85669,0.75 0.007,1.38681 3.95734,7.25 4.88481,7.25 0.50488,0 3.09899,-2.05601 5.7647,-4.56892 z"
         id="path3029"
         style="fill:#fdc8f8" />
      <path
         d="m 365.63214,631.07318 c -2.29992,-1.80913 -2.71492,-1.87313 -3.24184,-0.5 -0.33235,0.86609 -1.66731,1.57471 -2.96656,1.57471 -1.78161,0 -3.26872,-1.4134 -6.04986,-5.75 -10.88989,-16.98052 -16.98592,-29.01872 -20.88861,-41.25 -0.9652,-3.025 -1.84905,-5.6173 -1.9641,-5.76068 -0.11506,-0.14337 -2.19189,0.47943 -4.61518,1.38401 -6.63572,2.477 -28.37209,2.16579 -31.88437,-0.45651 -3.71629,-2.77461 -3.36638,-6.32079 0.72838,-7.38184 2.82447,-0.7319 3.25,-1.26629 3.25,-4.08144 0,-1.78457 1.09371,-4.84882 2.43544,-6.82334 6.39523,-9.41144 19.56456,-6.54753 19.56456,4.25466 0,4.58844 0.75122,4.78614 4.23726,1.11514 l 2.61144,-2.75 -2.3562,-11.5 c -1.29591,-6.325 -3.28609,-15.64116 -4.42262,-20.70258 -1.13654,-5.06141 -2.4047,-12.91449 -2.81815,-17.45127 L 316.5,506.74535 312.10338,506.4528 c -5.74878,-0.38252 -13.77321,-4.13693 -17.88036,-8.36573 -9.96798,-10.26324 -9.24859,-34.51992 1.56239,-52.68109 6.37408,-10.70769 20.31005,-23.07902 34.7258,-30.827 1.09383,-0.5879 2.77452,-2.64412 3.73485,-4.56938 1.72035,-3.4489 1.70192,-3.62144 -1.25077,-11.71201 -3.81172,-10.44437 -5.88803,-23.00398 -6.67789,-40.3946 l -0.62427,-13.7449 -4.24767,-2.48929 c -5.85462,-3.43104 -11.86904,-10.56022 -15.7125,-18.62478 -1.77813,-3.73096 -3.81042,-6.80889 -4.5162,-6.83985 -0.70579,-0.0309 -3.56384,1.09938 -6.35123,2.51186 -6.34932,3.21745 -8.09054,2.6949 -7.67637,-2.3037 0.29732,-3.58852 0.58282,-3.86061 6.56634,-6.25804 l 6.25551,-2.5064 -0.71355,-7.5 c -1.26709,-13.31828 -1.27933,-13.25907 3.20254,-15.5 3.07117,-1.53559 5.85766,-1.97743 12,-1.9028 9.41237,0.11436 12.91406,1.44565 20.88835,7.94146 l 5.6971,4.64083 11.20728,-4.18156 c 6.164,-2.29986 12.10727,-4.98761 13.20727,-5.97278 3.96768,-3.55347 8.33822,-5.1821 10.62387,-3.95886 2.74075,1.46681 3.7169,1.27395 27.87613,-5.50744 56.58899,-15.88428 59.86573,-16.63049 61.95776,-14.10975 1.83426,2.21015 0.66192,4.20616 -3.13775,5.34233 -3.61121,1.07982 -29.31906,8.46725 -45.32001,13.0232 -11.38977,3.243 -10.72931,1.98863 -7.88187,14.96952 l 1.59783,7.28416 8.14202,-7.78416 c 8.58973,-8.21219 17.416,-13.6056 26.01041,-15.89402 6.76886,-1.80234 9.14076,-1.73812 11.18161,0.30273 2.40072,2.40071 1.46523,12.40983 -1.83325,19.61467 -2.83249,6.18696 -9.67014,16.75969 -13.54402,20.94247 l -2.54691,2.75 2.93709,3.06746 c 7.23794,7.55922 22.7352,15.19118 34.52769,17.0039 11.26213,1.7312 15.65196,5.1985 18.08128,14.28147 0.97907,3.66062 0.89102,6.30795 -0.48953,14.71827 -1.84999,11.27021 -4.36067,16.68325 -10.05836,21.68589 -5.56109,4.8827 -8.98819,5.51732 -27.39538,5.07296 l -16.54631,-0.39943 3.35008,2.53474 c 7.13795,5.40074 9.96762,8.75573 9.96762,11.81811 0,2.23237 0.56639,3.14889 2.25,3.64091 1.2375,0.36165 9.9,2.63138 19.25,5.04384 27.59156,7.11912 32.51657,7.82487 56,8.02485 19.28939,0.16425 21.02827,0.3244 21.34703,1.96604 0.19087,0.98297 -0.58857,3.05271 -1.7321,4.59941 l -2.07914,2.81219 2.7321,0.31469 c 2.35355,0.2711 2.70433,0.73038 2.53164,3.3147 -0.55857,8.35897 -25.31707,23.16508 -53.29953,31.87424 l -11.5,3.57922 0.33112,20.77327 c 0.37372,23.44618 -0.91103,35.26964 -5.86477,53.97304 C 481.33486,558.00753 480,564.86709 480,567.09112 c 0,2.22404 -1.15174,10.00914 -2.55942,17.30023 -2.65769,13.76553 -6.65053,23.99643 -15.80858,40.50654 -4.79015,8.63566 -7.19919,9.47784 -10.04438,3.51141 -1.77187,-3.71564 -1.7932,-3.72575 -3.47662,-1.64682 -2.28596,2.82305 -5.45013,4.41189 -6.9456,3.48763 -2.98349,-1.8439 -5.3897,-11.67089 -6.46193,-26.39063 l -1.07723,-14.78841 -2.56312,0.51473 c -8.87617,1.7825 -22.41742,2.9713 -34.32508,3.01341 -11.33384,0.0401 -13.84261,0.31334 -14.21906,1.54868 -0.2514,0.825 -1.1305,5.325 -1.95356,10 -1.46389,8.31491 -4.18471,18.52915 -6.52078,24.47965 -1.96043,4.99365 -4.30624,5.67561 -8.41249,2.44564 z m -6.28638,-15.42529 c 1.9745,-0.825 5.6029,-1.5 8.0631,-1.5 2.46021,0 4.72854,-0.41331 5.04075,-0.91846 0.3122,-0.50516 1.22278,-4.66766 2.02352,-9.25 2.54584,-14.56902 3.26216,-12.89266 -6.97313,-16.31885 -8.66385,-2.90017 -9,-3.12474 -9,-6.01269 0,-3.76636 0.36394,-3.74079 16,1.12409 11.07823,3.44679 12.92177,3.73203 24,3.71332 18.77397,-0.0317 36.50769,-2.80608 48.1535,-7.53348 5.60395,-2.27482 8.3465,-1.93611 8.3465,1.0308 0,1.38452 -1.89239,2.74365 -7,5.02745 -7.8621,3.51542 -7.45008,2.57715 -7.0865,16.13782 0.33056,12.32893 0.10723,11.96658 6.35581,10.31172 4.66918,-1.23658 9.43508,-1.12986 13.14659,0.29438 1.9743,0.75761 7.38967,-12.45298 9.61326,-23.45117 2.51731,-12.45095 2.5138,-14.15493 -0.0292,-14.15493 -2.80225,0 -2.58081,-3.25755 0.53043,-7.80305 2.78513,-4.06906 6.71356,-15.97376 9.027,-27.3554 0.82074,-4.03785 1.93436,-16.79155 2.47471,-28.34155 1.09748,-23.45844 0.19301,-37.43248 -3.17153,-49 -2.68893,-9.24473 -2.81492,-11.85404 -0.59389,-12.29908 2.23436,-0.44771 7.76002,10.85667 8.49524,17.37953 0.27398,2.43075 0.77712,4.41011 1.11809,4.39857 2.21756,-0.0751 18.24514,-5.46693 26.61995,-8.95528 9.69737,-4.03924 20.5,-9.8482 20.5,-11.02359 0,-0.31749 -0.9,-2.34256 -2,-4.50015 -1.1,-2.15759 -2,-5.40273 -2,-7.21144 0,-3.07483 -0.22151,-3.28856 -3.40826,-3.28856 -5.54084,0 -27.4571,-3.00858 -36.09174,-4.95453 -10.71959,-2.41584 -39.56439,-9.96723 -40.66053,-10.64468 -0.48078,-0.29714 -3.00384,1.3384 -5.6068,3.63452 -6.30503,5.56179 -23.49725,16.96469 -25.57776,16.96469 -2.09686,0 -2.09925,-0.0271 0.82573,9.38953 2.95164,9.50252 4.62366,18.35035 7.95778,42.11047 3.95982,28.219 4.70453,37.72622 3.42706,43.751 -2.17174,10.24233 -11.80607,31.57528 -15.95609,35.331 -2.92093,2.64341 -5.38928,0.81546 -18.03655,-13.35703 -11.03827,-12.36946 -11.07063,-12.42068 -10.46623,-16.5664 0.33344,-2.28721 1.04096,-9.78357 1.57225,-16.65857 0.53129,-6.875 1.43513,-16.1 2.00854,-20.5 2.61394,-20.05799 5.17143,-38.78439 6.48713,-47.5 2.00248,-13.26503 2.42585,-19 1.40263,-19 -0.48244,0 -0.87716,0.41968 -0.87716,0.93261 0,2.42462 -4.16488,2.0504 -8.23076,-0.73953 -6.95457,-4.7721 -17.72085,-9.76654 -26.26924,-12.18619 -4.4,-1.24543 -10.80763,-3.09033 -14.23917,-4.09978 -3.43155,-1.00944 -8.38155,-2.1131 -11,-2.45257 -4.36937,-0.56647 -5.27492,-0.28331 -11.01311,3.44378 -10.56925,6.86498 -22.21696,18.84664 -26.49341,27.25298 -8.55895,16.82461 -9.2099,33.98761 -1.63748,43.17426 2.27681,2.76217 4.5519,4.1095 9.54174,5.6507 3.60366,1.11306 6.773,2.02374 7.043,2.02374 0.26999,0 0.17773,-4.6125 -0.20503,-10.25 -0.47452,-6.98895 -0.29108,-12.15891 0.57658,-16.25 0.69987,-3.3 1.30723,-8.25 1.34969,-11 l 0.0772,-5 3.5,0 c 3.43358,0 3.49807,0.0759 3.39854,4 -0.0558,2.2 -0.88323,7.375 -1.83871,11.5 -1.346,5.81089 -1.59248,9.75215 -1.09442,17.5 0.98699,15.35365 2.43984,27.07471 4.64822,37.5 8.18536,38.64135 13.03371,57.28562 17.29554,66.5098 3.20695,6.94101 11.3398,21.4902 12.01282,21.4902 0.18357,0 1.94926,-0.675 3.92377,-1.5 z m -30.49159,-42.06173 c 0.19479,-0.1723 0.19479,-0.75728 0,-1.29997 -0.1948,-0.54268 -1.47917,-0.0609 -2.85417,1.07066 l -2.5,2.05735 2.5,-0.75738 c 1.375,-0.41656 2.65937,-0.89836 2.85417,-1.07066 z M 396.99373,427.99785 C 398.64718,425.71533 400,423.5265 400,423.13378 c 0,-0.39273 -1.98798,-0.98653 -4.41773,-1.31956 -2.42976,-0.33303 -7.71726,-1.50811 -11.75,-2.61127 -39.27415,-10.74353 -41.44838,-11.22255 -42.9153,-9.45502 -1.68162,2.02624 -0.46482,4.0809 2.75362,4.6497 11.54933,2.04114 40.8511,11.86847 46.88946,15.72594 1.61697,1.03297 3.04963,1.91102 3.18368,1.95122 0.13405,0.0402 1.59655,-1.79442 3.25,-4.07694 z m 29.82299,0.43101 c 2.0258,-1.49546 5.03328,-3.81722 6.68328,-5.15945 l 3,-2.44043 -9.41766,0.66045 c -5.17972,0.36325 -9.59861,0.8414 -9.81976,1.06255 -0.70055,0.70055 3.73074,8.59591 4.82447,8.59591 0.57551,0 2.70387,-1.22356 4.72967,-2.71903 z M 422.5,415.08917 c 6.6,-0.61964 12.14641,-1.26883 12.32536,-1.44264 0.50149,-0.48711 -2.53431,-1.23229 -12.17285,-2.98803 -12.31179,-2.24268 -18.73566,-4.8822 -25.94615,-10.66109 -6.51701,-5.2231 -17.3185,-16.88776 -19.61966,-21.18753 -1.74935,-3.26867 -0.78677,-5.66199 2.27721,-5.66199 1.33467,0 5.51129,1.30396 9.28138,2.89769 19.37714,8.19131 52.22697,15.98693 67.71972,16.07063 5.8485,0.0316 5.86092,0.0254 4.41233,-2.21832 -2.63754,-4.08521 -4.77749,-12.02012 -4.76757,-17.67814 0.0118,-6.71866 3.11743,-13.99313 8.5333,-19.98785 2.05557,-2.27528 3.5618,-4.25121 3.34717,-4.39096 -0.21463,-0.13975 -4.16101,-1.76008 -8.76973,-3.60072 -7.15477,-2.85749 -9.2179,-3.2706 -14.11582,-2.82647 -3.15498,0.28608 -6.6864,1.02861 -7.84759,1.65006 l -2.11126,1.12992 2.04222,2.04222 c 1.5674,1.5674 1.89348,2.78273 1.40243,5.22709 -1.25099,6.22723 -1.59501,6.81102 -3.82638,6.49315 -1.97722,-0.28168 -2.1491,-0.84804 -1.99035,-6.5583 0.15461,-5.56099 -0.0383,-6.25 -1.75,-6.25 -2.70324,0 -2.48566,-3.59511 0.32624,-5.39056 1.2375,-0.79017 4.1625,-1.99677 6.5,-2.68134 2.3375,-0.68457 4.25,-1.58937 4.25,-2.01065 0,-1.97379 -14.48978,-12.45488 -23.55966,-17.04173 l -10.11272,-5.11423 -4.45366,1.97007 c -2.44952,1.08353 -6.57585,4.0622 -9.16962,6.61925 -2.59377,2.55705 -5.05084,4.63512 -5.46015,4.61792 -0.4093,-0.0172 -2.99419,-1.13414 -5.74419,-2.4821 -5.84699,-2.86599 -14.6449,-5.02874 -16.91418,-4.15794 -0.91954,0.35287 -1.58816,1.77713 -1.5914,3.38993 -0.009,4.58345 -1.91127,10.22322 -7.08672,21.01242 -3.73992,7.79657 -4.91131,11.36581 -4.92288,15 -0.0169,5.30459 -1.90699,12.59113 -3.74212,14.42626 -0.92726,0.92726 -1.611,0.81936 -3.04781,-0.48093 -1.01881,-0.922 -2.67446,-1.67637 -3.67924,-1.67637 -1.00478,0 -3.40369,-1.2027 -5.33091,-2.67266 l -3.50403,-2.67266 0.64726,6.96427 c 0.7647,8.22795 3.97297,21.32636 6.42887,26.24718 1.61235,3.23064 2.34348,3.63355 9.74316,5.36922 4.4,1.03207 9.24538,1.636 10.76752,1.34207 1.63922,-0.31655 4.90075,0.32119 8,1.56427 14.23275,5.70862 32.49674,10.07237 38.73248,9.25421 1.375,-0.1804 7.9,-0.83499 14.5,-1.45462 z m -34.05103,-60.40916 c -1.71823,-4.11232 -1.80867,-5.99149 -0.41379,-8.59786 1.4795,-2.76446 0.14402,-2.42109 -6.59401,1.69543 -3.26764,1.99632 -7.34352,4.48028 -9.0575,5.5199 -3.49988,2.12287 -6.38367,1.57205 -6.38367,-1.21932 0,-2.29532 9.24601,-8.72098 19.67608,-13.67421 8.63289,-4.09974 18.01547,-4.99308 21.00828,-2.00027 2.97892,2.97892 0.97186,4.48144 -6.55434,4.9067 -7.9028,0.44655 -9.07836,1.03203 -6.74907,3.36132 2.13004,2.13003 2.16068,9.7917 0.0476,11.90476 -2.33795,2.33795 -3.37544,1.94282 -4.9796,-1.89645 z m 91.09648,34.01333 c 2.9776,-2.97759 3.08751,-4.14667 0.45455,-4.8352 -1.63735,-0.42818 -2,-1.36401 -2,-5.16111 0,-6.31905 2.94239,-17.5898 4.77573,-18.29332 0.81906,-0.3143 2.38713,-0.0107 3.4846,0.67468 1.89555,1.1838 1.96034,1.05928 1.29479,-2.48838 -1.4513,-7.73607 -6.21067,-11.20828 -11.03259,-8.04884 C 468.65665,355.6951 463,364.79102 463,372.28548 c 0,9.66535 5.66682,18.86241 11.62218,18.86241 1.3578,0 3.57327,-1.10455 4.92327,-2.45455 z m -9.21617,-6.32078 c -2.25394,-1.43375 -2.53454,-6.20456 -0.82093,-13.95772 2.16421,-9.79192 3.04485,-11.47119 5.80931,-11.07763 2.42945,0.34586 2.51186,1.48482 1.14407,15.81068 -0.88176,9.23531 -2.43729,11.5752 -6.13245,9.22467 z m 16.57104,-11.97467 c -0.089,-3.34672 -0.18578,-3.48115 -0.90032,-1.25 -1.14477,3.57455 -1.14477,5 0,5 0.55,0 0.95514,-1.6875 0.90032,-3.75 z M 346.72968,350.14746 c 1.43321,5e-4 4.5061,-5.7311 7.88405,-14.70548 2.87808,-7.64636 2.96799,-9.29409 0.50712,-9.29409 -1.3199,0 -3.32432,-2.57492 -6.73516,-8.65215 -5.9511,-10.60331 -17.24765,-22.44387 -24.74172,-25.93321 -5.00988,-2.33267 -13.38245,-3.2197 -17.06218,-1.80765 -1.9688,0.7555 -1.97651,2.83983 -0.0518,14.01202 2.84931,16.53925 10.67026,29.03697 21.18284,33.8498 l 5.54184,2.53713 -0.65822,4.11631 c -0.36203,2.26398 -0.34829,7.53659 0.0305,11.71694 l 0.68875,7.60062 6.09214,-6.72034 c 3.35068,-3.69619 6.6455,-6.72014 7.32182,-6.7199 z m 90.54093,-37.53554 c 5.99718,-8.42359 10.76078,-16.86597 11.80742,-20.92592 0.57256,-2.22096 1.289,-4.88689 1.5921,-5.92428 0.47695,-1.63243 0.16626,-1.79642 -2.30952,-1.21902 -7.52831,1.75572 -17.90696,8.05477 -25.06428,15.21209 -4.01298,4.01298 -7.29633,7.72638 -7.29633,8.25199 0,1.23644 13.9499,9.03398 16.27061,9.09475 0.99161,0.026 3.1914,-1.94927 5,-4.48961 z"
         id="path3027"
         style="fill:#d8b1d6" />
      <path
         d="m 366.03639,630.52506 c -2.62565,-2.20934 -3.37958,-2.4462 -4.11058,-1.29137 -0.49235,0.77781 -0.90208,1.7517 -0.9105,2.1642 -0.008,0.4125 -0.7004,0.75 -1.53774,0.75 -3.41974,0 -20.47117,-29.84768 -25.3129,-44.30898 -1.62211,-4.84494 -3.12957,-8.98925 -3.34991,-9.20959 -0.22033,-0.22033 -3.22807,0.4794 -6.68386,1.55496 -7.93342,2.46916 -25.65788,2.15879 -29.7476,-0.5209 -3.4191,-2.24028 -2.91866,-5.89636 0.8667,-6.33191 2.19751,-0.25285 2.75,-0.82822 2.75,-2.86385 0,-3.63445 4.00293,-10.26989 7.18958,-11.91777 3.85238,-1.99214 8.11564,-1.73631 11.17556,0.67062 2.20958,1.73805 2.63486,2.8679 2.63486,7 0,2.71008 0.4429,4.92742 0.98422,4.92742 0.54133,0 2.4377,-1.29868 4.21417,-2.88595 l 3.22994,-2.88595 -1.30599,-7.86405 c -0.71829,-4.32523 -2.37536,-12.30995 -3.68239,-17.74384 -2.14396,-8.91341 -3.38158,-16.31055 -4.95577,-29.62021 l -0.53223,-4.5 -4.22598,-0.10127 c -5.92748,-0.14205 -14.084,-3.94574 -18.17766,-8.47694 -9.7753,-10.82009 -8.76984,-33.14983 2.33429,-51.84085 4.95486,-8.34026 18.31817,-21.18004 27.17449,-26.10988 12.28383,-6.83775 13.4981,-9.48197 9.5651,-20.82901 -3.39745,-9.80192 -5.35303,-21.11588 -6.10665,-35.32994 -1.0214,-19.26451 -1.09439,-19.55661 -5.44115,-21.77416 C 316.7045,338.44633 310.0927,330.6929 306,322.33596 c -1.925,-3.93068 -3.86537,-7.156 -4.31192,-7.16738 -0.44656,-0.0114 -3.27711,1.14553 -6.29012,2.57091 -6.11334,2.89207 -8.39796,2.63696 -8.39796,-0.93777 0,-2.99467 1.09016,-3.86977 8,-6.42179 l 5.5,-2.03132 -0.47258,-5.35036 c -0.25991,-2.9427 -0.48492,-7.81636 -0.5,-10.83036 -0.0255,-5.09613 0.18272,-5.58646 2.97258,-7 2.03138,-1.02923 5.90585,-1.51554 12,-1.50618 10.2115,0.0157 12.74585,0.98585 21.12867,8.08823 l 5.12867,4.34528 11.43874,-4.23113 c 6.29131,-2.32713 12.86848,-5.43418 14.61594,-6.90457 4.17981,-3.51708 6.91375,-4.29636 9.74918,-2.77888 2.00222,1.07156 4.91919,0.52215 21.13084,-3.97997 10.34438,-2.87273 20.83296,-5.83511 23.30796,-6.58308 15.81434,-4.77921 42.44846,-11.51159 43.67668,-11.04028 0.82975,0.31841 1.32495,1.51234 1.14346,2.75687 -0.35164,2.41127 -1.51998,2.80823 -39.08541,13.27993 -10.3209,2.87704 -19.06979,5.53551 -19.44198,5.9077 -0.74753,0.74752 2.6968,19.50159 3.69491,20.11845 0.34369,0.21242 3.52457,-2.58538 7.06862,-6.21732 7.49702,-7.68296 13.76166,-11.90741 23.251,-15.67892 8.98158,-3.5697 14.73118,-3.33318 15.7885,0.64947 0.89584,3.37443 -1.31038,13.2914 -4.23491,19.03588 -2.79783,5.49563 -11.17036,17.90056 -13.24234,19.62015 -2.57357,2.13587 -1.97949,3.30062 4.25216,8.33683 10.01749,8.09581 23.2392,13.65006 36.41218,15.29624 5.84777,0.73078 11.00856,5.36826 12.86334,11.55898 1.54392,5.15312 -0.2211,21.02653 -3.0488,27.41902 -3.03606,6.86352 -8.58904,12.25885 -14.39011,13.98158 -5.72894,1.70131 -19.828,1.95389 -29.66987,0.53152 -3.55442,-0.51369 -6.70442,-0.67826 -7,-0.36569 -0.29559,0.31256 1.25064,1.9794 3.43606,3.70409 7.61098,6.00644 9.52651,8.3356 9.52651,11.58363 0,3.83509 -0.87965,3.48625 25.04243,9.93097 29.15513,7.24852 55.09724,10.01319 67.32891,7.17529 2.12923,-0.49401 4.49173,-0.66013 5.25,-0.36916 2.03512,0.78096 1.6744,4.73745 -0.62134,6.81507 -2.8707,2.59795 -2.48411,3.5 1.5,3.5 4.58887,0 4.55034,1.83164 -0.14791,7.03204 -8.53614,9.44849 -25.57278,18.48293 -49.85209,26.4363 -11.03722,3.61555 -12.95102,4.54335 -12.67561,6.14509 0.9402,5.46802 -0.0347,44.79271 -1.32142,53.30035 -1.40638,9.29905 -4.43026,22.13459 -6.49241,27.55844 -0.55581,1.46189 -1.0123,4.99118 -1.01443,7.84288 -0.002,2.85169 -1.13397,11.0349 -2.5152,18.1849 -2.26091,11.70363 -3.25214,14.50803 -9.94004,28.12247 -4.08578,8.31736 -8.14196,15.83574 -9.01373,16.70751 -2.18999,2.18999 -4.2228,1.12227 -5.55634,-2.91841 -0.61926,-1.87636 -1.44082,-3.41157 -1.82569,-3.41157 -0.38487,0 -1.915,1.38492 -3.4003,3.07759 -4.01378,4.57418 -5.83794,3.60843 -8.64634,-4.57759 -1.8693,-5.4487 -2.53414,-9.99179 -3,-20.5 -0.47645,-10.7471 -0.88049,-13.43999 -1.9814,-13.2057 -6.4088,1.36389 -31.67785,3.26397 -40.11709,3.01656 l -10.5,-0.30781 -1.30278,6.99847 c -3.20342,17.20857 -8.3275,33.41122 -10.82133,34.2177 -0.61826,0.19993 -2.57104,-0.85399 -4.3395,-2.34205 z m -6.60049,-13.91483 c 2.02408,-0.84572 5.72624,-1.57874 8.22702,-1.62893 4.12598,-0.0828 4.66118,-0.38018 5.7817,-3.21234 1.63845,-4.14122 3.93733,-19.18334 3.2182,-21.05737 -0.31242,-0.81415 -3.17686,-2.20377 -6.36543,-3.08804 -11.17404,-3.09883 -13.85541,-4.93773 -10.84408,-7.43691 0.98746,-0.81952 2.3371,-0.7166 5.19056,0.39582 12.57742,4.9033 21.77414,6.69356 34.35613,6.68789 16.05189,-0.007 33.0522,-2.42672 44.73701,-6.36696 5.08036,-1.71314 9.56444,-2.78738 9.96463,-2.38719 1.46689,1.46689 -1.41424,3.94423 -7.4818,6.43324 L 440,587.50091 l 0,11.38923 c 0,6.26408 0.44334,12.21761 0.98519,13.23008 0.92027,1.71954 1.29918,1.74394 5.75,0.37027 4.56624,-1.40929 9.77015,-1.34353 13.52809,0.17095 2.63912,1.06359 8.01796,-11.4085 10.63456,-24.65868 2.71385,-13.74266 2.72794,-15.83128 0.10216,-15.14462 -1.52146,0.39787 -2,0.0307 -2,-1.5346 0,-1.13169 0.45643,-2.33971 1.01429,-2.68448 3.3586,-2.07573 8.98265,-20.0295 11.43092,-36.49117 1.84251,-12.38867 2.28682,-44.63273 0.80082,-58.11654 -0.6435,-5.8391 -2.10827,-12.99693 -3.25503,-15.9063 -2.07899,-5.27443 -2.02005,-8.73118 0.12625,-7.4047 1.76704,1.09209 6.88101,13.06926 6.89806,16.15558 0.0301,5.44791 0.89113,5.66903 10.59071,2.71977 11.61293,-3.53103 30.167,-11.50755 35.82908,-15.40315 l 4.47936,-3.08189 -2.45723,-3.62093 C 532.77688,445.01359 532,442.4902 532,439.50834 l 0,-4.36045 -5.25,-0.005 c -7.23646,-0.007 -31.65485,-3.66818 -40.75,-6.10909 -4.125,-1.10704 -12.675,-3.29916 -19,-4.87138 -6.325,-1.57221 -12.70807,-3.32124 -14.18461,-3.88673 -2.41718,-0.92574 -3.31369,-0.52502 -9,4.02279 -8.48278,6.78397 -22.19652,15.84941 -23.97681,15.84941 -0.79122,0 -1.97858,-0.54 -2.63858,-1.2 -1.73752,-1.73752 -1.5035,-0.32968 1.29103,7.76681 3.74004,10.83587 6.00256,22.72619 10.00528,52.58111 3.62721,27.05417 3.81241,32.07174 1.50011,40.64127 -2.40301,8.90565 -12.57977,30.04872 -15.22847,31.63841 -1.4217,0.85326 -2.73626,0.057 -7.33646,-4.44404 -3.08242,-3.01596 -8.92019,-9.41215 -12.97282,-14.21377 -6.72382,-7.96646 -7.288,-8.97251 -6.44906,-11.5 0.50565,-1.52338 1.38745,-9.06979 1.95954,-16.76979 0.57209,-7.7 1.48086,-17.15 2.01948,-21 0.53863,-3.85 1.90325,-14.2 3.0325,-23 1.12925,-8.8 2.71146,-19.53721 3.51603,-23.86047 1.62104,-8.71053 1.94674,-19.63953 0.58528,-19.63953 -0.48265,0 -1.43775,0.675 -2.12244,1.5 -1.7345,2.08995 -2.23091,1.96714 -8.6523,-2.14058 -10.17923,-6.51157 -17.3384,-9.34677 -38.3477,-15.18662 -13.2846,-3.69265 -14.38661,-3.7216 -20.66913,-0.54294 -7.33584,3.7116 -24.21523,19.73162 -28.16601,26.73202 -1.64966,2.92304 -4.21869,9.22534 -5.70894,14.00512 -2.25888,7.245 -2.63339,9.97478 -2.25159,16.41175 0.84891,14.31242 7.4872,21.78694 20.79567,23.41535 l 2.5,0.3059 -0.35825,-11.50446 c -0.25652,-8.23731 0.0974,-13.34913 1.24611,-18 0.88241,-3.57255 1.49362,-7.84508 1.35826,-9.49452 -0.20403,-2.48616 0.16204,-3.05687 2.14079,-3.3375 3.68169,-0.52213 4.08551,1.50774 1.8359,9.22866 -3.3038,11.33906 -2.26498,38.41548 2.28691,59.60782 1.00414,4.675 2.98528,13.9 4.40253,20.5 6.11214,28.46363 10.89922,43.93277 17.07346,55.17186 3.96769,7.22245 8.38376,14.32814 8.90471,14.32814 0.20093,0 2.0214,-0.69195 4.04548,-1.53766 z m -36.896,-40.01391 c 6.70371,-1.74515 7.99009,-2.62492 7.12696,-4.8742 -0.5104,-1.33008 -1.14353,-1.19048 -4.29257,0.94652 -2.03162,1.37869 -5.43193,2.78464 -7.55624,3.12434 -4.04119,0.64621 -6.28121,2.35491 -3.08717,2.35491 1.01691,0 4.53097,-0.69821 7.80902,-1.55157 z m -16.02775,-2.43501 c -0.98881,-1.09261 -1.84605,-3.29838 -1.90499,-4.90169 -0.13168,-3.58217 -1.60716,-3.0143 -1.60716,0.61855 0,2.65214 2.48682,6.26972 4.30997,6.26972 0.55001,0 0.19098,-0.89396 -0.79782,-1.98658 z m 91.30332,-146.0289 c 1.80588,-2.75852 3.00961,-5.45852 2.67496,-6 -0.33466,-0.54149 -2.10951,-0.98452 -3.94411,-0.98452 -1.83461,0 -6.19555,-0.84485 -9.69098,-1.87744 -3.49544,-1.03259 -9.28034,-2.59056 -12.85534,-3.46216 -3.575,-0.87159 -11.57102,-2.95174 -17.76893,-4.62256 -6.19791,-1.67081 -12.17005,-3.03784 -13.27144,-3.03784 -1.86884,0 -4.9121,4.38086 -3.80932,5.48364 0.26135,0.26135 5.66405,1.82245 12.006,3.46911 16.05337,4.16818 27.44764,8.17718 34.9468,12.29579 3.51829,1.93228 6.8541,3.56684 7.41291,3.63235 0.55882,0.0655 2.49357,-2.13786 4.29945,-4.89637 z m 28.71625,2.2612 c 11.45035,-7.79802 18.03843,-13.88919 12.71828,-11.75899 -0.9625,0.38538 -6.475,1.1834 -12.25,1.77338 -5.775,0.58998 -10.70159,1.2369 -10.94798,1.4376 -0.52143,0.42475 5.20349,11.29568 5.94798,11.29451 0.275,-4.3e-4 2.31427,-1.23636 4.53172,-2.7465 z m -0.71399,-14.64746 c 6.22476,-0.73355 11.72918,-1.74517 12.23206,-2.24805 0.55243,-0.55243 -2.34395,-1.41509 -7.31773,-2.17952 -23.12164,-3.5536 -31.06726,-7.5316 -44.28356,-22.17069 -12.43732,-13.77625 -12.72984,-18.34736 -0.85241,-13.32032 21.74221,9.20222 55.77753,17.32032 72.6159,17.32032 5.03497,0 6.28229,-1.51497 3.29117,-3.99738 C 459.26689,387.29458 457,378.57336 457,371.82592 c 0,-7.08763 2.52371,-12.82821 8.59401,-19.54842 l 4.094,-4.53233 -9.594,-3.88978 c -8.52689,-3.45713 -10.23636,-3.82545 -15.36909,-3.31135 -3.17629,0.31813 -7.09145,1.25915 -8.70034,2.09114 -3.7423,1.93522 -6.02458,1.92657 -6.02458,-0.0228 0,-1.52194 5.6665,-4.43278 11.5,-5.90747 l 3,-0.75838 -6.39133,-5.82029 c -6.30838,-5.74475 -21.91645,-15.20242 -27.93933,-16.92976 -3.89758,-1.11781 -11.80992,2.5344 -15.77003,7.27919 -4.03207,4.83101 -4.83763,4.99655 -10.73584,2.20625 -2.95682,-1.39879 -7.97946,-3.06611 -11.16142,-3.70513 -6.94703,-1.39517 -7.89362,-0.6139 -8.82941,7.28736 -0.37676,3.18118 -2.69759,9.46492 -6.1392,16.62219 -4.30833,8.95968 -5.53344,12.5542 -5.53344,16.23528 0,7.82194 -2.86593,14.56034 -5.2,12.22627 -0.66,-0.66 -2.02583,-1.2 -3.03518,-1.2 -2.88639,0 -8.701,-4.08803 -8.74951,-6.15143 -0.0342,-1.45545 10.27438,-12.69106 12.07628,-13.16227 3.14587,-0.82267 12.06929,-22.38344 11.85596,-28.6464 -0.0378,-1.10875 -0.4919,-0.90993 -1.62197,0.7101 -0.86324,1.2375 -2.10696,2.25 -2.76382,2.25 -0.65686,0 -2.73947,-2.9863 -4.62803,-6.63622 -5.76494,-11.14165 -17.05548,-23.29678 -25.84588,-27.8251 -4.2617,-2.19538 -13.67591,-3.08278 -17.38814,-1.63902 -2.76629,1.07585 -2.79201,1.16506 -2.11819,7.34471 2.29099,21.01065 9.68651,34.93401 22.15074,41.70268 4.36105,2.36826 4.75428,2.88612 4.60999,6.07103 -0.55586,12.26875 3.64565,42.13496 7.32342,52.05829 l 2.43733,6.57636 9.32924,2.27887 c 5.13109,1.25338 10.23107,1.99265 11.33329,1.64282 1.12828,-0.35811 4.34863,0.29062 7.36926,1.48451 22.00293,8.69656 33.68146,10.24991 56.68294,7.53933 z m -35.73344,-59.9967 c -2.13822,-2.57639 -2.45938,-8.08362 -0.58095,-9.96205 2.51581,-2.5158 4.49666,-0.37468 4.49666,4.86049 0,4.8314 -1.98914,7.42294 -3.91571,5.10156 z M 433,353.303 c 0,-4.94165 0.80059,-7.15511 2.58794,-7.15511 3.22823,0 2.37153,10.19108 -0.90986,10.82332 C 433.33358,357.23027 433,356.50108 433,353.303 z m -65.33333,0.17822 c -1.61885,-1.61884 -0.25632,-3.36469 5.58333,-7.15413 13.33876,-8.6557 24.3552,-12.42968 30,-10.27729 4.72708,1.80246 3.48771,4.09809 -2.21249,4.09809 -6.43453,0 -13.65253,2.75804 -23.51272,8.98435 -8.27684,5.22649 -8.76519,5.44192 -9.85812,4.34898 z M 447.5,410.71753 c 0,-1.6499 -2.24346,-1.68055 -2.87329,-0.0393 -0.44581,1.16179 -0.12964,1.52054 1.1268,1.27857 0.96057,-0.18499 1.74649,-0.74268 1.74649,-1.23931 z m 33.13192,-22.14084 c 3.96103,-4.19992 4.15595,-5.1778 1.11808,-5.60925 -2.08536,-0.29617 -2.2407,-0.79518 -2.12296,-6.81955 0.15235,-7.79507 2.19614,-14.34235 4.62296,-14.80966 1.35352,-0.26064 1.75,0.34455 1.75,2.67124 0,1.65452 -0.41544,4.10092 -0.9232,5.43643 -1.10851,2.9156 -0.18589,11.64831 1.0057,9.51906 0.43382,-0.77521 1.31487,-5.36284 1.95788,-10.19475 1.02656,-7.71413 0.96142,-9.32908 -0.53421,-13.24533 -1.99638,-5.22745 -5.36458,-7.86809 -8.70721,-6.8264 -6.84469,2.13306 -15.34241,12.83937 -16.41774,20.68476 -0.92311,6.73486 1.23467,14.33372 5.37,18.91104 4.64318,5.13945 8.22585,5.21799 12.8807,0.28241 z M 470.2,380.94789 c -1.64889,-1.64889 -1.50308,-6.68241 0.41474,-14.31726 1.74856,-6.96107 3.67726,-9.59074 5.61384,-7.65416 0.85553,0.85553 0.85958,2.72256 0.0161,7.40762 -0.62027,3.44509 -1.14119,7.97345 -1.1576,10.06301 -0.044,5.60506 -1.99031,7.39752 -4.88704,4.50079 z m -34.48178,-65.05 c 7.69791,-8.38007 17.87524,-29.55654 15.39618,-32.0356 -1.19902,-1.19902 -6.8252,0.59336 -14.6144,4.65583 -6.27664,3.27359 -21.51465,17.27029 -21.4807,19.73085 0.0203,1.47185 14.34891,9.7379 17.05639,9.83968 0.86662,0.0326 2.50576,-0.95326 3.64253,-2.19076 z"
         id="path3025"
         style="fill:#a894a7" />
      <path
         d="m 366.5,630.14789 c -3.38363,-3.53175 -4.14794,-3.68461 -5,-1 -1.18392,3.73019 -3.53026,2.02239 -9.22541,-6.71473 -7.78764,-11.9473 -15.63804,-27.68559 -18.32565,-36.73884 -1.23216,-4.15054 -2.73723,-7.54156 -3.34461,-7.53561 -0.60738,0.006 -3.28824,0.6734 -5.95747,1.48321 -3.23943,0.98281 -8.67157,1.41997 -16.33689,1.31475 -9.68855,-0.13299 -11.86831,-0.46013 -13.94372,-2.09264 -3.03964,-2.39099 -2.61075,-4.05737 1.21625,-4.72545 2.52506,-0.44081 2.99212,-1.04611 3.47227,-4.5 1.08617,-7.81319 4.79711,-11.49069 11.59516,-11.49069 5.85758,0 8.79952,3.6282 7.95779,9.8141 -0.55894,4.10768 -0.47987,4.28226 1.65262,3.64853 1.23182,-0.36606 3.55098,-1.93989 5.15371,-3.49738 l 2.91405,-2.83181 -2.62908,-12.81672 c -1.44599,-7.0492 -3.49568,-16.7067 -4.55487,-21.46111 -3.89068,-17.46418 -5.66083,-51.1397 -3.14631,-59.85561 0.71404,-2.475 1.21753,-5.9625 1.11888,-7.75 -0.15774,-2.85796 0.12597,-3.25 2.35195,-3.25 3.06323,0 3.06344,0.005 0.39431,10.2765 -1.8915,7.27874 -2.06143,9.8189 -1.47916,22.11037 0.69522,14.67546 2.60227,29.83212 5.11007,40.61313 0.83159,3.575 2.60615,11.675 3.94347,18 5.20372,24.61148 9.35511,38.05457 15.59501,50.5 3.30912,6.6 6.86632,13.10705 7.90489,14.46011 l 1.88832,2.46012 5.4251,-1.71012 c 2.98381,-0.94056 7.08419,-1.71011 9.11196,-1.71011 4.41897,0 4.62594,-0.41936 7.11838,-14.42305 2.02066,-11.35296 1.88669,-11.65989 -5.95012,-13.63245 -7.63844,-1.92263 -11.01763,-3.51781 -11.3742,-5.36931 -0.42735,-2.21909 -0.47168,-2.22659 16.82571,2.84948 11.3377,3.32716 13.49278,3.64842 23.5,3.50319 16.54205,-0.24005 36.97541,-3.4724 46.55329,-7.36423 3.2048,-1.30223 6.08282,-2.11178 6.3956,-1.79899 1.41323,1.41322 0.1251,2.56193 -5.97392,5.32736 -3.59844,1.63161 -6.81153,3.66732 -7.14019,4.5238 -0.32866,0.85648 -0.19698,6.80581 0.29262,13.22072 1.01005,13.23393 -0.2111,12.06545 11.07407,10.5965 3.02771,-0.39411 6.48559,-0.22099 8.31348,0.41622 l 3.12961,1.09098 3.47972,-7.3273 c 2.16184,-4.55223 4.40236,-11.83149 5.91585,-19.22011 3.09045,-15.0871 3.09,-15.39281 -0.0225,-15.39281 -1.375,0 -2.5,-0.17048 -2.5,-0.37885 0,-0.20836 1.54145,-2.93867 3.42543,-6.06734 2.41048,-4.003 4.36659,-9.57993 6.60179,-18.82194 5.90386,-24.41106 6.31459,-71.63509 0.7653,-87.99001 -1.07457,-3.16698 -1.77054,-6.30779 -1.54662,-6.97957 1.00146,-3.00437 7.7541,12.42072 7.7541,17.71273 0,3.36484 2.1845,3.30297 13.54053,-0.3835 C 516.53779,463.72164 537,453.73181 537,450.95137 c 0,-0.54341 -0.9,-2.13219 -2,-3.53061 -1.27292,-1.61825 -2,-4.05678 -2,-6.70773 0,-2.29083 -0.54,-4.70514 -1.2,-5.36514 -0.66765,-0.66765 -3.88391,-1.20204 -7.25,-1.20461 -8.50741,-0.006 -31.36149,-3.50871 -42.05,-6.44389 -12.1492,-3.33629 -28.49652,-7.67085 -31.22051,-8.27825 -1.60405,-0.35767 -3.53372,0.66079 -6.95065,3.66849 -2.60157,2.29 -9.13225,7.14153 -14.51262,10.7812 -9.58582,6.48452 -9.82316,6.58076 -11.80548,4.78678 -3.10434,-2.80939 -3.48456,-1.14369 -1.18876,5.20772 3.41381,9.44439 5.10111,16.10486 7.16204,28.27158 3.58295,21.1519 7.35181,52.53671 7.14641,59.51098 -0.13696,4.65015 -3.89416,16.03371 -8.57243,25.97266 -5.3229,11.30847 -7.45125,14.01338 -10.31197,13.10543 -1.1714,-0.37179 -7.14075,-6.34664 -13.26522,-13.27745 -8.71879,-9.86668 -11.01102,-13.05712 -10.56224,-14.70105 0.31524,-1.15478 1.05495,-7.49959 1.6438,-14.09959 1.58418,-17.75587 6.84194,-59.46561 9.013,-71.5 2.16232,-11.98588 2.44657,-19.55939 0.77293,-20.59376 -0.63344,-0.39148 -1.69555,0.032 -2.36025,0.94098 -1.59311,2.17872 -3.34787,2.07642 -6.98805,-0.40739 -5.34187,-3.64492 -18.86731,-10.19773 -24,-11.62753 -29.21184,-8.13747 -30.41248,-8.37571 -34.21147,-6.78839 -9.36808,3.91424 -25.53577,18.61647 -31.25334,28.42052 -10.26309,17.59834 -11.37509,37.545 -2.65544,47.63214 2.34431,2.71197 4.89431,4.19529 10.12677,5.8907 7.39931,2.3975 8.4039,4.08445 2.35505,3.95466 -5.45517,-0.11704 -14.52711,-4.95771 -17.37381,-9.27043 -3.62782,-5.49612 -5.84161,-15.42026 -5.16444,-23.1515 0.70751,-8.07758 4.49945,-19.30061 9.05427,-26.79799 5.82454,-9.58738 21.14776,-23.38902 32.18706,-28.99093 2.86512,-1.45391 4.60684,-3.26497 5.90187,-6.13685 1.70871,-3.78923 1.72631,-4.33655 0.25156,-7.82423 -4.59885,-10.87596 -7.10234,-25.00516 -8.2448,-46.53199 l -0.67836,-12.78198 -3.8709,-1.97479 c -2.129,-1.08613 -5.42701,-3.5309 -7.32893,-5.43281 -3.58206,-3.58206 -9.81824,-13.47725 -11.11997,-17.6445 -1.1555,-3.69908 -2.39606,-3.89368 -8.26778,-1.29692 -6.44275,2.84929 -7.78021,2.96845 -8.62446,0.76837 -0.93941,-2.44805 1.77618,-4.81267 7.92867,-6.90397 6.17443,-2.09875 5.92723,-1.33704 4.63151,-14.27141 -0.91894,-9.17316 -0.0311,-10.64624 7.33827,-12.17612 10.10513,-2.09782 18.63723,0.29148 27.21761,7.62193 3.93045,3.35788 5.97111,4.45516 7.58861,4.08045 6.88316,-1.59458 22.52306,-8.2108 25.41823,-10.75279 3.49246,-3.06643 6.14653,-3.63806 9.22984,-1.98792 1.72062,0.92084 10.57931,-1.26669 42.56438,-10.51072 15.14689,-4.37761 44.3121,-12.45483 44.97189,-12.45483 0.36353,0 0.51856,1.22936 0.34453,2.73191 -0.27634,2.38591 -0.94967,2.87499 -5.31642,3.86167 -2.75,0.62138 -10.175,2.74101 -16.5,4.71029 -6.325,1.96929 -14.425,4.30305 -18,5.18614 -10.29344,2.54268 -19,5.58727 -19,6.64411 0,0.53409 0.69577,4.2099 1.54616,8.16848 0.85039,3.95857 1.75897,8.2099 2.01905,9.4474 0.26009,1.2375 0.89255,2.25 1.40545,2.25 0.51291,0 4.21684,-3.2733 8.23095,-7.274 8.30101,-8.27326 19.61256,-14.76675 29.09807,-16.70396 7.75172,-1.58312 9.13782,-0.52014 8.4076,6.44769 -0.28994,2.76665 -1.18872,6.9389 -1.99729,9.27167 -1.99,5.74125 -8.98737,17.15608 -14.02522,22.87938 l -4.12603,4.68741 5.77457,5.2478 c 7.59404,6.9013 20.69894,13.26515 31.16431,15.13365 9.46168,1.6893 14.07987,3.77523 16.92136,7.64298 1.83397,2.49634 2.06789,4.15834 1.97045,14 -0.12152,12.27313 -1.30097,16.77156 -6.30388,24.04304 -5.10792,7.42411 -7.67547,8.13127 -29.33555,8.07969 -10.3125,-0.0246 -18.75,0.24656 -18.75,0.60249 0,0.35592 2.70025,2.76857 6.00056,5.36144 6.23632,4.89952 8.49559,7.84539 7.66896,9.99954 -0.26646,0.6944 -0.18861,1.71788 0.173,2.27441 0.80127,1.23315 7.95457,3.60614 18.65748,6.1893 4.4,1.06195 10.7,2.65664 14,3.54377 17.20708,4.6257 45.77729,7.11829 59.7536,5.21317 7.14359,-0.97375 8.36394,0.65479 4.19322,5.59576 l -2.75582,3.26477 4.1545,0.3075 c 5.32172,0.39389 5.30317,1.80017 -0.0955,7.23818 -9.82528,9.89687 -27.54929,19.08688 -51.03237,26.46058 l -11.78237,3.69967 0.61297,7.14703 c 0.33714,3.93087 0.14529,17.06767 -0.42633,29.1929 -0.94903,20.13085 -1.35038,23.25797 -4.62045,36 -1.96962,7.67477 -3.76526,16.87914 -3.99029,20.45414 -0.22503,3.575 -1.54689,11.9 -2.93747,18.5 -2.19303,10.40869 -3.55904,14.05538 -10.301,27.49952 -8.6249,17.19892 -10.21303,18.68931 -12.86155,12.07001 -0.89556,-2.23824 -1.9988,-4.06953 -2.45163,-4.06953 -0.45282,0 -1.80238,1.37495 -2.999,3.05545 -5.55589,7.80254 -9.50051,-0.35953 -11.14239,-23.05545 -0.57694,-7.975 -1.16139,-14.62685 -1.29878,-14.7819 -0.13739,-0.15504 -5.53593,0.41105 -11.99676,1.25799 -11.80887,1.54801 -36.53933,2.24963 -38.41584,1.08988 -1.52183,-0.94054 -2.73701,2.14154 -4.11383,10.43403 -1.29922,7.82509 -6.51148,27.22204 -8.12864,30.25 -1.28071,2.39799 -2.03844,2.22142 -5.36427,-1.25 z m -41.6815,-53.53874 c 4.37701,-1.29983 5.1815,-1.91172 5.1815,-3.94098 0,-3.28498 -1.37785,-3.86523 -3.53036,-1.48674 -1.84266,2.03612 -10.11263,4.96646 -14.01628,4.96646 -6.04157,0 -9.67666,-7.67797 -5.44723,-11.50555 2.26635,-2.05102 2.09683,-2.85493 -0.39999,-1.89681 -0.92406,0.3546 -2.37509,1.98866 -3.2245,3.63125 -4.66614,9.02332 6.90673,14.54735 21.43686,10.23237 z M 313,571.08887 c 0,-0.58246 -0.45,-0.7809 -1,-0.44098 -1.28139,0.79194 -1.28139,1.5 0,1.5 0.55,0 1,-0.47656 1,-1.05902 z M 397.85052,429.08144 C 399.58274,426.2949 401,423.42099 401,422.69499 c 0,-0.8116 -1.8295,-1.58479 -4.75,-2.00747 -4.35333,-0.63005 -11.6536,-2.41569 -24.75,-6.05384 -10.21723,-2.83832 -28.50853,-7.48579 -29.46224,-7.48579 -1.26589,0 -4.28592,5.78946 -3.59944,6.90021 0.28603,0.4628 1.99193,1.12519 3.79087,1.47196 11.84695,2.28367 31.38289,8.69267 40.27081,13.21133 5.5,2.79622 10.49524,5.15884 11.10052,5.25027 0.60529,0.0914 2.51779,-2.11367 4.25,-4.90022 z m 28.9693,1.8893 C 434.6888,425.62887 443,418.90653 443,417.88374 c 0,-0.53899 -0.99862,-0.66855 -2.25,-0.29192 -1.76746,0.53195 -21.57483,3.31512 -25,3.51279 -0.4125,0.0238 -0.75,0.41337 -0.75,0.8657 0,1.1276 6.02964,12.17758 6.64493,12.17758 0.2721,0 2.6008,-1.42972 5.17489,-3.17715 z M 428.5,416.05666 c 3.3,-0.51775 7.8,-1.35864 10,-1.86864 2.2,-0.51 5.2375,-1.18624 6.75,-1.50276 1.5125,-0.31651 2.75,-1.21534 2.75,-1.99741 0,-2.18488 -2.15353,-3.017 -3.15886,-1.22057 -1.57965,2.82268 -6.87964,2.87111 -20.29684,0.18548 -14.88819,-2.98008 -19.66743,-4.85489 -26.87579,-10.5429 -6.0548,-4.77775 -16.99222,-16.75349 -19.1998,-21.02247 -1.39009,-2.68815 -1.38715,-3.03357 0.0305,-3.57758 0.86305,-0.33118 4.81629,0.79287 8.78497,2.4979 13.21576,5.67775 41.4208,13.66212 53.21579,15.06449 10.39141,1.23549 23.84356,1.42364 23.28538,0.32569 -7.3836,-14.52384 -8.38268,-21.08129 -4.50302,-29.55558 1.39615,-3.04959 4.44457,-7.6126 6.77426,-10.14002 2.32969,-2.52742 3.95537,-4.87574 3.61262,-5.21849 -0.87333,-0.87333 -11.29449,-5.22419 -16.57004,-6.91803 -5.19337,-1.66746 -14.36697,-0.59899 -18.58476,2.16461 -2.79696,1.83264 -5.84092,0.67954 -3.30682,-1.25268 1.82314,-1.39012 10.02192,-4.32981 12.07581,-4.32981 2.9469,0 1.92701,-1.64615 -4.53343,-7.31717 -7.16762,-6.29178 -19.25015,-13.71272 -26.54514,-16.30367 -4.79872,-1.70435 -5.15968,-1.70328 -8.99597,0.0266 -2.19816,0.99123 -5.9381,3.78043 -8.31098,6.19822 -2.37288,2.41779 -4.96328,4.39598 -5.75645,4.39598 -0.79316,0 -3.88697,-1.19615 -6.87512,-2.65812 -3.94954,-1.93233 -7.09642,-2.68321 -11.52512,-2.75 l -6.09212,-0.0919 -1.2303,6.58107 c -0.71094,3.80293 -3.44982,11.19041 -6.48806,17.5 -3.84901,7.99332 -5.36656,12.3926 -5.66379,16.41893 -0.22331,3.025 -0.87932,6.7375 -1.4578,8.25 -1.06547,2.78576 -3.1588,3.61131 -4.33429,1.70932 -0.35375,-0.57237 -1.5053,-0.76705 -2.55902,-0.43261 -1.32733,0.42128 -1.91584,0.13021 -1.91584,-0.94753 0,-1.00989 -0.77494,-1.47203 -2.20901,-1.31739 -3.9094,0.42157 -3.19521,-2.92522 1.88855,-8.84994 2.65125,-3.08983 5.7683,-5.98579 6.92677,-6.43548 3.98964,-1.54866 14.09082,-28.80945 11.31149,-30.52717 -0.4496,-0.27787 -1.30586,0.40739 -1.90281,1.52279 -1.75035,3.27057 -3.32603,2.38487 -6.47374,-3.63892 -6.51267,-12.46334 -19.63767,-26.00418 -28.28371,-29.17981 -3.9123,-1.43696 -15.22057,-1.91218 -17.1485,-0.72065 -2.99991,1.85405 0.24639,21.57196 5.3054,32.22479 4.27477,9.00146 10.18381,15.53555 16.08885,17.79071 2.47319,0.94452 4.49671,2.20278 4.49671,2.79613 0,26.00869 5.29661,57.67368 10.28776,61.5038 1.79246,1.3755 16.52151,4.67216 21.71224,4.85964 2.475,0.0894 9.89568,2.04393 16.4904,4.34342 6.59473,2.29949 14.46973,4.56029 17.5,5.02402 6.10526,0.93428 22.23796,0.38832 31.5096,-1.06635 z m -39.05903,-62.28794 c -0.95087,-3.78858 -0.11917,-8.12083 1.55903,-8.12083 2.15741,0 3.73392,6.91076 2.04166,8.94981 -1.81151,2.18273 -2.90817,1.93025 -3.60069,-0.82898 z M 433,354.84621 c 0,-3.73505 1.38101,-7.69832 2.6825,-7.69832 2.25223,0 1.36585,8.37873 -0.9325,8.8147 -1.01394,0.19233 -1.75,-0.27723 -1.75,-1.11638 z m -65,-3.05674 c 0,-1.59799 8.05016,-7.11388 17.09538,-11.71358 5.1431,-2.61539 7.66552,-3.27375 12.80607,-3.34245 8.52344,-0.11391 9.38408,1.95281 1.20835,2.90171 -6.55056,0.76027 -15.00812,4.37082 -23.26718,9.93279 C 370.192,353.37329 368,353.9942 368,351.78947 z m 47,49.81858 c 0,-1.06913 -3.99194,-8.33714 -4.88093,-8.88657 -0.50022,-0.30916 -1.16753,0.11031 -1.4829,0.93215 -1.06173,2.76682 -4.51906,1.71031 -5.99972,-1.83342 -1.35393,-3.24039 -4.88833,-5.60079 -10.63645,-7.10337 -1.86413,-0.48729 -0.73695,0.98848 4.43165,5.80215 C 403.93785,397.50974 415,404.11608 415,401.60805 z m 62.4367,-9.86926 c 6.45767,-2.69819 11.5156,-15.22796 11.54768,-28.6065 0.025,-10.41618 -4.45482,-16.33806 -11.09812,-14.6707 -3.19966,0.80306 -10.18048,7.62584 -13.36858,13.06592 -4.91267,8.38284 -3.22527,21.34432 3.62832,27.87038 4.44483,4.23241 4.64373,4.28252 9.2907,2.3409 z m 2.7633,-9.7909 c -1.61343,-1.61343 -1.51117,-4.65018 0.41474,-12.31726 1.71642,-6.8331 3.88488,-9.95028 4.96459,-7.13661 0.33165,0.86426 0.12509,3.05245 -0.45901,4.86263 -0.5841,1.81018 -1.00015,5.5754 -0.92455,8.36715 0.18462,6.81778 -1.21771,9.00215 -3.99577,6.22409 z m -9.53333,-1.46667 c -2.10294,-2.10294 1.40891,-21.33333 3.89589,-21.33333 2.20476,0 2.58388,1.74693 1.35137,6.22693 -0.64657,2.35019 -1.11626,6.0547 -1.04376,8.23224 0.0725,2.17755 -0.12395,4.76505 -0.43656,5.75 -0.56942,1.7941 -2.51607,2.37503 -3.76694,1.12416 z M 433.9061,318.19814 c 2.37716,-1.27222 11.5928,-14.71092 14.59344,-21.28087 1.32366,-2.89816 2.71027,-7.18188 3.08136,-9.51938 0.66815,-4.20866 0.64542,-4.25 -2.3373,-4.25 -1.6566,0 -6.72552,1.85867 -11.26426,4.13038 -6.30806,3.15729 -10.10487,6.00051 -16.1158,12.06826 -4.32495,4.36583 -7.85501,8.46966 -7.84459,9.11962 0.0104,0.64995 3.94792,3.29938 8.75,5.88762 10.13565,5.46293 8.90597,5.03846 11.13715,3.84437 z"
         id="path3023"
         style="fill:#8d758b" />
      <path
         d="m 366.03331,629.39789 c -1.73838,-2.0625 -3.37326,-3.25131 -3.63306,-2.64181 -0.25981,0.6095 -1.12552,1.9595 -1.92381,3 -1.4051,1.83143 -1.51408,1.81202 -3.41441,-0.60819 -3.37554,-4.299 -14.13951,-22.885 -17.58099,-30.35687 -1.80954,-3.92872 -4.28952,-10.44729 -5.51108,-14.48571 -2.47371,-8.17802 -1.33365,-7.72675 -11.91721,-4.71715 -7.74397,2.20211 -24.67956,1.37737 -27.39083,-1.33391 -2.28854,-2.28854 -1.44873,-4.10636 1.8971,-4.10636 2.08649,0 2.44152,-0.47197 2.44472,-3.25 0.008,-7.13953 6.4731,-13.42114 12.76235,-12.40053 5.0069,0.81251 6.49429,3.03372 5.96004,8.90053 -0.40389,4.43527 -0.27767,4.75 1.90489,4.75 1.28558,0 3.79196,-1.29962 5.56972,-2.88805 l 3.23229,-2.88806 -1.2585,-8.86194 c -0.69218,-4.87407 -2.12447,-12.01195 -3.18286,-15.86195 -3.16497,-11.51287 -4.76214,-22.93839 -6.03894,-43.20019 -1.07401,-17.04366 -1.02592,-20.02009 0.42815,-26.5 0.90092,-4.0149 1.52129,-8.18257 1.37858,-9.2615 -0.16434,-1.24248 0.42638,-2.10279 1.61122,-2.34656 2.15788,-0.44397 2.06312,1.07453 -0.86167,13.80825 -1.5375,6.69385 -1.5952,9.16605 -0.53678,23 1.68659,22.04461 3.22752,30.3265 13.58234,73 3.93015,16.1966 5.2982,20.1186 10.9877,31.5 3.57424,7.15 7.3328,14.08402 8.35236,15.40892 1.83306,2.38207 1.89994,2.39044 5.99978,0.75 2.28034,-0.9124 6.3966,-1.65892 9.14726,-1.65892 4.22465,0 5.15586,-0.34937 5.99723,-2.25 1.69974,-3.83967 4.71387,-22.53137 3.85842,-23.92745 -0.44571,-0.7274 -4.54245,-2.4677 -9.10385,-3.86732 -5.42609,-1.66495 -8.29347,-3.0479 -8.29347,-4 0,-1.6539 -0.26541,-1.70112 12.5,2.22393 12.96695,3.98701 22.99672,5.02967 36.5,3.79441 19.01264,-1.73926 29.94312,-4.01011 40.75,-8.46599 1.06985,-0.44112 1.75,-0.27506 1.75,0.42725 0,0.63185 -2.96082,2.47725 -6.57959,4.10088 l -6.57959,2.95206 0.32959,12.95898 c 0.18127,7.12744 0.77959,13.38958 1.32959,13.91587 0.63901,0.61147 3.26976,0.3947 7.28766,-0.6005 5.34287,-1.32337 6.88755,-1.3594 10.28003,-0.23978 2.41566,0.79724 4.33197,0.95428 4.85227,0.39763 2.75831,-2.95098 7.51779,-17.07633 9.66712,-28.6904 C 473.91419,577.70634 475,571.63477 475,571.38507 c 0,-0.2497 -1.125,-0.17164 -2.5,0.17346 -2.8175,0.70715 -3.50028,-1.33559 -1.1096,-3.31968 3.46154,-2.87282 8.63697,-19.72698 11.0825,-36.09096 1.76532,-11.81249 2.22019,-46.29141 0.77836,-59 -0.59279,-5.225 -1.82416,-11.68017 -2.73638,-14.34482 -0.91222,-2.66465 -1.41255,-5.09084 -1.11186,-5.39153 0.87608,-0.87608 4.69938,8.79467 5.5376,14.00692 0.42196,2.62382 1.05148,5.05486 1.39893,5.40231 1.93024,1.93024 32.87429,-9.60154 44.84037,-16.71046 3.75104,-2.22845 6.82008,-4.27486 6.82008,-4.54757 0,-0.27271 -0.94216,-1.77017 -2.09368,-3.32769 -1.1643,-1.5748 -2.38502,-5.21898 -2.75,-8.20951 l -0.65632,-5.37765 -4,-0.25593 c -8.99926,-0.57578 -29.50936,-3.43641 -37,-5.16055 -11.62089,-2.6748 -39.62965,-10.04562 -40.70994,-10.71327 -0.50794,-0.31393 -3.031,1.20092 -5.6068,3.36633 -6.58919,5.53939 -23.71094,17.26342 -25.21144,17.26342 -0.68823,0 -1.85489,-0.7875 -2.59257,-1.75 -1.13236,-1.47746 -1.48697,-1.52819 -2.27697,-0.32573 -0.62715,0.95459 -0.27068,3.09805 1.08098,6.5 5.12446,12.89749 10.26811,41.82385 13.80159,77.61609 0.92878,9.4081 0.82566,11.38063 -0.96005,18.36266 -2.0595,8.0526 -12.64781,30.69479 -14.64891,31.32545 -1.73652,0.54728 -6.55988,-3.95954 -16.46208,-15.38172 l -9.06872,-10.46078 1.02289,-8.69298 c 0.56259,-4.78115 1.29131,-12.29299 1.61937,-16.69299 0.78982,-10.59325 5.07134,-44.08091 7.47943,-58.5 1.6404,-9.82234 2.44963,-18.89453 2.11847,-23.75 -0.12031,-1.76403 -3.75238,-1.55984 -4.44688,0.25 -0.8046,2.09676 -2.26956,1.87738 -5.95509,-0.89181 -5.31057,-3.99018 -18.71168,-10.20224 -27.18328,-12.60074 -4.4,-1.24574 -10.80763,-3.09089 -14.23917,-4.10034 -3.43155,-1.00944 -8.38155,-2.10796 -11,-2.44114 -4.25264,-0.54113 -5.39204,-0.22202 -10.6742,2.98954 -9.58665,5.82869 -22.08856,17.85645 -26.79529,25.77906 -10.62641,17.88689 -11.63248,39.85763 -2.25455,49.23555 2.28626,2.28627 5.57006,4.1041 9.70897,5.37468 6.38403,1.95979 7.65987,3.87406 2.25424,3.38226 -4.6789,-0.42568 -13.27174,-5.05395 -15.8826,-8.55467 -10.35844,-13.8889 -6.28502,-40.09806 9.07057,-58.36176 5.50374,-6.54606 17.10194,-15.91462 24.47996,-19.77394 3.93366,-2.05763 6.14905,-3.9782 7.24858,-6.28393 2.07522,-4.35179 2.01696,-5.30714 -0.8009,-13.13177 -3.35927,-9.32807 -5.5655,-23.2797 -6.29526,-39.80956 -0.34451,-7.80372 -0.89503,-14.57532 -1.22337,-15.04802 -0.32834,-0.47269 -2.70642,-2.07786 -5.28463,-3.56704 -2.57821,-1.48918 -6.23224,-4.61757 -8.12006,-6.95198 -3.65283,-4.51694 -9.68657,-15.41014 -9.69015,-17.49439 -0.003,-1.86882 -2.31532,-1.52853 -8.65045,1.27317 -5.82935,2.57802 -7.84989,2.27789 -7.19547,-1.06881 0.21386,-1.09368 2.51459,-2.56769 6.08794,-3.90038 3.15929,-1.17827 6.15515,-2.57243 6.65747,-3.09814 0.55155,-0.57723 0.49052,-4.56515 -0.15407,-10.06793 -0.58706,-5.01165 -0.81139,-9.7792 -0.49851,-10.59455 1.52691,-3.97906 19.6717,-4.95418 26.49823,-1.42404 1.77724,0.91904 5.50117,3.68692 8.27541,6.15083 2.77424,2.46392 5.22305,4.47985 5.44181,4.47985 2.64572,0 25.79351,-9.89736 28.30493,-12.10242 3.59945,-3.16036 5.26933,-3.51483 8.13303,-1.72642 1.52596,0.95298 4.92324,0.31163 18.23643,-3.44273 8.99861,-2.53764 24.68611,-6.91424 34.86111,-9.72579 10.175,-2.81155 21.84269,-6.18932 25.9282,-7.50616 4.08551,-1.31684 7.79801,-2.16569 8.25,-1.88635 1.59803,0.98764 0.79236,3.44483 -1.4282,4.35581 -2.86924,1.1771 -30.09946,9.07148 -43.50577,12.61286 -14.59386,3.85509 -14.0236,3.12527 -11.75989,15.05018 1.0306,5.42906 2.22895,10.28424 2.66301,10.78929 0.44178,0.51404 4.47777,-2.6229 9.16817,-7.12586 9.71753,-9.32922 22.12394,-16.24387 30.60771,-17.05905 4.56015,-0.43818 5.10585,-0.26365 6.11742,1.95651 2.78821,6.11946 -6.98134,27.96337 -16.42926,36.73444 -1.43626,1.33338 -2.61139,3.22545 -2.61139,4.2046 0,2.57466 11.29673,11.38974 19.8161,15.46293 6.98769,3.34088 15.07341,5.73323 23.63449,6.9928 5.2617,0.77415 11.10441,6.52636 12.11824,11.93055 0.43975,2.34406 0.1098,8.09793 -0.82185,14.33192 -1.36821,9.15523 -2.02387,11.09542 -5.41851,16.03422 -5.72563,8.33012 -8.90584,9.58553 -24.32847,9.60383 -6.875,0.008 -15.3125,-0.31576 -18.75,-0.71983 -7.92723,-0.93182 -8.16479,0.36466 -1.05897,5.77918 7.18811,5.47723 8.80897,7.41322 8.80897,10.52161 0,1.47894 0.5625,3.14359 1.25,3.69922 1.93685,1.56534 13.44356,4.74448 37.25,10.29165 13.87441,3.2329 32.9092,5.22252 44.92953,4.69629 6.08876,-0.26656 11.85418,-0.81678 12.81204,-1.22272 2.73692,-1.15989 3.23888,1.98596 0.8518,5.33832 -2.98664,4.19434 -2.63854,5.13112 1.90663,5.13112 2.2,0 4,0.4083 4,0.90733 0,1.48218 -9.52914,9.60173 -17.19802,14.65401 -8.32991,5.48777 -22.77452,11.70172 -38.30198,16.4772 -6.05,1.86068 -11.32723,3.85069 -11.72717,4.42226 -0.39995,0.57156 -0.4341,1.9392 -0.0759,3.0392 1.00331,3.08108 0.42132,39.94531 -0.78148,49.5 -1.06004,8.42071 -4.77798,24.89011 -6.84358,30.3151 -0.58953,1.5483 -1.07361,5.1483 -1.07574,8 -0.002,2.85169 -1.14198,11.0349 -2.533,18.1849 -2.18432,11.22762 -3.40737,14.81465 -8.97082,26.31008 -7.94368,16.41356 -10.15025,19.71869 -12.08991,18.10892 -0.77132,-0.64014 -1.4024,-1.68366 -1.4024,-2.31894 0,-0.63528 -0.7181,-2.18029 -1.59579,-3.43335 l -1.59579,-2.27831 -3.32652,3.8058 c -2.98631,3.41657 -3.48597,3.65065 -4.88554,2.28875 C 438.72523,625.33702 436,611.69202 436,600.11037 c 0,-7.74602 -0.37209,-11.0264 -1.34201,-11.83136 -0.7381,-0.61257 -1.56952,-0.88625 -1.8476,-0.60818 -1.20414,1.20414 -30.27196,3.57945 -40.28647,3.29205 l -10.97608,-0.31499 -1.30625,7.5 c -2.47901,14.23348 -8.5787,35 -10.28045,35 -0.42193,0 -2.18946,-1.6875 -3.92783,-3.75 z M 323.39105,577.64245 C 329.1359,575.89963 331,574.55354 331,572.14789 c 0,-2.89895 -2.48877,-4.32177 -4.11732,-2.35385 -3.25868,3.93774 -15.06721,6.8693 -18.48298,4.58854 -2.46809,-1.64799 -3.44919,-5.03197 -2.23286,-7.70152 1.19063,-2.61314 4.83948,-4.26533 6.77633,-3.0683 0.58125,0.35924 1.05683,0.22475 1.05683,-0.29886 0,-1.0839 -2.38655,-2.16601 -4.77707,-2.16601 -2.88157,0 -7.22581,5.09694 -7.19113,8.43709 0.0837,8.06053 9.56245,11.63625 21.35925,8.05747 z m -9.3663,-7.05966 c 1.44624,-3.80391 1.22632,-4.0194 -1.49393,-1.46385 -1.35805,1.27582 -2.23149,2.70426 -1.94098,3.17431 0.98611,1.59556 2.45631,0.86345 3.43491,-1.71046 z m 84.44868,-141.67155 c 4.11773,-6.11447 4.34652,-7.57362 1.27657,-8.14131 -12.33838,-2.2816 -16.6992,-3.34312 -38.25,-9.31096 -7.15,-1.97997 -14.81843,-3.80787 -17.04096,-4.062 -3.61096,-0.41289 -4.16962,-0.17969 -5.25,2.19148 -1.83534,4.02813 -1.47605,5.46082 1.54096,6.14459 15.75834,3.57143 32.76507,9.00554 41.52171,13.26731 5.62556,2.7379 10.77883,5.01615 11.45172,5.06277 0.67289,0.0466 2.81039,-2.27172 4.75,-5.15188 z m 31.39958,0.50794 c 8.44849,-6.02845 14.24949,-11.26406 13.61607,-12.28896 -0.27191,-0.43995 -2.83765,-0.18176 -5.70166,0.57375 -2.86401,0.75551 -8.89301,1.67271 -13.39778,2.03823 -4.50476,0.36551 -8.67607,0.96468 -9.26957,1.33148 -1.41974,0.87745 4.87399,13.05507 6.75294,13.06613 0.75515,0.004 4.35515,-2.11984 8,-4.72063 z M 426,416.64988 c 14.55006,-1.98567 20.20444,-3.27786 21.94066,-5.01408 1.31722,-1.31721 1.28099,-1.68867 -0.31575,-3.23791 -1.7205,-1.66932 -1.87431,-1.64627 -3.33625,0.5 -2.34652,3.4449 -10.41274,2.91035 -29.28866,-1.94098 -8.85476,-2.27578 -13.48576,-4.84388 -21.17277,-11.74127 C 387.75142,389.76394 378,378.08266 378,376.2561 c 0,-1.80846 3.56609,-1.27529 9.72149,1.45347 10.59569,4.69719 41.77468,13.42104 53.48835,14.966 12.7319,1.67925 22.40509,1.90439 23.24767,0.54108 0.31654,-0.51219 -0.55047,-2.59051 -1.9267,-4.6185 -3.25381,-4.79476 -4.52054,-9.54945 -4.51585,-16.95026 0.004,-6.89492 3.20188,-13.5177 9.3887,-19.44617 3.75206,-3.59538 4.62305,-6.05383 2.14478,-6.05383 -0.79836,0 -5.14292,-1.62299 -9.65458,-3.60665 -7.23114,-3.17935 -8.95446,-3.55881 -14.54565,-3.20279 -5.95075,0.37892 -7.741,-0.62142 -2.42654,-1.35588 1.33192,-0.18408 2.58638,-0.83556 2.78769,-1.44776 0.93802,-2.85254 -22.60677,-19.53627 -33.52452,-23.75532 -4.13684,-1.59864 -4.50874,-1.58223 -9,0.39703 -2.57666,1.13552 -6.76453,4.10725 -9.30637,6.60384 l -4.62152,4.53926 -4.12992,-2.10693 c -5.54874,-2.83075 -15.77383,-5.37026 -18.68297,-4.64011 -1.79312,0.45004 -2.49614,1.48599 -2.94076,4.33337 -1.1173,7.15525 -2.73608,11.80081 -7.60539,21.82592 C 352.00979,351.73686 351,354.85806 351,358.87108 c 0,3.41388 -0.59584,5.79107 -1.83512,7.32152 -1.75231,2.16401 -1.97693,2.19553 -4.97768,0.69857 -1.7284,-0.86225 -4.0526,-1.32973 -5.16488,-1.03887 -1.42489,0.37262 -2.02232,0.0426 -2.02232,-1.1172 0,-2.14195 7.54713,-11.67843 10.3387,-13.06386 5.81328,-2.88511 15.96902,-32.02335 11.1613,-32.02335 -0.55,0 -1.44421,1.0125 -1.98713,2.25 -1.39376,3.17685 -2.17594,2.83783 -4.61436,-2 -6.84288,-13.57626 -21.21512,-28.31765 -30.43634,-31.21808 -6.44539,-2.02732 -16.08172,-1.72116 -17.56223,0.55798 -1.94847,2.99955 1.6029,22.70141 5.61606,31.15612 4.23683,8.92591 9.45779,14.92016 15.83698,18.1826 5.59796,2.8629 5.77505,3.07541 5.18477,6.22185 -0.72476,3.86329 1.89047,31.03708 3.89389,40.45983 0.77299,3.63566 2.4546,9.23652 3.7369,12.44636 2.29661,5.74885 2.42113,5.86387 8.33146,7.69617 3.3,1.02305 9.15,2.01648 13,2.20763 4.00788,0.19898 8.92351,1.18138 11.5,2.29829 4.61393,2.00014 20.52645,6.80728 25,7.55245 5.58936,0.93104 20.12039,0.53908 30,-0.80921 z m 8.18317,-64.00199 c 0.17778,-2.24445 0.75572,-3.78056 1.31683,-3.5 1.27884,0.63942 0.92168,4.98352 -0.52702,6.4102 -0.80667,0.7944 -1.02075,0.006 -0.78981,-2.9102 z m -44.73698,-0.93511 c -0.71626,-3.81804 -0.053,-5.56489 2.11283,-5.56489 1.04116,0 1.44098,1.24858 1.44098,4.5 0,5.58418 -2.56196,6.35187 -3.55381,1.06489 z m -18.48721,-2.60282 c 4.3607,-3.72742 17.17623,-10.41084 22.8747,-11.92938 4.29423,-1.14433 10.16632,-0.61124 10.16632,0.92294 0,0.43819 -2.38913,0.99484 -5.30918,1.23699 -5.72661,0.47489 -15.80798,4.72785 -23.10055,9.74527 -5.97884,4.11355 -9.43656,4.1316 -4.63129,0.0242 z m 61.46802,-7.48354 c 1.05985,-0.80183 2.17182,-1.21305 2.47104,-0.91382 0.62769,0.62769 -1.9121,2.41268 -3.39804,2.38817 -0.55,-0.009 -0.13285,-0.67253 0.927,-1.47435 z M 417,402.61465 c 0,-0.29329 -1.14329,-2.78943 -2.54066,-5.54699 -2.51398,-4.96111 -5.4721,-7.38148 -6.2327,-5.09968 -0.7001,2.10029 -3.1378,1.2524 -4.61565,-1.60545 -0.7922,-1.53195 -2.49125,-3.30287 -3.77568,-3.93538 -4.29074,-2.11297 -12.07893,-5.27926 -12.98548,-5.27926 -3.53436,0 14.02647,16.26112 21.4504,19.86281 3.9469,1.91482 8.69977,2.79109 8.69977,1.60395 z m 61.98256,-10.95774 c 6.58224,-3.40381 12.79797,-25.18291 10.07414,-35.29844 -1.16242,-4.31693 -5.93537,-9.21058 -8.98339,-9.21058 -4.2557,0 -13.90068,9.24925 -17.20597,16.5 -3.72802,8.1781 -0.95222,21.92275 5.44591,26.96594 3.65458,2.88064 6.56553,3.16523 10.66931,1.04308 z m 1.31625,-15.75902 c 0.70028,-7.64328 2.42343,-13.75 3.87986,-13.75 0.72719,0 0.83722,1.40071 0.33387,4.25 -0.41294,2.3375 -0.69962,5.825 -0.63707,7.75 0.16911,5.20433 -0.71552,8 -2.53143,8 -1.37899,0 -1.53331,-0.92279 -1.04523,-6.25 z m -9.90347,2.68904 c -1.10255,-4.39293 2.54757,-19.43904 4.71583,-19.43904 0.8285,0 0.93536,1.35943 0.37338,4.75 -0.43301,2.6125 -0.91645,6.94073 -1.07432,9.61829 -0.15787,2.67756 -0.52563,5.49006 -0.81725,6.25 -0.84794,2.20969 -2.49998,1.60044 -3.19764,-1.17925 z m -33.73647,-62.68904 c 9.05117,-9.64091 18.53021,-29.96092 15.42496,-33.06617 -1.31131,-1.31131 -7.54212,0.51319 -15.55051,4.55348 C 430.00583,290.67837 414,305.56326 414,308.34044 c 0,1.69493 15.10934,10.71221 18.05383,10.77455 0.85461,0.0181 2.92688,-1.4296 4.60504,-3.2171 z"
         id="path3021"
         style="fill:#615660" />
      <path
         d="m 365.77666,627.89489 c -2.6192,-3.12284 -2.78034,-3.17466 -4.21394,-1.35519 -0.81983,1.0405 -1.68018,2.3905 -1.9119,3 -1.25187,3.29283 -21.26454,-32.10695 -23.12668,-40.90805 -0.34722,-1.64107 0.92294,0.61624 2.82259,5.01624 4.03483,9.34558 13.31393,25.43255 15.0551,26.1007 0.66215,0.25409 2.89743,-0.24562 4.9673,-1.11047 C 363.40016,616.95385 375,615.85193 375,617.15328 c 0,2.64673 -4.2904,13.99409 -5.29018,13.99161 -0.6654,-0.002 -2.43532,-1.46415 -3.93316,-3.25 z m 87.33682,-2.22337 c -1.10056,-2.48799 -2.36382,-4.52365 -2.80725,-4.52367 -0.44343,-3e-5 -2.19114,1.64948 -3.8838,3.66558 -1.69266,2.0161 -3.53907,3.38041 -4.10312,3.0318 -1.3028,-0.80517 -4.0302,-9.81935 -4.74951,-15.69734 -0.54341,-4.4406 -0.5343,-4.45768 0.68976,-1.29408 1.9612,5.06874 2.64675,5.34147 8.98109,3.57294 4.94715,-1.38124 6.4938,-1.4221 11.18945,-0.29563 l 5.44881,1.30715 -3.41456,6.78041 c -1.878,3.72922 -3.85,7.04952 -4.3822,7.37844 -0.53221,0.32892 -1.86811,-1.4376 -2.96867,-3.9256 z m -15.82747,-23.02363 c 0.008,-2.75 0.20172,-3.75631 0.43157,-2.23625 0.22986,1.52006 0.22371,3.77006 -0.0136,5 -0.23736,1.22994 -0.42542,-0.0138 -0.41792,-2.76375 z m 33.79294,-4.91667 c -0.0434,-1.05416 0.19292,-1.64479 0.52522,-1.3125 0.33229,0.33229 0.36781,1.19479 0.0789,1.91667 -0.31922,0.79773 -0.55618,0.56078 -0.60416,-0.60417 z m 1.07894,-4.58333 c 0,-1.375 0.22698,-1.9375 0.50439,-1.25 0.27741,0.6875 0.27741,1.8125 0,2.5 -0.27741,0.6875 -0.50439,0.125 -0.50439,-1.25 z m -94.48381,-4.60392 -2.74366,-2.36 3.28479,0.61949 c 5.02966,0.94856 6.03426,1.70754 3.96807,2.9979 -1.41029,0.88074 -2.31762,0.62773 -4.5092,-1.25739 z m 58.5864,-0.0902 c -1.35555,-2.90917 -1.13163,-3.66138 0.93596,-3.14425 0.8963,0.22418 1.17587,1.26088 0.82827,3.0714 l -0.52471,2.73299 -1.23952,-2.66014 z m 36.89741,-1.30588 c 0,-1.375 0.22698,-1.9375 0.50439,-1.25 0.27741,0.6875 0.27741,1.8125 0,2.5 -0.27741,0.6875 -0.50439,0.125 -0.50439,-1.25 z m -138.72819,-4.632 c -0.3672,-1.5774 -1.28358,-3.85624 -2.03639,-5.06408 -0.92996,-1.49206 -1.08665,-2.93467 -0.48875,-4.5 0.8596,-2.25052 0.89641,-2.23439 1.588,0.69608 0.3894,1.65 1.14245,4.73292 1.67345,6.85094 0.53099,2.11802 0.73276,4.08362 0.44838,4.368 -0.28438,0.28438 -0.81749,-0.77354 -1.18469,-2.35094 z m 28.0703,0.632 c -1.31874,-0.56668 -1.48906,-0.87815 -0.5,-0.9144 0.825,-0.0302 2.175,0.38124 3,0.9144 1.82797,1.18132 0.24908,1.18132 -2.5,0 z m 111.50579,0.41667 c 0.003,-0.50417 0.45147,-3.61667 0.99619,-6.91667 0.83639,-5.06704 0.7467,-6.18072 -0.57687,-7.16221 -1.41664,-1.05052 -1.40018,-1.483 0.17129,-4.5 l 1.73855,-3.33779 0.72903,2.6864 c 0.65683,2.42034 -1.47679,18.55974 -2.60239,19.68534 -0.25387,0.25388 -0.45898,0.0491 -0.4558,-0.45507 z M 295.2,577.94789 c -1.62267,-1.62267 -1.51132,-2.8 0.26482,-2.8 0.80564,0 1.94648,0.9 2.53518,2 0.82195,1.53583 0.76049,2 -0.26482,2 -0.73435,0 -1.87518,-0.54 -2.53518,-1.2 z m 6.51025,-0.8 c 0.29241,-1.11819 0.0307,-2 -0.59362,-2 -0.61415,0 -1.1144,-0.7875 -1.11166,-1.75 0.004,-1.32991 0.59526,-1.02985 2.46403,1.25 2.98766,3.64486 3.10635,4.5 0.62462,4.5 -1.41405,0 -1.77131,-0.51651 -1.38337,-2 z M 314,573.20691 c 0,-0.51754 0.45,-1.2191 1,-1.55902 0.55,-0.33992 1,0.0835 1,0.94098 0,0.85746 -0.45,1.55902 -1,1.55902 -0.55,0 -1,-0.42344 -1,-0.94098 z m -6.27083,-0.66319 C 307.32812,572.14268 307,571.12456 307,570.28122 c 0,-1.12559 0.29583,-1.2375 1.1125,-0.42083 0.61187,0.61187 0.94,1.63 0.72917,2.2625 -0.21084,0.6325 -0.71146,0.82187 -1.1125,0.42083 z m 22.51754,-4.37239 c -0.68569,-1.09797 -1.21537,-3.68991 -1.17706,-5.75987 l 0.0696,-3.76357 1.48538,4.83493 c 1.67359,5.44761 1.49324,7.6848 -0.37797,4.68851 z m 77.66278,-2.77344 c -2.48343,-2.6125 -7.56121,-8.22827 -11.28395,-12.4795 l -6.76863,-7.72949 1.00587,-7.27051 c 0.55323,-3.99877 1.28419,-11.92891 1.62436,-17.62252 0.34016,-5.69361 1.00476,-12.66861 1.47687,-15.5 0.47211,-2.83139 1.41349,-9.42298 2.09194,-14.64798 0.67846,-5.225 1.67153,-10.0601 2.20683,-10.74467 0.5353,-0.68457 0.74852,-2.10413 0.47382,-3.15457 -0.2747,-1.05044 0.3347,-7.46533 1.35421,-14.25532 3.31781,-22.09676 2.20364,-31.13989 -3.17406,-25.76219 -1.76826,1.76826 -2.54094,1.98541 -3.81691,1.07268 -0.87991,-0.62943 -3.84984,-2.49278 -6.59984,-4.14078 -6.01258,-3.60319 -4.83637,-4.04086 1.35207,-0.5031 6.38359,3.64931 7.42146,3.31508 11.62664,-3.74418 2.99696,-5.03101 3.49967,-6.57284 2.6084,-8 -1.01698,-1.62843 -0.54163,-1.76787 6.02686,-1.76787 5.99283,0 6.94581,0.22304 5.97107,1.39753 -1.57285,1.89517 5.26332,14.60247 7.85572,14.60247 1.79544,0 15.1943,-9.52132 20.90195,-14.85307 1.79752,-1.67914 2.93191,-3.57068 2.62346,-4.37451 -0.32972,-0.85923 0.41593,-1.8533 1.89599,-2.52766 2.13862,-0.97442 2.51017,-0.84225 3.01312,1.07188 0.32453,1.23513 0.0738,2.35369 -0.57742,2.57557 -0.6331,0.21571 -2.98412,2.06424 -5.22448,4.10783 -4.99982,4.56071 -22.92204,16.99996 -24.49319,16.99996 -0.62863,0 -1.40198,-0.675 -1.71856,-1.5 -0.31659,-0.825 -1.42746,-1.5 -2.46862,-1.5 -2.43116,0 -2.54455,4.21159 -0.25921,9.62788 2.20079,5.2159 6.04768,20.87512 7.29541,29.69684 0.55817,3.94641 1.68922,11.67528 2.51344,17.17528 0.82422,5.5 2.19718,16.75 3.05102,25 1.49245,14.42034 1.47654,15.29677 -0.41174,22.67978 -2.54353,9.94496 -12.69794,30.82022 -14.99197,30.82022 -0.36583,0 -2.69704,-2.1375 -5.18047,-4.75 z m -91.74945,1.07143 c -0.088,-1.74822 -0.86718,-3.88572 -1.73147,-4.75 -0.86428,-0.86429 -1.14438,-1.57143 -0.62244,-1.57143 1.92065,0 3.31918,2.95996 2.92214,6.18468 l -0.4082,3.31532 -0.16003,-3.17857 z M 310.5,565.14789 c -0.33992,-0.55 -0.14148,-1 0.44098,-1 0.58246,0 1.05902,0.45 1.05902,1 0,0.55 -0.19844,1 -0.44098,1 -0.24254,0 -0.7191,-0.45 -1.05902,-1 z m 17.57895,-8.41667 c -0.0434,-1.05416 0.19293,-1.64479 0.52522,-1.3125 0.33229,0.33229 0.36782,1.19479 0.0789,1.91667 -0.31923,0.79773 -0.55619,0.56078 -0.60417,-0.60417 z m 150.06162,0.41667 c 0,-0.825 0.38674,-2.4 0.85943,-3.5 0.54172,-1.26064 0.85943,-1.44548 0.85943,-0.5 0,0.825 -0.38674,2.4 -0.85943,3.5 -0.54172,1.26064 -0.85943,1.44548 -0.85943,0.5 z m 2.0294,-7 c 0.0162,-0.825 0.38968,-2.625 0.83003,-4 0.64363,-2.00973 0.8064,-2.10779 0.83003,-0.5 0.0162,1.1 -0.35734,2.9 -0.83003,4 -0.52653,1.22531 -0.84804,1.41898 -0.83003,0.5 z m -154.09102,-4.41667 c -0.0434,-1.05416 0.19293,-1.64479 0.52522,-1.3125 0.33229,0.33229 0.36782,1.19479 0.0789,1.91667 -0.31923,0.79773 -0.55619,0.56078 -0.60417,-0.60417 z m -1,-4 c -0.0434,-1.05416 0.19293,-1.64479 0.52522,-1.3125 0.33229,0.33229 0.36782,1.19479 0.0789,1.91667 -0.31923,0.79773 -0.55619,0.56078 -0.60417,-0.60417 z m 157.59983,-3.08333 c 0.31761,-2.75 0.74482,-5.1875 0.94935,-5.41667 0.70278,-0.78744 0.17197,5.41827 -0.67716,7.91667 -0.57301,1.68596 -0.66164,0.87192 -0.27219,-2.5 z m -158.59983,-0.91667 c -0.0434,-1.05416 0.19293,-1.64479 0.52522,-1.3125 0.33229,0.33229 0.36782,1.19479 0.0789,1.91667 -0.31923,0.79773 -0.55619,0.56078 -0.60417,-0.60417 z m 160.116,-8.08333 c -0.0204,-1.65 0.18706,-2.44606 0.46099,-1.76903 0.27392,0.67703 0.29059,2.02703 0.0371,3 -0.25354,0.97297 -0.47766,0.41903 -0.49804,-1.23097 z m -162.116,-0.91667 c -0.0434,-1.05416 0.19293,-1.64479 0.52522,-1.3125 0.33229,0.33229 0.36782,1.19479 0.0789,1.91667 -0.31923,0.79773 -0.55619,0.56078 -0.60417,-0.60417 z m 163.30641,-17.58333 c 0,-6.875 0.15977,-9.6875 0.35504,-6.25 0.19527,3.4375 0.19527,9.0625 0,12.5 -0.19527,3.4375 -0.35504,0.625 -0.35504,-6.25 z M 296.3082,496.30225 c -6.3268,-6.32681 -8.26151,-22.51306 -4.26473,-35.67969 2.98256,-9.82543 8.68838,-18.90749 16.63265,-26.47446 l 6.82388,-6.4998 -6.66858,6.9998 c -17.79763,18.68159 -23.22426,46.47254 -11.84056,60.63805 3.65514,4.54833 3.33142,5.03017 -0.68266,1.0161 z M 484,474.64789 c 0,-1.49071 0.4306,-2.35191 1,-2 1.2896,0.79701 1.2896,3.20299 0,4 -0.5694,0.35191 -1,-0.50929 -1,-2 z M 320.69692,463.75476 c -0.4092,-1.04122 -0.50841,-2.12872 -0.22046,-2.41666 0.91206,-0.91206 1.71456,0.58256 1.33239,2.48152 -0.35024,1.74033 -0.40373,1.73721 -1.11193,-0.0649 z m 217.50735,-11.60812 c 1.09359,-1.78973 1.0482,-2.30607 -0.29093,-3.30965 C 535.29739,446.8765 534,443.53988 534,438.77265 c 0,-2.52114 -0.55073,-4.85168 -1.25,-5.28967 -0.72412,-0.45355 2.30653,-1.29167 7.20369,-1.99215 4.64953,-0.66506 8.82329,-0.98077 9.27503,-0.70158 0.45174,0.27919 -0.57141,2.26611 -2.27367,4.41539 -3.58317,4.52413 -3.20018,5.94325 1.60397,5.94325 1.89254,0 3.44098,0.4152 3.44098,0.92268 0,1.10359 -9.53857,9.30412 -12.79573,11.00078 -2.17337,1.13212 -2.22667,1.08283 -1,-0.92471 z M 423.27083,418.54372 c 0.33229,-0.33229 1.19479,-0.36781 1.91667,-0.0789 0.79773,0.31922 0.56078,0.55618 -0.60417,0.60416 -1.05416,0.0434 -1.64479,-0.19293 -1.3125,-0.52522 z M 385,416.64789 c -1.925,-0.74131 -4.55514,-1.38208 -5.84476,-1.42392 -2.928,-0.095 -16.33272,-4.04115 -17.57246,-5.17307 -2.75214,-2.51278 3.49683,-1.31157 15.91722,3.05969 7.7,2.70996 13.325,4.91774 12.5,4.90617 -0.825,-0.0116 -3.075,-0.62756 -5,-1.36887 z m -50,-2.5 c 0.5887,-1.1 1.27953,-2 1.53518,-2 0.25565,0 0.46482,0.9 0.46482,2 0,1.13148 -0.66667,2 -1.53518,2 -1.22531,0 -1.31913,-0.4037 -0.46482,-2 z m 91,-5.47109 c -9.71889,-1.79594 -17.95632,-4.419 -22.80994,-7.26341 -6.93869,-4.06635 -25.43059,-23.3583 -23.8779,-24.91099 0.32708,-0.32709 1.76622,-0.30067 3.19808,0.0587 2.09608,0.52608 2.47296,1.06434 1.93407,2.76223 -0.54766,1.72555 0.97448,3.7094 8.37492,10.91525 8.53881,8.31429 15.25502,12.79918 21.36948,14.26991 1.48762,0.35783 2.97122,0.18964 3.3211,-0.37649 1.03606,-1.67638 -1.50723,-7.91159 -4.71926,-11.56989 -3.1044,-3.53572 -5.31387,-4.32626 -6.04877,-2.16423 -0.26336,0.77476 -1.44641,0.0417 -3.11178,-1.92815 -1.47778,-1.74799 -4.70911,-3.95045 -7.18073,-4.89438 -2.47162,-0.94392 -4.37072,-1.83935 -4.22022,-1.98986 0.36285,-0.36285 7.2742,1.45474 24.34956,6.40361 7.74324,2.24418 16.00729,4.38874 18.36457,4.76569 3.26984,0.52286 3.90318,0.89957 2.67139,1.58891 -2.52322,1.41207 -1.94503,2.96504 2.54313,6.83052 3.55977,3.0659 4.06038,3.96864 3.48095,6.27726 -0.63318,2.52278 -1.01356,2.68771 -5.9077,2.56142 C 434.85393,409.9387 429.575,409.33742 426,408.6768 z m -88.82104,-5.27891 c -3.64031,-10.41738 -6.18304,-22.30199 -7.21575,-33.72621 -0.63016,-6.97102 -0.95072,-12.86962 -0.71235,-13.10799 0.23838,-0.23837 0.99821,4.85806 1.68853,11.3254 1.44746,13.56085 5.09545,28.9578 8.04563,33.95799 1.86806,3.16612 1.94886,5.30081 0.20065,5.30081 -0.38296,0 -1.28598,-1.6875 -2.00671,-3.75 z m 120.1189,-7.99417 c 8.40379,-0.36823 10.38696,-1.73664 7.36162,-5.07961 -3.39579,-3.7523 -5.83303,-11.22539 -5.78309,-17.73214 0.0587,-7.64354 2.27553,-12.55402 8.83207,-19.56348 4.51595,-4.82792 5.174,-7.8806 1.69879,-7.8806 -0.91054,0 -5.1438,-1.575 -9.40725,-3.5 -4.26345,-1.925 -8.37155,-3.5 -9.12911,-3.5 -0.75756,0 -2.69698,-1.39812 -4.30983,-3.10693 -4.97921,-5.27548 -15.68182,-13.40424 -24.04015,-18.25879 -4.3885,-2.54885 -7.58353,-4.63428 -7.10006,-4.63428 0.48346,0 4.00108,1.8 7.81693,4 3.81585,2.2 7.76348,4 8.77252,4 4.39347,0 17.63417,-19.53568 20.3331,-30 2.61142,-10.12499 -0.27506,-11.09142 -13.8434,-4.63495 -7.94782,3.78196 -13.83702,8.42339 -20.83564,16.42111 -3.43111,3.92092 -4.71511,6.16802 -4.41663,7.72942 0.38989,2.0396 0.11446,2.16686 -3.74774,1.73153 -5.20946,-0.58718 -9.39513,1.41266 -15.6558,7.48006 l -4.65581,4.51209 -5.34419,-2.61068 c -6.73409,-3.28967 -16.0501,-5.12393 -18.73257,-3.68832 -1.23059,0.6586 -2.17052,2.58054 -2.59036,5.2967 -0.78686,5.09064 -3.5507,14.06694 -4.1475,13.47013 -0.23236,-0.23236 0.26348,-3.05606 1.10188,-6.27488 2.00361,-7.69236 1.96503,-10.43221 -0.1469,-10.43221 -0.91919,0 -2.4397,0.69543 -3.37892,1.54541 -1.57318,1.42371 -1.94578,1.12347 -4.7316,-3.81273 -4.11936,-7.29911 -12.37366,-17.41766 -18.00416,-22.07043 -7.99718,-6.60849 -11.74726,-8.09252 -20.54268,-8.12941 -9.80734,-0.0411 -11.07751,1.14673 -10.12012,9.46444 2.00795,17.44496 6.62368,28.93668 15.38804,38.31139 1.95838,2.09478 2.79472,3.51739 1.85853,3.16137 -3.48981,-1.32712 -11.74879,-13.49176 -14.74647,-21.72004 -1.23636,-3.39367 -2.76433,-3.43588 -9.05136,-0.25 -5.92355,3.00169 -7,3.09244 -7,0.5901 0,-1.44438 1.58022,-2.47663 6.4832,-4.23503 3.56576,-1.27883 6.65372,-2.78187 6.86214,-3.3401 0.20841,-0.55824 0.0238,-3.48997 -0.4102,-6.51497 -0.43402,-3.025 -0.82199,-7.57902 -0.86214,-10.12004 l -0.073,-4.62004 4.51254,-1.26343 c 10.5579,-2.95603 22.6234,0.23499 29.92455,7.9143 1.6154,1.69906 3.96197,3.08921 5.21461,3.08921 3.98002,0 24.71709,-8.23716 28.1331,-11.175 3.54479,-3.0486 5.24949,-3.4122 8.31243,-1.77297 1.9586,1.04822 7.82916,-0.37671 41.40277,-10.04943 5.5,-1.58458 17.425,-4.95188 26.5,-7.48289 9.075,-2.53102 16.65,-5.03337 16.83333,-5.56078 0.63242,-1.81934 1.8933,-0.95322 1.78013,1.2228 -0.0948,1.82294 -1.18238,2.45364 -6.61346,3.83521 -3.575,0.90941 -11.9,3.25406 -18.5,5.21033 -6.6,1.95626 -16.31608,4.77222 -21.5913,6.25769 -5.27521,1.48546 -10.21386,3.0856 -10.97478,3.55588 -1.1672,0.72137 -1.09818,2.30926 0.44149,10.1571 2.65765,13.54634 2.73203,13.80206 4.0143,13.80206 0.64509,0 3.85881,-2.75397 7.14159,-6.11993 9.49671,-9.73733 22.2582,-17.13072 33.13148,-19.19479 6.03097,-1.14486 6.74438,3.806 2.2712,15.76163 -2.33609,6.24377 -10.36987,18.87888 -14.29179,22.4774 -1.45321,1.33338 -2.64219,3.20763 -2.64219,4.16502 0,1.89981 7.20618,8.69715 13.4056,12.64506 6.18162,3.93656 17.34153,8.34405 24.50934,9.6797 l 6.58506,1.22706 -3.9034,1.86616 c -8.01109,3.82998 -15.24414,13.72113 -16.25109,22.22322 -0.88442,7.46754 1.89381,15.85471 6.79701,20.51947 2.16793,2.0625 4.71025,3.75689 5.64959,3.76531 1.46824,0.0132 1.49741,0.15134 0.20789,0.98469 -0.825,0.53316 -6.45,0.88571 -12.5,0.78344 -9.4152,-0.15914 -9.87654,-0.23516 -3.20214,-0.52761 z M 443.25,394.45856 c 0.9625,-0.25152 2.5375,-0.25152 3.5,0 0.9625,0.25153 0.175,0.45733 -1.75,0.45733 -1.925,0 -2.7125,-0.2058 -1.75,-0.45733 z m 37.76531,-18.06067 c 0.0111,-3.43547 0.28358,-4.33489 0.98469,-3.25 1.27768,1.97706 1.27768,8 0,8 -0.55,0 -0.99311,-2.1375 -0.98469,-4.75 z m -9.34864,3.08333 c -1.08698,-1.08697 -0.74219,-6.46043 0.78197,-12.18677 1.70203,-6.39462 3.1594,-8.32376 1.99933,-2.64656 -0.44954,2.2 -0.88224,6.3605 -0.96154,9.24555 -0.14651,5.32987 -0.62093,6.78662 -1.81976,5.58778 z m 17.49122,-3.33333 c 0,-1.375 0.22698,-1.9375 0.50439,-1.25 0.27741,0.6875 0.27741,1.8125 0,2.5 -0.27741,0.6875 -0.50439,0.125 -0.50439,-1.25 z m 1.25955,-11.57252 c 0.0756,-8.30487 -0.15548,-9.44713 -2.73081,-13.5 l -2.81337,-4.42748 3.00976,3.20578 c 3.73725,3.98065 4.61784,8.40087 3.3991,17.06229 l -0.94723,6.73193 0.0825,-9.07252 z M 338,363.63689 c 0,-0.39873 1.3125,-2.21983 2.91667,-4.04687 1.60417,-1.82705 3.29167,-3.96501 3.75,-4.75102 0.45833,-0.78602 1.86942,-1.75088 3.13574,-2.14414 2.24307,-0.69658 2.29462,-0.56464 2,5.11901 -0.28687,5.53431 -0.44368,5.85028 -3.05241,6.15044 -1.61738,0.1861 -2.75,-0.16686 -2.75,-0.85699 0,-0.71864 -0.67822,-0.90099 -1.75,-0.47048 -0.9625,0.3866 -2.3125,0.93289 -3,1.21397 -0.6875,0.28108 -1.25,0.18482 -1.25,-0.21392 z m 52.66667,-10.15567 c -1.05343,-1.05343 -0.77555,-6.33333 0.33333,-6.33333 0.55,0 1,1.575 1,3.5 0,3.59671 -0.18239,3.98428 -1.33333,2.83333 z m -62.62083,-10.24768 c -0.77398,-1.44619 -0.7892,-2.08565 -0.0496,-2.08565 1.21231,0 2.53262,2.80451 1.70836,3.62877 -0.29839,0.29839 -1.04481,-0.39602 -1.65872,-1.54312 z"
         id="path3019"
         style="fill:#029856" />
      <path
         d="m 365.77666,627.89489 c -2.6192,-3.12284 -2.78034,-3.17466 -4.21394,-1.35519 -0.81983,1.0405 -1.68018,2.3905 -1.9119,3 -1.25187,3.29283 -21.26454,-32.10695 -23.12668,-40.90805 -0.34722,-1.64107 0.92294,0.61624 2.82259,5.01624 4.03483,9.34558 13.31393,25.43255 15.0551,26.1007 0.66215,0.25409 2.89743,-0.24562 4.9673,-1.11047 C 363.40016,616.95385 375,615.85193 375,617.15328 c 0,2.64673 -4.2904,13.99409 -5.29018,13.99161 -0.6654,-0.002 -2.43532,-1.46415 -3.93316,-3.25 z m 87.33682,-2.22337 c -1.10056,-2.48799 -2.36382,-4.52365 -2.80725,-4.52367 -0.44343,-3e-5 -2.19114,1.64948 -3.8838,3.66558 -1.69266,2.0161 -3.53907,3.38041 -4.10312,3.0318 -1.3028,-0.80517 -4.0302,-9.81935 -4.74951,-15.69734 -0.54341,-4.4406 -0.5343,-4.45768 0.68976,-1.29408 1.9612,5.06874 2.64675,5.34147 8.98109,3.57294 4.94715,-1.38124 6.4938,-1.4221 11.18945,-0.29563 l 5.44881,1.30715 -3.41456,6.78041 c -1.878,3.72922 -3.85,7.04952 -4.3822,7.37844 -0.53221,0.32892 -1.86811,-1.4376 -2.96867,-3.9256 z m -15.82747,-23.02363 c 0.008,-2.75 0.20172,-3.75631 0.43157,-2.23625 0.22986,1.52006 0.22371,3.77006 -0.0136,5 -0.23736,1.22994 -0.42542,-0.0138 -0.41792,-2.76375 z m 33.79294,-4.91667 c -0.0434,-1.05416 0.19292,-1.64479 0.52522,-1.3125 0.33229,0.33229 0.36781,1.19479 0.0789,1.91667 -0.31922,0.79773 -0.55618,0.56078 -0.60416,-0.60417 z m 1.07894,-4.58333 c 0,-1.375 0.22698,-1.9375 0.50439,-1.25 0.27741,0.6875 0.27741,1.8125 0,2.5 -0.27741,0.6875 -0.50439,0.125 -0.50439,-1.25 z m -94.48381,-4.60392 -2.74366,-2.36 3.28479,0.61949 c 5.02966,0.94856 6.03426,1.70754 3.96807,2.9979 -1.41029,0.88074 -2.31762,0.62773 -4.5092,-1.25739 z m 58.5864,-0.0902 c -1.35555,-2.90917 -1.13163,-3.66138 0.93596,-3.14425 0.8963,0.22418 1.17587,1.26088 0.82827,3.0714 l -0.52471,2.73299 -1.23952,-2.66014 z m 36.89741,-1.30588 c 0,-1.375 0.22698,-1.9375 0.50439,-1.25 0.27741,0.6875 0.27741,1.8125 0,2.5 -0.27741,0.6875 -0.50439,0.125 -0.50439,-1.25 z m -138.72819,-4.632 c -0.3672,-1.5774 -1.28358,-3.85624 -2.03639,-5.06408 -0.92996,-1.49206 -1.08665,-2.93467 -0.48875,-4.5 0.8596,-2.25052 0.89641,-2.23439 1.588,0.69608 0.3894,1.65 1.14245,4.73292 1.67345,6.85094 0.53099,2.11802 0.73276,4.08362 0.44838,4.368 -0.28438,0.28438 -0.81749,-0.77354 -1.18469,-2.35094 z m 28.0703,0.632 c -1.31874,-0.56668 -1.48906,-0.87815 -0.5,-0.9144 0.825,-0.0302 2.175,0.38124 3,0.9144 1.82797,1.18132 0.24908,1.18132 -2.5,0 z m 111.50579,0.41667 c 0.003,-0.50417 0.45147,-3.61667 0.99619,-6.91667 0.83639,-5.06704 0.7467,-6.18072 -0.57687,-7.16221 -1.41664,-1.05052 -1.40018,-1.483 0.17129,-4.5 l 1.73855,-3.33779 0.72903,2.6864 c 0.65683,2.42034 -1.47679,18.55974 -2.60239,19.68534 -0.25387,0.25388 -0.45898,0.0491 -0.4558,-0.45507 z M 295.2,577.94789 c -1.62267,-1.62267 -1.51132,-2.8 0.26482,-2.8 0.80564,0 1.94648,0.9 2.53518,2 0.82195,1.53583 0.76049,2 -0.26482,2 -0.73435,0 -1.87518,-0.54 -2.53518,-1.2 z m 6.51025,-0.8 c 0.29241,-1.11819 0.0307,-2 -0.59362,-2 -0.61415,0 -1.1144,-0.7875 -1.11166,-1.75 0.004,-1.32991 0.59526,-1.02985 2.46403,1.25 2.98766,3.64486 3.10635,4.5 0.62462,4.5 -1.41405,0 -1.77131,-0.51651 -1.38337,-2 z M 314,573.20691 c 0,-0.51754 0.45,-1.2191 1,-1.55902 0.55,-0.33992 1,0.0835 1,0.94098 0,0.85746 -0.45,1.55902 -1,1.55902 -0.55,0 -1,-0.42344 -1,-0.94098 z m -6.27083,-0.66319 C 307.32812,572.14268 307,571.12456 307,570.28122 c 0,-1.12559 0.29583,-1.2375 1.1125,-0.42083 0.61187,0.61187 0.94,1.63 0.72917,2.2625 -0.21084,0.6325 -0.71146,0.82187 -1.1125,0.42083 z m 22.51754,-4.37239 c -0.68569,-1.09797 -1.21537,-3.68991 -1.17706,-5.75987 l 0.0696,-3.76357 1.48538,4.83493 c 1.67359,5.44761 1.49324,7.6848 -0.37797,4.68851 z m 77.66278,-2.77344 c -2.48343,-2.6125 -7.56121,-8.22827 -11.28395,-12.4795 l -6.76863,-7.72949 1.00587,-7.27051 c 0.55323,-3.99877 1.28419,-11.92891 1.62436,-17.62252 0.34016,-5.69361 1.0093,-12.66861 1.48697,-15.5 0.47767,-2.83139 1.43339,-9.53099 2.12383,-14.88801 0.69043,-5.35702 1.42838,-9.56698 1.63989,-9.35548 0.37095,0.37096 -2.51479,31.37825 -4.86011,52.22195 l -1.13942,10.12644 9.792,11.07841 c 5.3856,6.09312 10.37831,11.3034 11.09492,11.57839 2.58515,0.99201 9.08647,-11.80527 13.36519,-26.3082 2.43206,-8.2436 2.3831,-9.90785 -1.07596,-36.57122 -3.82039,-29.44863 -8.07141,-50.63376 -11.72171,-58.41555 -1.36035,-2.90001 -2.33112,-3.67616 -4.90986,-3.92551 -2.67808,-0.25895 -3.29213,0.0747 -3.68109,2 -0.25675,1.27094 -1.43858,7.9358 -2.62629,14.8108 -1.1877,6.875 -2.30754,12.95 -2.48853,13.5 -0.86017,2.61392 -0.30143,-3.91673 1.02668,-12 2.99493,-18.22799 1.5043,-27.51795 -3.5969,-22.41675 -1.76826,1.76826 -2.54094,1.98541 -3.81691,1.07268 -0.87991,-0.62943 -3.84984,-2.49278 -6.59984,-4.14078 -6.01258,-3.60319 -4.83637,-4.04086 1.35207,-0.5031 6.38359,3.64931 7.42146,3.31508 11.62664,-3.74418 2.99696,-5.03101 3.49967,-6.57284 2.6084,-8 -1.01698,-1.62843 -0.54163,-1.76787 6.02686,-1.76787 5.99283,0 6.94581,0.22304 5.97107,1.39753 -1.57285,1.89517 5.26332,14.60247 7.85572,14.60247 1.79544,0 15.1943,-9.52132 20.90195,-14.85307 1.79752,-1.67914 2.93191,-3.57068 2.62346,-4.37451 -0.32972,-0.85923 0.41593,-1.8533 1.89599,-2.52766 2.13862,-0.97442 2.51017,-0.84225 3.01312,1.07188 0.32453,1.23513 0.0738,2.35369 -0.57742,2.57557 -0.6331,0.21571 -2.98412,2.06424 -5.22448,4.10783 -4.99982,4.56071 -22.92204,16.99996 -24.49319,16.99996 -0.62863,0 -1.40198,-0.675 -1.71856,-1.5 -0.31659,-0.825 -1.42746,-1.5 -2.46862,-1.5 -2.43116,0 -2.54455,4.21159 -0.25921,9.62788 2.20079,5.2159 6.04768,20.87512 7.29541,29.69684 0.55817,3.94641 1.68922,11.67528 2.51344,17.17528 0.82422,5.5 2.19718,16.75 3.05102,25 1.49245,14.42034 1.47654,15.29677 -0.41174,22.67978 -2.54353,9.94496 -12.69794,30.82022 -14.99197,30.82022 -0.36583,0 -2.69704,-2.1375 -5.18047,-4.75 z m 5.10917,-131.11481 c 2.02877,-2.02877 2.69983,-3.49567 2.29951,-5.02652 -0.64459,-2.46492 -5.60968,-8.10867 -7.13361,-8.10867 -1.55381,0 -7.3251,9.95024 -6.55727,11.30535 3.08644,5.44709 7.12533,6.09588 11.39137,1.82984 z m -96.85862,132.18624 c -0.088,-1.74822 -0.86718,-3.88572 -1.73147,-4.75 -0.86428,-0.86429 -1.14438,-1.57143 -0.62244,-1.57143 1.92065,0 3.31918,2.95996 2.92214,6.18468 l -0.4082,3.31532 -0.16003,-3.17857 z M 310.5,565.14789 c -0.33992,-0.55 -0.14148,-1 0.44098,-1 0.58246,0 1.05902,0.45 1.05902,1 0,0.55 -0.19844,1 -0.44098,1 -0.24254,0 -0.7191,-0.45 -1.05902,-1 z m 17.57895,-8.41667 c -0.0434,-1.05416 0.19293,-1.64479 0.52522,-1.3125 0.33229,0.33229 0.36782,1.19479 0.0789,1.91667 -0.31923,0.79773 -0.55619,0.56078 -0.60417,-0.60417 z m 150.06162,0.41667 c 0,-0.825 0.38674,-2.4 0.85943,-3.5 0.54172,-1.26064 0.85943,-1.44548 0.85943,-0.5 0,0.825 -0.38674,2.4 -0.85943,3.5 -0.54172,1.26064 -0.85943,1.44548 -0.85943,0.5 z M 409,553.81543 c 0,-0.73285 -1.65092,-2.42035 -3.66871,-3.75 -4.02551,-2.65266 -6.16033,-5.42183 -5.04198,-6.54019 0.39522,-0.39521 1.7583,0.2582 3.02908,1.45204 3.68668,3.46345 4.68161,2.7734 4.68161,-3.24703 0,-5.24898 -0.11505,-5.47469 -3.69554,-7.25 -2.03255,-1.0078 -3.87884,-2.42125 -4.10288,-3.14099 -0.22403,-0.71975 1.36296,-2.96975 3.52666,-5 2.16369,-2.03026 4.23181,-4.50739 4.59581,-5.50475 0.72396,-1.98364 2.67595,-1.39693 2.67595,0.8043 0,0.75509 1.45949,2.41214 3.2433,3.68233 l 3.2433,2.30943 -2.98109,0.51637 c -3.61449,0.62608 -4.36773,3.19479 -1.66835,5.68947 1.07807,0.99631 3.13074,2.87121 4.56149,4.16644 3.57988,3.2408 3.2646,5.75134 -1.25713,10.01056 -2.12217,1.99897 -4.13304,4.42198 -4.46862,5.38448 -0.71477,2.05012 -2.6729,2.35601 -2.6729,0.41754 z m 7.16883,-13.19635 c -1.65374,-3.62955 -4.74564,-2.93466 -4.45546,1.00134 0.39716,5.38725 1.10907,6.14947 3.50541,3.75314 1.85488,-1.85488 1.9818,-2.49004 0.95005,-4.75448 z M 408,530.14789 c 0,-2.07031 -2.41251,-2.7596 -3.5,-1 -0.83704,1.35436 0.29243,3 2.05902,3 0.79254,0 1.44098,-0.9 1.44098,-2 z m 72.16997,20 c 0.0162,-0.825 0.38968,-2.625 0.83003,-4 0.64363,-2.00973 0.8064,-2.10779 0.83003,-0.5 0.0162,1.1 -0.35734,2.9 -0.83003,4 -0.52653,1.22531 -0.84804,1.41898 -0.83003,0.5 z m -154.09102,-4.41667 c -0.0434,-1.05416 0.19293,-1.64479 0.52522,-1.3125 0.33229,0.33229 0.36782,1.19479 0.0789,1.91667 -0.31923,0.79773 -0.55619,0.56078 -0.60417,-0.60417 z m -1,-4 c -0.0434,-1.05416 0.19293,-1.64479 0.52522,-1.3125 0.33229,0.33229 0.36782,1.19479 0.0789,1.91667 -0.31923,0.79773 -0.55619,0.56078 -0.60417,-0.60417 z m 157.59983,-3.08333 c 0.31761,-2.75 0.74482,-5.1875 0.94935,-5.41667 0.70278,-0.78744 0.17197,5.41827 -0.67716,7.91667 -0.57301,1.68596 -0.66164,0.87192 -0.27219,-2.5 z m -158.59983,-0.91667 c -0.0434,-1.05416 0.19293,-1.64479 0.52522,-1.3125 0.33229,0.33229 0.36782,1.19479 0.0789,1.91667 -0.31923,0.79773 -0.55619,0.56078 -0.60417,-0.60417 z m 160.116,-8.08333 c -0.0204,-1.65 0.18706,-2.44606 0.46099,-1.76903 0.27392,0.67703 0.29059,2.02703 0.0371,3 -0.25354,0.97297 -0.47766,0.41903 -0.49804,-1.23097 z m -162.116,-0.91667 c -0.0434,-1.05416 0.19293,-1.64479 0.52522,-1.3125 0.33229,0.33229 0.36782,1.19479 0.0789,1.91667 -0.31923,0.79773 -0.55619,0.56078 -0.60417,-0.60417 z m 163.30641,-17.58333 c 0,-6.875 0.15977,-9.6875 0.35504,-6.25 0.19527,3.4375 0.19527,9.0625 0,12.5 -0.19527,3.4375 -0.35504,0.625 -0.35504,-6.25 z M 296.3082,496.30225 c -6.3268,-6.32681 -8.26151,-22.51306 -4.26473,-35.67969 2.98256,-9.82543 8.68838,-18.90749 16.63265,-26.47446 l 6.82388,-6.4998 -6.66858,6.9998 c -17.79763,18.68159 -23.22426,46.47254 -11.84056,60.63805 3.65514,4.54833 3.33142,5.03017 -0.68266,1.0161 z M 484,474.64789 c 0,-1.49071 0.4306,-2.35191 1,-2 1.2896,0.79701 1.2896,3.20299 0,4 -0.5694,0.35191 -1,-0.50929 -1,-2 z M 320.69692,463.75476 c -0.4092,-1.04122 -0.50841,-2.12872 -0.22046,-2.41666 0.91206,-0.91206 1.71456,0.58256 1.33239,2.48152 -0.35024,1.74033 -0.40373,1.73721 -1.11193,-0.0649 z m 217.50735,-11.60812 c 1.09359,-1.78973 1.0482,-2.30607 -0.29093,-3.30965 C 535.29739,446.8765 534,443.53988 534,438.77265 c 0,-2.52114 -0.55073,-4.85168 -1.25,-5.28967 -0.72412,-0.45355 2.30653,-1.29167 7.20369,-1.99215 4.64953,-0.66506 8.82329,-0.98077 9.27503,-0.70158 0.45174,0.27919 -0.57141,2.26611 -2.27367,4.41539 -3.58317,4.52413 -3.20018,5.94325 1.60397,5.94325 1.89254,0 3.44098,0.4152 3.44098,0.92268 0,1.10359 -9.53857,9.30412 -12.79573,11.00078 -2.17337,1.13212 -2.22667,1.08283 -1,-0.92471 z M 423.27083,418.54372 c 0.33229,-0.33229 1.19479,-0.36781 1.91667,-0.0789 0.79773,0.31922 0.56078,0.55618 -0.60417,0.60416 -1.05416,0.0434 -1.64479,-0.19293 -1.3125,-0.52522 z M 385,416.64789 c -1.925,-0.74131 -4.55514,-1.38208 -5.84476,-1.42392 -2.928,-0.095 -16.33272,-4.04115 -17.57246,-5.17307 -2.75214,-2.51278 3.49683,-1.31157 15.91722,3.05969 7.7,2.70996 13.325,4.91774 12.5,4.90617 -0.825,-0.0116 -3.075,-0.62756 -5,-1.36887 z m -50,-2.5 c 0.5887,-1.1 1.27953,-2 1.53518,-2 0.25565,0 0.46482,0.9 0.46482,2 0,1.13148 -0.66667,2 -1.53518,2 -1.22531,0 -1.31913,-0.4037 -0.46482,-2 z m 91,-5.47109 c -9.71889,-1.79594 -17.95632,-4.419 -22.80994,-7.26341 -6.93869,-4.06635 -25.43059,-23.3583 -23.8779,-24.91099 0.32708,-0.32709 1.76622,-0.30067 3.19808,0.0587 2.09608,0.52608 2.47296,1.06434 1.93407,2.76223 -0.54766,1.72555 0.97448,3.7094 8.37492,10.91525 8.53881,8.31429 15.25502,12.79918 21.36948,14.26991 1.48762,0.35783 2.97122,0.18964 3.3211,-0.37649 1.03606,-1.67638 -1.50723,-7.91159 -4.71926,-11.56989 -3.1044,-3.53572 -5.31387,-4.32626 -6.04877,-2.16423 -0.26336,0.77476 -1.44641,0.0417 -3.11178,-1.92815 -1.47778,-1.74799 -4.70911,-3.95045 -7.18073,-4.89438 -2.47162,-0.94392 -4.37072,-1.83935 -4.22022,-1.98986 0.36285,-0.36285 7.2742,1.45474 24.34956,6.40361 7.74324,2.24418 16.00729,4.38874 18.36457,4.76569 3.26984,0.52286 3.90318,0.89957 2.67139,1.58891 -2.52322,1.41207 -1.94503,2.96504 2.54313,6.83052 3.55977,3.0659 4.06038,3.96864 3.48095,6.27726 -0.63318,2.52278 -1.01356,2.68771 -5.9077,2.56142 C 434.85393,409.9387 429.575,409.33742 426,408.6768 z m -88.82104,-5.27891 c -3.64031,-10.41738 -6.18304,-22.30199 -7.21575,-33.72621 -0.63016,-6.97102 -0.95072,-12.86962 -0.71235,-13.10799 0.23838,-0.23837 0.99821,4.85806 1.68853,11.3254 1.44746,13.56085 5.09545,28.9578 8.04563,33.95799 1.86806,3.16612 1.94886,5.30081 0.20065,5.30081 -0.38296,0 -1.28598,-1.6875 -2.00671,-3.75 z m 120.1189,-7.99417 c 8.40379,-0.36823 10.38696,-1.73664 7.36162,-5.07961 -3.39579,-3.7523 -5.83303,-11.22539 -5.78309,-17.73214 0.0587,-7.64354 2.27553,-12.55402 8.83207,-19.56348 4.51595,-4.82792 5.174,-7.8806 1.69879,-7.8806 -0.91054,0 -5.1438,-1.575 -9.40725,-3.5 -4.26345,-1.925 -8.37155,-3.5 -9.12911,-3.5 -0.75756,0 -2.69698,-1.39812 -4.30983,-3.10693 -4.97921,-5.27548 -15.68182,-13.40424 -24.04015,-18.25879 -4.3885,-2.54885 -7.58353,-4.63428 -7.10006,-4.63428 0.48346,0 4.00108,1.8 7.81693,4 3.81585,2.2 7.76348,4 8.77252,4 4.39347,0 17.63417,-19.53568 20.3331,-30 2.61142,-10.12499 -0.27506,-11.09142 -13.8434,-4.63495 -7.94782,3.78196 -13.83702,8.42339 -20.83564,16.42111 -3.43111,3.92092 -4.71511,6.16802 -4.41663,7.72942 0.38989,2.0396 0.11446,2.16686 -3.74774,1.73153 -5.20946,-0.58718 -9.39513,1.41266 -15.6558,7.48006 l -4.65581,4.51209 -5.34419,-2.61068 c -6.73409,-3.28967 -16.0501,-5.12393 -18.73257,-3.68832 -1.23059,0.6586 -2.17052,2.58054 -2.59036,5.2967 -0.78686,5.09064 -3.5507,14.06694 -4.1475,13.47013 -0.23236,-0.23236 0.26348,-3.05606 1.10188,-6.27488 2.00361,-7.69236 1.96503,-10.43221 -0.1469,-10.43221 -0.91919,0 -2.4397,0.69543 -3.37892,1.54541 -1.57318,1.42371 -1.94578,1.12347 -4.7316,-3.81273 -4.11936,-7.29911 -12.37366,-17.41766 -18.00416,-22.07043 -7.99718,-6.60849 -11.74726,-8.09252 -20.54268,-8.12941 -9.80734,-0.0411 -11.07751,1.14673 -10.12012,9.46444 2.00795,17.44496 6.62368,28.93668 15.38804,38.31139 1.95838,2.09478 2.79472,3.51739 1.85853,3.16137 -3.48981,-1.32712 -11.74879,-13.49176 -14.74647,-21.72004 -1.23636,-3.39367 -2.76433,-3.43588 -9.05136,-0.25 -5.92355,3.00169 -7,3.09244 -7,0.5901 0,-1.44438 1.58022,-2.47663 6.4832,-4.23503 3.56576,-1.27883 6.65372,-2.78187 6.86214,-3.3401 0.20841,-0.55824 0.0238,-3.48997 -0.4102,-6.51497 -0.43402,-3.025 -0.82199,-7.57902 -0.86214,-10.12004 l -0.073,-4.62004 4.51254,-1.26343 c 10.5579,-2.95603 22.6234,0.23499 29.92455,7.9143 1.6154,1.69906 3.96197,3.08921 5.21461,3.08921 3.98002,0 24.71709,-8.23716 28.1331,-11.175 3.54479,-3.0486 5.24949,-3.4122 8.31243,-1.77297 1.9586,1.04822 7.82916,-0.37671 41.40277,-10.04943 5.5,-1.58458 17.425,-4.95188 26.5,-7.48289 9.075,-2.53102 16.65,-5.03337 16.83333,-5.56078 0.63242,-1.81934 1.8933,-0.95322 1.78013,1.2228 -0.0948,1.82294 -1.18238,2.45364 -6.61346,3.83521 -3.575,0.90941 -11.9,3.25406 -18.5,5.21033 -6.6,1.95626 -16.31608,4.77222 -21.5913,6.25769 -5.27521,1.48546 -10.21386,3.0856 -10.97478,3.55588 -1.1672,0.72137 -1.09818,2.30926 0.44149,10.1571 2.65765,13.54634 2.73203,13.80206 4.0143,13.80206 0.64509,0 3.85881,-2.75397 7.14159,-6.11993 9.49671,-9.73733 22.2582,-17.13072 33.13148,-19.19479 6.03097,-1.14486 6.74438,3.806 2.2712,15.76163 -2.33609,6.24377 -10.36987,18.87888 -14.29179,22.4774 -1.45321,1.33338 -2.64219,3.20763 -2.64219,4.16502 0,1.89981 7.20618,8.69715 13.4056,12.64506 6.18162,3.93656 17.34153,8.34405 24.50934,9.6797 l 6.58506,1.22706 -3.9034,1.86616 c -8.01109,3.82998 -15.24414,13.72113 -16.25109,22.22322 -0.88442,7.46754 1.89381,15.85471 6.79701,20.51947 2.16793,2.0625 4.71025,3.75689 5.64959,3.76531 1.46824,0.0132 1.49741,0.15134 0.20789,0.98469 -0.825,0.53316 -6.45,0.88571 -12.5,0.78344 -9.4152,-0.15914 -9.87654,-0.23516 -3.20214,-0.52761 z M 443.25,394.45856 c 0.9625,-0.25152 2.5375,-0.25152 3.5,0 0.9625,0.25153 0.175,0.45733 -1.75,0.45733 -1.925,0 -2.7125,-0.2058 -1.75,-0.45733 z m 37.76531,-18.06067 c 0.0111,-3.43547 0.28358,-4.33489 0.98469,-3.25 1.27768,1.97706 1.27768,8 0,8 -0.55,0 -0.99311,-2.1375 -0.98469,-4.75 z m -9.34864,3.08333 c -1.08698,-1.08697 -0.74219,-6.46043 0.78197,-12.18677 1.70203,-6.39462 3.1594,-8.32376 1.99933,-2.64656 -0.44954,2.2 -0.88224,6.3605 -0.96154,9.24555 -0.14651,5.32987 -0.62093,6.78662 -1.81976,5.58778 z m 17.49122,-3.33333 c 0,-1.375 0.22698,-1.9375 0.50439,-1.25 0.27741,0.6875 0.27741,1.8125 0,2.5 -0.27741,0.6875 -0.50439,0.125 -0.50439,-1.25 z m 1.25955,-11.57252 c 0.0756,-8.30487 -0.15548,-9.44713 -2.73081,-13.5 l -2.81337,-4.42748 3.00976,3.20578 c 3.73725,3.98065 4.61784,8.40087 3.3991,17.06229 l -0.94723,6.73193 0.0825,-9.07252 z M 338,363.63689 c 0,-0.39873 1.3125,-2.21983 2.91667,-4.04687 1.60417,-1.82705 3.29167,-3.96501 3.75,-4.75102 0.45833,-0.78602 1.86942,-1.75088 3.13574,-2.14414 2.24307,-0.69658 2.29462,-0.56464 2,5.11901 -0.28687,5.53431 -0.44368,5.85028 -3.05241,6.15044 -1.61738,0.1861 -2.75,-0.16686 -2.75,-0.85699 0,-0.71864 -0.67822,-0.90099 -1.75,-0.47048 -0.9625,0.3866 -2.3125,0.93289 -3,1.21397 -0.6875,0.28108 -1.25,0.18482 -1.25,-0.21392 z m 52.66667,-10.15567 c -1.05343,-1.05343 -0.77555,-6.33333 0.33333,-6.33333 0.55,0 1,1.575 1,3.5 0,3.59671 -0.18239,3.98428 -1.33333,2.83333 z m -62.62083,-10.24768 c -0.77398,-1.44619 -0.7892,-2.08565 -0.0496,-2.08565 1.21231,0 2.53262,2.80451 1.70836,3.62877 -0.29839,0.29839 -1.04481,-0.39602 -1.65872,-1.54312 z"
         id="path3017"
         style="fill:#161617" />
    </g>
  </g>
</svg>
