<svg xmlns="http://www.w3.org/2000/svg" viewBox="8402.709 -3107.348 24.397 24.44">
  <defs>
    <style>
      .cls-1, .cls-3 {
        fill: none;
      }

      .cls-1 {
        stroke: #f4fbff;
        stroke-width: 1px;
      }

      .cls-2 {
        stroke: none;
      }
    </style>
  </defs>
  <g id="group-22" transform="translate(7530.965 -3126.1)">
    <g id="rectangle-10" class="cls-1" transform="translate(871.744 18.752)">
      <rect class="cls-2" width="6.44" height="6.44"/>
      <rect class="cls-3" x="0.5" y="0.5" width="5.44" height="5.44"/>
    </g>
    <g id="rectangle-10-2" data-name="rectangle-10" class="cls-1" transform="translate(871.744 27.752)">
      <rect class="cls-2" width="6.44" height="6.44"/>
      <rect class="cls-3" x="0.5" y="0.5" width="5.44" height="5.44"/>
    </g>
    <g id="rectangle-10-3" data-name="rectangle-10" class="cls-1" transform="translate(871.744 36.752)">
      <rect class="cls-2" width="6.44" height="6.44"/>
      <rect class="cls-3" x="0.5" y="0.5" width="5.44" height="5.44"/>
    </g>
    <g id="rectangle-10-4" data-name="rectangle-10" class="cls-1" transform="translate(880.723 18.752)">
      <rect class="cls-2" width="6.44" height="6.44"/>
      <rect class="cls-3" x="0.5" y="0.5" width="5.44" height="5.44"/>
    </g>
    <g id="rectangle-10-5" data-name="rectangle-10" class="cls-1" transform="translate(880.723 27.752)">
      <rect class="cls-2" width="6.44" height="6.44"/>
      <rect class="cls-3" x="0.5" y="0.5" width="5.44" height="5.44"/>
    </g>
    <g id="rectangle-10-6" data-name="rectangle-10" class="cls-1" transform="translate(880.723 36.752)">
      <rect class="cls-2" width="6.44" height="6.44"/>
      <rect class="cls-3" x="0.5" y="0.5" width="5.44" height="5.44"/>
    </g>
    <g id="rectangle-10-7" data-name="rectangle-10" class="cls-1" transform="translate(889.702 18.752)">
      <rect class="cls-2" width="6.44" height="6.44"/>
      <rect class="cls-3" x="0.5" y="0.5" width="5.44" height="5.44"/>
    </g>
    <g id="rectangle-10-8" data-name="rectangle-10" class="cls-1" transform="translate(889.702 27.752)">
      <rect class="cls-2" width="6.44" height="6.44"/>
      <rect class="cls-3" x="0.5" y="0.5" width="5.44" height="5.44"/>
    </g>
    <g id="rectangle-10-9" data-name="rectangle-10" class="cls-1" transform="translate(889.702 36.752)">
      <rect class="cls-2" width="6.44" height="6.44"/>
      <rect class="cls-3" x="0.5" y="0.5" width="5.44" height="5.44"/>
    </g>
  </g>
</svg>
