<svg xmlns="http://www.w3.org/2000/svg" viewBox="654 393 26 26">
  <g id="close-circle" transform="translate(651.328 390.328)">
    <path id="path" d="M6.48,6.48a13,13,0,1,0,18.384,0A13,13,0,0,0,6.48,6.48ZM24.128,24.128a11.96,11.96,0,1,1,0-16.913A11.973,11.973,0,0,1,24.128,24.128Z"/>
    <path id="path-2" data-name="path" d="M10.7,9.969l-.735.735,5.148,5.148L9.992,20.976l.735.735,5.123-5.123,5.123,5.123.735-.735-5.123-5.123L21.735,10.7,21,9.969l-5.148,5.148Z" transform="translate(-0.18 -0.18)"/>
  </g>
</svg>
