<svg xmlns="http://www.w3.org/2000/svg" viewBox="654.001 312.999 26.02 26">
  <path id="path-19" d="M-652-298a13,13,0,0,1,12.52-12.991V-311h1v.011a12.93,12.93,0,0,1,5.556,1.494l.008-.013.866.5-.009.015a13.062,13.062,0,0,1,4.069,4.077l.019-.011.5.866-.019.011a12.928,12.928,0,0,1,1.481,5.55h.03v1h-.03a12.939,12.939,0,0,1-1.484,5.557l.023.013-.5.866-.023-.013A12.989,12.989,0,0,1-639-285,13,13,0,0,1-652-298Zm4.613,5.436-1.741,1.005A11.99,11.99,0,0,0-639-286a11.993,11.993,0,0,0,10.139-5.578l-1.708-.987.5-.866,1.708.987a11.938,11.938,0,0,0,1.35-5.056h-1.969v-1h1.969a11.929,11.929,0,0,0-1.348-5.05l-1.712.988-.5-.866,1.712-.988a12.053,12.053,0,0,0-3.7-3.71l-.99,1.715-.866-.5.991-1.717a11.93,11.93,0,0,0-5.055-1.36V-308h-1v-1.99a11.932,11.932,0,0,0-5.069,1.347l1,1.732-.866.5-1-1.732a12.062,12.062,0,0,0-3.715,3.708l1.741,1-.5.867-1.742-1.005a11.928,11.928,0,0,0-1.358,5.069h2.01v1h-2.01a11.933,11.933,0,0,0,1.361,5.076l1.743-1.006ZM-640.98-298a2,2,0,0,1,2-2,2,2,0,0,1,.656.11l4.693-4.081.7.71-4.151,4.632a1.983,1.983,0,0,1,.1.628,2,2,0,0,1-2,2A2,2,0,0,1-640.98-298Z" transform="translate(1306 624)"/>
</svg>
