<svg xmlns="http://www.w3.org/2000/svg" viewBox="694 313 26 26">
  <path id="path-12" d="M15,2A13,13,0,1,0,28,15,13,13,0,0,0,15,2ZM25.14,8.58c.18.28.35.57.51.86l-1.72,1-.5-.87ZM14.52,3h.98V5h-1ZM3,15v-.5H5v1H3Zm1.9,6.42c-.18-.28-.35-.57-.51-.86l1.72-1,.5.87Zm1.21-11-1.72-1c.16-.3.33-.58.51-.86l1.71,1ZM9.59,6.59l-1-1.71c.28-.18.57-.35.86-.51l1,1.72ZM17,15a2,2,0,1,1-1.35-1.88L20.37,9l.7.71-4.16,4.64A2,2,0,0,1,17,15Zm3.43-8.41-.87-.5,1-1.72c.3.16.58.33.86.51Zm4.69,14.83-1.71-1,.5-.87,1.72,1a7.448,7.448,0,0,1-.49.87ZM25,15.5v-1h2v1Z" transform="translate(692 311)"/>
</svg>
