<svg xmlns="http://www.w3.org/2000/svg" viewBox="694 353 26 26">
  <g id="global" transform="translate(693.328 350.328)">
    <path id="path" d="M13.672,2.672h-.031a13,13,0,0,0,0,26h.031a13,13,0,0,0,0-26Zm0,24.96h-.028a11.959,11.959,0,0,1,0-23.919h.028a11.96,11.96,0,1,1,0,23.92Z" transform="translate(0 0)"/>
    <path id="path-2" data-name="path" d="M18.155,10.608a17.437,17.437,0,0,1-3.622.485v4.255h4.23a21.165,21.165,0,0,0-.61-4.739Z" transform="translate(-0.341 -0.195)"/>
    <path id="path-3" data-name="path" d="M14.533,4.885V10A16.521,16.521,0,0,0,17.9,9.552c-.817-2.589-2.1-4.286-3.362-4.667Z" transform="translate(-0.341 -0.054)"/>
    <path id="path-4" data-name="path" d="M9.992,9.544A16.451,16.451,0,0,0,13.381,10V4.872c-1.276.364-2.565,2.067-3.389,4.672Z" transform="translate(-0.229 -0.054)"/>
    <path id="path-5" data-name="path" d="M21.855,8.072A10.939,10.939,0,0,0,16.61,5.1a10.65,10.65,0,0,1,2.258,4.2,16.621,16.621,0,0,0,2.987-1.235Z" transform="translate(-0.392 -0.06)"/>
    <path id="path-6" data-name="path" d="M19.835,15.305h5.21a10.89,10.89,0,0,0-2.472-6.414,17.6,17.6,0,0,1-3.384,1.425,22.4,22.4,0,0,1,.646,4.989Z" transform="translate(-0.456 -0.153)"/>
    <path id="path-7" data-name="path" d="M9.1,15.347H13.36V11.093A17.5,17.5,0,0,1,9.71,10.6,21.273,21.273,0,0,0,9.1,15.347Z" transform="translate(-0.207 -0.195)"/>
    <path id="path-8" data-name="path" d="M18.763,16.533h-4.23v4.25a17.521,17.521,0,0,1,3.623.486A21.255,21.255,0,0,0,18.763,16.533Z" transform="translate(-0.341 -0.341)"/>
    <path id="path-9" data-name="path" d="M9.709,21.275a17.459,17.459,0,0,1,3.651-.493v-4.25H9.1A21.249,21.249,0,0,0,9.709,21.275Z" transform="translate(-0.207 -0.341)"/>
    <path id="path-10" data-name="path" d="M13.381,27V21.864a16.536,16.536,0,0,0-3.391.456C10.814,24.929,12.1,26.634,13.381,27Z" transform="translate(-0.229 -0.472)"/>
    <path id="path-11" data-name="path" d="M16.609,26.792a10.936,10.936,0,0,0,5.248-2.973,16.638,16.638,0,0,0-2.988-1.237A10.661,10.661,0,0,1,16.609,26.792Z" transform="translate(-0.392 -0.49)"/>
    <path id="path-12" data-name="path" d="M11.221,5.111A10.925,10.925,0,0,0,6.013,8.072,16.646,16.646,0,0,0,8.972,9.3a10.671,10.671,0,0,1,2.248-4.188Z" transform="translate(-0.131 -0.06)"/>
    <path id="path-13" data-name="path" d="M19.19,21.518a17.523,17.523,0,0,1,3.386,1.426,10.884,10.884,0,0,0,2.469-6.41h-5.21a22.375,22.375,0,0,1-.646,4.984Z" transform="translate(-0.456 -0.341)"/>
    <path id="path-14" data-name="path" d="M14.533,21.864v5.123c1.268-.382,2.546-2.081,3.363-4.672a16.608,16.608,0,0,0-3.363-.45Z" transform="translate(-0.341 -0.472)"/>
    <path id="path-15" data-name="path" d="M8.634,10.311A17.449,17.449,0,0,1,5.277,8.894a10.881,10.881,0,0,0-2.469,6.411H7.987A22.44,22.44,0,0,1,8.634,10.311Z" transform="translate(-0.053 -0.153)"/>
    <path id="path-16" data-name="path" d="M7.987,16.533H2.808a10.878,10.878,0,0,0,2.469,6.411,17.54,17.54,0,0,1,3.357-1.418A22.439,22.439,0,0,1,7.987,16.533Z" transform="translate(-0.053 -0.341)"/>
    <path id="path-17" data-name="path" d="M6.01,23.818a10.931,10.931,0,0,0,5.211,2.964A10.664,10.664,0,0,1,8.971,22.59,16.554,16.554,0,0,0,6.01,23.818Z" transform="translate(-0.131 -0.49)"/>
  </g>
</svg>
