<svg xmlns="http://www.w3.org/2000/svg" viewBox="654 353 26 26">
  <g id="global" transform="translate(651.328 350.328)">
    <path id="path" d="M15.672,2.672h-.031a13,13,0,0,0,0,26h.031a13,13,0,0,0,0-26Zm.52,7.78A19.131,19.131,0,0,0,20.2,9.917a23.255,23.255,0,0,1,.669,5.235h-4.68v-4.7Zm0-1.04V3.795c1.4.388,2.822,2.257,3.727,5.123A18.045,18.045,0,0,1,16.192,9.412Zm-1.04-5.63v5.63a18,18,0,0,1-3.757-.5c.913-2.883,2.346-4.759,3.757-5.127Zm0,6.669v4.7H10.44a23.235,23.235,0,0,1,.67-5.241,19.163,19.163,0,0,0,4.042.539Zm-5.759,4.7H3.725a11.908,11.908,0,0,1,2.7-7.063A19.064,19.064,0,0,0,10.1,9.639a24.51,24.51,0,0,0-.71,5.513Zm0,1.04A24.509,24.509,0,0,0,10.1,21.7,19.154,19.154,0,0,0,6.43,23.255a11.9,11.9,0,0,1-2.7-7.063Zm1.047,0h4.712v4.7a19.118,19.118,0,0,0-4.043.541,23.265,23.265,0,0,1-.669-5.237Zm4.712,5.734v5.636c-1.412-.369-2.847-2.246-3.759-5.133A18.011,18.011,0,0,1,15.152,21.926Zm1.04,5.624V21.927a18.113,18.113,0,0,1,3.728.5C19.015,25.291,17.594,27.163,16.192,27.55Zm0-6.663v-4.7h4.68a23.269,23.269,0,0,1-.667,5.229,19.084,19.084,0,0,0-4.012-.535Zm5.727-4.7h5.7a11.9,11.9,0,0,1-2.7,7.062,19.245,19.245,0,0,0-3.7-1.56,24.493,24.493,0,0,0,.708-5.5Zm0-1.04a24.53,24.53,0,0,0-.709-5.507,19.2,19.2,0,0,0,3.7-1.559,11.9,11.9,0,0,1,2.708,7.066h-5.7Zm2.277-7.86a18.169,18.169,0,0,1-3.268,1.351,11.668,11.668,0,0,0-2.471-4.6,11.967,11.967,0,0,1,5.738,3.25ZM12.846,4.052a11.674,11.674,0,0,0-2.459,4.581A18.115,18.115,0,0,1,7.15,7.292a11.957,11.957,0,0,1,5.7-3.24Zm-5.7,20a18.078,18.078,0,0,1,3.24-1.343,11.671,11.671,0,0,0,2.46,4.586,11.955,11.955,0,0,1-5.7-3.244ZM18.457,27.3a11.66,11.66,0,0,0,2.473-4.6A18.044,18.044,0,0,1,24.2,24.049,11.947,11.947,0,0,1,18.457,27.3Z" transform="translate(0 0)"/>
  </g>
</svg>
