<svg xmlns="http://www.w3.org/2000/svg" xmlns:xlink="http://www.w3.org/1999/xlink" viewBox="-589 -674 32 32">
  <defs>
    <style>
      .cls-1 {
        clip-path: url(#clip-icon-grading);
      }

      .cls-2 {
        fill: #fff;
      }
    </style>
    <clipPath id="clip-icon-grading">
      <rect x="-589" y="-674" width="32" height="32"/>
    </clipPath>
  </defs>
  <g id="icon-grading" class="cls-1">
    <path id="path-2" class="cls-2" d="M-502-272v-17h13v17Zm12-1v-5h-2v5Zm-3,0v-2h-8v2Zm0-3v-2h-2v2Zm-3,0v-2h-2v2Zm-3,0v-2h-2v2Zm9-3v-2h-2v2Zm-3,0v-2h-2v2Zm-3,0v-2h-2v2Zm-3,0v-2h-2v2Zm9-3v-2h-2v2Zm-3,0v-2h-2v2Zm-3,0v-2h-2v2Zm-3,0v-2h-2v2Zm9-3v-3h-11v3h11Z" transform="translate(-77 -377)"/>
  </g>
</svg>
