<svg xmlns="http://www.w3.org/2000/svg" viewBox="654 433 26 26">
  <g id="help1" transform="translate(651.328 430.328)">
    <path id="path" d="M15.672,2.672a13,13,0,1,0,13,13,13,13,0,0,0-13-13Zm0,24.96a11.96,11.96,0,1,1,11.96-11.96A11.974,11.974,0,0,1,15.672,27.632Z" transform="translate(0 0)"/>
    <path id="path-2" data-name="path" d="M15.851,9.013c-2.639,0-4.113,1.631-4.132,4.216h1.147c-.036-1.875.946-3.25,2.931-3.25a2.481,2.481,0,0,1,2.6,2.457,3.251,3.251,0,0,1-1.183,2.348c-1.383,1.284-1.77,1.887-1.841,3.646h1.162c.068-1.595.033-1.563,1.425-2.954a4.061,4.061,0,0,0,1.583-3.095,3.4,3.4,0,0,0-3.694-3.367Z" transform="translate(-0.223 -0.156)"/>
    <path id="path-3" data-name="path" d="M15.974,20.8a1.04,1.04,0,1,0,1.04,1.04A1.04,1.04,0,0,0,15.974,20.8Z" transform="translate(-0.302 -0.446)"/>
  </g>
</svg>
