<svg xmlns="http://www.w3.org/2000/svg" viewBox="694 433 26 26">
  <g id="help1" transform="translate(693.328 430.328)">
    <path id="path" d="M13.672,2.672a13,13,0,1,0,13,13,13,13,0,0,0-13-13Zm0,19.76a1.04,1.04,0,1,1,1.04-1.04A1.04,1.04,0,0,1,13.672,22.432Zm2.067-7.114c-1.392,1.392-1.357,1.36-1.425,2.953H13.152c.069-1.759.457-2.361,1.841-3.646a3.251,3.251,0,0,0,1.183-2.348,2.481,2.481,0,0,0-2.6-2.457c-1.984,0-2.967,1.375-2.931,3.251H9.5c.019-2.584,1.492-4.216,4.132-4.216a3.4,3.4,0,0,1,3.694,3.367,4.064,4.064,0,0,1-1.583,3.095Z" transform="translate(0 0)"/>
  </g>
</svg>
