<svg xmlns="http://www.w3.org/2000/svg" xmlns:xlink="http://www.w3.org/1999/xlink" width="147.657" height="200.001" viewBox="0 0 147.6567 200.001"><linearGradient id="a" gradientUnits="userSpaceOnUse" y1="109.996" x2="147.657" y2="109.996" gradientTransform="matrix(1 0 0 -1 0 209.996)"><stop offset="0" stop-color="#e04c5a"/><stop offset=".25" stop-color="#fca92f"/><stop offset=".367" stop-color="#c2af42"/><stop offset=".512" stop-color="#7eb558"/><stop offset=".527" stop-color="#7db55d"/><stop offset=".67" stop-color="#71b784"/><stop offset=".802" stop-color="#68b9a1"/><stop offset=".916" stop-color="#63bab2"/><stop offset="1" stop-color="#61bab8"/></linearGradient><path fill="url(#a)" d="M46.317.001a4.082 4.082 0 0 0-4.081 4.082v187.756H29.251V4.083a4.08 4.08 0 0 0-4.08-4.082H4.081A4.082 4.082 0 0 0 0 4.083v191.838a4.081 4.081 0 0 0 8.163 0V8.165h12.926v187.756a4.082 4.082 0 0 0 4.082 4.08h21.146a4.082 4.082 0 0 0 4.082-4.08V8.165h15.573c43.285 0 73.52 26.358 73.52 64.103 0 36.333-28.344 62.061-69.439 63.653v-12.264c31.783-1.675 54.436-22.832 54.436-51.546 0-30.41-24.062-51.649-58.514-51.649a4.086 4.086 0 0 0-4.083 4.085l.021 21.305a4.081 4.081 0 0 0 4.082 4.076c12.928 0 25.975 6.86 25.975 22.186 0 13.061-10.682 22.184-25.975 22.184a4.082 4.082 0 1 0 0 8.162c19.781 0 34.137-12.764 34.137-30.346 0-16.635-12.162-28.6-30.059-30.172l-.012-13.2c27.443 1.567 46.264 18.962 46.264 43.372 0 25.603-20.705 43.485-50.35 43.485a4.08 4.08 0 0 0-4.083 4.08v20.403a4.081 4.081 0 0 0 4.083 4.08c47.33 0 81.682-30.235 81.682-71.896C147.657 29.718 114.067 0 65.975 0L46.317.001z"/><g><defs><path id="b" d="M46.317.001a4.082 4.082 0 0 0-4.081 4.082v187.756H29.251V4.083a4.08 4.08 0 0 0-4.08-4.082H4.081A4.082 4.082 0 0 0 0 4.083v191.838a4.081 4.081 0 0 0 8.163 0V8.165h12.926v187.756a4.082 4.082 0 0 0 4.082 4.08h21.146a4.082 4.082 0 0 0 4.082-4.08V8.165h15.573c43.285 0 73.52 26.358 73.52 64.103 0 36.333-28.344 62.061-69.439 63.653v-12.264c31.783-1.675 54.436-22.832 54.436-51.546 0-30.41-24.062-51.649-58.514-51.649a4.086 4.086 0 0 0-4.083 4.085l.021 21.305a4.081 4.081 0 0 0 4.082 4.076c12.928 0 25.975 6.86 25.975 22.186 0 13.061-10.682 22.184-25.975 22.184a4.082 4.082 0 1 0 0 8.162c19.781 0 34.137-12.764 34.137-30.346 0-16.635-12.162-28.6-30.059-30.172l-.012-13.2c27.443 1.567 46.264 18.962 46.264 43.372 0 25.603-20.705 43.485-50.35 43.485a4.08 4.08 0 0 0-4.083 4.08v20.403a4.081 4.081 0 0 0 4.083 4.08c47.33 0 81.682-30.235 81.682-71.896C147.657 29.718 114.067 0 65.975 0L46.317.001z"/></defs><clipPath id="c"><use xlink:href="#b" overflow="visible"/></clipPath><linearGradient id="d" gradientUnits="userSpaceOnUse" y1="109.995" x2="147.654" y2="109.995" gradientTransform="matrix(1 0 0 -1 0 209.996)"><stop offset="0" stop-color="#e04c5a"/><stop offset=".25" stop-color="#fca92f"/><stop offset=".367" stop-color="#c2af42"/><stop offset=".512" stop-color="#7eb558"/><stop offset=".527" stop-color="#7db55d"/><stop offset=".67" stop-color="#71b784"/><stop offset=".802" stop-color="#68b9a1"/><stop offset=".916" stop-color="#63bab2"/><stop offset="1" stop-color="#61bab8"/></linearGradient><path clip-path="url(#c)" fill="url(#d)" d="M0 .001h147.654v200H0z"/></g></svg>