<svg xmlns="http://www.w3.org/2000/svg" xmlns:xlink="http://www.w3.org/1999/xlink" viewBox="692 271 30 30">
  <defs>
    <style>
      .cls-1 {
        clip-path: url(#clip-settings-f);
      }
    </style>
    <clipPath id="clip-settings-f">
      <rect x="692" y="271" width="30" height="30"/>
    </clipPath>
  </defs>
  <g id="settings-f" class="cls-1">
    <path id="path-17" d="M28.18,17.6V12.4h-2.9A10.32,10.32,0,0,0,24.2,9.66l2-2L22.53,4l-2,2a10.35,10.35,0,0,0-2.78-1.17V2h-5.2V4.77A10.35,10.35,0,0,0,9.8,5.94l-2-2L4.15,7.64l2,2A10.31,10.31,0,0,0,5.08,12.4H2.18v5.2h3a10.36,10.36,0,0,0,1.13,2.61L4.15,22.35,7.82,26,10,23.84a10.33,10.33,0,0,0,2.57,1V28h5.2V24.89a10.33,10.33,0,0,0,2.57-1L22.53,26l3.68-3.68-2.14-2.14a10.33,10.33,0,0,0,1.13-2.61h3Zm-8.93-2.5a4,4,0,1,1-4-4A4,4,0,0,1,19.25,15.1Z" transform="translate(691.8 271)"/>
  </g>
</svg>
