<svg xmlns="http://www.w3.org/2000/svg" xmlns:xlink="http://www.w3.org/1999/xlink" viewBox="652 271 30 30">
  <defs>
    <style>
      .cls-1 {
        clip-path: url(#clip-settings-s);
      }
    </style>
    <clipPath id="clip-settings-s">
      <rect x="652" y="271" width="30" height="30"/>
    </clipPath>
  </defs>
  <g id="settings-s" class="cls-1">
    <path id="path-18" d="M16.56,3V5.57l.78.2a9.32,9.32,0,0,1,2.5,1.05l.7.42,1.81-1.81,2.21,2.21L22.72,9.49l.4.69a9.3,9.3,0,0,1,1,2.47l.19.8H27v3.12H24.23l-.21.76a9.27,9.27,0,0,1-1,2.35l-.42.7,2,2-2.21,2.21-2-2-.69.4a9.29,9.29,0,0,1-2.31.94l-.78.2V27H13.44V24.08l-.78-.2a9.29,9.29,0,0,1-2.31-.94l-.69-.4-2,2L5.44,22.35l2-2L7,19.67a9.29,9.29,0,0,1-1-2.35l-.21-.76H3V13.44H5.72l.19-.8a9.28,9.28,0,0,1,1-2.47l.4-.69L5.44,7.64l2.21-2.2L9.46,7.25l.7-.42a9.29,9.29,0,0,1,2.5-1.05l.78-.2V3Zm1-1H12.4V4.77A10.35,10.35,0,0,0,9.62,5.94l-2-2L4,7.65l2,2A10.31,10.31,0,0,0,4.9,12.4H2v5.2H5a10.33,10.33,0,0,0,1.13,2.61L4,22.35,7.65,26l2.19-2.19a10.33,10.33,0,0,0,2.57,1V28h5.2V24.89a10.33,10.33,0,0,0,2.57-1L22.35,26,26,22.35l-2.14-2.14A10.33,10.33,0,0,0,25,17.6h3V12.4H25.1A10.32,10.32,0,0,0,24,9.66l2-2L22.35,4l-2,2A10.35,10.35,0,0,0,17.6,4.77V2h0ZM15,11a4,4,0,1,1-4,4,4,4,0,0,1,4-4m0-1a5,5,0,1,0,5,5A5,5,0,0,0,15,10Z" transform="translate(652 271)"/>
  </g>
</svg>
