<svg xmlns="http://www.w3.org/2000/svg" xmlns:xlink="http://www.w3.org/1999/xlink" viewBox="692 471 30 30">
  <defs>
    <style>
      .cls-1 {
        clip-path: url(#clip-user-f);
      }
    </style>
    <clipPath id="clip-user-f">
      <rect x="692" y="471" width="30" height="30"/>
    </clipPath>
  </defs>
  <g id="user-f" class="cls-1">
    <g id="user" transform="translate(693.795 469.795)">
      <path id="path" d="M13.2,3.2a13,13,0,1,0,13,13A13,13,0,0,0,13.2,3.2Zm9.162,20.61c-1.188-.5-3.993-1.469-5.728-1.982-.148-.047-.172-.054-.172-.671a3.555,3.555,0,0,1,.414-1.455,7.459,7.459,0,0,0,.578-1.975,4.427,4.427,0,0,0,.852-2.058,2.71,2.71,0,0,0-.026-1.727.928.928,0,0,1-.039-.109,11.275,11.275,0,0,1,.192-2.429A4.451,4.451,0,0,0,17.5,8.2a4.79,4.79,0,0,0-3.661-1.752h-1.1A4.769,4.769,0,0,0,9.121,8.2a4.453,4.453,0,0,0-.935,3.21,11.442,11.442,0,0,1,.194,2.425,1.129,1.129,0,0,1-.041.113,2.711,2.711,0,0,0-.026,1.727,4.432,4.432,0,0,0,.852,2.058,7.383,7.383,0,0,0,.578,1.975,3.5,3.5,0,0,1,.238,1.477c0,.617-.022.624-.162.668-1.8.53-4.653,1.563-5.718,2.029a11.916,11.916,0,1,1,18.267-.066Z"/>
    </g>
  </g>
</svg>
