<svg xmlns="http://www.w3.org/2000/svg" xmlns:xlink="http://www.w3.org/1999/xlink" viewBox="652 471 30 30">
  <defs>
    <style>
      .cls-1 {
        clip-path: url(#clip-user-s);
      }
    </style>
    <clipPath id="clip-user-s">
      <rect x="652" y="471" width="30" height="30"/>
    </clipPath>
  </defs>
  <g id="user-s" class="cls-1">
    <g id="user" transform="translate(650.795 469.795)">
      <path id="path" d="M16.2,3.2a13,13,0,1,0,13,13A13,13,0,0,0,16.2,3.2Zm0,1.083a11.91,11.91,0,0,1,9.162,19.527c-1.188-.5-3.993-1.469-5.728-1.982-.148-.047-.172-.054-.172-.671a3.555,3.555,0,0,1,.414-1.455,7.459,7.459,0,0,0,.578-1.975,4.454,4.454,0,0,0,.852-2.058,2.71,2.71,0,0,0-.026-1.727c-.014-.037-.028-.072-.04-.109a11.343,11.343,0,0,1,.192-2.429A4.448,4.448,0,0,0,20.5,8.2a4.79,4.79,0,0,0-3.661-1.752h-1.1A4.767,4.767,0,0,0,12.119,8.2a4.452,4.452,0,0,0-.935,3.21,11.369,11.369,0,0,1,.194,2.425.779.779,0,0,1-.041.113,2.713,2.713,0,0,0-.025,1.727,4.432,4.432,0,0,0,.852,2.058,7.383,7.383,0,0,0,.578,1.975,3.517,3.517,0,0,1,.238,1.477c0,.617-.023.624-.162.668-1.8.53-4.652,1.563-5.718,2.029A11.907,11.907,0,0,1,16.2,4.288ZM7.885,24.725c1.22-.5,3.652-1.366,5.25-1.837.929-.293.929-1.075.929-1.7a4.675,4.675,0,0,0-.34-1.939,6.137,6.137,0,0,1-.5-1.8.535.535,0,0,0-.183-.361,3.228,3.228,0,0,1-.664-1.619c-.157-.785-.09-.957-.026-1.124a2.223,2.223,0,0,0,.075-.219,10.625,10.625,0,0,0-.173-2.9,3.39,3.39,0,0,1,.722-2.348A3.7,3.7,0,0,1,15.78,7.531h1.027a3.724,3.724,0,0,1,2.842,1.337,3.384,3.384,0,0,1,.721,2.349,10.658,10.658,0,0,0-.173,2.9c.022.079.048.149.075.22.065.166.131.338-.025,1.124a3.225,3.225,0,0,1-.665,1.619.546.546,0,0,0-.183.361,6.1,6.1,0,0,1-.5,1.8,4.6,4.6,0,0,0-.516,1.916c0,.629,0,1.411.939,1.707,1.529.452,3.973,1.291,5.263,1.8a11.89,11.89,0,0,1-16.7.059Z"/>
    </g>
  </g>
</svg>
