<?xml version="1.0" encoding="UTF-8" standalone="no"?>
<svg width="24px" height="24px" viewBox="0 0 24 24" version="1.1" xmlns="http://www.w3.org/2000/svg" xmlns:xlink="http://www.w3.org/1999/xlink">
    <!-- Generator: Sketch 44.1 (41455) - http://www.bohemiancoding.com/sketch -->
    <title>alert-birthday-s</title>
    <desc>Created with Sketch.</desc>
    <defs></defs>
    <g id="PDS" stroke="none" stroke-width="1" fill="none" fill-rule="evenodd">
        <g id="alert-birthday-s" fill="#000000">
            <path d="M12.0001779,6.00722843 C11.1434379,6.00722843 11.1434379,5.4797693 11.1434379,4.71246364 C11.1434379,3.94414167 11.7166305,3 12.0001779,3 C12.2837252,3 12.8559015,3.94414167 12.8559015,4.71246364 C12.8559015,5.4797693 12.8559015,6.00722843 12.0001779,6.00722843 Z M16.1536898,6.97088304 C15.2979661,6.97088304 15.2979661,6.44342391 15.2979661,5.67611825 C15.2979661,4.90677998 15.8701424,3.96263831 16.1536898,3.96263831 C16.4372372,3.96263831 17.0094135,4.90677998 17.0094135,5.67611825 C17.0094135,6.44342391 17.0094135,6.97088304 16.1536898,6.97088304 Z M7.84615775,6.97088304 C6.99043409,6.97088304 6.99043409,6.44342391 6.99043409,5.67611825 C6.99043409,4.90677998 7.56261036,3.96263831 7.84615775,3.96263831 C8.12970515,3.96263831 8.70289772,4.90677998 8.70289772,5.67611825 C8.70289772,6.44342391 8.70289772,6.97088304 7.84615775,6.97088304 Z M20.6276408,14.2041872 C20.6367875,15.0517804 20.6337386,15.8993737 20.6327223,16.78457 C20.6357712,18.1779158 20.6428853,20.3680399 20.6256082,21.3975507 C20.6164615,21.9270424 20.1967301,22.2542907 19.6052441,22.255307 C17.5462225,22.2573396 15.487201,22.2563233 13.4281794,22.2563233 C10.4483911,22.2563233 7.46758642,22.2563233 4.48779806,22.255307 C3.70728051,22.255307 3.37596707,21.9250098 3.37393447,21.143476 C3.37291818,20.1932365 3.37291818,18.1067749 3.37393447,16.78457 L3.37393447,15.9278301 C3.37393447,15.390208 3.38003227,14.8525858 3.36986928,14.3139474 C3.36580408,14.1299973 3.39934195,14.0273511 3.59752023,13.9490961 C4.29978277,13.6716465 4.65853628,13.1218288 4.73272609,12.3819632 C4.77439435,11.966297 4.88313833,11.8138522 5.188028,11.8138522 C5.48885247,11.8128359 5.61995503,11.9713785 5.65450919,12.3789143 C5.73276421,13.2966322 6.43096155,14.0110904 7.302946,14.0649542 C8.26233215,14.1259321 9.05199639,13.5324136 9.24407688,12.6025001 C9.26948436,12.4815605 9.26440286,12.3555395 9.27863105,12.2325673 C9.31013631,11.9693459 9.45038556,11.8179173 9.72478626,11.8138522 C10.0002033,11.8087707 10.1435014,11.9581666 10.1851697,12.2183391 C10.2156586,12.4114359 10.2176912,12.6136794 10.2735877,12.7986458 C10.5246135,13.6411576 11.3427341,14.15947 12.2421586,14.0598727 C13.0745074,13.9684058 13.7533951,13.2488662 13.8092915,12.3921262 C13.824536,12.1543123 13.8489272,11.9286939 14.1121486,11.8362107 C14.453625,11.7162875 14.7107486,11.9266613 14.7341235,12.3382624 C14.7788407,13.1330081 15.2951205,13.7895372 16.0421002,14.00296 C17.1539312,14.3210615 18.2627133,13.5486744 18.3511313,12.3972077 C18.3836528,11.9815415 18.4883316,11.837227 18.7698464,11.8158848 C19.0605079,11.7945425 19.2525884,11.945971 19.2668166,12.2406977 C19.3064522,13.0923562 19.7017925,13.6838421 20.502636,14.00296 C20.563614,14.0263348 20.6276408,14.1350788 20.6276408,14.2041872 Z M20.8868986,9.5324644 C21.6643673,9.5324644 21.9987296,9.86784303 21.9997459,10.6483606 C21.9997459,11.1453307 22.0007622,11.6412846 21.9987296,12.1372385 C21.996697,12.7348222 21.6389598,13.1504885 21.1135333,13.1687818 C20.6033512,13.1880915 20.235451,12.8130772 20.1826035,12.220575 C20.1155278,11.4695301 19.6358347,10.9583317 18.93967,10.8993864 C18.2729779,10.8414574 17.6835245,11.244928 17.5077048,11.88418 C17.4802647,11.9837773 17.4690855,12.0884561 17.4619714,12.190086 C17.4182705,12.7825883 17.0656148,13.1637003 16.5503513,13.1687818 C16.0472833,13.172847 15.6946276,12.8110446 15.6356823,12.2287054 C15.5492968,11.3770469 14.9832184,10.8567019 14.1905052,10.8983701 C13.5146665,10.9329243 12.9851747,11.4451389 12.9252131,12.1189451 C12.9170827,12.2124446 12.9130175,12.3059441 12.8967567,12.3963947 C12.8164691,12.8466151 12.455683,13.1616677 12.0176582,13.1697981 C11.5704867,13.1779285 11.1914072,12.8567781 11.1111196,12.3923295 C11.0846958,12.2398847 11.088761,12.081342 11.0562394,11.9309298 C10.9149739,11.2947267 10.3275531,10.8658485 9.65679586,10.8983701 C9.00128308,10.9308917 8.47890545,11.4075359 8.39252004,12.0518694 C8.37930815,12.1433363 8.37321036,12.2368358 8.36203107,12.329319 C8.30003684,12.8262891 7.91790846,13.1779285 7.44939467,13.1697981 C6.98088088,13.1616677 6.60383399,12.7998653 6.55098645,12.3069604 C6.53675826,12.1748415 6.53879086,12.0366249 6.50626929,11.9085712 C6.34162887,11.2703355 5.78164818,10.8658485 5.1210539,10.8973538 C4.4767204,10.9278428 3.96958726,11.373998 3.85474548,12.01325 C3.8364521,12.1158962 3.82730541,12.2195587 3.81815872,12.3211886 C3.77039267,12.8140935 3.39131319,13.1708144 2.914669,13.1687818 C2.4563182,13.1657329 2.03861936,12.8120609 2.02032598,12.3455797 C1.99390221,11.6839692 1.99186961,11.020326 2.02235858,10.3587154 C2.04573345,9.85259855 2.45123671,9.534497 3.0071522,9.5334807 C4.44216624,9.5294155 5.87616398,9.5314481 7.31117802,9.5324644 L7.31117802,7.79459329 C7.31117802,7.61267579 7.45854136,7.46632875 7.63944256,7.46632875 L8.05307621,7.46632875 C8.23397741,7.46632875 8.38134075,7.61267579 8.38134075,7.79459329 L8.38134075,9.5324644 L11.4647916,9.5324644 L11.4647916,6.83114194 C11.4647916,6.64922444 11.6121549,6.5028774 11.7940724,6.5028774 L12.2066898,6.5028774 C12.387591,6.5028774 12.5349543,6.64922444 12.5349543,6.83114194 L12.5349543,9.5324644 L15.6184052,9.5324644 L15.6184052,7.79459329 C15.6184052,7.61267579 15.7657685,7.46632875 15.947686,7.46632875 L16.3603034,7.46632875 C16.5422209,7.46632875 16.6885679,7.61267579 16.6885679,7.79459329 L16.6885679,9.5324644 C18.0880115,9.5324644 19.4874551,9.5314481 20.8868986,9.5324644 Z" id="Combined-Shape"></path>
        </g>
    </g>
</svg>