<?xml version="1.0" encoding="UTF-8"?>
<svg width="26px" height="23px" viewBox="0 0 26 23" version="1.1" xmlns="http://www.w3.org/2000/svg" xmlns:xlink="http://www.w3.org/1999/xlink">
    <!-- Generator: Sketch 42 (36781) - http://www.bohemiancoding.com/sketch -->
    <title>Path_3</title>
    <desc>Created with Sketch.</desc>
    <defs></defs>
    <g id="Page-1" stroke="none" stroke-width="1" fill="none" fill-rule="evenodd">
        <g id="Icons" transform="translate(0.000000, -1.000000)" fill-rule="nonzero" fill="#000000">
            <path d="M12.5965368,1 L13.2233825,1 C13.2862283,1 13.349074,1.06284571 13.4119197,1.06284571 C14.1413666,1.27259001 14.6490332,1.93314462 14.6639997,2.69199996 C14.6613571,3.44998691 14.1857797,4.12570589 13.473154,4.38399992 C13.4254942,4.39058364 13.3813254,4.41266806 13.3474625,4.44684563 C13.4656738,4.49791421 13.5945274,4.51948197 13.7229254,4.50969135 C15.6593951,4.50598112 17.5696927,4.95692395 19.3000795,5.82622846 C20.1707118,6.31639146 21.2284752,6.33996447 22.1200795,5.88907417 C22.3846154,5.76255441 22.6897771,5.75141762 22.9628316,5.85831818 C23.2358862,5.96521874 23.4523739,6.18058064 23.5606966,6.45307416 C23.6902879,6.71637387 23.6950295,7.02389901 23.573617,7.29106877 C23.4522046,7.55823853 23.2174248,7.75691581 22.9338509,7.83245698 C22.5299917,8.01598061 22.1103924,8.16267857 21.6801595,8.27076554 C21.7430052,8.33361125 21.7430052,8.45930268 21.8058509,8.52214839 C22.8710052,10.5267655 23.8733137,12.5958397 24.938468,14.6004568 C25.0641594,14.788994 25.1898508,14.913074 25.4396223,14.8518397 C25.6798136,14.7971235 25.9227338,14.9317707 26.0036222,15.1644568 C25.9056755,15.5506568 25.7800569,15.8649729 25.6281594,16.1667654 C25.2015798,16.8276607 24.5918208,17.3500713 23.8733137,17.6702282 C22.379588,18.3463273 20.7019539,18.5006969 19.109931,18.1085367 C18.0872277,17.9106649 17.1481255,17.4085373 16.4156225,16.6679196 C16.0340002,16.2925768 15.7721352,15.8125844 15.6630853,15.2885368 C15.6002396,14.9759197 15.7259311,14.8502282 16.0385482,14.8502282 L16.289931,14.8502282 C16.4255785,14.8690631 16.5559175,14.7904566 16.6025482,14.6616911 C17.6677024,12.5942283 18.7328567,10.4623083 19.8608567,8.39484554 C19.8674404,8.34718578 19.8895248,8.30301695 19.9237024,8.26915411 C19.1711653,8.08061698 18.4202396,7.83084555 17.6677024,7.64230841 C17.1037025,7.45377128 16.6025482,7.26684557 16.0385482,7.07830843 C15.6286949,6.95846631 15.2092294,6.87435755 14.7848568,6.82692558 L14.7848568,20.0503081 C15.7457626,20.0699857 16.5200249,20.844248 16.5397025,21.8051538 L18.1688567,21.8051538 C18.6445065,21.7917218 19.1055834,21.9700926 19.448357,22.3001372 C19.7911306,22.6301817 19.9868136,23.084182 19.9913824,23.5599995 L6.07991986,23.5599995 C6.07863131,23.0941916 6.26310249,22.6470907 6.59247963,22.3177136 C6.92185677,21.9883364 7.36895769,21.8038652 7.83476553,21.8051538 C8.3983304,21.8364848 8.96320062,21.8364848 9.52676549,21.8051538 C9.56920498,20.8541127 10.3305701,20.0927476 11.2816112,20.0503081 L11.2816112,6.89138272 C10.7447218,6.89833831 10.2137263,7.0043189 9.71530263,7.20399985 C8.9627655,7.4553827 8.14899409,7.76799984 7.39645697,8.01938269 C6.9866075,8.13924052 6.56714065,8.22334955 6.14276557,8.27076554 C6.20561128,8.39645697 6.26845699,8.45930268 6.26845699,8.58338268 C7.27076554,10.5267655 8.3359198,12.5313826 9.33983978,14.4747654 C9.37294672,14.6244772 9.4642911,14.7548504 9.59369839,14.8370905 C9.72310568,14.9193307 9.8799287,14.9466713 10.0295312,14.913074 C10.1462693,14.8924761 10.2652049,14.9350724 10.3423233,15.025099 C10.4194417,15.1151257 10.4432716,15.2391913 10.404994,15.3513825 C10.3026025,15.7334071 10.1328936,16.0941067 9.90383977,16.4165368 C9.49813264,17.0023992 8.93265167,17.4593705 8.27468552,17.7330739 C6.4948379,18.5446141 4.46475656,18.6124768 2.63468565,17.921611 C1.36058289,17.5579608 0.36442971,16.5624168 0,15.2885368 C0.0246670895,15.1041016 0.10137429,14.999427 0.209886242,14.9392804 C0.318398193,14.8791338 0.447816271,14.8695561 0.563999987,14.913074 C0.815382838,14.9759197 0.939462835,14.8502282 1.06515426,14.6004568 C2.13030852,12.5958397 3.13261707,10.5267655 4.19777133,8.52214839 C4.26061704,8.45930268 4.26061704,8.33361125 4.32346275,8.27076554 C4.0720799,8.20791983 3.82230848,8.14507412 3.63377134,8.0822284 C3.42061009,8.00934702 3.21137949,7.92543964 3.00692564,7.83084555 C2.75063501,7.72221808 2.55106112,7.51190215 2.45600683,7.25027361 C2.36095253,6.98864506 2.37898006,6.69927067 2.50577137,6.45146273 C2.6250937,6.18915885 2.84662177,5.98715703 3.11879199,5.89247589 C3.3909622,5.79779476 3.69003185,5.81869379 3.94638848,5.95030845 C4.81594409,6.40124615 5.85543656,6.37755228 6.7035427,5.88746274 C8.28540952,5.09994895 10.0143276,4.65152797 11.7795426,4.57092563 C12.0921597,4.57092563 12.4063883,4.50807992 12.8446968,4.50807992 C12.7190054,4.4452342 12.7190054,4.4452342 12.6561597,4.4452342 C11.9161545,4.22384464 11.4239771,3.52453981 11.465314,2.75323424 C11.4834516,1.97428667 12.0240615,1.30530676 12.7818511,1.12408 C12.5336911,1.06284571 12.5965368,1 12.5965368,1 Z M2.57022851,14.8486168 L7.77191982,14.8486168 C6.89530269,13.2194626 6.07991986,11.653154 5.20330273,9.96115407 C4.26061704,11.653154 3.38399992,13.2194626 2.56861708,14.8486168 L2.57022851,14.8486168 Z M23.3753823,14.8486168 C22.4987652,13.2194626 21.6833823,11.653154 20.8067652,9.96115407 C19.9301481,11.5903083 19.0519195,13.2194626 18.2381481,14.8486168 L23.3753823,14.8486168 Z" id="Path_3"></path>
        </g>
    </g>
</svg>