<?xml version="1.0" encoding="UTF-8"?>
<svg width="26px" height="26px" viewBox="0 0 26 26" version="1.1" xmlns="http://www.w3.org/2000/svg" xmlns:xlink="http://www.w3.org/1999/xlink">
    <!-- Generator: Sketch 42 (36781) - http://www.bohemiancoding.com/sketch -->
    <title>alert-money</title>
    <desc>Created with Sketch.</desc>
    <defs></defs>
    <g id="Page-1" stroke="none" stroke-width="1" fill="none" fill-rule="evenodd">
        <g id="Icons" fill-rule="nonzero" fill="#000000">
            <path d="M13,1.44328993e-15 C5.82029825,2.06184276e-16 0,5.82029825 0,13 C0,20.1797017 5.82029825,26 13,26 C20.1797017,26 26,20.1797017 26,13 C25.9785838,5.82918787 20.1708121,0.0214162072 13,0 L13,1.44328993e-15 Z M17.2602857,18.3448571 C16.3514396,19.1378673 15.2124408,19.6188502 14.0102857,19.7172857 L14.0102857,21.6672857 L11.843,21.6672857 L11.843,19.7172857 C10.3282243,19.6308498 8.83891304,19.2892877 7.43785714,18.707 L7.43785714,15.2397143 C8.26846831,15.6627762 9.13951692,16.0012408 10.0378571,16.25 C10.8301249,16.5156892 11.6576376,16.6615368 12.493,16.6827143 C12.9370499,16.7069543 13.3809693,16.6327564 13.793,16.4654286 C14.0767931,16.3418257 14.2506694,16.0515344 14.2257143,15.743 C14.2369454,15.5130268 14.1270482,15.2939369 13.936,15.1654286 C13.6315677,14.9389406 13.289564,14.7679388 12.9257143,14.6602857 C12.4205714,14.5154286 11.843,14.2275714 11.0481429,13.9378571 C10.300404,13.681954 9.59451637,13.3171202 8.95328571,12.8551429 C8.4704572,12.4897994 8.07572112,12.0208123 7.79814286,11.4827143 C7.55410852,10.8871254 7.43161261,10.2487575 7.43785714,9.60514286 C7.38136556,8.59731124 7.77852194,7.61702301 8.52057143,6.93271429 C9.47659281,6.20333953 10.6407013,5.79860197 11.843,5.77757143 L11.843,4.33271429 L14.0102857,4.33271429 L14.0102857,5.70514286 C15.4530022,5.80863292 16.8686728,6.1500003 18.2,6.71542857 L16.9724286,9.67571429 C15.7536287,9.08987115 14.4243008,8.76956644 13.0724286,8.736 C12.6746838,8.69995465 12.2747487,8.7751836 11.9172857,8.95328571 C11.7108552,9.07621765 11.5766268,9.29139815 11.557,9.53085714 C11.5515511,9.74431397 11.6294932,9.95149343 11.7742857,10.1084286 C12.0402183,10.3137573 12.3317668,10.4835672 12.6415714,10.6135714 C13.0742857,10.8308571 13.5812857,10.9738571 14.3018571,11.2635714 C15.4512139,11.6075511 16.5107279,12.200397 17.4051429,13 C18.0501204,13.6790209 18.3895985,14.5921231 18.3448571,15.5275714 C18.4548584,16.5860977 18.051698,17.6333484 17.2602857,18.3448571 L17.2602857,18.3448571 Z" id="alert-money"></path>
        </g>
    </g>
</svg>