<?xml version="1.0" encoding="UTF-8"?>
<svg width="27px" height="25px" viewBox="0 0 27 25" version="1.1" xmlns="http://www.w3.org/2000/svg" xmlns:xlink="http://www.w3.org/1999/xlink">
    <!-- Generator: Sketch 42 (36781) - http://www.bohemiancoding.com/sketch -->
    <title>Alert-Other</title>
    <desc>Created with Sketch.</desc>
    <defs></defs>
    <g id="Page-1" stroke="none" stroke-width="1" fill="none" fill-rule="evenodd">
        <g id="Alert-Other" fill-rule="nonzero" fill="#000000">
            <path d="M26.221104,18.4229768 L21.63096,10.3236011 L17.040816,2.22422543 C16.2830616,0.874562806 14.8800547,0.0427325891 13.3614,0.0427325891 C11.8427453,0.0427325891 10.4397384,0.874562806 9.681984,2.22422543 L5.159232,10.3236011 L0.569088,18.4229768 C-0.189299946,19.7818708 -0.185333406,21.4519356 0.579500469,22.807025 C1.34433435,24.1621143 2.75448881,24.997509 4.281264,25 L22.507056,25 C24.0341656,24.9981921 25.4449309,24.1630675 26.2102207,22.8078537 C26.9755106,21.4526399 26.9796567,19.7821681 26.221104,18.4229768 L26.221104,18.4229768 Z M15.082704,21.6769331 C14.0740203,22.4125104 12.7217877,22.4125104 11.713104,21.6769331 C11.2867763,21.2675911 11.0632467,20.6828785 11.104704,20.0854701 C11.0763632,19.4901889 11.2978079,18.9109302 11.713104,18.4940071 C12.7217877,17.7584298 14.0740203,17.7584298 15.082704,18.4940071 C15.4876136,18.9137415 15.6857789,19.498701 15.62184,20.0854701 C15.7058247,20.6743648 15.5046269,21.2682759 15.082704,21.6769331 L15.082704,21.6769331 Z M15.28488,14.8234675 C15.2276648,15.5888286 14.6160053,16.1862562 13.867776,16.2075988 L12.997296,16.2075988 C12.2394661,16.2104457 11.6143146,15.59984 11.580192,14.8234675 L11.17584,7.20786592 C11.1389465,6.79938833 11.27167,6.39388559 11.5414114,6.09095546 C11.8111528,5.78802533 12.1929196,5.61573546 12.592944,5.61640291 L14.277744,5.61640291 C14.6670991,5.61087264 15.0411158,5.77185601 15.3099903,6.06069979 C15.5788648,6.34954358 15.7183114,6.74015856 15.694848,7.13875534 L15.28488,14.8234675 Z" id="Path_1"></path>
        </g>
    </g>
</svg>