<?xml version="1.0" encoding="UTF-8"?>
<svg width="25px" height="19px" viewBox="0 0 25 19" version="1.1" xmlns="http://www.w3.org/2000/svg" xmlns:xlink="http://www.w3.org/1999/xlink">
    <!-- Generator: Sketch 42 (36781) - http://www.bohemiancoding.com/sketch -->
    <title>alert-parent</title>
    <desc>Created with Sketch.</desc>
    <defs></defs>
    <g id="Page-1" stroke="none" stroke-width="1" fill="none" fill-rule="evenodd">
        <g id="Icons" transform="translate(-1.000000, -3.000000)" fill-rule="nonzero" fill="#000000">
            <g id="alert-parent" transform="translate(1.000000, 3.000000)">
                <path d="M11.5583786,18.5235908 C11.5596192,16.242847 12.5782582,14.0844996 14.3305956,12.6496677 C14.0318891,11.9862311 13.888524,11.2620086 13.9116571,10.53336 L13.9116571,10.53336 C13.3874951,10.2198251 12.84582,9.93727488 12.289354,9.68712927 C14.1056096,8.2814952 14.8347819,5.86133496 14.1023486,3.66970751 C13.3699153,1.47808006 11.3386926,0.00217329178 9.05197078,5.23467924e-05 C6.12031356,-0.012898627 3.73227223,2.37891814 3.71556136,5.3448985 C3.72572959,7.02283517 4.49687675,8.60313234 5.80736451,9.63159081 C2.30361789,10.9970847 -0.0056689774,14.40628 1.04523039e-05,18.2049754 L1.04523039e-05,18.2049754 C0.0172551014,18.6564811 0.389977469,19.0101239 0.836442791,18.9985908 L11.6710586,18.9985908 C11.584606,18.8563758 11.5451409,18.6900117 11.5583786,18.5235908 Z" id="Path_1"></path>
                <path d="M21.1347343,13.1246677 C22.2718271,12.2405408 22.7262077,10.7219999 22.2647154,9.34826886 C21.8032231,7.9745378 20.5283221,7.05062372 19.094215,7.05062372 C17.6601079,7.05062372 16.3852069,7.9745378 15.9237146,9.34826886 C15.4622223,10.7219999 15.9166029,12.2405408 17.0536957,13.1246677 C14.8586721,13.9696008 13.4034513,16.0935 13.3915956,18.4695139 L13.3915956,18.4695139 C13.3943169,18.6043506 13.4520543,18.7320404 13.5511106,18.8222907 C13.6501669,18.9125411 13.7817147,18.9573096 13.9145463,18.9459754 L24.227656,18.9459754 C24.4986389,18.9508477 24.7271151,18.7426826 24.7506067,18.4695139 L24.7506067,18.4695139 C24.7381123,16.1077424 23.3063369,13.991346 21.1347343,13.1246677 L21.1347343,13.1246677 Z" id="Path_2"></path>
            </g>
        </g>
    </g>
</svg>