<?xml version="1.0" encoding="UTF-8"?>
<svg width="24px" height="22px" viewBox="0 0 24 22" version="1.1" xmlns="http://www.w3.org/2000/svg" xmlns:xlink="http://www.w3.org/1999/xlink">
    <!-- Generator: Sketch 42 (36781) - http://www.bohemiancoding.com/sketch -->
    <title>kuken</title>
    <desc>Created with Sketch.</desc>
    <defs></defs>
    <g id="Page-1" stroke="none" stroke-width="1" fill="none" fill-rule="evenodd">
        <g id="Icons" transform="translate(-1.000000, -2.000000)" fill-rule="nonzero" fill="#000000">
            <g id="kuken" transform="translate(1.000000, 2.000000)">
                <path d="M12.0984286,3.34583333 C13.066,3.34583333 13.066,2.74816667 13.066,1.91216667 C13.066,1.07616667 12.4011429,0 12.0984286,0 C11.7957143,0 11.1308571,1.07616667 11.1308571,1.91216667 C11.1308571,2.74816667 11.1308571,3.34583333 12.0984286,3.34583333 Z" id="Path_11"></path>
                <path d="M16.8192857,4.422 C17.7868571,4.422 17.7868571,3.82433333 17.7868571,2.98833333 C17.7868571,2.15233333 17.122,1.07616667 16.8192857,1.07616667 C16.5165714,1.07616667 15.8517143,2.15233333 15.8517143,2.98833333 C15.8517143,3.82433333 15.8517143,4.422 16.8192857,4.422 Z" id="Path_12"></path>
                <path d="M7.43885714,4.422 C8.40642857,4.422 8.40642857,3.82433333 8.40642857,2.98833333 C8.40642857,2.15233333 7.74157143,1.07616667 7.43885714,1.07616667 C7.13614286,1.07616667 6.47128571,2.15233333 6.47128571,2.98833333 C6.47128571,3.82433333 6.47128571,4.422 7.43885714,4.422 Z" id="Path_13"></path>
                <path d="M21.9041429,15.422 L21.9041429,12.5473333 C21.889029,12.4577353 21.8469695,12.3746949 21.7834286,12.309 C20.9400947,12.0135482 20.3803282,11.2215025 20.3905714,10.3381667 C20.3905714,9.9715 20.1491429,9.85966667 19.8464286,9.85966667 C19.5437143,9.85966667 19.423,10.043 19.3617143,10.516 C19.3247862,11.1250489 19.007772,11.6839951 18.5010953,12.0334071 C17.9944187,12.3828191 17.3537071,12.4843354 16.7617143,12.309 C15.9081155,12.0885458 15.3118807,11.3283454 15.3094286,10.4573333 C15.3094286,9.97883333 15.0067143,9.7405 14.5832857,9.92016667 C14.2805714,10.0393333 14.2805714,10.2868333 14.2118571,10.5178333 C14.1352137,11.486711 13.3694958,12.2638226 12.3905314,12.3662597 C11.4115671,12.4686968 10.4978356,11.86732 10.2171429,10.9358333 C10.1558571,10.7525 10.1558571,10.5178333 10.0964286,10.2795 C10.0351429,9.98066667 9.91071429,9.801 9.55228571,9.801 C9.42038038,9.7890069 9.28990551,9.83555348 9.19623958,9.92801856 C9.10257365,10.0204836 9.05542257,10.1492858 9.06757143,10.2795 C9.07703924,10.4215334 9.05615929,10.5639454 9.00628571,10.6975 C8.80209356,11.7043337 7.86416842,12.3989564 6.82785714,12.3108333 C5.81139681,12.2154406 5.01605571,11.404643 4.95214286,10.3986667 C4.89085714,9.92016667 4.76642857,9.74233333 4.408,9.74233333 C4.04957143,9.74233333 3.92328571,9.92566667 3.86385714,10.3986667 C3.84975727,11.1817975 3.34275776,11.8732771 2.59357143,12.1311667 C2.35214286,12.1916667 2.35214286,12.3145 2.35214286,12.5491667 L2.35214286,15.2991667 L2.35214286,15.2991667 L2.35214286,20.1391667 C2.35214286,21.0356667 2.72357143,21.3931667 3.62242857,21.3931667 L20.6895714,21.3931667 C21.3544286,21.3931667 21.8391429,21.0265 21.8391429,20.438 C21.9004286,19.4223333 21.9004286,16.973 21.9004286,15.4201667 L21.9041429,15.422 Z" id="Path_14"></path>
                <path d="M22.205,7.28933333 L17.4841429,7.28933333 L17.4841429,5.37716667 C17.4747732,5.17861968 17.3138398,5.01974954 17.1127143,5.0105 L16.628,5.0105 C16.4268745,5.01974954 16.2659411,5.17861968 16.2565714,5.37716667 L16.2565714,7.28933333 L12.7465714,7.28933333 L12.7465714,4.31016667 C12.7372018,4.11161968 12.5762684,3.95274954 12.3751429,3.9435 L11.8904286,3.9435 C11.6893031,3.95274954 11.5283697,4.11161968 11.519,4.31016667 L11.519,7.28933333 L8.009,7.28933333 L8.009,5.37716667 C7.99963034,5.17861968 7.83869695,5.01974954 7.63757143,5.0105 L7.15285714,5.0105 C6.95173163,5.01974954 6.79079823,5.17861968 6.78142857,5.37716667 L6.78142857,7.28933333 L1.93985714,7.28933333 C1.67356936,7.25916571 1.4063788,7.33792105 1.20043943,7.50727926 C0.994500052,7.67663748 0.86776459,7.9218348 0.849714286,8.18583333 C0.78910618,8.92161903 0.78910618,9.66104763 0.849714286,10.3968333 C0.863011866,10.6513985 0.979615001,10.8899467 1.17320291,11.0586305 C1.36679082,11.2273143 1.62104452,11.3119142 1.87857143,11.2933333 C2.41974292,11.2845479 2.86535171,10.8708553 2.90742857,10.3381667 C2.8967632,10.2128194 2.91782301,10.0868206 2.96871429,9.9715 C3.0977433,9.27053838 3.70007887,8.75044183 4.421,8.7175 C5.15640103,8.66342642 5.822844,9.14422853 5.994,9.85233333 C6.04381975,9.98590142 6.06469804,10.1283021 6.05528571,10.2703333 C6.09736257,10.8030219 6.54297136,11.2167146 7.08414286,11.2255 C7.63417362,11.2389167 8.09282783,10.813113 8.113,10.2703333 C8.1037619,10.1669696 8.12504806,10.0631769 8.17428571,9.9715 C8.27864427,9.24737858 8.88676568,8.69695273 9.62657143,8.657 C10.3719581,8.56680586 11.0602441,9.0633665 11.1995714,9.79183333 C11.2497746,9.96634546 11.270481,10.1478361 11.2608571,10.329 C11.3270821,10.840494 11.7673643,11.2241362 12.2897143,11.2255 C12.7784421,11.2244055 13.191443,10.8675649 13.2572857,10.3895 C13.2480476,10.2861363 13.2693338,10.1823435 13.3185714,10.0906667 C13.3760054,9.33349967 14.0021275,8.74069766 14.7708571,8.71566667 C15.1920678,8.68515729 15.6071965,8.82869934 15.9170626,9.1119984 C16.2269287,9.39529747 16.4036999,9.79290751 16.4051429,10.2098333 C16.3955754,10.7846864 16.8521017,11.262205 17.434,11.286 C18.0394286,11.286 18.4015714,10.868 18.4628571,10.2098333 C18.4521918,10.0844861 18.4732516,9.95848727 18.5241429,9.84316667 C18.693602,9.11336045 19.4107688,8.64111073 20.1584286,8.767 C20.9448793,8.83272249 21.5493469,9.48202175 21.5494286,10.2611667 C21.5398611,10.8360198 21.9963874,11.3135384 22.5782857,11.3373333 C22.8709086,11.3319313 23.1480527,11.2065472 23.3432371,10.991258 C23.5384216,10.7759689 23.6340354,10.4901995 23.6071429,10.2025 L23.6071429,8.5305 C23.4158571,7.64683333 23.0537143,7.28933333 22.205,7.28933333 Z" id="Path_15"></path>
            </g>
        </g>
    </g>
</svg>