<?xml version="1.0" encoding="UTF-8"?>
<svg width="26px" height="26px" viewBox="0 0 26 26" version="1.1" xmlns="http://www.w3.org/2000/svg" xmlns:xlink="http://www.w3.org/1999/xlink">
    <!-- Generator: Sketch 42 (36781) - http://www.bohemiancoding.com/sketch -->
    <title>Path_59</title>
    <desc>Created with Sketch.</desc>
    <defs></defs>
    <g id="Page-1" stroke="none" stroke-width="1" fill="none" fill-rule="evenodd">
        <g id="Icons" fill-rule="nonzero" fill="#000000">
            <path d="M0.052562168,9.57840277 C-0.0529882921,9.23719518 0.00201413887,8.86904443 0.203278709,8.56960359 L2.92707162,4.10454054 C3.0835662,3.79427331 3.37080397,3.56209485 3.71718742,3.46587846 C4.06357088,3.36966208 4.43646942,3.4184717 4.74293356,3.60014095 L8.95573325,6.04933896 L8.95573325,6.04933896 L8.95573325,1.29654281 C8.95427791,0.952257073 9.096913,0.621671247 9.35195321,0.378222485 C9.60699342,0.134773724 9.9533196,-0.00137867221 10.313998,1.05273078e-05 L15.6707907,1.05273078e-05 C16.2031919,0.00933584383 16.6783808,0.321052315 16.8783389,0.792143219 C16.9630346,0.949105484 17.0142625,1.1205488 17.0290554,1.29654281 L17.0290554,6.04933896 L21.2545662,3.60014095 C21.4592172,3.48461541 21.6970637,3.43423033 21.9336985,3.4562744 C22.4095671,3.44832539 22.8485902,3.69990179 23.0649805,4.10454054 L25.7887734,8.56960359 C26.1600453,9.18968139 25.9620124,9.9784551 25.3366238,10.3705355 L20.80968,12.9705334 L25.3366238,15.5705313 C25.6516035,15.7480024 25.8776018,16.039939 25.9628432,16.3794596 C26.0480847,16.7189801 25.9852641,17.0769874 25.7887734,17.3714631 L23.0649805,21.8365262 C22.8485902,22.2411649 22.4095671,22.4927413 21.9336985,22.4847923 C21.7007667,22.4714784 21.471531,22.4229174 21.2545662,22.3409258 L17.0290554,19.8778611 L17.0290554,24.7034572 C17.0305108,25.0477429 16.8878757,25.3783288 16.6328355,25.6217775 C16.3777953,25.8652263 16.0314691,26.0013787 15.6707907,25.9999895 L10.313998,25.9999895 C9.9533196,26.0013787 9.60699342,25.8652263 9.35195321,25.6217775 C9.096913,25.3783288 8.95427791,25.0477429 8.95573325,24.7034572 L8.95573325,19.8778611 L4.73022252,22.3270591 C4.52557145,22.4425846 4.28772503,22.4929697 4.05109016,22.4709257 C3.57522162,22.4788747 3.13619846,22.2272983 2.91980817,21.8226595 L0.196015261,17.3575965 C0.135903228,17.2732451 0.108896008,17.1713537 0.11974906,17.0698634 L0.11974906,16.8531969 C0.0412877052,16.3461194 0.276025214,15.8412897 0.722615223,15.5566646 L5.0988425,12.9566667 L0.660875917,10.3705355 C0.342672627,10.2093942 0.120200491,9.9170782 0.0580097538,9.57840277 L0.052562168,9.57840277 Z M10.313998,7.70640429 C10.9202906,8.63690797 11.7125395,9.44439019 12.6455647,10.0828024 L12.6455647,14.4039989 C11.8157158,15.1250649 10.7588842,15.6277312 10.7588842,16.4839972 C10.7588842,17.1322633 11.8157158,17.8515961 12.6455647,18.7165287 L12.6455647,22.3183925 C12.418582,22.5350589 12.1171489,22.822792 12.1171489,23.0394585 C12.1171489,23.7605246 12.5692985,23.8315912 12.5692985,23.8315912 L12.5692985,23.9199912 C12.5859581,24.1514504 12.7789683,24.3356883 13.0214481,24.3515908 L13.0214481,24.3515908 C13.2484309,24.3515908 13.3991474,24.0638577 13.3991474,23.7761246 L13.3991474,22.3357258 C14.0020136,21.8313262 14.8318625,21.3997265 14.8318625,20.6786604 C14.7584307,20.0668555 14.4954096,19.4898842 14.0764639,19.0215951 L14.0001977,20.6786604 C14.0001977,20.8953269 13.6987646,20.6786604 13.4717819,20.8953269 L13.4717819,15.8443977 C13.0940826,16.0610642 12.7163833,15.9882642 12.4912164,16.2049307 L12.4912164,17.0715967 C12.3254438,16.8345442 12.22204,16.5628105 12.1897834,16.279464 C12.1897834,15.1267983 15.8106121,14.0469325 15.8106121,12.174934 C15.7250342,11.1816508 15.1694457,10.2798861 14.3016308,9.72573598 L14.3016308,11.5960011 C14.408718,11.6887729 14.4672356,11.8220704 14.4614267,11.9600008 C14.4614267,12.3205339 13.8585605,12.535467 13.4808612,12.8960001 L13.4808612,7.85027084 C13.2538785,7.56253774 13.1031619,7.63360435 12.7254626,7.63360435 L12.3513951,7.63360435 L12.3513951,8.065204 C12.2751289,7.92133745 12.2006785,7.8485375 12.2006785,7.70467095 C12.2006785,6.76867171 15.2186411,7.34413791 15.6707907,6.83800499 C15.9172772,6.31483288 15.897834,5.71249151 15.6180718,5.20479735 C15.3383096,4.6971032 14.8293549,4.34054243 14.2380756,4.2380071 L14.2380756,2.88080819 C14.1787866,2.28132623 13.7209636,1.7868828 13.1049778,1.65707585 L13.1049778,1.65707585 C12.504023,1.81014824 12.0580392,2.29257861 11.9736958,2.88080819 L11.9736958,2.88080819 L11.9736958,4.32120703 C11.2778738,4.55305588 10.7094381,5.04301386 10.3970438,5.68018802 C10.0846494,6.31736219 10.0547086,7.04788073 10.313998,7.70640429 L10.313998,7.70640429 Z" id="Path_59"></path>
        </g>
    </g>
</svg>