<?xml version="1.0" encoding="UTF-8" standalone="no"?>
<svg width="24px" height="24px" viewBox="0 0 24 24" version="1.1" xmlns="http://www.w3.org/2000/svg" xmlns:xlink="http://www.w3.org/1999/xlink">
    <!-- Generator: Sketch 44.1 (41455) - http://www.bohemiancoding.com/sketch -->
    <title>arrow-down</title>
    <desc>Created with Sketch.</desc>
    <defs></defs>
    <g id="PDS" stroke="none" stroke-width="1" fill="none" fill-rule="evenodd">
        <g id="arrow-down" fill="#000000">
            <path d="M10.6526995,6.24000176 L10.6526995,20.7883991 C10.6526995,21.4699716 11.2119657,22.0307191 11.9018555,22.0307191 C12.5965551,22.0307191 13.1510115,21.4745135 13.1510115,20.7883991 L13.1510115,6.12867879 L18.7947716,11.7724389 C19.2857131,12.2633804 20.0719594,12.2587049 20.5597851,11.7708791 C21.0510119,11.2796523 21.0483093,10.4928299 20.561345,10.0058656 L12.95246,2.39698066 C12.6784066,2.12292726 12.3123334,2.00331291 11.9575169,2.03596906 C11.6027005,2.00331291 11.2366273,2.12292726 10.9625739,2.39698066 L3.35368894,10.0058656 C2.86672464,10.4928299 2.86402196,11.2796523 3.35524875,11.7708791 C3.84307451,12.2587049 4.62932079,12.2633804 5.12026229,11.7724389 L10.6526995,6.24000176 Z" id="arrow" transform="translate(11.957517, 12.030719) scale(1, -1) translate(-11.957517, -12.030719) "></path>
        </g>
    </g>
</svg>