<?xml version="1.0" encoding="UTF-8" standalone="no"?>
<svg width="24px" height="24px" viewBox="0 0 24 24" version="1.1" xmlns="http://www.w3.org/2000/svg" xmlns:xlink="http://www.w3.org/1999/xlink">
    <!-- Generator: Sketch 44.1 (41455) - http://www.bohemiancoding.com/sketch -->
    <title>arrow-horizontal</title>
    <desc>Created with Sketch.</desc>
    <defs></defs>
    <g id="PDS" stroke="none" stroke-width="1" fill="none" fill-rule="evenodd">
        <g id="arrow-horizontal" fill="#000000">
            <path d="M13.3584901,18.5914303 L13.3584901,5.30123969 L16.0079498,7.95069935 C16.3926115,8.33536108 17.0295391,8.33912364 17.4200634,7.94859935 C17.8133103,7.55535239 17.8115279,6.92585028 17.4221634,6.53648579 L13.1753227,2.28964509 C12.9656719,2.07999431 12.6810846,1.98349105 12.4022964,2.0023028 C12.1235082,1.98349105 11.8389209,2.07999431 11.6292702,2.28964509 L7.38242945,6.53648579 C6.99306496,6.92585028 6.99128251,7.55535239 7.38452946,7.94859935 C7.77505375,8.33912364 8.41198129,8.33536108 8.79664301,7.95069935 L11.3584901,5.38885222 L11.3584901,18.683818 L8.70664286,16.0319708 C8.32198113,15.647309 7.6850536,15.6435465 7.29452931,16.0340708 C6.90128235,16.4273177 6.90306481,17.0568198 7.2924293,17.4461843 L11.53927,21.693025 C11.7489208,21.9026758 12.0335081,21.9991791 12.3122963,21.9803673 C12.5910845,21.9991791 12.8756717,21.9026758 13.0853225,21.693025 L17.3321632,17.4461843 C17.7215277,17.0568198 17.7233102,16.4273177 17.3300632,16.0340708 C16.9395389,15.6435465 16.3026114,15.647309 15.9179497,16.0319708 L13.3584901,18.5914303 Z" id="Combined-Shape" transform="translate(12.357296, 11.991335) rotate(90.000000) translate(-12.357296, -11.991335) "></path>
        </g>
    </g>
</svg>