<?xml version="1.0" encoding="UTF-8" standalone="no"?>
<svg width="24px" height="24px" viewBox="0 0 24 24" version="1.1" xmlns="http://www.w3.org/2000/svg" xmlns:xlink="http://www.w3.org/1999/xlink">
    <!-- Generator: Sketch 44.1 (41455) - http://www.bohemiancoding.com/sketch -->
    <title>assessment</title>
    <desc>Created with Sketch.</desc>
    <defs></defs>
    <g id="PDS" stroke="none" stroke-width="1" fill="none" fill-rule="evenodd">
        <g id="assessment" fill="#000000">
            <path d="M7.43274498,19.6256626 L7.06397258,19.2568902 C6.85845241,19.05137 6.54881554,19.0583157 6.35355339,19.2535778 C6.16400182,19.4431294 6.15977426,19.7669055 6.3568658,19.963997 L7.05734777,20.664479 C7.09257222,20.6997034 7.13085511,20.7286867 7.17109642,20.7515503 C7.36091561,20.8699893 7.61947773,20.8531434 7.78390793,20.6887132 L9.91869369,18.5539275 C10.1134458,18.3591753 10.1072231,18.0488155 9.91196098,17.8535534 C9.72240941,17.6640018 9.40313068,17.6552769 9.21158691,17.8468207 L7.43274498,19.6256626 Z M7.43274498,14.6256626 L7.06397258,14.2568902 C6.85845241,14.05137 6.54881554,14.0583157 6.35355339,14.2535778 C6.16400182,14.4431294 6.15977426,14.7669055 6.3568658,14.963997 L7.05734777,15.664479 C7.09257222,15.6997034 7.13085511,15.7286867 7.17109642,15.7515503 C7.36091561,15.8699893 7.61947773,15.8531434 7.78390793,15.6887132 L9.91869369,13.5539275 C10.1134458,13.3591753 10.1072231,13.0488155 9.91196098,12.8535534 C9.72240941,12.6640018 9.40313068,12.6552769 9.21158691,12.8468207 L7.43274498,14.6256626 Z M7.43274498,9.62566261 L7.06397258,9.25689021 C6.85845241,9.05137004 6.54881554,9.05831566 6.35355339,9.2535778 C6.16400182,9.44312938 6.15977426,9.76690545 6.3568658,9.96399699 L7.05734777,10.664479 C7.09257222,10.6997034 7.13085511,10.7286867 7.17109642,10.7515503 C7.36091561,10.8699893 7.61947773,10.8531434 7.78390793,10.6887132 L9.91869369,8.55392747 C10.1134458,8.35917531 10.1072231,8.04881554 9.91196098,7.85355339 C9.72240941,7.66400182 9.40313068,7.65527691 9.21158691,7.84682068 L7.43274498,9.62566261 Z M10,1.5 C10,0.671572875 10.6715729,0 11.5,0 C12.3284271,0 13,0.671572875 13,1.5 L13.9970707,1.5 C14.5509732,1.5 15,1.94266033 15,2.49895656 L15,3.50104344 C15,4.05275191 14.5621186,4.5 13.9970707,4.5 L9.00292933,4.5 C8.44902676,4.5 8,4.05733967 8,3.50104344 L8,2.49895656 C8,1.94724809 8.43788135,1.5 9.00292933,1.5 L10,1.5 Z M7,3.5 L7,3.99916726 C7,4.82145452 7.6744372,5.5 8.50639765,5.5 L14.4936024,5.5 C15.3235372,5.5 16,4.8280543 16,3.99916726 L16,3.5 L17.0081158,3.5 C18.1082031,3.5 19,4.39821238 19,5.49079514 L19,21.5092049 C19,22.6086907 18.1066027,23.5 17.0081158,23.5 L5.99188419,23.5 C4.89179693,23.5 4,22.6017876 4,21.5092049 L4,5.49079514 C4,4.39130934 4.89339733,3.5 5.99188419,3.5 L7,3.5 Z M11,10 C11,10.2680664 11.2198305,10.5 11.4910052,10.5 L16.5089948,10.5 C16.7721195,10.5 17,10.2761424 17,10 C17,9.73193359 16.7801695,9.5 16.5089948,9.5 L11.4910052,9.5 C11.2278805,9.5 11,9.72385763 11,10 Z M11,15 C11,15.2680664 11.2198305,15.5 11.4910052,15.5 L16.5089948,15.5 C16.7721195,15.5 17,15.2761424 17,15 C17,14.7319336 16.7801695,14.5 16.5089948,14.5 L11.4910052,14.5 C11.2278805,14.5 11,14.7238576 11,15 Z M11,20 C11,20.2680664 11.2198305,20.5 11.4910052,20.5 L16.5089948,20.5 C16.7721195,20.5 17,20.2761424 17,20 C17,19.7319336 16.7801695,19.5 16.5089948,19.5 L11.4910052,19.5 C11.2278805,19.5 11,19.7238576 11,20 Z M11.5,2 C11.7761424,2 12,1.77614237 12,1.5 C12,1.22385763 11.7761424,1 11.5,1 C11.2238576,1 11,1.22385763 11,1.5 C11,1.77614237 11.2238576,2 11.5,2 Z" id="Combined-Shape"></path>
        </g>
    </g>
</svg>