<?xml version="1.0" encoding="UTF-8" standalone="no"?>
<svg width="24px" height="24px" viewBox="0 0 24 24" version="1.1" xmlns="http://www.w3.org/2000/svg" xmlns:xlink="http://www.w3.org/1999/xlink">
    <!-- Generator: Sketch 44.1 (41455) - http://www.bohemiancoding.com/sketch -->
    <title>assignment-f</title>
    <desc>Created with Sketch.</desc>
    <defs></defs>
    <g id="PDS-Current" stroke="none" stroke-width="1" fill="none" fill-rule="evenodd">
        <g id="assignment-f" fill="#000000">
            <path d="M6,2 L19,2 C19.5522847,2 20,2.44771525 20,3 L20,21 L20,21 C20,21.5522847 19.5522847,22 19,22 L6,22 C5.44771525,22 5,21.5522847 5,21 L5,3 L5,3 C5,2.44771525 5.44771525,2 6,2 L6,2 Z M7.5014154,18.0084229 L7.5014154,18.2415771 C7.5014154,18.5322666 7.72424274,18.75 7.99911419,18.75 L12.0037166,18.75 C12.2865717,18.75 12.5014154,18.5223713 12.5014154,18.2415771 L12.5014154,18.0084229 C12.5014154,17.7177334 12.2785881,17.5 12.0037166,17.5 L7.99911419,17.5 C7.71625915,17.5 7.5014154,17.7276287 7.5014154,18.0084229 Z M7.5014154,14.0084229 L7.5014154,14.2415771 C7.5014154,14.5322666 7.7297407,14.75 8.01139423,14.75 L16.9978982,14.75 C17.2800771,14.75 17.507877,14.5223713 17.507877,14.2415771 L17.507877,14.0084229 C17.507877,13.7177334 17.2795517,13.5 16.9978982,13.5 L8.01139423,13.5 C7.72921529,13.5 7.5014154,13.7276287 7.5014154,14.0084229 Z M7.5014154,10.0084229 L7.5014154,10.2415771 C7.5014154,10.5322666 7.7297407,10.75 8.01139423,10.75 L16.9978982,10.75 C17.2800771,10.75 17.507877,10.5223713 17.507877,10.2415771 L17.507877,10.0084229 C17.507877,9.71773338 17.2795517,9.5 16.9978982,9.5 L8.01139423,9.5 C7.72921529,9.5 7.5014154,9.72762866 7.5014154,10.0084229 Z M7.5014154,6.00842285 L7.5014154,6.24157715 C7.5014154,6.53226662 7.7297407,6.75 8.01139423,6.75 L16.9978982,6.75 C17.2800771,6.75 17.507877,6.52237134 17.507877,6.24157715 L17.507877,6.00842285 C17.507877,5.71773338 17.2795517,5.5 16.9978982,5.5 L8.01139423,5.5 C7.72921529,5.5 7.5014154,5.72762866 7.5014154,6.00842285 Z" id="Combined-Shape"></path>
        </g>
    </g>
</svg>