<?xml version="1.0" encoding="UTF-8" standalone="no"?>
<svg width="24px" height="24px" viewBox="0 0 24 24" version="1.1" xmlns="http://www.w3.org/2000/svg" xmlns:xlink="http://www.w3.org/1999/xlink">
    <!-- Generator: Sketch 44.1 (41455) - http://www.bohemiancoding.com/sketch -->
    <title>attachment-f</title>
    <desc>Created with Sketch.</desc>
    <defs></defs>
    <g id="PDS" stroke="none" stroke-width="1" fill="none" fill-rule="evenodd">
        <g id="attachment-f" fill="#000000">
            <path d="M14.0234249,16.7145244 L8.71989529,11.4109948 C8.17015432,10.8787059 7.89528796,10.2286251 7.89528796,9.46073298 C7.89528796,8.74519712 8.14397657,8.13874594 8.64136126,7.64136126 C9.13874594,7.14397657 9.74519712,6.89528796 10.460733,6.89528796 C11.2286251,6.89528796 11.8787059,7.17015432 12.4109948,7.71989529 L20.0157068,15.3246073 C20.8883115,16.1797599 21.3246073,17.2050551 21.3246073,18.4005236 C21.3246073,19.4214711 20.9799336,20.2766109 20.2905759,20.9659686 C19.6012182,21.6553263 18.7460784,22 17.7251309,22 C16.5471145,22 15.5218194,21.5637042 14.6492147,20.6910995 L4.47905759,10.5340314 C3.49301427,9.53053599 3,8.34817435 3,6.98691099 C3,5.5994695 3.47992539,4.42147081 4.43979058,3.45287958 C5.39965576,2.48428835 6.57329149,2 7.96073298,2 C9.33944843,2 10.530536,2.49301427 11.5340314,3.47905759 L19.390456,11.348468 C19.5802338,11.5020417 19.7015707,11.736851 19.7015707,12 C19.7015707,12.4626469 19.3265213,12.8376963 18.8638743,12.8376963 C18.5771142,12.8376963 18.3240074,12.6936086 18.1730041,12.4738832 L10.3429319,4.63089005 C9.65357421,3.95898442 8.8638788,3.62303665 7.97382199,3.62303665 C7.04886099,3.62303665 6.26789149,3.95025851 5.63089005,4.60471204 C4.99388861,5.25916558 4.67539267,6.04886099 4.67539267,6.97382199 C4.67539267,7.89005694 5.00697749,8.67975236 5.67015707,9.34293194 L15.8272251,19.513089 C16.3769661,20.06283 17.009595,20.3376963 17.7251309,20.3376963 C18.2835979,20.3376963 18.7460715,20.1544521 19.1125654,19.7879581 C19.4790594,19.4214641 19.6623037,18.9589906 19.6623037,18.4005236 C19.6623037,17.6849877 19.3874373,17.0523588 18.8376963,16.5026178 L11.2329843,8.89790576 C11.0061071,8.68848063 10.7443296,8.58376963 10.447644,8.58376963 C10.1945886,8.58376963 9.98516662,8.66666584 9.81937173,8.83246073 C9.65357683,8.99825563 9.57068063,9.20767762 9.57068063,9.46073298 C9.57068063,9.73996649 9.67975458,9.99738102 9.89790576,10.2329843 L15.2014353,15.5365139 C15.3915224,15.690079 15.513089,15.9250836 15.513089,16.1884817 C15.513089,16.6511286 15.1380396,17.026178 14.6753927,17.026178 C14.4119946,17.026178 14.17699,16.9046114 14.0234249,16.7145244 Z" id="paper-clip" transform="translate(12.162304, 12.000000) scale(1, -1) translate(-12.162304, -12.000000) "></path>
        </g>
    </g>
</svg>