<?xml version="1.0" encoding="UTF-8" standalone="no"?>
<svg width="20px" height="20px" viewBox="0 0 20 20" version="1.1" xmlns="http://www.w3.org/2000/svg" xmlns:xlink="http://www.w3.org/1999/xlink">
    <!-- Generator: Sketch 42 (36781) - http://www.bohemiancoding.com/sketch -->
    <title>attendance_icon</title>
    <desc>Created with Sketch.</desc>
    <defs></defs>
    <g id="Page-1" stroke="none" stroke-width="1" fill="none" fill-rule="evenodd">
        <g id="attendance_icon" fill="#000000">
            <path d="M14.1766352,5.83333333 C13.8955346,5.83333333 13.3333333,5.51282479 13.3333333,4.99913047 C13.3333333,4.48543615 12.9613453,4.16666667 12.5024749,4.16666667 L7.49752512,4.16666667 C7.04419692,4.16666667 6.66666667,4.52604125 6.66666667,4.99913047 C6.66666667,5.47221968 6.1282999,5.83333333 5.85911651,5.83333333 L5.00570456,5.83333333 C4.54231673,5.83333333 4.16666667,5.45752068 4.16666667,5.00768503 L4.16666667,1.65898164 C4.16666667,1.20298867 4.54162396,0.833333333 5.00570456,0.833333333 L14.9942954,0.833333333 C15.4576833,0.833333333 15.8333333,1.20914598 15.8333333,1.65898164 L15.8333333,5.00768503 C15.8333333,5.46367799 15.458376,5.83333333 14.9942954,5.83333333 L14.1766352,5.83333333 Z M3.97164807,11.6437206 L3.97333552,11.6367086 C4.08010936,11.1930167 4.54162396,10.8333333 5.00570456,10.8333333 L14.9942954,10.8333333 C15.4576833,10.8333333 15.9192308,11.188581 16.0275862,11.6367086 L16.6465634,14.1966248 C16.6683467,14.2867144 16.6742106,14.3733406 16.6657946,14.4541956 C16.6663739,14.4669011 16.6666667,14.4796755 16.6666667,14.4925122 L16.6666667,18.3296363 C16.6666667,18.7919154 16.2967793,19.1666667 15.8333333,19.1666667 C15.373096,19.1666667 15,18.7878606 15,18.3296363 L15,15 L5,15 L5,18.3296363 C5,18.7919154 4.63011265,19.1666667 4.16666667,19.1666667 C3.70642938,19.1666667 3.33333333,18.7878606 3.33333333,18.3296363 L3.33333333,14.4925122 C3.33333333,14.4695849 3.33424317,14.446873 3.33602914,14.4244114 C3.33153023,14.3523629 3.33820594,14.2759489 3.3572952,14.1966248 L3.77674528,12.4536267 C3.04410866,12.2780797 2.5,11.6237649 2.5,10.8284008 L2.5,9.16666667 L1.25069678,9.16666667 C1.02019331,9.16666667 0.833333333,8.98830414 0.833333333,8.74609629 L0.833333333,7.92057037 C0.833333333,7.68829577 1.01478477,7.5 1.25069678,7.5 L18.7493032,7.5 C18.9798067,7.5 19.1666667,7.67836253 19.1666667,7.92057037 L19.1666667,8.74609629 C19.1666667,8.9783709 18.9852152,9.16666667 18.7493032,9.16666667 L3.33333333,9.16666667 L3.33333333,10.8308922 C3.33333333,11.2323728 3.60536032,11.5568141 3.97164807,11.6437206 L3.97164807,11.6437206 Z"></path>
        </g>
    </g>
</svg>