<?xml version="1.0" encoding="UTF-8" standalone="no"?>
<svg width="24px" height="24px" viewBox="0 0 24 24" version="1.1" xmlns="http://www.w3.org/2000/svg" xmlns:xlink="http://www.w3.org/1999/xlink">
    <!-- Generator: Sketch 44.1 (41455) - http://www.bohemiancoding.com/sketch -->
    <title>audio</title>
    <desc>Created with Sketch.</desc>
    <defs></defs>
    <g id="PDS" stroke="none" stroke-width="1" fill="none" fill-rule="evenodd">
        <g id="audio" fill="#000000">
            <path d="M9.02261538,15.72248 L3.03415385,15.72248 C2.46338462,15.72248 2.00030769,15.24088 2.00030769,14.64648 L2.00030769,9.06488 C2.00030769,8.47128 2.46338462,7.98888 3.03415385,7.98888 L9.02261538,7.98888 L9.02261538,15.72248 Z M13.2507692,18.6396 L9.84846154,15.7228 L9.84846154,7.9892 L13.2507692,5.0724 C13.7892308,4.8268 14.3923077,5.2372 14.3923077,5.8484 L14.3923077,17.8628 C14.3923077,18.474 13.7892308,18.8844 13.2507692,18.6396 Z M18.0291538,7.88888 C19.0022308,8.83368 19.5060769,10.25928 19.5060769,11.85528 C19.5060769,13.45208 19.0022308,14.87768 18.0291538,15.82248 C17.6822308,16.16008 17.1314615,15.73608 17.3453077,15.29448 C17.8468462,14.26088 18.1291538,13.09288 18.1291538,11.85528 C18.1291538,10.61848 17.8468462,9.45128 17.3453077,8.41688 C17.1314615,7.97608 17.6822308,7.55208 18.0291538,7.88888 Z M19.8241538,17.29784 C19.7172308,17.29784 19.6064615,17.23064 19.5472308,17.13144 C19.4949231,17.04264 19.4926154,16.94824 19.5410769,16.84824 C20.2956923,15.29064 20.678,13.61064 20.678,11.85544 C20.678,10.10104 20.2956923,8.42104 19.5403077,6.86344 C19.4926154,6.76424 19.4949231,6.66904 19.5472308,6.58104 C19.6056923,6.48104 19.7172308,6.41464 19.8241538,6.41464 C19.8933846,6.41464 19.958,6.44264 20.0164615,6.49864 C21.2956923,7.74104 22.0003077,9.64344 22.0003077,11.85544 C22.0003077,14.06824 21.2956923,15.97064 20.0164615,17.21304 C19.958,17.26904 19.8933846,17.29784 19.8241538,17.29784 Z M15.2189231,8.98728 C16.1566154,9.57128 16.7866154,10.63608 16.7866154,11.85528 C16.7866154,13.07528 16.1566154,14.14008 15.2189231,14.72408 L15.2189231,8.98728 Z" id="Announcement"></path>
        </g>
    </g>
</svg>