<?xml version="1.0" encoding="UTF-8" standalone="no"?>
<svg width="15px" height="20px" viewBox="0 0 15 20" version="1.1" xmlns="http://www.w3.org/2000/svg" xmlns:xlink="http://www.w3.org/1999/xlink">
    <!-- Generator: Sketch 42 (36781) - http://www.bohemiancoding.com/sketch -->
    <title>analysis</title>
    <desc>Created with Sketch.</desc>
    <defs></defs>
    <g id="Page-1" stroke="none" stroke-width="1" fill="none" fill-rule="evenodd">
        <g id="UI-Chrome/Main-Nav" transform="translate(-19.000000, -328.000000)" fill="#000000">
            <path d="M21,348 L20.9918842,348 C19.8917969,348 19,347.101788 19,346.009205 L19,329.990795 C19,328.891309 19.8933973,328 20.9918842,328 L32.0081158,328 C33.1082031,328 34,328.898212 34,329.990795 L34,346.009205 C34,347.108691 33.1066027,348 32.0081158,348 L32,348 L32,338.50021 C32,338.227587 31.7740451,338 31.4953156,338 L30.5046844,338 C30.214035,338 30,338.223952 30,338.50021 L30,348 L29,348 L29,333.50021 C29,333.227587 28.7740451,333 28.4953156,333 L27.5046844,333 C27.214035,333 27,333.223952 27,333.50021 L27,348 L26,348 L26,337.50021 C26,337.227587 25.7740451,337 25.4953156,337 L24.5046844,337 C24.214035,337 24,337.223952 24,337.50021 L24,348 L23,348 L23,342.50021 C23,342.227587 22.7740451,342 22.4953156,342 L21.5046844,342 C21.214035,342 21,342.223952 21,342.50021 L21,348 Z" id="analysis"></path>
        </g>
    </g>
</svg>
