<?xml version="1.0" encoding="UTF-8" standalone="no"?>
<svg width="24px" height="24px" viewBox="0 0 24 24" version="1.1" xmlns="http://www.w3.org/2000/svg" xmlns:xlink="http://www.w3.org/1999/xlink">
    <!-- Generator: Sketch 44.1 (41455) - http://www.bohemiancoding.com/sketch -->
    <title>bar-graph-f</title>
    <desc>Created with Sketch.</desc>
    <defs></defs>
    <g id="PDS" stroke="none" stroke-width="1" fill="none" fill-rule="evenodd">
        <g id="bar-graph-f" fill="#000000">
            <path d="M7,22 L6.99188419,22 C5.89179693,22 5,21.1017876 5,20.0092049 L5,3.99079514 C5,2.89130934 5.89339733,2 6.99188419,2 L18.0081158,2 C19.1082031,2 20,2.89821238 20,3.99079514 L20,20.0092049 C20,21.1086907 19.1066027,22 18.0081158,22 L18,22 L18,12.5002097 C18,12.2275865 17.7740451,12 17.4953156,12 L16.5046844,12 C16.214035,12 16,12.2239515 16,12.5002097 L16,22 L15,22 L15,7.50020972 C15,7.22758651 14.7740451,7 14.4953156,7 L13.5046844,7 C13.214035,7 13,7.22395152 13,7.50020972 L13,22 L12,22 L12,11.5002097 C12,11.2275865 11.7740451,11 11.4953156,11 L10.5046844,11 C10.214035,11 10,11.2239515 10,11.5002097 L10,22 L9,22 L9,16.5002097 C9,16.2275865 8.77404508,16 8.49531555,16 L7.50468445,16 C7.21403503,16 7,16.2239515 7,16.5002097 L7,22 Z" id="Reports"></path>
        </g>
    </g>
</svg>