<?xml version="1.0" encoding="UTF-8" standalone="no"?>
<svg width="24px" height="24px" viewBox="0 0 24 24" version="1.1" xmlns="http://www.w3.org/2000/svg" xmlns:xlink="http://www.w3.org/1999/xlink">
    <!-- Generator: Sketch 44.1 (41455) - http://www.bohemiancoding.com/sketch -->
    <title>blooms-revised</title>
    <desc>Created with Sketch.</desc>
    <defs></defs>
    <g id="PDS-Current" stroke="none" stroke-width="1" fill="none" fill-rule="evenodd">
        <g id="blooms-revised" fill="#000000">
            <path d="M13.248587,3.75495793 L21.8103265,19.6203425 C22.0704501,20.0936021 22.0630181,20.5668546 21.7880303,21.0401142 C21.6616846,21.2579638 21.4888908,21.4307385 21.2696437,21.5584435 C21.0503967,21.6861485 20.814431,21.75 20.5617395,21.75 L3.43826052,21.75 C3.18556902,21.75 2.9496033,21.6861485 2.73035627,21.5584435 C2.51110925,21.4307385 2.33831545,21.2579638 2.2119697,21.0401142 C1.9369819,20.5668546 1.92954991,20.0936021 2.18967351,19.6203425 L10.751413,3.75495793 C10.8777587,3.52208417 11.0524105,3.33804154 11.2753736,3.20282452 C11.4983367,3.0676075 11.7398764,3 12,3 C12.2601236,3 12.5016633,3.0676075 12.7246264,3.20282452 C12.9475895,3.33804154 13.1222413,3.52208417 13.248587,3.75495793 Z M7.890625,12.2890625 L7.890625,18 L10.0273438,18 C10.6731803,18 11.1842429,17.8541681 11.5605469,17.5625 C11.9368508,17.2708319 12.125,16.8645859 12.125,16.34375 C12.125,15.9765607 12.0449227,15.6822928 11.8847656,15.4609375 C11.7246086,15.2395822 11.4635435,15.0885421 11.1015625,15.0078125 L11.1015625,14.96875 C11.3671888,14.9244789 11.5800773,14.7929698 11.7402344,14.5742188 C11.9003914,14.3554677 11.9804688,14.0755225 11.9804688,13.734375 C11.9804688,13.2317683 11.7975279,12.8652355 11.4316406,12.6347656 C11.0657534,12.4042957 10.4778686,12.2890625 9.66796875,12.2890625 L7.890625,12.2890625 Z M9.1015625,14.5507812 L9.1015625,13.28125 L9.73828125,13.28125 C10.0846371,13.28125 10.3378898,13.3287756 10.4980469,13.4238281 C10.6582039,13.5188807 10.7382812,13.6757802 10.7382812,13.8945312 C10.7382812,14.1289074 10.6647143,14.2968745 10.5175781,14.3984375 C10.370442,14.5000005 10.1328141,14.5507812 9.8046875,14.5507812 L9.1015625,14.5507812 Z M9.1015625,15.5117188 L9.8515625,15.5117188 C10.5286492,15.5117188 10.8671875,15.7486955 10.8671875,16.2226562 C10.8671875,16.4856784 10.7877612,16.6809889 10.6289062,16.8085938 C10.4700513,16.9361986 10.22396,17 9.890625,17 L9.1015625,17 L9.1015625,15.5117188 Z M14.4765625,15.8085938 L15.1210938,15.8085938 L16.484375,18 L17.828125,18 C17.567707,17.6249981 17.0078168,16.7955793 16.1484375,15.5117188 C16.4869809,15.3632805 16.748697,15.1582044 16.9335938,14.8964844 C17.1184905,14.6347643 17.2109375,14.3359392 17.2109375,14 C17.2109375,13.4244763 17.0247414,12.9954441 16.6523438,12.7128906 C16.2799461,12.4303371 15.705733,12.2890625 14.9296875,12.2890625 L13.265625,12.2890625 L13.265625,18 L14.4765625,18 L14.4765625,15.8085938 Z M14.4765625,14.8242188 L14.4765625,13.28125 L14.84375,13.28125 C15.234377,13.28125 15.5227855,13.3385411 15.7089844,13.453125 C15.8951832,13.5677089 15.9882812,13.7604153 15.9882812,14.03125 C15.9882812,14.3046889 15.8971363,14.5052077 15.7148438,14.6328125 C15.5325512,14.7604173 15.2500019,14.8242188 14.8671875,14.8242188 L14.4765625,14.8242188 Z" id="Combined-Shape"></path>
        </g>
    </g>
</svg>