<?xml version="1.0" encoding="UTF-8" standalone="no"?>
<svg width="24px" height="24px" viewBox="0 0 24 24" version="1.1" xmlns="http://www.w3.org/2000/svg" xmlns:xlink="http://www.w3.org/1999/xlink">
    <!-- Generator: Sketch 44.1 (41455) - http://www.bohemiancoding.com/sketch -->
    <title>blooms</title>
    <desc>Created with Sketch.</desc>
    <defs></defs>
    <g id="PDS-Current" stroke="none" stroke-width="1" fill="none" fill-rule="evenodd">
        <g id="blooms" fill="#000000">
            <path d="M13.248587,3.75495793 L21.8103265,19.6203425 C22.0704501,20.0936021 22.0630181,20.5668546 21.7880303,21.0401142 C21.6616846,21.2579638 21.4888908,21.4307385 21.2696437,21.5584435 C21.0503967,21.6861485 20.814431,21.75 20.5617395,21.75 L3.43826052,21.75 C3.18556902,21.75 2.9496033,21.6861485 2.73035627,21.5584435 C2.51110925,21.4307385 2.33831545,21.2579638 2.2119697,21.0401142 C1.9369819,20.5668546 1.92954991,20.0936021 2.18967351,19.6203425 L10.751413,3.75495793 C10.8777587,3.52208417 11.0524105,3.33804154 11.2753736,3.20282452 C11.4983367,3.0676075 11.7398764,3 12,3 C12.2601236,3 12.5016633,3.0676075 12.7246264,3.20282452 C12.9475895,3.33804154 13.1222413,3.52208417 13.248587,3.75495793 Z M10.1312504,12.2890625 L10.1312504,18 L12.2679691,18 C12.9138057,18 13.4248683,17.8541681 13.8011723,17.5625 C14.1774762,17.2708319 14.3656254,16.8645859 14.3656254,16.34375 C14.3656254,15.9765607 14.2855481,15.6822928 14.125391,15.4609375 C13.965234,15.2395822 13.7041689,15.0885421 13.3421879,15.0078125 L13.3421879,14.96875 C13.6078142,14.9244789 13.8207027,14.7929698 13.9808598,14.5742188 C14.1410168,14.3554677 14.2210941,14.0755225 14.2210941,13.734375 C14.2210941,13.2317683 14.0381533,12.8652355 13.672266,12.6347656 C13.3063788,12.4042957 12.718494,12.2890625 11.9085941,12.2890625 L10.1312504,12.2890625 Z M11.3421879,14.5507812 L11.3421879,13.28125 L11.9789066,13.28125 C12.3252625,13.28125 12.5785152,13.3287756 12.7386723,13.4238281 C12.8988293,13.5188807 12.9789066,13.6757802 12.9789066,13.8945312 C12.9789066,14.1289074 12.9053397,14.2968745 12.7582035,14.3984375 C12.6110674,14.5000005 12.3734395,14.5507812 12.0453129,14.5507812 L11.3421879,14.5507812 Z M11.3421879,15.5117188 L12.0921879,15.5117188 C12.7692746,15.5117188 13.1078129,15.7486955 13.1078129,16.2226562 C13.1078129,16.4856784 13.0283866,16.6809889 12.8695316,16.8085938 C12.7106767,16.9361986 12.4645854,17 12.1312504,17 L11.3421879,17 L11.3421879,15.5117188 Z" id="Combined-Shape"></path>
        </g>
    </g>
</svg>