<?xml version="1.0" encoding="UTF-8"?>
<svg width="16px" height="20px" viewBox="0 0 16 20" version="1.1" xmlns="http://www.w3.org/2000/svg" xmlns:xlink="http://www.w3.org/1999/xlink">
    <!-- Generator: Sketch 42 (36781) - http://www.bohemiancoding.com/sketch -->
    <title>Fill 1</title>
    <desc>Created with Sketch.</desc>
    <defs></defs>
    <g id="Common-Portal-Screens" stroke="none" stroke-width="1" fill="none" fill-rule="evenodd">
        <g id="CPF-1358" transform="translate(-19.000000, -229.000000)" fill="#000000">
            <g id="UI-Chrome/Main-Nav">
                <g id="UI-Chrome/MainNav/June" transform="translate(0.000000, 1.000000)">
                    <g id="Left-Nav/Links-Root" transform="translate(0.000000, 1.000000)">
                        <g id="PN-Icon-4" transform="translate(17.000000, 227.000000)">
                            <path d="M6,4.62582553 C6,4.28832553 6.19446154,4.01457553 6.43446154,4.01457553 L13.5643077,4.01457553 C13.8055385,4.01457553 14,4.28832553 14,4.62582553 L14,5.39901484 C14,5.73651484 13.8055385,6.01026484 13.5643077,6.01026484 L6.43446154,6.01026484 C6.19446154,6.01026484 6,5.73651484 6,5.39901484 L6,4.62582553 Z M7.73046154,9.00366025 C7.45476923,9.00366025 7.0091805,8.81260829 7.0091805,8.0049453 C7.0091805,7.1972823 7.45476923,7.00064999 7.73046154,7.00064999 L12.2695385,7.00064999 C12.544,7.00064999 12.9928734,7.20293808 12.9928734,8.0049453 C12.9928734,8.80695252 12.544,9.00366025 12.2695385,9.00366025 L7.73046154,9.00366025 Z M3.99015385,16.0007019 L16,16.0007019 C17.104,16.0007019 18,15.2494519 18,14.3207019 L18,1.68 C18,0.75125 17.104,0 16,0 L4,0 C2.896,0 2,0.75125 2,1.68 L2,14.83625 L2,15.115 L2,17.3975 L2,18 C2,19.105 2.896,19.9989163 4,19.9989163 L16,19.9989163 C17.104,19.9989163 18,19.105 18,18 L18,16.998194 C17.8412308,17.665694 16.7581538,18 15.9987692,18 L3.99876923,18 C3.97661538,18 3.95692308,17.99625 3.936,17.99375 C3.56676923,18 3.29107692,17.6003155 3.29107692,16.998194 C3.29107692,16.3960724 3.56676923,16.0007019 3.90646154,16.0007019 C3.94953846,16.0032019 3.97046154,16.0007019 3.99015385,16.0007019 Z" id="Fill-1"></path>
                        </g>
                    </g>
                </g>
            </g>
        </g>
    </g>
</svg>