<?xml version="1.0" encoding="UTF-8" standalone="no"?>
<svg width="24px" height="24px" viewBox="0 0 24 24" version="1.1" xmlns="http://www.w3.org/2000/svg" xmlns:xlink="http://www.w3.org/1999/xlink">
    <!-- Generator: Sketch 44.1 (41455) - http://www.bohemiancoding.com/sketch -->
    <title>briefcase</title>
    <desc>Created with Sketch.</desc>
    <defs></defs>
    <g id="PDS" stroke="none" stroke-width="1" fill="none" fill-rule="evenodd">
        <g id="briefcase" fill="#000000">
            <path d="M9.14285714,6.71428571 L14.8571429,6.71428571 L14.8571429,5.28571429 L9.14285714,5.28571429 L9.14285714,6.71428571 Z M22,12.8571429 L22,19.2142857 C22,19.7053596 21.8251506,20.1257423 21.4754464,20.4754464 C21.1257423,20.8251506 20.7053596,21 20.2142857,21 L3.78571429,21 C3.2946404,21 2.8742577,20.8251506 2.52455357,20.4754464 C2.17484944,20.1257423 2,19.7053596 2,19.2142857 L2,12.8571429 L9.5,12.8571429 L9.5,14.6428571 C9.5,14.8363105 9.57068382,15.0037195 9.71205357,15.1450893 C9.85342333,15.286459 10.0208324,15.3571429 10.2142857,15.3571429 L13.7857143,15.3571429 C13.9791676,15.3571429 14.1465767,15.286459 14.2879464,15.1450893 C14.4293162,15.0037195 14.5,14.8363105 14.5,14.6428571 L14.5,12.8571429 L22,12.8571429 Z M13.4285714,12.8571429 L13.4285714,14.2857143 L10.5714286,14.2857143 L10.5714286,12.8571429 L13.4285714,12.8571429 Z M22,8.5 L22,11.7857143 L2,11.7857143 L2,8.5 C2,8.00892612 2.17484944,7.58854342 2.52455357,7.23883929 C2.8742577,6.88913516 3.2946404,6.71428571 3.78571429,6.71428571 L7.71428571,6.71428571 L7.71428571,4.92857143 C7.71428571,4.63095089 7.81845134,4.37797723 8.02678571,4.16964286 C8.23512009,3.96130848 8.48809375,3.85714286 8.78571429,3.85714286 L15.2142857,3.85714286 C15.5119062,3.85714286 15.7648799,3.96130848 15.9732143,4.16964286 C16.1815487,4.37797723 16.2857143,4.63095089 16.2857143,4.92857143 L16.2857143,6.71428571 L20.2142857,6.71428571 C20.7053596,6.71428571 21.1257423,6.88913516 21.4754464,7.23883929 C21.8251506,7.58854342 22,8.00892612 22,8.5 Z" id="portfolio"></path>
        </g>
    </g>
</svg>