<?xml version="1.0" encoding="UTF-8" standalone="no"?>
<svg width="15px" height="20px" viewBox="0 0 15 20" version="1.1" xmlns="http://www.w3.org/2000/svg" xmlns:xlink="http://www.w3.org/1999/xlink">
    <!-- Generator: Sketch 42 (36781) - http://www.bohemiancoding.com/sketch -->
    <title>grading</title>
    <desc>Created with Sketch.</desc>
    <defs></defs>
    <g id="Page-1" stroke="none" stroke-width="1" fill="none" fill-rule="evenodd">
        <g id="UI-Chrome/Main-Nav" transform="translate(-19.000000, -178.000000)" fill="#000000">
            <path d="M19,179.990795 C19,178.891309 19.8933973,178 20.9918842,178 L32.0081158,178 C33.1082031,178 34,178.898212 34,179.990795 L34,196.009205 C34,197.108691 33.1066027,198 32.0081158,198 L20.9918842,198 C19.8917969,198 19,197.101788 19,196.009205 L19,179.990795 Z M21,181.009369 L21,182.990631 C21,183.556647 21.4457352,184 21.9955775,184 L31.0044225,184 C31.555163,184 32,183.54809 32,182.990631 L32,181.009369 C32,180.443353 31.5542648,180 31.0044225,180 L21.9955775,180 C21.444837,180 21,180.45191 21,181.009369 Z M21,185.504684 L21,186.495316 C21,186.785965 21.2259549,187 21.5046844,187 L22.4953156,187 C22.785965,187 23,186.774045 23,186.495316 L23,185.504684 C23,185.214035 22.7740451,185 22.4953156,185 L21.5046844,185 C21.214035,185 21,185.225955 21,185.504684 Z M21,188.504684 L21,189.495316 C21,189.785965 21.2259549,190 21.5046844,190 L22.4953156,190 C22.785965,190 23,189.774045 23,189.495316 L23,188.504684 C23,188.214035 22.7740451,188 22.4953156,188 L21.5046844,188 C21.214035,188 21,188.225955 21,188.504684 Z M21,191.504684 L21,192.495316 C21,192.785965 21.2259549,193 21.5046844,193 L22.4953156,193 C22.785965,193 23,192.774045 23,192.495316 L23,191.504684 C23,191.214035 22.7740451,191 22.4953156,191 L21.5046844,191 C21.214035,191 21,191.225955 21,191.504684 Z M21,194.504684 L21,195.495316 C21,195.785965 21.2259549,196 21.5046844,196 L22.4953156,196 C22.785965,196 23,195.774045 23,195.495316 L23,194.504684 C23,194.214035 22.7740451,194 22.4953156,194 L21.5046844,194 C21.214035,194 21,194.225955 21,194.504684 Z M24,185.504684 L24,186.495316 C24,186.785965 24.2259549,187 24.5046844,187 L25.4953156,187 C25.785965,187 26,186.774045 26,186.495316 L26,185.504684 C26,185.214035 25.7740451,185 25.4953156,185 L24.5046844,185 C24.214035,185 24,185.225955 24,185.504684 Z M24,188.504684 L24,189.495316 C24,189.785965 24.2259549,190 24.5046844,190 L25.4953156,190 C25.785965,190 26,189.774045 26,189.495316 L26,188.504684 C26,188.214035 25.7740451,188 25.4953156,188 L24.5046844,188 C24.214035,188 24,188.225955 24,188.504684 Z M24,191.504684 L24,192.495316 C24,192.785965 24.2259549,193 24.5046844,193 L25.4953156,193 C25.785965,193 26,192.774045 26,192.495316 L26,191.504684 C26,191.214035 25.7740451,191 25.4953156,191 L24.5046844,191 C24.214035,191 24,191.225955 24,191.504684 Z M24,194.504684 L24,195.495316 C24,195.785965 24.2259549,196 24.5046844,196 L25.4953156,196 C25.785965,196 26,195.774045 26,195.495316 L26,194.504684 C26,194.214035 25.7740451,194 25.4953156,194 L24.5046844,194 C24.214035,194 24,194.225955 24,194.504684 Z M27,185.504684 L27,186.495316 C27,186.785965 27.2259549,187 27.5046844,187 L28.4953156,187 C28.785965,187 29,186.774045 29,186.495316 L29,185.504684 C29,185.214035 28.7740451,185 28.4953156,185 L27.5046844,185 C27.214035,185 27,185.225955 27,185.504684 Z M27,188.504684 L27,189.495316 C27,189.785965 27.2259549,190 27.5046844,190 L28.4953156,190 C28.785965,190 29,189.774045 29,189.495316 L29,188.504684 C29,188.214035 28.7740451,188 28.4953156,188 L27.5046844,188 C27.214035,188 27,188.225955 27,188.504684 Z M27,191.504684 L27,192.495316 C27,192.785965 27.2259549,193 27.5046844,193 L28.4953156,193 C28.785965,193 29,192.774045 29,192.495316 L29,191.504684 C29,191.214035 28.7740451,191 28.4953156,191 L27.5046844,191 C27.214035,191 27,191.225955 27,191.504684 Z M27,194.504684 L27,195.495316 C27,195.785965 27.2259549,196 27.5046844,196 L28.4953156,196 C28.785965,196 29,195.774045 29,195.495316 L29,194.504684 C29,194.214035 28.7740451,194 28.4953156,194 L27.5046844,194 C27.214035,194 27,194.225955 27,194.504684 Z M30,185.504684 L30,186.495316 C30,186.785965 30.2259549,187 30.5046844,187 L31.4953156,187 C31.785965,187 32,186.774045 32,186.495316 L32,185.504684 C32,185.214035 31.7740451,185 31.4953156,185 L30.5046844,185 C30.214035,185 30,185.225955 30,185.504684 Z M30,188.500436 L30,195.499564 C30,195.769203 30.2259549,196 30.5046844,196 L31.4953156,196 C31.785965,196 32,195.775947 32,195.499564 L32,188.500436 C32,188.230797 31.7740451,188 31.4953156,188 L30.5046844,188 C30.214035,188 30,188.224053 30,188.500436 Z" id="grading"></path>
        </g>
    </g>
</svg>
