<?xml version="1.0" encoding="UTF-8" standalone="no"?>
<svg width="15px" height="19px" viewBox="0 0 15 19" version="1.1" xmlns="http://www.w3.org/2000/svg" xmlns:xlink="http://www.w3.org/1999/xlink">
    <!-- Generator: Sketch 42 (36781) - http://www.bohemiancoding.com/sketch -->
    <title>calendar</title>
    <desc>Created with Sketch.</desc>
    <defs></defs>
    <g id="Page-1" stroke="none" stroke-width="1" fill="none" fill-rule="evenodd">
        <g id="UI-Chrome/Main-Nav" transform="translate(-19.000000, -278.000000)" fill="#000000">
            <path d="M32,279 L32.0081158,279 C33.1082031,279 34,279.893397 34,280.991884 L34,292.008116 C34,293.108203 33.1066027,294 32.0081158,294 L20.9918842,294 C19.8917969,294 19,293.106603 19,292.008116 L19,280.991884 C19,279.891797 19.8933973,279 20.9918842,279 L21,279 L21,278.998957 C21,278.447248 21.4438648,278 22,278 C22.5522847,278 23,278.44266 23,278.998957 L23,279 L24,279 L24,278.998957 C24,278.447248 24.4438648,278 25,278 C25.5522847,278 26,278.44266 26,278.998957 L26,279 L27,279 L27,278.998957 C27,278.447248 27.4438648,278 28,278 C28.5522847,278 29,278.44266 29,278.998957 L29,279 L30,279 L30,278.998957 C30,278.447248 30.4438648,278 31,278 C31.5522847,278 32,278.44266 32,278.998957 L32,279 Z M34,289 L34,295.008116 C34,296.108203 33.1066027,297 32.0081158,297 L20.9918842,297 C19.8917969,297 19,296.10294 19,294.994141 L19,289.506987 L19,294.008116 C19,295.106603 19.8917969,296 20.9918842,296 L32.0081158,296 C33.1066027,296 34,295.108203 34,294.008116 L34,289 Z M30,281.504684 L30,282.495316 C30,282.785965 30.2259549,283 30.5046844,283 L31.4953156,283 C31.785965,283 32,282.774045 32,282.495316 L32,281.504684 C32,281.214035 31.7740451,281 31.4953156,281 L30.5046844,281 C30.214035,281 30,281.225955 30,281.504684 Z M30,284.504684 L30,285.495316 C30,285.785965 30.2259549,286 30.5046844,286 L31.4953156,286 C31.785965,286 32,285.774045 32,285.495316 L32,284.504684 C32,284.214035 31.7740451,284 31.4953156,284 L30.5046844,284 C30.214035,284 30,284.225955 30,284.504684 Z M30,287.504684 L30,288.495316 C30,288.785965 30.2259549,289 30.5046844,289 L31.4953156,289 C31.785965,289 32,288.774045 32,288.495316 L32,287.504684 C32,287.214035 31.7740451,287 31.4953156,287 L30.5046844,287 C30.214035,287 30,287.225955 30,287.504684 Z M30,290.504684 L30,291.495316 C30,291.785965 30.2259549,292 30.5046844,292 L31.4953156,292 C31.785965,292 32,291.774045 32,291.495316 L32,290.504684 C32,290.214035 31.7740451,290 31.4953156,290 L30.5046844,290 C30.214035,290 30,290.225955 30,290.504684 Z M27,281.504684 L27,282.495316 C27,282.785965 27.2259549,283 27.5046844,283 L28.4953156,283 C28.785965,283 29,282.774045 29,282.495316 L29,281.504684 C29,281.214035 28.7740451,281 28.4953156,281 L27.5046844,281 C27.214035,281 27,281.225955 27,281.504684 Z M27,284.504684 L27,285.495316 C27,285.785965 27.2259549,286 27.5046844,286 L28.4953156,286 C28.785965,286 29,285.774045 29,285.495316 L29,284.504684 C29,284.214035 28.7740451,284 28.4953156,284 L27.5046844,284 C27.214035,284 27,284.225955 27,284.504684 Z M27,287.504684 L27,288.495316 C27,288.785965 27.2259549,289 27.5046844,289 L28.4953156,289 C28.785965,289 29,288.774045 29,288.495316 L29,287.504684 C29,287.214035 28.7740451,287 28.4953156,287 L27.5046844,287 C27.214035,287 27,287.225955 27,287.504684 Z M27,290.504684 L27,291.495316 C27,291.785965 27.2259549,292 27.5046844,292 L28.4953156,292 C28.785965,292 29,291.774045 29,291.495316 L29,290.504684 C29,290.214035 28.7740451,290 28.4953156,290 L27.5046844,290 C27.214035,290 27,290.225955 27,290.504684 Z M24,281.504684 L24,282.495316 C24,282.785965 24.2259549,283 24.5046844,283 L25.4953156,283 C25.785965,283 26,282.774045 26,282.495316 L26,281.504684 C26,281.214035 25.7740451,281 25.4953156,281 L24.5046844,281 C24.214035,281 24,281.225955 24,281.504684 Z M24,284.504684 L24,285.495316 C24,285.785965 24.2259549,286 24.5046844,286 L25.4953156,286 C25.785965,286 26,285.774045 26,285.495316 L26,284.504684 C26,284.214035 25.7740451,284 25.4953156,284 L24.5046844,284 C24.214035,284 24,284.225955 24,284.504684 Z M24,287.504684 L24,288.495316 C24,288.785965 24.2259549,289 24.5046844,289 L25.4953156,289 C25.785965,289 26,288.774045 26,288.495316 L26,287.504684 C26,287.214035 25.7740451,287 25.4953156,287 L24.5046844,287 C24.214035,287 24,287.225955 24,287.504684 Z M24,290.504684 L24,291.495316 C24,291.785965 24.2259549,292 24.5046844,292 L25.4953156,292 C25.785965,292 26,291.774045 26,291.495316 L26,290.504684 C26,290.214035 25.7740451,290 25.4953156,290 L24.5046844,290 C24.214035,290 24,290.225955 24,290.504684 Z M21,281.504684 L21,282.495316 C21,282.785965 21.2259549,283 21.5046844,283 L22.4953156,283 C22.785965,283 23,282.774045 23,282.495316 L23,281.504684 C23,281.214035 22.7740451,281 22.4953156,281 L21.5046844,281 C21.214035,281 21,281.225955 21,281.504684 Z M21,284.504684 L21,285.495316 C21,285.785965 21.2259549,286 21.5046844,286 L22.4953156,286 C22.785965,286 23,285.774045 23,285.495316 L23,284.504684 C23,284.214035 22.7740451,284 22.4953156,284 L21.5046844,284 C21.214035,284 21,284.225955 21,284.504684 Z M21,287.504684 L21,288.495316 C21,288.785965 21.2259549,289 21.5046844,289 L22.4953156,289 C22.785965,289 23,288.774045 23,288.495316 L23,287.504684 C23,287.214035 22.7740451,287 22.4953156,287 L21.5046844,287 C21.214035,287 21,287.225955 21,287.504684 Z M21,290.504684 L21,291.495316 C21,291.785965 21.2259549,292 21.5046844,292 L22.4953156,292 C22.785965,292 23,291.774045 23,291.495316 L23,290.504684 C23,290.214035 22.7740451,290 22.4953156,290 L21.5046844,290 C21.214035,290 21,290.225955 21,290.504684 Z" id="calendar"></path>
        </g>
    </g>
</svg>
