<?xml version="1.0" encoding="UTF-8" standalone="no"?>
<svg width="24px" height="24px" viewBox="0 0 24 24" version="1.1" xmlns="http://www.w3.org/2000/svg" xmlns:xlink="http://www.w3.org/1999/xlink">
    <!-- Generator: Sketch 44.1 (41455) - http://www.bohemiancoding.com/sketch -->
    <title>calendar-s</title>
    <desc>Created with Sketch.</desc>
    <defs></defs>
    <g id="PDS" stroke="none" stroke-width="1" fill="none" fill-rule="evenodd">
        <g id="calendar-s" fill="#000000">
            <path d="M16.2222222,3.11111111 L16.2222222,3.00010991 C16.2222222,2.44776446 16.671922,2 17.2293023,2 L17.4373644,2 C17.9935593,2 18.4444444,2.44954817 18.4444444,3.00010991 L18.4444444,3.11111111 L18.6728318,3.11111111 C19.7739964,3.11111111 20.6666667,4.0071835 20.6666667,5.10494593 L20.6666667,15.447527 L20.6666667,13.1111111 L20.6666667,20.0061652 C20.6666667,21.1073297 19.7705943,22 18.6728318,22 L5.99383482,22 C4.89267025,22 4,21.1039276 4,20.0061652 L4,13.1111111 L4,18.8950541 C4,19.9928165 4.89267025,20.8888889 5.99383482,20.8888889 L18.6728318,20.8888889 C19.7705943,20.8888889 20.6666667,19.9962186 20.6666667,18.8950541 L20.6666667,15.447527 L20.6666667,17.783943 C20.6666667,18.8851075 19.7705943,19.7777778 18.6728318,19.7777778 L5.99383482,19.7777778 C4.89267025,19.7777778 4,18.8817054 4,17.783943 L4,5.10494593 C4,4.00378137 4.89607239,3.11111111 5.99383482,3.11111111 L6.22222222,3.11111111 L6.22222222,3.00010991 C6.22222222,2.44776446 6.67192205,2 7.2293023,2 L7.43736437,2 C7.99355934,2 8.44444444,2.44954817 8.44444444,3.00010991 L8.44444444,3.11111111 L9.55555556,3.11111111 L9.55555556,3.00010991 C9.55555556,2.44776446 10.0052554,2 10.5626356,2 L10.7706977,2 C11.3268927,2 11.7777778,2.44954817 11.7777778,3.00010991 L11.7777778,3.11111111 L12.8888889,3.11111111 L12.8888889,3.00010991 C12.8888889,2.44776446 13.3385887,2 13.895969,2 L14.104031,2 C14.660226,2 15.1111111,2.44954817 15.1111111,3.00010991 L15.1111111,3.11111111 L16.2222222,3.11111111 Z M16.2222222,5.82651647 L16.2222222,7.06237242 C16.2222222,7.3343561 16.4430278,7.55555556 16.7154054,7.55555556 L17.9512613,7.55555556 C18.223245,7.55555556 18.4444444,7.33474994 18.4444444,7.06237242 L18.4444444,5.82651647 C18.4444444,5.55453279 18.2236388,5.33333333 17.9512613,5.33333333 L16.7154054,5.33333333 C16.4434217,5.33333333 16.2222222,5.55413894 16.2222222,5.82651647 Z M16.2222222,9.1598498 L16.2222222,10.3957058 C16.2222222,10.6676894 16.4430278,10.8888889 16.7154054,10.8888889 L17.9512613,10.8888889 C18.223245,10.8888889 18.4444444,10.6680833 18.4444444,10.3957058 L18.4444444,9.1598498 C18.4444444,8.88786613 18.2236388,8.66666667 17.9512613,8.66666667 L16.7154054,8.66666667 C16.4434217,8.66666667 16.2222222,8.88747228 16.2222222,9.1598498 Z M16.2222222,12.4931831 L16.2222222,13.7290391 C16.2222222,14.0010228 16.4430278,14.2222222 16.7154054,14.2222222 L17.9512613,14.2222222 C18.223245,14.2222222 18.4444444,14.0014166 18.4444444,13.7290391 L18.4444444,12.4931831 C18.4444444,12.2211995 18.2236388,12 17.9512613,12 L16.7154054,12 C16.4434217,12 16.2222222,12.2208056 16.2222222,12.4931831 Z M16.2222222,15.8265165 L16.2222222,17.0623724 C16.2222222,17.3343561 16.4430278,17.5555556 16.7154054,17.5555556 L17.9512613,17.5555556 C18.223245,17.5555556 18.4444444,17.3347499 18.4444444,17.0623724 L18.4444444,15.8265165 C18.4444444,15.5545328 18.2236388,15.3333333 17.9512613,15.3333333 L16.7154054,15.3333333 C16.4434217,15.3333333 16.2222222,15.5541389 16.2222222,15.8265165 Z M12.8888889,5.82651647 L12.8888889,7.06237242 C12.8888889,7.3343561 13.1096945,7.55555556 13.382072,7.55555556 L14.617928,7.55555556 C14.8899117,7.55555556 15.1111111,7.33474994 15.1111111,7.06237242 L15.1111111,5.82651647 C15.1111111,5.55453279 14.8903055,5.33333333 14.617928,5.33333333 L13.382072,5.33333333 C13.1100883,5.33333333 12.8888889,5.55413894 12.8888889,5.82651647 Z M12.8888889,9.1598498 L12.8888889,10.3957058 C12.8888889,10.6676894 13.1096945,10.8888889 13.382072,10.8888889 L14.617928,10.8888889 C14.8899117,10.8888889 15.1111111,10.6680833 15.1111111,10.3957058 L15.1111111,9.1598498 C15.1111111,8.88786613 14.8903055,8.66666667 14.617928,8.66666667 L13.382072,8.66666667 C13.1100883,8.66666667 12.8888889,8.88747228 12.8888889,9.1598498 Z M12.8888889,12.4931831 L12.8888889,13.7290391 C12.8888889,14.0010228 13.1096945,14.2222222 13.382072,14.2222222 L14.617928,14.2222222 C14.8899117,14.2222222 15.1111111,14.0014166 15.1111111,13.7290391 L15.1111111,12.4931831 C15.1111111,12.2211995 14.8903055,12 14.617928,12 L13.382072,12 C13.1100883,12 12.8888889,12.2208056 12.8888889,12.4931831 Z M12.8888889,15.8265165 L12.8888889,17.0623724 C12.8888889,17.3343561 13.1096945,17.5555556 13.382072,17.5555556 L14.617928,17.5555556 C14.8899117,17.5555556 15.1111111,17.3347499 15.1111111,17.0623724 L15.1111111,15.8265165 C15.1111111,15.5545328 14.8903055,15.3333333 14.617928,15.3333333 L13.382072,15.3333333 C13.1100883,15.3333333 12.8888889,15.5541389 12.8888889,15.8265165 Z M9.55555556,5.82651647 L9.55555556,7.06237242 C9.55555556,7.3343561 9.77636117,7.55555556 10.0487387,7.55555556 L11.2845946,7.55555556 C11.5565783,7.55555556 11.7777778,7.33474994 11.7777778,7.06237242 L11.7777778,5.82651647 C11.7777778,5.55453279 11.5569722,5.33333333 11.2845946,5.33333333 L10.0487387,5.33333333 C9.77675502,5.33333333 9.55555556,5.55413894 9.55555556,5.82651647 Z M9.55555556,9.1598498 L9.55555556,10.3957058 C9.55555556,10.6676894 9.77636117,10.8888889 10.0487387,10.8888889 L11.2845946,10.8888889 C11.5565783,10.8888889 11.7777778,10.6680833 11.7777778,10.3957058 L11.7777778,9.1598498 C11.7777778,8.88786613 11.5569722,8.66666667 11.2845946,8.66666667 L10.0487387,8.66666667 C9.77675502,8.66666667 9.55555556,8.88747228 9.55555556,9.1598498 Z M9.55555556,12.4931831 L9.55555556,13.7290391 C9.55555556,14.0010228 9.77636117,14.2222222 10.0487387,14.2222222 L11.2845946,14.2222222 C11.5565783,14.2222222 11.7777778,14.0014166 11.7777778,13.7290391 L11.7777778,12.4931831 C11.7777778,12.2211995 11.5569722,12 11.2845946,12 L10.0487387,12 C9.77675502,12 9.55555556,12.2208056 9.55555556,12.4931831 Z M9.55555556,15.8265165 L9.55555556,17.0623724 C9.55555556,17.3343561 9.77636117,17.5555556 10.0487387,17.5555556 L11.2845946,17.5555556 C11.5565783,17.5555556 11.7777778,17.3347499 11.7777778,17.0623724 L11.7777778,15.8265165 C11.7777778,15.5545328 11.5569722,15.3333333 11.2845946,15.3333333 L10.0487387,15.3333333 C9.77675502,15.3333333 9.55555556,15.5541389 9.55555556,15.8265165 Z M6.22222222,5.82651647 L6.22222222,7.06237242 C6.22222222,7.3343561 6.44302783,7.55555556 6.71540536,7.55555556 L7.95126131,7.55555556 C8.22324498,7.55555556 8.44444444,7.33474994 8.44444444,7.06237242 L8.44444444,5.82651647 C8.44444444,5.55453279 8.22363883,5.33333333 7.95126131,5.33333333 L6.71540536,5.33333333 C6.44342168,5.33333333 6.22222222,5.55413894 6.22222222,5.82651647 Z M6.22222222,9.1598498 L6.22222222,10.3957058 C6.22222222,10.6676894 6.44302783,10.8888889 6.71540536,10.8888889 L7.95126131,10.8888889 C8.22324498,10.8888889 8.44444444,10.6680833 8.44444444,10.3957058 L8.44444444,9.1598498 C8.44444444,8.88786613 8.22363883,8.66666667 7.95126131,8.66666667 L6.71540536,8.66666667 C6.44342168,8.66666667 6.22222222,8.88747228 6.22222222,9.1598498 Z M6.22222222,12.4931831 L6.22222222,13.7290391 C6.22222222,14.0010228 6.44302783,14.2222222 6.71540536,14.2222222 L7.95126131,14.2222222 C8.22324498,14.2222222 8.44444444,14.0014166 8.44444444,13.7290391 L8.44444444,12.4931831 C8.44444444,12.2211995 8.22363883,12 7.95126131,12 L6.71540536,12 C6.44342168,12 6.22222222,12.2208056 6.22222222,12.4931831 Z M6.22222222,15.8265165 L6.22222222,17.0623724 C6.22222222,17.3343561 6.44302783,17.5555556 6.71540536,17.5555556 L7.95126131,17.5555556 C8.22324498,17.5555556 8.44444444,17.3347499 8.44444444,17.0623724 L8.44444444,15.8265165 C8.44444444,15.5545328 8.22363883,15.3333333 7.95126131,15.3333333 L6.71540536,15.3333333 C6.44342168,15.3333333 6.22222222,15.5541389 6.22222222,15.8265165 Z" id="Combined-Shape"></path>
        </g>
    </g>
</svg>