<?xml version="1.0" encoding="UTF-8" standalone="no"?>
<svg width="24px" height="24px" viewBox="0 0 24 24" version="1.1" xmlns="http://www.w3.org/2000/svg" xmlns:xlink="http://www.w3.org/1999/xlink">
    <!-- Generator: Sketch 44.1 (41455) - http://www.bohemiancoding.com/sketch -->
    <title>camera-f</title>
    <desc>Created with Sketch.</desc>
    <defs></defs>
    <g id="PDS" stroke="none" stroke-width="1" fill="none" fill-rule="evenodd">
        <g id="camera-f" fill="#000000">
            <path d="M17,6 L7,6 C7,4.8954305 7.8954305,4 9,4 L15,4 C16.1045695,4 17,4.8954305 17,6 L20,6 C21.1045695,6 22,6.8954305 22,8 L22,18 C22,19.1045695 21.1045695,20 20,20 L4,20 C2.8954305,20 2,19.1045695 2,18 L2,8 C2,6.8954305 2.8954305,6 4,6 L4,6 L7,6 Z M12,18 C14.7614237,18 17,15.7614237 17,13 C17,10.2385763 14.7614237,8 12,8 C9.23857625,8 7,10.2385763 7,13 C7,15.7614237 9.23857625,18 12,18 Z M12,16.5 C10.0670034,16.5 8.5,14.9329966 8.5,13 C8.5,11.0670034 10.0670034,9.5 12,9.5 C13.9329966,9.5 15.5,11.0670034 15.5,13 C15.5,14.9329966 13.9329966,16.5 12,16.5 Z M20,9 C20.5522847,9 21,8.55228475 21,8 C21,7.44771525 20.5522847,7 20,7 C19.4477153,7 19,7.44771525 19,8 C19,8.55228475 19.4477153,9 20,9 Z" id="Combined-Shape"></path>
        </g>
    </g>
</svg>