<?xml version="1.0" encoding="UTF-8" standalone="no"?>
<svg width="24px" height="24px" viewBox="0 0 24 24" version="1.1" xmlns="http://www.w3.org/2000/svg" xmlns:xlink="http://www.w3.org/1999/xlink">
    <!-- Generator: Sketch 44.1 (41455) - http://www.bohemiancoding.com/sketch -->
    <title>catalog</title>
    <desc>Created with Sketch.</desc>
    <defs></defs>
    <g id="PDS" stroke="none" stroke-width="1" fill="none" fill-rule="evenodd">
        <g id="catalog" fill="#000000">
            <path d="M2,2.99180311 C2,2.44404538 2.45097518,2 2.99077797,2 L7.00922203,2 C7.55641359,2 8,2.45530558 8,2.99180311 L8,21.0081969 C8,21.5559546 7.54902482,22 7.00922203,22 L2.99077797,22 C2.44358641,22 2,21.5446944 2,21.0081969 L2,2.99180311 Z M3,4.5 C3,4.76806641 3.21959471,5 3.49047852,5 L6.50952148,5 C6.78494263,5 7,4.77614237 7,4.5 C7,4.23193359 6.78040529,4 6.50952148,4 L3.49047852,4 C3.21505737,4 3,4.22385763 3,4.5 Z M3,6.5 C3,6.76806641 3.21959471,7 3.49047852,7 L6.50952148,7 C6.78494263,7 7,6.77614237 7,6.5 C7,6.23193359 6.78040529,6 6.50952148,6 L3.49047852,6 C3.21505737,6 3,6.22385763 3,6.5 Z M3,8.5 C3,8.76806641 3.21959471,9 3.49047852,9 L6.50952148,9 C6.78494263,9 7,8.77614237 7,8.5 C7,8.23193359 6.78040529,8 6.50952148,8 L3.49047852,8 C3.21505737,8 3,8.22385763 3,8.5 Z M3,19.5 C3,19.7680664 3.21959471,20 3.49047852,20 L6.50952148,20 C6.78494263,20 7,19.7761424 7,19.5 C7,19.2319336 6.78040529,19 6.50952148,19 L3.49047852,19 C3.21505737,19 3,19.2238576 3,19.5 Z M9,2.99180311 C9,2.44404538 9.45097518,2 9.99077797,2 L14.009222,2 C14.5564136,2 15,2.45530558 15,2.99180311 L15,21.0081969 C15,21.5559546 14.5490248,22 14.009222,22 L9.99077797,22 C9.44358641,22 9,21.5446944 9,21.0081969 L9,2.99180311 Z M10,4.5 C10,4.76806641 10.2195947,5 10.4904785,5 L13.5095215,5 C13.7849426,5 14,4.77614237 14,4.5 C14,4.23193359 13.7804053,4 13.5095215,4 L10.4904785,4 C10.2150574,4 10,4.22385763 10,4.5 Z M10,6.5 C10,6.76806641 10.2195947,7 10.4904785,7 L13.5095215,7 C13.7849426,7 14,6.77614237 14,6.5 C14,6.23193359 13.7804053,6 13.5095215,6 L10.4904785,6 C10.2150574,6 10,6.22385763 10,6.5 Z M10,8.5 C10,8.76806641 10.2195947,9 10.4904785,9 L13.5095215,9 C13.7849426,9 14,8.77614237 14,8.5 C14,8.23193359 13.7804053,8 13.5095215,8 L10.4904785,8 C10.2150574,8 10,8.22385763 10,8.5 Z M10,19.5 C10,19.7680664 10.2195947,20 10.4904785,20 L13.5095215,20 C13.7849426,20 14,19.7761424 14,19.5 C14,19.2319336 13.7804053,19 13.5095215,19 L10.4904785,19 C10.2150574,19 10,19.2238576 10,19.5 Z M16,2.99180311 C16,2.44404538 16.4509752,2 16.990778,2 L21.009222,2 C21.5564136,2 22,2.45530558 22,2.99180311 L22,21.0081969 C22,21.5559546 21.5490248,22 21.009222,22 L16.990778,22 C16.4435864,22 16,21.5446944 16,21.0081969 L16,2.99180311 Z M17,4.5 C17,4.76806641 17.2195947,5 17.4904785,5 L20.5095215,5 C20.7849426,5 21,4.77614237 21,4.5 C21,4.23193359 20.7804053,4 20.5095215,4 L17.4904785,4 C17.2150574,4 17,4.22385763 17,4.5 Z M17,6.5 C17,6.76806641 17.2195947,7 17.4904785,7 L20.5095215,7 C20.7849426,7 21,6.77614237 21,6.5 C21,6.23193359 20.7804053,6 20.5095215,6 L17.4904785,6 C17.2150574,6 17,6.22385763 17,6.5 Z M17,8.5 C17,8.76806641 17.2195947,9 17.4904785,9 L20.5095215,9 C20.7849426,9 21,8.77614237 21,8.5 C21,8.23193359 20.7804053,8 20.5095215,8 L17.4904785,8 C17.2150574,8 17,8.22385763 17,8.5 Z M17,19.5 C17,19.7680664 17.2195947,20 17.4904785,20 L20.5095215,20 C20.7849426,20 21,19.7761424 21,19.5 C21,19.2319336 20.7804053,19 20.5095215,19 L17.4904785,19 C17.2150574,19 17,19.2238576 17,19.5 Z" id="Combined-Shape"></path>
        </g>
    </g>
</svg>