<?xml version="1.0" encoding="UTF-8" standalone="no"?>
<svg width="24px" height="24px" viewBox="0 0 24 24" version="1.1" xmlns="http://www.w3.org/2000/svg" xmlns:xlink="http://www.w3.org/1999/xlink">
    <!-- Generator: Sketch 44.1 (41455) - http://www.bohemiancoding.com/sketch -->
    <title>checkmark-square</title>
    <desc>Created with Sketch.</desc>
    <defs></defs>
    <g id="PDS" stroke="none" stroke-width="1" fill="none" fill-rule="evenodd">
        <g id="checkmark-square" fill="#000000">
            <path d="M10.6130695,16.364461 C10.8872631,16.3809773 11.1665609,16.2847621 11.3759707,16.0753523 L17.7461861,9.70513692 C18.1349833,9.31633972 18.1363059,8.68729749 17.7430589,8.29405054 C17.3525346,7.90352625 16.7214049,7.901491 16.3319725,8.29092336 L10.6039716,14.0189243 L7.70959635,11.124549 C7.3100471,10.7249998 6.68383574,10.7319534 6.29331144,11.1224777 C5.90006449,11.5157246 5.90371453,12.1470943 6.29538279,12.5387626 L9.826774,16.0701538 C10.0460726,16.2894524 10.3336538,16.3862909 10.6130695,16.364461 Z M2,5.99922997 C2,3.79051625 3.79246765,2 5.99922997,2 L18.00077,2 C20.2094838,2 22,3.79246765 22,5.99922997 L22,18.00077 C22,20.2094838 20.2075324,22 18.00077,22 L5.99922997,22 C3.79051625,22 2,20.2075324 2,18.00077 L2,5.99922997 Z" id="filled-checkbox"></path>
        </g>
    </g>
</svg>