<?xml version="1.0" encoding="UTF-8"?>
<svg width="26px" height="26px" viewBox="0 0 26 26" version="1.1" xmlns="http://www.w3.org/2000/svg" xmlns:xlink="http://www.w3.org/1999/xlink">
    <!-- Generator: Sketch 42 (36781) - http://www.bohemiancoding.com/sketch -->
    <title>circle-slash</title>
    <desc>Created with Sketch.</desc>
    <defs></defs>
    <g id="Page-1" stroke="none" stroke-width="1" fill="none" fill-rule="evenodd">
        <g id="Icons" fill-rule="nonzero" fill="#000000">
            <g id="circle-slash">
                <path d="M17.9724583,9.20147874 L18.9436614,10.8015211 C19.0606744,10.9965429 18.989735,11.2449898 18.7834998,11.3582671 L8.61439085,16.944808 C8.4081561,17.0570811 8.14560989,16.9930111 8.02786616,16.7984914 L7.05666327,15.1984491 C6.93891953,15.0034273 7.01058963,14.7549804 7.21682438,14.6411005 L17.3852021,9.05546346 C17.5914374,8.94308993 17.8547146,9.00625611 17.9724583,9.20167959 L17.9724583,9.20147874 Z" id="rect3065"></path>
                <path d="M13,1.95 C19.0942139,1.95 24.05,6.90669474 24.05,13 C24.05,19.0941263 19.0932861,24.05 13,24.05 C6.90671431,24.05 1.95,19.0933053 1.95,13 C1.95,6.90669474 6.90671431,1.95 13,1.95 L13,1.95 Z M13,0 C5.83235722,0 0,5.83234737 0,13 C0,20.1684737 5.83235722,26 13,26 C20.1695,26 26,20.1676526 26,13 C26,5.83234737 20.1695,0 13,0 L13,0 Z" id="path23"></path>
            </g>
        </g>
    </g>
</svg>