<?xml version="1.0" encoding="UTF-8"?>
<svg width="26px" height="26px" viewBox="0 0 26 26" version="1.1" xmlns="http://www.w3.org/2000/svg" xmlns:xlink="http://www.w3.org/1999/xlink">
    <!-- Generator: Sketch 42 (36781) - http://www.bohemiancoding.com/sketch -->
    <title>circle-part-full</title>
    <desc>Created with Sketch.</desc>
    <defs></defs>
    <g id="Page-1" stroke="none" stroke-width="1" fill="none" fill-rule="evenodd">
        <g id="Icons" fill="#000000">
            <g id="circle-part-full">
                <path d="M12.8,21.53125 C16.0172,21.53125 18.8092,19.6925625 20.22,16.9946563 L5.38,16.9946563 C6.7908,19.6925625 9.5828,21.53125 12.8,21.53125" id="Fill-4"></path>
                <path d="M12.8,23.15625 C8.674,23.15625 5.1324,20.6175938 3.6044,16.9946562 L3.6044,16.9946562 C3.4104,16.5347813 3.2488,16.0578437 3.1228,15.5662813 L3.1228,15.565875 C3.0832,15.4123125 3.0476,15.2567188 3.0152,15.0999063 C3.0132,15.0893438 3.01,15.078375 3.008,15.0674062 C2.978,14.9203438 2.952,14.77125 2.9284,14.62175 C2.9252,14.6014375 2.9208,14.5815313 2.9176,14.5612188 C2.8964,14.4214688 2.8796,14.2796875 2.864,14.1379063 C2.8608,14.1074375 2.856,14.077375 2.8528,14.0473125 C2.8388,13.9091875 2.8296,13.7698438 2.8212,13.6300938 C2.8188,13.5951563 2.8152,13.5610312 2.8132,13.5265 C2.8044,13.3522188 2.8,13.1767188 2.8,13 C2.8,7.39090625 7.2772,2.84375 12.8,2.84375 C18.3228,2.84375 22.8,7.39090625 22.8,13 C22.8,13.1767188 22.7956,13.3522188 22.7868,13.5265 C22.7848,13.5610312 22.7812,13.5951563 22.7788,13.6300938 C22.7704,13.7698438 22.7612,13.9091875 22.7472,14.0473125 C22.7444,14.077375 22.7392,14.1074375 22.736,14.1379063 C22.7204,14.2796875 22.7036,14.4214688 22.6824,14.5612188 C22.6792,14.5815313 22.6748,14.6014375 22.6716,14.62175 C22.648,14.77125 22.622,14.9203438 22.592,15.0674062 C22.59,15.0787813 22.5868,15.08975 22.5844,15.1007188 C22.5524,15.2567188 22.5168,15.4119063 22.4776,15.5654688 C22.4768,15.5679063 22.476,15.57075 22.4752,15.5731875 C22.3496,16.0623125 22.1888,16.5372188 21.996,16.9946562 L21.9956,16.9946562 C20.4676,20.6175938 16.926,23.15625 12.8,23.15625 M12.8,0 C5.7308,0 0,5.82034375 0,13 C0,20.1796563 5.7308,26 12.8,26 C19.8692,26 25.6,20.1796563 25.6,13 C25.6,5.82034375 19.8692,0 12.8,0" id="Fill-6"></path>
            </g>
        </g>
    </g>
</svg>