<?xml version="1.0" encoding="UTF-8"?>
<svg width="26px" height="26px" viewBox="0 0 26 26" version="1.1" xmlns="http://www.w3.org/2000/svg" xmlns:xlink="http://www.w3.org/1999/xlink">
    <!-- Generator: Sketch 42 (36781) - http://www.bohemiancoding.com/sketch -->
    <title>circle-alert-s</title>
    <desc>Created with Sketch.</desc>
    <defs></defs>
    <g id="Page-1" stroke="none" stroke-width="1" fill="none" fill-rule="evenodd">
        <g id="Icons" fill-rule="nonzero" fill="#000000">
            <g id="circle-alert-s">
                <path d="M13.003925,7 C14.0444188,7 14.3078502,7.86607577 14.3078502,8.44947404 L14.0540419,13.6928411 C14.0540419,14.2750365 13.5837146,14.5023814 13.003925,14.5023814 C12.4241354,14.5023814 11.9538081,14.2762394 11.9538081,13.6928411 L11.6999998,8.44947404 C11.6999998,7.86487289 11.9634312,7 13.003925,7 Z" id="path12"></path>
                <ellipse id="ellipse14" cx="13.0364027" cy="17.347229" rx="1.33640291" ry="1.34722898"></ellipse>
                <path d="M13,1.94993669 C19.0941853,1.94993669 24.0500633,6.90708094 24.0500633,13 C24.0500633,19.0941853 19.0941853,24.0500633 13,24.0500633 C6.90708094,24.0500633 1.94993669,19.0941853 1.94993669,13 C1.94993669,6.90708094 6.90708094,1.94993669 13,1.94993669 L13,1.94993669 Z M13,1.40575624e-16 C5.83208337,0 0,5.83208337 0,13 C0,20.1679166 5.83208337,26 13,26 C20.1691828,26 26,20.1679166 26,13 C26,5.83208337 20.1691828,0 13,0 L13,0 L13,1.40575624e-16 Z" id="path16"></path>
            </g>
        </g>
    </g>
</svg>