<?xml version="1.0" encoding="UTF-8" standalone="no"?>
<svg width="24px" height="24px" viewBox="0 0 24 24" version="1.1" xmlns="http://www.w3.org/2000/svg" xmlns:xlink="http://www.w3.org/1999/xlink">
    <!-- Generator: Sketch 44.1 (41455) - http://www.bohemiancoding.com/sketch -->
    <title>clock-add</title>
    <desc>Created with Sketch.</desc>
    <defs></defs>
    <g id="PDS" stroke="none" stroke-width="1" fill="none" fill-rule="evenodd">
        <g id="clock-add" fill="#000000">
            <path d="M17.9288679,11.0714646 C17.6261374,11.0244162 17.31592,11 17,11 C13.6862915,11 11,13.6862915 11,17 C11,17.31592 11.0244162,17.6261374 11.0714646,17.9288679 C10.7209842,17.9757805 10.3633205,18 10,18 C5.581722,18 2,14.418278 2,10 C2,5.581722 5.581722,2 10,2 C14.418278,2 18,5.581722 18,10 C18,10.3633205 17.9757805,10.7209842 17.9288679,11.0714646 Z M10.4996729,10.0799999 C10.4998904,10.0733599 10.5,10.0666927 10.5,10.0599998 L10.5,4.60000002 L10.5,4.60000002 C10.5,4.26862916 10.2313708,4 9.89999998,4 C9.56862911,4 9.29999995,4.26862916 9.29999995,4.60000002 L9.29999995,9.5 L4.44000018,9.5 L4.44000018,9.5 C4.10862931,9.5 3.84000015,9.76862916 3.84000015,10.1 L3.84000015,10.1 C3.84000015,10.4313709 4.10862931,10.7 4.44000018,10.7 L9.89999998,10.7 C10.2313708,10.7 10.5,10.4313709 10.5,10.1 C10.5,10.0933072 10.4998904,10.0866399 10.4996729,10.0799999 Z M17,22 C14.2385763,22 12,19.7614237 12,17 C12,14.2385763 14.2385763,12 17,12 C19.7614237,12 22,14.2385763 22,17 C22,19.7614237 19.7614237,22 17,22 Z M16.5,16.5 L14.5004358,16.5 C14.2240528,16.5 14,16.7219324 14,17 C14,17.2761424 14.2223154,17.5 14.5004358,17.5 L16.5,17.5 L16.5,19.4995642 C16.5,19.7759472 16.7219324,20 17,20 C17.2761424,20 17.5,19.7776846 17.5,19.4995642 L17.5,17.5 L19.4995642,17.5 C19.7759472,17.5 20,17.2780676 20,17 C20,16.7238576 19.7776846,16.5 19.4995642,16.5 L17.5,16.5 L17.5,14.5004358 C17.5,14.2240528 17.2780676,14 17,14 C16.7238576,14 16.5,14.2223154 16.5,14.5004358 L16.5,16.5 Z" id="Combined-Shape"></path>
        </g>
    </g>
</svg>