<?xml version="1.0" encoding="UTF-8"?>
<svg width="26px" height="26px" viewBox="0 0 26 26" version="1.1" xmlns="http://www.w3.org/2000/svg" xmlns:xlink="http://www.w3.org/1999/xlink">
    <!-- Generator: Sketch 42 (36781) - http://www.bohemiancoding.com/sketch -->
    <title>clock-s</title>
    <desc>Created with Sketch.</desc>
    <defs></defs>
    <g id="Page-1" stroke="none" stroke-width="1" fill="none" fill-rule="evenodd">
        <g id="Icons" fill="#000000">
            <g id="clock-s">
                <path d="M13,22.8 C7.39090625,22.8 2.84375,18.3228 2.84375,12.8 C2.84375,7.2772 7.39090625,2.8 13,2.8 C18.6090938,2.8 23.15625,7.2772 23.15625,12.8 C23.15625,18.3228 18.6090938,22.8 13,22.8 M13,0 C5.82034375,0 0,5.7308 0,12.8 C0,19.8692 5.82034375,25.6 13,25.6 C20.1796563,25.6 26,19.8692 26,12.8 C26,5.7308 20.1796563,0 13,0" id="Fill-8"></path>
                <path d="M12.8772312,14.375 C12.2471375,14.375 11.73445,13.8702 11.73445,13.2498 L11.73445,6.4502 C11.73445,5.8298 12.2471375,5.325 12.8772312,5.325 C13.507325,5.325 14.0200125,5.8298 14.0200125,6.4502 L14.0200125,11.8002 C14.0200125,11.9794 14.1678875,12.125 14.3498875,12.125 L17.7522312,12.125 C18.382325,12.125 18.8950125,12.6298 18.8950125,13.2498 C18.8950125,13.8702 18.382325,14.375 17.7522312,14.375 L12.8772312,14.375 Z" id="Fill-10"></path>
            </g>
        </g>
    </g>
</svg>