<?xml version="1.0" encoding="UTF-8" standalone="no"?>
<svg width="24px" height="24px" viewBox="0 0 24 24" version="1.1" xmlns="http://www.w3.org/2000/svg" xmlns:xlink="http://www.w3.org/1999/xlink">
    <!-- Generator: Sketch 44.1 (41455) - http://www.bohemiancoding.com/sketch -->
    <title>clock-s</title>
    <desc>Created with Sketch.</desc>
    <defs></defs>
    <g id="PDS" stroke="none" stroke-width="1" fill="none" fill-rule="evenodd">
        <g id="clock-s" fill-rule="nonzero" fill="#000000">
            <path d="M11.2918345,12.7081835 C11.3069035,12.7263746 11.3229687,12.7440361 11.3400313,12.7610987 C11.4892936,12.910361 11.6859655,12.9834091 11.8819611,12.9801587 C12.0717649,12.9786417 12.2607794,12.9055697 12.4053301,12.761019 C12.4220997,12.7442494 12.4379059,12.7269012 12.4527498,12.7090404 L17.223171,7.93861921 C17.517361,7.64442921 17.5204542,7.17054623 17.225519,6.87561102 C16.9326258,6.5827178 16.4571814,6.58328844 16.1625108,6.87795904 L11.8727206,11.1677493 L7.58285056,6.8778793 C7.28817996,6.5832087 6.81273559,6.58263806 6.51984237,6.87553128 C6.22490715,7.1704665 6.2280004,7.64434948 6.52219039,7.93853947 L11.2918345,12.7081835 Z M12,22.0021355 C6.4771525,22.0021355 2,17.524983 2,12.0021355 C2,6.47928802 6.4771525,2.00213552 12,2.00213552 C17.5228475,2.00213552 22,6.47928802 22,12.0021355 C22,17.524983 17.5228475,22.0021355 12,22.0021355 Z" id="Chevron-Box" transform="translate(12.000000, 12.002136) scale(-1, 1) rotate(315.000000) translate(-12.000000, -12.002136) "></path>
        </g>
    </g>
</svg>