<?xml version="1.0" encoding="UTF-8"?>
<svg width="13px" height="13px" viewBox="0 0 13 13" version="1.1" xmlns="http://www.w3.org/2000/svg" xmlns:xlink="http://www.w3.org/1999/xlink">
    <!-- Generator: Sketch 42 (36781) - http://www.bohemiancoding.com/sketch -->
    <title>close</title>
    <desc>Created with Sketch.</desc>
    <defs></defs>
    <g id="Page-1" stroke="none" stroke-width="1" fill="none" fill-rule="evenodd">
        <path d="M13.5732905,5.34789723 L8.30729053,5.34789723 L8.30729053,0.0138972322 C8.30729053,-0.722574568 7.71026053,-1.31960277 6.97379053,-1.31960277 C6.23732053,-1.31960277 5.64029053,-0.722574568 5.64029053,0.0138972322 L5.64029053,5.34789723 L0.373290525,5.34789723 C-0.363179475,5.34789723 -0.960209475,5.94492543 -0.960209475,6.68139723 C-0.960209475,7.41786893 -0.363179475,8.01489723 0.373290525,8.01489723 L5.64029053,8.01489723 L5.64029053,13.3478972 C5.64029053,14.0843689 6.23732053,14.6813972 6.97379053,14.6813972 C7.71026053,14.6813972 8.30729053,14.0843689 8.30729053,13.3478972 L8.30729053,8.01389723 L13.5742905,8.01389723 C14.3107605,8.01389723 14.9077905,7.41686893 14.9077905,6.68039723 C14.9077905,5.94392543 14.3107605,5.34689723 13.5742905,5.34689723 L13.5732905,5.34789723 Z" id="close" fill="#000000" fill-rule="nonzero" transform="translate(6.973791, 6.680897) rotate(45.000000) translate(-6.973791, -6.680897) "></path>
    </g>
</svg>