<?xml version="1.0" encoding="UTF-8" standalone="no"?>
<svg width="24px" height="24px" viewBox="0 0 24 24" version="1.1" xmlns="http://www.w3.org/2000/svg" xmlns:xlink="http://www.w3.org/1999/xlink">
    <!-- Generator: Sketch 44.1 (41455) - http://www.bohemiancoding.com/sketch -->
    <title>comments</title>
    <desc>Created with Sketch.</desc>
    <defs></defs>
    <g id="PDS" stroke="none" stroke-width="1" fill="none" fill-rule="evenodd">
        <g id="comments" fill="#000000">
            <path d="M8.99995869,17 C8.99998621,17.0031192 9,17.0062422 9,17.0093689 L9,18.9906311 C9,19.5480902 8.68612671,19.6861267 8.29408795,19.2940879 L6,17 L2.99180311,17 C2.44404538,17 2,16.5525106 2,16.0014977 L2,4.99850233 C2,4.44704472 2.45530558,4 2.99180311,4 L21.0081969,4 C21.5559546,4 22,4.44748943 22,4.99850233 L22,16.0014977 C22,16.5529553 21.5446944,17 21.0081969,17 L8.99995869,17 Z M5,7.5 C5,7.76806641 5.22308192,8 5.49826741,8 L18.5017326,8 C18.7800934,8 19,7.77614237 19,7.5 C19,7.23193359 18.7769181,7 18.5017326,7 L5.49826741,7 C5.21990657,7 5,7.22385763 5,7.5 Z M5,10.5 C5,10.7680664 5.22308192,11 5.49826741,11 L18.5017326,11 C18.7800934,11 19,10.7761424 19,10.5 C19,10.2319336 18.7769181,10 18.5017326,10 L5.49826741,10 C5.21990657,10 5,10.2238576 5,10.5 Z M5,13.5 C5,13.7680664 5.21983051,14 5.49100518,14 L10.5089948,14 C10.7721195,14 11,13.7761424 11,13.5 C11,13.2319336 10.7801695,13 10.5089948,13 L5.49100518,13 C5.22788048,13 5,13.2238576 5,13.5 Z" id="comment"></path>
        </g>
    </g>
</svg>