<?xml version="1.0" encoding="UTF-8" standalone="no"?>
<svg width="24px" height="24px" viewBox="0 0 24 24" version="1.1" xmlns="http://www.w3.org/2000/svg" xmlns:xlink="http://www.w3.org/1999/xlink">
    <!-- Generator: Sketch 44.1 (41455) - http://www.bohemiancoding.com/sketch -->
    <title>csv</title>
    <desc>Created with Sketch.</desc>
    <defs></defs>
    <g id="PDS" stroke="none" stroke-width="1" fill="none" fill-rule="evenodd">
        <g id="csv" fill="#000000">
            <path d="M17,9 L8.00010618,9 C6.89005841,9 6,9.89525812 6,10.999615 L6,17.000385 C6,18.1125667 6.89547804,19 8.00010618,19 L17,19 L17,20.951 C17,21.53 16.53,22 15.951,22 L3.049,22 C2.47,22 2,21.53 2,20.951 L2,3.049 C2,2.47 2.47,2 3.049,2 L12.427,2 C12.963,2 13.477,2.214 13.854,2.596 L16.419,5.188 C16.791,5.564 17,6.072 17,6.601 L17,9 Z M7,11.5047388 C7,10.6736945 7.66388585,10 8.49309635,10 L20.5069036,10 C21.331518,10 22,10.6683155 22,11.5047388 L22,16.4952612 C22,17.3263055 21.3361142,18 20.5069036,18 L8.49309635,18 C7.66848201,18 7,17.3316845 7,16.4952612 L7,11.5047388 Z M11.0688477,12.3129883 C11.2511402,12.3129883 11.436848,12.3460283 11.6259766,12.4121094 C11.8151051,12.4781904 12.0030915,12.5556636 12.1899414,12.6445312 L12.5317383,11.7832031 C12.041827,11.5485014 11.5542016,11.4311523 11.0688477,11.4311523 C10.5926083,11.4311523 10.1773292,11.5353993 9.82299805,11.7438965 C9.46866685,11.9523936 9.19694105,12.2520326 9.0078125,12.6428223 C8.81868395,13.033612 8.72412109,13.4887669 8.72412109,14.0083008 C8.72412109,14.8331747 8.91666474,15.4660622 9.30175781,15.9069824 C9.68685088,16.3479026 10.2428349,16.5683594 10.9697266,16.5683594 C11.4755885,16.5683594 11.9335917,16.482911 12.34375,16.3120117 L12.34375,15.4233398 C11.8447241,15.5987965 11.4197609,15.6865234 11.0688477,15.6865234 C10.2325805,15.6865234 9.81445312,15.1294001 9.81445312,14.0151367 C9.81445312,13.4796523 9.92382703,13.0620946 10.1425781,12.7624512 C10.3613292,12.4628077 10.6700826,12.3129883 11.0688477,12.3129883 Z M16.3564453,15.1123047 C16.3564453,14.7864567 16.2698576,14.511313 16.0966797,14.2868652 C15.9235017,14.0624175 15.6033552,13.8385428 15.1362305,13.6152344 C14.7830386,13.4466137 14.5591639,13.3298343 14.4645996,13.2648926 C14.3700353,13.1999508 14.301107,13.1327315 14.2578125,13.0632324 C14.214518,12.9937334 14.1928711,12.9122726 14.1928711,12.8188477 C14.1928711,12.6684563 14.2464187,12.5465499 14.3535156,12.453125 C14.4606125,12.3597001 14.6144196,12.3129883 14.8149414,12.3129883 C14.983562,12.3129883 15.1550284,12.3346352 15.3293457,12.3779297 C15.503663,12.4212242 15.7241198,12.497558 15.9907227,12.6069336 L16.3325195,11.7832031 C16.0750313,11.6715489 15.8283703,11.5849612 15.5925293,11.5234375 C15.3566883,11.4619138 15.108888,11.4311523 14.8491211,11.4311523 C14.3204726,11.4311523 13.9063329,11.5576159 13.6066895,11.8105469 C13.307046,12.0634778 13.1572266,12.4109678 13.1572266,12.8530273 C13.1572266,13.087729 13.202799,13.2928051 13.2939453,13.4682617 C13.3850916,13.6437183 13.5069979,13.7975254 13.659668,13.9296875 C13.812338,14.0618496 14.0413396,14.1997063 14.3466797,14.3432617 C14.6725277,14.4982104 14.8884272,14.6110023 14.9943848,14.6816406 C15.1003423,14.752279 15.1806638,14.8257646 15.2353516,14.9020996 C15.2900393,14.9784346 15.3173828,15.065592 15.3173828,15.1635742 C15.3173828,15.3390308 15.2552903,15.471191 15.1311035,15.5600586 C15.0069167,15.6489262 14.8286144,15.6933594 14.5961914,15.6933594 C14.4025055,15.6933594 14.1888846,15.662598 13.9553223,15.6010742 C13.7217599,15.5395505 13.4363624,15.4335945 13.0991211,15.2832031 L13.0991211,16.2675781 C13.5092794,16.4681 13.9809544,16.5683594 14.5141602,16.5683594 C15.0929391,16.5683594 15.5446761,16.4384779 15.8693848,16.1787109 C16.1940934,15.918944 16.3564453,15.5634788 16.3564453,15.1123047 Z M20.112793,11.5029297 L19.1660156,14.4765625 C19.0201816,15.0006537 18.9347332,15.367512 18.909668,15.5771484 C18.895996,15.4860021 18.861247,15.3236503 18.8054199,15.0900879 C18.7495928,14.8565255 18.6954755,14.6520191 18.6430664,14.4765625 L17.703125,11.5029297 L16.6333008,11.5029297 L18.3286133,16.5 L19.4838867,16.5 L21.1826172,11.5029297 L20.112793,11.5029297 Z" id="Combined-Shape"></path>
        </g>
    </g>
</svg>