<svg xmlns="http://www.w3.org/2000/svg" viewBox="694 313 26 26">
  <title>Dashboard</title>
  <desc>A filled in dashboard gauge</desc>
  <path d="M707 313a13 13 0 1 0 13 13 13 13 0 0 0-13-13zm10.14 6.58c.18.28.35.57.51.86l-1.72 1-.5-.87zM706.52 314h.98v2h-1zM695 326v-.5h2v1h-2zm1.9 6.42c-.18-.28-.35-.57-.51-.86l1.72-1 .5.87zm1.21-11l-1.72-1c.16-.3.33-.58.51-.86l1.71 1zm3.48-3.83l-1-1.71c.28-.18.57-.35.86-.51l1 1.72zM709 326a2 2 0 1 1-1.35-1.88l4.72-4.12.7.71-4.16 4.64a2 2 0 0 1 .09.65zm3.43-8.41l-.87-.5 1-1.72c.3.16.58.33.86.51zm4.69 14.83l-1.71-1 .5-.87 1.72 1a7.448 7.448 0 0 1-.49.87zm-.12-5.92v-1h2v1z"/></svg>
