<?xml version="1.0" encoding="UTF-8" standalone="no"?>
<svg width="24px" height="24px" viewBox="0 0 24 24" version="1.1" xmlns="http://www.w3.org/2000/svg" xmlns:xlink="http://www.w3.org/1999/xlink">
    <!-- Generator: Sketch 44.1 (41455) - http://www.bohemiancoding.com/sketch -->
    <title>debug</title>
    <desc>Created with Sketch.</desc>
    <defs></defs>
    <g id="PDS" stroke="none" stroke-width="1" fill="none" fill-rule="evenodd">
        <g id="debug" fill-rule="nonzero" fill="#000000">
            <path d="M12,22 C6.4771525,22 2,17.5228475 2,12 C2,6.4771525 6.4771525,2 12,2 C17.5228475,2 22,6.4771525 22,12 C22,17.5228475 17.5228475,22 12,22 Z M7.49340939,16.0185532 C8.4633927,17.29942 10.0180908,18.1566806 11.7880536,18.2406451 L11.8114013,8.92609986 L8.35969382,8.90828419 C7.94611089,9.25202389 7.58618248,9.65220667 7.29334069,10.0961189 C7.07646859,10.0187793 6.86358474,9.9365637 6.65475396,9.84977689 C6.1035018,9.62068507 5.62170906,9.37596495 5.21332511,9.13245651 C4.97347616,8.98944099 4.55232741,8.94961628 4.40967015,9.25931815 C4.2670129,9.56902002 4.37613485,9.90785779 4.65265836,10.0727414 C5.10489521,10.3423981 5.63339644,10.6108432 6.23462776,10.8607056 C6.41569388,10.9359538 6.59951946,11.0080092 6.78606696,11.0767044 C6.60642082,11.5393422 6.49260068,12.0320797 6.45535062,12.5447461 L4.95461505,12.5447461 C4.65335507,12.5447461 4.40913561,12.7986559 4.40913561,13.0921222 C4.40913561,13.3944298 4.64987885,13.6394984 4.95461505,13.6394984 L6.49334898,13.6394984 C6.56485973,14.1383531 6.70926842,14.6152841 6.9160871,15.0603644 C6.68479546,15.1430382 6.45761896,15.2308672 6.23462776,15.3235389 C5.63339644,15.5734013 5.10489521,15.8418464 4.65265836,16.1115031 C4.37613485,16.2763867 4.23650245,16.6418469 4.41026759,16.9252414 C4.58403273,17.2086359 4.97347616,17.1948035 5.21332511,17.0517879 C5.62170906,16.8082795 6.1035018,16.5635594 6.65475396,16.3344676 C6.92744304,16.2211423 7.20704297,16.1156112 7.49340939,16.0185532 Z M16.6550106,16.019779 C16.9401151,16.1164996 17.2185094,16.2216192 17.4900509,16.3344676 C18.0413031,16.5635594 18.5230958,16.8082795 18.9314798,17.0517879 C19.1713287,17.1948035 19.5499142,17.1658701 19.7056678,16.9252414 C19.8614214,16.6846127 19.76867,16.2763867 19.4921465,16.1115031 C19.0399097,15.8418464 18.5114084,15.5734013 17.9101772,15.3235389 C17.6884381,15.2313876 17.4625607,15.1440247 17.2326138,15.0617576 C17.4397787,14.6162794 17.5844142,14.1388736 17.6559995,13.6394984 L19.1901899,13.6394984 C19.4914498,13.6394984 19.7356693,13.3855886 19.7356693,13.0921222 C19.7356693,12.7898147 19.494926,12.5447461 19.1901899,12.5447461 L17.6939965,12.5447461 C17.6567085,12.0315387 17.5426874,11.5383024 17.3627127,11.0752401 C17.5478967,11.0069854 17.7303971,10.9354193 17.9101772,10.8607056 C18.5114084,10.6108432 19.0399097,10.3423981 19.4921465,10.0727414 C19.76867,9.90785779 19.922861,9.5584654 19.7347773,9.25931815 C19.5466937,8.96017091 19.1713287,8.98944099 18.9314798,9.13245651 C18.5230958,9.37596495 18.0413031,9.62068507 17.4900509,9.84977689 C17.2824007,9.93607307 17.0707432,10.0178496 16.855142,10.0948067 C16.5733528,9.66792458 16.2295138,9.28150828 15.8355766,8.94687026 L12.3587721,8.92892507 L12.3354286,18.2418164 C14.1155405,18.1650421 15.6802396,17.3062015 16.6550106,16.019779 Z M8.49018975,8.53563918 L15.6591588,8.53563918 C15.6591588,7.12625102 14.7512216,5.9175808 13.4587623,5.40504837 L13.9153516,4.94818435 C13.9153516,4.94818435 14.1348147,4.71650474 13.9439126,4.53776379 C13.7530104,4.35902285 13.5464178,4.57947235 13.5464178,4.57947235 L12.8943051,5.23197731 C12.6310711,5.17369599 12.3566757,5.14287272 12.0746743,5.14287272 C11.8474922,5.14287272 11.6252464,5.16287706 11.4097958,5.20112629 L10.8011084,4.5598379 C10.8011084,4.5598379 10.6256216,4.38551827 10.4419654,4.5598379 C10.2583093,4.73415753 10.4227947,4.91891932 10.4227947,4.91891932 L10.8336093,5.35173689 C9.46560989,5.82962299 8.49018975,7.07481287 8.49018975,8.53563918 Z" id="path-1"></path>
        </g>
    </g>
</svg>