<?xml version="1.0" encoding="UTF-8"?>
<svg width="26px" height="26px" viewBox="0 0 26 26" version="1.1" xmlns="http://www.w3.org/2000/svg" xmlns:xlink="http://www.w3.org/1999/xlink">
    <!-- Generator: Sketch 42 (36781) - http://www.bohemiancoding.com/sketch -->
    <title>desk</title>
    <desc>Created with Sketch.</desc>
    <defs></defs>
    <g id="Page-1" stroke="none" stroke-width="1" fill="none" fill-rule="evenodd">
        <g id="Icons" fill="#000000">
            <path d="M18.9232281,7.09090909 C18.5245763,7.09090909 17.7272727,6.6363697 17.7272727,5.90785775 C17.7272727,5.17934581 17.1997261,4.72727273 16.5489644,4.72727273 L9.45103562,4.72727273 C8.80813382,4.72727273 8.27272727,5.23693123 8.27272727,5.90785775 C8.27272727,6.57878428 7.50922531,7.09090909 7.12747433,7.09090909 L5.91718102,7.09090909 C5.26001281,7.09090909 4.72727273,6.55793842 4.72727273,5.91998967 L4.72727273,1.17091942 C4.72727273,0.52423848 5.25903035,0 5.91718102,0 L20.082819,0 C20.7399872,0 21.2727273,0.532970667 21.2727273,1.17091942 L21.2727273,5.91998967 C21.2727273,6.56667061 20.7409696,7.09090909 20.082819,7.09090909 L18.9232281,7.09090909 Z M4.4507009,15.3310947 L4.453094,15.3211503 C4.60451873,14.6919146 5.25903035,14.1818182 5.91718102,14.1818182 L20.082819,14.1818182 C20.7399872,14.1818182 21.3945454,14.6856239 21.5482131,15.3211503 L22.4260353,18.9515769 C22.456928,19.0793404 22.4652441,19.2021921 22.4533086,19.3168592 C22.4541302,19.3348779 22.4545455,19.3529943 22.4545455,19.3711991 L22.4545455,24.8129388 C22.4545455,25.4685346 21.9299779,26 21.2727273,26 C20.6200271,26 20.0909091,25.4627841 20.0909091,24.8129388 L20.0909091,20.0909091 L5.90909091,20.0909091 L5.90909091,24.8129388 C5.90909091,25.4685346 5.38452339,26 4.72727273,26 C4.07457257,26 3.54545455,25.4627841 3.54545455,24.8129388 L3.54545455,19.3711991 C3.54545455,19.3386841 3.54674486,19.3064744 3.54927769,19.2746198 C3.54289742,19.1724419 3.55236479,19.0640731 3.57943682,18.9515769 L4.17429331,16.4796888 C3.13528137,16.2307312 2.36363636,15.3027938 2.36363636,14.1748229 L2.36363636,11.8181818 L0.591897249,11.8181818 C0.265001425,11.8181818 0,11.5652313 0,11.2217366 L0,10.0509907 C0,9.72158309 0.257331133,9.45454545 0.591897249,9.45454545 L25.4081028,9.45454545 C25.7349986,9.45454545 26,9.70749595 26,10.0509907 L26,11.2217366 C26,11.5511442 25.7426689,11.8181818 25.4081028,11.8181818 L3.54545455,11.8181818 L3.54545455,14.1783562 C3.54545455,14.7477288 3.93123827,15.2078454 4.4507009,15.3310947 L4.4507009,15.3310947 Z" id="desk"></path>
        </g>
    </g>
</svg>