<?xml version="1.0" encoding="UTF-8" standalone="no"?>
<svg width="24px" height="24px" viewBox="0 0 24 24" version="1.1" xmlns="http://www.w3.org/2000/svg" xmlns:xlink="http://www.w3.org/1999/xlink">
    <!-- Generator: Sketch 44.1 (41455) - http://www.bohemiancoding.com/sketch -->
    <title>disable</title>
    <desc>Created with Sketch.</desc>
    <defs></defs>
    <g id="PDS" stroke="none" stroke-width="1" fill="none" fill-rule="evenodd">
        <g id="disable" fill="#000000">
            <path d="M4.40404716,13.6688022 C4.71078699,15.0735066 5.41024331,16.4096821 6.50241611,17.5018549 C9.53982727,20.5392661 14.4644438,20.5392661 17.5018549,17.5018549 C18.5940277,16.4096821 19.293484,15.0735066 19.6002239,13.6688022 L4.40404716,13.6688022 Z M4.24410219,11.44658 L19.7601689,11.44658 C19.6319435,9.64509364 18.8791722,7.87973333 17.5018549,6.50241611 C14.4644438,3.46500495 9.53982727,3.46500495 6.50241611,6.50241611 C5.12509888,7.87973333 4.37232758,9.64509364 4.24410219,11.44658 Z M19.0732033,19.0732033 C15.1679604,22.9784462 8.83631062,22.9784462 4.93106771,19.0732033 C1.02582479,15.1679604 1.02582479,8.83631062 4.93106771,4.93106771 C8.83631062,1.02582479 15.1679604,1.02582479 19.0732033,4.93106771 C22.9784462,8.83631062 22.9784462,15.1679604 19.0732033,19.0732033 Z" id="Combined-Shape" transform="translate(12.002136, 12.002136) rotate(45.000000) translate(-12.002136, -12.002136) "></path>
        </g>
    </g>
</svg>