<?xml version="1.0" encoding="UTF-8" standalone="no"?>
<svg width="24px" height="24px" viewBox="0 0 24 24" version="1.1" xmlns="http://www.w3.org/2000/svg" xmlns:xlink="http://www.w3.org/1999/xlink">
    <!-- Generator: Sketch 44.1 (41455) - http://www.bohemiancoding.com/sketch -->
    <title>download-s</title>
    <desc>Created with Sketch.</desc>
    <defs></defs>
    <g id="PDS" stroke="none" stroke-width="1" fill="none" fill-rule="evenodd">
        <g id="download-s" fill="#000000">
            <path d="M10.8877239,14.1933985 L10.8877239,3.99850233 C10.8877239,3.44748943 11.3354392,3 11.8877239,3 C12.4438591,3 12.8877239,3.44704472 12.8877239,3.99850233 L12.8877239,14.2857862 L17.6619187,9.51159145 C18.0513511,9.12215909 18.6824808,9.12419433 19.0730051,9.51471863 C19.4662521,9.90796558 19.4649295,10.5370078 19.0761323,10.925805 L12.7059169,17.2960204 C12.4941905,17.5077468 12.2110213,17.6037603 11.9339178,17.5845396 C11.6568144,17.6037603 11.3736452,17.5077468 11.1619187,17.2960204 L4.79170336,10.925805 C4.40290616,10.5370078 4.40158358,9.90796558 4.79483054,9.51471863 C5.18535483,9.12419433 5.81648456,9.12215909 6.20591692,9.51159145 L10.8877239,14.1933985 Z M19.3894709,14.3218501 C19.3894709,13.7691681 19.8438231,13.3202161 20.3904945,13.3191171 L20.996868,13.3178981 C21.549718,13.3167861 21.9978916,13.7578991 21.9978916,14.3107771 L21.9978916,20.4978651 C21.9978916,21.3212801 21.3325259,21.9887901 20.4947994,21.9887901 L3.5030921,21.9887901 C2.6729573,21.9887901 2,21.3082421 2,20.4978651 L2,14.3107771 C2,13.7613131 2.4543522,13.3167981 3.0010236,13.3178981 L3.607397,13.3191171 C4.1602471,13.3202291 4.6084206,13.7765461 4.6084206,14.3160591 L4.6084206,18.8862341 C4.6084206,19.2413461 5.003778,19.8178121 5.4778596,19.8178121 L18.520032,19.8178121 C19.0002099,19.8178121 19.3894709,19.2368371 19.3894709,18.8862341 L19.3894709,14.3218501 Z" id="Combined-Shape"></path>
        </g>
    </g>
</svg>