<?xml version="1.0" encoding="UTF-8"?>
<svg width="11px" height="16px" viewBox="0 0 11 16" version="1.1" xmlns="http://www.w3.org/2000/svg" xmlns:xlink="http://www.w3.org/1999/xlink">
    <!-- Generator: Sketch 42 (36781) - http://www.bohemiancoding.com/sketch -->
    <title>Dropped-Student1</title>
    <desc>Created with Sketch.</desc>
    <defs></defs>
    <g id="Page-1" stroke="none" stroke-width="1" fill="none" fill-rule="evenodd" stroke-opacity="0">
        <g id="Dropped-Student1" stroke="#000000" fill="#000000" fill-rule="nonzero">
            <path d="M5.50109339,11.685413 C5.50009646,11.4233461 5.42602219,11.1667487 5.28719276,10.9444494 C5.28006274,10.9373213 5.22444858,10.8567741 5.12035027,10.7028076 L4.84548796,10.2943688 C4.74717122,10.1420204 4.65754652,9.98423831 4.57704266,9.82177728 C4.48625781,9.64795586 4.41075213,9.46657698 4.3513775,9.27968702 C4.33056289,9.17348635 4.23366789,9.09957241 4.12571233,9.10754396 C4.01775677,9.09957241 3.92086177,9.17348635 3.90004716,9.27968702 C3.84067253,9.46657698 3.76516685,9.64795586 3.674382,9.82177728 C3.59387814,9.98423831 3.50425344,10.1420204 3.40593671,10.2943688 L3.1321439,10.7028076 C3.02804559,10.8567741 2.97243143,10.9373213 2.9653014,10.9444494 C2.82647197,11.1667487 2.7523977,11.4233461 2.75140077,11.685413 C2.74582749,12.0511395 2.89175491,12.4028951 3.15460346,12.6573263 C3.40910405,12.9201032 3.76095558,13.0659908 4.12678183,13.0604191 C4.49260809,13.0659908 4.84445962,12.9201032 5.0989602,12.6573263 C5.36141555,12.4027122 5.50694616,12.0509802 5.50109339,11.685413 L5.50109339,11.685413 Z M11.0015481,10.310407 C11.0242489,11.773178 10.4409157,13.1802257 9.38980687,14.1980601 C8.37169488,15.2488824 6.96426343,15.8320565 5.50109339,15.8093619 C4.03792335,15.8320565 2.6304919,15.2488824 1.61237991,14.1980601 C0.561271042,13.1802257 -0.0220620698,11.773178 0.00063865128,10.310407 C0.00340696628,9.2631948 0.30545721,8.23858141 0.871214222,7.35724466 C0.913994348,7.29309197 1.13787701,6.96912087 1.5428622,6.38533136 C1.9478474,5.80154186 2.30969597,5.26087722 2.62840791,4.76333744 C2.94711985,4.26437206 3.3036209,3.62712197 3.69791107,2.8515872 C4.05796475,2.15769148 4.35643086,1.43355395 4.5898767,0.687503025 C4.64823851,0.481316807 4.77784112,0.302498815 4.95564678,0.182835175 C5.11516346,0.067313221 5.30629095,0.0034970311 5.5032324,0 C5.70171878,0.00409888173 5.89438014,0.0678050905 6.05616553,0.182835175 C6.23562022,0.299872583 6.36461888,0.479963612 6.4176576,0.687503025 C6.65110344,1.43355395 6.94956955,2.15769148 7.30962323,2.8515872 C7.70320039,3.62854759 8.05970145,4.26579767 8.37912639,4.76333744 C8.69855133,5.26087722 9.0586174,5.80154186 9.45932458,6.38533136 C9.86430977,6.96912087 10.0881924,7.29309197 10.1309726,7.35724466 C10.7022514,8.23604959 11.0047925,9.26232817 11.0015481,10.310407 L11.0015481,10.310407 Z" id="Path_97"></path>
        </g>
    </g>
</svg>