<?xml version="1.0" encoding="UTF-8" standalone="no"?>
<svg width="24px" height="24px" viewBox="0 0 24 24" version="1.1" xmlns="http://www.w3.org/2000/svg" xmlns:xlink="http://www.w3.org/1999/xlink">
    <!-- Generator: Sketch 44.1 (41455) - http://www.bohemiancoding.com/sketch -->
    <title>dropped-student-f</title>
    <desc>Created with Sketch.</desc>
    <defs></defs>
    <g id="PDS-Current" stroke="none" stroke-width="1" fill="none" fill-rule="evenodd">
        <g id="dropped-student-f" fill="#000000">
            <path d="M12,22 C6.4771525,22 2,17.5228475 2,12 C2,6.4771525 6.4771525,2 12,2 C17.5228475,2 22,6.4771525 22,12 C22,17.5228475 17.5228475,22 12,22 Z M16.5,10.5 L7.5,10.5 C6.94771525,10.5 6.5,10.9477153 6.5,11.5 L6.5,12.5 C6.5,13.0522847 6.94771525,13.5 7.5,13.5 L16.5,13.5 C17.0522847,13.5 17.5,13.0522847 17.5,12.5 L17.5,11.5 C17.5,10.9477153 17.0522847,10.5 16.5,10.5 Z" id="Accept"></path>
        </g>
    </g>
</svg>