<?xml version="1.0" encoding="UTF-8" standalone="no"?>
<svg width="24px" height="24px" viewBox="0 0 24 24" version="1.1" xmlns="http://www.w3.org/2000/svg" xmlns:xlink="http://www.w3.org/1999/xlink">
    <!-- Generator: Sketch 44.1 (41455) - http://www.bohemiancoding.com/sketch -->
    <title>empty-student</title>
    <desc>Created with Sketch.</desc>
    <defs></defs>
    <g id="PDS" stroke="none" stroke-width="1" fill="none" fill-rule="evenodd">
        <g id="empty-student" fill="#000000">
            <path d="M12,22 C6.4771525,22 2,17.5228475 2,12 C2,6.4771525 6.4771525,2 12,2 C17.5228475,2 22,6.4771525 22,12 C22,17.5228475 17.5228475,22 12,22 Z M11.7215625,5 C10.0806375,5 8.75156244,6.45371525 8.75156244,8.24720419 C8.75156244,10.0414099 10.0806375,11.4951252 11.7215625,11.4951252 C13.3618125,11.4951252 14.6908875,10.0414099 14.6908875,8.24720419 C14.6908875,6.45371525 13.3618125,5 11.7215625,5 Z M6.6060749,17.3544329 C6.6060749,17.3544329 6.5999999,17.4454693 6.5999999,17.466974 L6.6040499,17.5802319 L6.6161999,17.6820206 C6.6195749,17.7042421 6.62294991,17.7264636 6.63307491,17.7687561 C6.74849991,18.284868 7.14067491,18.1888139 7.66109992,18.2597792 C7.66109992,18.2597792 9.56864996,18.6468632 10.0857,18.6468632 C10.603425,18.6468632 11.283825,19.094877 11.389125,18.9823359 C11.18865,18.6289426 11.0901,18.2174867 11.10765,17.7988626 C11.121825,17.4476198 11.221725,17.1114302 11.395875,16.8146659 C11.271675,16.7609042 11.0199,16.7236295 10.84845,16.7809752 C10.84845,16.7809752 10.491375,16.9006845 9.88387496,16.9781013 C9.50654996,17.0261284 8.50484994,16.6748855 8.12482493,16.4304492 C7.98779993,16.3422801 8.00399993,16.1214989 8.15182493,16.0584185 L8.68979994,15.8319027 L9.18997495,13.5595766 C9.21832495,13.3825216 9.35939995,13.2628123 9.54164996,13.2628123 C9.74212496,13.2628123 9.89534996,13.3997253 9.89804996,13.5810813 L9.62872496,15.7767074 C9.59834996,16.0254447 9.77384996,16.2455091 10.00335,16.2455091 C10.00335,16.2455091 10.996275,16.0462326 12,16.0462326 C13.003725,16.0462326 13.995975,16.2455091 13.995975,16.2455091 C14.225475,16.2455091 14.402325,16.0254447 14.371275,15.7767074 L14.101275,13.5810813 C14.103975,13.3997253 14.257875,13.2628123 14.45835,13.2628123 C14.639925,13.2628123 14.781,13.3825216 14.810025,13.5595766 L15.3102001,15.8319027 L15.8279251,16.0505335 C15.9798001,16.1143307 15.9919501,16.3415633 15.8495251,16.4261483 C15.3783751,16.7021248 14.182275,17.1264835 13.820475,16.9781013 C12.9369,16.6161061 12.621,16.6813369 12.26055,16.8949499 C11.962875,17.0705714 11.8083,17.4497703 11.8083,17.8963504 C11.8083,18.3457979 12.1701,18.9070696 12.698625,18.9063528 C13.381725,18.905636 13.35945,18.6468632 13.828575,18.6468632 C14.298375,18.6468632 16.3368751,18.2597792 16.3368751,18.2597792 C16.8397501,18.1938316 17.2447501,18.2884521 17.3709751,17.7508355 L17.3844751,17.6784365 L17.3959501,17.5780814 L17.4000001,17.466974 C17.4000001,17.4454693 17.3939251,17.3573002 17.3939251,17.3573002 L17.3871751,17.3064058 C17.3790751,17.2497769 17.3682751,17.1938648 17.3514001,17.1329349 L15.6983251,12.3897229 C15.5471251,11.845655 15.0631501,11.4521196 14.53935,11.4514028 C14.4813,11.4499691 13.412775,11.861425 12,11.861425 C10.585875,11.861425 9.51802496,11.4499691 9.45254996,11.4521196 C8.93684995,11.4521196 8.45219994,11.845655 8.30369993,12.3818379 L6.64657491,17.1401031 C6.63104991,17.1931479 6.6202499,17.2490601 6.6128249,17.3071227 L6.6060749,17.3544329 Z" id="Combined-Shape"></path>
        </g>
    </g>
</svg>