<?xml version="1.0" encoding="UTF-8" standalone="no"?>
<svg width="40px" height="40px" viewBox="0 0 40 40" version="1.1" xmlns="http://www.w3.org/2000/svg" xmlns:xlink="http://www.w3.org/1999/xlink">
    <!-- Generator: Sketch 42 (36781) - http://www.bohemiancoding.com/sketch -->
    <title>empty_student</title>
    <desc>Created with Sketch.</desc>
    <defs></defs>
    <g id="Page-1" stroke="none" stroke-width="1" fill="none" fill-rule="evenodd">
        <g id="CPF-1504-Calendar-w/New-Event-(Parent)" transform="translate(-750.000000, -424.000000)" fill="#AAAAAA">
            <g id="Group-29" transform="translate(515.000000, 8.000000)">
                <g id="Group-28" transform="translate(20.000000, 391.000000)">
                    <g id="Group-26" transform="translate(210.000000, 1.000000)">
                        <path d="M15.6053333,54.6333333 L15.6173333,54.5573333 C15.6313333,54.4633333 15.65,54.3733333 15.676,54.2873333 L18.5966667,46.62 C18.86,45.7566667 19.7126667,45.1206667 20.6206667,45.1206667 C20.738,45.118 22.6193333,45.782 25.1106667,45.782 C27.6006667,45.782 29.4826667,45.118 29.5853333,45.12 C30.508,45.1206667 31.3613333,45.7566667 31.6273333,46.632 L34.5406667,54.276 C34.5706667,54.3746667 34.59,54.464 34.6033333,54.5553333 L34.616,54.638 C34.616,54.638 34.626,54.78 34.626,54.814 L34.6193333,54.9933333 L34.5986667,55.1553333 L34.576,55.272 C34.352,56.138 33.6393333,55.9853333 32.7526667,56.092 C32.7526667,56.092 29.1606667,56.716 28.3333333,56.716 C27.5066667,56.716 27.546,57.1326667 26.3426667,57.134 C25.4106667,57.1346667 24.772,56.2306667 24.772,55.5073333 C24.772,54.7866667 25.0446667,54.176 25.5693333,53.892 C26.2053333,53.5486667 26.762,53.4426667 28.3173333,54.026 C28.9553333,54.2653333 31.0633333,53.582 31.894,53.1366667 C32.146,53.0013333 32.1226667,52.634 31.856,52.5313333 L30.9433333,52.1793333 L30.0626667,48.5173333 C30.012,48.232 29.7626667,48.04 29.4426667,48.04 C29.09,48.04 28.8186667,48.26 28.8133333,48.552 L29.2893333,52.0906667 C29.3433333,52.4906667 29.0326667,52.846 28.6286667,52.846 C28.6286667,52.846 26.8793333,52.5253333 25.1106667,52.5253333 C23.3413333,52.5253333 21.592,52.846 21.592,52.846 C21.1886667,52.846 20.878,52.4906667 20.9313333,52.0906667 L21.4066667,48.552 C21.4013333,48.26 21.1313333,48.04 20.7786667,48.04 C20.4573333,48.04 20.2086667,48.232 20.1586667,48.5173333 L19.2773333,52.1793333 L18.33,52.5453333 C18.0693333,52.646 18.0406667,53.0026667 18.282,53.144 C18.952,53.5373333 20.7166667,54.1033333 21.382,54.026 C22.452,53.9013333 23.0813333,53.7086667 23.0813333,53.7086667 C23.3833333,53.616 23.828,53.6766667 24.046,53.7633333 C23.7386667,54.2413333 23.564,54.7833333 23.538,55.3486667 C23.5073333,56.024 23.6813333,56.6873333 24.034,57.256 C23.848,57.4373333 22.6493333,56.716 21.7373333,56.716 C20.826,56.716 17.4653333,56.092 17.4653333,56.092 C16.548,55.9773333 15.856,56.1333333 15.6533333,55.3 C15.6366667,55.232 15.6293333,55.1966667 15.6226667,55.1613333 L15.602,54.9973333 L15.5946667,54.814 C15.5946667,54.78 15.6053333,54.6333333 15.6053333,54.6333333 M25.1106667,33.6473333 C28.056,33.6473333 30.444,36.0353333 30.444,38.9806667 C30.444,41.926 28.056,44.314 25.1106667,44.314 C22.1646667,44.314 19.7773333,41.926 19.7773333,38.9806667 C19.7773333,36.0353333 22.1646667,33.6473333 25.1106667,33.6473333 M12.1326667,59.3073333 C7.77266667,55.6386667 5,50.144 5,44 C5,32.954 13.954,24 25,24 C36.0453333,24 45,32.954 45,44 C45,50.144 42.2266667,55.6386667 37.8666667,59.3073333 L12.1326667,59.3073333 Z M14.9816667,61.3072 L35.0176667,61.3072 C32.0716667,63.0165333 28.6516667,63.9998667 24.9996667,63.9998667 C21.3483333,63.9998667 17.9283333,63.0165333 14.9816667,61.3072 Z" id="empty_student"></path>
                    </g>
                </g>
            </g>
        </g>
    </g>
</svg>