<?xml version="1.0" encoding="UTF-8" standalone="no"?>
<svg width="24px" height="24px" viewBox="0 0 24 24" version="1.1" xmlns="http://www.w3.org/2000/svg" xmlns:xlink="http://www.w3.org/1999/xlink">
    <!-- Generator: Sketch 44.1 (41455) - http://www.bohemiancoding.com/sketch -->
    <title>erase</title>
    <desc>Created with Sketch.</desc>
    <defs></defs>
    <g id="PDS" stroke="none" stroke-width="1" fill="none" fill-rule="evenodd">
        <g id="erase" fill="#000000">
            <path d="M15.9392395,4.19778597 C15.8168463,4.07131417 15.6483606,3.9999375 15.4723628,4.00000004 L2.65108073,4.00000004 C2.29149877,4.00000004 2,4.29149881 2,4.65108077 L2,18.5385394 C2,18.8981213 2.29149877,19.1896201 2.65108073,19.1896201 L15.4689673,19.1896201 C15.6452399,19.1898152 15.8140385,19.1184357 15.9366929,18.9918342 L21.8142456,12.0481049 C22.0605936,11.7966481 22.0620986,11.3948103 21.8176411,11.1415153 L15.9392395,4.19778597 Z M10.5735957,11.6163698 L13.9494517,8.24051382 C14.262462,7.92750354 14.2607263,7.4253586 13.9499422,7.11457449 C13.6369914,6.80162365 13.1350579,6.80400998 12.8240029,7.11506499 L9.4481469,10.490921 L6.07229092,7.11506499 C5.75928065,6.80205472 5.25713571,6.80379038 4.9463516,7.11457449 C4.63340076,7.42752533 4.63578709,7.92945881 4.9468421,8.24051382 L8.32269807,11.6163698 L4.9468421,14.9922258 C4.63383182,15.305236 4.63556748,15.807381 4.9463516,16.1181651 C5.25930244,16.4311159 5.76123592,16.4287296 6.07229092,16.1176746 L9.4481469,12.7418186 L12.8240029,16.1176746 C13.1370131,16.4306849 13.6391581,16.4289492 13.9499422,16.1181651 C14.262893,15.8052142 14.2605067,15.3032808 13.9494517,14.9922258 L10.5735957,11.6163698 Z" id="path-11" transform="translate(12.000000, 11.594810) rotate(180.000000) translate(-12.000000, -11.594810) "></path>
        </g>
    </g>
</svg>