<?xml version="1.0" encoding="UTF-8" standalone="no"?>
<svg width="24px" height="24px" viewBox="0 0 24 24" version="1.1" xmlns="http://www.w3.org/2000/svg" xmlns:xlink="http://www.w3.org/1999/xlink">
    <!-- Generator: Sketch 44.1 (41455) - http://www.bohemiancoding.com/sketch -->
    <title>excel</title>
    <desc>Created with Sketch.</desc>
    <defs></defs>
    <g id="PDS" stroke="none" stroke-width="1" fill="none" fill-rule="evenodd">
        <g id="excel" fill="#000000">
            <path d="M17,9 L8.00010618,9 C6.89005841,9 6,9.89525812 6,10.999615 L6,17.000385 C6,18.1125667 6.89547804,19 8.00010618,19 L17,19 L17,20.951 C17,21.53 16.53,22 15.951,22 L3.049,22 C2.47,22 2,21.53 2,20.951 L2,3.049 C2,2.47 2.47,2 3.049,2 L12.427,2 C12.963,2 13.477,2.214 13.854,2.596 L16.419,5.188 C16.791,5.564 17,6.072 17,6.601 L17,9 Z M7,11.5047388 C7,10.6736945 7.66388585,10 8.49309635,10 L20.5069036,10 C21.331518,10 22,10.6683155 22,11.5047388 L22,16.4952612 C22,17.3263055 21.3361142,18 20.5069036,18 L8.49309635,18 C7.66848201,18 7,17.3316845 7,16.4952612 L7,11.5047388 Z M13.1794434,16.5 L11.4909668,13.980957 L13.0598145,11.5029297 L11.9182129,11.5029297 L10.8620605,13.3007812 L9.78540039,11.5029297 L8.61645508,11.5029297 L10.1682129,13.9228516 L8.51049805,16.5 L9.64526367,16.5 L10.807373,14.6098633 L11.9694824,16.5 L13.1794434,16.5 Z M13.8083496,16.5 L16.8947754,16.5 L16.8947754,15.625 L14.8679199,15.625 L14.8679199,11.5029297 L13.8083496,11.5029297 L13.8083496,16.5 Z M20.7126465,15.1123047 C20.7126465,14.7864567 20.6260588,14.511313 20.4528809,14.2868652 C20.2797029,14.0624175 19.9595564,13.8385428 19.4924316,13.6152344 C19.1392398,13.4466137 18.9153651,13.3298343 18.8208008,13.2648926 C18.7262365,13.1999508 18.6573082,13.1327315 18.6140137,13.0632324 C18.5707192,12.9937334 18.5490723,12.9122726 18.5490723,12.8188477 C18.5490723,12.6684563 18.6026199,12.5465499 18.7097168,12.453125 C18.8168137,12.3597001 18.9706207,12.3129883 19.1711426,12.3129883 C19.3397632,12.3129883 19.5112296,12.3346352 19.6855469,12.3779297 C19.8598642,12.4212242 20.0803209,12.497558 20.3469238,12.6069336 L20.6887207,11.7832031 C20.4312324,11.6715489 20.1845715,11.5849612 19.9487305,11.5234375 C19.7128894,11.4619138 19.4650892,11.4311523 19.2053223,11.4311523 C18.6766738,11.4311523 18.2625341,11.5576159 17.9628906,11.8105469 C17.6632472,12.0634778 17.5134277,12.4109678 17.5134277,12.8530273 C17.5134277,13.087729 17.5590002,13.2928051 17.6501465,13.4682617 C17.7412928,13.6437183 17.8631991,13.7975254 18.0158691,13.9296875 C18.1685392,14.0618496 18.3975408,14.1997063 18.7028809,14.3432617 C19.0287288,14.4982104 19.2446284,14.6110023 19.3505859,14.6816406 C19.4565435,14.752279 19.536865,14.8257646 19.5915527,14.9020996 C19.6462405,14.9784346 19.673584,15.065592 19.673584,15.1635742 C19.673584,15.3390308 19.6114915,15.471191 19.4873047,15.5600586 C19.3631179,15.6489262 19.1848156,15.6933594 18.9523926,15.6933594 C18.7587067,15.6933594 18.5450858,15.662598 18.3115234,15.6010742 C18.0779611,15.5395505 17.7925635,15.4335945 17.4553223,15.2832031 L17.4553223,16.2675781 C17.8654806,16.4681 18.3371555,16.5683594 18.8703613,16.5683594 C19.4491403,16.5683594 19.9008773,16.4384779 20.2255859,16.1787109 C20.5502946,15.918944 20.7126465,15.5634788 20.7126465,15.1123047 Z" id="Excel"></path>
        </g>
    </g>
</svg>