<?xml version="1.0" encoding="UTF-8" standalone="no"?>
<svg width="24px" height="24px" viewBox="0 0 24 24" version="1.1" xmlns="http://www.w3.org/2000/svg" xmlns:xlink="http://www.w3.org/1999/xlink">
    <!-- Generator: Sketch 44.1 (41455) - http://www.bohemiancoding.com/sketch -->
    <title>export</title>
    <desc>Created with Sketch.</desc>
    <defs></defs>
    <g id="PDS" stroke="none" stroke-width="1" fill="none" fill-rule="evenodd">
        <g id="export" fill="#000000">
            <path d="M2.5,15.2999997 L2.5,18.7391304 C2.5,19.2373213 2.68393758,19.6637965 3.03999996,20.0185688 C3.39606235,20.3733411 3.80999792,20.5507246 4.31000042,20.5507246 L13.6800003,20.5507246 C14.1800028,20.5507246 14.6039367,20.3733411 14.9599991,20.0185688 C15.3160615,19.6637965 15.5,19.2373213 15.5,18.7391304 L15.5,5.26086957 C15.5,4.76267867 15.3160615,4.33620346 14.9599991,3.98143116 C14.6039367,3.62665885 14.1800028,3.44927536 13.6800003,3.44927536 L4.31000042,3.44927536 C3.80999792,3.44927536 3.39606235,3.62665885 3.03999996,3.98143116 C2.68393758,4.33620346 2.5,4.76267867 2.5,5.26086957 L2.5,8.69999981 L1,8.69999981 L1,15.2999997 L2.5,15.2999997 Z M17,5.26086957 L17,18.7391304 C17,19.6373837 16.6799274,20.4054165 16.0397727,21.0432518 C15.399618,21.6810871 14.6287924,22 13.7272727,22 L4.27272727,22 C3.37120761,22 2.60038199,21.6810871 1.96022727,21.0432518 C1.32007256,20.4054165 1,19.6373837 1,18.7391304 L1,5.26086957 C1,4.36261628 1.32007256,3.5945835 1.96022727,2.95674819 C2.60038199,2.31891287 3.37120761,2 4.27272727,2 L13.7272727,2 C14.6287924,2 15.399618,2.31891287 16.0397727,2.95674819 C16.6799274,3.5945835 17,4.36261628 17,5.26086957 Z" id="Path" transform="translate(9.000000, 12.000000) scale(-1, 1) translate(-9.000000, -12.000000) "></path>
            <path d="M16.25,9.5 C15.8357864,9.5 15.5,9.16421356 15.5,8.75 C15.5,8.33578644 15.8357864,8 16.25,8 C16.6642136,8 17,8.33578644 17,8.75 C17,9.16421356 16.6642136,9.5 16.25,9.5 Z M16.25,16 C15.8357864,16 15.5,15.6642136 15.5,15.25 C15.5,14.8357864 15.8357864,14.5 16.25,14.5 C16.6642136,14.5 17,14.8357864 17,15.25 C17,15.6642136 16.6642136,16 16.25,16 Z" id="Combined-Shape" transform="translate(16.250000, 12.000000) scale(-1, 1) translate(-16.250000, -12.000000) "></path>
            <path d="M15.9815506,8.00336053 L15.9815506,18.2887275 C15.9815506,18.7601762 16.359439,19.1390816 16.8255879,19.1390816 C17.2949868,19.1390816 17.6696253,18.7583651 17.6696253,18.2887275 L17.6696253,7.9253818 L19.6966059,9.95236243 C20.0215143,10.2772708 20.5606165,10.2819581 20.8902336,9.95234105 C21.2221487,9.62042594 21.2198602,9.08831865 20.890255,8.75871336 L17.5187914,5.38724984 C17.3415384,5.20999679 17.1005365,5.12804869 16.8645773,5.14369221 C16.6286181,5.12804869 16.3876162,5.20999679 16.2103631,5.38724984 L12.8388996,8.75871336 C12.5092943,9.08831865 12.5070059,9.62042594 12.838921,9.95234105 C13.1685381,10.2819581 13.7076403,10.2772708 14.0325487,9.95236243 L15.9815506,8.00336053 Z" id="Arrow" transform="translate(16.864577, 12.140446) rotate(90.000000) translate(-16.864577, -12.140446) "></path>
        </g>
    </g>
</svg>