<?xml version="1.0" encoding="UTF-8" standalone="no"?>
<svg width="24px" height="24px" viewBox="0 0 24 24" version="1.1" xmlns="http://www.w3.org/2000/svg" xmlns:xlink="http://www.w3.org/1999/xlink">
    <!-- Generator: Sketch 44.1 (41455) - http://www.bohemiancoding.com/sketch -->
    <title>filter-remove</title>
    <desc>Created with Sketch.</desc>
    <defs></defs>
    <g id="PDS" stroke="none" stroke-width="1" fill="none" fill-rule="evenodd">
        <g id="filter-remove" fill-rule="nonzero" fill="#000000">
            <path d="M18.9602335,11.327514 C18.3459465,11.1152718 17.6864348,11 17,11 C15.2839839,11 13.7362237,11.7203893 12.6426438,12.8752436 C12.5416247,12.8239259 12.4273154,12.7949998 12.30625,12.7949998 L8.69375,12.7949998 C8.28298822,12.7949998 7.95,13.1279881 7.95,13.5387498 L7.95,13.5387498 L7.95,13.5387498 C7.95,13.9495116 8.28298822,14.2824998 8.69375,14.2824998 L11.6492443,14.2824998 C11.2340665,15.0983606 11,16.0218457 11,17 C11,17.6864348 11.1152718,18.3459465 11.3275141,18.9602336 C11.0552288,18.9865401 10.7791863,19.0000001 10.5,19.0000001 C5.80557963,19.0000001 2,15.1944204 2,10.5 C2,5.80557963 5.80557963,2 10.5,2 C15.1944204,2 19,5.80557963 19,10.5 C19,10.7791863 18.98654,11.0552288 18.9602335,11.327514 Z M6.14375,6.84499984 C5.73298822,6.84499984 5.4,7.17798806 5.4,7.58874984 C5.4,7.99951162 5.73298822,8.33249984 6.14375,8.33249984 L14.85625,8.33249984 C15.2670118,8.33249984 15.6,7.99951162 15.6,7.58874984 C15.6,7.17798806 15.2670118,6.84499984 14.85625,6.84499984 L6.14375,6.84499984 Z M7.41875,9.81999984 C7.00798822,9.81999984 6.675,10.1529881 6.675,10.5637498 C6.675,10.9745116 7.00798822,11.3074998 7.41875,11.3074998 L13.58125,11.3074998 C13.9920118,11.3074998 14.325,10.9745116 14.325,10.5637498 C14.325,10.1529881 13.9920118,9.81999984 13.58125,9.81999984 L7.41875,9.81999984 Z M17,22 C14.2385763,22 12,19.7614237 12,17 C12,14.2385763 14.2385763,12 17,12 C19.7614237,12 22,14.2385763 22,17 C22,19.7614237 19.7614237,22 17,22 Z M16.2930009,16.9876593 L14.8546348,18.3766733 C14.6558215,18.5686651 14.6488186,18.88395 14.8419806,19.0839751 C15.0338052,19.2826153 15.3492301,19.2892117 15.5492932,19.0960131 L16.9876593,17.7069991 L18.3766733,19.1453652 C18.5686651,19.3441785 18.88395,19.3511814 19.0839751,19.1580194 C19.2826153,18.9661948 19.2892117,18.6507699 19.0960131,18.4507068 L17.7069991,17.0123407 L19.1453652,15.6233267 C19.3441785,15.4313349 19.3511814,15.11605 19.1580194,14.9160249 C18.9661948,14.7173847 18.6507699,14.7107883 18.4507068,14.9039869 L17.0123407,16.2930009 L15.6233267,14.8546348 C15.4313349,14.6558215 15.11605,14.6488186 14.9160249,14.8419806 C14.7173847,15.0338052 14.7107883,15.3492301 14.9039869,15.5492932 L16.2930009,16.9876593 Z" id="Combined-Shape"></path>
        </g>
    </g>
</svg>