<?xml version="1.0" encoding="UTF-8" standalone="no"?>
<svg width="24px" height="24px" viewBox="0 0 24 24" version="1.1" xmlns="http://www.w3.org/2000/svg" xmlns:xlink="http://www.w3.org/1999/xlink">
    <!-- Generator: Sketch 44.1 (41455) - http://www.bohemiancoding.com/sketch -->
    <title>filter</title>
    <desc>Created with Sketch.</desc>
    <defs></defs>
    <g id="PDS" stroke="none" stroke-width="1" fill="none" fill-rule="evenodd">
        <g id="filter" fill-rule="nonzero" fill="#000000">
            <path d="M12,22.0000001 C6.4771525,22.0000001 2,17.5228476 2,12 C2,6.4771525 6.4771525,2 12,2 C17.5228475,2 22,6.4771525 22,12 C22,17.5228476 17.5228475,22.0000001 12,22.0000001 Z M6.875,7.69999981 C6.39175084,7.69999981 6,8.09175065 6,8.57499981 C6,9.05824897 6.39175084,9.44999981 6.875,9.44999981 L17.125,9.44999981 C17.6082492,9.44999981 18,9.05824897 18,8.57499981 C18,8.09175065 17.6082492,7.69999981 17.125,7.69999981 L17.125,7.69999981 L6.875,7.69999981 Z M8.375,11.1999998 C7.89175084,11.1999998 7.5,11.5917507 7.5,12.0749998 C7.5,12.558249 7.89175084,12.9499998 8.375,12.9499998 L15.625,12.9499998 C16.1082492,12.9499998 16.5,12.558249 16.5,12.0749998 C16.5,11.5917507 16.1082492,11.1999998 15.625,11.1999998 L8.375,11.1999998 Z M9.875,14.6999998 C9.39175084,14.6999998 9,15.0917507 9,15.5749998 C9,16.058249 9.39175084,16.4499998 9.875,16.4499998 L14.125,16.4499998 C14.6082492,16.4499998 15,16.058249 15,15.5749998 C15,15.0917507 14.6082492,14.6999998 14.125,14.6999998 L9.875,14.6999998 Z" id="Combined-Shape"></path>
        </g>
    </g>
</svg>