<?xml version="1.0" encoding="UTF-8" standalone="no"?>
<svg width="24px" height="24px" viewBox="0 0 24 24" version="1.1" xmlns="http://www.w3.org/2000/svg" xmlns:xlink="http://www.w3.org/1999/xlink">
    <!-- Generator: Sketch 44.1 (41455) - http://www.bohemiancoding.com/sketch -->
    <title>forward</title>
    <desc>Created with Sketch.</desc>
    <defs></defs>
    <g id="PDS" stroke="none" stroke-width="1" fill="none" fill-rule="evenodd">
        <g id="forward" fill-rule="nonzero" fill="#000000">
            <path d="M15.3928808,5.46800552 L13.3561704,3.75900263 C12.9377994,3.40794774 12.8796144,2.78851267 13.2316543,2.36896777 C13.5812569,1.95232761 14.1992107,1.89529051 14.6221935,2.25021516 L18.7240936,5.69211812 C18.9523213,5.88362393 19.0733625,6.15499618 19.0790938,6.43021669 C19.1212411,6.7022512 19.0491621,6.99051927 18.8576563,7.21874701 L15.4157534,11.3206472 C15.0608288,11.7436299 14.4423587,11.7947659 14.0257185,11.4451633 C13.6061737,11.0931234 13.555911,10.4729952 13.9069659,10.0546242 L15.7813636,7.82080401 C13.4992319,7.65657687 11.1612795,8.44689908 9.41640793,10.1917706 C6.22686437,13.3813142 6.22686441,18.552586 9.41640795,21.7421295 C9.5858169,21.9115385 9.76081647,22.0719494 9.94081273,22.2233625 L9.9401556,22.2242378 C9.99220316,22.2613697 10.0418859,22.3032896 10.0885936,22.3499973 C10.5442428,22.8056465 10.5442428,23.5443995 10.0885936,24.0000486 C9.66523173,24.4234105 8.99746555,24.4534098 8.53946684,24.0900465 L8.53806693,24.0919112 C8.27224491,23.8736987 8.01463123,23.6404553 7.76635668,23.3921808 C3.66551498,19.2913391 3.66551494,12.6425611 7.76635666,8.54171934 C9.86797392,6.44010208 12.6387818,5.41553081 15.3928808,5.46800552 Z" id="Combined-Shape" transform="translate(11.890725, 13.179147) rotate(40.000000) translate(-11.890725, -13.179147) "></path>
        </g>
    </g>
</svg>