<?xml version="1.0" encoding="UTF-8" standalone="no"?>
<svg width="24px" height="24px" viewBox="0 0 24 24" version="1.1" xmlns="http://www.w3.org/2000/svg" xmlns:xlink="http://www.w3.org/1999/xlink">
    <!-- Generator: Sketch 44.1 (41455) - http://www.bohemiancoding.com/sketch -->
    <title>global-f</title>
    <desc>Created with Sketch.</desc>
    <defs></defs>
    <g id="PDS-Current" stroke="none" stroke-width="1" fill="none" fill-rule="evenodd">
        <g id="global-f" fill="#000000">
            <path d="M16.5181613,14.9777807 C13.9637997,17.2929494 10.0170043,17.2206969 7.55556205,14.7592546 C5.0941198,12.2978124 5.02186724,8.35101694 7.33703595,5.79665536 L9.16886016,7.62847957 C6.78772725,10.1106309 5.71293386,12.905322 7.56121427,14.7536024 C9.40949467,16.6018828 12.2041858,15.5270894 14.6863371,13.1459565 L16.5181613,14.9777807 Z M7.79665536,5.33703595 C10.3510169,3.02186724 14.2978124,3.0941198 16.7592546,5.55556205 C19.2206969,8.01700429 19.2929494,11.9637997 16.9777807,14.5181613 L15.1459565,12.6863371 C17.5270894,10.2041858 18.6018828,7.40949467 16.7536024,5.56121427 C14.905322,3.71293386 12.1106309,4.78772725 9.62847957,7.16886016 L7.79665536,5.33703595 Z M14.6861668,12.2265474 L12.6171129,10.1574935 C15.0445459,7.7216423 16.9076258,5.71523763 16.7536024,5.56121427 C16.5995791,5.4071909 14.5931744,7.27027076 12.1573232,9.69770377 L10.0882693,7.62864991 C12.5620024,5.2390988 15.2133687,4.02098059 16.7536024,5.56121427 C18.2938361,7.10144794 17.0757179,9.75281426 14.6861668,12.2265474 Z M14.2265474,12.6861668 C11.7528143,15.0757179 9.10144794,16.2938361 7.56121427,14.7536024 C6.02098059,13.2133687 7.2390988,10.5620024 9.62864991,8.08826932 L11.6977038,10.1573232 C9.27027076,12.5931744 7.4071909,14.5995791 7.56121427,14.7536024 C7.71523763,14.9076258 9.7216423,13.0445459 12.1574935,10.6171129 L14.2265474,12.6861668 Z M18.0421455,3.77954868 C18.0458713,3.7755748 18.0496742,3.77164693 18.0535542,3.76776695 L19.4677677,2.35355339 L19.4677677,2.35355339 C19.6630299,2.15829124 19.9796124,2.15829124 20.1748745,2.35355339 L20.1748745,2.35355339 L20.1748745,2.35355339 C20.3701366,2.54881554 20.3701366,2.86539803 20.1748745,3.06066017 L18.7606609,4.47487373 C18.7536205,4.4819142 18.7464223,4.4887008 18.7390777,4.49523356 C20.0736345,6.03118319 20.8815022,8.03699889 20.8815022,10.2315022 C20.8815022,14.9071401 17.2141766,18.7262282 12.5990687,18.9692232 C12.5996868,18.9794029 12.6000004,18.9896648 12.6000004,19 L12.6000004,20.875 L15.625,20.875 C15.9011424,20.875 16.125,21.0988576 16.125,21.375 C16.125,21.6511424 15.9011424,21.875 15.625,21.875 L8.625,21.875 C8.34885763,21.875 8.125,21.6511424 8.125,21.375 L8.125,21.375 C8.125,21.0988576 8.34885763,20.875 8.625,20.875 L11.6000004,20.875 L11.6000004,19 C11.6000004,18.9884694 11.6003907,18.9770299 11.6011588,18.9656941 C9.53687989,18.8422803 7.66541197,18.0031986 6.23149359,16.6931875 C6.21491512,16.716898 6.19604185,16.7394919 6.17487378,16.76066 L4.76066022,18.1748735 C4.56539807,18.3701357 4.24881558,18.3701357 4.05355344,18.1748735 C3.85829129,17.9796114 3.85829129,17.6630289 4.05355344,17.4677668 L5.467767,16.0535532 C5.49155225,16.0297679 5.51713768,16.00888 5.5440847,15.9908894 C5.08092657,15.4615757 4.68053649,14.8759464 4.35452916,14.2456161 L4.36211197,14.2415495 C4.32253016,14.1699472 4.30000019,14.0876047 4.30000019,14 C4.30000019,13.7238576 4.52385782,13.5 4.80000019,13.5 C5.02515278,13.5 5.21554672,13.6488194 5.27818259,13.8534589 C6.57849987,16.3087702 9.15965728,17.9815022 12.1315022,17.9815022 C16.411709,17.9815022 19.8815022,14.511709 19.8815022,10.2315022 C19.8815022,7.25965729 18.2087702,4.67849987 15.7534588,3.37818259 C15.5488192,3.31554682 15.3999996,3.1251528 15.3999996,2.9000001 C15.3999996,2.62385772 15.6238572,2.4000001 15.8999996,2.4000001 C15.9980372,2.4000001 16.0894846,2.42821578 16.1666642,2.47696953 L16.1716762,2.46806313 C16.85264,2.82316886 17.4810402,3.26524104 18.0421455,3.77954868 Z" id="Combined-Shape" transform="translate(12.394305, 12.041053) scale(-1, 1) translate(-12.394305, -12.041053) "></path>
        </g>
    </g>
</svg>