<?xml version="1.0" encoding="UTF-8" standalone="no"?>
<svg width="24px" height="24px" viewBox="0 0 24 24" version="1.1" xmlns="http://www.w3.org/2000/svg" xmlns:xlink="http://www.w3.org/1999/xlink">
    <!-- Generator: Sketch 44.1 (41455) - http://www.bohemiancoding.com/sketch -->
    <title>group</title>
    <desc>Created with Sketch.</desc>
    <defs></defs>
    <g id="PDS" stroke="none" stroke-width="1" fill="none" fill-rule="evenodd">
        <g id="group" fill="#000000">
            <path d="M7.07338507,13.8591447 C6.55277121,14.0697133 6.01317945,14.296875 5.70074864,14.4704654 C5.04278581,14.8360375 4.84197084,16.2081269 4.78084662,17.0515604 C3.88896327,17.0215793 3.04264358,16.8291646 2.07526328,16.5735366 C1.98879933,16.4651342 2.01789806,15.3642602 2.40486415,15.2026058 L4.60984493,14.284549 C4.74123443,14.2298442 4.79740994,14.0798789 4.73794457,13.9526529 C4.73794457,13.9526529 4.44795999,13.3601788 4.32233098,12.9381068 C4.19670202,12.5160347 4.2864382,12.3287308 4.14624654,12.3287308 C4.00652614,12.3287308 4.00652614,12.2105546 4.00652614,12.2105546 L3.80208314,11.178568 C3.80208314,11.178568 3.72207583,10.9159541 3.94180354,10.9159541 C3.988296,10.7801965 4.0259856,10.0362488 4.0259856,10.0362488 C4.0259856,9.57005782 4.26497774,9.31635135 4.6114169,9.06521576 C4.95785607,8.81408021 5.49285246,8.73625864 5.87509737,8.73625864 C6.25734228,8.73625864 6.75826432,8.83209604 7.1031265,9.06521576 C7.44798863,9.29833547 7.69301182,9.57662316 7.6785806,10.0362488 C7.6785806,10.386339 7.76685032,10.9159541 7.76685032,10.9159541 C7.91589724,10.9159541 7.87902024,11.178568 7.87902024,11.178568 L7.68594395,12.2105546 C7.68594395,12.2105546 7.68594395,12.3287308 7.57377403,12.3287308 C7.46160416,12.3287308 7.49492201,12.6839029 7.40825272,12.9381068 C7.33978137,13.1389355 7.15004444,13.6523821 7.07338507,13.8591447 Z M7.74542093,14.5132296 L9.42305657,15.2064944 C10.0494731,15.3811323 10.1439755,16.4744812 10.045765,16.5735366 C9.12324354,16.7955035 8.20688716,17.0556358 7.28744825,17.0556358 L5.76869503,17.0556358 C5.70508515,16.445968 5.75599225,15.5551833 6.2249417,15.1415512 L7.74542093,14.5132296 Z M15.7913531,14.5710256 L17.1686413,15.1401751 C17.9707189,15.3637854 18.2113804,16.5570616 18.1857406,17.0556358 L16.8919698,17.0556358 C15.9095894,17.0556358 14.9991016,16.8521258 13.9448285,16.5735366 C13.8583646,16.4651342 13.8874633,15.3642602 14.2744294,15.2026058 L15.7913531,14.5710256 Z M16.6306525,14.0421795 C16.6286742,14.0120894 16.6211216,13.9817754 16.6075098,13.9526529 C16.6075098,13.9526529 16.3175252,13.3601788 16.1918962,12.9381068 C16.0662672,12.5160347 16.1560034,12.3287308 16.0158118,12.3287308 C15.8760914,12.3287308 15.8760914,12.2105546 15.8760914,12.2105546 L15.6716484,11.178568 C15.6716484,11.178568 15.591641,10.9159541 15.8113688,10.9159541 C15.8578612,10.7801965 15.8955508,10.0362488 15.8955508,10.0362488 C15.8955508,9.57005782 16.134543,9.31635135 16.4809821,9.06521576 C16.8274213,8.81408021 17.3624177,8.73625864 17.7446626,8.73625864 C18.1269075,8.73625864 18.6278295,8.83209604 18.9726917,9.06521576 C19.3175538,9.29833547 19.562577,9.57662316 19.5481458,10.0362488 C19.5481458,10.386339 19.6364155,10.9159541 19.6364155,10.9159541 C19.7854625,10.9159541 19.7485855,11.178568 19.7485855,11.178568 L19.5555092,12.2105546 C19.5555092,12.2105546 19.5555092,12.3287308 19.4433392,12.3287308 C19.3311694,12.3287308 19.3644872,12.6839029 19.2778179,12.9381068 C19.1911486,13.1923107 18.9101894,13.9473862 18.9101894,13.9473862 C18.8614309,14.0788912 18.9244887,14.227889 19.0521904,14.2806604 L21.2926218,15.2064944 C21.9190384,15.3811323 22.0135408,16.4744812 21.9153302,16.5735366 C20.9928088,16.7955035 20.0764524,17.0556358 19.1570135,17.0556358 L19.131906,17.0556358 C19.0398947,16.3759526 18.7536601,15.0091351 17.9149158,14.5853485 C17.646295,14.4496243 17.1413997,14.2442841 16.6306525,14.0421795 Z" id="Meeting"></path>
            <path d="M5.74970336,17.2665096 C5.61530205,17.0980065 5.6605337,15.3867856 6.26204168,15.1355067 L9.68950881,13.7084604 C9.89374332,13.6234262 9.98106368,13.3903171 9.88862951,13.1925545 C9.88862951,13.1925545 9.43787154,12.2716006 9.24259125,11.6155232 C9.04731103,10.9594457 9.18679878,10.6682968 8.96888201,10.6682968 C8.75169777,10.6682968 8.75169777,10.4846012 8.75169777,10.4846012 L8.4339074,8.88046018 C8.4339074,8.88046018 8.3095424,8.47224779 8.65109164,8.47224779 C8.72336047,8.26122342 8.78194595,7.1048159 8.78194595,7.1048159 C8.78194595,6.38015919 9.15344021,5.98579268 9.69195232,5.59542238 C10.2304644,5.20505216 11.0620737,5.08408473 11.656243,5.08408473 C12.2504123,5.08408473 13.0290557,5.23305633 13.5651166,5.59542238 C14.1011773,5.95778843 14.4820463,6.39036448 14.4596142,7.1048159 C14.4596142,7.64900333 14.5968224,8.47224779 14.5968224,8.47224779 C14.828504,8.47224779 14.7711816,8.88046018 14.7711816,8.88046018 L14.4710599,10.4846012 C14.4710599,10.4846012 14.4710599,10.6682968 14.2967007,10.6682968 C14.1223415,10.6682968 14.1741315,11.2203835 14.039411,11.6155232 C13.9046905,12.010663 13.4679617,13.1843677 13.4679617,13.1843677 C13.3921705,13.3887818 13.4901887,13.6203871 13.6886909,13.7024159 L17.1712632,15.1415512 C18.1449779,15.413012 18.2918744,17.1125358 18.1392139,17.2665096 C16.7052277,17.6115393 15.2808247,18.0158943 13.8516301,18.0158943 L10.3308,18.0158943 C8.80376776,18.0158943 7.38848699,17.6995542 5.74970336,17.2665096 Z" id="Person"></path>
        </g>
    </g>
</svg>