<svg xmlns="http://www.w3.org/2000/svg" viewBox="654 433 26 26">
  <title>Help Circle</title>
  <desc>A question mark in an outlined circle</desc>
  <path d="M667 433a13 13 0 1 0 13 13 13 13 0 0 0-13-13zm0 24.96A11.96 11.96 0 1 1 678.96 446 11.974 11.974 0 0 1 667 457.96z"/><path data-name="path" d="M666.956 439.185c-2.639 0-4.113 1.631-4.132 4.216h1.147c-.036-1.875.946-3.25 2.931-3.25a2.481 2.481 0 0 1 2.6 2.457 3.251 3.251 0 0 1-1.183 2.348c-1.383 1.284-1.77 1.887-1.841 3.646h1.162c.068-1.595.033-1.563 1.425-2.954a4.061 4.061 0 0 0 1.583-3.095 3.4 3.4 0 0 0-3.694-3.367zM667 450.682a1.04 1.04 0 1 0 1.04 1.04 1.04 1.04 0 0 0-1.04-1.04z"/></svg>
