<?xml version="1.0" encoding="UTF-8" standalone="no"?>
<svg width="24px" height="24px" viewBox="0 0 24 24" version="1.1" xmlns="http://www.w3.org/2000/svg" xmlns:xlink="http://www.w3.org/1999/xlink">
    <!-- Generator: Sketch 44.1 (41455) - http://www.bohemiancoding.com/sketch -->
    <title>help-f</title>
    <desc>Created with Sketch.</desc>
    <defs></defs>
    <g id="PDS" stroke="none" stroke-width="1" fill="none" fill-rule="evenodd">
        <g id="help-f" fill="#000000">
            <path d="M12,22 C6.4771525,22 2,17.5228475 2,12 C2,6.4771525 6.4771525,2 12,2 C17.5228475,2 22,6.4771525 22,12 C22,17.5228475 17.5228475,22 12,22 Z M8.10000038,9.3656249 C8.10000038,9.60520944 8.2002598,9.82786346 8.40078163,10.0335937 C8.60130347,10.2393238 8.84739476,10.3421874 9.13906288,10.3421874 C9.63385702,10.3421874 9.96979116,10.0479195 10.1468754,9.4593749 C10.3343763,8.89687209 10.5635407,8.4710951 10.8343754,8.18203115 C11.1052101,7.89296721 11.5270809,7.7484374 12.1000004,7.7484374 C12.5895862,7.7484374 12.9893217,7.89166514 13.2992191,8.1781249 C13.6091165,8.46458467 13.7640629,8.81614365 13.7640629,9.2328124 C13.7640629,9.44635514 13.7132821,9.64426983 13.6117191,9.8265624 C13.5101561,10.008855 13.3851574,10.1742179 13.2367191,10.3226562 C13.0882809,10.4710944 12.8473979,10.6911443 12.5140629,10.9828124 C12.1338526,11.3161474 11.8317723,11.6039049 11.6078129,11.8460937 C11.3838534,12.0882824 11.2041677,12.3695296 11.0687504,12.6898437 C10.933333,13.0101578 10.8656254,13.3890602 10.8656254,13.8265624 C10.8656254,14.1755225 10.9580724,14.4385407 11.1429691,14.6156249 C11.3278659,14.7927091 11.5557282,14.8812499 11.8265629,14.8812499 C12.3473988,14.8812499 12.6572916,14.6104193 12.7562504,14.0687499 C12.8135423,13.8135403 12.8565107,13.6351567 12.8851566,13.5335937 C12.9138026,13.4320306 12.9541668,13.3304692 13.0062504,13.2289062 C13.058334,13.1273431 13.1377603,13.0153651 13.2445316,12.8929687 C13.351303,12.7705722 13.4932287,12.6286465 13.6703129,12.4671874 C14.3109411,11.8942679 14.7549471,11.4867199 15.0023441,11.2445312 C15.2497412,11.0023424 15.4632807,10.7145849 15.6429691,10.3812499 C15.8226575,10.0479149 15.9125004,9.65989795 15.9125004,9.2171874 C15.9125004,8.65468459 15.7549499,8.13385647 15.4398441,7.6546874 C15.1247384,7.17551834 14.6781283,6.79661588 14.1000004,6.51796865 C13.5218725,6.23932143 12.8552125,6.0999999 12.1000004,6.0999999 C11.2874963,6.0999999 10.5765659,6.2666649 9.96718788,6.5999999 C9.35780983,6.9333349 8.8942728,7.35390362 8.57656288,7.86171865 C8.25885296,8.36953369 8.10000038,8.87083076 8.10000038,9.3656249 Z M11.9125004,17.9281249 C12.2197936,17.9281249 12.4906242,17.8239593 12.7250004,17.6156249 C12.9593766,17.4072905 13.0765629,17.1208351 13.0765629,16.7562499 C13.0765629,16.4281233 12.9645848,16.1520844 12.7406254,15.9281249 C12.5166659,15.7041655 12.240627,15.5921874 11.9125004,15.5921874 C11.5791654,15.5921874 11.2979182,15.7041655 11.0687504,15.9281249 C10.8395826,16.1520844 10.7250004,16.4281233 10.7250004,16.7562499 C10.7250004,17.1260434 10.8434888,17.413801 11.0804691,17.6195312 C11.3174495,17.8252613 11.5947905,17.9281249 11.9125004,17.9281249 Z" id="Combined-Shape"></path>
        </g>
    </g>
</svg>