<?xml version="1.0" encoding="UTF-8" standalone="no"?>
<svg width="24px" height="24px" viewBox="0 0 24 24" version="1.1" xmlns="http://www.w3.org/2000/svg" xmlns:xlink="http://www.w3.org/1999/xlink">
    <!-- Generator: Sketch 44.1 (41455) - http://www.bohemiancoding.com/sketch -->
    <title>hide</title>
    <desc>Created with Sketch.</desc>
    <defs></defs>
    <g id="PDS" stroke="none" stroke-width="1" fill="none" fill-rule="evenodd">
        <g id="hide" fill="#000000">
            <path d="M11.087763,15.2085793 C10.0959053,15.0361202 9.22253438,14.5724438 8.46763393,13.8175433 C7.48920642,12.8391158 7,11.6616722 7,10.2851773 C7,9.38487515 7.22693225,8.54782994 7.68080357,7.77401655 C5.976926,8.64455662 3.42857143,10.9329029 3.42857143,11.7137487 C3.42857143,12.6251015 5.65884671,14.4536995 7.15066964,15.3577219 C8.22472993,16.0085864 9.35303684,16.6074104 10.5666344,16.6074104 C10.5729261,16.6051817 11.070779,15.2098895 11.087763,15.2085793 Z M20.5714286,11.7137487 C20.5714286,10.8012508 18.023074,8.64455662 16.3191964,7.77401655 C16.7730677,8.54782994 17,9.38487515 17,10.2851773 C17,11.6616722 16.5107936,12.8391158 15.5323661,13.8175433 C14.6536229,14.6962865 13.5981203,15.1828056 12.3982925,15.2723326 C12.3991759,15.272967 11.8732758,16.7146115 11.8732758,16.7137487 C11.8732758,16.7128859 11.956081,16.7137487 12,16.7137487 C13.7410801,16.7137487 15.3575074,16.2617443 16.8493304,15.3577219 C18.3411533,14.4536995 20.5714286,12.7260601 20.5714286,11.7137487 Z M11.3611877,18.1237467 L15.7829907,5.97494257 C16.3911961,6.20472335 16.9884574,6.49191449 17.5747768,6.83651655 C19.3344582,7.87074791 20.7351138,9.23978184 21.7767857,10.9436594 C21.925596,11.2040774 22,11.4607712 22,11.7137487 C22,11.9667261 21.925596,12.22342 21.7767857,12.483838 C20.7351138,14.1951561 19.3344582,15.5660501 17.5747768,16.5965612 C15.8150954,17.6270723 13.956855,18.1423201 12,18.1423201 C11.7858819,18.1423201 11.5729445,18.136129 11.3611877,18.1237467 Z M10.0862646,17.9718135 C8.82186467,17.7426128 7.60152309,17.2823368 6.42522321,16.5909808 C4.6655418,15.5567495 3.26488616,14.1877155 2.22321429,12.483838 C2.07440402,12.22342 2,11.9667261 2,11.7137487 C2,11.4607712 2.07440402,11.2040774 2.22321429,10.9436594 C3.26488616,9.23978184 4.6655418,7.87074791 6.42522321,6.83651655 C8.18490463,5.80228519 10.043145,5.28517727 12,5.28517727 C12.883028,5.28517727 13.7459757,5.39047351 14.5888479,5.60106743 L10.0862646,17.9718135 Z" id="Combined-Shape"></path>
            <rect id="Rectangle" transform="translate(11.582951, 11.713749) rotate(20.000000) translate(-11.582951, -11.713749) " x="10.8329509" y="2.71374869" width="1.5" height="18" rx="0.75"></rect>
        </g>
    </g>
</svg>