<?xml version="1.0" encoding="UTF-8" standalone="no"?>
<svg width="24px" height="24px" viewBox="0 0 24 24" version="1.1" xmlns="http://www.w3.org/2000/svg" xmlns:xlink="http://www.w3.org/1999/xlink">
    <!-- Generator: Sketch 44.1 (41455) - http://www.bohemiancoding.com/sketch -->
    <title>home</title>
    <desc>Created with Sketch.</desc>
    <defs></defs>
    <g id="PDS" stroke="none" stroke-width="1" fill="none" fill-rule="evenodd">
        <g id="home" fill="#000000">
            <path d="M12,2.0028002 C12.2468076,1.98408322 12.5012951,2.05907086 12.7068447,2.23154742 L21.6480146,9.73407983 C22.0634309,10.0826555 22.1188333,10.6982623 21.7731444,11.1102383 C21.4250454,11.5250865 20.8109605,11.5740323 20.3961643,11.2259769 L12,4.18075855 L3.60383568,11.2259769 C3.18903949,11.5740323 2.57495459,11.5250865 2.22685559,11.1102383 C1.88116667,10.6982623 1.93656906,10.0826555 2.35198536,9.73407983 L11.2931553,2.23154742 C11.4987049,2.05907086 11.7531924,1.98408322 12,2.0028002 Z M4.38843253,13.2118376 C4.27937977,12.6665738 4.54594369,11.9361382 4.96640303,11.5945149 L11.9811085,5.89506674 L18.995814,11.5945149 C19.4240711,11.9424738 19.6824998,12.668261 19.5737845,13.2118376 L18.0211661,20.9749296 C17.9121134,21.5201934 17.3799038,21.962217 16.827435,21.962217 L7.13478201,21.962217 C6.58455529,21.962217 6.04976625,21.5185062 5.94105092,20.9749296 L4.38843253,13.2118376 Z M9.5998247,16.1364838 L10.0029035,20.9855979 C10.0029035,20.9855979 10.1105082,21.962217 9.03059572,21.962217 C9.02499722,21.962217 14.8731958,21.962217 14.8731958,21.962217 C13.6954893,21.962217 13.8979702,20.9855979 13.8979702,20.9855979 L14.3034719,16.1364838 C14.3496074,15.5847804 13.934646,15.1458502 13.3774871,15.1458502 L10.5263045,15.1458502 C9.96680012,15.1458502 9.55434646,15.589372 9.5998247,16.1364838 Z" id="Combined-Shape"></path>
        </g>
    </g>
</svg>