<?xml version="1.0" encoding="UTF-8" standalone="no"?>
<svg width="24px" height="24px" viewBox="0 0 24 24" version="1.1" xmlns="http://www.w3.org/2000/svg" xmlns:xlink="http://www.w3.org/1999/xlink">
    <!-- Generator: Sketch 44.1 (41455) - http://www.bohemiancoding.com/sketch -->
    <title>indent</title>
    <desc>Created with Sketch.</desc>
    <defs></defs>
    <g id="PDS" stroke="none" stroke-width="1" fill="none" fill-rule="evenodd">
        <g id="indent" fill="#000000">
            <path d="M19.0127152,10.7481453 L16.8732852,8.60871527 C16.5113724,8.24680251 16.507646,7.66375246 16.8705742,7.30082416 C17.2309898,6.94040861 17.8125632,6.93763291 18.1784654,7.30353512 L21.7268238,10.8518936 C21.9242527,11.0493225 22.0150901,11.312559 21.9979612,11.5699699 C22.0150901,11.8273808 21.9242527,12.0906173 21.7268238,12.2880462 L18.1784654,15.8364047 C17.8125632,16.2023069 17.2309898,16.1995312 16.8705742,15.8391156 C16.507646,15.4761873 16.5113724,14.8931373 16.8732852,14.5312245 L19.0162088,12.3883009 L14.8454502,12.3883009 C14.3938788,12.3883009 14.0278079,12.0242973 14.0278079,11.5682231 C14.0278079,11.1153067 14.3993329,10.7481453 14.8454502,10.7481453 L19.0127152,10.7481453 Z M2,20.3150712 C2,19.8621547 2.37559657,19.4949933 2.82064747,19.4949933 L20.86122,19.4949933 C21.3144511,19.4949933 21.6818675,19.858997 21.6818675,20.3150712 C21.6818675,20.7679876 21.3062709,21.135149 20.86122,21.135149 L2.82064747,21.135149 C2.36741639,21.135149 2,20.7711453 2,20.3150712 Z M2,15.9413228 C2,15.4884064 2.36380609,15.121245 2.82185498,15.121245 L12.1125159,15.121245 C12.5664138,15.121245 12.9343708,15.4852487 12.9343708,15.9413228 C12.9343708,16.3942393 12.5705648,16.7614006 12.1125159,16.7614006 L2.82185498,16.7614006 C2.36795701,16.7614006 2,16.3973969 2,15.9413228 Z M2,11.5675745 C2,11.114658 2.36380609,10.7474967 2.82185498,10.7474967 L12.1125159,10.7474967 C12.5664138,10.7474967 12.9343708,11.1115004 12.9343708,11.5675745 C12.9343708,12.020491 12.5705648,12.3876523 12.1125159,12.3876523 L2.82185498,12.3876523 C2.36795701,12.3876523 2,12.0236486 2,11.5675745 Z M2,7.19382615 C2,6.74090968 2.36380609,6.37374834 2.82185498,6.37374834 L12.1125159,6.37374834 C12.5664138,6.37374834 12.9343708,6.73775203 12.9343708,7.19382615 C12.9343708,7.64674262 12.5705648,8.01390396 12.1125159,8.01390396 L2.82185498,8.01390396 C2.36795701,8.01390396 2,7.64990027 2,7.19382615 Z M2,2.82007781 C2,2.36716134 2.37559657,2 2.82064747,2 L20.86122,2 C21.3144511,2 21.6818675,2.36400369 21.6818675,2.82007781 C21.6818675,3.27299428 21.3062709,3.64015563 20.86122,3.64015563 L2.82064747,3.64015563 C2.36741639,3.64015563 2,3.27615193 2,2.82007781 Z" id="Combined-Shape"></path>
        </g>
    </g>
</svg>