<?xml version="1.0" encoding="UTF-8" standalone="no"?>
<svg width="24px" height="24px" viewBox="0 0 24 24" version="1.1" xmlns="http://www.w3.org/2000/svg" xmlns:xlink="http://www.w3.org/1999/xlink">
    <!-- Generator: Sketch 44.1 (41455) - http://www.bohemiancoding.com/sketch -->
    <title>info</title>
    <desc>Created with Sketch.</desc>
    <defs></defs>
    <g id="PDS" stroke="none" stroke-width="1" fill="none" fill-rule="evenodd">
        <g id="info" fill="#000000">
            <path d="M12,22 C6.4771525,22 2,17.5228475 2,12 C2,6.4771525 6.4771525,2 12,2 C17.5228475,2 22,6.4771525 22,12 C22,17.5228475 17.5228475,22 12,22 Z M12.98,7.53125 C12.98,7.27458205 12.8910426,7.05875088 12.713125,6.88375 C12.5352074,6.70874913 12.3208346,6.62125 12.07,6.62125 C11.813332,6.62125 11.5975009,6.70874913 11.4225,6.88375 C11.2474991,7.05875088 11.16,7.27458205 11.16,7.53125 C11.16,7.77625123 11.2489574,7.98916576 11.426875,8.17 C11.6047926,8.35083424 11.8191654,8.44125 12.07,8.44125 C12.3208346,8.44125 12.5352074,8.35083424 12.713125,8.17 C12.8910426,7.98916576 12.98,7.77625123 12.98,7.53125 Z M14.205,18.11 C14.205,17.9641659 14.1583338,17.8854167 14.065,17.87375 C13.5574975,17.809583 13.2322924,17.6900009 13.089375,17.515 C12.9464576,17.3399991 12.875,16.9666695 12.875,16.395 L12.875,13.6475 C12.875,12.924163 12.9216662,11.9091732 13.015,10.6025 C13.015,10.5091662 12.9333341,10.4625 12.77,10.4625 C12.6999996,10.4625 12.6358336,10.4974996 12.5775,10.5675 C12.4783328,10.6841672 12.2333353,10.8314574 11.8425,11.009375 C11.4516647,11.1872926 10.9500031,11.3549992 10.3375,11.5125 C10.2441662,11.5125 10.1975,11.5824993 10.1975,11.7225 C10.1975,11.8741674 10.2441662,11.95 10.3375,11.95 C10.740002,11.9966669 11.0010411,12.0929159 11.120625,12.23875 C11.2402089,12.3845841 11.3,12.690831 11.3,13.1575 L11.3,16.395 C11.3,16.9666695 11.2285424,17.3399991 11.085625,17.515 C10.9427076,17.6900009 10.6233358,17.809583 10.1275,17.87375 C10.0341662,17.8854167 9.9875,17.9641659 9.9875,18.11 C9.9875,18.2733341 10.0341662,18.355 10.1275,18.355 C10.3666679,18.355 10.6699982,18.3375002 11.0375,18.3025 C11.4458354,18.2674998 11.7958319,18.25 12.0875,18.25 C12.3733348,18.25 12.7262479,18.2674998 13.14625,18.3025 C13.5195852,18.3375002 13.8258321,18.355 14.065,18.355 C14.1583338,18.355 14.205,18.2733341 14.205,18.11 Z" id="Info"></path>
        </g>
    </g>
</svg>