<?xml version="1.0" encoding="UTF-8" standalone="no"?>
<svg width="24px" height="24px" viewBox="0 0 24 24" version="1.1" xmlns="http://www.w3.org/2000/svg" xmlns:xlink="http://www.w3.org/1999/xlink">
    <!-- Generator: Sketch 44.1 (41455) - http://www.bohemiancoding.com/sketch -->
    <title>join</title>
    <desc>Created with Sketch.</desc>
    <defs></defs>
    <g id="PDS" stroke="none" stroke-width="1" fill="none" fill-rule="evenodd">
        <g id="join" fill="#000000">
            <path d="M10.7661024,15.3932077 L10.7661024,22.5912086 C10.7661024,23.1309417 11.2138176,23.5866061 11.7661024,23.5866061 C12.3222376,23.5866061 12.7661024,23.1409515 12.7661024,22.5912086 L12.7661024,15.3008199 L15.4179497,17.9526672 C15.8026114,18.3373289 16.4395389,18.3410915 16.8300632,17.9505672 C17.2233102,17.5573202 17.2215277,16.9278181 16.8321632,16.5384536 L12.5853225,12.2916129 C12.3756717,12.0819621 12.0910845,11.9854589 11.8122963,12.0042706 C11.5335081,11.9854589 11.2489208,12.0819621 11.03927,12.2916129 L6.7924293,16.5384536 C6.40306481,16.9278181 6.40128235,17.5573202 6.79452931,17.9505672 C7.1850536,18.3410915 7.82198113,18.3373289 8.20664286,17.9526672 L10.7661024,15.3932077 Z" id="arrow"></path>
            <path d="M10.7661024,3.39320766 L10.7661024,10.5912086 C10.7661024,11.1309417 11.2138176,11.5866061 11.7661024,11.5866061 C12.3222376,11.5866061 12.7661024,11.1409515 12.7661024,10.5912086 L12.7661024,3.30081989 L15.4179497,5.95266717 C15.8026114,6.3373289 16.4395389,6.34109145 16.8300632,5.95056716 C17.2233102,5.55732021 17.2215277,4.9278181 16.8321632,4.53845361 L12.5853225,0.291612905 C12.3756717,0.0819621275 12.0910845,-0.014541133 11.8122963,0.00427061663 C11.5335081,-0.0145411334 11.2489208,0.081962127 11.03927,0.291612905 L6.7924293,4.53845361 C6.40306481,4.9278181 6.40128235,5.55732021 6.79452931,5.95056716 C7.1850536,6.34109145 7.82198113,6.3373289 8.20664286,5.95266717 L10.7661024,3.39320766 Z" id="arrow" transform="translate(11.812296, 5.794287) scale(-1, -1) rotate(-360.000000) translate(-11.812296, -5.794287) "></path>
        </g>
    </g>
</svg>