<?xml version="1.0" encoding="UTF-8"?>
<svg width="25px" height="25px" viewBox="0 0 25 25" version="1.1" xmlns="http://www.w3.org/2000/svg" xmlns:xlink="http://www.w3.org/1999/xlink">
    <!-- Generator: Sketch 43.1 (39012) - http://www.bohemiancoding.com/sketch -->
    <title>Combined Shape</title>
    <desc>Created with Sketch.</desc>
    <defs></defs>
    <g id="DSN-99" stroke="none" stroke-width="1" fill="none" fill-rule="evenodd">
        <g transform="translate(-13.000000, -165.000000)" id="Combined-Shape" fill="#000000">
            <path d="M13.0023725,171.546715 C13.0143078,171.15039 13.218871,170.814734 13.3644549,170.647899 L19.0823649,165.27685 C19.4574503,164.908842 20.0631528,164.906457 20.4410835,165.277257 C20.8163977,165.645489 20.8097536,166.249031 20.4414977,166.610339 L16.2125999,170.666995 L31.2529033,170.666995 C31.7828469,170.666995 32.2124511,171.087065 32.2124511,171.613386 C32.2124511,172.136064 31.7774923,172.559778 31.2529033,172.559778 L16.2133536,172.559778 L20.4414977,176.612615 C20.8204645,176.984431 20.8260421,177.581792 20.4481113,177.952592 C20.0727972,178.320825 19.4610459,178.317639 19.0823649,177.946103 L13.3644549,172.551281 C13.2012492,172.392411 13.0567006,172.108719 13.0143355,171.778207 C13.0049127,171.724738 13,171.66967 13,171.613386 C13,171.590972 13.0007999,171.56874 13.0023725,171.546715 Z M37.9976275,183.453285 C37.9856922,183.84961 37.781129,184.185266 37.6355451,184.352101 L31.9176351,189.72315 C31.5425497,190.091158 30.9368472,190.093543 30.5589165,189.722743 C30.1836023,189.354511 30.1902464,188.750969 30.5585023,188.389661 L34.7874001,184.333005 L19.7470967,184.333005 C19.2171531,184.333005 18.7875489,183.912935 18.7875489,183.386614 C18.7875489,182.863936 19.2225077,182.440222 19.7470967,182.440222 L34.7866464,182.440222 L30.5585023,178.387385 C30.1795355,178.015569 30.1739579,177.418208 30.5518887,177.047408 C30.9272028,176.679175 31.5389541,176.682361 31.9176351,177.053897 L37.6355451,182.448719 C37.7987508,182.607589 37.9432994,182.891281 37.9856645,183.221793 C37.9950873,183.275262 38,183.33033 38,183.386614 C38,183.409028 37.9992001,183.43126 37.9976275,183.453285 Z"></path>
        </g>
    </g>
</svg>