<?xml version="1.0" encoding="UTF-8" standalone="no"?>
<svg width="24px" height="24px" viewBox="0 0 24 24" version="1.1" xmlns="http://www.w3.org/2000/svg" xmlns:xlink="http://www.w3.org/1999/xlink">
    <!-- Generator: Sketch 44.1 (41455) - http://www.bohemiancoding.com/sketch -->
    <title>link</title>
    <desc>Created with Sketch.</desc>
    <defs></defs>
    <g id="PDS" stroke="none" stroke-width="1" fill="none" fill-rule="evenodd">
        <g id="link" fill="#000000">
            <path d="M20.150001,16.7620784 C20.150001,16.3862967 20.0184794,16.066887 19.7554323,15.8038398 L16.8243497,12.8727573 C16.5613026,12.6097102 16.2418929,12.4781885 15.8661112,12.4781885 C15.4715405,12.4781885 15.133342,12.628499 14.8515058,12.9291243 C14.8796894,12.9573079 14.9689362,13.0442061 15.1192489,13.1898216 C15.2695615,13.335437 15.3705514,13.4364268 15.4222213,13.492794 C15.4738913,13.5491613 15.5443493,13.6384081 15.6335975,13.7605371 C15.7228456,13.8826662 15.7839092,14.0024448 15.8167901,14.1198766 C15.849671,14.2373084 15.8661112,14.3664814 15.8661112,14.5073995 C15.8661112,14.8831812 15.7345896,15.2025908 15.4715424,15.465638 C15.2084953,15.7286852 14.8890856,15.8602068 14.5133039,15.8602068 C14.3723858,15.8602068 14.2432128,15.8437666 14.125781,15.8108857 C14.0083492,15.7780048 13.8885706,15.7169412 13.7664416,15.6276931 C13.6443125,15.5384449 13.5550657,15.4679869 13.4986984,15.4163169 C13.4423312,15.3646469 13.3413414,15.2636571 13.195726,15.1133444 C13.0501106,14.9630318 12.9632124,14.873785 12.9350287,14.8456013 C12.6250088,15.1368321 12.4700012,15.4797278 12.4700012,15.8742986 C12.4700012,16.2500802 12.6015228,16.5694899 12.86457,16.8325371 L15.767469,19.7495278 C16.0211217,20.0031805 16.3405313,20.1300049 16.7257075,20.1300049 C17.1014892,20.1300049 17.4208989,20.0078777 17.6839461,19.7636196 L19.7554323,17.7062251 C20.0184794,17.4431779 20.150001,17.1284655 20.150001,16.7620784 Z M11.5299983,8.11798173 C11.5299983,7.74220004 11.3984767,7.4227904 11.1354295,7.15974322 L8.23253049,4.24275246 C7.96948331,3.97970527 7.65007366,3.84818366 7.27429198,3.84818366 C6.90790483,3.84818366 6.58849519,3.97500807 6.31605346,4.22866071 L4.24456727,6.28605516 C3.98152009,6.54910234 3.84999847,6.86381479 3.84999847,7.23020193 C3.84999847,7.60598362 3.98152009,7.92539326 4.24456727,8.18844044 L7.17564978,11.1195229 C7.42930241,11.3731756 7.74871206,11.5 8.13388829,11.5 C8.52845906,11.5 9.06816221,11.1512162 9.34999847,10.8599854 C9.32181485,10.8318017 7.36293127,9.79370825 8.62999725,8.52664227 C9.89706324,7.25957628 11.0367872,9.11849533 11.0649708,9.14667895 C11.3749907,8.85544814 11.5299983,8.5125525 11.5299983,8.11798173 Z M22,16.7058824 C22,17.6862794 21.6527812,18.5155195 20.9583333,19.1936275 L19.1568627,20.9828431 C18.4787548,21.6609511 17.6495147,22 16.6691176,22 C15.6805506,22 14.8472256,21.6527813 14.1691176,20.9583333 L11.6446078,18.4215686 C10.9664999,17.7434607 10.627451,16.9142206 10.627451,15.9338235 C10.627451,14.9289165 11.1910458,13.8726618 11.9100037,13.1700439 L10.8300018,12.0899658 C10.1273839,12.8089237 9.07516838,13.372549 8.07843137,13.372549 C7.09803431,13.372549 6.26470931,13.0294152 5.57843137,12.3431373 L3.02941176,9.79411765 C2.34313382,9.10783971 2,8.27451471 2,7.29411765 C2,6.31372059 2.34721875,5.48448051 3.04166667,4.80637255 L4.84313725,3.01715686 C5.52124522,2.3390489 6.35048529,2 7.33088235,2 C8.31944939,2 9.15277439,2.34721875 9.83088235,3.04166667 L12.3553922,5.57843137 C13.0335001,6.25653934 13.372549,7.08577941 13.372549,8.06617647 C13.372549,9.07108346 12.8089542,10.1273382 12.0899963,10.8299561 L13.1699982,11.9100342 C13.8726161,11.1910763 14.9248316,10.627451 15.9215686,10.627451 C16.9019657,10.627451 17.7352907,10.9705848 18.4215686,11.6568627 L20.9705882,14.2058824 C21.6568662,14.8921603 22,15.7254853 22,16.7058824 Z" id="Link" transform="translate(12.000000, 12.000000) rotate(90.000000) translate(-12.000000, -12.000000) "></path>
        </g>
    </g>
</svg>