<?xml version="1.0" encoding="UTF-8" standalone="no"?>
<svg width="24px" height="24px" viewBox="0 0 24 24" version="1.1" xmlns="http://www.w3.org/2000/svg" xmlns:xlink="http://www.w3.org/1999/xlink">
    <!-- Generator: Sketch 44.1 (41455) - http://www.bohemiancoding.com/sketch -->
    <title>list-view</title>
    <desc>Created with Sketch.</desc>
    <defs></defs>
    <g id="PDS" stroke="none" stroke-width="1" fill="none" fill-rule="evenodd">
        <g id="list-view" fill="#000000">
            <path d="M7,7 C7,6.44771525 7.44892021,6 8.00748397,6 L20.992516,6 C21.5489341,6 22,6.44386482 22,7 C22,7.55228475 21.5510798,8 20.992516,8 L8.00748397,8 C7.45106594,8 7,7.55613518 7,7 Z M2,7 C2,6.17157288 2.66579723,5.5 3.5,5.5 C4.32842712,5.5 5,6.16579723 5,7 C5,7.82842712 4.33420277,8.5 3.5,8.5 C2.67157288,8.5 2,7.83420277 2,7 Z M7,12 C7,11.4477153 7.44892021,11 8.00748397,11 L20.992516,11 C21.5489341,11 22,11.4438648 22,12 C22,12.5522847 21.5510798,13 20.992516,13 L8.00748397,13 C7.45106594,13 7,12.5561352 7,12 Z M2,12 C2,11.1715729 2.66579723,10.5 3.5,10.5 C4.32842712,10.5 5,11.1657972 5,12 C5,12.8284271 4.33420277,13.5 3.5,13.5 C2.67157288,13.5 2,12.8342028 2,12 Z M7,17 C7,16.4477153 7.44892021,16 8.00748397,16 L20.992516,16 C21.5489341,16 22,16.4438648 22,17 C22,17.5522847 21.5510798,18 20.992516,18 L8.00748397,18 C7.45106594,18 7,17.5561352 7,17 Z M2,17 C2,16.1715729 2.66579723,15.5 3.5,15.5 C4.32842712,15.5 5,16.1657972 5,17 C5,17.8284271 4.33420277,18.5 3.5,18.5 C2.67157288,18.5 2,17.8342028 2,17 Z" id="Combined-Shape"></path>
        </g>
    </g>
</svg>