<?xml version="1.0" encoding="UTF-8"?>
<svg width="20px" height="21px" viewBox="0 0 20 21" version="1.1" xmlns="http://www.w3.org/2000/svg" xmlns:xlink="http://www.w3.org/1999/xlink">
    <!-- Generator: Sketch 43.1 (39012) - http://www.bohemiancoding.com/sketch -->
    <title>Combined Shape</title>
    <desc>Created with Sketch.</desc>
    <defs></defs>
    <g id="DSN-99" stroke="none" stroke-width="1" fill="none" fill-rule="evenodd">
        <g transform="translate(-16.000000, -218.000000)" id="Combined-Shape" fill="#000000">
            <path d="M25.9200473,238.275862 C25.5160891,238.263489 25.1739675,238.051416 25.0039189,237.900488 L19.5294145,231.972684 C19.1543178,231.583829 19.1518865,230.955893 19.5298287,230.564089 C19.9051542,230.174997 20.5203214,230.181885 20.8885883,230.563659 L25.0233827,234.947793 L25.0233827,223.539552 C25.0233827,222.990155 25.4515438,222.544781 25.9880033,222.544781 C26.5207485,222.544781 26.9526239,222.995706 26.9526239,223.539552 L26.9526239,234.947011 L31.0835255,230.563659 C31.4625037,230.170781 32.071371,230.164999 32.4493131,230.556803 C32.8246386,230.945894 32.8213918,231.580102 32.4426993,231.972684 L26.9439638,237.900488 C26.7820333,238.069685 26.4928769,238.21954 26.1559984,238.26346 C26.1014992,238.273229 26.0453705,238.278322 25.9880033,238.278322 C25.9651571,238.278322 25.9424964,238.277493 25.9200473,238.275862 Z M33.3894709,225.984836 C33.3894709,225.984836 33.3894709,221.771056 33.3894709,221.420452 C33.3894709,221.069849 33.0002099,220.488874 32.520032,220.488874 L19.4778596,220.488874 C19.003778,220.488874 18.6084206,221.06534 18.6084206,221.420452 L18.6084206,225.990627 C18.6084206,226.53014 18.1602471,226.986457 17.607397,226.987569 L17.0010236,226.988788 C16.4543522,226.989888 16,226.545373 16,225.995909 L16,219.808821 C16,218.998444 16.6729573,218.317896 17.5030921,218.317896 L34.4947994,218.317896 C35.3325259,218.317896 35.9978916,218.985406 35.9978916,219.808821 L35.9978916,225.995909 C35.9978916,226.548787 35.549718,226.9899 34.996868,226.988788 L34.3904945,226.987569 C33.8438231,226.98647 33.3894709,226.537518 33.3894709,225.984836 Z"></path>
        </g>
    </g>
</svg>