<?xml version="1.0" encoding="UTF-8" standalone="no"?>
<svg width="24px" height="24px" viewBox="0 0 24 24" version="1.1" xmlns="http://www.w3.org/2000/svg" xmlns:xlink="http://www.w3.org/1999/xlink">
    <!-- Generator: Sketch 44.1 (41455) - http://www.bohemiancoding.com/sketch -->
    <title>media-controls-play</title>
    <desc>Created with Sketch.</desc>
    <defs></defs>
    <g id="PDS" stroke="none" stroke-width="1" fill="none" fill-rule="evenodd">
        <g id="media-controls-play" fill="#000000">
            <path d="M2,6.99525338 C2,4.23645112 4.23603796,2 6.99525338,2 L17.0047466,2 C19.7635489,2 22,4.23603796 22,6.99525338 L22,17.0047466 C22,19.7635489 19.763962,22 17.0047466,22 L6.99525338,22 C4.23645112,22 2,19.763962 2,17.0047466 L2,6.99525338 Z M9.72815546,7.77425653 L9.72815546,16.2263782 C9.72815546,16.7797442 10.0844479,16.9513554 10.5239569,16.6087498 L15.6400495,12.6206595 C16.0752161,12.281439 16.0795585,11.7225807 15.6400495,11.3799752 L10.5239569,7.39188491 C10.0887903,7.05266438 9.72815546,7.220473 9.72815546,7.77425653 Z" id="Combined-Shape"></path>
        </g>
    </g>
</svg>