<?xml version="1.0" encoding="UTF-8" standalone="no"?>
<svg width="16px" height="18px" viewBox="0 0 16 18" version="1.1" xmlns="http://www.w3.org/2000/svg" xmlns:xlink="http://www.w3.org/1999/xlink">
    <!-- Generator: Sketch 42 (36781) - http://www.bohemiancoding.com/sketch -->
    <title>communication</title>
    <desc>Created with Sketch.</desc>
    <defs></defs>
    <g id="Page-1" stroke="none" stroke-width="1" fill="none" fill-rule="evenodd">
        <g id="UI-Chrome/Main-Nav" transform="translate(-19.000000, -230.000000)" fill="#000000">
            <path d="M28.0000413,241 C28.0000138,240.996881 28,240.993758 28,240.990631 L28,239.009369 C28,238.45191 28.3138733,238.313873 28.7059121,238.705912 L31,241 L33.9991283,241 C34.5518945,241 35,241.437881 35,242.002929 L35,246.997071 C35,247.550973 34.5553691,248 33.9991283,248 L20.0008717,248 C19.4481055,248 19,247.562119 19,246.997071 L19,242.002929 C19,241.449027 19.4446309,241 20.0008717,241 L28.0000413,241 Z M25.9999587,237 C25.9999862,237.003119 26,237.006242 26,237.009369 L26,238.990631 C26,239.54809 25.6861267,239.686127 25.2940879,239.294088 L23,237 L20.0008717,237 C19.4481055,237 19,236.562119 19,235.997071 L19,231.002929 C19,230.449027 19.4446309,230 20.0008717,230 L33.9991283,230 C34.5518945,230 35,230.437881 35,231.002929 L35,235.997071 C35,236.550973 34.5553691,237 33.9991283,237 L25.9999587,237 Z M23,232.5 C23,232.768066 23.2240528,233 23.5004358,233 L30.4995642,233 C30.7692032,233 31,232.776142 31,232.5 C31,232.231934 30.7759472,232 30.4995642,232 L23.5004358,232 C23.2307968,232 23,232.223858 23,232.5 Z M23,234.5 C23,234.768066 23.2198305,235 23.4910052,235 L28.5089948,235 C28.7721195,235 29,234.776142 29,234.5 C29,234.231934 28.7801695,234 28.5089948,234 L23.4910052,234 C23.2278805,234 23,234.223858 23,234.5 Z M23,245.5 C23,245.768066 23.2240528,246 23.5004358,246 L30.4995642,246 C30.7692032,246 31,245.776142 31,245.5 C31,245.231934 30.7759472,245 30.4995642,245 L23.5004358,245 C23.2307968,245 23,245.223858 23,245.5 Z M25,243.5 C25,243.768066 25.2198305,244 25.4910052,244 L30.5089948,244 C30.7721195,244 31,243.776142 31,243.5 C31,243.231934 30.7801695,243 30.5089948,243 L25.4910052,243 C25.2278805,243 25,243.223858 25,243.5 Z" id="communication"></path>
        </g>
    </g>
</svg>
