<?xml version="1.0" encoding="UTF-8" standalone="no"?>
<svg width="24px" height="24px" viewBox="0 0 24 24" version="1.1" xmlns="http://www.w3.org/2000/svg" xmlns:xlink="http://www.w3.org/1999/xlink">
    <!-- Generator: Sketch 44.1 (41455) - http://www.bohemiancoding.com/sketch -->
    <title>message-bubbles-f</title>
    <desc>Created with Sketch.</desc>
    <defs></defs>
    <g id="PDS" stroke="none" stroke-width="1" fill="none" fill-rule="evenodd">
        <g id="message-bubbles-f" fill="#000000">
            <path d="M13.0000413,14.0174962 C13.0000138,14.014377 13,14.011254 13,14.0081273 L13,12.0268651 C13,11.469406 13.3138733,11.3313695 13.7059121,11.7234082 L16,14.0174962 L18.9991283,14.0174962 C19.5518945,14.0174962 20,14.4705325 20,15.0145263 L20,21.020466 C20,21.5711106 19.5553691,22.0174962 18.9991283,22.0174962 L5.00087166,22.0174962 C4.4481055,22.0174962 4,21.5644599 4,21.020466 L4,15.0145263 C4,14.4638818 4.44463086,14.0174962 5.00087166,14.0174962 L13.0000413,14.0174962 Z M10.9999587,10 C10.9999862,10.0031192 11,10.0062422 11,10.0093689 L11,11.9906311 C11,12.5480902 10.6861267,12.6861267 10.2940879,12.2940879 L8,10 L5.00087166,10 C4.4481055,10 4,9.54696369 4,9.00296986 L4,2.99703014 C4,2.4463856 4.44463086,2 5.00087166,2 L18.9991283,2 C19.5518945,2 20,2.45303631 20,2.99703014 L20,9.00296986 C20,9.5536144 19.5553691,10 18.9991283,10 L10.9999587,10 Z M8,5 C8,5.26806641 8.22405275,5.5 8.50043583,5.5 L15.4995642,5.5 C15.7692032,5.5 16,5.27614237 16,5 C16,4.73193359 15.7759472,4.5 15.4995642,4.5 L8.50043583,4.5 C8.23079681,4.5 8,4.72385763 8,5 Z M8,7 C8,7.26806641 8.21983051,7.5 8.49100518,7.5 L13.5089948,7.5 C13.7721195,7.5 14,7.27614237 14,7 C14,6.73193359 13.7801695,6.5 13.5089948,6.5 L8.49100518,6.5 C8.22788048,6.5 8,6.72385763 8,7 Z M16,19.0174962 C16,18.7494298 15.7759472,18.5174962 15.4995642,18.5174962 L8.50043583,18.5174962 C8.23079681,18.5174962 8,18.7413538 8,19.0174962 C8,19.2855626 8.22405275,19.5174962 8.50043583,19.5174962 L15.4995642,19.5174962 C15.7692032,19.5174962 16,19.2936386 16,19.0174962 Z M16,17.0174962 C16,16.7494298 15.7801695,16.5174962 15.5089948,16.5174962 L10.4910052,16.5174962 C10.2278805,16.5174962 10,16.7413538 10,17.0174962 C10,17.2855626 10.2198305,17.5174962 10.4910052,17.5174962 L15.5089948,17.5174962 C15.7721195,17.5174962 16,17.2936386 16,17.0174962 Z" id="Combined-Shape"></path>
        </g>
    </g>
</svg>