<?xml version="1.0" encoding="UTF-8" standalone="no"?>
<svg width="24px" height="24px" viewBox="0 0 24 24" version="1.1" xmlns="http://www.w3.org/2000/svg" xmlns:xlink="http://www.w3.org/1999/xlink">
    <!-- Generator: Sketch 44.1 (41455) - http://www.bohemiancoding.com/sketch -->
    <title>move</title>
    <desc>Created with Sketch.</desc>
    <defs></defs>
    <g id="PDS" stroke="none" stroke-width="1" fill="none" fill-rule="evenodd">
        <g id="move" fill="#000000">
            <path d="M22,12 C22,12.1692717 21.9381517,12.3157546 21.8144531,12.4394531 L19.3144531,14.9394531 C19.1907546,15.0631517 19.0442717,15.125 18.875,15.125 C18.7057283,15.125 18.5592454,15.0631517 18.4355469,14.9394531 C18.3118483,14.8157546 18.25,14.6692717 18.25,14.5 L18.25,13.1499996 L13.1499996,13.1499996 L13.1499996,18.25 L14.5,18.25 C14.6692717,18.25 14.8157546,18.3118483 14.9394531,18.4355469 C15.0631517,18.5592454 15.125,18.7057283 15.125,18.875 C15.125,19.0442717 15.0631517,19.1907546 14.9394531,19.3144531 L12.4394531,21.8144531 C12.3157546,21.9381517 12.1692717,22 12,22 C11.8307283,22 11.6842454,21.9381517 11.5605469,21.8144531 L9.06054688,19.3144531 C8.93684834,19.1907546 8.875,19.0442717 8.875,18.875 C8.875,18.7057283 8.93684834,18.5592454 9.06054688,18.4355469 C9.18424541,18.3118483 9.33072832,18.25 9.5,18.25 L10.8500004,18.25 L10.8500004,13.1499996 L5.75,13.1499996 L5.75,14.5 C5.75,14.6692717 5.68815166,14.8157546 5.56445312,14.9394531 C5.44075459,15.0631517 5.29427168,15.125 5.125,15.125 C4.95572832,15.125 4.80924541,15.0631517 4.68554688,14.9394531 L2.18554688,12.4394531 C2.06184834,12.3157546 2,12.1692717 2,12 C2,11.8307283 2.06184834,11.6842454 2.18554688,11.5605469 L4.68554688,9.06054688 C4.80924541,8.93684834 4.95572832,8.875 5.125,8.875 C5.29427168,8.875 5.44075459,8.93684834 5.56445312,9.06054688 C5.68815166,9.18424541 5.75,9.33072832 5.75,9.5 L5.75,10.8500004 L10.8500004,10.8500004 L10.8500004,5.75 L9.5,5.75 C9.33072832,5.75 9.18424541,5.68815166 9.06054688,5.56445312 C8.93684834,5.44075459 8.875,5.29427168 8.875,5.125 C8.875,4.95572832 8.93684834,4.80924541 9.06054688,4.68554688 L11.5605469,2.18554688 C11.6842454,2.06184834 11.8307283,2 12,2 C12.1692717,2 12.3157546,2.06184834 12.4394531,2.18554688 L14.9394531,4.68554688 C15.0631517,4.80924541 15.125,4.95572832 15.125,5.125 C15.125,5.29427168 15.0631517,5.44075459 14.9394531,5.56445312 C14.8157546,5.68815166 14.6692717,5.75 14.5,5.75 L13.1499996,5.75 L13.1499996,10.8500004 L18.25,10.8500004 L18.25,9.5 C18.25,9.33072832 18.3118483,9.18424541 18.4355469,9.06054688 C18.5592454,8.93684834 18.7057283,8.875 18.875,8.875 C19.0442717,8.875 19.1907546,8.93684834 19.3144531,9.06054688 L21.8144531,11.5605469 C21.9381517,11.6842454 22,11.8307283 22,12 Z" id="Move"></path>
        </g>
    </g>
</svg>