<?xml version="1.0" encoding="UTF-8" standalone="no"?>
<svg width="24px" height="24px" viewBox="0 0 24 24" version="1.1" xmlns="http://www.w3.org/2000/svg" xmlns:xlink="http://www.w3.org/1999/xlink">
    <!-- Generator: Sketch 44.1 (41455) - http://www.bohemiancoding.com/sketch -->
    <title>non editable</title>
    <desc>Created with Sketch.</desc>
    <defs></defs>
    <g id="PDS" stroke="none" stroke-width="1" fill="none" fill-rule="evenodd">
        <g id="non-editable" fill="#000000">
            <path d="M12,22 C6.4771525,22 2,17.5228475 2,12 C2,6.4771525 6.4771525,2 12,2 C17.5228475,2 22,6.4771525 22,12 C22,17.5228475 17.5228475,22 12,22 Z M14.3337522,8.211607 L16.2907764,10.1686312 L13.6918944,12.7709907 L18.4449946,17.5420705 C19.7257829,16.0539723 20.5,14.1174002 20.5,12 C20.5,7.30557963 16.6944204,3.5 12,3.5 C9.89413591,3.5 7.96713488,4.26580384 6.48229194,5.5341165 L11.7385621,10.8102696 L14.3337522,8.211607 Z M14.6858667,7.85902139 L15.8980562,6.6452099 C16.0923325,6.45067358 16.4098691,6.45322939 16.5994676,6.64308153 L17.8558983,7.90119347 C18.0490008,8.09455432 18.0477682,8.4092884 17.8537728,8.60354343 L16.6428909,9.81604559 L14.6858667,7.85902139 Z M12.5036841,13.9607909 L9.78674286,16.6813676 L7.61927491,17.4571153 C7.61927491,17.4571153 7.30955029,17.5962318 7.10662593,17.373339 C6.90370157,17.1504461 7.05278635,16.8348823 7.05278635,16.8348823 L7.83102623,14.7230341 L10.5466599,12.0037667 L5.30509328,6.76220006 C4.17419538,8.20567137 3.5,10.0241023 3.5,12 C3.5,16.6944204 7.30557963,20.5 12,20.5 C13.9758977,20.5 15.7943286,19.8258046 17.2377999,18.6949067 L12.5036841,13.9607909 Z" id="Non-Editable"></path>
        </g>
    </g>
</svg>