<?xml version="1.0" encoding="UTF-8" standalone="no"?>
<svg width="24px" height="24px" viewBox="0 0 24 24" version="1.1" xmlns="http://www.w3.org/2000/svg" xmlns:xlink="http://www.w3.org/1999/xlink">
    <!-- Generator: Sketch 44.1 (41455) - http://www.bohemiancoding.com/sketch -->
    <title>note</title>
    <desc>Created with Sketch.</desc>
    <defs></defs>
    <g id="PDS" stroke="none" stroke-width="1" fill="none" fill-rule="evenodd">
        <g id="note" fill-rule="nonzero" fill="#000000">
            <path d="M11.4241141,20.2036373 C11.2617099,20.1373379 11.1861796,19.9575506 11.2460233,19.7982382 C11.2460233,19.7982382 11.9495579,17.9293241 12.1401256,17.3771488 C12.3306933,16.8249735 12.2574342,16.0534777 12.5040726,16.0534777 C12.7507108,16.0534777 12.7507108,15.7967782 12.7507108,15.7967782 L13.1752453,13.5551228 C13.1752453,13.5551228 13.2563301,12.9846796 12.9286071,12.9846796 C12.9286071,12.9846796 12.8776514,12.6826485 12.8279581,12.2858015 L16.8719916,12.2858015 C19.9640723,12.6159707 17.1369623,14.3239556 17.1369623,14.3239556 C16.9915439,14.4232241 17.0082316,14.4758546 17.1762924,14.4460697 C17.1762924,14.4460697 20.75,14.0048409 20.75,11.035591 L20.75,4.82125282 C20.75,4.01907359 19.973437,3.25 19.2058869,3.25 L11.4548168,3.25 C10.6659965,3.25 9.88756525,4.01288492 9.88756525,4.82125282 L9.88756525,8.36017231 C9.49863413,8.28468339 9.11209754,8.25000001 8.76903626,8.25000001 C7.92855926,8.25000001 6.75221364,8.41904199 5.99046606,8.96455235 C5.22871849,9.51006273 4.70322461,10.0611575 4.70322461,11.0738058 C4.70322461,11.0738058 4.62035302,12.6897903 4.51812573,12.9846796 C4.03499025,12.9846796 4.21090966,13.5551228 4.21090966,13.5551228 L4.66043724,15.7967782 C4.66043724,15.7967782 4.66043724,16.0534777 4.96765331,16.0534777 C5.27590559,16.0534777 5.07859438,16.4603344 5.35482636,17.3771488 C5.63105834,18.2939631 6.37647547,19.8091507 6.37647547,19.8091507 C6.45137546,19.965575 6.38281904,20.139054 6.22580266,20.2036373 L3.5251708,21.3144499 C3.09973714,21.4894376 2.52427199,21.3300737 2.27679386,20.9434022 C2.27679386,20.9434022 2,20.7453401 2,20.1274374 L2,3.87256264 C2,2.83837485 2.83391219,2 3.87256264,2 L20.1274374,2 C21.1616252,2 22,2.83391219 22,3.87256264 L22,19.4295044 C22,20.4636922 21.1660878,21.3020671 20.1274374,21.3020671 L15.8244101,21.3020671 L11.4241141,20.2036373 Z M11.7724915,5.42258126 C11.7724915,5.25823168 11.9341821,5.125 12.1344705,5.125 L18.513021,5.125 C18.7129365,5.125 18.875,5.26303818 18.875,5.42258126 C18.875,5.58693086 18.7133095,5.72016253 18.513021,5.72016253 L12.1344705,5.72016253 C11.934555,5.72016253 11.7724915,5.58212435 11.7724915,5.42258126 Z M11.7724915,7.61008127 C11.7724915,7.44573167 11.9341821,7.3125 12.1344705,7.3125 L18.513021,7.3125 C18.7129365,7.3125 18.875,7.45053819 18.875,7.61008127 C18.875,7.77443086 18.7133095,7.90766253 18.513021,7.90766253 L12.1344705,7.90766253 C11.934555,7.90766253 11.7724915,7.76962434 11.7724915,7.61008127 Z M12.5025101,9.79758127 C12.3557586,9.55606951 12.1344705,9.5 12.1344705,9.5 L18.513021,9.5 C18.7129365,9.5 18.875,9.63803819 18.875,9.79758127 C18.875,9.96193086 18.7133095,10.0951625 18.513021,10.0951625 L12.6492615,10.0951625 C12.6492615,10.0951625 12.6492615,10.039093 12.5025101,9.79758127 Z" id="Combined-Shape"></path>
        </g>
    </g>
</svg>