<?xml version="1.0" encoding="UTF-8" standalone="no"?>
<svg width="24px" height="24px" viewBox="0 0 24 24" version="1.1" xmlns="http://www.w3.org/2000/svg" xmlns:xlink="http://www.w3.org/1999/xlink">
    <!-- Generator: Sketch 44.1 (41455) - http://www.bohemiancoding.com/sketch -->
    <title>online</title>
    <desc>Created with Sketch.</desc>
    <defs></defs>
    <g id="PDS-Current" stroke="none" stroke-width="1" fill="none" fill-rule="evenodd">
        <g id="online" fill="#000000">
            <path d="M20.5254829,12.2796033 C20.5750071,9.53841032 19.3649026,7.36190252 17.1880506,6.02407813 C17.1880506,6.02407813 16.5688634,5.6583985 17.0340013,5.02498927 C17.4991392,4.39158003 18.1834752,4.87925208 18.1834752,4.87925208 C20.6100428,6.51573208 22.0552235,9.1582702 21.9983832,12.3044121 C21.9430127,15.369202 20.5903535,17.7871122 18.2117308,19.359929 C18.2117308,19.359929 17.483561,19.842553 17.0609297,19.2817224 C16.6382984,18.7208918 17.3600599,18.2091076 17.3600599,18.2091076 C19.4056885,16.8799478 20.4774388,14.9388708 20.5254829,12.2796033 Z M16.836324,12.5997357 C16.9705097,10.7296821 16.4656437,9.45625571 14.9294626,8.60502368 C14.9294626,8.60502368 14.1620158,8.21282343 14.5438213,7.52945258 C14.9256266,6.84608179 15.8338028,7.37735597 15.8338028,7.37735597 C17.6021376,8.57349412 18.5233914,10.4171191 18.3593357,12.7034514 C18.2191398,14.6572652 17.2215275,15.9252679 16.2294966,16.8070694 C15.9548171,17.0512279 15.1864718,17.6459194 14.7667547,17.1112654 C14.3470375,16.5766114 14.8663721,16.2565079 15.2965023,15.8412937 C15.7266325,15.4260795 16.7262762,14.1333967 16.836324,12.5997357 Z M3.4745171,12.2796033 C3.5225612,14.9388708 4.59431152,16.8799478 6.63994011,18.2091076 C6.63994011,18.2091076 7.36170161,18.7208918 6.93907027,19.2817224 C6.51643899,19.842553 5.78826917,19.359929 5.78826917,19.359929 C3.40964647,17.7871122 2.05698733,15.369202 2.00161678,12.3044121 C1.94477648,9.1582702 3.38995718,6.51573208 5.81652484,4.87925208 C5.81652484,4.87925208 6.50086085,4.39158003 6.9659987,5.02498927 C7.43113656,5.6583985 6.81194936,6.02407813 6.81194936,6.02407813 C4.63509736,7.36190252 3.42499293,9.53841032 3.4745171,12.2796033 Z M7.16367597,12.5997357 C7.27372381,14.1333967 8.2733675,15.4260795 8.70349766,15.8412937 C9.13362789,16.2565079 9.65296255,16.5766114 9.23324534,17.1112654 C8.81352819,17.6459194 8.04518291,17.0512279 7.77050336,16.8070694 C6.7784725,15.9252679 5.78086018,14.6572652 5.64066433,12.7034514 C5.47660858,10.4171191 6.39786241,8.57349412 8.16619725,7.37735597 C8.16619725,7.37735597 9.07437335,6.84608179 9.45617874,7.52945258 C9.83798419,8.21282343 9.07053743,8.60502368 9.07053743,8.60502368 C7.53435627,9.45625571 7.02949031,10.7296821 7.16367597,12.5997357 Z M10.3463247,13.5259968 C9.46185622,12.6101029 9.48733157,11.1506209 10.4032255,10.2661524 C11.3191193,9.38168404 12.7786013,9.4071594 13.6630698,10.3230533 C14.5475382,11.2389471 14.5220628,12.6984292 13.606169,13.5828975 C12.6902751,14.467366 11.2307931,14.4418907 10.3463247,13.5259968 Z" id="Combined-Shape"></path>
        </g>
    </g>
</svg>