<?xml version="1.0" encoding="UTF-8" standalone="no"?>
<svg width="20px" height="4px" viewBox="0 0 20 4" version="1.1" xmlns="http://www.w3.org/2000/svg" xmlns:xlink="http://www.w3.org/1999/xlink">
    <!-- Generator: Sketch 42 (36781) - http://www.bohemiancoding.com/sketch -->
    <title>Options@1x</title>
    <desc>Created with Sketch.</desc>
    <defs></defs>
    <g id="CPF-806" stroke="none" stroke-width="1" fill="none" fill-rule="evenodd">
        <g id="CPF-806---No-attendance-taken" transform="translate(-290.000000, -104.000000)" fill="#000000">
            <g id="1" transform="translate(30.000000, 86.000000)">
                <path d="M262,22 C260.895431,22 260,21.1045695 260,20 C260,18.8954305 260.895431,18 262,18 C263.104569,18 264,18.8954305 264,20 C264,21.1045695 263.104569,22 262,22 Z M270,22 C268.895431,22 268,21.1045695 268,20 C268,18.8954305 268.895431,18 270,18 C271.104569,18 272,18.8954305 272,20 C272,21.1045695 271.104569,22 270,22 Z M278,22 C276.895431,22 276,21.1045695 276,20 C276,18.8954305 276.895431,18 278,18 C279.104569,18 280,18.8954305 280,20 C280,21.1045695 279.104569,22 278,22 Z" id="Options"></path>
            </g>
        </g>
    </g>
</svg>
