<?xml version="1.0" encoding="UTF-8"?>
<svg width="23px" height="19px" viewBox="0 0 23 19" version="1.1" xmlns="http://www.w3.org/2000/svg" xmlns:xlink="http://www.w3.org/1999/xlink">
    <!-- Generator: Sketch 42 (36781) - http://www.bohemiancoding.com/sketch -->
    <title>Profile Page</title>
    <desc>Created with Sketch.</desc>
    <defs></defs>
    <g id="Symbols" stroke="none" stroke-width="1" fill="none" fill-rule="evenodd">
        <g id="DSN-99" transform="translate(-16.000000, -69.000000)" fill="#000000">
            <path d="M16.1045445,83.2578023 C16.074772,83.2722284 16.0506557,83.2623388 16.0506888,83.2246011 L16.0623158,69.9783269 C16.0623158,69.4380119 16.4802664,69 16.9761876,69 L36.2475714,69 L38.087827,69 C38.5925445,69 39.0016989,69.438196 39.0016989,69.9783269 L39.0016989,85.3849956 C39.0016989,85.9253106 38.5837482,86.3633225 38.087827,86.3633225 L30.7014347,86.3633225 L32.0635086,85.2050525 L36.768095,85.2050525 C37.2796621,85.2050525 37.6905469,84.7636836 37.6905469,84.2192275 L37.6770904,71.6843224 C37.6770904,71.1341726 37.2640946,70.6984974 36.7546385,70.6984974 L18.2393477,70.6984974 C17.7277805,70.6984974 17.3168957,71.1398663 17.3168957,71.6843224 L17.3052167,82.6760196 L16.1045445,83.2578023 Z M27.9494474,73.7829608 C27.9494474,73.5245082 28.1550002,73.3149911 28.4203504,73.3149911 L35.7940455,73.3149911 C36.0541181,73.3149911 36.2649485,73.5320669 36.2649485,73.7829608 C36.2649485,74.0414133 36.0593957,74.2509304 35.7940455,74.2509304 L28.4203504,74.2509304 C28.1602778,74.2509304 27.9494474,74.0338547 27.9494474,73.7829608 Z M28.9410149,77.797832 C28.9410149,77.5393794 29.1466426,77.3298623 29.4086749,77.3298623 L35.6009274,77.3298623 C35.8592089,77.3298623 36.0685873,77.5469381 36.0685873,77.797832 C36.0685873,78.0562845 35.8629597,78.2658016 35.6009274,78.2658016 L29.4086749,78.2658016 C29.1503934,78.2658016 28.9410149,78.0487259 28.9410149,77.797832 Z M27.5261938,81.8127032 C27.5261938,81.5542506 27.7422092,81.3447335 27.9960272,81.3447335 L35.7951151,81.3447335 C36.0545969,81.3447335 36.2649485,81.5618093 36.2649485,81.8127032 C36.2649485,82.0711557 36.0489332,82.2806728 35.7951151,82.2806728 L27.9960272,82.2806728 C27.7365454,82.2806728 27.5261938,82.0635971 27.5261938,81.8127032 Z M16.1010639,85.1199429 C15.9302835,84.9058303 15.9929426,84.6485269 16.2617333,84.5366143 L20.6169303,82.7233022 C20.876446,82.6152513 20.9874018,82.3190454 20.869948,82.0677534 C20.869948,82.0677534 20.2971811,80.8975203 20.0490433,80.0638591 C19.8009056,79.2301978 19.9781492,78.8602421 19.7012478,78.8602421 C19.4252772,78.8602421 19.4252772,78.6268247 19.4252772,78.6268247 L19.0214689,76.5884827 C19.0214689,76.5884827 18.8634414,76.0697774 19.2974395,76.0697774 C19.3835241,76.0697774 19.2974395,76.0697774 19.2974395,76.0697774 C19.3892697,75.801634 19.4637128,74.3322158 19.4637128,74.3322158 C19.4637128,73.4114126 19.9357613,72.9103009 20.6200352,72.4142671 C21.3043091,71.9182334 22.3610143,71.7645231 23.1160104,71.7645231 C23.8710065,71.7645231 24.8604093,71.9538176 25.5415684,72.4142671 C26.2227274,72.8747166 26.7066882,73.4243802 26.6781842,74.3322158 C26.6781842,74.3322158 26.6781842,74.3322158 26.6781842,74.3322158 C26.6781842,75.0237012 26.8525313,76.0697774 26.8525313,76.0697774 C27.1469233,76.0697774 27.0740852,76.5884827 27.0740852,76.5884827 L26.692728,78.6268247 C26.692728,78.6268247 26.692728,78.8602421 26.4711741,78.8602421 C26.2496203,78.8602421 26.3154285,79.5617649 26.1442425,80.0638591 C25.9730565,80.5659533 25.4181162,82.0573507 25.4181162,82.0573507 C25.3218102,82.3170946 25.4463595,82.6113896 25.6985912,82.7156216 L30.123809,84.5442949 C30.3750171,84.6481039 30.4266485,84.8987981 30.2326666,85.0944487 C30.2326666,85.0944487 27.828808,88 23.18525,88 C17.9616291,88 16.1010639,85.1199429 16.1010639,85.1199429 Z" id="Profile-Page"></path>
        </g>
    </g>
</svg>
