<?xml version="1.0" encoding="UTF-8" standalone="no"?>
<svg width="24px" height="24px" viewBox="0 0 24 24" version="1.1" xmlns="http://www.w3.org/2000/svg" xmlns:xlink="http://www.w3.org/1999/xlink">
    <!-- Generator: Sketch 44.1 (41455) - http://www.bohemiancoding.com/sketch -->
    <title>person-card-s</title>
    <desc>Created with Sketch.</desc>
    <defs></defs>
    <g id="PDS" stroke="none" stroke-width="1" fill="none" fill-rule="evenodd">
        <g id="person-card-s" fill="#000000">
            <path d="M3.31527279,15.6842109 C3.31561617,15.6929401 3.31578947,15.701713 3.31578947,15.7105263 C3.31578947,16.0738715 3.02123997,16.3684211 2.65789474,16.3684211 C2.29454951,16.3684211 2,16.0738715 2,15.7105263 C2,15.701713 2.0001733,15.6929401 2.00051668,15.6842109 L2,15.6842109 L2,5.99539134 C2,4.89336713 2.89821238,4 3.99079514,4 L20.0092049,4 C21.1086907,4 22,4.88658478 22,5.99539134 L22,17.2677666 C22,18.3697908 21.1017876,19.2631579 20.0092049,19.2631579 L16.0000002,19.2631579 L16.0000002,19.2584698 C15.6738769,19.2194681 15.4210526,18.9418908 15.4210526,18.6052632 C15.4210526,18.2686355 15.6738769,17.9910582 16.0000002,17.9520566 L16.0000002,17.9473684 L19.6753382,17.9473684 C20.2374225,17.9473684 20.6842105,17.5036026 20.6842105,16.9561896 L20.6842105,6.30696829 C20.6842105,5.76535406 20.232523,5.31578947 19.6753382,5.31578947 L4.32466181,5.31578947 C3.76257748,5.31578947 3.31578947,5.75955534 3.31578947,6.30696829 L3.31578947,15.6842109 L3.31527279,15.6842109 Z M12.476728,8.2776796 C12.476728,8.00562423 12.6570375,7.78507991 12.8898008,7.78507991 L19.3579544,7.78507991 C19.5860883,7.78507991 19.7710272,8.01358075 19.7710272,8.2776796 C19.7710272,8.54973486 19.5907177,8.77027918 19.3579544,8.77027918 L12.8898008,8.77027918 C12.661667,8.77027918 12.476728,8.54177844 12.476728,8.2776796 Z M13.3465241,11.7994964 C13.3465241,11.5274411 13.5268992,11.3068968 13.7567521,11.3068968 L19.1885526,11.3068968 C19.4151153,11.3068968 19.5987806,11.5353976 19.5987806,11.7994964 C19.5987806,12.0715517 19.4184055,12.292096 19.1885526,12.292096 L13.7567521,12.292096 C13.5301894,12.292096 13.3465241,12.0635953 13.3465241,11.7994964 Z M12.1054529,15.3213133 C12.1054529,15.0492579 12.2949401,14.8287136 12.5175875,14.8287136 L19.3588927,14.8287136 C19.5865083,14.8287136 19.7710272,15.0572144 19.7710272,15.3213133 C19.7710272,15.5933685 19.5815401,15.8139129 19.3588927,15.8139129 L12.5175875,15.8139129 C12.2899719,15.8139129 12.1054529,15.5854121 12.1054529,15.3213133 Z M2.08340915,18.1403008 C1.93360178,17.9524827 1.98856591,17.726778 2.22434722,17.628609 L6.04469547,16.0379844 C6.27234082,15.9432029 6.36967047,15.6833732 6.26664082,15.4629416 C6.26664082,15.4629416 5.76421371,14.4364213 5.54654898,13.7051396 C5.32888433,12.9738577 5.48436117,12.6493352 5.24146521,12.6493352 C4.99938573,12.6493352 4.99938573,12.4445831 4.99938573,12.4445831 L4.64516792,10.6565638 C4.64516792,10.6565638 4.50654731,10.2015591 4.8872474,10.2015591 C4.96780021,9.96634561 5.03310117,8.67738228 5.03310117,8.67738228 C5.03310117,7.86966018 5.4471788,7.43008851 6.04741906,6.99497114 C6.64765933,6.55985386 7.57459371,6.42502026 8.23687099,6.42502026 C8.89914828,6.42502026 9.76704547,6.59106807 10.3645535,6.99497114 C10.9620613,7.39887421 11.3865884,7.88103526 11.3615849,8.67738228 C11.3615849,9.28394842 11.5145209,10.2015591 11.5145209,10.2015591 C11.7727595,10.2015591 11.7088664,10.6565638 11.7088664,10.6565638 L11.3743426,12.4445831 C11.3743426,12.4445831 11.3743426,12.6493352 11.179997,12.6493352 C10.9856516,12.6493352 11.0433781,13.2647061 10.8932149,13.7051396 C10.7430518,14.1455731 10.256262,15.4538164 10.256262,15.4538164 C10.1717831,15.6816619 10.2810369,15.9398154 10.5022927,16.031247 L14.3840627,17.6353464 C14.6044207,17.7264069 14.6497114,17.9463141 14.4795519,18.1179375 C14.4795519,18.1179375 12.370904,20.6666667 8.29760749,20.6666667 C3.71548389,20.6666667 2.08340915,18.1403008 2.08340915,18.1403008 Z" id="Combined-Shape"></path>
        </g>
    </g>
</svg>