<?xml version="1.0" encoding="UTF-8" standalone="no"?>
<svg width="24px" height="24px" viewBox="0 0 24 24" version="1.1" xmlns="http://www.w3.org/2000/svg" xmlns:xlink="http://www.w3.org/1999/xlink">
    <!-- Generator: Sketch 44.1 (41455) - http://www.bohemiancoding.com/sketch -->
    <title>printer</title>
    <desc>Created with Sketch.</desc>
    <defs></defs>
    <g id="PDS" stroke="none" stroke-width="1" fill="none" fill-rule="evenodd">
        <g id="printer" fill="#000000">
            <path d="M5,3.99079514 C5,2.89130934 5.89706013,2 7.00585866,2 L16.9941413,2 C18.1019465,2 19,2.89821238 19,3.99079514 L19,20.0092049 C19,21.1086907 18.1029399,22 16.9941413,22 L7.00585866,22 C5.89805351,22 5,21.1017876 5,20.0092049 L5,3.99079514 Z M6.5,4.4999602 L6.5,19.5000398 C6.5,20.0452911 6.94573523,20.5 7.4955775,20.5 L16.5044225,20.5 C17.055163,20.5 17.5,20.0523026 17.5,19.5000398 L17.5,4.4999602 C17.5,3.95470893 17.0542648,3.5 16.5044225,3.5 L7.4955775,3.5 C6.94483697,3.5 6.5,3.94769743 6.5,4.4999602 Z M7.33484104,14.517882 C7.33484104,14.2370878 7.56570301,14.0094592 7.83696582,14.0094592 L16.1720804,14.0094592 C16.4493963,14.0094592 16.6742052,14.2271926 16.6742052,14.517882 L16.6742052,14.7510363 C16.6742052,15.0318305 16.4433432,15.2594592 16.1720804,15.2594592 L7.83696582,15.2594592 C7.55964996,15.2594592 7.33484104,15.0417258 7.33484104,14.7510363 L7.33484104,14.517882 Z M7.33484104,17.267882 C7.33484104,16.9870878 7.56570301,16.7594592 7.83696582,16.7594592 L16.1720804,16.7594592 C16.4493963,16.7594592 16.6742052,16.9771926 16.6742052,17.267882 L16.6742052,17.5010363 C16.6742052,17.7818305 16.4433432,18.0094592 16.1720804,18.0094592 L7.83696582,18.0094592 C7.55964996,18.0094592 7.33484104,17.7917258 7.33484104,17.5010363 L7.33484104,17.267882 Z" id="Paper"></path>
            <path d="M2,9.99810135 C2,8.89458045 2.89821238,8 3.99079514,8 L20.0092049,8 C21.1086907,8 22,8.88670635 22,9.99810135 L22,14.0018986 C22,15.1054196 21.0999011,16 19.9989566,16 L19,16 L19,12 L5,12 L5,16 L4.00104344,16 C2.89589766,16 2,15.1132936 2,14.0018986 L2,9.99810135 Z M20,11 C20.5522847,11 21,10.5522847 21,10 C21,9.44771525 20.5522847,9 20,9 C19.4477153,9 19,9.44771525 19,10 C19,10.5522847 19.4477153,11 20,11 Z" id="Path"></path>
        </g>
    </g>
</svg>