<?xml version="1.0" encoding="UTF-8" standalone="no"?>
<svg width="24px" height="24px" viewBox="0 0 24 24" version="1.1" xmlns="http://www.w3.org/2000/svg" xmlns:xlink="http://www.w3.org/1999/xlink">
    <!-- Generator: Sketch 44.1 (41455) - http://www.bohemiancoding.com/sketch -->
    <title>publish</title>
    <desc>Created with Sketch.</desc>
    <defs></defs>
    <g id="PDS" stroke="none" stroke-width="1" fill="none" fill-rule="evenodd">
        <g id="publish" fill-rule="nonzero" fill="#000000">
            <path d="M10.1423613,15.9783115 C10.1392477,15.6520998 9.8818561,15.388647 9.54363438,15.388647 L4.72590602,15.388647 C4.39522251,15.388647 4.12715056,15.6530353 4.12715056,15.9842976 C4.12715056,16.3132664 4.38561787,16.5799483 4.72590602,16.5799483 L8.31765063,16.5799483 C7.41709822,17.5406456 7.84420629,18.8941881 8.54889071,19.4829472 C9.2539621,20.0720297 11.214397,21.6229607 11.214397,21.6229607 C11.3887695,21.7612274 11.3544763,21.882248 11.1237037,21.882248 L3.34276723,21.882248 C2.60117737,21.882248 2,21.2753877 2,20.5242833 L2,4.35796471 C2,3.60798151 2.61636637,3 3.36011604,3 L13.0429251,3 C13.2714015,3 13.5981907,3.13396868 13.7634494,3.29922742 L16.5368246,6.07260257 C16.7079896,6.24376762 16.836052,6.56085789 16.836052,6.79403562 L16.836052,10.7072285 C16.836052,10.9370379 16.837247,11.3180309 16.838721,11.5506769 L16.8571259,14.4554549 L13.7304575,18.2575857 C13.5849772,18.4344944 13.3162595,18.4621562 13.1337386,18.3151396 C13.1337386,18.3151396 11.1410782,16.7105226 10.5616261,16.2391757 C10.4309333,16.1328657 10.2910288,16.0428897 10.1423613,15.9783115 Z M4.12715056,8.87305195 C4.12715056,9.20202073 4.38994506,9.46870262 4.72918898,9.46870262 L14.1562851,9.46870262 C14.4887817,9.46870262 14.7583235,9.20431425 14.7583235,8.87305195 C14.7583235,8.54408318 14.4955291,8.27740129 14.1562851,8.27740129 L4.72918898,8.27740129 C4.39669235,8.27740129 4.12715056,8.54178967 4.12715056,8.87305195 Z M4.12715056,12.4286748 C4.12715056,12.7576435 4.38994506,13.0243255 4.72918898,13.0243255 L14.1562851,13.0243255 C14.4887817,13.0243255 14.7583235,12.7599371 14.7583235,12.4286748 C14.7583235,12.099706 14.4955291,11.8330241 14.1562851,11.8330241 L4.72918898,11.8330241 C4.39669235,11.8330241 4.12715056,12.0974125 4.12715056,12.4286748 Z M13.578661,20.3519199 L20.8209937,11.7208439 C21.0595911,11.4364946 21.489696,11.4045851 21.7632525,11.6341261 C22.0450502,11.8705825 22.0805161,12.2922485 21.8414736,12.5771282 L14.2287288,21.6496441 C14.0995817,21.8035558 13.9143266,21.8835075 13.7281595,21.8880704 C13.5359277,21.9268212 13.3300815,21.8823248 13.1765028,21.7534569 L9.31723362,18.5151456 C9.0398907,18.2824272 9.01366095,17.8570882 9.24320201,17.5835318 C9.4796584,17.301734 9.90592652,17.2701297 10.1735179,17.4946656 L13.578661,20.3519199 Z" id="Combined-Shape"></path>
        </g>
    </g>
</svg>