<?xml version="1.0" encoding="UTF-8" standalone="no"?>
<svg width="16px" height="16px" viewBox="0 0 16 16" version="1.1" xmlns="http://www.w3.org/2000/svg" xmlns:xlink="http://www.w3.org/1999/xlink">
    <!-- Generator: Sketch 42 (36781) - http://www.bohemiancoding.com/sketch -->
    <title>question</title>
    <desc>Created with Sketch.</desc>
    <defs></defs>
    <g id="Students" stroke="none" stroke-width="1" fill="none" fill-rule="evenodd">
        <g id="CPF-795-Exception-View" transform="translate(-333.000000, -256.000000)" fill="#000000">
            <g id="Group" transform="translate(270.000000, 249.000000)">
                <g id="Group-13" transform="translate(10.000000, 6.000000)">
                    <g id="Group-12" transform="translate(53.000000, 0.000000)">
                        <path d="M8.07744,15.249975 C4.67879385,15.249975 1.92359385,12.451725 1.92359385,8.999975 C1.92359385,5.548225 4.67879385,2.749975 8.07744,2.749975 C11.4760862,2.749975 14.2312862,5.548225 14.2312862,8.999975 C14.2312862,12.451725 11.4760862,15.249975 8.07744,15.249975 M8.07744,0.999975 C12.4277169,0.999975 15.9543631,4.581725 15.9543631,8.999975 C15.9543631,13.418225 12.4277169,16.999975 8.07744,16.999975 C3.72716308,16.999975 0.200516923,13.418225 0.200516923,8.999975 C0.200516923,4.581725 3.72716308,0.999975 8.07744,0.999975 Z M6.94811077,11.619725 C6.94811077,11.905225 7.03352615,12.124725 7.20460308,12.278225 C7.37568,12.431725 7.61248,12.508475 7.91475692,12.508475 C8.20817231,12.508475 8.43931077,12.430975 8.60891077,12.275975 C8.77851077,12.120725 8.86318769,11.901975 8.86318769,11.619725 C8.86318769,11.337475 8.78146462,11.117975 8.61801846,10.961225 C8.45481846,10.804725 8.22023385,10.726225 7.91475692,10.726225 C7.59721846,10.726225 7.35672615,10.803725 7.19328,10.958975 C7.02983385,11.114225 6.94811077,11.334225 6.94811077,11.619725 Z M7.14503385,9.990975 L8.55155692,9.990975 L8.55155692,9.753725 C8.55155692,9.620475 8.59217231,9.504975 8.67315692,9.407225 C8.75389538,9.309475 8.95475692,9.155225 9.27549538,8.944225 C9.65432615,8.698975 9.93001846,8.439225 10.1023262,8.164725 C10.2751262,7.890225 10.36128,7.565225 10.36128,7.189975 C10.36128,6.665725 10.1673108,6.251475 9.77937231,5.947725 C9.39168,5.643475 8.85703385,5.491475 8.17592615,5.491475 C7.34811077,5.491475 6.55401846,5.711725 5.79364923,6.152225 L6.43044923,7.417975 C7.04731077,7.085975 7.58638769,6.919975 8.04768,6.919975 C8.23401846,6.919975 8.38515692,6.958225 8.50134154,7.033975 C8.61728,7.109975 8.67537231,7.213225 8.67537231,7.343475 C8.67537231,7.507975 8.62121846,7.653725 8.51266462,7.780975 C8.40435692,7.907975 8.22638769,8.050725 7.97900308,8.208975 C7.66737231,8.407475 7.45051077,8.611475 7.32841846,8.820975 C7.20608,9.030225 7.14503385,9.286975 7.14503385,9.590975 L7.14503385,9.990975 Z" id="question"></path>
                    </g>
                </g>
            </g>
        </g>
    </g>
</svg>