<?xml version="1.0" encoding="UTF-8"?>
<svg width="26px" height="26px" viewBox="0 0 26 26" version="1.1" xmlns="http://www.w3.org/2000/svg" xmlns:xlink="http://www.w3.org/1999/xlink">
    <!-- Generator: Sketch 42 (36781) - http://www.bohemiancoding.com/sketch -->
    <title>question-o</title>
    <desc>Created with Sketch.</desc>
    <defs></defs>
    <g id="Page-1" stroke="none" stroke-width="1" fill="none" fill-rule="evenodd">
        <g id="Icons" fill="#000000">
            <g id="question-o">
                <path d="M12.8,23.15625 C7.2772,23.15625 2.8,18.6090937 2.8,13 C2.8,7.39090625 7.2772,2.84375 12.8,2.84375 C18.3228,2.84375 22.8,7.39090625 22.8,13 C22.8,18.6090937 18.3228,23.15625 12.8,23.15625 M12.8,0 C5.7308,0 0,5.82034375 0,13 C0,20.1796563 5.7308,26 12.8,26 C19.8692,26 25.6,20.1796563 25.6,13 C25.6,5.82034375 19.8692,0 12.8,0" id="Fill-1"></path>
                <path d="M10.96484,17.2570938 C10.96484,16.7931563 11.09764,16.4356563 11.36324,16.183375 C11.62884,15.9310938 12.01964,15.8051563 12.53564,15.8051563 C13.03204,15.8051563 13.41324,15.9327188 13.67844,16.1870313 C13.94404,16.44175 14.07684,16.7984375 14.07684,17.2570938 C14.07684,17.71575 13.93924,18.0712188 13.66364,18.3235 C13.38804,18.575375 13.01244,18.7013125 12.53564,18.7013125 C12.04444,18.7013125 11.65964,18.5765938 11.38164,18.3271563 C11.10364,18.0777188 10.96484,17.7210313 10.96484,17.2570938 L10.96484,17.2570938 Z M11.28484,14.610375 L11.28484,13.960375 C11.28484,13.466375 11.38404,13.0491563 11.58284,12.709125 C11.78124,12.3686875 12.13364,12.0371875 12.64004,11.714625 C13.04204,11.4574688 13.33124,11.2255 13.50724,11.019125 C13.68364,10.8123438 13.77164,10.5755 13.77164,10.3081875 C13.77164,10.0965313 13.67724,9.92875 13.48884,9.80525 C13.30004,9.68215625 13.05444,9.62 12.75164,9.62 C12.00204,9.62 11.12604,9.88975 10.12364,10.42925 L9.08884,8.37240625 C10.32444,7.65659375 11.61484,7.2986875 12.96004,7.2986875 C14.06684,7.2986875 14.93564,7.5456875 15.56564,8.04009375 C16.19604,8.5336875 16.51124,9.20684375 16.51124,10.05875 C16.51124,10.6685313 16.37124,11.1966563 16.09044,11.6427188 C15.81044,12.0887813 15.36244,12.510875 14.74684,12.9094063 C14.22564,13.2522813 13.89924,13.5029375 13.76804,13.6617813 C13.63644,13.820625 13.57044,14.0083125 13.57044,14.2248438 L13.57044,14.610375 L11.28484,14.610375 Z" id="Fill-14"></path>
            </g>
        </g>
    </g>
</svg>