<?xml version="1.0" encoding="UTF-8" standalone="no"?>
<svg width="24px" height="24px" viewBox="0 0 24 24" version="1.1" xmlns="http://www.w3.org/2000/svg" xmlns:xlink="http://www.w3.org/1999/xlink">
    <!-- Generator: Sketch 44.1 (41455) - http://www.bohemiancoding.com/sketch -->
    <title>reply</title>
    <desc>Created with Sketch.</desc>
    <defs></defs>
    <g id="PDS" stroke="none" stroke-width="1" fill="none" fill-rule="evenodd">
        <g id="reply" fill-rule="nonzero" fill="#000000">
            <path d="M15.5622306,4.76800554 L13.5255202,3.05900264 C13.1071493,2.70794775 13.0489642,2.08851268 13.4010041,1.66896778 C13.7506068,1.25232762 14.3685606,1.19529052 14.7915433,1.55021517 L18.8934435,4.99211813 C19.1216712,5.18362394 19.2427123,5.45499619 19.2484436,5.7302167 C19.2905909,6.00225121 19.218512,6.29051928 19.0270062,6.51874702 L15.5851033,10.6206472 C15.2301786,11.04363 14.6117085,11.0947659 14.1950684,10.7451633 C13.7755235,10.3931234 13.7252608,9.77299517 14.0763158,9.35462422 L15.9507135,7.12080402 C13.6685817,6.95657689 11.3306293,7.74689909 9.58575775,9.49177062 C6.39621419,12.6813142 6.39621423,17.852586 9.58575778,21.0421295 C9.75516673,21.2115385 9.9301663,21.3719494 10.1101626,21.5233625 L10.1095054,21.5242378 C10.161553,21.5613697 10.2112357,21.6032896 10.2579435,21.6499974 C10.7135926,22.1056465 10.7135926,22.8443995 10.2579435,23.3000486 C9.83458155,23.7234105 9.16681537,23.7534098 8.70881666,23.3900465 L8.70741675,23.3919112 C8.44159473,23.1736988 8.18398105,22.9404553 7.9357065,22.6921808 C3.8348648,18.5913391 3.83486476,11.9425611 7.93570648,7.84171935 C10.0373237,5.74010209 12.8081316,4.71553082 15.5622306,4.76800554 Z" id="Combined-Shape" transform="translate(12.060075, 12.479147) scale(-1, 1) rotate(40.000000) translate(-12.060075, -12.479147) "></path>
        </g>
    </g>
</svg>