<?xml version="1.0" encoding="UTF-8" standalone="no"?>
<svg width="24px" height="24px" viewBox="0 0 24 24" version="1.1" xmlns="http://www.w3.org/2000/svg" xmlns:xlink="http://www.w3.org/1999/xlink">
    <!-- Generator: Sketch 44.1 (41455) - http://www.bohemiancoding.com/sketch -->
    <title>report</title>
    <desc>Created with Sketch.</desc>
    <defs></defs>
    <g id="PDS" stroke="none" stroke-width="1" fill="none" fill-rule="evenodd">
        <g id="report" fill="#000000">
            <path d="M5.049,22 C4.47,22 4,21.53 4,20.951 L4,3.049 C4,2.47 4.47,2 5.049,2 L14.427,2 C14.963,2 15.477,2.214 15.854,2.596 L18.419,5.188 C18.791,5.564 19,6.072 19,6.601 L19,20.951 C19,21.53 18.53,22 17.951,22 L5.049,22 Z M6,7.75 C6,8.16710138 6.33578644,8.5 6.75,8.5 C7.16710138,8.5 7.5,8.16421356 7.5,7.75 C7.5,7.33289862 7.16421356,7 6.75,7 C6.33289862,7 6,7.33578644 6,7.75 Z M9,7.50842285 L9,7.74157715 C9,8.03226662 9.22405275,8.25 9.50043583,8.25 L16.4995642,8.25 C16.7692032,8.25 17,8.02237134 17,7.74157715 L17,7.50842285 C17,7.21773338 16.7759472,7 16.4995642,7 L9.50043583,7 C9.23079681,7 9,7.22762866 9,7.50842285 Z M6,10.75 C6,11.1671014 6.33578644,11.5 6.75,11.5 C7.16710138,11.5 7.5,11.1642136 7.5,10.75 C7.5,10.3328986 7.16421356,10 6.75,10 C6.33289862,10 6,10.3357864 6,10.75 Z M9,10.5084229 L9,10.7415771 C9,11.0322666 9.22405275,11.25 9.50043583,11.25 L16.4995642,11.25 C16.7692032,11.25 17,11.0223713 17,10.7415771 L17,10.5084229 C17,10.2177334 16.7759472,10 16.4995642,10 L9.50043583,10 C9.23079681,10 9,10.2276287 9,10.5084229 Z M6,13.75 C6,14.1671014 6.33578644,14.5 6.75,14.5 C7.16710138,14.5 7.5,14.1642136 7.5,13.75 C7.5,13.3328986 7.16421356,13 6.75,13 C6.33289862,13 6,13.3357864 6,13.75 Z M9,13.5084229 L9,13.7415771 C9,14.0322666 9.22405275,14.25 9.50043583,14.25 L16.4995642,14.25 C16.7692032,14.25 17,14.0223713 17,13.7415771 L17,13.5084229 C17,13.2177334 16.7759472,13 16.4995642,13 L9.50043583,13 C9.23079681,13 9,13.2276287 9,13.5084229 Z M6,16.75 C6,17.1671014 6.33578644,17.5 6.75,17.5 C7.16710138,17.5 7.5,17.1642136 7.5,16.75 C7.5,16.3328986 7.16421356,16 6.75,16 C6.33289862,16 6,16.3357864 6,16.75 Z M9,16.5084229 L9,16.7415771 C9,17.0322666 9.22405275,17.25 9.50043583,17.25 L16.4995642,17.25 C16.7692032,17.25 17,17.0223713 17,16.7415771 L17,16.5084229 C17,16.2177334 16.7759472,16 16.4995642,16 L9.50043583,16 C9.23079681,16 9,16.2276287 9,16.5084229 Z" id="Report"></path>
        </g>
    </g>
</svg>