<?xml version="1.0" encoding="UTF-8" standalone="no"?>
<svg width="24px" height="24px" viewBox="0 0 24 24" version="1.1" xmlns="http://www.w3.org/2000/svg" xmlns:xlink="http://www.w3.org/1999/xlink">
    <!-- Generator: Sketch 44.1 (41455) - http://www.bohemiancoding.com/sketch -->
    <title>reset</title>
    <desc>Created with Sketch.</desc>
    <defs></defs>
    <g id="PDS" stroke="none" stroke-width="1" fill="none" fill-rule="evenodd">
        <g id="reset" fill="#000000">
            <path d="M11.5003761,12.1308554 C11.5001261,12.1372145 11.5,12.143597 11.5,12.1500001 C11.5,12.4261425 11.7237494,12.6500001 11.9937406,12.6500001 L15.1679277,12.6500001 C15.4406131,12.6500001 15.6616683,12.4180665 15.6616683,12.1500001 C15.6616683,11.8738577 15.4379189,11.6500001 15.1679277,11.6500001 L12.4991493,11.6500001 L12.4991493,8.92212886 C12.4991493,8.65213762 12.2752917,8.42838826 11.9991493,8.42838826 C11.7310829,8.42838826 11.4991493,8.64944346 11.4991493,8.92212886 L11.4991493,12.0963159 C11.4991493,12.1079192 11.4995628,12.119437 11.5003761,12.1308554 Z M7.07139131,12.8443188 C7.03789547,12.8979572 6.99787556,12.9486243 6.95134852,12.9951514 L4.70730979,15.2391901 C4.5265509,15.419949 4.285602,15.5031704 4.05004342,15.4875655 C3.81448484,15.5031704 3.57353594,15.419949 3.39277705,15.2391901 L1.14873831,12.9951514 C0.819108177,12.6655212 0.816090374,12.1280885 1.14570746,11.7984715 C1.47762258,11.4665563 2.0110964,11.4702113 2.34238738,11.8015023 L3.06869342,12.5278084 C2.96632483,10.0991119 3.84232674,7.63685798 5.69669914,5.78248558 C9.21141777,2.26776695 14.9099026,2.26776695 18.4246212,5.78248558 C21.9393398,9.2972042 21.9393398,14.995689 18.4246212,18.5104076 C14.9099026,22.0251263 9.21141777,22.0251263 5.69669914,18.5104076 C5.66126291,18.4749714 5.62618395,18.4393132 5.59146227,18.4034375 C5.5791867,18.3923129 5.56712074,18.3808292 5.55527792,18.3689864 C5.53152884,18.3452373 5.50922401,18.3205909 5.48836345,18.2951563 C5.47642187,18.2824073 5.46452434,18.2696321 5.45267086,18.2568308 L5.45618655,18.2537607 C5.16815173,17.8624487 5.20118218,17.3088686 5.55527792,16.9547729 C5.94178668,16.5682641 6.56597192,16.5642899 6.95736846,16.9428501 L6.95996105,16.9405861 C7.00931636,16.9930382 7.05963357,17.0449149 7.1109127,17.0961941 C9.84458275,19.8298641 14.2767376,19.8298641 17.0104076,17.0961941 C19.7440777,14.362524 19.7440777,9.93036918 17.0104076,7.19669914 C14.2767376,4.4630291 9.84458275,4.4630291 7.1109127,7.19669914 C5.65663692,8.65097492 4.97601634,10.5859384 5.06905096,12.4901508 L5.75769946,11.8015023 C6.08899044,11.4702113 6.62246426,11.4665563 6.95437938,11.7984715 C6.97119217,11.8152843 6.98713955,11.8326377 7.0022223,11.8504767 C7.0387728,10.6211545 7.5261874,9.40274479 8.46446609,8.46446609 C10.4170876,6.51184464 13.5829124,6.51184464 15.5355339,8.46446609 C17.4881554,10.4170876 17.4881554,13.5829124 15.5355339,15.5355339 C13.5829124,17.4881554 10.4170876,17.4881554 8.46446609,15.5355339 C7.7037168,14.7747846 7.23935854,13.8298815 7.07139131,12.8443188 Z" id="Combined-Shape"></path>
        </g>
    </g>
</svg>