<?xml version="1.0" encoding="UTF-8" standalone="no"?>
<svg width="17px" height="20px" viewBox="0 0 17 20" version="1.1" xmlns="http://www.w3.org/2000/svg" xmlns:xlink="http://www.w3.org/1999/xlink">
    <!-- Generator: Sketch 42 (36781) - http://www.bohemiancoding.com/sketch -->
    <title>quick links</title>
    <desc>Created with Sketch.</desc>
    <defs></defs>
    <g id="Page-1" stroke="none" stroke-width="1" fill="none" fill-rule="evenodd">
        <g id="UI-Chrome/Main-Nav" transform="translate(-18.000000, -377.000000)" fill="#000000">
            <path d="M27,396.952217 C26.8349498,396.983078 26.6682372,397 26.5,397 C26.3322317,397 26.1654866,396.983207 26,396.952569 L26,393.997699 C26,393.714844 25.7761424,393.5 25.5,393.5 C25.2319336,393.5 25,393.722827 25,393.997699 L25,396.614933 C23.8732409,396.084467 22.8335546,395.164003 21.9641827,394.896284 C20.7676101,394.527806 18.9733461,394.795633 18.9733461,394.795633 C18.4357819,394.850672 18,394.452932 18,393.894816 L18,379.000727 C18,377.895756 18.8900584,377 20.0001062,377 L32.9998938,377 C34.104522,377 35,377.88743 35,379.000727 L35,393.894816 C35,394.447362 34.5606316,394.849227 33.9969345,394.801561 C33.9969345,394.801561 32.1322256,394.549857 30.9905222,394.89529 C30.122171,395.158017 29.1093146,396.076155 28,396.609007 L28,394.497699 C28,394.214844 27.7761424,394 27.5,394 C27.2319336,394 27,394.222827 27,394.497699 L27,396.952217 Z M30.7303929,392.686765 C30.8194533,392.022957 30.9053704,391.360185 30.9965264,390.696377 C31.012243,390.581247 30.9745233,390.498271 30.8854628,390.418407 C30.3228104,389.914327 29.7685402,389.402987 29.200649,388.904093 C29.0707255,388.788964 29.0392924,388.681095 29.055009,388.519292 C29.2352254,386.817245 29.4070596,386.150325 29.4531615,384.437906 C29.478308,383.505463 29.3127604,382.605172 28.9931906,381.7277 C28.6620953,380.823261 28.1801212,379.9935 27.5818447,379.217674 C27.2559882,378.792422 26.9081287,378.385839 26.4869252,378 C26.4355845,378.047711 26.3957692,378.082976 26.3580495,378.119278 C25.4087701,379.052759 24.6638058,380.109667 24.148303,381.300373 C23.7134786,382.305421 23.4923991,383.348845 23.5206889,384.436869 C23.565743,386.187664 23.7417683,386.891924 23.9261758,388.633384 C23.9366535,388.731918 23.9146504,388.800373 23.8360676,388.870903 C23.2618898,389.384318 22.6929508,389.902918 22.1187729,390.41737 C22.0202826,390.504495 21.9867539,390.596805 22.004566,390.72127 C22.0946742,391.36952 22.1795436,392.018808 22.2665085,392.668096 C22.2916549,392.863089 22.3241358,392.875536 22.5022567,392.767667 C23.0596702,392.432651 23.6181315,392.100747 24.171354,391.760545 C24.2656532,391.703499 24.3264239,391.701424 24.4228187,391.761582 C24.5275957,391.826926 24.862882,392.565413 24.862882,392.565413 C24.862882,392.565413 25.4150567,393 26.5120717,393 C27.6090867,393 28.1067773,392.576822 28.1067773,392.576822 C28.1067773,392.576822 28.554175,391.75847 28.658952,391.704536 C28.6966717,391.685866 28.790971,391.75121 28.8527894,391.787512 C29.4060119,392.117342 29.9592343,392.450284 30.5124568,392.781151 C30.6759089,392.878647 30.707342,392.864127 30.7303929,392.686765 Z M26.5,385 C25.6715729,385 25,384.328427 25,383.5 C25,382.671573 25.6715729,382 26.5,382 C27.3284271,382 28,382.671573 28,383.5 C28,384.328427 27.3284271,385 26.5,385 Z" id="quick-links"></path>
        </g>
    </g>
</svg>
