<?xml version="1.0" encoding="UTF-8" standalone="no"?>
<svg width="24px" height="24px" viewBox="0 0 24 24" version="1.1" xmlns="http://www.w3.org/2000/svg" xmlns:xlink="http://www.w3.org/1999/xlink">
    <!-- Generator: Sketch 44.1 (41455) - http://www.bohemiancoding.com/sketch -->
    <title>roster</title>
    <desc>Created with Sketch.</desc>
    <defs></defs>
    <g id="PDS" stroke="none" stroke-width="1" fill="none" fill-rule="evenodd">
        <g id="roster" fill="#000000">
            <path d="M5.049,22 C4.47,22 4,21.53 4,20.951 L4,3.049 C4,2.47 4.47,2 5.049,2 L14.427,2 C14.963,2 15.477,2.214 15.854,2.596 L18.419,5.188 C18.791,5.564 19,6.072 19,6.601 L19,20.951 C19,21.53 18.53,22 17.951,22 L5.049,22 Z M6.01842321,8.59520978 C6.50205197,8.72300753 6.91972179,8.81636406 7.37037108,8.81636406 L8.40941897,8.81636406 C8.83119497,8.81636406 9.25155691,8.69703305 9.67474697,8.59520978 C9.71979929,8.5497699 9.67644802,8.04821584 9.38909073,7.96810383 L8.36133326,7.54339419 C8.30275241,7.5191863 8.27382582,7.45083624 8.2961929,7.39051068 C8.2961929,7.39051068 8.42507786,7.04413342 8.46483584,6.92752197 C8.50459381,6.81091052 8.48930985,6.64798175 8.54076575,6.64798175 C8.59222167,6.64798175 8.59222167,6.59377053 8.59222167,6.59377053 L8.68079194,6.12036531 C8.68079194,6.12036531 8.6977086,5.99989593 8.62933601,5.99989593 C8.62933601,5.99989593 8.58884387,5.75694458 8.58884387,5.596347 C8.59546393,5.38550205 8.48306397,5.2578426 8.32486469,5.15090314 C8.16666539,5.04396367 7.93687645,5 7.7615285,5 C7.58618055,5 7.34076061,5.03569924 7.1818379,5.15090314 C7.02291519,5.26610706 6.91328186,5.38249032 6.91328186,5.596347 C6.91328186,5.596347 6.89599244,5.93761958 6.87466486,5.99989593 C6.77386874,5.99989593 6.81057065,6.12036531 6.81057065,6.12036531 L6.90435518,6.59377053 C6.90435518,6.59377053 6.90435518,6.64798175 6.9684494,6.64798175 C7.03275979,6.64798175 6.99159493,6.73390402 7.04922495,6.92752197 C7.10685499,7.12113991 7.23988018,7.39292671 7.23988018,7.39292671 C7.26715885,7.45128931 7.24138935,7.52008318 7.18111679,7.54517801 L6.16962166,7.96632001 C5.99210796,8.04047606 5.97875944,8.5454821 6.01842321,8.59520978 Z M11,7.00842285 L11,7.24157715 C11,7.53226662 11.2198305,7.75 11.4910052,7.75 L16.5089948,7.75 C16.7721195,7.75 17,7.52237134 17,7.24157715 L17,7.00842285 C17,6.71773338 16.7801695,6.5 16.5089948,6.5 L11.4910052,6.5 C11.2278805,6.5 11,6.72762866 11,7.00842285 Z M6.01842321,13.5952098 C6.50205197,13.7230075 6.91972179,13.8163641 7.37037108,13.8163641 L8.40941897,13.8163641 C8.83119497,13.8163641 9.25155691,13.6970331 9.67474697,13.5952098 C9.71979929,13.5497699 9.67644802,13.0482158 9.38909073,12.9681038 L8.36133326,12.5433942 C8.30275241,12.5191863 8.27382582,12.4508362 8.2961929,12.3905107 C8.2961929,12.3905107 8.42507786,12.0441334 8.46483584,11.927522 C8.50459381,11.8109105 8.48930985,11.6479818 8.54076575,11.6479818 C8.59222167,11.6479818 8.59222167,11.5937705 8.59222167,11.5937705 L8.68079194,11.1203653 C8.68079194,11.1203653 8.6977086,10.9998959 8.62933601,10.9998959 C8.62933601,10.9998959 8.58884387,10.7569446 8.58884387,10.596347 C8.59546393,10.385502 8.48306397,10.2578426 8.32486469,10.1509031 C8.16666539,10.0439637 7.93687645,10 7.7615285,10 C7.58618055,10 7.34076061,10.0356992 7.1818379,10.1509031 C7.02291519,10.2661071 6.91328186,10.3824903 6.91328186,10.596347 C6.91328186,10.596347 6.89599244,10.9376196 6.87466486,10.9998959 C6.77386874,10.9998959 6.81057065,11.1203653 6.81057065,11.1203653 L6.90435518,11.5937705 C6.90435518,11.5937705 6.90435518,11.6479818 6.9684494,11.6479818 C7.03275979,11.6479818 6.99159493,11.733904 7.04922495,11.927522 C7.10685499,12.1211399 7.23988018,12.3929267 7.23988018,12.3929267 C7.26715885,12.4512893 7.24138935,12.5200832 7.18111679,12.545178 L6.16962166,12.96632 C5.99210796,13.0404761 5.97875944,13.5454821 6.01842321,13.5952098 Z M11,12.0084229 L11,12.2415771 C11,12.5322666 11.2198305,12.75 11.4910052,12.75 L16.5089948,12.75 C16.7721195,12.75 17,12.5223713 17,12.2415771 L17,12.0084229 C17,11.7177334 16.7801695,11.5 16.5089948,11.5 L11.4910052,11.5 C11.2278805,11.5 11,11.7276287 11,12.0084229 Z M6.01842321,18.5952098 C6.50205197,18.7230075 6.91972179,18.8163641 7.37037108,18.8163641 L8.40941897,18.8163641 C8.83119497,18.8163641 9.25155691,18.6970331 9.67474697,18.5952098 C9.71979929,18.5497699 9.67644802,18.0482158 9.38909073,17.9681038 L8.36133326,17.5433942 C8.30275241,17.5191863 8.27382582,17.4508362 8.2961929,17.3905107 C8.2961929,17.3905107 8.42507786,17.0441334 8.46483584,16.927522 C8.50459381,16.8109105 8.48930985,16.6479818 8.54076575,16.6479818 C8.59222167,16.6479818 8.59222167,16.5937705 8.59222167,16.5937705 L8.68079194,16.1203653 C8.68079194,16.1203653 8.6977086,15.9998959 8.62933601,15.9998959 C8.62933601,15.9998959 8.58884387,15.7569446 8.58884387,15.596347 C8.59546393,15.385502 8.48306397,15.2578426 8.32486469,15.1509031 C8.16666539,15.0439637 7.93687645,15 7.7615285,15 C7.58618055,15 7.34076061,15.0356992 7.1818379,15.1509031 C7.02291519,15.2661071 6.91328186,15.3824903 6.91328186,15.596347 C6.91328186,15.596347 6.89599244,15.9376196 6.87466486,15.9998959 C6.77386874,15.9998959 6.81057065,16.1203653 6.81057065,16.1203653 L6.90435518,16.5937705 C6.90435518,16.5937705 6.90435518,16.6479818 6.9684494,16.6479818 C7.03275979,16.6479818 6.99159493,16.733904 7.04922495,16.927522 C7.10685499,17.1211399 7.23988018,17.3929267 7.23988018,17.3929267 C7.26715885,17.4512893 7.24138935,17.5200832 7.18111679,17.545178 L6.16962166,17.96632 C5.99210796,18.0404761 5.97875944,18.5454821 6.01842321,18.5952098 Z M11,17.0084229 L11,17.2415771 C11,17.5322666 11.2198305,17.75 11.4910052,17.75 L16.5089948,17.75 C16.7721195,17.75 17,17.5223713 17,17.2415771 L17,17.0084229 C17,16.7177334 16.7801695,16.5 16.5089948,16.5 L11.4910052,16.5 C11.2278805,16.5 11,16.7276287 11,17.0084229 Z" id="class-roster"></path>
        </g>
    </g>
</svg>