<?xml version="1.0" encoding="UTF-8" standalone="no"?>
<svg width="24px" height="24px" viewBox="0 0 24 24" version="1.1" xmlns="http://www.w3.org/2000/svg" xmlns:xlink="http://www.w3.org/1999/xlink">
    <!-- Generator: Sketch 44.1 (41455) - http://www.bohemiancoding.com/sketch -->
    <title>save</title>
    <desc>Created with Sketch.</desc>
    <defs></defs>
    <g id="PDS" stroke="none" stroke-width="1" fill="none" fill-rule="evenodd">
        <g id="save" fill="#000000">
            <path d="M20.02,22 L3.97875,22 C2.88625,22 2,21.11375 2,20.02 L2,3.97875 C2,2.88625 2.88625,2 3.97875,2 L16.18,2 C16.705,2 17.20875,2.20875 17.58,2.58 L21.42,6.42 C21.79125,6.79125 22,7.295 22,7.82 L22,20.02 C22,21.11375 21.11375,22 20.02,22 Z M4.5,13.0037363 L4.5,19.7462637 C4.5,20.3040567 4.95106594,20.75 5.50748397,20.75 L18.492516,20.75 C19.0510798,20.75 19.5,20.300612 19.5,19.7462637 L19.5,13.0037363 C19.5,12.4459433 19.0489341,12 18.492516,12 L5.50748397,12 C4.94892021,12 4.5,12.449388 4.5,13.0037363 Z M4.5,2 L4.5,6.00019251 C4.5,6.55628335 4.94565467,7 5.49539757,7 L13.5046024,7 C14.0443356,7 14.5,6.55237094 14.5,6.00019251 L14.5,2 L4.5,2 Z M10.75,2 L13.25,2 L13.25,5.25975299 C13.25,5.53050894 13.0192871,5.75 12.7440877,5.75 L11.2559123,5.75 C10.9765047,5.75 10.75,5.52665067 10.75,5.25975299 L10.75,2 Z M5.75,13.7584229 C5.75,13.4776287 5.96696091,13.25 6.25549656,13.25 L17.7445034,13.25 C18.0236815,13.25 18.25,13.4677334 18.25,13.7584229 L18.25,13.9915771 C18.25,14.2723713 18.0330391,14.5 17.7445034,14.5 L6.25549656,14.5 C5.97631852,14.5 5.75,14.2822666 5.75,13.9915771 L5.75,13.7584229 Z M5.75,16.2584229 C5.75,15.9776287 5.96696091,15.75 6.25549656,15.75 L17.7445034,15.75 C18.0236815,15.75 18.25,15.9677334 18.25,16.2584229 L18.25,16.4915771 C18.25,16.7723713 18.0330391,17 17.7445034,17 L6.25549656,17 C5.97631852,17 5.75,16.7822666 5.75,16.4915771 L5.75,16.2584229 Z M5.75,18.7584229 C5.75,18.4776287 5.96696091,18.25 6.25549656,18.25 L17.7445034,18.25 C18.0236815,18.25 18.25,18.4677334 18.25,18.7584229 L18.25,18.9915771 C18.25,19.2723713 18.0330391,19.5 17.7445034,19.5 L6.25549656,19.5 C5.97631852,19.5 5.75,19.2822666 5.75,18.9915771 L5.75,18.7584229 Z" id="Combined-Shape"></path>
        </g>
    </g>
</svg>