<?xml version="1.0" encoding="UTF-8" standalone="no"?>
<svg width="24px" height="24px" viewBox="0 0 24 24" version="1.1" xmlns="http://www.w3.org/2000/svg" xmlns:xlink="http://www.w3.org/1999/xlink">
    <!-- Generator: Sketch 44.1 (41455) - http://www.bohemiancoding.com/sketch -->
    <title>search</title>
    <desc>Created with Sketch.</desc>
    <defs></defs>
    <g id="PDS" stroke="none" stroke-width="1" fill="none" fill-rule="evenodd">
        <g id="search" fill="#000000">
            <path d="M15.7992484,13.671476 L21.5540776,19.4263052 C22.1445351,20.0167627 22.1509738,20.9676448 21.5593093,21.5593093 C20.9717412,22.1468774 20.0172922,22.1450646 19.4263052,21.5540776 L13.671476,15.7992484 C12.4822203,16.5869165 11.0560841,17.0456225 9.52281127,17.0456225 C5.36807733,17.0456225 2,13.6775452 2,9.52281127 C2,5.36807733 5.36807733,2 9.52281127,2 C13.6775452,2 17.0456225,5.36807733 17.0456225,9.52281127 C17.0456225,11.0560841 16.5869165,12.4822203 15.7992484,13.671476 Z M9.52281127,15.0395395 C12.5696162,15.0395395 15.0395395,12.5696162 15.0395395,9.52281127 C15.0395395,6.47600638 12.5696162,4.006083 9.52281127,4.006083 C6.47600638,4.006083 4.006083,6.47600638 4.006083,9.52281127 C4.006083,12.5696162 6.47600638,15.0395395 9.52281127,15.0395395 Z" id="Search"></path>
        </g>
    </g>
</svg>