<?xml version="1.0" encoding="UTF-8"?>
<svg width="32px" height="40px" viewBox="0 0 32 40" version="1.1" xmlns="http://www.w3.org/2000/svg" xmlns:xlink="http://www.w3.org/1999/xlink">
    <!-- Generator: Sketch 42 (36781) - http://www.bohemiancoding.com/sketch -->
    <title>Combined Shape</title>
    <desc>Created with Sketch.</desc>
    <defs></defs>
    <g id="Page-1" stroke="none" stroke-width="1" fill="none" fill-rule="evenodd">
        <path d="M9.57644818,40 C9.52611474,39.6740301 9.5,39.3400648 9.5,39 C9.5,35.4101491 12.4101491,32.5 16,32.5 C19.5898509,32.5 22.5,35.4101491 22.5,39 C22.5,39.3400648 22.4738853,39.6740301 22.4235518,40 L9.57644818,40 Z M5.26630719,33.3170699 C4.91130309,33.9861966 4.61703602,34.69248 4.3908546,35.4285714 L2.5013613,35.4285714 C1.67794323,35.4285714 1,36.0989699 1,36.9259484 L1,38.6341022 C0.377873493,37.9338268 0,37.0131532 0,36 L0,4 C0,1.792 1.792,0 4,0 L28,0 C30.208,0 32,1.792 32,4 L32,36 C32,37.012613 31.6220327,37.932845 31,38.6329818 L31,36.9259484 C31,36.1005541 30.3278176,35.4285714 29.4986387,35.4285714 L27.6091454,35.4285714 C27.382964,34.69248 27.0886969,33.9861966 26.7336928,33.3170699 L28.0703603,31.9804024 C28.6526048,31.3981579 28.6579398,30.4447363 28.0731777,29.8599743 L25.1400257,26.9268223 C24.5563839,26.3431804 23.6059157,26.3433216 23.0195976,26.9296397 L21.6829301,28.2663072 C21.0138034,27.9113031 20.30752,27.617036 19.5714286,27.3908546 L19.5714286,25.5013613 C19.5714286,24.6779432 18.9010301,24 18.0740516,24 L13.9259484,24 C13.1005541,24 12.4285714,24.6721824 12.4285714,25.5013613 L12.4285714,27.3908546 C11.69248,27.617036 10.9861966,27.9113031 10.3170699,28.2663072 L8.9804024,26.9296397 C8.3981579,26.3473952 7.44473633,26.3420602 6.85997427,26.9268223 L3.9268223,29.8599743 C3.34318042,30.4436161 3.34332162,31.3940843 3.92963968,31.9804024 L5.26630719,33.3170699 Z" id="Combined-Shape" fill="#000000" fill-rule="nonzero"></path>
    </g>
</svg>