<?xml version="1.0" encoding="UTF-8"?>
<svg width="26px" height="26px" viewBox="0 0 26 26" version="1.1" xmlns="http://www.w3.org/2000/svg" xmlns:xlink="http://www.w3.org/1999/xlink">
    <!-- Generator: Sketch 42 (36781) - http://www.bohemiancoding.com/sketch -->
    <title>Settings Gear Outline</title>
    <desc>An outlined gear</desc>
    <defs></defs>
    <g id="Page-1" stroke="none" stroke-width="1" fill="none" fill-rule="evenodd">
        <g id="settings-s" fill-rule="nonzero" fill="#000000">
            <path d="M14.56,1 L14.56,3.57 L15.34,3.77 C16.220064,3.99625584 17.0623091,4.34999879 17.84,4.82 L18.54,5.24 L20.35,3.43 L22.56,5.64 L20.72,7.49 L21.12,8.18 C21.5701725,8.95106164 21.9069623,9.78293236 22.12,10.65 L22.31,11.45 L25,11.45 L25,14.57 L22.23,14.57 L22.02,15.33 C21.7966855,16.1557188 21.4601592,16.9465556 21.02,17.68 L20.6,18.38 L22.6,20.38 L20.39,22.59 L18.39,20.59 L17.7,20.99 C16.9757487,21.4057335 16.198749,21.7219152 15.39,21.93 L14.61,22.13 L14.61,25 L11.44,25 L11.44,22.08 L10.66,21.88 C9.85125097,21.6719152 9.07425129,21.3557335 8.35,20.94 L7.66,20.54 L5.66,22.54 L3.44,20.35 L5.44,18.35 L5,17.67 C4.56006948,16.936439 4.22355705,16.1456348 4,15.32 L3.79,14.56 L1,14.56 L1,11.44 L3.72,11.44 L3.91,10.64 C4.12277198,9.77284644 4.45957681,8.9409385 4.91,8.17 L5.31,7.48 L3.44,5.64 L5.65,3.44 L7.46,5.25 L8.16,4.83 C8.9374947,4.35961321 9.77979808,4.00584579 10.66,3.78 L11.44,3.58 L11.44,1 L14.56,1 Z M15.56,0 L10.4,0 L10.4,2.77 C9.42117346,3.02215979 8.4845639,3.41634439 7.62,3.94 L5.62,1.94 L2,5.65 L4,7.65 C3.50288885,8.50894682 3.13240008,9.43516875 2.9,10.4 L0,10.4 L0,15.6 L3,15.6 C3.25452535,16.5179397 3.63479536,17.3962625 4.13,18.21 L2,20.35 L5.65,24 L7.84,21.81 C8.64812317,22.2566971 9.51249018,22.5930266 10.41,22.81 L10.41,26 L15.61,26 L15.61,22.89 C16.5075098,22.6730266 17.3718768,22.3366971 18.18,21.89 L20.35,24 L24,20.35 L21.86,18.21 C22.3586872,17.3968097 22.7423328,16.5184634 23,15.6 L26,15.6 L26,10.4 L23.1,10.4 C22.8665565,9.43866467 22.4960993,8.51588954 22,7.66 L24,5.66 L20.35,2 L18.35,4 C17.4982272,3.45807471 16.5717488,3.04368622 15.6,2.77 L15.6,0 L15.56,0 Z M13,9 C15.209139,9 17,10.790861 17,13 C17,15.209139 15.209139,17 13,17 C10.790861,17 9,15.209139 9,13 C9,10.790861 10.790861,9 13,9 L13,9 Z M13,8 C10.2385763,8 8,10.2385763 8,13 C8,15.7614237 10.2385763,18 13,18 C15.7614237,18 18,15.7614237 18,13 C18,10.2385763 15.7614237,8 13,8 L13,8 Z" id="path-18"></path>
        </g>
    </g>
</svg>
