<?xml version="1.0" encoding="UTF-8"?>
<svg width="27px" height="26px" viewBox="0 0 27 26" version="1.1" xmlns="http://www.w3.org/2000/svg" xmlns:xlink="http://www.w3.org/1999/xlink">
    <!-- Generator: Sketch 42 (36781) - http://www.bohemiancoding.com/sketch -->
    <title>Settings Gear</title>
    <desc>A filled in gear</desc>
    <defs></defs>
    <g id="Page-1" stroke="none" stroke-width="1" fill="none" fill-rule="evenodd">
        <g id="settings-f" fill-rule="nonzero" fill="#000000">
            <path d="M26.98,15.6 L26.98,10.4 L24.08,10.4 C23.8528471,9.43973037 23.4891443,8.51700294 23,7.66 L25,5.66 L21.33,2 L19.33,4 C18.4654361,3.47634439 17.5288265,3.08215979 16.55,2.83 L16.55,0 L11.35,0 L11.35,2.77 C10.3815581,3.02490638 9.45523708,3.41901386 8.6,3.94 L6.6,1.94 L2.95,5.64 L4.95,7.64 C4.46242982,8.50374185 4.10204957,9.43332081 3.88,10.4 L0.98,10.4 L0.98,15.6 L3.98,15.6 C4.23488768,16.5178117 4.61513665,17.3960858 5.11,18.21 L2.95,20.35 L6.62,24 L8.8,21.84 C9.60812317,22.2866971 10.4724902,22.6230266 11.37,22.84 L11.37,26 L16.57,26 L16.57,22.89 C17.4675098,22.6730266 18.3318768,22.3366971 19.14,21.89 L21.33,24 L25.01,20.32 L22.87,18.18 C23.3652046,17.3662625 23.7454747,16.4879397 24,15.57 L27,15.57 L26.98,15.6 Z M18.05,13.1 C18.05,15.309139 16.259139,17.1 14.05,17.1 C11.840861,17.1 10.05,15.309139 10.05,13.1 C10.05,10.890861 11.840861,9.1 14.05,9.1 C16.259139,9.1 18.05,10.890861 18.05,13.1 Z" id="path-17"></path>
        </g>
    </g>
</svg>
