<?xml version="1.0" encoding="UTF-8" standalone="no"?>
<svg width="24px" height="24px" viewBox="0 0 24 24" version="1.1" xmlns="http://www.w3.org/2000/svg" xmlns:xlink="http://www.w3.org/1999/xlink">
    <!-- Generator: Sketch 44.1 (41455) - http://www.bohemiancoding.com/sketch -->
    <title>shop</title>
    <desc>Created with Sketch.</desc>
    <defs></defs>
    <g id="PDS-Current" stroke="none" stroke-width="1" fill="none" fill-rule="evenodd">
        <g id="shop" fill="#000000">
            <path d="M15.4328073,9 L20.5,9 C21.3284271,9 22,9.67157288 22,10.5 C22,11.1918194 21.5316506,11.7742499 20.8947196,11.9475237 L20.0988409,19.1104315 L20.0988409,19.1104315 C20.0425706,19.6168642 19.6145064,20 19.1049572,20 L4.89504279,20 C4.38549358,20 3.95742936,19.6168642 3.90115906,19.1104315 L3.10528041,11.9475237 C2.46834945,11.7742499 2,11.1918194 2,10.5 C2,9.67157288 2.67157288,9 3.5,9 L3.5,9 L10.083435,9 C10.103108,9.54848221 10.322293,10.09114 10.7409899,10.5098369 C11.6196695,11.3885165 13.0442907,11.3885165 13.9229704,10.5098369 L15.4328073,9 Z M7.40000001,13 C7.1790861,13 7,13.1790861 7,13.4 L7,17.6 C7,17.8209139 7.1790861,18 7.40000001,18 L7.80000004,18 C8.02091394,18 8.20000005,17.8209139 8.20000005,17.6 L8.20000005,13.4 C8.20000005,13.1790861 8.02091394,13 7.80000004,13 L7.40000001,13 Z M10.4,13 C10.1790861,13 10,13.1790861 10,13.4 L10,17.6 C10,17.8209139 10.1790861,18 10.4,18 L10.8,18 C11.0209139,18 11.2,17.8209139 11.2,17.6 L11.2,13.4 C11.2,13.1790861 11.0209139,13 10.8,13 L10.4,13 Z M13.4,13 C13.1790861,13 13,13.1790861 13,13.4 L13,17.6 C13,17.8209139 13.1790861,18 13.4,18 L13.8,18 C14.0209139,18 14.2,17.8209139 14.2,17.6 L14.2,13.4 C14.2,13.1790861 14.0209139,13 13.8,13 L13.4,13 Z M16.4,13 C16.1790861,13 16,13.1790861 16,13.4 L16,17.6 C16,17.8209139 16.1790861,18 16.4,18 L16.8,18 C17.0209139,18 17.2,17.8209139 17.2,17.6 L17.2,13.4 C17.2,13.1790861 17.0209139,13 16.8,13 L16.4,13 Z M17.2579795,4.14587584 L17.2579795,4.14587584 C17.6485038,4.53640013 17.6485038,5.16956511 17.2579795,5.56008941 L13.0153388,9.80273009 C12.6248145,10.1932544 11.9916495,10.1932544 11.6011252,9.80273009 C11.2106009,9.4122058 11.2106009,8.77904082 11.6011252,8.38851653 L15.8437659,4.14587584 L15.8437659,4.14587584 C16.2342902,3.75535155 16.8674552,3.75535155 17.2579795,4.14587584 L17.2579795,4.14587584 Z" id="Combined-Shape"></path>
        </g>
    </g>
</svg>