<?xml version="1.0" encoding="UTF-8" standalone="no"?>
<svg width="24px" height="24px" viewBox="0 0 24 24" version="1.1" xmlns="http://www.w3.org/2000/svg" xmlns:xlink="http://www.w3.org/1999/xlink">
    <!-- Generator: Sketch 44.1 (41455) - http://www.bohemiancoding.com/sketch -->
    <title>stop</title>
    <desc>Created with Sketch.</desc>
    <defs></defs>
    <g id="PDS" stroke="none" stroke-width="1" fill="none" fill-rule="evenodd">
        <g id="stop" fill="#000000">
            <path d="M2,6.99525338 C2,4.23645112 4.23603796,2 6.99525338,2 L17.0047466,2 C19.7635489,2 22,4.23603796 22,6.99525338 L22,17.0047466 C22,19.7635489 19.763962,22 17.0047466,22 L6.99525338,22 C4.23645112,22 2,19.763962 2,17.0047466 L2,6.99525338 Z M7.5,8.49754465 L7.5,15.5024554 C7.5,16.0536886 7.94661595,16.5 8.49754465,16.5 L15.5024554,16.5 C16.0536886,16.5 16.5,16.053384 16.5,15.5024554 L16.5,8.49754465 C16.5,7.9463114 16.053384,7.5 15.5024554,7.5 L8.49754465,7.5 C7.9463114,7.5 7.5,7.94661595 7.5,8.49754465 Z" id="Combined-Shape"></path>
        </g>
    </g>
</svg>