<?xml version="1.0" encoding="UTF-8" standalone="no"?>
<svg width="17px" height="21px" viewBox="0 0 17 21" version="1.1" xmlns="http://www.w3.org/2000/svg" xmlns:xlink="http://www.w3.org/1999/xlink">
    <!-- Generator: Sketch 42 (36781) - http://www.bohemiancoding.com/sketch -->
    <title>students</title>
    <desc>Created with Sketch.</desc>
    <defs></defs>
    <g id="Page-1" stroke="none" stroke-width="1" fill="none" fill-rule="evenodd">
        <g id="UI-Chrome/Main-Nav" transform="translate(-19.000000, -78.000000)" fill="#000000">
            <path d="M31.5384466,86.6318196 C32.2727363,85.5630675 32.71291,84.2446567 32.71291,82.8125714 C32.71291,80.8939171 31.9276002,79.1749898 30.6921127,78 L33.0036322,78 C34.1080679,78 35.0044216,78.9508281 35.0044216,80.1247556 L35.0044216,93.0623921 L33.7313118,88.997735 C33.4111855,87.8514293 32.5668524,86.9770924 31.5384466,86.6318196 Z M20.1164405,88.8861853 L19,92.0924415 L19,80.1247556 C19,78.9508281 19.8953532,78 21.0007893,78 L23.1206257,78 C21.8861386,79.1749898 21.1008288,80.8949795 21.1008288,82.8125714 C21.1008288,84.2425319 21.5400021,85.5609428 22.272291,86.6286325 C21.2478868,86.9664686 20.4115569,87.8206204 20.1164405,88.8861853 Z M26.8392866,78 C29.4076467,78 31.4887582,80.1545022 31.4887582,82.8125714 C31.4887582,85.4717031 29.4076467,87.6262052 26.8392866,87.6262052 C24.2698696,87.6262052 22.188758,85.4717031 22.188758,82.8125714 C22.188758,80.1545022 24.2698696,78 26.8392866,78 Z M19.0090036,96.3100869 L19.0190075,96.23997 C19.0300118,96.1539174 19.0460182,96.0710519 19.0690272,95.9924359 L21.5249962,88.9403721 C21.745083,88.1457135 22.4633664,87.5624681 23.2276679,87.5624681 C23.3247062,87.559281 24.9073305,88.1690858 27.0031574,88.1690858 C29.0969834,88.1690858 30.6806082,87.559281 30.7666421,87.5614057 C31.5429484,87.5624681 32.2602314,88.1457135 32.4843198,88.9520583 L34.9342864,95.9818122 C34.9592962,96.0721143 34.9753025,96.1549797 34.9873073,96.2389076 L34.9973112,96.3143364 C34.9973112,96.3143364 35.0063148,96.4450089 35.0063148,96.4768802 L35.0003124,96.6415488 L34.9833057,96.7902817 L34.9632978,96.8975818 C34.776224,97.6943652 34.1759872,97.5541313 33.4306932,97.6518701 C33.4306932,97.6518701 30.4095012,98.2255541 29.7132266,98.2255541 C29.0179523,98.2255541 29.0509653,98.6090725 28.0385659,98.6101348 C27.2552568,98.6111972 26.7190453,97.7793554 26.7190453,97.1132445 C26.7190453,96.4513831 26.9481357,95.8893853 27.3893097,95.6291027 C27.9235205,95.3125141 28.3917052,95.2158378 29.7012218,95.7523386 C30.2374334,95.9722508 32.0101327,95.3433231 32.7084082,94.9343077 C32.9194915,94.8089471 32.9014844,94.4721733 32.6763956,94.3776217 L31.9090929,94.0535965 L31.1678004,90.6858588 C31.1247834,90.4234515 30.915701,90.2460344 30.6465948,90.2460344 C30.3494776,90.2460344 30.1213876,90.4489486 30.117386,90.7177302 L30.5175439,93.9717934 C30.563562,94.3404385 30.3014586,94.6665884 29.9613244,94.6665884 C29.9613244,94.6665884 28.4907443,94.3712474 27.0031574,94.3712474 C25.5155705,94.3712474 24.0439899,94.6665884 24.0439899,94.6665884 C23.7038558,94.6665884 23.4437531,94.3404385 23.4887709,93.9717934 L23.8879284,90.7177302 C23.8839268,90.4489486 23.6568372,90.2460344 23.35972,90.2460344 C23.0896134,90.2460344 22.8805309,90.4234515 22.8385144,90.6858588 L22.0972219,94.0535965 L21.2999074,94.3893078 C21.0808209,94.4827971 21.0568114,94.8100095 21.2598916,94.9406819 C21.8231138,95.3029527 23.3076995,95.8235179 23.8669201,95.7523386 C24.7672753,95.6376018 25.2964841,95.4601847 25.2964841,95.4601847 C25.5505843,95.3751944 25.9237315,95.4304381 26.1078042,95.5101164 C25.8497023,95.9499408 25.7016439,96.448196 25.6806356,96.9687611 C25.6546254,97.5891898 25.800683,98.1989946 26.0978002,98.7227469 C25.9417386,98.8895402 24.9333408,98.2255541 24.1660381,98.2255541 C23.3997358,98.2255541 20.5726204,97.6518701 20.5726204,97.6518701 C19.8013161,97.5466947 19.2200868,97.6890533 19.0490193,96.9241413 C19.0340134,96.861461 19.0290114,96.8285273 19.0240095,96.7955936 L19.0060024,96.6447359 L19,96.4768802 C19,96.4450089 19.0090036,96.3100869 19.0090036,96.3100869 Z" id="students"></path>
        </g>
    </g>
</svg>
