<?xml version="1.0" encoding="UTF-8" standalone="no"?>
<svg width="24px" height="24px" viewBox="0 0 24 24" version="1.1" xmlns="http://www.w3.org/2000/svg" xmlns:xlink="http://www.w3.org/1999/xlink">
    <!-- Generator: Sketch 44.1 (41455) - http://www.bohemiancoding.com/sketch -->
    <title>subscribe</title>
    <desc>Created with Sketch.</desc>
    <defs></defs>
    <g id="PDS" stroke="none" stroke-width="1" fill="none" fill-rule="evenodd">
        <g id="subscribe" fill-rule="nonzero" fill="#000000">
            <path d="M11.9999999,22 C6.47715249,22 2,17.5228475 2,11.9999999 C2,6.47715249 6.47715249,2 11.9999999,2 C17.5228475,2 22,6.47715249 22,11.9999999 C22,17.5228475 17.5228475,22 11.9999999,22 Z M15.0372635,9.50874706 C16.8658667,11.3395877 17.4999954,13.4014873 17.0476996,15.731397 C17.0476996,15.731397 16.9180795,16.5823976 17.5962012,16.6656486 C18.2743228,16.7488996 18.4286815,15.9131216 18.4286815,15.9131216 C18.9355034,13.1854968 18.1575128,10.6047458 16.0500585,8.49471284 C13.8866638,6.32867106 11.0605999,5.55416137 8.27536746,6.14639564 C8.27536746,6.14639564 7.47157703,6.29574001 7.60050991,7.04934209 C7.72944279,7.80294417 8.4038279,7.61674747 8.4038279,7.61674747 C10.8112821,6.99743433 13.1523255,7.62150271 15.0372635,9.50874706 Z M12.7680558,12.3069391 C13.7670058,13.4204522 13.9960915,14.9936831 13.9959811,15.5753221 C13.9958707,16.1569611 13.8689104,16.7367506 14.5267432,16.8043501 C15.1845758,16.8719495 15.2876565,15.9323162 15.3024207,15.5750732 C15.3557429,14.2848568 15.1425566,12.7297271 13.8699402,11.3111626 C12.3807378,9.65117332 10.467875,9.04992726 8.4356679,9.47909808 C8.4356679,9.47909808 7.45008455,9.75562794 7.67030146,10.4846759 C7.89051836,11.2137239 8.68366228,10.9416921 8.68366228,10.9416921 C10.317592,10.4418942 11.5499965,10.9491886 12.7680558,12.3069391 Z M9.03014695,17.4749242 C10.2688818,17.4749242 11.2730748,16.4707313 11.2730748,15.2319964 C11.2730748,13.9932616 10.2688818,12.9890686 9.03014695,12.9890686 C7.79141212,12.9890686 6.78721912,13.9932616 6.78721912,15.2319964 C6.78721912,16.4707313 7.79141212,17.4749242 9.03014695,17.4749242 Z" id="Combined-Shape"></path>
        </g>
    </g>
</svg>