<?xml version="1.0" encoding="UTF-8" standalone="no"?>
<svg width="24px" height="24px" viewBox="0 0 24 24" version="1.1" xmlns="http://www.w3.org/2000/svg" xmlns:xlink="http://www.w3.org/1999/xlink">
    <!-- Generator: Sketch 44.1 (41455) - http://www.bohemiancoding.com/sketch -->
    <title>sync</title>
    <desc>Created with Sketch.</desc>
    <defs></defs>
    <g id="PDS" stroke="none" stroke-width="1" fill="none" fill-rule="evenodd">
        <g id="sync" fill="#000000">
            <path d="M16.8906587,17.8795551 C18.3544584,16.5347042 19.271899,14.604492 19.271899,12.46 C19.271899,8.39641156 15.9777097,5.10222223 11.9141212,5.10222223 C11.837895,5.10222223 11.7619395,5.10338138 11.6862715,5.105683 L11.6860272,5.10207336 C11.1137585,5.09253284 10.6527881,4.62565469 10.6527881,4.05111112 C10.6527881,3.52474936 11.0396855,3.08875233 11.5446085,3.0119918 L11.5442773,3.00709694 C11.5626019,3.00639248 11.5809399,3.00574014 11.599291,3.00514007 C11.6336998,3.0017404 11.6685963,3 11.7038992,3 C11.7215035,3 11.7390067,3.00043278 11.7563988,3.00128827 C11.8088701,3.00043053 11.8614454,3 11.9141212,3 C17.1387349,3 21.3741212,7.23538628 21.3741212,12.46 C21.3741212,15.0369543 20.3437397,17.37325 18.6724945,19.0793694 L21.0313169,18.8729992 C21.5214545,18.8301177 21.9531102,19.1876436 21.996112,19.6791565 C22.0388161,20.1672663 21.6815025,20.5972472 21.1859621,20.6406013 L16.3804294,21.061031 C16.2178258,21.0752569 16.0616586,21.0454146 15.9239831,20.9812315 C15.5190547,20.9094304 15.2089174,20.5626073 15.193984,20.1349721 L15.0256327,15.3140217 C15.0082725,14.8168914 15.3915028,14.4098397 15.8811786,14.3927398 C16.3742684,14.3755207 16.781735,14.7603875 16.7989059,15.2520976 L16.8906587,17.8795551 Z M7.11323432,6.88413942 C5.54754802,8.23343606 4.55634338,10.2309639 4.55634338,12.46 C4.55634338,16.5235885 7.85053272,19.8177778 11.9141212,19.8177778 C12.0252128,19.8177778 12.1357294,19.8153158 12.2456193,19.8104434 L12.2456667,19.8109728 C12.2749741,19.8085184 12.3046235,19.8072665 12.3345652,19.8072665 C12.9150779,19.8072665 13.3856764,20.277865 13.3856764,20.8583776 C13.3856764,21.4057008 12.9673503,21.8553187 12.4329883,21.9049414 L12.4330836,21.9060067 C12.261275,21.9152956 12.0882475,21.9200001 11.9141212,21.9200001 C6.68950744,21.9200001 2.45412115,17.6846138 2.45412115,12.46 C2.45412115,9.7824674 3.56650377,7.36474565 5.35433935,5.64376442 L2.96825514,5.85251974 C2.47811761,5.89540122 2.04646187,5.53787532 2.00346007,5.04636246 C1.96075599,4.55825262 2.31806957,4.12827179 2.81361,4.08491762 L7.61914269,3.66448799 C7.77297868,3.65102908 7.92105364,3.67701428 8.05315909,3.73420622 C8.49585185,3.77951014 8.84012229,4.14932358 8.84807482,4.60492353 L8.93226329,9.42807789 C8.9409447,9.92543543 8.55066879,10.3257369 8.06076907,10.3342881 C7.56745386,10.3428989 7.16676621,9.95097947 7.15817946,9.45904463 L7.11323432,6.88413942 Z" id="Combined-Shape"></path>
        </g>
    </g>
</svg>