<?xml version="1.0" encoding="UTF-8" standalone="no"?>
<svg width="24px" height="24px" viewBox="0 0 24 24" version="1.1" xmlns="http://www.w3.org/2000/svg" xmlns:xlink="http://www.w3.org/1999/xlink">
    <!-- Generator: Sketch 44.1 (41455) - http://www.bohemiancoding.com/sketch -->
    <title>tools</title>
    <desc>Created with Sketch.</desc>
    <defs></defs>
    <g id="PDS" stroke="none" stroke-width="1" fill="none" fill-rule="evenodd">
        <g id="tools" fill="#000000">
            <path d="M14.0827409,10.4992436 C13.3206273,9.70565773 12.5936802,9.00820161 12.1639041,8.87163218 C12.4605897,8.58652857 12.7572541,8.30139068 13.0538864,8.01620457 C13.2738299,7.80590775 13.494738,7.59561093 13.7127522,7.38434945 C14.2462115,6.86536004 14.2462115,6.86439538 13.6568016,6.3637346 C12.828155,5.65856498 11.8470914,5.25726463 10.8235825,4.93603141 C10.4608687,4.82220102 10.1049076,4.68811268 9.74894648,4.55402434 C9.5646956,4.48360385 9.40649065,4.37652611 9.40359665,4.14790067 C9.40070266,3.89612328 9.55987227,3.77746957 9.77595708,3.70704907 C13.1214129,2.61504907 15.6893493,2.49543069 18.9875366,5.4878194 C19.2402787,5.71740951 19.4621515,5.98365686 19.7226108,6.20456499 C20.0602434,6.49107029 20.2724695,6.83063213 20.2801868,7.27823637 C20.2859748,7.67664273 20.4596144,7.87825758 20.8792434,7.83388302 C21.4252434,7.77600316 21.7291126,8.11267101 21.9316921,8.54484062 C22.1323423,8.97025758 21.8535543,9.26351554 21.578625,9.54037419 C21.041307,10.0786569 20.501095,10.6150102 19.9647416,11.1542576 C19.7583034,11.3626251 19.529678,11.5227594 19.2586073,11.5333707 C18.8052151,11.52083 18.2466744,11.0220986 18.2592151,10.5590597 C18.2746497,9.96772049 18.035413,9.80083356 17.4816956,9.82784416 C16.9549889,9.8538901 16.7061055,9.37927525 16.4138122,9.05321871 C16.0462751,8.64516571 15.8321197,8.64709504 15.4414306,9.06190069 C14.9891577,9.54159743 14.5362159,10.0206699 14.0827409,10.4992436 Z M8.81627154,16.0251932 C8.0333557,16.8442313 7.2504102,17.6632256 6.46812314,18.4828124 C6.14013727,18.8262329 5.82276271,19.1802647 5.49091819,19.5207912 C4.76549062,20.2626181 3.82590758,20.3185686 3.16607718,19.6635615 C2.52554008,19.0297771 2.56219732,18.1094873 3.30691817,17.3908124 C4.54913621,16.191455 5.79291098,14.9939373 7.0374294,13.7972295 C7.15281114,14.2686399 7.95202699,15.1388591 8.81627154,16.0251932 Z M11.9674683,10.4968945 C12.5095269,10.3277286 12.9451746,11.2945209 12.8987904,11.6119344 C12.8533157,11.9302574 12.7332625,12.0866904 12.6896067,12.3886425 C12.6468605,12.6915041 13.4053787,13.4882211 13.7418916,13.4409274 C14.0793139,13.3927242 14.1156937,13.259938 14.4995003,13.1380658 C14.8842163,13.015284 19.7418251,18.0438777 19.7418251,18.0438777 C20.1201747,18.3985805 20.0337727,19.0925246 19.5471933,19.5863799 L19.2643406,19.8692326 L19.2652501,19.8701421 L18.6549795,20.4804128 L18.0456183,21.0897739 L18.0447088,21.0888644 L17.7618561,21.3717171 C17.2680007,21.8582965 16.5740566,21.9446985 16.2193539,21.5663489 C16.2193539,21.5663489 11.1907602,16.7087402 11.313542,16.3240241 C11.4354142,15.9402175 11.5682003,15.9038378 11.6164035,15.5664154 C11.6636972,15.2299025 10.8660708,14.4722938 10.5641187,14.5141306 C10.2621666,14.5577863 10.1048241,14.678749 9.78741062,14.7233142 C9.47090662,14.7687889 8.50320475,14.3340507 8.67237068,13.7919921 C8.71966438,13.6410161 9.17713998,13.1235139 9.73647894,12.5405281 C9.24262357,12.0303018 5.43639017,8.10037718 5.07350197,7.87937008 C4.68423844,7.64108259 4.19129256,8.13402846 3.6328631,7.9539486 C3.07352414,7.77477824 1.86116832,5.57653066 2.01305386,5.19727156 C2.16312041,4.82165044 2.99621713,3.98855372 3.37274775,3.83757768 C3.75200684,3.68569214 5.95025442,4.89804796 6.12942479,5.45738692 C6.30950465,6.01581638 5.81655877,6.50876226 6.05484626,6.89802579 C6.27585336,7.26091399 10.2048685,11.0680569 10.7160042,11.5610028 C11.2980805,11.0025733 11.8164923,10.5441882 11.9674683,10.4968945 Z" id="Tools"></path>
        </g>
    </g>
</svg>