<?xml version="1.0" encoding="UTF-8"?>
<svg width="20px" height="26px" viewBox="0 0 20 26" version="1.1" xmlns="http://www.w3.org/2000/svg" xmlns:xlink="http://www.w3.org/1999/xlink">
    <!-- Generator: Sketch 42 (36781) - http://www.bohemiancoding.com/sketch -->
    <title>Trash Outline</title>
    <desc>An outline of a trash can</desc>
    <defs></defs>
    <g id="Page-1" stroke="none" stroke-width="1" fill="none" fill-rule="evenodd">
        <g id="trash-s" transform="translate(-1.000000, -1.000000)" fill-rule="nonzero" fill="#000000">
            <g id="trash" transform="translate(0.130000, 0.327000)">
                <path d="M20.628,3.792 L15.428,3.792 L15.428,2.753 C15.428,1.60424772 14.4967523,0.673 13.348,0.673 L8.148,0.673 C6.99924772,0.673 6.068,1.60424772 6.068,2.753 L6.068,3.793 L0.87,3.793 L0.87,4.833 L1.942,4.833 L2.983,24.593 C2.9827347,25.1448235 3.2017598,25.6741366 3.59186423,26.0644286 C3.98196865,26.4547206 4.5111764,26.6740001 5.063,26.674 L16.5,26.674 C17.0518236,26.6740001 17.5810313,26.4547206 17.9711358,26.0644286 C18.3612402,25.6741366 18.5802653,25.1448235 18.58,24.593 L19.6,4.832 L20.63,4.832 L20.63,3.792 L20.628,3.792 Z M7.11,2.752 C7.11055127,2.17785236 7.57585236,1.71255127 8.15,1.712 L13.35,1.712 C13.9241476,1.71255127 14.3894487,2.17785236 14.39,2.752 L14.39,3.792 L7.109,3.792 L7.109,2.752 L7.11,2.752 Z M17.543,24.538 L17.543,24.591 C17.5424487,25.1651476 17.0771476,25.6304487 16.503,25.631 L5.063,25.631 C4.48908033,25.6298995 4.02410052,25.1649197 4.023,24.591 L4.023,24.536 L2.983,4.831 L18.563,4.831 L17.543,24.538 Z" id="path"></path>
                <polygon id="path-2" points="10.23 6.912 11.27 6.912 11.27 23.552 10.23 23.552 10.23 6.912"></polygon>
                <polygon id="path-3" points="8.168 23.519 7.109 6.911 6.068 6.977 7.132 23.585"></polygon>
                <polygon id="path-4" points="15.436 6.943 14.398 6.878 13.349 23.518 14.387 23.583"></polygon>
            </g>
        </g>
    </g>
</svg>
