<?xml version="1.0" encoding="UTF-8" standalone="no"?>
<svg width="24px" height="24px" viewBox="0 0 24 24" version="1.1" xmlns="http://www.w3.org/2000/svg" xmlns:xlink="http://www.w3.org/1999/xlink">
    <!-- Generator: Sketch 44.1 (41455) - http://www.bohemiancoding.com/sketch -->
    <title>unprocess</title>
    <desc>Created with Sketch.</desc>
    <defs></defs>
    <g id="PDS" stroke="none" stroke-width="1" fill="none" fill-rule="evenodd">
        <g id="unprocess" fill="#000000">
            <path d="M11.1509822,17.3434487 C11.3371058,18.1571299 11.6886568,18.9077669 12.168361,19.5580856 C12.1032512,19.6129527 12.0366606,19.666458 11.9686197,19.7185362 L12.2419047,20.4258255 C12.3803379,20.7841047 12.197769,21.1869744 11.835298,21.3252131 L10.1882803,21.9533505 C9.82528439,22.0917894 9.42275143,21.9238111 9.28036263,21.5552945 L9.00707763,20.8480051 C8.67225973,20.8735434 8.3392233,20.8681329 8.01195727,20.8334685 L7.68781558,21.5498929 C7.52887687,21.9011823 7.11213417,22.0598357 6.75813964,21.9047565 L5.14963778,21.2000987 C4.79513065,21.0447951 4.63204957,20.644158 4.79552982,20.2828307 L5.10579476,19.597077 C4.87056311,19.3969371 4.6526572,19.1751292 4.45557156,18.9331378 L3.7231666,19.2124614 C3.35996014,19.3509806 2.95316587,19.1724806 2.815013,18.8149269 L2.1872656,17.1902528 C2.04891267,16.8321814 2.22081413,16.4335732 2.59439893,16.291096 L3.32680389,16.0117723 C3.31027932,15.7009188 3.32282097,15.3912231 3.36283176,15.0861116 L2.67039537,14.7827668 C2.31568257,14.627373 2.15713131,14.2162826 2.31574817,13.8657044 L3.03648113,12.2727261 C3.19532768,11.9216403 3.60151416,11.7585603 3.96636258,11.9183943 L4.68976853,12.2353064 C4.90962401,11.9919814 5.15347082,11.76656 5.41948599,11.5629534 L5.14620099,10.855664 C5.0077678,10.4973849 5.19033672,10.0945152 5.55280771,9.95627646 L7.19982544,9.32813904 C7.56282132,9.18970016 7.96535427,9.35767837 8.10774308,9.72619506 L8.38102807,10.4334844 C8.71584596,10.4079462 9.0488824,10.4133566 9.37614843,10.4480211 L9.70029013,9.73159669 C9.85922883,9.38030721 10.2759715,9.22165389 10.629966,9.37673299 L12.2384679,10.0813908 C12.5929751,10.2366945 12.7560561,10.6373315 12.5925759,10.9986589 L12.2823109,11.6844126 C12.3821637,11.7693694 12.4788946,11.8582305 12.5722363,11.9508824 C11.9512401,12.6295754 11.4842229,13.4515111 11.2264915,14.3613827 C10.6389831,13.4039362 9.48902232,12.8539845 8.29340312,13.0648044 C6.74127379,13.3384867 5.69995739,14.7906384 5.96755785,16.3082759 C6.23515829,17.8259135 7.71034074,18.8343384 9.26247007,18.5606562 C10.0655929,18.419044 10.7319522,17.9619121 11.1509822,17.3434487 Z M18.9654378,10.3293149 C18.349672,10.1159239 17.6883737,10 17,10 C15.9199294,10 14.9065136,10.2853835 14.0310452,10.7848581 L13.4415576,10.2902192 C13.1572242,10.0516353 13.112715,9.63657236 13.3564616,9.34608643 L13.6289551,9.02134128 C13.5015203,8.82698854 13.3909943,8.62047885 13.2995777,8.4036171 L12.8586414,8.44219402 C12.4908171,8.47437449 12.1673361,8.21127905 12.1340621,7.83095511 L12.0448797,6.81159543 C12.0125301,6.44183703 12.2745511,6.1168704 12.6523105,6.08382073 L13.0932467,6.04524382 C13.1456169,5.81580236 13.2186038,5.59323737 13.3103535,5.37970846 L12.9856084,5.10721491 C12.7027622,4.86987879 12.6600633,4.45510674 12.9054646,4.1626488 L13.5631993,3.37879117 C13.8017833,3.09445783 14.2168463,3.04994857 14.5073321,3.29369516 L14.8514958,3.58248278 C15.0595243,3.45121549 15.2810682,3.33794627 15.5140114,3.24514024 L15.4765066,2.81645838 C15.4443261,2.44863396 15.7074216,2.12515314 16.0877455,2.0918791 L17.1071052,2.00269668 C17.4768636,1.97034702 17.8018302,2.23236805 17.8348799,2.61012746 L17.8723847,3.03880931 C18.1179046,3.08975524 18.3557518,3.16283296 18.5834141,3.25598224 L18.8722017,2.91181855 C19.1095378,2.62897238 19.5243099,2.58627347 19.8167678,2.83167481 L20.6006255,3.48940946 C20.8849588,3.72799346 20.9294681,4.14305642 20.6857215,4.4335423 L20.4132279,4.75828748 C20.5406627,4.95264021 20.6511888,5.1591499 20.7426054,5.37601165 L21.1835416,5.33743473 C21.5513661,5.30525426 21.8748469,5.56834969 21.9081209,5.94867364 L21.9973033,6.96803332 C22.029653,7.33779172 21.7676319,7.66275835 21.3898726,7.69580801 L20.9489363,7.73438493 C20.8965662,7.96382639 20.8235793,8.18639137 20.7318295,8.39992029 L21.0565747,8.67241384 C21.3394208,8.90974996 21.3821198,9.32452202 21.1367184,9.61697999 L20.4789838,10.4008376 C20.2403998,10.685171 19.8253369,10.7296802 19.5348509,10.4859336 L19.1906872,10.197146 C19.117257,10.2434809 19.0421429,10.2875733 18.9654378,10.3293149 Z M17.2026628,8.96518286 C18.374907,8.86262479 19.2439065,7.85031091 19.1436275,6.70411654 C19.0433484,5.55792217 18.0117645,4.7118878 16.8395204,4.81444588 C15.6672761,4.91700396 14.7982766,5.92931784 14.8985555,7.07551221 C14.9988346,8.22170657 16.0304185,9.06774095 17.2026628,8.96518286 Z M17,21 C14.2385763,21 12,18.7614237 12,16 C12,13.2385763 14.2385763,11 17,11 C19.7614237,11 22,13.2385763 22,16 C22,18.7614237 19.7614237,21 17,21 Z M16.2930009,15.9876593 L14.8546348,17.3766733 C14.6558215,17.5686651 14.6488186,17.88395 14.8419806,18.0839751 C15.0338052,18.2826153 15.3492301,18.2892117 15.5492932,18.0960131 L16.9876593,16.7069991 L18.3766733,18.1453652 C18.5686651,18.3441785 18.88395,18.3511814 19.0839751,18.1580194 C19.2826153,17.9661948 19.2892117,17.6507699 19.0960131,17.4507068 L17.7069991,16.0123407 L19.1453652,14.6233267 C19.3441785,14.4313349 19.3511814,14.11605 19.1580194,13.9160249 C18.9661948,13.7173847 18.6507699,13.7107883 18.4507068,13.9039869 L17.0123407,15.2930009 L15.6233267,13.8546348 C15.4313349,13.6558215 15.11605,13.6488186 14.9160249,13.8419806 C14.7173847,14.0338052 14.7107883,14.3492301 14.9039869,14.5492932 L16.2930009,15.9876593 Z" id="Combined-Shape"></path>
        </g>
    </g>
</svg>