<?xml version="1.0" encoding="UTF-8" standalone="no"?>
<svg width="24px" height="24px" viewBox="0 0 24 24" version="1.1" xmlns="http://www.w3.org/2000/svg" xmlns:xlink="http://www.w3.org/1999/xlink">
    <!-- Generator: Sketch 44.1 (41455) - http://www.bohemiancoding.com/sketch -->
    <title>unread</title>
    <desc>Created with Sketch.</desc>
    <defs></defs>
    <g id="PDS" stroke="none" stroke-width="1" fill="none" fill-rule="evenodd">
        <g id="unread" fill="#000000">
            <path d="M20.7654321,11.2892645 L20.7654321,16.6556393 L14.3214442,13.0836784 L17.0595472,11.166438 C17.6487829,11.481722 18.3220327,11.6604938 19.037037,11.6604938 C19.6531906,11.6604938 20.2383369,11.5277361 20.7654321,11.2892645 Z M14.8466478,7.21604938 C14.8419087,7.29774889 14.8395062,7.38007536 14.8395062,7.46296296 C14.8395062,8.59182217 15.2851229,9.61660201 16.0100452,10.3709915 L11.3728064,13.6180211 L2.52744584,7.42443292 C2.72023143,7.2929273 2.95278855,7.21604938 3.20240863,7.21604938 L14.8466478,7.21604938 Z M20.2967732,17.8291218 C20.0933495,17.986561 19.8385832,18.0802469 19.5630235,18.0802469 L3.20240863,18.0802469 C2.94631155,18.0802469 2.70891422,18.0001212 2.51388126,17.8635056 L9.61027739,13.929909 C9.61443968,13.9276018 9.61856533,13.9252542 9.62265411,13.922867 L10.9818759,14.8746043 C11.1008971,14.9579439 11.2385125,14.9937709 11.3728064,14.986242 C11.5071003,14.9937709 11.6447157,14.9579439 11.7637369,14.8746043 L13.1851007,13.8793547 C13.2092414,13.8978117 13.2350318,13.9147346 13.2624073,13.929909 L20.2967732,17.8291218 Z M2,16.7150903 L2,8.58542709 L8.48031545,13.1229928 L2,16.7150903 Z M19.037037,10.4259259 C17.4006378,10.4259259 16.0740741,9.09936222 16.0740741,7.46296296 C16.0740741,5.8265637 17.4006378,4.5 19.037037,4.5 C20.6734363,4.5 22,5.8265637 22,7.46296296 C22,9.09936222 20.6734363,10.4259259 19.037037,10.4259259 Z" id="Combined-Shape"></path>
        </g>
    </g>
</svg>