<?xml version="1.0" encoding="UTF-8"?>
<svg width="26px" height="26px" viewBox="0 0 26 26" version="1.1" xmlns="http://www.w3.org/2000/svg" xmlns:xlink="http://www.w3.org/1999/xlink">
    <!-- Generator: Sketch 42 (36781) - http://www.bohemiancoding.com/sketch -->
    <title>User Outline</title>
    <desc>An outlined user silhouette in a circle</desc>
    <defs></defs>
    <g id="Page-1" stroke="none" stroke-width="1" fill="none" fill-rule="evenodd">
        <g id="user-s" transform="translate(-1.000000, -1.000000)" fill-rule="nonzero" fill="#000000">
            <g id="user" transform="translate(0.795000, 0.795000)">
                <path d="M13.2,0.2 C6.02029825,0.2 0.2,6.02029825 0.2,13.2 C0.2,20.3797017 6.02029825,26.2 13.2,26.2 C20.3797017,26.2 26.2,20.3797017 26.2,13.2 C26.2,6.02029825 20.3797017,0.2 13.2,0.2 L13.2,0.2 Z M13.2,1.283 C17.8206172,1.28060975 22.0256483,3.95098268 23.9883261,8.13404432 C25.951004,12.317106 25.317101,17.2578898 22.362,20.81 C21.174,20.31 18.369,19.341 16.634,18.828 C16.486,18.781 16.462,18.774 16.462,18.157 C16.4940162,17.6479152 16.6352125,17.1516818 16.876,16.702 C17.1589903,16.0735333 17.3535077,15.4088762 17.454,14.727 C17.9077149,14.1242299 18.2008819,13.4160871 18.306,12.669 C18.4859234,12.1059053 18.4767928,11.4994232 18.28,10.942 C18.266,10.905 18.252,10.87 18.24,10.833 C18.2166003,10.0187881 18.2809716,9.20442426 18.432,8.404 C18.5488785,7.25552233 18.2146701,6.10659148 17.5,5.2 C16.5996109,4.10230934 15.2586713,3.46059228 13.839,3.448 L12.739,3.448 C11.3329907,3.46950065 10.0082029,4.11066866 9.119,5.2 C8.40213236,6.10789104 8.06679329,7.25916207 8.184,8.41 C8.33521337,9.20906814 8.40025228,10.0220546 8.378,10.835 C8.36726426,10.8736665 8.35355679,10.9114456 8.337,10.948 C8.14075246,11.5055717 8.1319741,12.1119814 8.312,12.675 C8.41617717,13.4223433 8.70943842,14.1307138 9.164,14.733 C9.26352449,15.4150877 9.45808056,16.079877 9.742,16.708 C9.92634079,17.1775673 10.0075103,17.6812956 9.98,18.185 C9.98,18.802 9.957,18.809 9.818,18.853 C8.018,19.383 5.166,20.416 4.1,20.882 C1.1067116,17.3411358 0.441059881,12.3847169 2.39405074,8.17956271 C4.3470416,3.97440855 8.56346165,1.2853599 13.2,1.288 L13.2,1.283 Z M4.885,21.725 C6.105,21.225 8.537,20.359 10.135,19.888 C11.064,19.595 11.064,18.813 11.064,18.188 C11.0895751,17.5248606 10.9736726,16.8638752 10.724,16.249 C10.4664523,15.6780318 10.2978324,15.0710002 10.224,14.449 C10.2126266,14.3093456 10.1469195,14.1797266 10.041,14.088 C9.6748238,13.6197626 9.44504712,13.059509 9.377,12.469 C9.22,11.684 9.287,11.512 9.351,11.345 C9.37978645,11.2733521 9.40482038,11.200253 9.426,11.126 C9.50138479,10.1559719 9.44317412,9.1801861 9.253,8.226 C9.19165851,7.3805936 9.4492522,6.54287894 9.975,5.878 C10.6665749,5.03855144 11.6924672,4.5459037 12.78,4.531 L13.807,4.531 C14.9051251,4.53584271 15.9451304,5.02510626 16.649,5.868 C17.175158,6.53300706 17.4324691,7.37132026 17.37,8.217 C17.1802392,9.17123932 17.1220319,10.1469682 17.197,11.117 C17.219,11.196 17.245,11.266 17.272,11.337 C17.337,11.503 17.403,11.675 17.247,12.461 C17.1788137,13.0516495 16.9486708,13.6119523 16.582,14.08 C16.4770057,14.1724463 16.4115008,14.3016664 16.399,14.441 C16.3257434,15.0631136 16.1570995,15.6702317 15.899,16.241 C15.5896595,16.8345224 15.4135631,17.4883998 15.383,18.157 C15.383,18.786 15.383,19.568 16.322,19.864 C17.851,20.316 20.295,21.155 21.585,21.664 C16.9712764,26.2475855 9.53099508,26.2738715 4.885,21.723 L4.885,21.725 Z" id="path"></path>
            </g>
        </g>
    </g>
</svg>
