<?xml version="1.0" encoding="UTF-8"?>
<svg width="26px" height="26px" viewBox="0 0 26 26" version="1.1" xmlns="http://www.w3.org/2000/svg" xmlns:xlink="http://www.w3.org/1999/xlink">
    <!-- Generator: Sketch 42 (36781) - http://www.bohemiancoding.com/sketch -->
    <title>User Filled</title>
    <desc>A filled in user silhouette in a circle</desc>
    <defs></defs>
    <g id="Page-1" stroke="none" stroke-width="1" fill="none" fill-rule="evenodd">
        <g id="user-f" transform="translate(-1.000000, -1.000000)" fill-rule="nonzero" fill="#000000">
            <g id="user" transform="translate(0.795000, 0.795000)">
                <path d="M13.2,0.2 C6.02029825,0.2 0.2,6.02029825 0.2,13.2 C0.2,20.3797017 6.02029825,26.2 13.2,26.2 C20.3797017,26.2 26.2,20.3797017 26.2,13.2 C26.2,6.02029825 20.3797017,0.2 13.2,0.2 L13.2,0.2 Z M22.362,20.81 C21.174,20.31 18.369,19.341 16.634,18.828 C16.486,18.781 16.462,18.774 16.462,18.157 C16.4940162,17.6479152 16.6352125,17.1516818 16.876,16.702 C17.1589903,16.0735333 17.3535077,15.4088762 17.454,14.727 C17.9087552,14.1248246 18.2020381,13.4164018 18.306,12.669 C18.4859234,12.1059053 18.4767928,11.4994232 18.28,10.942 C18.2647442,10.9065137 18.2517189,10.8701096 18.241,10.833 C18.217069,10.0187749 18.2814448,9.20435386 18.433,8.404 C18.549278,7.25541814 18.2147411,6.10659033 17.5,5.2 C16.5996109,4.10230934 15.2586713,3.46059228 13.839,3.448 L12.739,3.448 C11.3337589,3.47036033 10.0099286,4.1114191 9.121,5.2 C8.40422767,6.10794016 8.06890007,7.25917181 8.186,8.41 C8.33665923,9.20914242 8.40169338,10.0220694 8.38,10.835 C8.3683497,10.873368 8.35466364,10.9110881 8.339,10.948 C8.14228028,11.5054363 8.13315005,12.1118944 8.313,12.675 C8.41717717,13.4223433 8.71043842,14.1307138 9.165,14.733 C9.26452449,15.4150877 9.45908056,16.079877 9.743,16.708 C9.92785827,17.1774256 10.0090461,17.6812675 9.981,18.185 C9.981,18.802 9.959,18.809 9.819,18.853 C8.019,19.383 5.166,20.416 4.101,20.882 C0.0311191204,16.0602812 0.425466994,8.90179321 5.00035271,4.55629865 C9.57523843,0.210804089 16.7445334,0.184900904 21.3507004,4.49722365 C25.9568675,8.8095464 26.4029326,15.9649979 22.368,20.816 L22.362,20.81 Z" id="path"></path>
            </g>
        </g>
    </g>
</svg>
