<?xml version="1.0" encoding="UTF-8" standalone="no"?>
<svg width="24px" height="24px" viewBox="0 0 24 24" version="1.1" xmlns="http://www.w3.org/2000/svg" xmlns:xlink="http://www.w3.org/1999/xlink">
    <!-- Generator: Sketch 44.1 (41455) - http://www.bohemiancoding.com/sketch -->
    <title>user-add</title>
    <desc>Created with Sketch.</desc>
    <defs></defs>
    <g id="PDS" stroke="none" stroke-width="1" fill="none" fill-rule="evenodd">
        <g id="user-add" fill="#000000">
            <path d="M13.4216569,14.121821 C12.5348586,15.1676785 12,16.5213778 12,18 C12,18.7358142 12.1324527,19.4406925 12.3748162,20.0920928 L8.66612874,20.0920928 C6.54062733,20.0920928 4.57067459,19.6517738 2.2896245,19.0490118 C2.10254909,18.8144696 2.16550778,16.4325929 3.0027567,16.0828335 L7.77350498,14.0965042 C8.05778238,13.9781436 8.17932503,13.6536752 8.05066437,13.3784062 C8.05066437,13.3784062 7.4232469,12.0965152 7.15143302,11.1833102 C6.87961925,10.2701051 7.07377456,9.86485008 6.7704526,9.86485008 C6.46815025,9.86485008 6.46815025,9.60916115 6.46815025,9.60916115 L6.02581257,7.37633067 C6.02581257,7.37633067 5.85270687,6.80813309 6.32811492,6.80813309 C6.4287071,6.51440478 6.51025319,4.90478199 6.51025319,4.90478199 C6.51025319,3.89612032 7.02734221,3.34719503 7.77690613,2.80383214 C8.52647005,2.26046937 9.68400081,2.0920928 10.5110349,2.0920928 C11.338069,2.0920928 12.4218757,2.29944884 13.1680276,2.80383214 C13.9141794,3.30821545 14.4443173,3.91032522 14.4130936,4.90478199 C14.4130936,5.66224549 14.6040761,6.80813309 14.6040761,6.80813309 C14.9265575,6.80813309 14.8467695,7.37633067 14.8467695,7.37633067 L14.4290251,9.60916115 C14.4290251,9.60916115 14.4290251,9.86485008 14.1863317,9.86485008 C13.9436383,9.86485008 14.0157256,10.6333087 13.8282059,11.1833102 C13.6406861,11.7333118 13.0327962,13.3670109 13.0327962,13.3670109 C12.9273012,13.6515383 13.0637343,13.9739134 13.3400327,14.0880907 L13.4216569,14.121821 Z M18,23 C15.2385763,23 13,20.7614237 13,18 C13,15.2385763 15.2385763,13 18,13 C20.7614237,13 23,15.2385763 23,18 C23,20.7614237 20.7614237,23 18,23 Z M17.5,17.5 L15.5004358,17.5 C15.2240528,17.5 15,17.7219324 15,18 C15,18.2761424 15.2223154,18.5 15.5004358,18.5 L17.5,18.5 L17.5,20.4995642 C17.5,20.7759472 17.7219324,21 18,21 C18.2761424,21 18.5,20.7776846 18.5,20.4995642 L18.5,18.5 L20.4995642,18.5 C20.7759472,18.5 21,18.2780676 21,18 C21,17.7238576 20.7776846,17.5 20.4995642,17.5 L18.5,17.5 L18.5,15.5004358 C18.5,15.2240528 18.2780676,15 18,15 C17.7238576,15 17.5,15.2223154 17.5,15.5004358 L17.5,17.5 Z" id="Combined-Shape"></path>
        </g>
    </g>
</svg>