<?xml version="1.0" encoding="UTF-8" standalone="no"?>
<svg width="24px" height="24px" viewBox="0 0 24 24" version="1.1" xmlns="http://www.w3.org/2000/svg" xmlns:xlink="http://www.w3.org/1999/xlink">
    <!-- Generator: Sketch 44.1 (41455) - http://www.bohemiancoding.com/sketch -->
    <title>view</title>
    <desc>Created with Sketch.</desc>
    <defs></defs>
    <g id="PDS" stroke="none" stroke-width="1" fill="none" fill-rule="evenodd">
        <g id="view" fill="#000000">
            <path d="M20.5714286,12.4285714 C20.5714286,11.5160736 18.023074,9.35937935 16.3191964,8.48883929 C16.7730677,9.26265268 17,10.0996979 17,11 C17,12.376495 16.5107936,13.5539386 15.5323661,14.5323661 C14.5539386,15.5107936 13.376495,16 12,16 C10.623505,16 9.44606144,15.5107936 8.46763393,14.5323661 C7.48920642,13.5539386 7,12.376495 7,11 C7,10.0996979 7.22693225,9.26265268 7.68080357,8.48883929 C5.976926,9.35937935 3.42857143,11.6477257 3.42857143,12.4285714 C3.42857143,13.3399242 5.65884671,15.1685223 7.15066964,16.0725446 C8.64249258,16.976567 10.2589199,17.4285714 12,17.4285714 C13.7410801,17.4285714 15.3575074,16.976567 16.8493304,16.0725446 C18.3411533,15.1685223 20.5714286,13.4408828 20.5714286,12.4285714 Z M22,12.4285714 C22,12.6815489 21.925596,12.9382427 21.7767857,13.1986607 C20.7351138,14.9099788 19.3344582,16.2808728 17.5747768,17.3113839 C15.8150954,18.341895 13.956855,18.8571429 12,18.8571429 C10.043145,18.8571429 8.18490463,18.3400349 6.42522321,17.3058036 C4.6655418,16.2715722 3.26488616,14.9025383 2.22321429,13.1986607 C2.07440402,12.9382427 2,12.6815489 2,12.4285714 C2,12.175594 2.07440402,11.9189001 2.22321429,11.6584821 C3.26488616,9.95460458 4.6655418,8.58557065 6.42522321,7.55133929 C8.18490463,6.51710792 10.043145,6 12,6 C13.956855,6 15.8150954,6.51710792 17.5747768,7.55133929 C19.3344582,8.58557065 20.7351138,9.95460458 21.7767857,11.6584821 C21.925596,11.9189001 22,12.175594 22,12.4285714 Z" id="Eye"></path>
        </g>
    </g>
</svg>