<?xml version="1.0" encoding="UTF-8" standalone="no"?>
<svg width="24px" height="24px" viewBox="0 0 24 24" version="1.1" xmlns="http://www.w3.org/2000/svg" xmlns:xlink="http://www.w3.org/1999/xlink">
    <!-- Generator: Sketch 44.1 (41455) - http://www.bohemiancoding.com/sketch -->
    <title>webbs</title>
    <desc>Created with Sketch.</desc>
    <defs></defs>
    <g id="PDS-Current" stroke="none" stroke-width="1" fill="none" fill-rule="evenodd">
        <g id="webbs" fill="#000000">
            <path d="M13.248587,3.75495793 L21.8103265,19.6203425 C22.0704501,20.0936021 22.0630181,20.5668546 21.7880303,21.0401142 C21.6616846,21.2579638 21.4888908,21.4307385 21.2696437,21.5584435 C21.0503967,21.6861485 20.814431,21.75 20.5617395,21.75 L3.43826052,21.75 C3.18556902,21.75 2.9496033,21.6861485 2.73035627,21.5584435 C2.51110925,21.4307385 2.33831545,21.2579638 2.2119697,21.0401142 C1.9369819,20.5668546 1.92954991,20.0936021 2.18967351,19.6203425 L10.751413,3.75495793 C10.8777587,3.52208417 11.0524105,3.33804154 11.2753736,3.20282452 C11.4983367,3.0676075 11.7398764,3 12,3 C12.2601236,3 12.5016633,3.0676075 12.7246264,3.20282452 C12.9475895,3.33804154 13.1222413,3.52208417 13.248587,3.75495793 Z M14.5140629,18 L15.9671879,12.2890625 L14.7757816,12.2890625 L14.0492191,15.40625 C14.0023439,15.5937509 13.9502611,15.8391912 13.8929691,16.1425781 C13.8356772,16.4459651 13.7940109,16.6992177 13.7679691,16.9023438 C13.7393232,16.6914052 13.6976569,16.4388036 13.6429691,16.1445312 C13.5882814,15.8502589 13.5427089,15.6315111 13.5062504,15.4882812 L12.6742191,12.2890625 L11.5296879,12.2890625 L10.6976566,15.4882812 C10.6481772,15.6601571 10.5954434,15.9016912 10.5394535,16.2128906 C10.4834636,16.5240901 10.4476567,16.7539055 10.4320316,16.9023438 C10.3747397,16.4804666 10.2822927,15.9817737 10.1546879,15.40625 L9.42421913,12.2890625 L8.23281288,12.2890625 L9.68984413,18 L11.0648441,18 L11.8343754,15.0078125 C11.8682297,14.8749993 11.9164063,14.6529963 11.9789066,14.3417969 C12.0414069,14.0305974 12.0804691,13.8046882 12.0960941,13.6640625 C12.1065109,13.7786464 12.146224,14.0032535 12.2152348,14.3378906 C12.2842455,14.6725277 12.3330732,14.8932286 12.3617191,15 L13.1351566,18 L14.5140629,18 Z" id="Combined-Shape"></path>
        </g>
    </g>
</svg>