<?xml version="1.0" encoding="UTF-8" standalone="no"?>
<svg width="24px" height="24px" viewBox="0 0 24 24" version="1.1" xmlns="http://www.w3.org/2000/svg" xmlns:xlink="http://www.w3.org/1999/xlink">
    <!-- Generator: Sketch 44.1 (41455) - http://www.bohemiancoding.com/sketch -->
    <title>zoom-zone</title>
    <desc>Created with Sketch.</desc>
    <defs></defs>
    <g id="PDS" stroke="none" stroke-width="1" fill="none" fill-rule="evenodd">
        <g id="zoom-zone" fill="#000000">
            <path d="M17.3494363,15.7532709 L21.6655582,20.0693928 C22.1084013,20.5122359 22.1132304,21.2253975 21.669482,21.6691459 C21.2288059,22.1098219 20.5129692,22.1084623 20.0697289,21.6652221 L15.753607,17.3491002 C14.8616653,17.9398512 13.7920631,18.2838808 12.6421084,18.2838808 C9.526058,18.2838808 7,15.7578228 7,12.6417723 C7,9.52572188 9.526058,6.99966389 12.6421084,6.99966389 C15.7581589,6.99966389 18.2842169,9.52572188 18.2842169,12.6417723 C18.2842169,13.7917269 17.9401873,14.8613291 17.3494363,15.7532709 Z M3,15 L4,15 L4,16 L2,16 L2,15.5 L2,14 L3,14 L3,15 Z M2.5,2 L4,2 L4,3 L3,3 L3,4 L2,4 L2,2 L2.5,2 Z M16,2.5 L16,2 L14,2 L14,3 L15,3 L15,4 L16,4 L16,2.5 Z M5,2 L7,2 L7,3 L5,3 L5,2 Z M8,2 L10,2 L10,3 L8,3 L8,2 Z M11,2 L13,2 L13,3 L11,3 L11,2 Z M5,15 L7,15 L7,16 L5,16 L5,15 Z M16,5 L16,7 L15,7 L15,5 L16,5 Z M3,5 L3,7 L2,7 L2,5 L3,5 Z M3,8 L3,10 L2,10 L2,8 L3,8 Z M3,11 L3,13 L2,13 L2,11 L3,11 Z M12.6375462,16.7747563 C14.9226499,16.7747563 16.7750924,14.9223137 16.7750924,12.6372101 C16.7750924,10.3521064 14.9226499,8.49966389 12.6375462,8.49966389 C10.3524425,8.49966389 8.5,10.3521064 8.5,12.6372101 C8.5,14.9223137 10.3524425,16.7747563 12.6375462,16.7747563 Z M13,12.3996637 L15.2496731,12.3996637 C15.4569604,12.3996637 15.625,12.5661131 15.625,12.7746637 C15.625,12.9817705 15.4582634,13.1496637 15.2496731,13.1496637 L13,13.1496637 L13,15.3993369 C13,15.6066242 12.8335507,15.7746637 12.625,15.7746637 C12.4178932,15.7746637 12.25,15.6079272 12.25,15.3993369 L12.25,13.1496637 L10.0003269,13.1496637 C9.79303956,13.1496637 9.625,12.9832144 9.625,12.7746637 C9.625,12.567557 9.79173657,12.3996637 10.0003269,12.3996637 L12.25,12.3996637 L12.25,10.1499906 C12.25,9.94270331 12.4164493,9.77466374 12.625,9.77466374 C12.8321068,9.77466374 13,9.94140032 13,10.1499906 L13,12.3996637 Z" id="Zoom-in-place"></path>
        </g>
    </g>
</svg>