<svg xmlns="http://www.w3.org/2000/svg" xmlns:xlink="http://www.w3.org/1999/xlink" viewBox="-1553 -1671 32 32">
  <defs>
    <style>
      .cls-1 {
        clip-path: url(#clip-icon-students);
      }

      .cls-2 {
        fill: none;
        stroke: #fff;
        stroke-width: 1px;
      }
    </style>
    <clipPath id="clip-icon-students">
      <rect x="-1553" y="-1671" width="32" height="32"/>
    </clipPath>
  </defs>
  <g id="icon-students" class="cls-1">
    <g id="Symbol_44_1" data-name="Symbol 44 – 1" transform="translate(-1553 -1671)">
      <path id="Path_2307" data-name="Path 2307" class="cls-2" d="M4.4.541c1.528,0,2.979.146,3.96,2.025s.293,1.875.337,4.122a4.91,4.91,0,0,1,.123,2.04,5.869,5.869,0,0,1-.811,1.966A7.747,7.747,0,0,1,7.541,12.3s-.563.722-.316,2.958c1.9.755,6.314,1.866,6.5,2.664a16.29,16.29,0,0,1,.14,3.142c-.031.47-.239.53-.7.534s-17.112.065-17.56.077a.719.719,0,0,1-.741-.7,7.934,7.934,0,0,1,.153-3.053c.389-.984,5.829-1.974,6.83-2.8.207-2-.564-2.56-.729-3.337a10.258,10.258,0,0,0-.245-1.1,3.167,3.167,0,0,1-.9-1.966c-.185-1,.159-1.278.159-2.04,0-1.963-.752-2.35.373-4.225A3.865,3.865,0,0,1,4.4.541Z" transform="translate(16 5)"/>
      <path id="Path_2308" data-name="Path 2308" class="cls-2" d="M2.4.541a2.994,2.994,0,0,1,3.137,1.6c.777,1.489.232,1.485.267,3.266a3.89,3.89,0,0,1,.1,1.616,4.649,4.649,0,0,1-.642,1.557,6.137,6.137,0,0,1-.37,1.274s-.446.572-.25,2.343c.89.354,2.128.8,3.6,1.355-1.468.7-4.968,1.452-5.183,2.186a6.007,6.007,0,0,0-.205,1.543H-4.57a.57.57,0,0,1-.587-.555,6.286,6.286,0,0,1,.121-2.419c.308-.78,4.618-1.564,5.41-2.214A4.756,4.756,0,0,0-.2,9.453,8.126,8.126,0,0,0-.4,8.584,2.509,2.509,0,0,1-1.11,7.027c-.147-.793.126-1.013.126-1.616,0-1.555-.6-1.861.3-3.347A3.062,3.062,0,0,1,2.4.541Z" transform="translate(7.985 7.196)"/>
    </g>
  </g>
</svg>
