<svg xmlns="http://www.w3.org/2000/svg" xmlns:xlink="http://www.w3.org/1999/xlink" viewBox="-1555 -10833 20 20">
  <defs>
    <style>
      .cls-1 {
        clip-path: url(#clip-icon-teachers-selected);
      }

      .cls-2 {
        fill: #fff;
      }
    </style>
    <clipPath id="clip-icon-teachers-selected">
      <rect x="-1555" y="-10833" width="20" height="20"/>
    </clipPath>
  </defs>
  <g id="icon-teachers-selected" class="cls-1">
    <g id="Symbol_49_17" data-name="Symbol 49 – 17" transform="translate(-1560.433 -10838.021)">
      <path id="Path_2312" data-name="Path 2312" class="cls-2" d="M4.374.021A4.846,4.846,0,0,1,8.819,2.479c.981,1.879.288,1.961.332,4.209a6.123,6.123,0,0,1,.141,2.257,4.8,4.8,0,0,1-.9,1.916,3.947,3.947,0,0,1-.383,1.419s-.565.482-.317,2.718c1.9.755,6.166,1.692,6.417,2.716a15.062,15.062,0,0,1,.176,3.4c-.031.47-.274.913-.738.918s-17.671-.012-18.12,0a.906.906,0,0,1-.916-.712,12,12,0,0,1,.16-3.769c.389-.984,5.478-2.169,6.691-2.712.207-2-.552-2.058-.717-2.835s-.06-.663-.2-1.14A3.767,3.767,0,0,1-.485,8.729c-.185-1,.138-1.278.138-2.04,0-1.963-.651-2.556.474-4.431A4.683,4.683,0,0,1,4.374.021Z" transform="translate(12 5)"/>
    </g>
  </g>
</svg>
