<svg xmlns="http://www.w3.org/2000/svg" xmlns:xlink="http://www.w3.org/1999/xlink" viewBox="-1589 -10833 20 20">
  <defs>
    <style>
      .cls-1 {
        clip-path: url(#clip-icon-students-selected);
      }

      .cls-2 {
        fill: #fff;
      }
    </style>
    <clipPath id="clip-icon-students-selected">
      <rect x="-1589" y="-10833" width="20" height="20"/>
    </clipPath>
  </defs>
  <g id="icon-students-selected" class="cls-1">
    <g id="Symbol_46_15" data-name="Symbol 46 – 15" transform="translate(-1590.979 -10836.021)">
      <g id="Group_15138" data-name="Group 15138">
        <path id="Path_2307" data-name="Path 2307" class="cls-2" d="M1.451.021A3.421,3.421,0,0,1,4.589,1.757c.692,1.327.2,1.385.235,2.971a4.323,4.323,0,0,1,.1,1.594,3.389,3.389,0,0,1-.637,1.353,2.787,2.787,0,0,1-.27,1s-.4.34-.224,1.919c1.339.533,4.353,1.195,4.53,1.917a10.634,10.634,0,0,1,.125,2.4c-.022.332-.194.644-.521.648s-12.476-.009-12.792,0a.64.64,0,0,1-.647-.5A8.472,8.472,0,0,1-5.4,12.395c.275-.695,3.867-1.531,4.724-1.914.146-1.41-.39-1.453-.506-2s-.043-.468-.14-.8a2.659,2.659,0,0,1-.658-1.506c-.131-.707.1-.9.1-1.44,0-1.386-.459-1.8.335-3.128A3.306,3.306,0,0,1,1.451.021Z" transform="translate(13.514 5)"/>
        <path id="Path_2308" data-name="Path 2308" class="cls-2" d="M-.3-.079A2.952,2.952,0,0,1,2.331,1.31c.549,1.051.044,1.4.069,2.655a3.2,3.2,0,0,1,0,1.082,2.3,2.3,0,0,1-.454.99,1.969,1.969,0,0,1-.169.993s-.375.109-.236,1.359c.628.25.107.018,1.143.409-1.037.491-2.816.812-3.24,1.813A3.764,3.764,0,0,0-.8,12.568H-5.407a.65.65,0,0,1-.553-.5,4.651,4.651,0,0,1,.179-2.123c.345-.7,3.175-1.093,3.735-1.552.116-1.117-.218-1.018-.31-1.453a7.4,7.4,0,0,0-.194-.76c-.19-.1-.28-.341-.477-1.129s0-.656,0-1.082c0-1.1-.412-1.73.217-2.779A2.833,2.833,0,0,1-.3-.079Z" transform="translate(7.985 6.58)"/>
      </g>
    </g>
  </g>
</svg>
