<svg xmlns="http://www.w3.org/2000/svg" xmlns:xlink="http://www.w3.org/1999/xlink" viewBox="-1397 -1610 32 32">
  <defs>
    <style>
      .cls-1 {
        clip-path: url(#clip-icon-play-selected);
      }

      .cls-2 {
        fill: #fff;
      }
    </style>
    <clipPath id="clip-icon-play-selected">
      <rect x="-1397" y="-1610" width="32" height="32"/>
    </clipPath>
  </defs>
  <g id="icon-play-selected" class="cls-1">
    <g id="Symbol_40_1" data-name="Symbol 40 – 1" transform="translate(-1397 -1610)">
      <path id="Subtraction_1" data-name="Subtraction 1" class="cls-2" d="M1420.636,1628.334a6.12,6.12,0,0,1-3.944-1.406c-.34-.434-3.416-4.239-6.632-4.239-2.253.021-4.038,1.87-5.342,3.22-.376.391-.718.744-1.027,1.012a6.832,6.832,0,0,1-3.874,1.4,2.6,2.6,0,0,1-2.044-.807c-.668-.75-.9-2-.7-3.723a24.735,24.735,0,0,1,4.962-12.774,4.465,4.465,0,0,1,2.4-1.021h11.455a4.963,4.963,0,0,1,2.586,1.021,23.709,23.709,0,0,1,5.324,12.78,4.461,4.461,0,0,1-.716,3.586A3.146,3.146,0,0,1,1420.636,1628.334ZM1404,1619.819v2h1v-2h2v-1h-2v-2h-1v2h-2v1Zm12.569,0a1,1,0,1,0,1,1A1,1,0,0,0,1416.57,1619.819Zm2-2a1,1,0,1,0,1,1A1,1,0,0,0,1418.57,1617.818Zm-4,0a1,1,0,1,0,1,1A1,1,0,0,0,1414.571,1617.818Zm2-2a1,1,0,1,0,1,1A1,1,0,0,0,1416.57,1615.819Z" transform="translate(-1394 -1603.819)"/>
    </g>
  </g>
</svg>
