<!DOCTYPE svg PUBLIC "-//W3C//DTD SVG 1.1//EN" "http://www.w3.org/Graphics/SVG/1.1/DTD/svg11.dtd">
<svg version="1.1" xmlns="http://www.w3.org/2000/svg" xmlns:xlink="http://www.w3.org/1999/xlink" x="0px" y="0px"
	 width="678.082px" height="500px" viewBox="0 0 678.082 500" enable-background="new 0 0 678.082 500" xml:space="preserve">
<g>
	<text transform="matrix(1 0 0 1 121.0205 481.5039)" fill="#007673" font-family="times" font-size="42">THANK YOU FOR CARING</text>
</g>
<text transform="matrix(1 0 0 1 106.0981 326.9707)"><tspan x="0" y="0" font-family="times" font-size="29">in recognition of your generosity towards</tspan><tspan x="4.319" y="34.8" font-family="times" font-size="29">the cause of helping to save Sea Turtles.</tspan></text>
<g>
	<g>
		<path fill="#8DC63F" d="M338.481,96.426c18.775,0,33.995-15.221,33.995-33.996s-15.22-33.996-33.995-33.996
			s-33.995,15.221-33.995,33.996S319.706,96.426,338.481,96.426"/>
		<circle fill="none" stroke="#FAA634" stroke-width="4" cx="338.481" cy="62.43" r="33.996"/>
		<path fill="#FFFFFF" d="M356.756,40.623c-1.709-0.084-3.412-0.161-5.107-0.232c-1.695-0.068-3.397-0.104-5.107-0.104
			c-2.242,0-4.462,0.008-6.662,0.022c-2.2,0.014-4.406,0.007-6.621-0.022c0.057,1.935,0.113,3.848,0.169,5.738
			c0.056,1.893,0.084,3.791,0.084,5.696v0.798c0,3.308-0.057,6.586-0.168,9.837c-0.113,3.251-0.21,6.516-0.295,9.794
			c3.979,0,7.932-0.021,11.854-0.063s7.874-0.05,11.854-0.021c-0.364-1.345-0.645-2.725-0.84-4.141
			c-0.197-1.414-0.393-2.822-0.589-4.224c-2.159,0.196-4.294,0.427-6.411,0.693c-2.115,0.266-4.238,0.47-6.367,0.609l-0.631-5.212
			l10.089-1.809c0-0.392,0.006-0.799,0.021-1.219c0.014-0.42,0.021-0.826,0.021-1.219c0-0.953-0.036-1.892-0.105-2.816
			c-0.07-0.925-0.176-1.864-0.315-2.816l-10.846,0.631l0.084-3.321c2.747-0.225,5.472-0.413,8.177-0.567
			c2.704-0.154,5.43-0.301,8.176-0.441L356.756,40.623z"/>
		<path fill="#FFFFFF" d="M357.583,75.686c-1.822-0.057-21.236-0.085-23.043-0.085c-1.808,0-3.637-0.026-5.487-0.083
			c0.057-1.766,0.12-3.524,0.19-5.275c0.069-1.752,0.16-3.51,0.273-5.275c0.139-2.103,0.343-4.197,0.608-6.284
			c0.267-2.088,0.49-4.521,0.8-6.595c-1.85,0.14-3.687,0.253-5.507,0.336c-1.822,0.085-3.672,0.141-5.549,0.169
			c0.224,5.38,0.441,11.064,0.525,16.346c0.084,5.283,0.195,10.601,0.336,15.954c3.335-0.197,6.648-0.407,9.941-0.631
			c3.294-0.226,24.207-0.464,27.542-0.716L357.583,75.686z"/>
		<path fill="#8DC63F" d="M388.956,143.157c0.175,0,0.262-0.087,0.262-0.263v-3.198c0-0.731,0.127-1.246,0.384-1.548
			c0.255-0.302,0.572-0.452,0.954-0.452c0.39,0,0.677,0.112,0.864,0.336c0.187,0.223,0.28,0.716,0.28,1.476v3.387
			c0,0.176,0.087,0.263,0.262,0.263h0.502c0.175,0,0.262-0.087,0.262-0.263v-3.198c0-0.669,0.129-1.169,0.383-1.501
			c0.256-0.332,0.574-0.499,0.956-0.499c0.388,0,0.676,0.112,0.864,0.336c0.186,0.223,0.279,0.716,0.279,1.476v3.387
			c0,0.176,0.087,0.263,0.263,0.263h0.501c0.174,0,0.262-0.087,0.262-0.263v-3.725c0-0.691-0.155-1.236-0.466-1.634
			c-0.311-0.398-0.771-0.598-1.381-0.598c-0.364,0-0.707,0.08-1.03,0.239c-0.322,0.16-0.589,0.355-0.8,0.589h-0.023
			c-0.076-0.185-0.248-0.369-0.516-0.553c-0.267-0.183-0.649-0.275-1.144-0.275c-0.27,0-0.551,0.069-0.843,0.205
			c-0.292,0.135-0.563,0.345-0.813,0.623V137.3c0-0.174-0.088-0.261-0.265-0.261h-0.496c-0.177,0-0.265,0.087-0.265,0.261v5.595
			c0,0.176,0.088,0.263,0.262,0.263H388.956z M382.738,138.286c0.322-0.393,0.749-0.59,1.282-0.59c0.532,0,0.959,0.197,1.282,0.59
			c0.321,0.391,0.482,0.995,0.482,1.812c0,0.815-0.161,1.42-0.482,1.813c-0.323,0.392-0.75,0.589-1.282,0.589
			c-0.533,0-0.96-0.197-1.282-0.589c-0.323-0.393-0.484-0.997-0.484-1.813C382.254,139.281,382.415,138.677,382.738,138.286
			 M381.896,142.361c0.484,0.598,1.193,0.895,2.125,0.895s1.641-0.297,2.124-0.895c0.483-0.597,0.725-1.351,0.725-2.264
			s-0.241-1.668-0.725-2.264c-0.483-0.597-1.192-0.896-2.124-0.896s-1.641,0.299-2.125,0.896c-0.483,0.596-0.725,1.351-0.725,2.264
			S381.412,141.765,381.896,142.361 M375.871,142.361c0.452,0.598,1.146,0.895,2.076,0.895c0.736,0,1.274-0.15,1.618-0.452
			c0.344-0.301,0.563-0.535,0.661-0.701c0.082-0.141,0.063-0.245-0.052-0.315l-0.392-0.232c-0.128-0.078-0.242-0.024-0.344,0.157
			c-0.104,0.193-0.271,0.374-0.5,0.538c-0.229,0.166-0.56,0.249-0.992,0.249c-0.531,0-0.943-0.197-1.234-0.589
			c-0.291-0.393-0.438-0.997-0.438-1.813c0-0.816,0.146-1.421,0.438-1.812c0.291-0.393,0.703-0.59,1.234-0.59
			c0.409,0,0.714,0.063,0.919,0.192c0.203,0.128,0.361,0.281,0.475,0.462c0.117,0.186,0.232,0.237,0.351,0.156l0.366-0.239
			c0.117-0.077,0.134-0.181,0.053-0.309c-0.148-0.233-0.388-0.462-0.72-0.686c-0.332-0.222-0.813-0.335-1.443-0.335
			c-0.931,0-1.624,0.299-2.076,0.896c-0.452,0.596-0.679,1.351-0.679,2.264S375.419,141.765,375.871,142.361 M373.275,143.157
			c0.175,0,0.262-0.087,0.262-0.263v-0.712c0-0.174-0.087-0.262-0.262-0.262h-0.653c-0.175,0-0.262,0.088-0.262,0.262v0.712
			c0,0.176,0.087,0.263,0.262,0.263H373.275z M366.985,143.009c0.413,0.164,0.909,0.247,1.488,0.247
			c0.428,0,0.792-0.048,1.096-0.144c0.302-0.094,0.577-0.285,0.824-0.573c0.246-0.288,0.37-0.639,0.37-1.055
			c0-0.226-0.029-0.43-0.088-0.615c-0.058-0.185-0.164-0.356-0.317-0.515c-0.153-0.159-0.372-0.307-0.656-0.438
			c-0.217-0.103-0.46-0.187-0.73-0.257c-0.27-0.069-0.568-0.147-0.896-0.233c-0.208-0.053-0.372-0.125-0.488-0.216
			c-0.117-0.088-0.196-0.187-0.239-0.293c-0.042-0.107-0.064-0.229-0.064-0.364c0-0.179,0.056-0.333,0.164-0.467
			c0.108-0.131,0.251-0.225,0.425-0.28c0.175-0.053,0.385-0.081,0.629-0.081c0.199,0,0.43,0.046,0.694,0.135
			c0.264,0.089,0.468,0.183,0.611,0.285c0.172,0.12,0.297,0.125,0.379,0.012l0.263-0.351c0.089-0.115,0.071-0.219-0.053-0.308
			c-0.214-0.152-0.467-0.283-0.76-0.395c-0.294-0.109-0.682-0.166-1.163-0.166c-0.327,0-0.663,0.05-1.008,0.148
			c-0.347,0.101-0.634,0.285-0.863,0.558c-0.229,0.272-0.344,0.596-0.344,0.974c0,0.369,0.071,0.658,0.214,0.87
			c0.142,0.211,0.308,0.378,0.497,0.502c0.19,0.122,0.393,0.218,0.606,0.285c0.318,0.102,0.576,0.177,0.772,0.225
			c0.195,0.049,0.393,0.109,0.592,0.185c0.119,0.043,0.243,0.101,0.369,0.176c0.127,0.075,0.219,0.174,0.28,0.297
			c0.06,0.122,0.089,0.252,0.089,0.392c0,0.241-0.063,0.432-0.188,0.577c-0.127,0.143-0.273,0.241-0.439,0.293
			c-0.168,0.053-0.357,0.08-0.572,0.08c-0.36,0-0.683-0.054-0.963-0.158c-0.282-0.105-0.538-0.244-0.767-0.42
			c-0.167-0.128-0.294-0.134-0.38-0.017l-0.262,0.367c-0.07,0.098-0.045,0.202,0.076,0.313
			C366.304,142.702,366.571,142.843,366.985,143.009 M361.128,138.361c0.247-0.443,0.665-0.665,1.256-0.665
			c0.421,0,0.769,0.144,1.047,0.429c0.277,0.284,0.416,0.72,0.416,1.302v1.341c0,0.582-0.139,1.016-0.416,1.303
			c-0.278,0.286-0.626,0.429-1.047,0.429c-0.591,0-1.009-0.223-1.256-0.665c-0.246-0.443-0.369-1.022-0.369-1.736
			C360.759,139.383,360.882,138.804,361.128,138.361 M360.28,142.303c0.404,0.636,0.995,0.953,1.771,0.953
			c0.447,0,0.808-0.078,1.081-0.233c0.274-0.154,0.512-0.366,0.714-0.635h0.013c-0.009,0.115-0.013,0.234-0.013,0.355v0.351
			c0,0.705-0.12,1.172-0.364,1.397c-0.243,0.225-0.629,0.338-1.157,0.338c-0.466,0-0.793-0.039-0.984-0.119
			c-0.19-0.08-0.389-0.213-0.595-0.399c-0.159-0.141-0.283-0.167-0.372-0.081l-0.32,0.314c-0.095,0.089-0.088,0.197,0.018,0.325
			c0.144,0.171,0.384,0.334,0.723,0.487c0.338,0.153,0.846,0.229,1.526,0.229c1.013,0,1.693-0.209,2.036-0.632
			c0.345-0.421,0.515-1.005,0.515-1.751V137.3c0-0.174-0.092-0.261-0.279-0.261h-0.521c-0.149,0-0.224,0.087-0.224,0.261v0.467
			c-0.213-0.257-0.454-0.459-0.722-0.605c-0.269-0.149-0.626-0.223-1.073-0.223c-0.776,0-1.367,0.317-1.771,0.953
			c-0.403,0.636-0.605,1.371-0.605,2.206S359.877,141.668,360.28,142.303 M354.197,143.157c0.175,0,0.262-0.087,0.262-0.263v-3.198
			c0-0.731,0.13-1.246,0.391-1.548c0.26-0.302,0.644-0.452,1.148-0.452c0.389,0,0.709,0.103,0.962,0.307
			c0.252,0.203,0.378,0.687,0.378,1.449v3.442c0,0.176,0.088,0.263,0.263,0.263h0.501c0.175,0,0.262-0.087,0.262-0.263v-3.725
			c0-0.691-0.155-1.236-0.464-1.634c-0.311-0.398-0.82-0.598-1.529-0.598c-0.436,0-0.8,0.069-1.093,0.205
			c-0.293,0.135-0.564,0.345-0.818,0.623V137.3c0-0.174-0.088-0.261-0.265-0.261h-0.495c-0.178,0-0.266,0.087-0.266,0.261v5.595
			c0,0.176,0.088,0.263,0.262,0.263H354.197z M351.517,135.931c0.175,0,0.262-0.088,0.262-0.261v-0.503
			c0-0.174-0.087-0.261-0.262-0.261h-0.501c-0.175,0-0.262,0.087-0.262,0.261v0.503c0,0.173,0.087,0.261,0.262,0.261H351.517z
			 M351.517,143.157c0.175,0,0.262-0.087,0.262-0.263V137.3c0-0.174-0.087-0.261-0.262-0.261h-0.501
			c-0.175,0-0.262,0.087-0.262,0.261v5.595c0,0.176,0.087,0.263,0.262,0.263H351.517z M344.944,143.157
			c0.175,0,0.261-0.087,0.261-0.263v-3.198c0-0.731,0.131-1.246,0.391-1.548c0.261-0.302,0.643-0.452,1.148-0.452
			c0.39,0,0.709,0.103,0.963,0.307c0.252,0.203,0.378,0.687,0.378,1.449v3.442c0,0.176,0.088,0.263,0.261,0.263h0.502
			c0.175,0,0.262-0.087,0.262-0.263v-3.725c0-0.691-0.154-1.236-0.464-1.634c-0.31-0.398-0.819-0.598-1.528-0.598
			c-0.438,0-0.801,0.069-1.094,0.205c-0.292,0.135-0.564,0.345-0.818,0.623V137.3c0-0.174-0.088-0.261-0.264-0.261h-0.496
			c-0.177,0-0.265,0.087-0.265,0.261v5.595c0,0.176,0.088,0.263,0.261,0.263H344.944z M340.736,143.157
			c0.176,0,0.263-0.087,0.263-0.263v-2.907c0-0.708,0.147-1.267,0.443-1.677c0.294-0.409,0.671-0.614,1.125-0.614
			c0.121,0,0.249,0.014,0.385,0.04c0.082,0.018,0.131-0.011,0.15-0.079l0.135-0.479c0.022-0.081-0.011-0.139-0.101-0.175
			c-0.102-0.042-0.276-0.064-0.526-0.064c-0.379,0-0.695,0.091-0.949,0.27c-0.255,0.178-0.475,0.442-0.662,0.792v-0.7
			c0-0.174-0.088-0.261-0.266-0.261h-0.494c-0.177,0-0.266,0.087-0.266,0.261v5.595c0,0.176,0.087,0.263,0.262,0.263H340.736z
			 M334.895,140.724c0.274-0.247,1.074-0.421,2.397-0.521v1.718c-0.283,0.249-0.559,0.402-0.826,0.46
			c-0.269,0.059-0.552,0.088-0.852,0.088c-0.393,0-0.678-0.067-0.858-0.203c-0.181-0.137-0.271-0.395-0.271-0.774
			C334.485,141.227,334.621,140.972,334.895,140.724 M333.939,142.799c0.344,0.304,0.834,0.457,1.471,0.457
			c0.362,0,0.689-0.048,0.982-0.144c0.294-0.094,0.593-0.263,0.899-0.504v0.286c0,0.176,0.078,0.263,0.23,0.263h0.53
			c0.177,0,0.266-0.087,0.266-0.263v-3.613c0-0.727-0.173-1.297-0.52-1.715c-0.344-0.418-0.924-0.628-1.735-0.628
			c-0.3,0-0.662,0.057-1.09,0.166c-0.428,0.111-0.8,0.319-1.119,0.621c-0.144,0.137-0.173,0.252-0.087,0.35l0.304,0.35
			c0.093,0.105,0.192,0.099,0.296-0.017c0.23-0.257,0.476-0.439,0.737-0.548c0.263-0.109,0.582-0.164,0.959-0.164
			c0.49,0,0.816,0.135,0.981,0.4s0.247,0.58,0.247,0.945v0.397c-1.284,0.055-2.252,0.242-2.897,0.564
			c-0.646,0.322-0.971,0.83-0.971,1.521C333.424,142.07,333.596,142.494,333.939,142.799 M332.084,143.157
			c0.213,0,0.32-0.087,0.32-0.263v-0.431c0-0.177-0.107-0.263-0.32-0.263h-4.447v-2.914h3.923c0.213,0,0.319-0.087,0.319-0.261
			v-0.432c0-0.176-0.106-0.264-0.319-0.264h-3.923v-2.574h4.271c0.214,0,0.321-0.087,0.321-0.263v-0.432
			c0-0.174-0.107-0.262-0.321-0.262h-5.098c-0.195,0-0.292,0.106-0.292,0.321v7.715c0,0.213,0.097,0.32,0.292,0.32H332.084z
			 M320.956,138.361c0.247-0.443,0.665-0.665,1.257-0.665c0.419,0,0.768,0.144,1.046,0.429c0.277,0.284,0.416,0.72,0.416,1.302
			v1.341c0,0.582-0.139,1.016-0.416,1.303c-0.278,0.286-0.627,0.429-1.046,0.429c-0.592,0-1.01-0.223-1.257-0.665
			c-0.246-0.443-0.37-1.022-0.37-1.736C320.586,139.383,320.71,138.804,320.956,138.361 M320.109,142.303
			c0.403,0.636,0.994,0.953,1.771,0.953c0.445,0,0.807-0.078,1.08-0.233c0.274-0.154,0.513-0.366,0.714-0.635h0.013
			c-0.009,0.115-0.013,0.234-0.013,0.355v0.351c0,0.705-0.121,1.172-0.364,1.397c-0.242,0.225-0.628,0.338-1.156,0.338
			c-0.466,0-0.795-0.039-0.984-0.119c-0.19-0.08-0.389-0.213-0.595-0.399c-0.159-0.141-0.284-0.167-0.373-0.081l-0.32,0.314
			c-0.094,0.089-0.088,0.197,0.018,0.325c0.144,0.171,0.384,0.334,0.722,0.487c0.339,0.153,0.848,0.229,1.527,0.229
			c1.014,0,1.692-0.209,2.036-0.632c0.344-0.421,0.517-1.005,0.517-1.751V137.3c0-0.174-0.094-0.261-0.28-0.261h-0.522
			c-0.148,0-0.224,0.087-0.224,0.261v0.467c-0.214-0.257-0.454-0.459-0.723-0.605c-0.268-0.149-0.626-0.223-1.071-0.223
			c-0.777,0-1.368,0.317-1.771,0.953c-0.404,0.636-0.606,1.371-0.606,2.206S319.705,141.668,320.109,142.303 M314.025,143.157
			c0.175,0,0.263-0.087,0.263-0.263v-3.198c0-0.731,0.13-1.246,0.39-1.548c0.261-0.302,0.644-0.452,1.148-0.452
			c0.388,0,0.708,0.103,0.962,0.307c0.252,0.203,0.378,0.687,0.378,1.449v3.442c0,0.176,0.087,0.263,0.263,0.263h0.501
			c0.175,0,0.262-0.087,0.262-0.263v-3.725c0-0.691-0.154-1.236-0.465-1.634c-0.31-0.398-0.818-0.598-1.527-0.598
			c-0.437,0-0.802,0.069-1.093,0.205c-0.293,0.135-0.565,0.345-0.818,0.623V137.3c0-0.174-0.089-0.261-0.266-0.261h-0.495
			c-0.177,0-0.265,0.087-0.265,0.261v5.595c0,0.176,0.087,0.263,0.262,0.263H314.025z M311.346,135.931
			c0.174,0,0.262-0.088,0.262-0.261v-0.503c0-0.174-0.088-0.261-0.262-0.261h-0.502c-0.175,0-0.262,0.087-0.262,0.261v0.503
			c0,0.173,0.087,0.261,0.262,0.261H311.346z M311.346,143.157c0.174,0,0.262-0.087,0.262-0.263V137.3
			c0-0.174-0.088-0.261-0.262-0.261h-0.502c-0.175,0-0.262,0.087-0.262,0.261v5.595c0,0.176,0.087,0.263,0.262,0.263H311.346z
			 M304.772,143.157c0.174,0,0.262-0.087,0.262-0.263v-3.198c0-0.731,0.13-1.246,0.391-1.548c0.26-0.302,0.643-0.452,1.147-0.452
			c0.389,0,0.709,0.103,0.961,0.307c0.254,0.203,0.38,0.687,0.38,1.449v3.442c0,0.176,0.087,0.263,0.262,0.263h0.502
			c0.174,0,0.262-0.087,0.262-0.263v-3.725c0-0.691-0.155-1.236-0.465-1.634c-0.31-0.398-0.819-0.598-1.528-0.598
			c-0.437,0-0.801,0.069-1.093,0.205c-0.292,0.135-0.565,0.345-0.818,0.623V137.3c0-0.174-0.089-0.261-0.266-0.261h-0.495
			c-0.176,0-0.265,0.087-0.265,0.261v5.595c0,0.176,0.088,0.263,0.263,0.263H304.772z M300.564,143.157
			c0.175,0,0.263-0.087,0.263-0.263v-2.907c0-0.708,0.147-1.267,0.442-1.677c0.296-0.409,0.671-0.614,1.126-0.614
			c0.12,0,0.248,0.014,0.385,0.04c0.081,0.018,0.131-0.011,0.15-0.079l0.134-0.479c0.023-0.081-0.01-0.139-0.099-0.175
			c-0.102-0.042-0.277-0.064-0.527-0.064c-0.38,0-0.695,0.091-0.949,0.27c-0.254,0.178-0.475,0.442-0.662,0.792v-0.7
			c0-0.174-0.089-0.261-0.265-0.261h-0.495c-0.178,0-0.266,0.087-0.266,0.261v5.595c0,0.176,0.088,0.263,0.263,0.263H300.564z
			 M294.723,140.724c0.274-0.247,1.074-0.421,2.398-0.521v1.718c-0.284,0.249-0.56,0.402-0.827,0.46
			c-0.268,0.059-0.552,0.088-0.852,0.088c-0.392,0-0.679-0.067-0.859-0.203c-0.181-0.137-0.271-0.395-0.271-0.774
			C294.313,141.227,294.449,140.972,294.723,140.724 M293.768,142.799c0.344,0.304,0.834,0.457,1.472,0.457
			c0.361,0,0.688-0.048,0.981-0.144c0.293-0.094,0.594-0.263,0.9-0.504v0.286c0,0.176,0.077,0.263,0.229,0.263h0.531
			c0.177,0,0.265-0.087,0.265-0.263v-3.613c0-0.727-0.173-1.297-0.519-1.715s-0.925-0.628-1.736-0.628
			c-0.299,0-0.662,0.057-1.09,0.166c-0.427,0.111-0.8,0.319-1.119,0.621c-0.143,0.137-0.173,0.252-0.087,0.35l0.303,0.35
			c0.094,0.105,0.192,0.099,0.297-0.017c0.229-0.257,0.476-0.439,0.737-0.548c0.263-0.109,0.582-0.164,0.959-0.164
			c0.489,0,0.817,0.135,0.982,0.4c0.164,0.266,0.247,0.58,0.247,0.945v0.397c-1.286,0.055-2.252,0.242-2.898,0.564
			c-0.647,0.322-0.971,0.83-0.971,1.521C293.252,142.07,293.424,142.494,293.768,142.799 M288.474,138.144
			c0.314-0.299,0.697-0.447,1.148-0.447c0.513,0,0.901,0.203,1.165,0.608s0.404,0.876,0.419,1.415h-3.292
			C287.973,138.967,288.159,138.44,288.474,138.144 M287.544,142.4c0.461,0.569,1.177,0.855,2.147,0.855
			c0.746,0,1.293-0.123,1.641-0.371c0.347-0.247,0.559-0.425,0.632-0.538c0.09-0.136,0.09-0.242,0-0.319l-0.343-0.297
			c-0.117-0.102-0.237-0.07-0.362,0.094c-0.113,0.147-0.291,0.296-0.534,0.447c-0.242,0.152-0.59,0.228-1.044,0.228
			c-0.431,0-0.815-0.147-1.156-0.441c-0.34-0.295-0.544-0.817-0.61-1.57h4.084c0.159,0,0.239-0.087,0.239-0.261
			c0-1.147-0.245-1.981-0.736-2.504c-0.492-0.522-1.11-0.784-1.856-0.784c-0.896,0-1.587,0.286-2.068,0.857
			s-0.723,1.338-0.723,2.302C286.854,141.061,287.084,141.829,287.544,142.4 M285.712,143.157c0.214,0,0.32-0.087,0.32-0.263v-0.431
			c0-0.177-0.106-0.263-0.32-0.263h-3.864v-7.079c0-0.215-0.097-0.321-0.29-0.321h-0.537c-0.194,0-0.291,0.106-0.291,0.321v7.715
			c0,0.213,0.097,0.32,0.291,0.32H285.712z"/>
		<path fill="#FAA634" d="M421.51,120.548c-0.174-0.52-0.409-1.014-0.706-1.485c-0.297-0.471-0.647-0.884-1.053-1.237
			c-0.404-0.355-0.846-0.615-1.324-0.781c-0.529-0.164-1.148-0.31-1.857-0.434c-0.711-0.123-1.449-0.227-2.216-0.31
			c-0.769-0.083-1.52-0.156-2.255-0.222c-0.734-0.066-1.374-0.126-1.919-0.174c-0.065,0-0.243-0.016-0.532-0.049
			s-0.595-0.065-0.916-0.101c-0.321-0.032-0.616-0.065-0.88-0.098c-0.264-0.033-0.404-0.059-0.421-0.075
			c-0.066-0.082-0.103-0.197-0.11-0.347c-0.009-0.148-0.014-0.271-0.014-0.372c0-0.197,0.008-0.392,0.025-0.582
			c0.017-0.189,0.065-0.374,0.148-0.556c0.461-0.033,0.851-0.063,1.164-0.088c0.313-0.024,0.64-0.045,0.979-0.063
			c0.338-0.016,0.606-0.023,0.805-0.023c1.584-0.065,3.157-0.112,4.718-0.138c1.56-0.023,3.124-0.052,4.692-0.086
			c-0.048-0.478-0.099-0.961-0.148-1.449c-0.049-0.486-0.074-0.969-0.074-1.447s0.004-0.953,0.014-1.426
			c0.008-0.47,0.02-0.943,0.035-1.422c-1.188-0.232-2.377-0.422-3.565-0.57c-1.189-0.148-2.394-0.224-3.615-0.224
			c-1.041,0-2.126,0.075-3.257,0.224s-2.192,0.413-3.183,0.792c-0.578,0.231-1.064,0.524-1.461,0.88
			c-0.396,0.354-0.723,0.764-0.979,1.227c-0.256,0.462-0.441,0.961-0.557,1.498c-0.115,0.536-0.173,1.102-0.173,1.696
			c0,0.362,0.036,0.809,0.111,1.336c0.073,0.529,0.197,1.053,0.37,1.572c0.174,0.521,0.405,0.983,0.694,1.389
			c0.289,0.403,0.64,0.663,1.053,0.779c0.429,0.131,0.895,0.222,1.398,0.272c0.504,0.05,0.995,0.099,1.475,0.148
			c1.056,0.083,2.107,0.141,3.157,0.174c1.048,0.032,2.101,0.091,3.157,0.174c0.016,0,0.074,0.003,0.173,0.012
			c0.1,0.009,0.207,0.017,0.323,0.024c0.114,0.009,0.218,0.021,0.308,0.037c0.091,0.018,0.146,0.033,0.161,0.05
			c0.101,0.165,0.175,0.376,0.224,0.631c0.049,0.257,0.074,0.476,0.074,0.657c0,0.099-0.009,0.21-0.025,0.335
			c-0.017,0.122-0.057,0.218-0.123,0.283c-0.083,0.067-0.202,0.116-0.359,0.15c-0.157,0.033-0.326,0.057-0.507,0.073
			c-0.183,0.016-0.356,0.025-0.521,0.025h-0.371c-0.496,0-0.986-0.01-1.474-0.025c-0.487-0.017-0.971-0.032-1.449-0.05
			c-1.238-0.033-2.472-0.063-3.702-0.086c-1.229-0.025-2.465-0.054-3.702-0.088c0.147,1.652,0.197,3.319,0.147,5.003
			c1.041,0.065,2.069,0.116,3.085,0.148c1.015,0.033,2.043,0.051,3.082,0.051c0.61,0,1.37-0.008,2.279-0.025
			c0.907-0.016,1.832-0.054,2.772-0.111c0.942-0.058,1.85-0.158,2.725-0.297c0.875-0.142,1.602-0.335,2.18-0.582
			c0.693-0.298,1.229-0.689,1.608-1.177c0.381-0.487,0.57-1.127,0.57-1.919C421.77,121.576,421.684,121.069,421.51,120.548
			 M399.933,122.642c-0.017-1.388-0.083-2.782-0.197-4.186c-1.139,0-2.283,0.005-3.43,0.013c-1.148,0.008-2.291-0.028-3.431-0.111
			l0.224,4.779h-4.385c-0.131-0.313-0.256-0.719-0.37-1.213c-0.116-0.496-0.216-1.016-0.298-1.561
			c-0.083-0.546-0.152-1.078-0.21-1.598c-0.06-0.52-0.087-0.971-0.087-1.351c0-0.18,0.008-0.411,0.024-0.691
			c0.017-0.282,0.046-0.566,0.087-0.856c0.041-0.288,0.099-0.564,0.173-0.829c0.075-0.265,0.161-0.47,0.26-0.618
			c0.199-0.297,0.545-0.532,1.041-0.707c0.495-0.173,1.027-0.306,1.597-0.395c0.569-0.091,1.128-0.153,1.672-0.187
			c0.545-0.032,0.981-0.05,1.313-0.05c1.799,0,3.541,0.265,5.225,0.792l-0.198-5.299c-1.767-0.348-3.533-0.521-5.3-0.521
			c-0.825,0-1.729,0.046-2.712,0.137c-0.981,0.092-1.936,0.281-2.86,0.569c-0.924,0.289-1.771,0.694-2.538,1.214
			s-1.35,1.21-1.746,2.067c-0.083,0.199-0.148,0.446-0.198,0.743c-0.049,0.298-0.086,0.612-0.111,0.942
			c-0.024,0.33-0.041,0.648-0.05,0.953c-0.008,0.305-0.012,0.564-0.012,0.779c0,1.174,0.041,2.341,0.124,3.505
			c0.082,1.165,0.197,2.324,0.347,3.479c0.049,0.445,0.106,0.847,0.173,1.201c0.065,0.354,0.173,0.677,0.322,0.966
			c0.148,0.288,0.358,0.545,0.631,0.767c0.273,0.224,0.648,0.426,1.127,0.607c0.231,0.083,0.491,0.136,0.78,0.161
			c0.288,0.025,0.549,0.054,0.78,0.086c1.998,0.231,4.041,0.381,6.129,0.446c2.089,0.065,4.132,0.116,6.13,0.148
			C399.958,125.423,399.949,124.028,399.933,122.642 M380.177,113.329c-0.049-1.699-0.108-3.408-0.175-5.127l-5.001-0.593
			c0.033,2.08,0.077,4.144,0.136,6.19s0.095,4.104,0.111,6.168c-0.479-1.29-0.957-2.571-1.437-3.854
			c-0.479-1.278-0.907-2.57-1.288-3.874c-0.264-0.857-0.539-1.704-0.829-2.538c-0.288-0.834-0.599-1.664-0.929-2.488l-9.683,0.048
			c0.164,3.171,0.28,6.324,0.346,9.462c0.066,3.136,0.141,6.289,0.224,9.46l5.349,0.146c0.1-2.227,0.228-4.444,0.384-6.649
			c0.158-2.203,0.31-4.419,0.459-6.648c0.413,1.024,0.825,2.039,1.237,3.047c0.413,1.006,0.851,2.014,1.313,3.021
			c0.627,1.371,1.255,2.728,1.882,4.073c0.628,1.346,1.254,2.704,1.883,4.073c0.494-0.083,0.994-0.148,1.498-0.197
			c0.503-0.05,1.003-0.075,1.498-0.075c1.007,0,2.022,0.025,3.046,0.075c0.017-1.453,0.028-2.886,0.037-4.297
			c0.008-1.411,0.012-2.844,0.012-4.297C380.25,116.739,380.227,115.03,380.177,113.329 M352.532,108.588
			c-1.774,0.091-3.562,0.169-5.362,0.234c0.033,0.693,0.063,1.384,0.088,2.068c0.024,0.685,0.053,1.374,0.087,2.067l2.353,0.298
			c0.115,1.535,0.227,3.063,0.334,4.582c0.107,1.518,0.201,3.053,0.285,4.605l-1.609,0.024c0.048,0.81,0.08,1.605,0.098,2.39
			c0.016,0.784,0.025,1.581,0.025,2.39l8.89-0.148c-0.083-0.396-0.136-0.801-0.159-1.213c-0.025-0.413-0.038-0.826-0.038-1.237
			v-1.487c0-0.494,0.016-0.982,0.049-1.461l-2.525-0.049c-0.016-0.695-0.029-1.376-0.037-2.044
			c-0.009-0.668-0.013-1.351-0.013-2.042c0-0.579,0.004-1.148,0.013-1.709c0.008-0.562,0.021-1.132,0.037-1.71l2.749,0.1
			c0.033-0.99,0.041-1.985,0.024-2.984c-0.017-0.998,0.017-2.001,0.1-3.009C356.102,108.386,354.307,108.497,352.532,108.588"/>
		<path fill="#8DC63F" d="M344.676,113.329c-0.051-1.699-0.107-3.408-0.174-5.127l-5.002-0.593c0.032,2.08,0.078,4.144,0.136,6.19
			s0.095,4.104,0.112,6.166c-0.48-1.288-0.958-2.571-1.438-3.85c-0.479-1.28-0.907-2.571-1.287-3.876
			c-0.265-0.859-0.542-1.704-0.83-2.538c-0.289-0.834-0.599-1.664-0.928-2.49l-9.685,0.05c0.165,3.169,0.281,6.324,0.348,9.46
			c0.065,3.138,0.141,6.291,0.223,9.462l5.35,0.148c0.099-2.23,0.227-4.446,0.383-6.649c0.157-2.205,0.311-4.421,0.459-6.65
			c0.412,1.024,0.824,2.039,1.238,3.047c0.412,1.008,0.851,2.014,1.313,3.021c0.627,1.369,1.255,2.728,1.882,4.073
			c0.628,1.346,1.255,2.702,1.882,4.073c0.496-0.083,0.995-0.148,1.499-0.198c0.503-0.049,1.003-0.074,1.497-0.074
			c1.008,0,2.022,0.025,3.047,0.074c0.016-1.452,0.028-2.885,0.036-4.296s0.014-2.845,0.014-4.297
			C344.75,116.739,344.725,115.03,344.676,113.329 M317.031,113.997c-0.008,0.199-0.017,0.401-0.025,0.607
			c-0.008,0.207-0.028,0.405-0.062,0.595s-0.074,0.317-0.123,0.384c-0.116,0.148-0.318,0.269-0.607,0.359
			c-0.288,0.091-0.603,0.16-0.94,0.21c-0.339,0.05-0.669,0.083-0.991,0.1c-0.321,0.016-0.565,0.025-0.73,0.025
			c-0.38,0-0.768-0.018-1.164-0.05c-0.396-0.033-0.776-0.091-1.139-0.174l-0.669-4.805c0.627-0.099,1.259-0.181,1.895-0.247
			c0.635-0.065,1.283-0.099,1.943-0.099c0.083,0,0.227,0.004,0.434,0.012c0.207,0.009,0.422,0.024,0.645,0.05
			c0.223,0.024,0.434,0.053,0.631,0.086c0.198,0.034,0.338,0.083,0.422,0.148c0.115,0.099,0.206,0.252,0.272,0.459
			c0.065,0.206,0.115,0.429,0.147,0.668c0.033,0.239,0.055,0.474,0.063,0.706c0.008,0.231,0.013,0.413,0.013,0.546
			C317.044,113.659,317.039,113.8,317.031,113.997 M322.108,111.162c-0.454-0.883-1.103-1.589-1.944-2.117
			c-0.347-0.213-0.739-0.389-1.177-0.52c-0.438-0.132-0.892-0.235-1.361-0.311c-0.471-0.073-0.938-0.118-1.399-0.136
			c-0.462-0.016-0.892-0.025-1.288-0.025c-1.552,0-3.1,0.051-4.644,0.148c-1.544,0.101-3.092,0.191-4.643,0.272
			c-0.1,2.676-0.174,5.351-0.224,8.025c-0.017,1.502-0.074,3.009-0.173,4.519c-0.1,1.511-0.207,3.025-0.322,4.545
			c0.462,0.05,0.921,0.083,1.375,0.099c0.453,0.018,0.92,0.025,1.398,0.025c0.941,0,1.882-0.025,2.824-0.074l-0.125-5.622
			c0.528-0.033,1.062-0.074,1.598-0.124c0.536-0.049,1.077-0.091,1.622-0.123c0.479,1.237,0.85,2.419,1.114,3.541
			c0.265,1.123,0.463,2.354,0.595,3.689l7.231-0.173c-1.223-2.856-2.65-5.646-4.285-8.371c1.354-0.065,2.444-0.486,3.27-1.263
			s1.238-1.841,1.238-3.194C322.789,112.983,322.563,112.046,322.108,111.162 M291.69,118.654c0.016-0.032,0.045-0.156,0.086-0.371
			c0.042-0.216,0.096-0.471,0.161-0.768c0.065-0.298,0.137-0.612,0.211-0.942c0.074-0.329,0.147-0.64,0.223-0.928
			c0.074-0.29,0.136-0.532,0.186-0.731c0.05-0.197,0.091-0.305,0.124-0.322c0.049-0.048,0.145-0.091,0.285-0.123
			c0.14-0.033,0.288-0.054,0.445-0.062c0.157-0.009,0.305-0.013,0.446-0.013h0.334h0.272c0.132,0,0.269,0.008,0.409,0.025
			c0.14,0.016,0.271,0.033,0.396,0.049c0.124,0.017,0.202,0.032,0.235,0.05c0.099,0.065,0.202,0.285,0.31,0.655
			c0.106,0.373,0.202,0.784,0.285,1.24c0.082,0.453,0.157,0.882,0.223,1.286c0.065,0.405,0.107,0.682,0.124,0.831L291.69,118.654z
			 M301.855,122.369c-0.239-1.322-0.457-2.658-0.655-4.012c-0.281-1.719-0.549-3.431-0.805-5.14
			c-0.257-1.709-0.517-3.422-0.78-5.139c-1.47-0.049-2.939-0.073-4.408-0.073c-1.206,0-2.398,0.065-3.579,0.196
			c-1.181,0.134-2.364,0.298-3.554,0.496c-0.23,2.791-0.471,5.571-0.718,8.346c-0.248,2.774-0.487,5.563-0.719,8.371h3.814
			l0.768-3.294l6.093-0.223c0.247,0.842,0.503,1.679,0.768,2.514c0.264,0.834,0.527,1.671,0.792,2.515l3.765-0.571
			C302.355,125.019,302.096,123.69,301.855,122.369 M284.217,108.054c-1.007-0.048-2.01-0.094-3.009-0.136
			c-0.999-0.041-2.002-0.062-3.009-0.062c-1.321,0-2.63,0.004-3.925,0.013c-1.297,0.008-2.598,0.003-3.901-0.013
			c0.033,1.14,0.066,2.267,0.099,3.381c0.033,1.114,0.05,2.232,0.05,3.354v0.472c0,1.948-0.032,3.879-0.099,5.794
			c-0.066,1.916-0.124,3.839-0.174,5.771c2.345,0,4.672-0.014,6.984-0.037c2.311-0.025,4.64-0.03,6.983-0.013
			c-0.215-0.793-0.38-1.605-0.495-2.439c-0.116-0.834-0.231-1.664-0.347-2.488c-1.271,0.115-2.53,0.252-3.777,0.408
			c-1.246,0.156-2.497,0.275-3.751,0.358l-0.372-3.07l5.944-1.064c0-0.231,0.004-0.471,0.012-0.72
			c0.009-0.247,0.013-0.484,0.013-0.717c0-0.562-0.021-1.115-0.063-1.66c-0.041-0.544-0.103-1.097-0.186-1.658l-6.389,0.37
			l0.049-1.956c1.618-0.131,3.224-0.244,4.817-0.335c1.592-0.091,3.198-0.177,4.816-0.26L284.217,108.054z"/>
		<path fill="#FAA634" d="M268.126,121.181c-1.074-0.033-2.143-0.051-3.208-0.051c-1.064,0-2.142-0.016-3.231-0.05
			c0.033-1.039,0.07-2.075,0.111-3.107c0.041-1.031,0.095-2.067,0.162-3.108c0.081-1.237,0.201-2.471,0.358-3.702
			c0.156-1.23,0.325-2.456,0.508-3.678c-1.091,0.085-2.171,0.15-3.245,0.198c-1.072,0.051-2.162,0.083-3.269,0.099
			c0.132,3.171,0.224,6.312,0.272,9.424c0.05,3.111,0.115,6.244,0.198,9.399c1.965-0.116,3.917-0.24,5.857-0.373
			c1.939-0.131,3.892-0.272,5.856-0.421L268.126,121.181z"/>
	</g>
	<polygon fill="#FFFFFF" points="333.592,51.618 335.898,58.718 329.854,54.331 323.84,58.718 326.146,51.618 320.163,47.264 
		327.563,47.264 329.854,40.209 332.175,47.264 339.575,47.264 	"/>
	<polygon fill="#FAA634" points="332.846,52.364 335.151,59.463 329.108,55.077 323.094,59.463 325.4,52.364 319.417,48.009 
		326.817,48.009 329.108,40.955 331.429,48.009 338.829,48.009 	"/>
</g>
<text font-family="times" text-anchor="middle" font-size="28pt" font-weight="bold" x="338" y="260" fill="black" class="student_name" ><tspan><%= name %></tspan></text>
<text font-family="times" text-anchor="middle" font-size="18pt" font-weight="bold" x="338" y="285" class="school_name" fill="black" ><tspan><%= school_name %></tspan></text>
<line fill="none" stroke="#000000" x1="156.677" y1="264.938" x2="519.689" y2="264.938"/>
<image overflow="visible" width="666" height="428" xlink:href="images/rewardimage/charity_turtles_1.jpg"  transform="matrix(0.2253 -0.0973 0.0973 0.2253 21.541 104.1699)">
</image>
<image overflow="visible" width="666" height="428" xlink:href="images/rewardimage/charity_turtles_2.jpg"  transform="matrix(-0.2199 -0.1089 -0.1089 0.2199 657.5342 109.1904)">
</image>
<text transform="matrix(1 0 0 1 97.0864 182.1758)"><tspan x="0" y="0" font-family="times" font-size="29">LearningEarnings.com is proud to present</tspan><tspan x="50.687" y="34.801" font-family="times" font-size="29">this Certificate of Appreciation to</tspan></text>
</svg>
