<!DOCTYPE svg PUBLIC "-//W3C//DTD SVG 1.1//EN" "http://www.w3.org/Graphics/SVG/1.1/DTD/svg11.dtd">
<svg version="1.1" xmlns="http://www.w3.org/2000/svg" xmlns:xlink="http://www.w3.org/1999/xlink" x="0px" y="0px"
	 width="678.082px" height="500.002px" viewBox="0 0 678.082 500.002" enable-background="new 0 0 678.082 500.002"
	 xml:space="preserve">
<rect fill="#A97C50" width="678.082" height="500.002"/>
<path fill="#FFFFFF" d="M634.098,468.48c0,6.627-5.031,12-11.236,12H55.221c-6.206,0-11.236-5.373-11.236-12V31.521
	c0-6.627,5.03-12,11.236-12h567.641c6.205,0,11.236,5.373,11.236,12V468.48z"/>
<text transform="matrix(1 0 0 1 94.8691 167.8096)"><tspan x="0" y="0" font-family="times" font-size="29">LearningEarnings.com is proud to present</tspan><tspan x="50.687" y="34.8" font-family="times" font-size="29">this Certificate of Appreciation to</tspan></text>
<text transform="matrix(1 0 0 1 103.8809 322.6045)"><tspan x="0" y="0" font-family="times" font-size="29">in recognition of your generosity towards</tspan><tspan x="73.718" y="34.799" font-family="times" font-size="29">the cause of saving a puppy.</tspan></text>
<text font-family="times" text-anchor="middle" font-size="28pt" font-weight="bold" x="338" y="260" fill="black" class="student_name" ><tspan><%= name %></tspan></text>
<text font-family="times" text-anchor="middle" font-size="18pt" font-weight="bold" x="338" y="285" class="school_name" fill="black" ><tspan><%= school_name %></tspan></text>
<line fill="none" stroke="#000000" x1="156.678" y1="264.939" x2="519.69" y2="264.939"/>
<g>
	<g>
		<path fill="#8DC63F" d="M334.836,90.676c18.052,0,32.685-14.633,32.685-32.685s-14.633-32.685-32.685-32.685
			c-18.051,0-32.685,14.633-32.685,32.685S316.785,90.676,334.836,90.676"/>
		<circle fill="none" stroke="#FAA634" stroke-width="4" cx="334.836" cy="57.991" r="32.685"/>
		<path fill="#FFFFFF" d="M352.405,37.025c-1.643-0.08-3.281-0.153-4.91-0.222c-1.629-0.066-3.268-0.102-4.91-0.102
			c-2.156,0-4.29,0.008-6.404,0.021c-2.116,0.014-4.237,0.006-6.367-0.021c0.055,1.859,0.109,3.699,0.163,5.517
			c0.054,1.819,0.08,3.646,0.08,5.478v0.767c0,3.181-0.054,6.332-0.161,9.457c-0.109,3.126-0.201,6.265-0.283,9.417
			c3.825,0,7.625-0.021,11.396-0.061c3.771-0.041,7.57-0.048,11.396-0.021c-0.35-1.293-0.619-2.619-0.809-3.98
			c-0.188-1.36-0.375-2.714-0.564-4.062c-2.074,0.189-4.129,0.41-6.164,0.666s-4.074,0.452-6.122,0.586l-0.605-5.01l9.7-1.739
			c0-0.377,0.004-0.768,0.02-1.172c0.012-0.404,0.02-0.794,0.02-1.172c0-0.916-0.035-1.818-0.102-2.707
			c-0.066-0.89-0.168-1.793-0.303-2.708l-10.428,0.606l0.081-3.193c2.64-0.216,5.261-0.397,7.862-0.545
			c2.598-0.148,5.219-0.29,7.859-0.425L352.405,37.025z"/>
		<path fill="#FFFFFF" d="M353.202,70.736c-1.754-0.055-20.418-0.081-22.156-0.081c-1.737,0-3.495-0.025-5.274-0.081
			c0.054-1.697,0.115-3.388,0.183-5.071c0.066-1.685,0.154-3.375,0.263-5.072c0.134-2.021,0.329-4.035,0.585-6.042
			s0.472-4.346,0.77-6.34c-1.779,0.135-3.545,0.243-5.295,0.323c-1.752,0.081-3.53,0.135-5.335,0.162
			c0.215,5.173,0.425,10.638,0.505,15.715c0.081,5.08,0.188,10.192,0.323,15.339c3.206-0.189,6.392-0.391,9.558-0.606
			c3.166-0.217,23.273-0.444,26.48-0.688L353.202,70.736z"/>
		<path fill="#8DC63F" d="M383.364,135.606c0.168,0,0.25-0.085,0.25-0.253v-3.075c0-0.702,0.123-1.198,0.371-1.487
			c0.244-0.291,0.551-0.436,0.916-0.436c0.375,0,0.652,0.109,0.832,0.324c0.18,0.213,0.27,0.688,0.27,1.418v3.256
			c0,0.168,0.084,0.253,0.25,0.253h0.484c0.168,0,0.252-0.085,0.252-0.253v-3.075c0-0.643,0.123-1.124,0.367-1.442
			c0.246-0.319,0.553-0.48,0.918-0.48c0.373,0,0.65,0.109,0.832,0.324c0.178,0.213,0.268,0.688,0.268,1.418v3.256
			c0,0.168,0.084,0.253,0.254,0.253h0.48c0.17,0,0.252-0.085,0.252-0.253v-3.58c0-0.666-0.148-1.189-0.447-1.571
			c-0.299-0.384-0.742-0.575-1.326-0.575c-0.354,0-0.682,0.077-0.992,0.23c-0.309,0.154-0.566,0.342-0.77,0.566h-0.021
			c-0.074-0.178-0.24-0.355-0.496-0.531s-0.625-0.266-1.102-0.266c-0.256,0-0.529,0.066-0.809,0.197
			c-0.281,0.129-0.541,0.331-0.783,0.6v-0.449c0-0.166-0.082-0.251-0.254-0.251h-0.475c-0.172,0-0.256,0.085-0.256,0.251v5.379
			c0,0.168,0.084,0.253,0.252,0.253H383.364z M377.386,130.923c0.311-0.378,0.721-0.567,1.234-0.567
			c0.512,0,0.922,0.189,1.232,0.567c0.309,0.376,0.463,0.957,0.463,1.742c0,0.784-0.154,1.364-0.463,1.742
			c-0.311,0.376-0.721,0.565-1.232,0.565c-0.514,0-0.924-0.189-1.234-0.565c-0.311-0.378-0.465-0.958-0.465-1.742
			C376.921,131.88,377.075,131.299,377.386,130.923 M376.577,134.841c0.465,0.575,1.145,0.86,2.043,0.86
			c0.895,0,1.576-0.285,2.041-0.86c0.465-0.573,0.695-1.299,0.695-2.176c0-0.879-0.23-1.604-0.695-2.177
			c-0.465-0.574-1.146-0.861-2.041-0.861c-0.898,0-1.578,0.287-2.043,0.861c-0.467,0.572-0.699,1.298-0.699,2.177
			C375.878,133.542,376.11,134.268,376.577,134.841 M370.784,134.841c0.434,0.575,1.1,0.86,1.996,0.86
			c0.707,0,1.225-0.145,1.557-0.436c0.33-0.288,0.541-0.514,0.633-0.674c0.08-0.135,0.063-0.235-0.049-0.304l-0.375-0.222
			c-0.125-0.076-0.234-0.024-0.33,0.15c-0.102,0.186-0.262,0.359-0.482,0.518s-0.537,0.238-0.953,0.238
			c-0.512,0-0.906-0.189-1.188-0.565c-0.279-0.378-0.42-0.958-0.42-1.742c0-0.785,0.141-1.366,0.42-1.742
			c0.281-0.378,0.676-0.567,1.188-0.567c0.393,0,0.686,0.062,0.883,0.186c0.197,0.123,0.348,0.271,0.457,0.443
			c0.113,0.18,0.223,0.229,0.336,0.15l0.352-0.23c0.113-0.073,0.131-0.173,0.053-0.296c-0.145-0.224-0.373-0.444-0.693-0.659
			c-0.318-0.213-0.781-0.322-1.387-0.322c-0.896,0-1.563,0.287-1.996,0.861c-0.436,0.572-0.654,1.298-0.654,2.177
			C370.13,133.542,370.349,134.268,370.784,134.841 M368.288,135.606c0.168,0,0.25-0.085,0.25-0.253v-0.685
			c0-0.167-0.082-0.251-0.25-0.251h-0.629c-0.166,0-0.25,0.084-0.25,0.251v0.685c0,0.168,0.084,0.253,0.25,0.253H368.288z
			 M362.241,135.463c0.398,0.158,0.873,0.238,1.43,0.238c0.412,0,0.762-0.047,1.055-0.139c0.291-0.09,0.555-0.273,0.791-0.551
			s0.355-0.613,0.355-1.014c0-0.217-0.027-0.414-0.084-0.592c-0.055-0.177-0.158-0.342-0.305-0.494
			c-0.148-0.154-0.357-0.295-0.631-0.422c-0.207-0.098-0.441-0.179-0.701-0.246c-0.26-0.066-0.547-0.143-0.861-0.225
			c-0.199-0.051-0.357-0.12-0.471-0.207c-0.111-0.085-0.188-0.18-0.23-0.281c-0.039-0.104-0.061-0.221-0.061-0.352
			c0-0.171,0.053-0.32,0.156-0.448c0.105-0.126,0.242-0.216,0.408-0.269c0.17-0.052,0.373-0.078,0.607-0.078
			c0.189,0,0.412,0.043,0.666,0.129s0.449,0.176,0.588,0.273c0.164,0.116,0.285,0.121,0.363,0.012l0.252-0.336
			c0.086-0.111,0.07-0.211-0.049-0.297c-0.205-0.146-0.449-0.271-0.73-0.379c-0.283-0.105-0.654-0.16-1.119-0.16
			c-0.314,0-0.637,0.049-0.969,0.144c-0.334,0.097-0.609,0.273-0.828,0.536c-0.221,0.261-0.332,0.572-0.332,0.936
			c0,0.354,0.068,0.633,0.205,0.836s0.297,0.364,0.48,0.483c0.18,0.117,0.375,0.208,0.58,0.273c0.307,0.098,0.555,0.17,0.744,0.217
			s0.377,0.105,0.568,0.178c0.115,0.04,0.232,0.096,0.355,0.169c0.121,0.072,0.211,0.166,0.27,0.285
			c0.057,0.117,0.084,0.242,0.084,0.377c0,0.23-0.059,0.414-0.182,0.555c-0.119,0.137-0.26,0.231-0.422,0.281
			c-0.16,0.051-0.344,0.076-0.549,0.076c-0.348,0-0.656-0.051-0.926-0.151c-0.271-0.101-0.518-0.235-0.738-0.403
			c-0.158-0.123-0.281-0.13-0.365-0.018l-0.25,0.354c-0.068,0.093-0.045,0.194,0.072,0.301
			C361.585,135.168,361.843,135.305,362.241,135.463 M356.608,130.995c0.238-0.426,0.641-0.64,1.209-0.64
			c0.402,0,0.738,0.139,1.006,0.412c0.266,0.273,0.398,0.692,0.398,1.252v1.289c0,0.561-0.133,0.977-0.398,1.252
			c-0.268,0.275-0.604,0.412-1.006,0.412c-0.568,0-0.971-0.213-1.209-0.639c-0.236-0.426-0.355-0.982-0.355-1.669
			C356.253,131.978,356.372,131.421,356.608,130.995 M355.794,134.785c0.389,0.611,0.957,0.916,1.703,0.916
			c0.43,0,0.777-0.075,1.039-0.225c0.264-0.148,0.492-0.352,0.686-0.61h0.014c-0.01,0.111-0.014,0.226-0.014,0.341v0.338
			c0,0.679-0.115,1.127-0.35,1.344c-0.232,0.217-0.604,0.324-1.111,0.324c-0.447,0-0.762-0.037-0.947-0.114
			c-0.184-0.077-0.373-0.204-0.57-0.384c-0.154-0.135-0.273-0.16-0.359-0.078l-0.309,0.303c-0.088,0.086-0.084,0.189,0.018,0.313
			c0.139,0.164,0.369,0.32,0.695,0.469c0.324,0.146,0.813,0.221,1.467,0.221c0.975,0,1.627-0.201,1.957-0.607
			c0.334-0.405,0.496-0.967,0.496-1.684v-5.676c0-0.166-0.088-0.251-0.268-0.251h-0.502c-0.145,0-0.217,0.085-0.217,0.251v0.449
			c-0.203-0.248-0.434-0.441-0.691-0.583c-0.26-0.143-0.604-0.214-1.033-0.214c-0.746,0-1.314,0.307-1.703,0.916
			c-0.387,0.611-0.582,1.318-0.582,2.122C355.212,133.467,355.407,134.174,355.794,134.785 M349.944,135.606
			c0.17,0,0.254-0.085,0.254-0.253v-3.075c0-0.702,0.123-1.198,0.375-1.487c0.25-0.291,0.619-0.436,1.104-0.436
			c0.373,0,0.682,0.1,0.924,0.295c0.244,0.195,0.365,0.66,0.365,1.393v3.311c0,0.168,0.084,0.253,0.252,0.253h0.48
			c0.17,0,0.254-0.085,0.254-0.253v-3.58c0-0.666-0.15-1.189-0.447-1.571c-0.299-0.384-0.789-0.575-1.471-0.575
			c-0.42,0-0.77,0.066-1.049,0.197c-0.283,0.129-0.545,0.331-0.787,0.6v-0.449c0-0.166-0.086-0.251-0.254-0.251h-0.477
			c-0.172,0-0.256,0.085-0.256,0.251v5.379c0,0.168,0.084,0.253,0.252,0.253H349.944z M347.368,128.658
			c0.168,0,0.252-0.084,0.252-0.251v-0.483c0-0.167-0.084-0.25-0.252-0.25h-0.48c-0.168,0-0.254,0.083-0.254,0.25v0.483
			c0,0.167,0.086,0.251,0.254,0.251H347.368z M347.368,135.606c0.168,0,0.252-0.085,0.252-0.253v-5.379
			c0-0.166-0.084-0.251-0.252-0.251h-0.48c-0.168,0-0.254,0.085-0.254,0.251v5.379c0,0.168,0.086,0.253,0.254,0.253H347.368z
			 M341.05,135.606c0.166,0,0.25-0.085,0.25-0.253v-3.075c0-0.702,0.127-1.198,0.377-1.487c0.25-0.291,0.617-0.436,1.104-0.436
			c0.375,0,0.682,0.1,0.926,0.295c0.242,0.195,0.363,0.66,0.363,1.393v3.311c0,0.168,0.084,0.253,0.252,0.253h0.48
			c0.168,0,0.252-0.085,0.252-0.253v-3.58c0-0.666-0.148-1.189-0.445-1.571c-0.299-0.384-0.787-0.575-1.469-0.575
			c-0.422,0-0.77,0.066-1.053,0.197c-0.281,0.129-0.543,0.331-0.787,0.6v-0.449c0-0.166-0.084-0.251-0.254-0.251h-0.477
			c-0.17,0-0.254,0.085-0.254,0.251v5.379c0,0.168,0.084,0.253,0.252,0.253H341.05z M337.005,135.606
			c0.168,0,0.252-0.085,0.252-0.253v-2.795c0-0.68,0.142-1.218,0.427-1.611c0.282-0.395,0.645-0.592,1.081-0.592
			c0.115,0,0.238,0.014,0.369,0.039c0.078,0.017,0.127-0.01,0.145-0.076l0.129-0.461c0.021-0.078-0.01-0.134-0.096-0.168
			c-0.098-0.041-0.266-0.063-0.506-0.063c-0.364,0-0.668,0.088-0.912,0.26c-0.245,0.171-0.457,0.426-0.637,0.761v-0.673
			c0-0.166-0.085-0.251-0.256-0.251h-0.475c-0.17,0-0.256,0.085-0.256,0.251v5.379c0,0.168,0.084,0.253,0.253,0.253H337.005z
			 M331.388,133.267c0.264-0.237,1.031-0.404,2.306-0.501v1.652c-0.272,0.238-0.538,0.387-0.795,0.442
			c-0.259,0.056-0.53,0.084-0.818,0.084c-0.378,0-0.651-0.064-0.826-0.195c-0.174-0.132-0.261-0.38-0.261-0.745
			C330.993,133.75,331.124,133.505,331.388,133.267 M330.469,135.262c0.331,0.292,0.804,0.439,1.415,0.439
			c0.348,0,0.662-0.047,0.944-0.139c0.282-0.09,0.57-0.253,0.865-0.484v0.275c0,0.168,0.075,0.253,0.22,0.253h0.51
			c0.172,0,0.256-0.085,0.256-0.253v-3.474c0-0.698-0.164-1.247-0.498-1.649c-0.331-0.401-0.889-0.604-1.669-0.604
			c-0.29,0-0.638,0.055-1.048,0.16c-0.411,0.107-0.77,0.307-1.076,0.598c-0.137,0.131-0.166,0.242-0.084,0.335l0.292,0.337
			c0.09,0.101,0.187,0.096,0.285-0.017c0.222-0.247,0.456-0.423,0.709-0.526c0.253-0.105,0.56-0.158,0.922-0.158
			c0.472,0,0.784,0.129,0.943,0.385c0.158,0.256,0.238,0.559,0.238,0.909v0.382c-1.235,0.053-2.165,0.233-2.788,0.543
			c-0.62,0.311-0.932,0.798-0.932,1.463C329.974,134.561,330.14,134.969,330.469,135.262 M328.687,135.606
			c0.203,0,0.307-0.085,0.307-0.253v-0.414c0-0.17-0.104-0.252-0.307-0.252h-4.277v-2.802h3.771c0.205,0,0.309-0.085,0.309-0.251
			v-0.416c0-0.168-0.104-0.252-0.309-0.252h-3.771v-2.476h4.107c0.205,0,0.309-0.084,0.309-0.253v-0.415
			c0-0.167-0.104-0.251-0.309-0.251h-4.901c-0.188,0-0.28,0.102-0.28,0.309v7.417c0,0.204,0.093,0.309,0.28,0.309H328.687z
			 M317.986,130.995c0.238-0.426,0.64-0.64,1.208-0.64c0.403,0,0.738,0.139,1.006,0.412s0.4,0.692,0.4,1.252v1.289
			c0,0.561-0.133,0.977-0.4,1.252s-0.603,0.412-1.006,0.412c-0.568,0-0.97-0.213-1.208-0.639c-0.236-0.426-0.355-0.982-0.355-1.669
			C317.631,131.978,317.75,131.421,317.986,130.995 M317.172,134.785c0.389,0.611,0.956,0.916,1.703,0.916
			c0.429,0,0.776-0.075,1.039-0.225c0.264-0.148,0.493-0.352,0.687-0.61h0.012c-0.008,0.111-0.012,0.226-0.012,0.341v0.338
			c0,0.679-0.117,1.127-0.351,1.344s-0.604,0.324-1.111,0.324c-0.448,0-0.765-0.037-0.946-0.114
			c-0.184-0.077-0.374-0.204-0.572-0.384c-0.153-0.135-0.272-0.16-0.358-0.078l-0.309,0.303c-0.089,0.086-0.084,0.189,0.017,0.313
			c0.14,0.164,0.37,0.32,0.695,0.469c0.325,0.146,0.814,0.221,1.469,0.221c0.974,0,1.627-0.201,1.957-0.607
			c0.33-0.405,0.496-0.967,0.496-1.684v-5.676c0-0.166-0.09-0.251-0.27-0.251h-0.501c-0.144,0-0.216,0.085-0.216,0.251v0.449
			c-0.205-0.248-0.437-0.441-0.694-0.583c-0.258-0.143-0.603-0.214-1.031-0.214c-0.747,0-1.314,0.307-1.703,0.916
			c-0.389,0.611-0.582,1.318-0.582,2.122C316.59,133.467,316.783,134.174,317.172,134.785 M311.322,135.606
			c0.169,0,0.254-0.085,0.254-0.253v-3.075c0-0.702,0.125-1.198,0.375-1.487c0.25-0.291,0.617-0.436,1.104-0.436
			c0.373,0,0.681,0.1,0.925,0.295c0.242,0.195,0.363,0.66,0.363,1.393v3.311c0,0.168,0.084,0.253,0.253,0.253h0.481
			c0.167,0,0.252-0.085,0.252-0.253v-3.58c0-0.666-0.149-1.189-0.447-1.571c-0.297-0.384-0.787-0.575-1.469-0.575
			c-0.42,0-0.771,0.066-1.051,0.197c-0.281,0.129-0.543,0.331-0.786,0.6v-0.449c0-0.166-0.087-0.251-0.256-0.251h-0.476
			c-0.171,0-0.255,0.085-0.255,0.251v5.379c0,0.168,0.084,0.253,0.251,0.253H311.322z M308.746,128.658
			c0.168,0,0.252-0.084,0.252-0.251v-0.483c0-0.167-0.084-0.25-0.252-0.25h-0.482c-0.168,0-0.252,0.083-0.252,0.25v0.483
			c0,0.167,0.084,0.251,0.252,0.251H308.746z M308.746,135.606c0.168,0,0.252-0.085,0.252-0.253v-5.379
			c0-0.166-0.084-0.251-0.252-0.251h-0.482c-0.168,0-0.252,0.085-0.252,0.251v5.379c0,0.168,0.084,0.253,0.252,0.253H308.746z
			 M302.427,135.606c0.168,0,0.252-0.085,0.252-0.253v-3.075c0-0.702,0.125-1.198,0.376-1.487c0.249-0.291,0.617-0.436,1.104-0.436
			c0.373,0,0.681,0.1,0.924,0.295s0.364,0.66,0.364,1.393v3.311c0,0.168,0.084,0.253,0.252,0.253h0.482
			c0.168,0,0.252-0.085,0.252-0.253v-3.58c0-0.666-0.149-1.189-0.447-1.571c-0.297-0.384-0.787-0.575-1.469-0.575
			c-0.42,0-0.771,0.066-1.052,0.197c-0.28,0.129-0.543,0.331-0.786,0.6v-0.449c0-0.166-0.085-0.251-0.255-0.251h-0.477
			c-0.169,0-0.255,0.085-0.255,0.251v5.379c0,0.168,0.085,0.253,0.253,0.253H302.427z M298.382,135.606
			c0.168,0,0.253-0.085,0.253-0.253v-2.795c0-0.68,0.142-1.218,0.425-1.611c0.284-0.395,0.645-0.592,1.082-0.592
			c0.116,0,0.239,0.014,0.37,0.039c0.078,0.017,0.126-0.01,0.145-0.076l0.129-0.461c0.022-0.078-0.009-0.134-0.095-0.168
			c-0.099-0.041-0.268-0.063-0.508-0.063c-0.364,0-0.668,0.088-0.912,0.26c-0.244,0.171-0.456,0.426-0.636,0.761v-0.673
			c0-0.166-0.086-0.251-0.256-0.251h-0.476c-0.171,0-0.255,0.085-0.255,0.251v5.379c0,0.168,0.084,0.253,0.252,0.253H298.382z
			 M292.766,133.267c0.263-0.237,1.032-0.404,2.305-0.501v1.652c-0.272,0.238-0.537,0.387-0.795,0.442s-0.53,0.084-0.818,0.084
			c-0.377,0-0.652-0.064-0.826-0.195c-0.174-0.132-0.26-0.38-0.26-0.745C292.371,133.75,292.502,133.505,292.766,133.267
			 M291.847,135.262c0.331,0.292,0.802,0.439,1.415,0.439c0.347,0,0.661-0.047,0.943-0.139c0.282-0.09,0.57-0.253,0.865-0.484v0.275
			c0,0.168,0.074,0.253,0.222,0.253h0.51c0.17,0,0.255-0.085,0.255-0.253v-3.474c0-0.698-0.166-1.247-0.498-1.649
			c-0.333-0.401-0.89-0.604-1.67-0.604c-0.287,0-0.637,0.055-1.048,0.16c-0.411,0.107-0.769,0.307-1.076,0.598
			c-0.138,0.131-0.166,0.242-0.083,0.335l0.291,0.337c0.09,0.101,0.185,0.096,0.285-0.017c0.221-0.247,0.457-0.423,0.709-0.526
			c0.252-0.105,0.56-0.158,0.922-0.158c0.471,0,0.785,0.129,0.944,0.385c0.158,0.256,0.237,0.559,0.237,0.909v0.382
			c-1.236,0.053-2.165,0.233-2.786,0.543c-0.622,0.311-0.933,0.798-0.933,1.463C291.352,134.561,291.516,134.969,291.847,135.262
			 M286.757,130.785c0.303-0.287,0.671-0.43,1.104-0.43c0.493,0,0.867,0.195,1.121,0.586c0.253,0.389,0.388,0.842,0.402,1.359
			h-3.165C286.275,131.577,286.454,131.072,286.757,130.785 M285.863,134.878c0.442,0.548,1.131,0.823,2.064,0.823
			c0.717,0,1.243-0.119,1.577-0.357c0.334-0.236,0.537-0.408,0.608-0.517c0.085-0.132,0.085-0.233,0-0.308l-0.331-0.285
			c-0.112-0.098-0.228-0.068-0.347,0.09c-0.11,0.142-0.28,0.285-0.515,0.431c-0.232,0.146-0.567,0.218-1.004,0.218
			c-0.414,0-0.783-0.141-1.111-0.424c-0.327-0.283-0.522-0.785-0.587-1.51h3.927c0.153,0,0.23-0.084,0.23-0.25
			c0-1.104-0.236-1.905-0.709-2.408c-0.473-0.502-1.067-0.754-1.784-0.754c-0.862,0-1.526,0.275-1.989,0.824
			c-0.463,0.55-0.694,1.287-0.694,2.214C285.199,133.59,285.421,134.329,285.863,134.878 M284.102,135.606
			c0.205,0,0.308-0.085,0.308-0.253v-0.414c0-0.17-0.103-0.252-0.308-0.252h-3.715v-6.807c0-0.207-0.093-0.309-0.279-0.309h-0.517
			c-0.187,0-0.279,0.102-0.279,0.309v7.417c0,0.204,0.093,0.309,0.279,0.309H284.102z"/>
		<path fill="#FAA634" d="M414.663,113.869c-0.168-0.5-0.395-0.975-0.68-1.428s-0.623-0.851-1.012-1.19
			c-0.389-0.341-0.814-0.591-1.273-0.751c-0.508-0.158-1.104-0.297-1.785-0.416c-0.686-0.119-1.395-0.219-2.131-0.299
			c-0.738-0.079-1.463-0.15-2.168-0.213c-0.707-0.063-1.322-0.121-1.846-0.168c-0.063,0-0.234-0.015-0.512-0.046
			c-0.277-0.032-0.572-0.063-0.881-0.097c-0.309-0.031-0.592-0.063-0.846-0.095c-0.254-0.031-0.387-0.056-0.402-0.072
			c-0.064-0.078-0.1-0.188-0.107-0.332c-0.01-0.144-0.014-0.263-0.014-0.358c0-0.189,0.008-0.376,0.023-0.56
			c0.018-0.182,0.063-0.359,0.143-0.534c0.445-0.031,0.82-0.061,1.119-0.084c0.303-0.024,0.617-0.044,0.941-0.061
			c0.326-0.015,0.584-0.022,0.773-0.022c1.523-0.063,3.037-0.108,4.535-0.132c1.502-0.023,3.004-0.051,4.514-0.084
			c-0.047-0.458-0.094-0.923-0.143-1.393c-0.049-0.468-0.072-0.932-0.072-1.392s0.002-0.917,0.014-1.371
			c0.008-0.451,0.018-0.907,0.033-1.367c-1.143-0.223-2.285-0.405-3.428-0.548s-2.301-0.215-3.477-0.215
			c-1,0-2.045,0.072-3.131,0.215c-1.088,0.143-2.107,0.397-3.061,0.762c-0.555,0.222-1.023,0.504-1.404,0.846
			c-0.381,0.341-0.693,0.734-0.939,1.18c-0.246,0.443-0.426,0.924-0.535,1.439c-0.111,0.516-0.168,1.059-0.168,1.631
			c0,0.35,0.037,0.777,0.107,1.285s0.189,1.012,0.357,1.512c0.166,0.501,0.389,0.945,0.666,1.334
			c0.279,0.389,0.615,0.639,1.012,0.75c0.412,0.127,0.861,0.213,1.346,0.262c0.484,0.048,0.955,0.095,1.418,0.143
			c1.014,0.08,2.027,0.135,3.035,0.168c1.006,0.031,2.02,0.086,3.035,0.166c0.016,0,0.07,0.003,0.168,0.013
			c0.096,0.007,0.197,0.015,0.309,0.022c0.111,0.009,0.209,0.021,0.297,0.036c0.086,0.017,0.141,0.031,0.154,0.048
			c0.098,0.158,0.168,0.361,0.215,0.605c0.047,0.248,0.07,0.458,0.07,0.633c0,0.095-0.006,0.201-0.023,0.322
			c-0.016,0.117-0.055,0.209-0.117,0.271c-0.08,0.065-0.195,0.111-0.346,0.145c-0.152,0.031-0.314,0.055-0.488,0.071
			c-0.176,0.015-0.344,0.024-0.5,0.024h-0.355c-0.479,0-0.949-0.01-1.418-0.024c-0.469-0.017-0.934-0.032-1.395-0.048
			c-1.189-0.032-2.377-0.061-3.557-0.083c-1.184-0.024-2.371-0.052-3.561-0.085c0.141,1.59,0.189,3.191,0.141,4.811
			c1.002,0.063,1.99,0.111,2.967,0.143c0.975,0.032,1.965,0.049,2.963,0.049c0.588,0,1.318-0.008,2.191-0.024
			c0.873-0.015,1.762-0.052,2.666-0.106c0.906-0.057,1.777-0.152,2.619-0.286c0.842-0.136,1.539-0.322,2.096-0.56
			c0.666-0.286,1.182-0.662,1.547-1.132c0.365-0.468,0.547-1.083,0.547-1.845C414.911,114.857,414.829,114.37,414.663,113.869
			 M393.917,115.882c-0.016-1.334-0.08-2.675-0.189-4.024c-1.094,0-2.193,0.004-3.297,0.012c-1.105,0.008-2.203-0.027-3.297-0.107
			l0.213,4.596h-4.215c-0.127-0.301-0.246-0.69-0.357-1.166c-0.111-0.477-0.205-0.977-0.285-1.5
			c-0.08-0.525-0.146-1.037-0.203-1.536s-0.084-0.933-0.084-1.298c0-0.174,0.01-0.396,0.025-0.666
			c0.016-0.271,0.043-0.544,0.084-0.822c0.039-0.277,0.094-0.543,0.164-0.797c0.074-0.255,0.156-0.452,0.252-0.596
			c0.189-0.285,0.523-0.511,1-0.68c0.477-0.165,0.988-0.293,1.535-0.379c0.549-0.088,1.084-0.147,1.607-0.179
			c0.523-0.032,0.943-0.049,1.264-0.049c1.729,0,3.402,0.255,5.021,0.762l-0.189-5.095c-1.699-0.334-3.396-0.501-5.096-0.501
			c-0.795,0-1.662,0.044-2.607,0.131c-0.943,0.089-1.861,0.271-2.75,0.548c-0.889,0.278-1.703,0.668-2.439,1.168
			c-0.74,0.499-1.297,1.162-1.68,1.987c-0.08,0.19-0.143,0.429-0.189,0.715c-0.049,0.285-0.084,0.588-0.109,0.905
			c-0.023,0.318-0.039,0.623-0.045,0.916c-0.01,0.293-0.014,0.543-0.014,0.75c0,1.128,0.039,2.25,0.119,3.37
			c0.08,1.119,0.191,2.233,0.334,3.345c0.047,0.428,0.102,0.813,0.166,1.155c0.064,0.34,0.166,0.649,0.311,0.929
			c0.143,0.276,0.344,0.522,0.605,0.736c0.264,0.215,0.623,0.41,1.084,0.584c0.223,0.08,0.473,0.131,0.75,0.155
			s0.527,0.051,0.752,0.083c1.92,0.222,3.883,0.365,5.891,0.428c2.008,0.064,3.973,0.111,5.893,0.143
			C393.94,118.556,393.935,117.215,393.917,115.882 M374.925,106.928c-0.049-1.633-0.105-3.275-0.17-4.929l-4.807-0.57
			c0.029,2,0.074,3.984,0.129,5.952c0.057,1.969,0.092,3.945,0.107,5.93c-0.461-1.239-0.92-2.473-1.381-3.704
			c-0.461-1.229-0.873-2.472-1.238-3.726c-0.254-0.824-0.52-1.638-0.797-2.439c-0.277-0.803-0.576-1.601-0.893-2.393l-9.309,0.046
			c0.158,3.049,0.268,6.081,0.332,9.097c0.063,3.016,0.135,6.047,0.215,9.096l5.141,0.141c0.096-2.141,0.219-4.272,0.369-6.393
			c0.154-2.118,0.299-4.248,0.441-6.393c0.398,0.986,0.795,1.961,1.189,2.93c0.398,0.967,0.818,1.936,1.264,2.904
			c0.602,1.318,1.207,2.623,1.809,3.917c0.604,1.294,1.207,2.601,1.811,3.917c0.477-0.08,0.955-0.144,1.441-0.189
			c0.482-0.049,0.963-0.073,1.438-0.073c0.969,0,1.947,0.024,2.93,0.073c0.018-1.398,0.027-2.775,0.037-4.133
			c0.006-1.356,0.01-2.732,0.01-4.131C374.993,110.207,374.97,108.564,374.925,106.928 M348.345,102.369
			c-1.705,0.088-3.424,0.163-5.154,0.227c0.031,0.666,0.059,1.33,0.082,1.988c0.025,0.658,0.053,1.321,0.086,1.988l2.262,0.285
			c0.109,1.477,0.217,2.945,0.32,4.406c0.104,1.459,0.193,2.936,0.273,4.428l-1.547,0.023c0.047,0.778,0.078,1.544,0.094,2.298
			c0.016,0.753,0.025,1.519,0.025,2.298l8.547-0.144c-0.08-0.381-0.131-0.771-0.154-1.167s-0.035-0.793-0.035-1.189v-1.43
			c0-0.475,0.016-0.943,0.045-1.404l-2.428-0.047c-0.014-0.668-0.027-1.322-0.033-1.965c-0.01-0.643-0.016-1.299-0.016-1.964
			c0-0.556,0.006-1.104,0.016-1.643c0.006-0.54,0.02-1.088,0.033-1.645l2.643,0.097c0.033-0.953,0.039-1.91,0.025-2.869
			c-0.016-0.961,0.014-1.925,0.094-2.894C351.776,102.175,350.052,102.282,348.345,102.369"/>
		<path fill="#8DC63F" d="M340.79,106.928c-0.047-1.633-0.104-3.275-0.164-4.929l-4.812-0.57c0.032,2,0.077,3.984,0.132,5.952
			c0.055,1.969,0.09,3.945,0.107,5.929c-0.461-1.238-0.922-2.472-1.381-3.702c-0.461-1.23-0.873-2.471-1.238-3.727
			c-0.254-0.826-0.521-1.638-0.799-2.439c-0.277-0.803-0.575-1.601-0.891-2.395l-9.312,0.048c0.159,3.048,0.27,6.081,0.334,9.096
			c0.063,3.017,0.135,6.048,0.214,9.097l5.143,0.143c0.096-2.145,0.219-4.274,0.369-6.393c0.15-2.12,0.299-4.25,0.441-6.395
			c0.396,0.986,0.793,1.961,1.19,2.93c0.396,0.969,0.818,1.936,1.262,2.904c0.603,1.316,1.207,2.623,1.81,3.917
			c0.604,1.294,1.206,2.599,1.811,3.917c0.476-0.08,0.955-0.144,1.439-0.191c0.484-0.047,0.964-0.071,1.439-0.071
			c0.969,0,1.945,0.024,2.93,0.071c0.014-1.396,0.027-2.773,0.035-4.131c0.008-1.356,0.012-2.734,0.012-4.131
			C340.862,110.207,340.839,108.564,340.79,106.928 M314.213,107.57c-0.008,0.191-0.016,0.386-0.023,0.584
			c-0.008,0.199-0.028,0.391-0.06,0.572s-0.072,0.305-0.119,0.368c-0.111,0.144-0.306,0.259-0.584,0.347
			c-0.276,0.087-0.579,0.153-0.904,0.201c-0.325,0.049-0.643,0.08-0.953,0.096c-0.309,0.016-0.543,0.024-0.701,0.024
			c-0.366,0-0.739-0.017-1.119-0.048c-0.382-0.031-0.747-0.087-1.096-0.167l-0.643-4.618c0.603-0.096,1.21-0.176,1.821-0.238
			c0.611-0.063,1.234-0.095,1.869-0.095c0.079,0,0.218,0.003,0.417,0.011c0.198,0.009,0.404,0.023,0.619,0.048
			c0.214,0.024,0.416,0.051,0.606,0.083c0.19,0.033,0.325,0.08,0.405,0.143c0.111,0.095,0.198,0.242,0.262,0.441
			c0.063,0.198,0.111,0.412,0.143,0.642c0.031,0.23,0.052,0.456,0.06,0.679s0.013,0.396,0.013,0.525
			C314.226,107.246,314.221,107.381,314.213,107.57 M319.095,104.845c-0.438-0.849-1.061-1.526-1.87-2.036
			c-0.333-0.204-0.71-0.373-1.131-0.499c-0.421-0.127-0.857-0.226-1.31-0.298c-0.452-0.071-0.901-0.114-1.345-0.131
			c-0.444-0.016-0.857-0.024-1.238-0.024c-1.492,0-2.98,0.048-4.465,0.143c-1.484,0.097-2.973,0.184-4.464,0.263
			c-0.096,2.572-0.167,5.144-0.215,7.715c-0.016,1.444-0.07,2.894-0.166,4.346c-0.096,1.451-0.199,2.908-0.311,4.369
			c0.445,0.048,0.886,0.079,1.322,0.094c0.437,0.018,0.885,0.024,1.346,0.024c0.904,0,1.809-0.024,2.714-0.07l-0.119-5.405
			c0.508-0.032,1.021-0.071,1.536-0.119c0.516-0.047,1.035-0.088,1.56-0.119c0.46,1.189,0.816,2.326,1.071,3.404
			c0.254,1.08,0.444,2.264,0.571,3.548l6.953-0.167c-1.176-2.746-2.548-5.428-4.12-8.047c1.302-0.064,2.35-0.469,3.144-1.215
			c0.793-0.746,1.19-1.77,1.19-3.07C319.749,106.596,319.53,105.695,319.095,104.845 M289.849,112.049
			c0.016-0.031,0.044-0.15,0.083-0.357c0.041-0.207,0.093-0.452,0.155-0.738c0.063-0.286,0.131-0.588,0.203-0.906
			c0.071-0.315,0.143-0.615,0.214-0.892c0.071-0.278,0.131-0.512,0.179-0.702s0.087-0.294,0.119-0.311
			c0.047-0.047,0.139-0.087,0.273-0.119c0.135-0.031,0.277-0.051,0.429-0.059c0.151-0.009,0.293-0.012,0.429-0.012h0.321h0.262
			c0.128,0,0.258,0.008,0.394,0.023c0.135,0.016,0.262,0.032,0.381,0.047c0.119,0.018,0.194,0.032,0.226,0.049
			c0.096,0.063,0.194,0.273,0.298,0.63c0.103,0.358,0.194,0.754,0.274,1.192c0.079,0.436,0.15,0.848,0.213,1.236
			c0.063,0.39,0.104,0.656,0.12,0.799L289.849,112.049z M299.623,115.62c-0.23-1.271-0.439-2.556-0.631-3.858
			c-0.27-1.651-0.527-3.297-0.773-4.939c-0.247-1.644-0.497-3.291-0.75-4.941c-1.413-0.047-2.826-0.071-4.238-0.071
			c-1.159,0-2.306,0.063-3.441,0.189c-1.135,0.128-2.273,0.286-3.416,0.478c-0.222,2.683-0.452,5.355-0.69,8.023
			s-0.469,5.35-0.69,8.048h3.667l0.737-3.167l5.857-0.214c0.238,0.81,0.484,1.614,0.738,2.417c0.254,0.802,0.508,1.606,0.762,2.418
			l3.619-0.55C300.103,118.168,299.854,116.891,299.623,115.62 M282.664,101.856c-0.968-0.047-1.933-0.09-2.893-0.131
			c-0.96-0.039-1.925-0.059-2.893-0.059c-1.271,0-2.529,0.003-3.774,0.012c-1.246,0.008-2.496,0.003-3.75-0.012
			c0.032,1.096,0.063,2.179,0.095,3.249c0.032,1.072,0.048,2.148,0.048,3.227v0.453c0,1.873-0.031,3.729-0.095,5.57
			c-0.063,1.842-0.119,3.691-0.167,5.55c2.254,0,4.491-0.014,6.715-0.036c2.222-0.024,4.46-0.029,6.714-0.012
			c-0.206-0.764-0.364-1.544-0.476-2.346c-0.112-0.803-0.223-1.6-0.334-2.393c-1.222,0.111-2.433,0.242-3.631,0.393
			c-1.199,0.15-2.401,0.265-3.606,0.345l-0.357-2.952l5.714-1.023c0-0.223,0.004-0.452,0.012-0.691
			c0.009-0.238,0.012-0.467,0.012-0.689c0-0.54-0.02-1.072-0.06-1.596s-0.099-1.055-0.178-1.596l-6.143,0.357l0.047-1.881
			c1.556-0.127,3.099-0.234,4.631-0.322c1.531-0.087,3.075-0.17,4.632-0.25L282.664,101.856z"/>
		<path fill="#FAA634" d="M267.193,114.477c-1.032-0.031-2.06-0.048-3.084-0.048c-1.023,0-2.059-0.015-3.106-0.048
			c0.031-1,0.067-1.995,0.107-2.988c0.039-0.992,0.091-1.988,0.155-2.988c0.078-1.189,0.193-2.375,0.345-3.56
			c0.15-1.183,0.313-2.36,0.487-3.536c-1.048,0.081-2.087,0.145-3.119,0.191c-1.031,0.048-2.079,0.08-3.143,0.095
			c0.127,3.048,0.215,6.068,0.262,9.061c0.048,2.991,0.111,6.003,0.191,9.036c1.889-0.111,3.766-0.23,5.631-0.357
			s3.741-0.262,5.631-0.405L267.193,114.477z"/>
	</g>
	<polygon fill="#FFFFFF" points="330.135,47.598 332.353,54.423 326.542,50.205 320.759,54.423 322.978,47.598 317.225,43.41 
		324.339,43.41 326.542,36.628 328.772,43.41 335.888,43.41 	"/>
	<polygon fill="#FAA634" points="329.418,48.314 331.634,55.14 325.824,50.923 320.042,55.14 322.261,48.314 316.507,44.127 
		323.622,44.127 325.824,37.346 328.056,44.127 335.17,44.127 	"/>
</g>
</svg>
