<svg version="1.1" xmlns="http://www.w3.org/2000/svg" xmlns:xlink="http://www.w3.org/1999/xlink" x="0px" y="0px"
	 width="678.083px" height="500.002px" viewBox="0 0 678.083 500.002" enable-background="new 0 0 678.083 500.002"
	 xml:space="preserve">
<rect y="250" fill="#BE1E2D" width="678.083" height="250.002"/>
<rect fill="#2E3192" width="678.083" height="250"/>
<path fill="#FFFFFF" d="M634.099,468.48c0,6.627-5.031,12-11.236,12H55.221c-6.206,0-11.237-5.373-11.237-12V31.521
	c0-6.627,5.031-12,11.237-12h567.641c6.205,0,11.236,5.373,11.236,12V468.48z"/>
<g>
<text font-family="sans" text-anchor="middle" font-size="28pt" font-weight="normal" fill="#ED1C24" x="338" y="440" class="thank_you"><tspan>THANK YOU FOR CARING</tspan></text>
</g>
<g>
<text font-family="times" text-anchor="middle" font-size="22pt" font-weight="normal" fill="Black" x="338" y="170" class="proud">LearningEarnings.com is proud to present</text>
<text font-family="times" text-anchor="middle" font-size="22pt" font-weight="normal" fill="Black" x="338" y="205" class="proud">this Certificate of Appreciation to:</text>
</g>
<g>
<text font-family="times" text-anchor="middle" font-size="22pt" font-weight="normal" fill="Black" x="338" y="325" class="proud">in recognition of your generosity towards</text>
<text font-family="times" text-anchor="middle" font-size="22pt" font-weight="normal" fill="Black" x="338" y="360" class="proud">the people of Haiti during their time of need</text>
</g>
<line fill="none" stroke="#000000" x1="156.677" y1="264.939" x2="519.69" y2="264.939"/>
<text font-family="times" text-anchor="middle" font-size="28pt" font-weight="bold" x="338" y="260" fill="black" class="student_name" >
  <tspan><%= name %></tspan></text>
<text font-family="times" text-anchor="middle" font-size="18pt" font-weight="bold" x="338" y="285" class="school_name" fill="black" >
<tspan><%= school_name %></tspan>
</text>
<a xlink:href="http://learningearnings.com"><text font-family="sans" text-anchor="middle" font-size="8pt" font-weight="normal" x="338" y="136" class="site_name" fill="#8DC63F" >LearningEarnings.com</text></a>
<g>
	<g>
		<path fill="#8DC63F" d="M338.628,91.881c18.052,0,32.686-14.633,32.686-32.684c0-18.052-14.634-32.685-32.686-32.685
			c-18.05,0-32.684,14.633-32.684,32.685C305.944,77.248,320.578,91.881,338.628,91.881"/>
		<circle fill="none" stroke="#FAA634" stroke-width="4" cx="338.628" cy="59.197" r="32.684"/>
		<path fill="#FFFFFF" d="M356.198,38.231c-1.644-0.081-3.281-0.154-4.91-0.223c-1.63-0.066-3.268-0.101-4.911-0.101
			c-2.155,0-4.29,0.007-6.404,0.021c-2.116,0.014-4.237,0.007-6.367-0.021c0.054,1.859,0.108,3.698,0.163,5.517
			c0.054,1.819,0.08,3.646,0.08,5.477v0.768c0,3.18-0.053,6.332-0.162,9.456c-0.108,3.127-0.201,6.266-0.283,9.417
			c3.825,0,7.625-0.02,11.397-0.06c3.771-0.041,7.569-0.049,11.396-0.021c-0.35-1.292-0.62-2.619-0.809-3.98
			c-0.188-1.359-0.376-2.714-0.564-4.062c-2.075,0.189-4.129,0.411-6.165,0.667c-2.034,0.256-4.073,0.452-6.122,0.586l-0.605-5.011
			l9.7-1.738c0-0.377,0.005-0.769,0.02-1.172c0.013-0.404,0.02-0.795,0.02-1.173c0-0.915-0.034-1.817-0.101-2.707
			c-0.067-0.89-0.168-1.792-0.303-2.708L340.84,47.77l0.081-3.193c2.641-0.216,5.261-0.396,7.862-0.545
			c2.599-0.148,5.219-0.29,7.859-0.425L356.198,38.231z"/>
		<path fill="#FFFFFF" d="M356.994,71.941c-1.754-0.054-20.418-0.081-22.156-0.081c-1.737,0-3.495-0.025-5.274-0.08
			c0.054-1.697,0.115-3.389,0.183-5.072c0.066-1.684,0.154-3.374,0.262-5.071c0.134-2.021,0.33-4.035,0.585-6.042
			c0.255-2.008,0.471-4.347,0.769-6.341c-1.778,0.135-3.544,0.243-5.295,0.323c-1.751,0.082-3.529,0.136-5.334,0.162
			c0.214,5.173,0.424,10.638,0.505,15.716c0.081,5.079,0.188,10.191,0.323,15.338c3.207-0.188,6.392-0.391,9.558-0.606
			c3.166-0.216,23.274-0.444,26.48-0.688L356.994,71.941z"/>
		<path fill="#FAA634" d="M418.455,115.074c-0.168-0.5-0.395-0.975-0.679-1.428c-0.285-0.453-0.623-0.851-1.013-1.19
			c-0.389-0.341-0.813-0.591-1.273-0.751c-0.508-0.158-1.104-0.297-1.785-0.416c-0.685-0.119-1.394-0.219-2.131-0.299
			c-0.738-0.079-1.462-0.15-2.167-0.213c-0.707-0.063-1.322-0.121-1.846-0.168c-0.063,0-0.234-0.015-0.512-0.046
			c-0.277-0.032-0.572-0.063-0.881-0.097c-0.31-0.031-0.592-0.063-0.846-0.095c-0.255-0.031-0.388-0.056-0.403-0.072
			c-0.064-0.078-0.1-0.188-0.107-0.332c-0.009-0.144-0.014-0.263-0.014-0.358c0-0.189,0.009-0.376,0.024-0.56
			c0.017-0.182,0.063-0.359,0.143-0.534c0.444-0.031,0.819-0.061,1.119-0.084c0.302-0.024,0.616-0.044,0.941-0.061
			c0.325-0.015,0.583-0.022,0.773-0.022c1.523-0.063,3.036-0.108,4.535-0.132c1.501-0.023,3.004-0.051,4.513-0.084
			c-0.046-0.458-0.094-0.923-0.143-1.393c-0.048-0.468-0.072-0.932-0.072-1.392s0.003-0.917,0.014-1.37
			c0.008-0.451,0.019-0.908,0.034-1.368c-1.143-0.223-2.285-0.405-3.429-0.548c-1.143-0.143-2.301-0.215-3.476-0.215
			c-1,0-2.045,0.072-3.132,0.215s-2.107,0.397-3.06,0.762c-0.556,0.223-1.023,0.504-1.405,0.846c-0.38,0.342-0.692,0.734-0.939,1.18
			c-0.245,0.443-0.425,0.924-0.535,1.439c-0.111,0.516-0.167,1.059-0.167,1.631c0,0.35,0.036,0.777,0.107,1.285
			c0.07,0.508,0.189,1.012,0.356,1.512c0.167,0.501,0.39,0.945,0.666,1.334c0.279,0.389,0.615,0.639,1.013,0.75
			c0.412,0.127,0.86,0.213,1.346,0.262c0.484,0.048,0.955,0.095,1.417,0.143c1.015,0.08,2.027,0.135,3.035,0.168
			c1.007,0.031,2.02,0.086,3.036,0.166c0.016,0,0.07,0.003,0.167,0.013c0.096,0.007,0.198,0.015,0.309,0.022
			c0.112,0.009,0.21,0.021,0.297,0.036c0.087,0.017,0.141,0.031,0.154,0.048c0.098,0.158,0.169,0.361,0.215,0.605
			c0.048,0.248,0.071,0.458,0.071,0.633c0,0.095-0.007,0.201-0.023,0.322c-0.016,0.117-0.055,0.209-0.118,0.271
			c-0.08,0.065-0.194,0.111-0.345,0.145c-0.153,0.031-0.314,0.055-0.489,0.071c-0.176,0.015-0.343,0.024-0.499,0.024h-0.356
			c-0.479,0-0.949-0.01-1.418-0.024c-0.468-0.017-0.933-0.032-1.394-0.048c-1.189-0.032-2.377-0.061-3.558-0.083
			c-1.184-0.024-2.37-0.052-3.561-0.085c0.142,1.59,0.19,3.191,0.142,4.811c1.001,0.063,1.99,0.111,2.966,0.143
			c0.975,0.032,1.965,0.049,2.963,0.049c0.588,0,1.318-0.008,2.192-0.024c0.872-0.015,1.761-0.052,2.665-0.106
			c0.906-0.057,1.778-0.152,2.62-0.286c0.841-0.136,1.539-0.322,2.095-0.56c0.666-0.286,1.182-0.662,1.548-1.132
			c0.365-0.468,0.547-1.083,0.547-1.845C418.704,116.063,418.621,115.575,418.455,115.074 M397.71,117.087
			c-0.016-1.334-0.08-2.675-0.189-4.024c-1.095,0-2.194,0.004-3.298,0.012c-1.105,0.008-2.203-0.027-3.297-0.107l0.213,4.596h-4.214
			c-0.127-0.301-0.247-0.69-0.357-1.166c-0.112-0.477-0.206-0.977-0.286-1.5c-0.08-0.525-0.146-1.037-0.202-1.536
			c-0.058-0.499-0.084-0.933-0.084-1.298c0-0.174,0.009-0.396,0.025-0.666c0.016-0.271,0.042-0.544,0.083-0.822
			c0.039-0.277,0.095-0.543,0.165-0.797c0.073-0.255,0.156-0.452,0.251-0.596c0.19-0.285,0.524-0.511,1-0.68
			c0.477-0.165,0.988-0.293,1.535-0.379c0.549-0.088,1.084-0.147,1.607-0.179c0.524-0.032,0.943-0.049,1.264-0.049
			c1.729,0,3.403,0.255,5.022,0.762l-0.19-5.095c-1.698-0.334-3.396-0.501-5.095-0.501c-0.795,0-1.663,0.044-2.608,0.132
			c-0.943,0.088-1.86,0.27-2.75,0.547c-0.889,0.278-1.702,0.668-2.439,1.168c-0.739,0.499-1.297,1.162-1.679,1.987
			c-0.08,0.19-0.143,0.429-0.19,0.715c-0.048,0.285-0.083,0.588-0.108,0.905c-0.023,0.318-0.039,0.623-0.046,0.916
			c-0.009,0.293-0.013,0.543-0.013,0.75c0,1.128,0.039,2.25,0.119,3.37c0.08,1.119,0.19,2.233,0.334,3.345
			c0.046,0.428,0.102,0.813,0.165,1.155c0.064,0.34,0.167,0.649,0.312,0.929c0.142,0.276,0.344,0.522,0.605,0.736
			c0.263,0.215,0.623,0.41,1.084,0.584c0.222,0.08,0.473,0.131,0.749,0.155c0.277,0.024,0.528,0.051,0.752,0.083
			c1.92,0.222,3.884,0.365,5.891,0.428c2.008,0.064,3.973,0.111,5.894,0.143C397.733,119.761,397.727,118.42,397.71,117.087
			 M378.717,108.133c-0.048-1.633-0.105-3.275-0.169-4.928l-4.808-0.57c0.03,1.999,0.075,3.983,0.13,5.951
			c0.057,1.969,0.091,3.945,0.106,5.93c-0.46-1.239-0.92-2.473-1.38-3.704c-0.461-1.229-0.873-2.472-1.238-3.726
			c-0.255-0.824-0.52-1.638-0.798-2.439c-0.277-0.803-0.576-1.6-0.893-2.393l-9.309,0.047c0.158,3.048,0.268,6.08,0.332,9.096
			c0.063,3.016,0.135,6.047,0.215,9.096l5.142,0.141c0.096-2.141,0.219-4.272,0.369-6.393c0.153-2.118,0.299-4.248,0.44-6.393
			c0.398,0.986,0.795,1.961,1.19,2.93c0.398,0.967,0.817,1.936,1.264,2.904c0.602,1.318,1.206,2.623,1.809,3.917
			c0.604,1.294,1.206,2.601,1.811,3.917c0.476-0.08,0.955-0.144,1.44-0.189c0.483-0.049,0.963-0.073,1.438-0.073
			c0.969,0,1.946,0.024,2.93,0.073c0.017-1.398,0.027-2.775,0.036-4.133c0.007-1.356,0.011-2.732,0.011-4.131
			C378.786,111.412,378.763,109.77,378.717,108.133 M352.137,103.574c-1.705,0.088-3.424,0.163-5.154,0.227
			c0.031,0.666,0.06,1.33,0.083,1.988c0.024,0.658,0.052,1.321,0.085,1.988l2.262,0.285c0.109,1.477,0.218,2.945,0.321,4.406
			c0.103,1.459,0.193,2.936,0.273,4.428l-1.548,0.023c0.047,0.778,0.078,1.544,0.095,2.298c0.015,0.753,0.024,1.519,0.024,2.298
			l8.548-0.144c-0.08-0.381-0.132-0.771-0.155-1.167c-0.022-0.396-0.035-0.793-0.035-1.189v-1.43c0-0.475,0.016-0.943,0.046-1.404
			l-2.429-0.047c-0.014-0.668-0.026-1.322-0.033-1.965c-0.009-0.643-0.015-1.299-0.015-1.964c0-0.556,0.006-1.104,0.015-1.643
			c0.007-0.54,0.02-1.088,0.033-1.645l2.644,0.097c0.032-0.953,0.039-1.91,0.025-2.869c-0.016-0.961,0.014-1.925,0.094-2.894
			C355.569,103.381,353.845,103.488,352.137,103.574"/>
		<path fill="#8DC63F" d="M344.583,108.133c-0.048-1.633-0.104-3.275-0.165-4.928l-4.812-0.57c0.032,1.999,0.077,3.983,0.132,5.951
			c0.055,1.969,0.09,3.945,0.107,5.929c-0.461-1.238-0.922-2.472-1.381-3.702c-0.461-1.23-0.873-2.471-1.238-3.727
			c-0.254-0.826-0.521-1.638-0.799-2.439c-0.277-0.803-0.575-1.6-0.891-2.395l-9.312,0.049c0.159,3.047,0.27,6.08,0.334,9.095
			c0.063,3.017,0.135,6.048,0.214,9.097l5.143,0.143c0.095-2.145,0.218-4.274,0.369-6.393c0.151-2.12,0.298-4.25,0.441-6.395
			c0.396,0.986,0.792,1.961,1.19,2.93c0.396,0.969,0.818,1.936,1.262,2.904c0.603,1.316,1.207,2.623,1.81,3.917
			c0.604,1.294,1.206,2.599,1.811,3.917c0.476-0.08,0.955-0.144,1.439-0.191c0.484-0.047,0.964-0.071,1.439-0.071
			c0.969,0,1.945,0.024,2.93,0.071c0.015-1.396,0.028-2.773,0.036-4.131c0.007-1.356,0.012-2.734,0.012-4.131
			C344.655,111.412,344.631,109.77,344.583,108.133 M318.005,108.775c-0.007,0.191-0.016,0.386-0.023,0.584
			c-0.008,0.199-0.028,0.391-0.06,0.572c-0.031,0.182-0.072,0.305-0.119,0.368c-0.111,0.144-0.306,0.259-0.584,0.347
			c-0.277,0.087-0.579,0.153-0.904,0.201c-0.326,0.049-0.643,0.08-0.953,0.096c-0.309,0.016-0.543,0.024-0.701,0.024
			c-0.366,0-0.739-0.017-1.12-0.048c-0.381-0.031-0.747-0.087-1.095-0.167l-0.643-4.618c0.603-0.096,1.21-0.176,1.822-0.238
			c0.611-0.063,1.234-0.095,1.869-0.095c0.079,0,0.218,0.003,0.417,0.011c0.198,0.009,0.405,0.023,0.619,0.048
			s0.417,0.051,0.607,0.083c0.19,0.033,0.325,0.08,0.405,0.143c0.111,0.095,0.198,0.242,0.262,0.441
			c0.063,0.198,0.111,0.412,0.142,0.642c0.032,0.23,0.052,0.456,0.06,0.679c0.008,0.223,0.013,0.396,0.013,0.525
			C318.018,108.451,318.013,108.586,318.005,108.775 M322.887,106.05c-0.437-0.849-1.06-1.526-1.87-2.036
			c-0.333-0.204-0.71-0.373-1.131-0.499c-0.42-0.126-0.857-0.226-1.309-0.298c-0.452-0.07-0.901-0.114-1.345-0.131
			c-0.445-0.016-0.857-0.024-1.239-0.024c-1.492,0-2.98,0.048-4.464,0.144s-2.973,0.184-4.464,0.262
			c-0.096,2.572-0.167,5.144-0.215,7.715c-0.015,1.444-0.07,2.894-0.166,4.346c-0.095,1.451-0.199,2.908-0.31,4.369
			c0.445,0.048,0.886,0.079,1.322,0.094c0.436,0.018,0.884,0.024,1.345,0.024c0.905,0,1.809-0.024,2.714-0.07l-0.12-5.405
			c0.508-0.032,1.021-0.071,1.537-0.119c0.515-0.047,1.035-0.088,1.559-0.119c0.46,1.189,0.817,2.326,1.071,3.404
			c0.254,1.08,0.445,2.264,0.572,3.548l6.953-0.167c-1.175-2.746-2.548-5.428-4.12-8.047c1.302-0.064,2.349-0.469,3.143-1.215
			c0.793-0.746,1.191-1.77,1.191-3.07C323.542,107.801,323.323,106.9,322.887,106.05 M293.641,113.254
			c0.016-0.031,0.044-0.15,0.083-0.357c0.041-0.207,0.092-0.452,0.155-0.738s0.131-0.588,0.203-0.906
			c0.072-0.315,0.143-0.615,0.214-0.892c0.071-0.278,0.131-0.512,0.179-0.702c0.047-0.19,0.086-0.294,0.119-0.311
			c0.047-0.047,0.139-0.087,0.274-0.119c0.135-0.031,0.277-0.051,0.428-0.059c0.151-0.009,0.293-0.012,0.429-0.012h0.321h0.262
			c0.127,0,0.258,0.008,0.393,0.023c0.135,0.016,0.262,0.032,0.381,0.047c0.119,0.018,0.194,0.032,0.226,0.049
			c0.096,0.063,0.195,0.273,0.298,0.63c0.103,0.358,0.194,0.754,0.274,1.192c0.079,0.436,0.151,0.848,0.213,1.236
			c0.063,0.39,0.104,0.656,0.12,0.799L293.641,113.254z M303.415,116.825c-0.23-1.271-0.439-2.556-0.63-3.858
			c-0.27-1.651-0.528-3.297-0.773-4.939c-0.247-1.644-0.497-3.291-0.75-4.941c-1.413-0.047-2.826-0.07-4.238-0.07
			c-1.159,0-2.306,0.063-3.441,0.189s-2.273,0.285-3.417,0.477c-0.222,2.683-0.452,5.355-0.69,8.023
			c-0.238,2.668-0.468,5.35-0.69,8.048h3.667l0.738-3.167l5.857-0.214c0.238,0.81,0.484,1.614,0.738,2.417
			c0.253,0.802,0.507,1.606,0.762,2.418l3.619-0.55C303.895,119.373,303.646,118.096,303.415,116.825 M286.456,103.062
			c-0.968-0.046-1.932-0.09-2.892-0.13c-0.96-0.039-1.925-0.059-2.893-0.059c-1.271,0-2.529,0.002-3.774,0.012
			c-1.247,0.008-2.497,0.002-3.75-0.012c0.032,1.095,0.063,2.178,0.095,3.248c0.032,1.072,0.048,2.148,0.048,3.227v0.453
			c0,1.873-0.032,3.729-0.095,5.57c-0.064,1.842-0.12,3.691-0.167,5.55c2.253,0,4.491-0.014,6.715-0.036
			c2.221-0.024,4.46-0.029,6.713-0.012c-0.206-0.764-0.364-1.544-0.476-2.346c-0.112-0.803-0.223-1.6-0.333-2.393
			c-1.222,0.111-2.433,0.242-3.631,0.393c-1.199,0.15-2.401,0.265-3.606,0.345l-0.357-2.952l5.714-1.023
			c0-0.223,0.003-0.452,0.012-0.691c0.008-0.238,0.012-0.467,0.012-0.689c0-0.54-0.02-1.072-0.06-1.596
			c-0.04-0.523-0.099-1.055-0.178-1.596l-6.143,0.357l0.047-1.881c1.556-0.127,3.099-0.234,4.631-0.322
			c1.531-0.087,3.075-0.17,4.631-0.25L286.456,103.062z"/>
		<path fill="#FAA634" d="M270.986,115.682c-1.032-0.031-2.06-0.048-3.084-0.048c-1.023,0-2.059-0.015-3.107-0.048
			c0.032-1,0.068-1.995,0.108-2.988c0.039-0.992,0.091-1.988,0.155-2.988c0.078-1.189,0.194-2.375,0.345-3.56
			c0.15-1.183,0.313-2.36,0.488-3.536c-1.048,0.082-2.087,0.145-3.12,0.191c-1.031,0.049-2.079,0.08-3.143,0.095
			c0.127,3.048,0.215,6.068,0.262,9.061c0.048,2.991,0.111,6.003,0.191,9.036c1.889-0.111,3.766-0.23,5.631-0.357
			s3.742-0.262,5.631-0.405L270.986,115.682z"/>
	</g>
	<polygon fill="#FFFFFF" points="333.927,48.803 336.145,55.628 330.333,51.411 324.551,55.628 326.769,48.803 321.017,44.616 
		328.131,44.616 330.333,37.833 332.565,44.616 339.68,44.616 	"/>
	<polygon fill="#FAA634" points="333.21,49.52 335.426,56.345 329.616,52.129 323.834,56.345 326.052,49.52 320.299,45.333 
		327.414,45.333 329.616,38.551 331.847,45.333 338.962,45.333 	"/>
</g>
</svg>
