<?xml version="1.0" encoding="UTF-8" standalone="no"?>
<svg width="24px" height="24px" viewBox="0 0 24 24" version="1.1" xmlns="http://www.w3.org/2000/svg" xmlns:xlink="http://www.w3.org/1999/xlink">
    <!-- Generator: Sketch 44.1 (41455) - http://www.bohemiancoding.com/sketch -->
    <title>alert-balance-f</title>
    <desc>Created with Sketch.</desc>
    <defs></defs>
    <g id="PDS" stroke="none" stroke-width="1" fill="none" fill-rule="evenodd" fill-opacity="0.877943841">
        <g id="alert-balance-f" fill="#000000">
            <path d="M12,22 C6.4771525,22 2,17.5228475 2,12 C2,6.4771525 6.4771525,2 12,2 C17.5228475,2 22,6.4771525 22,12 C22,17.5228475 17.5228475,22 12,22 Z M12.375,5.140625 C12.375,4.71353953 12.208335,4.5 11.875,4.5 C11.5468734,4.5 11.3828125,4.71874781 11.3828125,5.15625 L11.3828125,5.984375 C10.3046821,6.07812547 9.4804716,6.41145547 8.91015625,6.984375 C8.3398409,7.55729453 8.0546875,8.29166219 8.0546875,9.1875 C8.0546875,9.87500344 8.20051938,10.4374978 8.4921875,10.875 C8.78385562,11.3125022 9.16406016,11.6497384 9.6328125,11.8867188 C10.1015648,12.1236991 10.6848923,12.3385407 11.3828125,12.53125 L11.3828125,16.1640625 C11.0338524,16.0651037 10.7539073,15.9218759 10.5429688,15.734375 C10.3320302,15.5468741 10.1744797,15.3398449 10.0703125,15.1132812 C9.96614531,14.8867176 9.8437507,14.559898 9.703125,14.1328125 C9.64062469,13.9348948 9.52864664,13.7812505 9.3671875,13.671875 C9.20572836,13.5624995 9.00781367,13.5078125 8.7734375,13.5078125 C8.48176937,13.5078125 8.23828223,13.6080719 8.04296875,13.8085938 C7.84765527,14.0091156 7.75,14.2343737 7.75,14.484375 C7.75,14.8229184 7.82291594,15.167967 7.96875,15.5195312 C8.11458406,15.8710955 8.33984223,16.2096338 8.64453125,16.5351562 C8.94922027,16.8606787 9.3294248,17.1328114 9.78515625,17.3515625 C10.2408877,17.5703136 10.7734345,17.7135413 11.3828125,17.78125 L11.3828125,18.890625 C11.3828125,19.1302095 11.4205725,19.3072911 11.4960938,19.421875 C11.571615,19.5364589 11.7031241,19.59375 11.890625,19.59375 C12.093751,19.59375 12.2252601,19.5234382 12.2851562,19.3828125 C12.3450524,19.2421868 12.375,19.0182307 12.375,18.7109375 L12.375,17.765625 C13.1197954,17.7031247 13.7630181,17.5078141 14.3046875,17.1796875 C14.8463569,16.8515609 15.256509,16.428388 15.5351562,15.9101562 C15.8138035,15.3919245 15.953125,14.8359405 15.953125,14.2421875 C15.953125,13.7682268 15.8658863,13.3320332 15.6914062,12.9335938 C15.5169262,12.5351543 15.2682308,12.1927098 14.9453125,11.90625 C14.6432277,11.630207 14.3007832,11.4192716 13.9179688,11.2734375 C13.5351543,11.1276034 13.0208366,10.9661467 12.375,10.7890625 L12.375,7.5390625 C13.0312533,7.75260523 13.4453116,8.18489258 13.6171875,8.8359375 C13.7682299,9.38802359 14.0989558,9.6640625 14.609375,9.6640625 C14.8802097,9.6640625 15.1106761,9.56901137 15.3007812,9.37890625 C15.4908864,9.18880113 15.5859375,8.96354297 15.5859375,8.703125 C15.5859375,8.46874883 15.5221361,8.21093891 15.3945312,7.9296875 C15.2669264,7.64843609 15.0859387,7.37500133 14.8515625,7.109375 C14.554686,6.76041492 14.2070332,6.50000086 13.8085938,6.328125 C13.4101543,6.15624914 12.9322945,6.04166695 12.375,5.984375 L12.375,5.140625 Z M11.3828125,10.5 L11.3828125,7.5078125 C10.9453103,7.63802148 10.6041679,7.80989477 10.359375,8.0234375 C10.1145821,8.23698023 9.9921875,8.55989367 9.9921875,8.9921875 C9.9921875,9.40364789 10.1067697,9.7148427 10.3359375,9.92578125 C10.5651053,10.1367198 10.9140602,10.3281241 11.3828125,10.5 Z M12.375,12.8203125 L12.375,16.2421875 C12.9010443,16.1380203 13.3072902,15.9270849 13.59375,15.609375 C13.8802098,15.2916651 14.0234375,14.9218771 14.0234375,14.5 C14.0234375,14.0468727 13.884116,13.6966158 13.6054688,13.4492188 C13.3268215,13.2018217 12.9166694,12.9921884 12.375,12.8203125 Z" id="$"></path>
        </g>
    </g>
</svg>