<?xml version="1.0" encoding="UTF-8" standalone="no"?>
<svg width="24px" height="24px" viewBox="0 0 24 24" version="1.1" xmlns="http://www.w3.org/2000/svg" xmlns:xlink="http://www.w3.org/1999/xlink">
    <!-- Generator: Sketch 44.1 (41455) - http://www.bohemiancoding.com/sketch -->
    <title>alert-parent-s</title>
    <desc>Created with Sketch.</desc>
    <defs></defs>
    <g id="PDS" stroke="none" stroke-width="1" fill="none" fill-rule="evenodd">
        <g id="alert-parent-s" fill="#000000">
            <path d="M2.0965485,20.8410211 C1.88868693,20.5804187 1.95864103,17.933889 2.88891761,17.5452675 L8.18974903,15.3382349 C8.50561281,15.2067231 8.6406602,14.8462027 8.49770391,14.5403482 C8.49770391,14.5403482 7.80057338,13.1160249 7.49855796,12.1013527 C7.19654267,11.0866804 7.41227078,10.636397 7.07524639,10.636397 C6.73935489,10.636397 6.73935489,10.3522982 6.73935489,10.3522982 L6.24786858,7.87137542 C6.24786858,7.87137542 6.05552891,7.24004477 6.58376007,7.24004477 C6.69552916,6.91367998 6.78613593,5.12521021 6.78613593,5.12521021 C6.78613593,4.00447502 7.36067929,3.39455803 8.19352809,2.7908215 C9.02637689,2.18708508 10.3125222,2 11.2314489,2 C12.1503757,2 13.3546054,2.2303956 14.183663,2.7908215 C15.0127206,3.35124739 15.6017628,4.02025825 15.5670698,5.12521021 C15.5670698,5.96683633 15.7792725,7.24004477 15.7792725,7.24004477 C16.1375852,7.24004477 16.0489319,7.87137542 16.0489319,7.87137542 L15.5847714,10.3522982 C15.5847714,10.3522982 15.5847714,10.636397 15.315112,10.636397 C15.0454527,10.636397 15.1255497,11.4902399 14.9171945,12.1013527 C14.7088392,12.7124655 14.0334059,14.5276868 14.0334059,14.5276868 C13.9161892,14.8438283 14.0677816,15.2020229 14.3747799,15.3288866 L19.7608355,17.5546158 C21.2667573,17.97445 21.4939436,20.6028893 21.2578428,20.8410211 C19.0400772,21.3746351 16.8371325,22 14.6267774,22 L9.18155321,22 C6.81988497,22 4.6310486,21.5107567 2.0965485,20.8410211 Z" id="Combined-Shape"></path>
        </g>
    </g>
</svg>