<?xml version="1.0" encoding="UTF-8" standalone="no"?>
<svg width="24px" height="24px" viewBox="0 0 24 24" version="1.1" xmlns="http://www.w3.org/2000/svg" xmlns:xlink="http://www.w3.org/1999/xlink">
    <!-- Generator: Sketch 44.1 (41455) - http://www.bohemiancoding.com/sketch -->
    <title>alert-other-s</title>
    <desc>Created with Sketch.</desc>
    <defs></defs>
    <g id="PDS" stroke="none" stroke-width="1" fill="none" fill-rule="evenodd">
        <g id="alert-other-s" fill="#000000">
            <path d="M13.248587,3.75495793 L21.8103265,19.6203425 C22.0704501,20.0936021 22.0630181,20.5668546 21.7880303,21.0401142 C21.6616846,21.2579638 21.4888908,21.4307385 21.2696437,21.5584435 C21.0503967,21.6861485 20.814431,21.75 20.5617395,21.75 L3.43826052,21.75 C3.18556902,21.75 2.9496033,21.6861485 2.73035627,21.5584435 C2.51110925,21.4307385 2.33831545,21.2579638 2.2119697,21.0401142 C1.9369819,20.5668546 1.92954991,20.0936021 2.18967351,19.6203425 L10.751413,3.75495793 C10.8777587,3.52208417 11.0524105,3.33804154 11.2753736,3.20282452 C11.4983367,3.0676075 11.7398764,3 12,3 C12.2601236,3 12.5016633,3.0676075 12.7246264,3.20282452 C12.9475895,3.33804154 13.1222413,3.52208417 13.248587,3.75495793 Z M11.9540406,18.8777777 C12.6566695,18.8777777 13.2262628,18.3081845 13.2262628,17.6055555 C13.2262628,16.9029266 12.6566695,16.3333333 11.9540406,16.3333333 C11.2514116,16.3333333 10.6818184,16.9029266 10.6818184,17.6055555 C10.6818184,18.3081845 11.2514116,18.8777777 11.9540406,18.8777777 Z M10.6863876,10.1596852 L10.8691682,14.7292037 C10.8799023,14.9975571 11.1096945,15.2222222 11.382072,15.2222222 L12.617928,15.2222222 C12.8899117,15.2222222 13.1199404,15.0014903 13.1308318,14.7292037 L13.3136124,10.1596852 C13.3243465,9.89133181 13.1087683,9.66666667 12.8317536,9.66666667 L11.1682464,9.66666667 C10.8940253,9.66666667 10.6754961,9.88739857 10.6863876,10.1596852 Z" id="layer"></path>
        </g>
    </g>
</svg>