<?xml version="1.0" encoding="UTF-8" standalone="no"?>
<svg width="24px" height="24px" viewBox="0 0 24 24" version="1.1" xmlns="http://www.w3.org/2000/svg" xmlns:xlink="http://www.w3.org/1999/xlink">
    <!-- Generator: Sketch 44.1 (41455) - http://www.bohemiancoding.com/sketch -->
    <title>alert-discipline-s</title>
    <desc>Created with Sketch.</desc>
    <defs></defs>
    <g id="PDS" stroke="none" stroke-width="1" fill="none" fill-rule="evenodd">
        <g id="alert-discipline-s" fill="#000000">
            <path d="M11.7587387,5.57673667 C11.1838305,5.4643194 10.75,4.95782292 10.75,4.3499999 C10.75,3.65964397 11.3096441,3.0999999 12,3.0999999 C12.6903559,3.0999999 13.25,3.65964397 13.25,4.3499999 C13.25,4.94724918 12.8311321,5.44666663 12.2711351,5.57051358 C12.3017665,5.57240832 12.3177999,5.57480491 12.3107923,5.57757383 C12.4143094,5.6068829 12.511086,5.60404654 12.6078625,5.6068829 C14.1062134,5.65462833 15.5665278,5.87822817 16.9021402,6.59251857 C17.6195383,6.97637284 18.3220106,6.97968193 19.0552974,6.65917307 C19.5160692,6.45873685 19.9821373,6.64451853 20.1626905,7.07375459 C20.3432437,7.50393611 20.1458389,7.94829943 19.6730302,8.13360839 C19.3610342,8.25509921 19.0370014,8.3496446 18.7110426,8.4583718 C18.7408941,8.51746266 18.7726715,8.58506262 18.8073377,8.65077166 C19.6114013,10.1809888 20.4188353,11.709315 21.2156768,13.2428411 C21.300898,13.4068774 21.3923782,13.4858228 21.5787092,13.4555683 C21.785262,13.4224774 21.9282602,13.5047319 22,13.6999681 C21.9017791,13.9793497 21.8314837,14.2336768 21.7000409,14.4530221 C21.3827487,14.9810581 20.8954958,15.3304033 20.336503,15.5823668 C19.1588146,16.1141846 17.9320157,16.19833 16.6758468,15.9241483 C15.8900792,15.7525485 15.1770144,15.4325123 14.6088736,14.8529491 C14.319507,14.5574948 14.1091023,14.2166586 14.0349551,13.8072771 C13.9949927,13.5888773 14.0989913,13.4654955 14.3199884,13.4550955 C14.3825802,13.4527319 14.446135,13.4475319 14.5072823,13.456041 C14.6310214,13.4740046 14.6912059,13.4158592 14.746094,13.312332 C15.5718241,11.7395695 16.4028503,10.1682251 17.2314692,8.59640806 C17.2550615,8.551499 17.2680613,8.50186268 17.2680613,8.50186268 C16.682106,8.33971734 16.1072245,8.19269926 15.5405282,8.0196812 C15.1240521,7.89299038 14.7234647,7.71524505 14.3060257,7.59375423 C13.9993259,7.50440884 13.2429285,7.46942704 12.911192,7.40749981 L12.911192,17.3697473 C13.7215149,17.4775291 14.5255784,17.8410561 14.6887985,18.6919646 C15.1004598,18.6919646 15.5164544,18.6839282 15.9314861,18.6938555 C16.7264017,18.7127645 17.3027276,19.2549823 17.333542,20 L6.6669395,20 C6.65008787,19.3916004 7.19656227,18.6253101 8.03432918,18.6858191 C8.46091625,18.7160736 8.89135511,18.6910191 9.31697922,18.6910191 C9.44264426,17.8713106 10.2529669,17.5025836 11.0912153,17.3645473 L11.0912153,7.44248161 C10.6607764,7.44437251 9.82397265,7.53560881 9.43108886,7.66939054 C8.83550398,7.87266312 8.24473386,8.09059024 7.64385276,8.27495374 C7.34485664,8.36760822 7.02708298,8.40022638 6.70016129,8.46309907 C6.74349407,8.54629901 6.78056766,8.61768078 6.81812273,8.68906254 C7.59955704,10.1696433 8.38580611,11.6478605 9.1580924,13.1331685 C9.2765353,13.3614956 9.39112641,13.5004773 9.68290041,13.4626592 C9.89763836,13.4347683 10.0290811,13.5978591 9.95926719,13.8068044 C9.86730542,14.080986 9.75801054,14.3603676 9.59719781,14.5990947 C9.29146104,15.0529126 8.84272611,15.3597124 8.34247334,15.5800031 C6.91923253,16.2058936 5.46469583,16.2460754 4.00775175,15.7232394 C3.03661619,15.3753124 2.26529286,14.7957491 2,13.7410953 C2.07173981,13.5037864 2.21570091,13.4220047 2.42177231,13.4555683 C2.60906618,13.4862955 2.700065,13.4054592 2.78432317,13.2423684 C3.58212764,11.7083695 4.38956162,10.1795706 5.19362527,8.64888075 C5.22973591,8.58080807 5.26199475,8.51037176 5.29810539,8.43757181 C5.0978117,8.38840821 4.92014733,8.35389914 4.7497051,8.29953555 C4.57926286,8.24469922 4.40978358,8.18040836 4.24945232,8.10099023 C3.82960591,7.89393583 3.66397843,7.44673615 3.84838345,7.04964552 C4.03615879,6.64451853 4.50607862,6.46251866 4.93603601,6.65822762 C5.66065625,6.98724556 6.3597583,6.97873648 7.06993428,6.60433674 C8.27843713,5.96804629 9.58660536,5.69433739 10.9477359,5.63477379 C11.1961771,5.62390107 11.4441368,5.6068829 11.7450589,5.58939201 C11.7308096,5.58426223 11.7376066,5.5800781 11.7587387,5.57673667 Z M19.9946556,13.4446955 C19.3249236,12.2132419 18.6715617,11.0110973 17.9994222,9.77349814 C17.3239125,11.0177154 16.6705506,12.2212782 16.0056333,13.4446955 L19.9946556,13.4446955 Z M4.00582585,13.4461137 L7.99532969,13.4461137 C7.32848648,12.2193873 6.67368016,11.0129882 5.99961482,9.77349814 C5.32314211,11.0196063 4.66929873,12.2231691 4.00582585,13.4461137 Z" id="Combined-Shape"></path>
        </g>
    </g>
</svg>