<?xml version="1.0" encoding="UTF-8" standalone="no"?>
<svg width="24px" height="24px" viewBox="0 0 24 24" version="1.1" xmlns="http://www.w3.org/2000/svg" xmlns:xlink="http://www.w3.org/1999/xlink">
    <!-- Generator: Sketch 44.1 (41455) - http://www.bohemiancoding.com/sketch -->
    <title>alert-medical</title>
    <desc>Created with Sketch.</desc>
    <defs></defs>
    <g id="PDS" stroke="none" stroke-width="1" fill="none" fill-rule="evenodd">
        <g id="alert-medical" fill="#000000">
            <path d="M2.14809818,8.59200276 L4.14809656,5.15733887 C4.26300578,4.91867177 4.47391574,4.74007296 4.72825459,4.66606036 C4.98259343,4.59204775 5.2564015,4.62959362 5.48142881,4.76933919 L8.57475964,6.65333766 L8.57475964,2.99734062 C8.57369102,2.73250544 8.67842364,2.47820865 8.86569191,2.29094037 C9.05296019,2.1036721 9.30725698,1.99893948 9.57209216,2.0000081 L13.5054223,2.0000081 C13.8963483,2.00718142 14.2452651,2.24696332 14.3920883,2.60934094 C14.4542777,2.73008114 14.4918929,2.86196062 14.5027548,2.99734062 L14.5027548,6.65333766 L17.605419,4.76933919 C17.7556881,4.6804734 17.9303315,4.64171564 18.1040853,4.65867261 C18.4535011,4.65255799 18.7758624,4.8460783 18.9347512,5.15733887 L20.9347496,8.59200276 C21.2073633,9.06898568 21.0619538,9.67573469 20.6027499,9.97733497 L17.2787526,11.9773334 L20.6027499,13.9773317 C20.8340299,14.113848 20.9999736,14.3384146 21.0625638,14.5995843 C21.125154,14.8607539 21.0790268,15.1361441 20.9347496,15.3626639 L18.9347512,18.7973278 C18.7758624,19.1085884 18.4535011,19.3021087 18.1040853,19.2959941 C17.9330505,19.2857526 17.7647297,19.248398 17.605419,19.1853275 L14.5027548,17.2906624 L14.5027548,21.0026594 C14.5038235,21.2674946 14.3990908,21.5217913 14.2118226,21.7090596 C14.0245543,21.8963279 13.7702575,22.0010605 13.5054223,21.9999919 L9.57209216,21.9999919 C9.30725698,22.0010605 9.05296019,21.8963279 8.86569191,21.7090596 C8.67842364,21.5217913 8.57369102,21.2674946 8.57475964,21.0026594 L8.57475964,17.2906624 L5.47209548,19.1746609 C5.32182642,19.2635266 5.14718302,19.3022844 4.97342922,19.2853274 C4.62401341,19.2914421 4.30165204,19.0979217 4.14276323,18.7866612 L2.14276485,15.3519973 C2.09862641,15.2871116 2.07879583,15.2087336 2.08676489,15.1306641 L2.08676489,14.9639976 C2.0291531,14.573938 2.20151372,14.1856074 2.5294312,13.9666651 L5.74276193,11.9666667 L2.4840979,9.97733497 C2.25045089,9.85338019 2.08709636,9.62852169 2.0414316,9.36800213 C1.9599291,9.10553475 2.00031572,8.82234187 2.14809818,8.59200276 Z M9.57209216,7.9280033 C10.0172744,8.64377536 10.5989987,9.26491553 11.2840908,9.75600182 L11.2840908,13.0799991 C10.6747579,13.6346653 9.89875857,14.0213317 9.89875857,14.6799978 C9.89875857,15.1786641 10.6747579,15.731997 11.2840908,16.3973298 L11.2840908,19.1679942 C11.1174242,19.3346607 10.8960911,19.5559939 10.8960911,19.7226604 C10.8960911,20.2773266 11.2280908,20.3319933 11.2280908,20.3319933 L11.2280908,20.3999932 C11.2403235,20.5780388 11.382045,20.7197603 11.5600906,20.7319929 L11.5600906,20.7319929 C11.7267571,20.7319929 11.8374237,20.5106598 11.8374237,20.2893266 L11.8374237,19.1813275 C12.28009,18.7933278 12.8894228,18.4613281 12.8894228,17.9066619 C12.8355041,17.4360427 12.6423757,16.9922186 12.3347566,16.6319962 L12.2787566,17.9066619 C12.2787566,18.0733284 12.0574235,17.9066619 11.890757,18.0733284 L11.890757,14.1879982 C11.6134238,14.3546648 11.3360907,14.2986648 11.1707575,14.4653313 L11.1707575,15.1319975 C11.0490357,14.9496494 10.9731094,14.7406234 10.9494244,14.5226646 C10.9494244,13.6359987 13.6080889,12.8053327 13.6080889,11.3653338 C13.5452517,10.6012699 13.1372999,9.90760467 12.5000898,9.48133537 L12.5000898,10.9200009 C12.5787206,10.9913638 12.6216883,11.0939003 12.617423,11.2000006 C12.617423,11.4773338 12.1747567,11.642667 11.8974236,11.9200001 L11.8974236,8.03866987 C11.7307571,7.81733672 11.6200905,7.87200334 11.3427574,7.87200334 L11.068091,7.87200334 L11.068091,8.20400307 C11.012091,8.0933365 10.9574244,8.03733654 10.9574244,7.92666997 C10.9574244,7.20667055 13.1734226,7.64933686 13.5054223,7.26000384 C13.6864098,6.85756375 13.6721333,6.39422424 13.4667124,6.00369027 C13.2612916,5.61315631 12.8875816,5.33887879 12.4534232,5.26000546 L12.4534232,4.2160063 C12.409889,3.75486633 12.0737235,3.37452523 11.6214238,3.27467373 L11.6214238,3.27467373 C11.180161,3.39242173 10.8526887,3.76352201 10.7907578,4.2160063 L10.7907578,4.2160063 L10.7907578,5.32400541 C10.2798369,5.50235068 9.86245185,5.87924143 9.63307015,6.3693754 C9.40368845,6.85950938 9.38170386,7.42144672 9.57209216,7.9280033 L9.57209216,7.9280033 Z" id="Path_59"></path>
        </g>
    </g>
</svg>