<svg xmlns="http://www.w3.org/2000/svg" viewBox="10890 -1595.017 75.001 75.001">
  <defs>
    <style>
      .cls-1 {
        fill: #7d5ca0;
      }
    </style>
  </defs>
  <path id="path-21" class="cls-1" d="M37.5,75A37.5,37.5,0,1,1,75,37.5,37.543,37.543,0,0,1,37.5,75ZM38,14.394c-.053.392-1.248,8.769-6.74,14.26-5.592,5.592-15.786,8.337-15.889,8.364.43.024,10.425.69,15.889,6.154C36.855,48.764,37.99,59.537,38,59.645c.045-.456,1.184-11.013,6.645-16.474,5.592-5.592,15.879-6.149,15.982-6.154-1.082-.293-10.627-3.01-15.982-8.364C39.1,23.1,38.027,14.608,38,14.394Z" transform="translate(10890 -1595.017)"/>
</svg>
