<?xml version="1.0" encoding="UTF-8" standalone="no"?>
<svg width="28px" height="22px" viewBox="0 0 28 22" version="1.1" xmlns="http://www.w3.org/2000/svg" xmlns:xlink="http://www.w3.org/1999/xlink">
    <!-- Generator: Sketch 43.2 (39069) - http://www.bohemiancoding.com/sketch -->
    <title>assignment</title>
    <desc>Created with Sketch.</desc>
    <defs></defs>
    <g id="Page-1" stroke="none" stroke-width="1" fill="none" fill-rule="evenodd">
        <g id="Artboard" transform="translate(-322.000000, -139.000000)" fill="#000000">
            <path d="M337.612,139.9231 L338.531,139.0001 L347.546,139.0001 C348.901,139.0001 350,140.0941 350,141.4441 L350,141.6541 L344.699,146.9781 C344.38,147.2981 343.894,147.3331 343.615,147.0541 L337.541,141.0071 C337.261,140.7291 337.293,140.2431 337.612,139.9231 Z M339.1062,152.4451 C338.8342,152.7181 338.3912,152.7191 338.1172,152.4471 L332.0022,146.3591 C331.7282,146.0871 331.7272,145.6441 332.0002,145.3701 C332.2722,145.0961 332.7152,145.0951 332.9892,145.3681 L339.1042,151.4561 C339.3772,151.7281 339.3782,152.1711 339.1062,152.4451 Z M337.32,158.637 L350,145.901 L350,158.555 C350,159.906 348.901,161 347.546,161 L324.454,161 C323.098,161 322,159.906 322,158.555 L322,141.444 C322,140.095 323.098,139 324.454,139 L334.293,139 L325.961,147.369 C325.571,147.761 325.572,148.394 325.964,148.784 L335.906,158.64 C336.298,159.03 336.93,159.028 337.32,158.637 Z M329.7292,147.6492 C330.0012,147.3752 330.4452,147.3742 330.7182,147.6472 L334.7082,151.6182 C334.9812,151.8912 334.9822,152.3342 334.7092,152.6072 C334.4372,152.8812 333.9952,152.8822 333.7202,152.6092 L329.7322,148.6382 C329.4582,148.3652 329.4572,147.9222 329.7292,147.6492 Z M341.488,150.3924 C341.215,150.6654 340.772,150.6664 340.499,150.3944 L334.215,144.1384 C333.941,143.8664 333.94,143.4234 334.213,143.1494 C334.485,142.8754 334.927,142.8744 335.201,143.1474 L341.485,149.4034 C341.759,149.6754 341.759,150.1184 341.488,150.3924 Z" id="assignment"></path>
        </g>
    </g>
</svg>