<?xml version="1.0" encoding="UTF-8" standalone="no"?>
<svg width="24px" height="24px" viewBox="0 0 24 24" version="1.1" xmlns="http://www.w3.org/2000/svg" xmlns:xlink="http://www.w3.org/1999/xlink">
    <!-- Generator: Sketch 44.1 (41455) - http://www.bohemiancoding.com/sketch -->
    <title>bank</title>
    <desc>Created with Sketch.</desc>
    <defs></defs>
    <g id="PDS" stroke="none" stroke-width="1" fill="none" fill-rule="evenodd">
        <g id="bank" fill-rule="nonzero" fill="#000000">
            <path d="M2,21.391455 C2,21.046277 2.28278736,20.766455 2.62062554,20.766455 L21.3836947,20.766455 C21.7264567,20.766455 22.0043202,21.0438705 22.0043202,21.391455 L22.0043202,21.391455 C22.0043202,21.736633 21.7215329,22.016455 21.3836947,22.016455 L2.62062554,22.016455 C2.27786352,22.016455 2,21.7390395 2,21.391455 L2,21.391455 Z M3.50032402,9.06787481 L20.5039962,9.06787481 L20.5039962,19.5678748 L3.50032402,19.5678748 L3.50032402,9.06787481 Z M5.50075604,12.5699824 L5.50075604,18.0683068 L8.50140407,18.0683068 L8.50140407,12.5699824 C8.50140407,11.7394963 7.82968613,11.0683068 7.00108006,11.0683068 C6.16669709,11.0683068 5.50075604,11.7406299 5.50075604,12.5699824 Z M10.5018361,12.5699824 L10.5018361,18.0683068 L13.5024841,18.0683068 L13.5024841,12.5699824 C13.5024841,11.7394963 12.8307662,11.0683068 12.0021601,11.0683068 C11.1677771,11.0683068 10.5018361,11.7406299 10.5018361,12.5699824 Z M15.5029162,12.5699824 L15.5029162,18.0683068 L18.5035642,18.0683068 L18.5035642,12.5699824 C18.5035642,11.7394963 17.8318462,11.0683068 17.0032402,11.0683068 C16.1688572,11.0683068 15.5029162,11.7406299 15.5029162,12.5699824 Z M10.2825872,2.43131945 C11.2223333,1.85425688 12.7507048,1.85755537 13.6874729,2.43326168 L21.1821023,7.03921005 C22.1228226,7.61734529 21.9905577,8.08550604 20.8938293,8.08488044 L3.0857566,8.07472225 C1.98582747,8.07409483 1.85992162,7.60336013 2.79571955,7.02872198 L10.2825872,2.43131945 Z M12.012228,6.20398098 C12.5783503,6.20398098 13.0372833,5.72741542 13.0372833,5.13954202 C13.0372833,4.55166861 12.5783503,4.07510305 12.012228,4.07510305 C11.4461056,4.07510305 10.9871727,4.55166861 10.9871727,5.13954202 C10.9871727,5.72741542 11.4461056,6.20398098 12.012228,6.20398098 Z" id="Combined-Shape"></path>
        </g>
    </g>
</svg>