<?xml version="1.0" encoding="UTF-8" standalone="no"?>
<svg width="24px" height="24px" viewBox="0 0 24 24" version="1.1" xmlns="http://www.w3.org/2000/svg" xmlns:xlink="http://www.w3.org/1999/xlink">
    <!-- Generator: Sketch 44.1 (41455) - http://www.bohemiancoding.com/sketch -->
    <title>board</title>
    <desc>Created with Sketch.</desc>
    <defs></defs>
    <g id="PDS" stroke="none" stroke-width="1" fill="none" fill-rule="evenodd">
        <g id="board" fill="#000000">
            <path d="M6.84676923,4.70625 C5.74276923,4.70625 4.84676923,5.1025 4.84676923,5.1025 C4.84676923,3.9975 5.74276923,3.90375 6.84676923,3.90375 L17.1544615,3.90375 C18.2584615,3.90375 19.1544615,3.9975 19.1544615,5.1025 C19.1544615,5.1025 18.2584615,4.70625 17.1544615,4.70625 L6.84676923,4.70625 Z M8.81723077,19.985 L8.97230769,18.59 L14.6153846,18.59 L14.7704615,19.985 L8.81723077,19.985 Z M19.9852308,4.845 L20.0012308,16.895 C20.0012308,18 19.1052308,18.59 18,18.59 L15.6147692,18.59 L16.0369231,21.3475 C16.1169231,21.61625 15.9716923,21.89875 15.712,21.97875 C15.4510769,22.06 15.1753846,21.9075 15.0953846,21.63875 C15.0953846,21.63875 14.8923077,20.64125 14.8886154,20.64125 C14.8886154,20.64125 8.69046154,20.64 8.688,20.64 L8.49107692,21.63875 C8.41107692,21.9075 8.13538462,22.06 7.87446154,21.97875 C7.61476923,21.89875 7.46953846,21.61625 7.54953846,21.3475 L7.97169231,18.59 L6,18.59 C4.896,18.59 4,18 4,16.895 L4.016,4.845 C4.09723077,3.815 4.95015385,3.00125 6,3.00125 L7.74769231,3.00125 L11.1286154,3.00125 L11.1286154,2.6225 C11.1286154,2.27875 11.4326154,2 11.8067692,2 L12.1956923,2 C12.5698462,2 12.8738462,2.27875 12.8738462,2.6225 L12.8738462,3.00125 L17.8067692,3.00125 L18,3.00125 C19.0523077,3.00125 19.904,3.815 19.9852308,4.845 Z M8,8.5 C8,8.76806641 8.22405275,9 8.50043583,9 L15.4995642,9 C15.7692032,9 16,8.77614237 16,8.5 C16,8.23193359 15.7759472,8 15.4995642,8 L8.50043583,8 C8.23079681,8 8,8.22385763 8,8.5 Z M8,11.5 C8,11.7680664 8.22405275,12 8.50043583,12 L15.4995642,12 C15.7692032,12 16,11.7761424 16,11.5 C16,11.2319336 15.7759472,11 15.4995642,11 L8.50043583,11 C8.23079681,11 8,11.2238576 8,11.5 Z" id="Combined-Shape"></path>
        </g>
    </g>
</svg>