<?xml version="1.0" encoding="UTF-8" standalone="no"?>
<svg width="24px" height="24px" viewBox="0 0 24 24" version="1.1" xmlns="http://www.w3.org/2000/svg" xmlns:xlink="http://www.w3.org/1999/xlink">
    <!-- Generator: Sketch 44.1 (41455) - http://www.bohemiancoding.com/sketch -->
    <title>book-f</title>
    <desc>Created with Sketch.</desc>
    <defs></defs>
    <g id="PDS" stroke="none" stroke-width="1" fill="none" fill-rule="evenodd">
        <g id="book-f" fill="#000000">
            <path d="M8,6.0825 C8,5.745 8.19446154,5.47125 8.43446154,5.47125 L15.5643077,5.47125 C15.8055385,5.47125 16,5.745 16,6.0825 L16,7.15 C16,7.4875 15.8055385,7.76125 15.5643077,7.76125 L8.43446154,7.76125 C8.19446154,7.76125 8,7.4875 8,7.15 L8,6.0825 Z M14.2695385,10.65 L9.73046154,10.65 C9.45476923,10.65 9.23076923,10.42625 9.23076923,10.15 C9.23076923,9.87375 9.45476923,9.65 9.73046154,9.65 L14.2695385,9.65 C14.544,9.65 14.7692308,9.87375 14.7692308,10.15 C14.7692308,10.42625 14.544,10.65 14.2695385,10.65 L14.2695385,10.65 Z M5.90646154,18.4475 C5.91507692,18.4475 5.92246154,18.4525 5.92984615,18.4525 C5.94953846,18.45 5.97046154,18.4475 5.99015385,18.4475 L6,18.4475 L18,18.4475 C19.104,18.4475 20,17.69625 20,16.7675 L20,3.68 C20,2.75125 19.104,2 18,2 L6,2 C4.896,2 4,2.75125 4,3.68 L4,16.83625 L4,17.115 L4,19.3975 L4,19.44 L4,20 C4,21.105 4.896,22 6,22 L18,22 C19.104,22 20,21.105 20,20 L20,18.88375 C19.8412308,19.55125 18.7581538,20.04375 17.9987692,20.04375 L5.99876923,20.04375 C5.97661538,20.04375 5.95692308,20.04 5.936,20.0375 C5.92492308,20.03875 5.91753846,20.04375 5.90646154,20.04375 C5.56676923,20.04375 5.29107692,19.59 5.29107692,19.24625 C5.29107692,18.9025 5.56676923,18.4475 5.90646154,18.4475 L5.90646154,18.4475 Z" id="Fill-1"></path>
        </g>
    </g>
</svg>