<?xml version="1.0" encoding="UTF-8" standalone="no"?>
<svg width="24px" height="24px" viewBox="0 0 24 24" version="1.1" xmlns="http://www.w3.org/2000/svg" xmlns:xlink="http://www.w3.org/1999/xlink">
    <!-- Generator: Sketch 44.1 (41455) - http://www.bohemiancoding.com/sketch -->
    <title>bookmark-add</title>
    <desc>Created with Sketch.</desc>
    <defs></defs>
    <g id="PDS" stroke="none" stroke-width="1" fill="none" fill-rule="evenodd">
        <g id="bookmark-add" fill="#000000">
            <path d="M17.3727113,2.02488332 C17.5752818,2.02488332 17.769042,2.0645161 17.9539978,2.14378283 C18.2446424,2.25827922 18.4758336,2.43882851 18.6475782,2.68543612 C18.8193228,2.93204374 18.9051938,3.2050695 18.9051938,3.5045216 L18.9051938,20.5335728 C18.9051938,20.8330249 18.8193228,21.1060506 18.6475782,21.3526583 C18.4758336,21.5992659 18.2446424,21.7798152 17.9539978,21.8943116 C17.7866569,21.9647709 17.5928967,22 17.3727113,22 C16.9499554,22 16.5844532,21.8590835 16.2761936,21.5772462 L12.4525969,15.9679613 L8.62900014,21.5523629 C8.31193322,21.8430076 7.94643099,21.9883277 7.5324825,21.9883277 C7.32991196,21.9883277 7.13615174,21.948695 6.95119603,21.8694282 C6.66055135,21.7549318 6.42936018,21.5743825 6.25761559,21.3277749 C6.08587101,21.0811673 6,20.8081416 6,20.5086895 L6,3.47963827 C6,3.18018617 6.08587101,2.90716041 6.25761559,2.6605528 C6.42936018,2.41394519 6.66055135,2.2333959 6.95119603,2.1188995 C7.13615174,2.03963277 7.32991196,2 7.5324825,2 L17.3727113,2.02488332 Z M12.9946537,7.91855309 L12.9946537,5.76682096 C12.9946537,5.46753544 12.7537603,5.22830168 12.4566034,5.22830168 C12.1573747,5.22830168 11.9185531,5.46940498 11.9185531,5.76682096 L11.9185531,7.91855309 L9.76682096,7.91855309 C9.46753544,7.91855309 9.22830168,8.15944641 9.22830168,8.45660337 C9.22830168,8.75583206 9.46940498,8.99465365 9.76682096,8.99465365 L11.9185531,8.99465365 L11.9185531,11.1463858 C11.9185531,11.4456713 12.1594464,11.6849051 12.4566034,11.6849051 C12.7558321,11.6849051 12.9946537,11.4438018 12.9946537,11.1463858 L12.9946537,8.99465365 L15.1463858,8.99465365 C15.4456713,8.99465365 15.6849051,8.75376033 15.6849051,8.45660337 C15.6849051,8.15737468 15.4438018,7.91855309 15.1463858,7.91855309 L12.9946537,7.91855309 Z" id="Add-Bookmark"></path>
        </g>
    </g>
</svg>