<?xml version="1.0" encoding="UTF-8" standalone="no"?>
<svg width="24px" height="24px" viewBox="0 0 24 24" version="1.1" xmlns="http://www.w3.org/2000/svg" xmlns:xlink="http://www.w3.org/1999/xlink">
    <!-- Generator: Sketch 44.1 (41455) - http://www.bohemiancoding.com/sketch -->
    <title>cabinet</title>
    <desc>Created with Sketch.</desc>
    <defs></defs>
    <g id="PDS" stroke="none" stroke-width="1" fill="none" fill-rule="evenodd">
        <g id="cabinet" fill="#000000">
            <path d="M2,6.00292933 C2,5.44902676 2.45530558,5 2.99180311,5 L21.0081969,5 C21.5559546,5 22,5.43788135 22,6.00292933 L22,10.9970707 C22,11.5509732 21.5446944,12 21.0081969,12 L2.99180311,12 C2.44404538,12 2,11.5621186 2,10.9970707 L2,6.00292933 Z M9,8.5 C9,8.76806641 9.22539004,9 9.50342274,9 L15.4965773,9 C15.7670975,9 16,8.77614237 16,8.5 C16,8.23193359 15.77461,8 15.4965773,8 L9.50342274,8 C9.23290253,8 9,8.22385763 9,8.5 Z M2,13.5029293 C2,12.9490268 2.45530558,12.5 2.99180311,12.5 L21.0081969,12.5 C21.5559546,12.5 22,12.9378814 22,13.5029293 L22,18.4970707 C22,19.0509732 21.5446944,19.5 21.0081969,19.5 L2.99180311,19.5 C2.44404538,19.5 2,19.0621186 2,18.4970707 L2,13.5029293 Z M9,16 C9,16.2680664 9.22539004,16.5 9.50342274,16.5 L15.4965773,16.5 C15.7670975,16.5 16,16.2761424 16,16 C16,15.7319336 15.77461,15.5 15.4965773,15.5 L9.50342274,15.5 C9.23290253,15.5 9,15.7238576 9,16 Z M2,3.75 C2,3.33578644 2.33045083,3 2.75960159,3 L21.2403984,3 C21.6599148,3 22,3.33289862 22,3.75 C22,4.16421356 21.6695492,4.5 21.2403984,4.5 L2.75960159,4.5 C2.34008522,4.5 2,4.16710138 2,3.75 Z M2,20.75 C2,20.3357864 2.33045083,20 2.75960159,20 L21.2403984,20 C21.6599148,20 22,20.3328986 22,20.75 C22,21.1642136 21.6695492,21.5 21.2403984,21.5 L2.75960159,21.5 C2.34008522,21.5 2,21.1671014 2,20.75 Z" id="Combined-Shape"></path>
        </g>
    </g>
</svg>