<?xml version="1.0" encoding="UTF-8" standalone="no"?>
<svg width="24px" height="24px" viewBox="0 0 24 24" version="1.1" xmlns="http://www.w3.org/2000/svg" xmlns:xlink="http://www.w3.org/1999/xlink">
    <!-- Generator: Sketch 44.1 (41455) - http://www.bohemiancoding.com/sketch -->
    <title>calculator-f</title>
    <desc>Created with Sketch.</desc>
    <defs></defs>
    <g id="PDS" stroke="none" stroke-width="1" fill="none" fill-rule="evenodd">
        <g id="calculator-f" fill="#000000">
            <path d="M5,3.99079514 C5,2.89130934 5.89339733,2 6.99188419,2 L18.0081158,2 C19.1082031,2 20,2.89821238 20,3.99079514 L20,20.0092049 C20,21.1086907 19.1066027,22 18.0081158,22 L6.99188419,22 C5.89179693,22 5,21.1017876 5,20.0092049 L5,3.99079514 Z M7,5.0093689 L7,6.9906311 C7,7.55664682 7.44573523,8 7.9955775,8 L17.0044225,8 C17.555163,8 18,7.54809015 18,6.9906311 L18,5.0093689 C18,4.44335318 17.5542648,4 17.0044225,4 L7.9955775,4 C7.44483697,4 7,4.45190985 7,5.0093689 Z M7,9.50468445 L7,10.4953156 C7,10.785965 7.22595492,11 7.50468445,11 L8.49531555,11 C8.78596497,11 9,10.7740451 9,10.4953156 L9,9.50468445 C9,9.21403503 8.77404508,9 8.49531555,9 L7.50468445,9 C7.21403503,9 7,9.22595492 7,9.50468445 Z M7,12.5046844 L7,13.4953156 C7,13.785965 7.22595492,14 7.50468445,14 L8.49531555,14 C8.78596497,14 9,13.7740451 9,13.4953156 L9,12.5046844 C9,12.214035 8.77404508,12 8.49531555,12 L7.50468445,12 C7.21403503,12 7,12.2259549 7,12.5046844 Z M7,15.5046844 L7,16.4953156 C7,16.785965 7.22595492,17 7.50468445,17 L8.49531555,17 C8.78596497,17 9,16.7740451 9,16.4953156 L9,15.5046844 C9,15.214035 8.77404508,15 8.49531555,15 L7.50468445,15 C7.21403503,15 7,15.2259549 7,15.5046844 Z M7,18.5046844 L7,19.4953156 C7,19.785965 7.22595492,20 7.50468445,20 L8.49531555,20 C8.78596497,20 9,19.7740451 9,19.4953156 L9,18.5046844 C9,18.214035 8.77404508,18 8.49531555,18 L7.50468445,18 C7.21403503,18 7,18.2259549 7,18.5046844 Z M10,9.50468445 L10,10.4953156 C10,10.785965 10.2259549,11 10.5046844,11 L11.4953156,11 C11.785965,11 12,10.7740451 12,10.4953156 L12,9.50468445 C12,9.21403503 11.7740451,9 11.4953156,9 L10.5046844,9 C10.214035,9 10,9.22595492 10,9.50468445 Z M10,12.5046844 L10,13.4953156 C10,13.785965 10.2259549,14 10.5046844,14 L11.4953156,14 C11.785965,14 12,13.7740451 12,13.4953156 L12,12.5046844 C12,12.214035 11.7740451,12 11.4953156,12 L10.5046844,12 C10.214035,12 10,12.2259549 10,12.5046844 Z M10,15.5046844 L10,16.4953156 C10,16.785965 10.2259549,17 10.5046844,17 L11.4953156,17 C11.785965,17 12,16.7740451 12,16.4953156 L12,15.5046844 C12,15.214035 11.7740451,15 11.4953156,15 L10.5046844,15 C10.214035,15 10,15.2259549 10,15.5046844 Z M10,18.5046844 L10,19.4953156 C10,19.785965 10.2259549,20 10.5046844,20 L11.4953156,20 C11.785965,20 12,19.7740451 12,19.4953156 L12,18.5046844 C12,18.214035 11.7740451,18 11.4953156,18 L10.5046844,18 C10.214035,18 10,18.2259549 10,18.5046844 Z M13,9.50468445 L13,10.4953156 C13,10.785965 13.2259549,11 13.5046844,11 L14.4953156,11 C14.785965,11 15,10.7740451 15,10.4953156 L15,9.50468445 C15,9.21403503 14.7740451,9 14.4953156,9 L13.5046844,9 C13.214035,9 13,9.22595492 13,9.50468445 Z M13,12.5046844 L13,13.4953156 C13,13.785965 13.2259549,14 13.5046844,14 L14.4953156,14 C14.785965,14 15,13.7740451 15,13.4953156 L15,12.5046844 C15,12.214035 14.7740451,12 14.4953156,12 L13.5046844,12 C13.214035,12 13,12.2259549 13,12.5046844 Z M13,15.5046844 L13,16.4953156 C13,16.785965 13.2259549,17 13.5046844,17 L14.4953156,17 C14.785965,17 15,16.7740451 15,16.4953156 L15,15.5046844 C15,15.214035 14.7740451,15 14.4953156,15 L13.5046844,15 C13.214035,15 13,15.2259549 13,15.5046844 Z M13,18.5046844 L13,19.4953156 C13,19.785965 13.2259549,20 13.5046844,20 L14.4953156,20 C14.785965,20 15,19.7740451 15,19.4953156 L15,18.5046844 C15,18.214035 14.7740451,18 14.4953156,18 L13.5046844,18 C13.214035,18 13,18.2259549 13,18.5046844 Z M16,9.50468445 L16,10.4953156 C16,10.785965 16.2259549,11 16.5046844,11 L17.4953156,11 C17.785965,11 18,10.7740451 18,10.4953156 L18,9.50468445 C18,9.21403503 17.7740451,9 17.4953156,9 L16.5046844,9 C16.214035,9 16,9.22595492 16,9.50468445 Z M16,12.5004358 L16,19.4995642 C16,19.7692032 16.2259549,20 16.5046844,20 L17.4953156,20 C17.785965,20 18,19.7759472 18,19.4995642 L18,12.5004358 C18,12.2307968 17.7740451,12 17.4953156,12 L16.5046844,12 C16.214035,12 16,12.2240528 16,12.5004358 Z" id="Combined-Shape-Copy"></path>
        </g>
    </g>
</svg>