<?xml version="1.0" encoding="UTF-8" standalone="no"?>
<svg width="24px" height="24px" viewBox="0 0 24 24" version="1.1" xmlns="http://www.w3.org/2000/svg" xmlns:xlink="http://www.w3.org/1999/xlink">
    <!-- Generator: Sketch 44.1 (41455) - http://www.bohemiancoding.com/sketch -->
    <title>calendar-day</title>
    <desc>Created with Sketch.</desc>
    <defs></defs>
    <g id="PDS" stroke="none" stroke-width="1" fill="none" fill-rule="evenodd">
        <g id="calendar-day" fill="#000000">
            <path d="M16.2222222,3.11111111 L16.2222222,3.00010991 C16.2222222,2.44776446 16.671922,2 17.2293023,2 L17.4373644,2 C17.9935593,2 18.4444444,2.44954817 18.4444444,3.00010991 L18.4444444,3.11111111 L18.6728318,3.11111111 C19.7739964,3.11111111 20.6666667,4.0071835 20.6666667,5.10494593 L20.6666667,15.447527 L20.6666667,13.1111111 L20.6666667,20.0061652 C20.6666667,21.1073297 19.7705943,22 18.6728318,22 L5.99383482,22 C4.89267025,22 4,21.1039276 4,20.0061652 L4,13.1111111 L4,18.8950541 C4,19.9928165 4.89267025,20.8888889 5.99383482,20.8888889 L18.6728318,20.8888889 C19.7705943,20.8888889 20.6666667,19.9962186 20.6666667,18.8950541 L20.6666667,15.447527 L20.6666667,17.783943 C20.6666667,18.8851075 19.7705943,19.7777778 18.6728318,19.7777778 L5.99383482,19.7777778 C4.89267025,19.7777778 4,18.8817054 4,17.783943 L4,5.10494593 C4,4.00378137 4.89607239,3.11111111 5.99383482,3.11111111 L6.22222222,3.11111111 L6.22222222,3.00010991 C6.22222222,2.44776446 6.67192205,2 7.2293023,2 L7.43736437,2 C7.99355934,2 8.44444444,2.44954817 8.44444444,3.00010991 L8.44444444,3.11111111 L9.55555556,3.11111111 L9.55555556,3.00010991 C9.55555556,2.44776446 10.0052554,2 10.5626356,2 L10.7706977,2 C11.3268927,2 11.7777778,2.44954817 11.7777778,3.00010991 L11.7777778,3.11111111 L12.8888889,3.11111111 L12.8888889,3.00010991 C12.8888889,2.44776446 13.3385887,2 13.895969,2 L14.104031,2 C14.660226,2 15.1111111,2.44954817 15.1111111,3.00010991 L15.1111111,3.11111111 L16.2222222,3.11111111 Z M14.7531646,13.9483546 L13.2687342,13.9483546 L13.2687342,8.39430381 C13.201139,8.13143329 13.0509295,8 12.8181013,8 C12.750506,8 12.6678908,8.01877618 12.5702532,8.05632912 L10.7929114,9.56329116 C10.7178055,9.62337585 10.6633546,9.69097011 10.629557,9.76607597 C10.5957593,9.84118183 10.5788608,9.91253133 10.5788608,9.98012661 C10.5788608,10.0927854 10.6182907,10.1922992 10.6971519,10.2786709 C10.7760131,10.3650427 10.8792821,10.4082279 11.006962,10.4082279 C11.1271314,10.4082279 12.2397885,9.37067552 12.3449367,9.29556966 L12.3449367,13.9483546 L11.0182279,13.9483546 C10.8454844,13.9483546 10.7159287,13.9990503 10.629557,14.1004432 C10.5431852,14.2018361 10.5,14.3051051 10.5,14.4102533 C10.5,14.5154016 10.53943,14.6149153 10.6182911,14.7087977 C10.6971523,14.80268 10.8191975,14.8571309 10.9844304,14.8721521 L14.7193672,14.8721521 C14.8695789,14.8345992 14.982236,14.7745154 15.0573418,14.6918989 C15.1324477,14.6092825 15.1700001,14.5154016 15.1700001,14.4102533 C15.1700001,14.3126157 15.1362029,14.2206124 15.0686077,14.1342407 C15.0010124,14.0478689 14.8958658,13.9859075 14.7531646,13.9483546 Z" id="Combined-Shape"></path>
        </g>
    </g>
</svg>