<?xml version="1.0" encoding="UTF-8" standalone="no"?>
<svg width="24px" height="24px" viewBox="0 0 24 24" version="1.1" xmlns="http://www.w3.org/2000/svg" xmlns:xlink="http://www.w3.org/1999/xlink">
    <!-- Generator: Sketch 44.1 (41455) - http://www.bohemiancoding.com/sketch -->
    <title>chart-kpi</title>
    <desc>Created with Sketch.</desc>
    <defs></defs>
    <g id="PDS" stroke="none" stroke-width="1" fill="none" fill-rule="evenodd">
        <g id="chart-kpi" fill="#000000">
            <path d="M12.2671689,10.5473925 L19.3145615,3.5 L16.5692618,3.5 C16.1495783,3.5 15.8093577,3.16710138 15.8093577,2.75 C15.8093577,2.33578644 16.1491349,2 16.5692618,2 L21.0494535,2 C21.0511066,2 21.0527584,2.00000516 21.0544089,2.00001548 C21.0560525,2.00000534 21.0577044,2 21.0593577,2 C21.264837,2 21.4510165,2.08361456 21.5864786,2.21917371 C21.7256305,2.3568897 21.8093577,2.54308384 21.8093577,2.75 C21.8093577,2.75165307 21.8093522,2.75330489 21.8093414,2.75495545 C21.8093525,2.75659925 21.8093577,2.75825108 21.8093577,2.75990415 L21.8093577,7.24009585 C21.8093577,7.65977933 21.476459,8 21.0593577,8 C20.6451441,8 20.3093577,7.66022277 20.3093577,7.24009585 L20.3093577,4.62652416 L12.9266767,12.0092052 C12.9069748,12.0414275 12.8846876,12.072527 12.8597762,12.1022152 L12.9049575,12.0483703 C12.6239022,12.3833189 12.1317908,12.4165556 11.8005974,12.128802 L7.87079536,8.71443763 L3.29799376,13.4373224 C2.98394475,13.7616788 2.47276129,13.7678653 2.16211937,13.45703 L2.23659603,13.531553 C1.92331894,13.2180808 1.91850956,12.7066046 2.23793278,12.3766623 L7.26185036,7.18729952 C7.57586572,6.86294316 8.08718171,6.85675662 8.39801708,7.16759199 L8.32349403,7.09306894 C8.36788083,7.13745574 8.40608164,7.18581248 8.43805142,7.23706164 C8.47825801,7.26111413 8.51699136,7.28909291 8.55374319,7.32102432 L12.2671689,10.5473925 Z M10.8093577,14.7542043 C10.8093577,14.0615264 11.3641887,13.5 12.0593577,13.5 C12.7497136,13.5 13.3093577,14.0577087 13.3093577,14.7542043 L13.3093577,20.7457957 C13.3093577,21.4384736 12.7545266,22 12.0593577,22 C11.3690017,22 10.8093577,21.4422913 10.8093577,20.7457957 L10.8093577,14.7542043 Z M2.80935766,16.7532654 C2.80935766,16.061106 3.36418868,15.5 4.05935766,15.5 C4.74971359,15.5 5.30935766,16.0541863 5.30935766,16.7532654 L5.30935766,20.7467346 C5.30935766,21.438894 4.75452663,22 4.05935766,22 C3.36900172,22 2.80935766,21.4458137 2.80935766,20.7467346 L2.80935766,16.7532654 Z M14.8093577,12.7457207 C14.8093577,12.0577281 15.3641887,11.5 16.0593577,11.5 C16.7497136,11.5 17.3093577,12.0645256 17.3093577,12.7457207 L17.3093577,20.7542793 C17.3093577,21.4422719 16.7545266,22 16.0593577,22 C15.3690017,22 14.8093577,21.4354744 14.8093577,20.7542793 L14.8093577,12.7457207 Z M6.80935766,12.7457207 C6.80935766,12.0577281 7.36418868,11.5 8.05935766,11.5 C8.74971359,11.5 9.30935766,12.0645256 9.30935766,12.7457207 L9.30935766,20.7542793 C9.30935766,21.4422719 8.75452663,22 8.05935766,22 C7.36900172,22 6.80935766,21.4354744 6.80935766,20.7542793 L6.80935766,12.7457207 Z M18.8093577,9.74584961 C18.8093577,9.05778587 19.3641887,8.5 20.0593577,8.5 C20.7497136,8.5 21.3093577,9.06289073 21.3093577,9.74584961 L21.3093577,20.7541504 C21.3093577,21.4422141 20.7545266,22 20.0593577,22 C19.3690017,22 18.8093577,21.4371093 18.8093577,20.7541504 L18.8093577,9.74584961 Z" id="Combined-Shape"></path>
        </g>
    </g>
</svg>