<?xml version="1.0" encoding="UTF-8" standalone="no"?>
<svg width="24px" height="24px" viewBox="0 0 24 24" version="1.1" xmlns="http://www.w3.org/2000/svg" xmlns:xlink="http://www.w3.org/1999/xlink">
    <!-- Generator: Sketch 44.1 (41455) - http://www.bohemiancoding.com/sketch -->
    <title>chart</title>
    <desc>Created with Sketch.</desc>
    <defs></defs>
    <g id="PDS" stroke="none" stroke-width="1" fill="none" fill-rule="evenodd">
        <g id="chart" fill="#000000">
            <path d="M3.5,20.5 L21.2499955,20.5 L21.2499955,20.5 C21.6642091,20.5 21.9999955,20.8357864 21.9999955,21.25 C21.9999955,21.6642136 21.6642091,22 21.2499955,22 L3.5,22 L3.5,20.5 Z M2.75,2 L2.75,2 C3.16421356,2 3.5,2.33578644 3.5,2.75 L3.5,22 L3,22 C2.44771525,22 2,21.5522847 2,21 L2,2.75 L2,2.75 C2,2.33578644 2.33578644,2 2.75,2 L2.75,2 Z M5.5,10.2462877 C5.5,9.557982 6.05483103,9 6.75,9 C7.44035594,9 8,9.56629539 8,10.2462877 L8,17.7537123 C8,18.442018 7.44516897,19 6.75,19 C6.05964406,19 5.5,18.4337046 5.5,17.7537123 L5.5,10.2462877 Z M17.5,10.2462877 C17.5,9.557982 18.054831,9 18.75,9 C19.4403559,9 20,9.56629539 20,10.2462877 L20,17.7537123 C20,18.442018 19.445169,19 18.75,19 C18.0596441,19 17.5,18.4337046 17.5,17.7537123 L17.5,10.2462877 Z M9.5,8.25025082 C9.5,7.55975636 10.054831,7 10.75,7 C11.4403559,7 12,7.56268972 12,8.25025082 L12,17.7497492 C12,18.4402436 11.445169,19 10.75,19 C10.0596441,19 9.5,18.4373103 9.5,17.7497492 L9.5,8.25025082 Z M13.5,6.24240661 C13.5,5.55624438 14.054831,5 14.75,5 C15.4403559,5 16,5.56615615 16,6.24240661 L16,17.7575934 C16,18.4437556 15.445169,19 14.75,19 C14.0596441,19 13.5,18.4338439 13.5,17.7575934 L13.5,6.24240661 Z" id="Combined-Shape"></path>
        </g>
    </g>
</svg>