<?xml version="1.0" encoding="UTF-8" standalone="no"?>
<svg width="24px" height="24px" viewBox="0 0 24 24" version="1.1" xmlns="http://www.w3.org/2000/svg" xmlns:xlink="http://www.w3.org/1999/xlink">
    <!-- Generator: Sketch 44.1 (41455) - http://www.bohemiancoding.com/sketch -->
    <title>checkmark-circle</title>
    <desc>Created with Sketch.</desc>
    <defs></defs>
    <g id="PDS" stroke="none" stroke-width="1" fill="none" fill-rule="evenodd">
        <g id="checkmark-circle" fill="#000000">
            <path d="M10.6130695,16.364461 C10.8872631,16.3809773 11.1665609,16.2847621 11.3759707,16.0753523 L17.7461861,9.70513692 C18.1349833,9.31633972 18.1363059,8.68729749 17.7430589,8.29405054 C17.3525346,7.90352625 16.7214049,7.901491 16.3319725,8.29092336 L10.6039716,14.0189243 L7.70959635,11.124549 C7.3100471,10.7249998 6.68383574,10.7319534 6.29331144,11.1224777 C5.90006449,11.5157246 5.90371453,12.1470943 6.29538279,12.5387626 L9.826774,16.0701538 C10.0460726,16.2894524 10.3336538,16.3862909 10.6130695,16.364461 Z M12,22 C6.4771525,22 2,17.5228475 2,12 C2,6.4771525 6.4771525,2 12,2 C17.5228475,2 22,6.4771525 22,12 C22,17.5228475 17.5228475,22 12,22 Z" id="Accept"></path>
        </g>
    </g>
</svg>