<?xml version="1.0" encoding="UTF-8" standalone="no"?>
<svg width="24px" height="24px" viewBox="0 0 24 24" version="1.1" xmlns="http://www.w3.org/2000/svg" xmlns:xlink="http://www.w3.org/1999/xlink">
    <!-- Generator: Sketch 44.1 (41455) - http://www.bohemiancoding.com/sketch -->
    <title>circle-alert-s</title>
    <desc>Created with Sketch.</desc>
    <defs></defs>
    <g id="PDS" stroke="none" stroke-width="1" fill="none" fill-rule="evenodd">
        <g id="circle-alert-s" fill="#000000">
            <path d="M12,22 C6.4771525,22 2,17.5228475 2,12 C2,6.4771525 6.4771525,2 12,2 C17.5228475,2 22,6.4771525 22,12 C22,17.5228475 17.5228475,22 12,22 Z M11.9812502,17.3625 C12.7717077,17.3625 13.4125001,16.7217075 13.4125001,15.93125 C13.4125001,15.1407924 12.7717077,14.5 11.9812502,14.5 C11.1907926,14.5 10.5500002,15.1407924 10.5500002,15.93125 C10.5500002,16.7217075 11.1907926,17.3625 11.9812502,17.3625 Z M10.5196173,7.49042702 L10.7303829,12.759573 C10.7411024,13.0275592 10.9765047,13.25 11.2559123,13.25 L12.7440877,13.25 C13.0192871,13.25 13.2587829,13.0304283 13.2696171,12.759573 L13.4803827,7.49042702 C13.4911021,7.22244081 13.2782066,7 13.0046109,7 L10.9953891,7 C10.7157528,7 10.5087831,7.21957165 10.5196173,7.49042702 Z" id="Important"></path>
        </g>
    </g>
</svg>