<?xml version="1.0" encoding="UTF-8" standalone="no"?>
<svg width="24px" height="24px" viewBox="0 0 24 24" version="1.1" xmlns="http://www.w3.org/2000/svg" xmlns:xlink="http://www.w3.org/1999/xlink">
    <!-- Generator: Sketch 44.1 (41455) - http://www.bohemiancoding.com/sketch -->
    <title>clock-late</title>
    <desc>Created with Sketch.</desc>
    <defs></defs>
    <g id="PDS" stroke="none" stroke-width="1" fill="none" fill-rule="evenodd">
        <g id="clock-late" fill-rule="nonzero" fill="#000000">
            <path d="M11.5103298,11.5280045 L4.97924245,11.5280045 C4.56251529,11.5280045 4.22592185,11.863791 4.22592185,12.2780045 C4.22592185,12.6951059 4.56319497,13.0280045 4.97924245,13.0280045 L11.7959378,13.0280045 C11.9712131,13.0280045 12.1323124,12.9686025 12.2601536,12.8689476 C12.3110065,12.8380597 12.3590384,12.8006163 12.4030395,12.7566152 L17.223171,7.93648369 C17.517361,7.6422937 17.5204542,7.16841072 17.225519,6.8734755 C16.9326258,6.58058228 16.4571814,6.58115292 16.1625108,6.87582352 L11.5103298,11.5280045 Z M12,22 C6.4771525,22 2,17.5228475 2,12 C2,6.4771525 6.4771525,2 12,2 C17.5228475,2 22,6.4771525 22,12 C22,17.5228475 17.5228475,22 12,22 Z" id="Late" transform="translate(12.000000, 12.000000) scale(-1, 1) rotate(315.000000) translate(-12.000000, -12.000000) "></path>
        </g>
    </g>
</svg>