<?xml version="1.0" encoding="UTF-8" standalone="no"?>
<svg width="24px" height="24px" viewBox="0 0 24 24" version="1.1" xmlns="http://www.w3.org/2000/svg" xmlns:xlink="http://www.w3.org/1999/xlink">
    <!-- Generator: Sketch 44.1 (41455) - http://www.bohemiancoding.com/sketch -->
    <title>copy</title>
    <desc>Created with Sketch.</desc>
    <defs></defs>
    <g id="PDS" stroke="none" stroke-width="1" fill="none" fill-rule="evenodd">
        <g id="copy" fill="#000000">
            <path d="M4.5,20.5 L16.3472991,20.5 C16.7630043,20.5 17.0999999,20.8328986 17.0999999,21.25 C17.0999999,21.6642136 16.7677391,22 16.3472991,22 L3.85270071,22 C3.83541669,22 3.81826873,21.9994245 3.8012754,21.9982914 C3.78433919,21.9994244 3.76724153,22 3.75,22 C3.33578644,22 3,21.6604186 3,21.247596 L3,5.75240396 C3,5.33686273 3.33289862,5 3.75,5 C4.16421356,5 4.5,5.33958144 4.5,5.75240396 L4.5,20.5 Z M18.0908667,19 L6.90913333,19 C6.40733333,19 6,18.6005 6,18.10835 L6,2.89165 C6,2.3995 6.40733333,2 6.90913333,2 L15.0367333,2 C15.5012667,2 15.9467333,2.1819 16.2734667,2.5066 L18.4964667,4.7098 C18.8188667,5.0294 19,5.4612 19,5.91085 L19,18.10835 C19,18.6005 18.5926667,19 18.0908667,19 Z M13,10 L13,7.00043583 C13,6.72231543 12.7761424,6.5 12.5,6.5 C12.2219324,6.5 12,6.72405275 12,7.00043583 L12,10 L9.00043583,10 C8.72231543,10 8.5,10.2238576 8.5,10.5 C8.5,10.7780676 8.72405275,11 9.00043583,11 L12,11 L12,13.9995642 C12,14.2776846 12.2238576,14.5 12.5,14.5 C12.7780676,14.5 13,14.2759472 13,13.9995642 L13,11 L15.9995642,11 C16.2776846,11 16.5,10.7761424 16.5,10.5 C16.5,10.2219324 16.2759472,10 15.9995642,10 L13,10 Z" id="Combined-Shape"></path>
        </g>
    </g>
</svg>