<?xml version="1.0" encoding="UTF-8" standalone="no"?>
<svg width="24px" height="24px" viewBox="0 0 24 24" version="1.1" xmlns="http://www.w3.org/2000/svg" xmlns:xlink="http://www.w3.org/1999/xlink">
    <!-- Generator: Sketch 44.1 (41455) - http://www.bohemiancoding.com/sketch -->
    <title>dashboard-s</title>
    <desc>Created with Sketch.</desc>
    <defs></defs>
    <g id="PDS-Current" stroke="none" stroke-width="1" fill="none" fill-rule="evenodd">
        <g id="dashboard-s" fill="#000000">
            <path d="M13.3492535,14.8827121 C13.3533338,14.8733227 13.3571541,14.8637505 13.3607027,14.8540008 L14.5520034,11.580929 C14.6464497,11.3214401 14.5126561,11.0345189 14.2531672,10.9400726 C13.9936782,10.8456264 13.7067571,10.9794199 13.6123108,11.2389089 L12.4210101,14.5119807 C12.419748,14.5154483 12.4185267,14.5189207 12.4173458,14.5223976 C12.2816283,14.4995899 12.1422006,14.4877175 12,14.4877175 C10.6192881,14.4877175 9.5,15.6070056 9.5,16.9877175 L2,16.9877175 C2,16.2690607 2.07580867,15.5681099 2.21986545,14.8924258 L3.70201939,15.1537696 C3.97396654,15.2017212 4.23329574,15.0201369 4.28124736,14.7481898 C4.32919898,14.4762426 4.14761472,14.2169134 3.87566757,14.1689618 L2.47850003,13.9226035 C3.0326686,12.1997899 4.04144393,10.6808614 5.36355287,9.50709125 L6.25976539,10.5751557 C6.43726629,10.7866931 6.75264408,10.8142851 6.96418141,10.6367842 C7.17571875,10.4592833 7.20331073,10.1439055 7.02580983,9.93236814 L6.14365999,8.88106289 C7.66351405,7.78118699 9.50488395,7.09824279 11.5,7 L11.5,8.4877175 C11.5,8.76385987 11.7238576,8.9877175 12,8.9877175 C12.2761424,8.9877175 12.5,8.76385987 12.5,8.4877175 L12.5,7 C14.495116,7.09824279 16.336486,7.78118699 17.85634,8.88106289 L16.9741902,9.93236814 C16.7966893,10.1439055 16.8242813,10.4592833 17.0358186,10.6367842 C17.2473559,10.8142851 17.5627337,10.7866931 17.7402346,10.5751557 L18.6364471,9.50709125 C19.9589006,10.6811673 20.9678571,12.2005815 21.5219331,13.9239502 L20.1324033,14.1689618 C19.8604561,14.2169134 19.6788719,14.4762426 19.7268235,14.7481898 C19.7747751,15.0201369 20.0341043,15.2017212 20.3060514,15.1537696 L21.7804269,14.8937974 C21.9242939,15.5690585 22,16.2695469 22,16.9877175 L14.5,16.9877175 C14.5,16.1039558 14.0414295,15.327299 13.3492535,14.8827121 Z M13.5,16.9877175 L10.5,16.9877175 C10.5,16.1592904 11.1715729,15.4877175 12,15.4877175 C12.8284271,15.4877175 13.5,16.1592904 13.5,16.9877175 Z" id="Combined-Shape"></path>
        </g>
    </g>
</svg>