<?xml version="1.0" encoding="UTF-8" standalone="no"?>
<svg width="24px" height="24px" viewBox="0 0 24 24" version="1.1" xmlns="http://www.w3.org/2000/svg" xmlns:xlink="http://www.w3.org/1999/xlink">
    <!-- Generator: Sketch 44.1 (41455) - http://www.bohemiancoding.com/sketch -->
    <title>desk</title>
    <desc>Created with Sketch.</desc>
    <defs></defs>
    <g id="PDS" stroke="none" stroke-width="1" fill="none" fill-rule="evenodd">
        <g id="desk" fill="#000000">
            <path d="M16.5563293,7.45454545 C16.2496741,7.45454545 15.6363636,7.10489977 15.6363636,6.54450596 C15.6363636,5.98411216 15.2305585,5.63636364 14.7299726,5.63636364 L9.2700274,5.63636364 C8.77548755,5.63636364 8.36363636,6.02840864 8.36363636,6.54450596 C8.36363636,7.06060329 7.77632716,7.45454545 7.48267256,7.45454545 L6.5516777,7.45454545 C6.0461637,7.45454545 5.63636364,7.04456802 5.63636364,6.55383821 L5.63636364,2.90070724 C5.63636364,2.40326037 6.04540796,2 6.5516777,2 L17.4483223,2 C17.9538363,2 18.3636364,2.40997744 18.3636364,2.90070724 L18.3636364,6.55383821 C18.3636364,7.05128509 17.954592,7.45454545 17.4483223,7.45454545 L16.5563293,7.45454545 Z M5.42361608,13.7931498 L5.42545693,13.7855003 C5.54193749,13.3014727 6.04540796,12.9090909 6.5516777,12.9090909 L17.4483223,12.9090909 C17.9538363,12.9090909 18.4573426,13.2966338 18.5755485,13.7855003 L19.2507964,16.5781361 C19.27456,16.6764157 19.280957,16.770917 19.2717759,16.8591225 C19.2724079,16.872983 19.2727273,16.8869187 19.2727273,16.9009224 L19.2727273,21.086876 C19.2727273,21.5911804 18.8692138,22 18.3636364,22 C17.8615593,22 17.4545455,21.586757 17.4545455,21.086876 L17.4545455,17.4545455 L6.54545455,17.4545455 L6.54545455,21.086876 C6.54545455,21.5911804 6.14194107,22 5.63636364,22 C5.13428659,22 4.72727273,21.586757 4.72727273,21.086876 L4.72727273,16.9009224 C4.72727273,16.8759109 4.72826528,16.8511342 4.73021361,16.8266306 C4.7253057,16.7480322 4.7325883,16.6646716 4.75341294,16.5781361 L5.21099485,14.6766837 C4.4117549,14.4851778 3.81818182,13.7713798 3.81818182,12.90371 L3.81818182,11.0909091 L2.45530558,11.0909091 C2.20384725,11.0909091 2,10.8963318 2,10.632105 L2,9.73153132 C2,9.47814084 2.19794703,9.27272727 2.45530558,9.27272727 L21.5446944,9.27272727 C21.7961527,9.27272727 22,9.46730458 22,9.73153132 L22,10.632105 C22,10.8854955 21.802053,11.0909091 21.5446944,11.0909091 L4.72727273,11.0909091 L4.72727273,12.9064279 C4.72727273,13.3444067 5.02402944,13.6983426 5.42361608,13.7931498 L5.42361608,13.7931498 Z" id="Combined-Shape"></path>
        </g>
    </g>
</svg>