<?xml version="1.0" encoding="UTF-8" standalone="no"?>
<svg width="24px" height="24px" viewBox="0 0 24 24" version="1.1" xmlns="http://www.w3.org/2000/svg" xmlns:xlink="http://www.w3.org/1999/xlink">
    <!-- Generator: Sketch 44.1 (41455) - http://www.bohemiancoding.com/sketch -->
    <title>disaggregate</title>
    <desc>Created with Sketch.</desc>
    <defs></defs>
    <g id="PDS" stroke="none" stroke-width="1" fill="none" fill-rule="evenodd">
        <g id="disaggregate" fill-rule="nonzero" fill="#000000">
            <path d="M12.1022137,2.00169861 C12.3811935,2.01024391 12.6174681,2.1567044 12.7349063,2.26093765 L16.5156845,6.35477216 C16.7747321,6.62332091 16.7764112,7.05698382 16.5153985,7.32756976 C16.2561928,7.5962823 15.8313488,7.59152534 15.5770179,7.32786632 L12.7214644,4.30011532 L12.7214644,11.8100004 C12.7214644,12.1894225 12.4257695,12.5 12.0552823,12.5 C11.6873601,12.5 11.3891003,12.1855888 11.3891003,11.8100004 L11.3891003,4.30065494 L8.53623509,7.32786632 C8.27450685,7.59919398 7.85401362,7.60318737 7.59300086,7.33260143 C7.33379521,7.06388889 7.33603754,6.62589524 7.59756844,6.35477216 L11.3950811,2.26093765 C11.5069128,2.14408775 11.7066086,2.04059574 11.9392622,2.01026375 C11.9769002,2.00351734 12.0156636,2 12.0552823,2 L12.1022137,2.00169861 Z M21.6163718,21.7280113 C21.3953365,21.9359082 21.1011085,22.0049529 20.9306982,22.0151042 L14.8770792,21.7744418 C14.4714888,21.7671377 14.1368191,21.4350496 14.1294597,21.0263824 C14.1221512,20.6205446 14.4524076,20.2976021 14.850613,20.3047731 L19.3734112,20.4371502 L13.7200003,14.79 C13.4283191,14.4983187 13.4251875,14.0348125 13.71,13.75 C13.9928407,13.4671593 14.461266,13.4712662 14.75,13.7600002 L20.397253,19.4124786 L20.2632242,14.8921619 C20.2558445,14.4823746 20.5760294,14.1560499 20.9846966,14.1634093 C21.3905344,14.1707177 21.7255188,14.5091497 21.7328928,14.9186282 L21.9606906,20.9851118 C21.9645484,21.1609111 21.8905915,21.3939872 21.7350565,21.5961576 C21.7113086,21.6302782 21.6842131,21.6627816 21.6537562,21.6932385 L21.6163718,21.7280113 Z M2.2723939,21.4242374 C2.07038021,21.201803 2.0071056,20.9093018 2,20.7404074 L2.34289155,14.7510284 C2.35713239,14.3495895 2.69170835,14.0239804 3.09644683,14.0237566 C3.49838309,14.0235343 3.81241302,14.3560939 3.79843148,14.7502234 L3.58920605,19.2258461 L9.31000042,13.71 C9.60382758,13.4262545 10.0629364,13.4330923 10.3400002,13.7200003 C10.6151457,14.0049218 10.6008587,14.4591212 10.3100004,14.7399998 L4.58601404,20.2572347 L9.06378389,20.2026554 C9.46963181,20.202431 9.78718439,20.5250774 9.77283552,20.9295615 C9.75858599,21.3312452 9.41772371,21.6570562 9.0121818,21.6572806 L3.00196987,21.7779776 C2.82784866,21.778759 2.5983639,21.7015081 2.40088783,21.5440229 C2.36751633,21.519921 2.3358038,21.4925328 2.30617551,21.4618518 L2.2723939,21.4242374 Z" id="Combined-Shape"></path>
        </g>
    </g>
</svg>