<?xml version="1.0" encoding="UTF-8" standalone="no"?>
<svg width="24px" height="24px" viewBox="0 0 24 24" version="1.1" xmlns="http://www.w3.org/2000/svg" xmlns:xlink="http://www.w3.org/1999/xlink">
    <!-- Generator: Sketch 44.1 (41455) - http://www.bohemiancoding.com/sketch -->
    <title>discussion</title>
    <desc>Created with Sketch.</desc>
    <defs></defs>
    <g id="PDS" stroke="none" stroke-width="1" fill="none" fill-rule="evenodd">
        <g id="discussion" fill="#000000">
            <path d="M19.5,15 L21.7940879,17.2940879 C22.1861267,17.6861267 22.0480902,18 21.4906311,18 L19.5093689,18 C19.5062422,18 19.5031192,17.9999862 19.5,17.9999587 L19.5,18.9970707 C19.5,19.5509732 19.0498272,20 18.5089831,20 L2.99101692,20 C2.44369339,20 2,19.5621186 2,18.9970707 L2,14.0029293 C2,13.4490268 2.45017276,13 2.99101692,13 L18.5089831,13 C19.0563066,13 19.5,13.4378814 19.5,14.0029293 L19.5,15 Z M19.5,5 L21.7940879,7.29408795 C22.1861267,7.68612671 22.0480902,8 21.4906311,8 L19.5093689,8 C19.5062422,8 19.5031192,7.99998621 19.5,7.99995869 L19.5,8.99707067 C19.5,9.55097324 19.0498272,10 18.5089831,10 L2.99101692,10 C2.44369339,10 2,9.56211865 2,8.99707067 L2,4.00292933 C2,3.44902676 2.45017276,3 2.99101692,3 L18.5089831,3 C19.0563066,3 19.5,3.43788135 19.5,4.00292933 L19.5,5 Z M6,5.5 C6,5.76806641 6.22818517,6 6.50966585,6 L14.4903342,6 C14.7775269,6 15,5.77614237 15,5.5 C15,5.23193359 14.7718148,5 14.4903342,5 L6.50966585,5 C6.22247314,5 6,5.22385763 6,5.5 Z M6,7.5 C6,7.76806641 6.21983051,8 6.49100518,8 L11.5089948,8 C11.7721195,8 12,7.77614237 12,7.5 C12,7.23193359 11.7801695,7 11.5089948,7 L6.49100518,7 C6.22788048,7 6,7.22385763 6,7.5 Z M6,15.5 C6,15.7680664 6.22818517,16 6.50966585,16 L14.4903342,16 C14.7775269,16 15,15.7761424 15,15.5 C15,15.2319336 14.7718148,15 14.4903342,15 L6.50966585,15 C6.22247314,15 6,15.2238576 6,15.5 Z M6,17.5 C6,17.7680664 6.21983051,18 6.49100518,18 L11.5089948,18 C11.7721195,18 12,17.7761424 12,17.5 C12,17.2319336 11.7801695,17 11.5089948,17 L6.49100518,17 C6.22788048,17 6,17.2238576 6,17.5 Z" id="Combined-Shape"></path>
        </g>
    </g>
</svg>