<?xml version="1.0" encoding="UTF-8" standalone="no"?>
<svg width="24px" height="24px" viewBox="0 0 24 24" version="1.1" xmlns="http://www.w3.org/2000/svg" xmlns:xlink="http://www.w3.org/1999/xlink">
    <!-- Generator: Sketch 44.1 (41455) - http://www.bohemiancoding.com/sketch -->
    <title>district</title>
    <desc>Created with Sketch.</desc>
    <defs></defs>
    <g id="PDS" stroke="none" stroke-width="1" fill="none" fill-rule="evenodd">
        <g id="district" fill-rule="nonzero" fill="#000000">
            <path d="M11.9873075,3.00040567 C12.1105375,2.99455893 12.2856678,3.0525683 12.3808983,3.13199699 L17.0000001,6.9846399 L7.00000001,6.9846399 L11.5946201,3.15241636 C11.6882653,3.07430991 11.8676814,3.00608142 11.9873075,3.00040567 Z M12,6.23193798 C12.4933996,6.23193798 12.893379,5.81611686 12.893379,5.30317551 C12.893379,4.79023417 12.4933996,4.37441304 12,4.37441304 C11.5066005,4.37441304 11.1066211,4.79023417 11.1066211,5.30317551 C11.1066211,5.81611686 11.5066005,6.23193798 12,6.23193798 Z M7.00000001,7.69881809 L17.0000001,7.69881809 L17.0000001,17.5714939 L7.00000001,17.5714939 L7.00000001,7.69881809 Z M12.5220165,12.8182022 L12.5220165,17.5714939 L15.0374744,17.5714939 L15.0374744,12.8182022 C15.0374744,12.1735689 14.47437,11.6478884 13.7797455,11.6478884 C13.0802781,11.6478884 12.5220165,12.1718557 12.5220165,12.8182022 Z M8.96252556,12.8182022 L8.96252556,17.5714939 L11.4779836,17.5714939 L11.4779836,12.8182022 C11.4779836,12.1735689 10.9148792,11.6478884 10.2202546,11.6478884 C9.52078724,11.6478884 8.96252556,12.1718557 8.96252556,12.8182022 Z M2,7.69881809 L6.15388199,7.69881809 L6.15388199,17.5714939 L2.90133052,17.5714939 C2.40353942,17.5714939 2,17.1965289 2,16.7297551 L2,7.69881809 Z M17.846118,7.69881809 L22,7.69881809 L22,16.7297551 C22,17.1946346 21.5865237,17.5714939 21.0986695,17.5714939 L17.846118,17.5714939 L17.846118,7.69881809 Z M2,4.86364853 C2,4.39928123 2.39881284,4.02283716 2.90956718,4.02283716 L9.41779423,4.02283716 L5.92640934,6.9846399 L2,6.9846399 L2,4.86364853 Z M22,4.86364853 L22,6.9846399 L18.0735907,6.9846399 L14.5822058,4.02283716 L21.0904328,4.02283716 C21.6011872,4.02283716 22,4.39928123 22,4.86364853 Z M3.30759572,18.9102586 C3.30759572,18.6535182 3.50388215,18.4453891 3.7396392,18.4453891 L20.3535781,18.4453891 C20.5921891,18.4453891 20.7856216,18.6574634 20.7856216,18.9102586 L20.7856216,18.9805195 C20.7856216,19.2372599 20.5893351,19.4453891 20.3535781,19.4453891 L3.7396392,19.4453891 C3.50102818,19.4453891 3.30759572,19.2333147 3.30759572,18.9805195 L3.30759572,18.9102586 Z M4.61030165,20.5653063 C4.61030165,20.3130286 4.787689,20.1085171 5.00810814,20.1085171 L19.0851092,20.1085171 C19.3048116,20.1085171 19.4829156,20.3204066 19.4829156,20.5653063 C19.4829156,20.817584 19.3055283,21.0220955 19.0851092,21.0220955 L5.00810814,21.0220955 C4.78840568,21.0220955 4.61030165,20.810206 4.61030165,20.5653063 Z" id="Combined-Shape"></path>
        </g>
    </g>
</svg>