<?xml version="1.0" encoding="UTF-8" standalone="no"?>
<svg width="24px" height="24px" viewBox="0 0 24 24" version="1.1" xmlns="http://www.w3.org/2000/svg" xmlns:xlink="http://www.w3.org/1999/xlink">
    <!-- Generator: Sketch 44.1 (41455) - http://www.bohemiancoding.com/sketch -->
    <title>documents</title>
    <desc>Created with Sketch.</desc>
    <defs></defs>
    <g id="PDS" stroke="none" stroke-width="1" fill="none" fill-rule="evenodd">
        <g id="documents" fill="#000000">
            <path d="M7.0002,4 L7.0002,3.049 C7.0002,2.47 7.4702,2 8.0492,2 L15.2142,2 C15.8872,2 16.5312,2.269 17.0042,2.747 L19.2712,5.039 C19.7382,5.511 20.0002,6.147 20.0002,6.811 L20.0002,18.951 C20.0002,19.53 19.5302,20 18.9512,20 L18,20 L18,20.951 C18,21.53 17.53,22 16.951,22 L6.049,22 C5.47,22 5,21.53 5,20.951 L5,5.049 C5,4.47 5.47,4 6.049,4 L7.0002,4 Z M7.9998,4 L13.427,4 C13.963,4 14.477,4.214 14.854,4.596 L17.419,7.188 C17.791,7.564 18,8.072 18,8.601 L18,19 L18.0908,19 C18.5928,19 18.9998,18.577 18.9998,18.056 L18.9998,7.33 C18.9998,6.732 18.7738,6.16 18.3688,5.735 L16.4038,3.672 C15.9928,3.242 15.4348,3 14.8528,3 L8.9088,3 C8.4068,3 7.9998,3.423 7.9998,3.944 L7.9998,4 Z M7.5,9.76788203 L7.5,10.0010363 C7.5,10.2917258 7.72405275,10.5094592 8.00043583,10.5094592 L14.9995642,10.5094592 C15.2692032,10.5094592 15.5,10.2818305 15.5,10.0010363 L15.5,9.76788203 C15.5,9.47719256 15.2759472,9.25945918 14.9995642,9.25945918 L8.00043583,9.25945918 C7.73079681,9.25945918 7.5,9.48708784 7.5,9.76788203 Z M7.5,13.1184225 L7.5,13.3515768 C7.5,13.6422663 7.72405275,13.8599997 8.00043583,13.8599997 L14.9995642,13.8599997 C15.2692032,13.8599997 15.5,13.632371 15.5,13.3515768 L15.5,13.1184225 C15.5,12.827733 15.2759472,12.6099997 14.9995642,12.6099997 L8.00043583,12.6099997 C7.73079681,12.6099997 7.5,12.8376283 7.5,13.1184225 Z M7.5,16.2684231 L7.5,16.5015774 C7.5,16.7922668 7.72405275,17.0100002 8.00043583,17.0100002 L14.9995642,17.0100002 C15.2692032,17.0100002 15.5,16.7823716 15.5,16.5015774 L15.5,16.2684231 C15.5,15.9777336 15.2759472,15.7600002 14.9995642,15.7600002 L8.00043583,15.7600002 C7.73079681,15.7600002 7.5,15.9876289 7.5,16.2684231 Z" id="Combined-Shape"></path>
        </g>
    </g>
</svg>