<?xml version="1.0" encoding="UTF-8" standalone="no"?>
<svg width="24px" height="24px" viewBox="0 0 24 24" version="1.1" xmlns="http://www.w3.org/2000/svg" xmlns:xlink="http://www.w3.org/1999/xlink">
    <!-- Generator: Sketch 44.1 (41455) - http://www.bohemiancoding.com/sketch -->
    <title>document</title>
    <desc>Created with Sketch.</desc>
    <defs></defs>
    <g id="PDS" stroke="none" stroke-width="1" fill="none" fill-rule="evenodd">
        <g id="document" fill="#000000">
            <path d="M18.951,22 L6.049,22 C5.47,22 5,21.53 5,20.951 L5,3.049 C5,2.47 5.47,2 6.049,2 L15.427,2 C15.963,2 16.477,2.214 16.854,2.596 L19.419,5.188 C19.791,5.564 20,6.072 20,6.601 L20,20.951 C20,21.53 19.53,22 18.951,22 Z M7.5014154,8.76788203 L7.5014154,9.00103633 C7.5014154,9.2917258 7.7297407,9.50945918 8.01139423,9.50945918 L16.9978982,9.50945918 C17.2800771,9.50945918 17.507877,9.28183051 17.507877,9.00103633 L17.507877,8.76788203 C17.507877,8.47719256 17.2795517,8.25945918 16.9978982,8.25945918 L8.01139423,8.25945918 C7.72921529,8.25945918 7.5014154,8.48708784 7.5014154,8.76788203 Z M7.5014154,12.517882 L7.5014154,12.7510363 C7.5014154,13.0417258 7.7297407,13.2594592 8.01139423,13.2594592 L16.9978982,13.2594592 C17.2800771,13.2594592 17.507877,13.0318305 17.507877,12.7510363 L17.507877,12.517882 C17.507877,12.2271926 17.2795517,12.0094592 16.9978982,12.0094592 L8.01139423,12.0094592 C7.72921529,12.0094592 7.5014154,12.2370878 7.5014154,12.517882 Z M7.5014154,16.267882 L7.5014154,16.5010363 C7.5014154,16.7917258 7.7297407,17.0094592 8.01139423,17.0094592 L16.9978982,17.0094592 C17.2800771,17.0094592 17.507877,16.7818305 17.507877,16.5010363 L17.507877,16.267882 C17.507877,15.9771926 17.2795517,15.7594592 16.9978982,15.7594592 L8.01139423,15.7594592 C7.72921529,15.7594592 7.5014154,15.9870878 7.5014154,16.267882 Z" id="Document"></path>
        </g>
    </g>
</svg>