<?xml version="1.0" encoding="UTF-8" standalone="no"?>
<svg width="24px" height="24px" viewBox="0 0 24 24" version="1.1" xmlns="http://www.w3.org/2000/svg" xmlns:xlink="http://www.w3.org/1999/xlink">
    <!-- Generator: Sketch 44.1 (41455) - http://www.bohemiancoding.com/sketch -->
    <title>external-link</title>
    <desc>Created with Sketch.</desc>
    <defs></defs>
    <g id="PDS" stroke="none" stroke-width="1" fill="none" fill-rule="evenodd">
        <g id="external-link" fill="#000000">
            <path d="M17.9976521,11.2212808 C17.9992131,11.7898138 18,18.0037973 18,18.0037973 C18,20.2108391 16.2111696,22 14.0037973,22 L5.99620271,22 C3.78916089,22 2,20.2111696 2,18.0037973 L2,9.99620271 C2,7.78916089 3.78883037,6 5.99620271,6 L12.0299997,6 L12.0300002,6.00090522 C12.0415906,6.00030422 12.0532596,6 12.0649996,6 C12.432269,6 12.7299997,6.29773065 12.7299997,6.66500002 C12.7299997,7.03226939 12.432269,7.33000004 12.0649996,7.33000004 C12.0534708,7.33000004 12.0420105,7.32970667 12.0306257,7.32912697 L12.0306277,7.33333333 L6.32559359,7.33333333 C4.68517999,7.33333333 3.33333333,8.67301388 3.33333333,10.3255936 L3.33333333,17.6744064 C3.33333333,19.31482 4.67301388,20.6666667 6.32559359,20.6666667 L13.6744064,20.6666667 C15.31482,20.6666667 16.6666667,19.3269861 16.6666667,17.6744064 L16.6666667,11.1825757 L16.6702276,11.1825688 C16.6700762,11.176731 16.6700001,11.1708744 16.6700001,11.165 C16.6700001,10.7977307 16.9677307,10.5 17.3350001,10.5 C17.7022695,10.5 18.0000001,10.7977307 18.0000001,11.165 C18.0000001,11.183956 17.999207,11.2027267 17.9976521,11.2212808 Z M18.168273,4.30979871 L15.4119681,4.30979871 C14.9524782,4.30979871 14.567961,3.93191032 14.567961,3.46576136 C14.567961,2.9963625 14.9458359,2.62172401 15.4119681,2.62172401 L20.1799376,2.62172401 C20.4306112,2.62172401 20.6589714,2.73419204 20.8147581,2.91210202 C20.9926681,3.06788874 21.1051361,3.29624887 21.1051361,3.54692253 L21.1051361,8.31489198 C21.1051361,8.78102424 20.7304976,9.1588991 20.2610987,9.1588991 C19.7949498,9.1588991 19.4170614,8.77438186 19.4170614,8.31489198 L19.4170614,5.44830848 L12.0890694,12.7763005 C11.7569855,13.1083844 11.2228688,13.1126822 10.8909537,12.7807671 C10.5613366,12.45115 10.5620558,11.916016 10.8954203,11.5826514 L18.168273,4.30979871 Z" id="Combined-Shape"></path>
        </g>
    </g>
</svg>