<?xml version="1.0" encoding="UTF-8" standalone="no"?>
<svg width="24px" height="24px" viewBox="0 0 24 24" version="1.1" xmlns="http://www.w3.org/2000/svg" xmlns:xlink="http://www.w3.org/1999/xlink">
    <!-- Generator: Sketch 44.1 (41455) - http://www.bohemiancoding.com/sketch -->
    <title>flag</title>
    <desc>Created with Sketch.</desc>
    <defs></defs>
    <g id="PDS" stroke="none" stroke-width="1" fill="none" fill-rule="evenodd">
        <g id="flag" fill="#000000">
            <path d="M5.66666667,3.02890717 L5.66666667,2.83391219 C5.66666667,2.38166761 5.29357062,2 4.83333333,2 C4.36988735,2 4,2.37335521 4,2.83391219 L4,21.1660878 C4,21.6183324 4.37309604,22 4.83333333,22 C5.29677931,22 5.66666667,21.6266448 5.66666667,21.1660878 L5.66666667,12.2698164 C7.37581242,11.4579907 8.85285351,11.0520833 10.0978261,11.0520833 C10.6268142,11.0520833 11.1431134,11.1284715 11.6467391,11.28125 C12.1503648,11.4340285 12.5688389,11.6006935 12.9021739,11.78125 C13.2355089,11.9618065 13.6286209,12.1284715 14.0815217,12.28125 C14.5344226,12.4340285 14.9818818,12.5104167 15.423913,12.5104167 C16.5398607,12.5104167 17.8768038,12.1076429 19.4347826,11.3020833 C19.6304358,11.2048606 19.7735503,11.1093755 19.8641304,11.015625 C19.9547106,10.9218745 20,10.7881953 20,10.6145833 L20,2.66666667 C20,2.48611021 19.9311601,2.32986177 19.7934783,2.19791667 C19.6557964,2.06597156 19.4927546,2 19.3043478,2 C19.2101445,2 19.0126827,2.07291594 18.7119565,2.21875 C18.4112304,2.36458406 18.092393,2.52777688 17.7554348,2.70833333 C17.4184766,2.88888979 17.0199298,3.0520826 16.5597826,3.19791667 C16.0996354,3.34375073 15.673915,3.41666667 15.2826087,3.41666667 C14.920288,3.41666667 14.6014507,3.3506951 14.326087,3.21875 C13.4130389,2.80902573 12.6195686,2.50347323 11.9456522,2.30208333 C11.2717358,2.10069344 10.5471053,2 9.77173913,2 C8.55547442,2 7.18712833,2.34296594 5.66666667,3.02890717 Z"></path>
        </g>
    </g>
</svg>