<svg xmlns="http://www.w3.org/2000/svg" viewBox="654 353 26 26">
  <title>Globe</title>
  <desc>An outlined globe</desc>
  <path d="M667 353h-.031a13 13 0 0 0 0 26H667a13 13 0 0 0 0-26zm.52 7.78a19.131 19.131 0 0 0 4.008-.535 23.255 23.255 0 0 1 .669 5.235h-4.68v-4.7zm0-1.04v-5.617c1.4.388 2.822 2.257 3.727 5.123a18.045 18.045 0 0 1-3.727.494zm-1.04-5.63v5.63a18 18 0 0 1-3.757-.5c.913-2.883 2.346-4.759 3.757-5.127zm0 6.669v4.7h-4.712a23.235 23.235 0 0 1 .67-5.241 19.163 19.163 0 0 0 4.042.539zm-5.759 4.7h-5.668a11.908 11.908 0 0 1 2.7-7.063 19.064 19.064 0 0 0 3.675 1.551 24.51 24.51 0 0 0-.71 5.513zm0 1.04a24.509 24.509 0 0 0 .707 5.509 19.154 19.154 0 0 0-3.67 1.555 11.9 11.9 0 0 1-2.7-7.063zm1.047 0h4.712v4.7a19.118 19.118 0 0 0-4.043.541 23.265 23.265 0 0 1-.669-5.237zm4.712 5.734v5.636c-1.412-.369-2.847-2.246-3.759-5.133a18.011 18.011 0 0 1 3.759-.502zm1.04 5.624v-5.622a18.113 18.113 0 0 1 3.728.5c-.905 2.864-2.326 4.736-3.728 5.123zm0-6.663v-4.7h4.68a23.269 23.269 0 0 1-.667 5.229 19.084 19.084 0 0 0-4.012-.535zm5.727-4.7h5.7a11.9 11.9 0 0 1-2.7 7.062 19.245 19.245 0 0 0-3.7-1.56 24.493 24.493 0 0 0 .708-5.5zm0-1.04a24.53 24.53 0 0 0-.709-5.507 19.2 19.2 0 0 0 3.7-1.559 11.9 11.9 0 0 1 2.708 7.066h-5.7zm2.277-7.86a18.169 18.169 0 0 1-3.268 1.351 11.668 11.668 0 0 0-2.471-4.6 11.967 11.967 0 0 1 5.738 3.25zm-11.35-3.234a11.674 11.674 0 0 0-2.459 4.581 18.115 18.115 0 0 1-3.237-1.341 11.957 11.957 0 0 1 5.7-3.24zm-5.7 20a18.078 18.078 0 0 1 3.24-1.343 11.671 11.671 0 0 0 2.46 4.586 11.955 11.955 0 0 1-5.7-3.244zm11.311 3.248a11.66 11.66 0 0 0 2.473-4.6 18.044 18.044 0 0 1 3.27 1.349 11.947 11.947 0 0 1-5.743 3.251z"/></svg>
