<svg xmlns="http://www.w3.org/2000/svg" viewBox="694 353 26 26">
  <title>Globe</title>
  <desc>A filled in globe</desc>
  <path d="M707 353h-.031a13 13 0 0 0 0 26H707a13 13 0 0 0 0-26zm0 24.96h-.028a11.96 11.96 0 0 1 0-23.919H707a11.96 11.96 0 1 1 0 23.92z"/><path data-name="path" d="M711.142 360.741a17.437 17.437 0 0 1-3.622.485v4.255h4.23a21.165 21.165 0 0 0-.61-4.739zM707.52 355.159v5.115a16.521 16.521 0 0 0 3.367-.448c-.817-2.589-2.1-4.286-3.362-4.667zM703.091 359.818a16.451 16.451 0 0 0 3.389.456v-5.128c-1.276.364-2.565 2.067-3.389 4.672zM714.791 358.34a10.939 10.939 0 0 0-5.245-2.972 10.65 10.65 0 0 1 2.258 4.2 16.621 16.621 0 0 0 2.987-1.235zM712.707 365.48h5.21a10.89 10.89 0 0 0-2.472-6.414 17.6 17.6 0 0 1-3.384 1.425 22.4 22.4 0 0 1 .646 4.989zM702.221 365.48h4.26v-4.254a17.5 17.5 0 0 1-3.65-.493 21.273 21.273 0 0 0-.61 4.747zM711.75 366.52h-4.23v4.25a17.521 17.521 0 0 1 3.623.486 21.255 21.255 0 0 0 .607-4.736zM702.83 371.262a17.459 17.459 0 0 1 3.651-.493v-4.25h-4.26a21.249 21.249 0 0 0 .609 4.743zM706.48 376.856v-5.136a16.536 16.536 0 0 0-3.391.456c.824 2.609 2.11 4.314 3.391 4.68zM709.545 376.63a10.936 10.936 0 0 0 5.248-2.973 16.638 16.638 0 0 0-2.988-1.237 10.661 10.661 0 0 1-2.26 4.21zM704.418 355.379a10.925 10.925 0 0 0-5.208 2.961 16.646 16.646 0 0 0 2.959 1.228 10.671 10.671 0 0 1 2.248-4.188zM712.062 371.505a17.523 17.523 0 0 1 3.386 1.426 10.884 10.884 0 0 0 2.469-6.41h-5.21a22.375 22.375 0 0 1-.646 4.984zM707.52 371.72v5.123c1.268-.382 2.546-2.081 3.363-4.672a16.608 16.608 0 0 0-3.363-.45zM701.909 360.486a17.449 17.449 0 0 1-3.357-1.417 10.881 10.881 0 0 0-2.469 6.411h5.179a22.44 22.44 0 0 1 .647-4.994zM701.262 366.52h-5.179a10.878 10.878 0 0 0 2.469 6.411 17.54 17.54 0 0 1 3.357-1.418 22.439 22.439 0 0 1-.647-4.993zM699.207 373.656a10.931 10.931 0 0 0 5.211 2.964 10.664 10.664 0 0 1-2.25-4.192 16.554 16.554 0 0 0-2.961 1.228z"/></svg>
