<?xml version="1.0" encoding="UTF-8" standalone="no"?>
<svg width="24px" height="24px" viewBox="0 0 24 24" version="1.1" xmlns="http://www.w3.org/2000/svg" xmlns:xlink="http://www.w3.org/1999/xlink">
    <!-- Generator: Sketch 44.1 (41455) - http://www.bohemiancoding.com/sketch -->
    <title>group-add</title>
    <desc>Created with Sketch.</desc>
    <defs></defs>
    <g id="PDS" stroke="none" stroke-width="1" fill="none" fill-rule="evenodd">
        <g id="group-add">
            <path d="M7.20576152,10.6880726 C6.68879033,10.894344 6.15297403,11.1168697 5.84272927,11.2869175 C5.18937013,11.6450291 4.98996024,12.9891171 4.9292637,13.8153379 C4.04362076,13.7859687 3.20322267,13.5974807 2.24261102,13.3470696 C2.15675206,13.2408794 2.18564718,12.1624719 2.56990571,12.0041165 L4.75945849,11.1047953 C4.88992867,11.0512069 4.94571113,10.9043021 4.88666183,10.7796725 C4.88666183,10.7796725 4.59870624,10.1992895 4.47395624,9.78583108 C4.34920629,9.37237257 4.4383146,9.18889118 4.29910385,9.18889118 C4.16036106,9.18889118 4.16036106,9.07312664 4.16036106,9.07312664 L3.95734852,8.06220068 C3.95734852,8.06220068 3.87790101,7.80494618 4.09609131,7.80494618 C4.14225847,7.67195911 4.17968436,6.94319377 4.17968436,6.94319377 C4.17968436,6.48651679 4.4170043,6.23798792 4.76101947,5.99197747 C5.10503463,5.74596706 5.63628771,5.66973366 6.0158581,5.66973366 C6.39542849,5.66973366 6.89284563,5.76361522 7.23529485,5.99197747 C7.57774401,6.22033971 7.82105281,6.49294814 7.80672257,6.94319377 C7.80672257,7.28613943 7.89437467,7.80494618 7.89437467,7.80494618 C8.04237873,7.80494618 8.00575975,8.06220068 8.00575975,8.06220068 L7.81403439,9.07312664 C7.81403439,9.07312664 7.81403439,9.18889118 7.70264931,9.18889118 C7.59126428,9.18889118 7.62434901,9.53681494 7.53828614,9.78583108 C7.47029387,9.98256133 7.28188451,10.4855295 7.20576152,10.6880726 Z M7.87309521,11.328809 L9.53899263,12.0079257 C10.1610262,12.1789997 10.2548674,13.2500357 10.157344,13.3470696 C9.24127736,13.5645065 8.33133262,13.8193301 7.41832692,13.8193301 L5.91020025,13.8193301 C5.84703544,13.2221044 5.89758634,12.3494986 6.36325461,11.9443079 L7.87309521,11.328809 Z M15.8627309,11.3854255 L17.2303824,11.9429599 C18.0268479,12.1620068 18.2658256,13.3309308 18.2403651,13.8193301 L16.9556467,13.8193301 C15.9801399,13.8193301 15.0760227,13.6199733 14.0291262,13.3470696 C13.9432673,13.2408794 13.9721624,12.1624719 14.3564209,12.0041165 L15.8627309,11.3854255 Z M16.6961578,10.8673721 C16.6941934,10.837896 16.6866936,10.8082007 16.673177,10.7796725 C16.673177,10.7796725 16.3852214,10.1992895 16.2604714,9.78583108 C16.1357215,9.37237257 16.2248298,9.18889118 16.0856191,9.18889118 C15.9468763,9.18889118 15.9468763,9.07312664 15.9468763,9.07312664 L15.7438637,8.06220068 C15.7438637,8.06220068 15.6644162,7.80494618 15.8826065,7.80494618 C15.9287737,7.67195911 15.9661996,6.94319377 15.9661996,6.94319377 C15.9661996,6.48651679 16.2035195,6.23798792 16.5475347,5.99197747 C16.8915498,5.74596706 17.4228029,5.66973366 17.8023733,5.66973366 C18.1819437,5.66973366 18.6793608,5.76361522 19.0218101,5.99197747 C19.3642592,6.22033971 19.607568,6.49294814 19.5932378,6.94319377 C19.5932378,7.28613943 19.6808899,7.80494618 19.6808899,7.80494618 C19.8288939,7.80494618 19.792275,8.06220068 19.792275,8.06220068 L19.6005496,9.07312664 C19.6005496,9.07312664 19.6005496,9.18889118 19.4891645,9.18889118 C19.3777795,9.18889118 19.4108642,9.53681494 19.3248013,9.78583108 C19.2387385,10.0348472 18.9597451,10.7745133 18.9597451,10.7745133 C18.9113278,10.9033346 18.9739443,11.0492916 19.1007525,11.100986 L21.3255078,12.0079257 C21.9475414,12.1789997 22.0413826,13.2500357 21.9438592,13.3470696 C21.0277926,13.5645065 20.1178478,13.8193301 19.2048421,13.8193301 L19.1799103,13.8193301 C19.0885429,13.1535178 18.8043109,11.8145941 17.9714352,11.3994561 C17.704694,11.2665018 17.2033314,11.0653521 16.6961578,10.8673721 Z" id="Meeting" fill="#000000"></path>
            <path d="M5.89134146,14.0259004 C5.75788054,13.8608362 5.80279571,12.1845377 6.40009501,11.9383868 L9.80358054,10.5404635 C10.006386,10.4571646 10.0930954,10.2288127 10.001308,10.0350861 C10.001308,10.0350861 9.55370395,9.13292689 9.35979001,8.49023862 C9.16587614,7.84755027 9.30438791,7.56234305 9.08799588,7.56234305 C8.87233125,7.56234305 8.87233125,7.3823963 8.87233125,7.3823963 L8.55676443,5.81099235 C8.55676443,5.81099235 8.4332696,5.41111071 8.77242905,5.41111071 C8.84419223,5.20439289 8.90236778,4.07158517 8.90236778,4.07158517 C8.90236778,3.36171716 9.27126275,2.97539882 9.80600694,2.59299514 C10.3407511,2.21059154 11.1665418,2.0920928 11.7565537,2.0920928 C12.3465657,2.0920928 13.119761,2.23802421 13.6520711,2.59299514 C14.1843811,2.94796607 14.5625852,3.37171418 14.54031,4.07158517 C14.54031,4.6046669 14.6765582,5.41111071 14.6765582,5.41111071 C14.9066187,5.41111071 14.8496975,5.81099235 14.8496975,5.81099235 L14.5516756,7.3823963 C14.5516756,7.3823963 14.5516756,7.56234305 14.3785364,7.56234305 C14.2053972,7.56234305 14.2568248,8.10316285 14.1230469,8.49023862 C13.989269,8.87731439 13.5555961,10.0270664 13.5555961,10.0270664 C13.4803351,10.2273088 13.5776675,10.4541875 13.7747808,10.5345423 L17.2329859,11.9443079 C18.1998877,12.2102288 18.3457563,13.875069 18.1941639,14.0259004 C16.7702112,14.3638889 15.3557746,14.7599919 13.9365799,14.7599919 L10.4403846,14.7599919 C8.92403691,14.7599919 7.51865871,14.4501076 5.89134146,14.0259004 Z" id="Person" fill="#000000"></path>
            <circle id="Oval" fill="#FFFFFF" cx="17" cy="17" r="6"></circle>
            <path d="M17,22 C14.2385763,22 12,19.7614237 12,17 C12,14.2385763 14.2385763,12 17,12 C19.7614237,12 22,14.2385763 22,17 C22,19.7614237 19.7614237,22 17,22 Z M17.5,16.5 L17.5,14.5004358 C17.5,14.2223154 17.2761424,14 17,14 C16.7219324,14 16.5,14.2240528 16.5,14.5004358 L16.5,16.5 L14.5004358,16.5 C14.2223154,16.5 14,16.7238576 14,17 C14,17.2780676 14.2240528,17.5 14.5004358,17.5 L16.5,17.5 L16.5,19.4995642 C16.5,19.7776846 16.7238576,20 17,20 C17.2780676,20 17.5,19.7759472 17.5,19.4995642 L17.5,17.5 L19.4995642,17.5 C19.7776846,17.5 20,17.2761424 20,17 C20,16.7219324 19.7759472,16.5 19.4995642,16.5 L17.5,16.5 Z" id="Chevron-Box" fill="#000000" fill-rule="nonzero" transform="translate(17.000000, 17.000000) scale(-1, 1) translate(-17.000000, -17.000000) "></path>
        </g>
    </g>
</svg>