<?xml version="1.0" encoding="UTF-8" standalone="no"?>
<svg width="24px" height="24px" viewBox="0 0 24 24" version="1.1" xmlns="http://www.w3.org/2000/svg" xmlns:xlink="http://www.w3.org/1999/xlink">
    <!-- Generator: Sketch 44.1 (41455) - http://www.bohemiancoding.com/sketch -->
    <title>inbox</title>
    <desc>Created with Sketch.</desc>
    <defs></defs>
    <g id="PDS" stroke="none" stroke-width="1" fill="none" fill-rule="evenodd">
        <g id="inbox" fill="#000000">
            <path d="M15.3203125,13.1666667 L19.4348958,13.1666667 C19.4262152,13.1406249 19.4153646,13.1037329 19.4023437,13.0559896 C19.3893229,13.0082463 19.3784723,12.9756945 19.3697917,12.9583333 L16.609375,6.5 L7.390625,6.5 L4.63020833,12.9583333 C4.62152773,12.9843751 4.61067715,13.0212671 4.59765625,13.0690104 C4.58463535,13.1167537 4.57378477,13.1493055 4.56510417,13.1666667 L8.6796875,13.1666667 L9.91666667,15.6666667 L14.0833333,15.6666667 L15.3203125,13.1666667 Z M22,13.5572917 L22,18.537037 C22,18.7627326 21.9175355,18.9580432 21.7526042,19.1229745 C21.5876728,19.2879059 21.3923622,19.3703704 21.1666667,19.3703704 L2.83333333,19.3703704 C2.60763776,19.3703704 2.41232721,19.2879059 2.24739583,19.1229745 C2.08246445,18.9580432 2,18.7627326 2,18.537037 L2,13.5572917 C2,13.0190945 2.10850586,12.4852457 2.32552083,11.9557292 L5.42447917,4.76822917 C5.51128516,4.55121419 5.66970371,4.36892435 5.89973958,4.22135417 C6.12977546,4.07378398 6.35763776,4 6.58333333,4 L17.4166667,4 C17.6423622,4 17.8702245,4.07378398 18.1002604,4.22135417 C18.3302963,4.36892435 18.4887148,4.55121419 18.5755208,4.76822917 L21.6744792,11.9557292 C21.8914941,12.4852457 22,13.0190945 22,13.5572917 Z" id="Inbox"></path>
        </g>
    </g>
</svg>