<?xml version="1.0" encoding="UTF-8" standalone="no"?>
<svg width="24px" height="24px" viewBox="0 0 24 24" version="1.1" xmlns="http://www.w3.org/2000/svg" xmlns:xlink="http://www.w3.org/1999/xlink">
    <!-- Generator: Sketch 44.1 (41455) - http://www.bohemiancoding.com/sketch -->
    <title>inprogress</title>
    <desc>Created with Sketch.</desc>
    <defs>
        <linearGradient x1="50%" y1="0%" x2="50%" y2="100%" id="linearGradient-1">
            <stop stop-color="#FFFFFF" stop-opacity="0.5" offset="0%"></stop>
            <stop stop-color="#000000" stop-opacity="0.5" offset="100%"></stop>
        </linearGradient>
        <path d="M10.1998367,2.00901567 C9.60221843,2.11269592 9.02250631,2.27047022 8.46629603,2.47557679 C8.10481531,2.60855798 7.96268512,3.05257992 8.1551764,3.38841377 L8.53680156,4.05557363 C8.69236138,4.32378993 9.01131496,4.43085106 9.30229015,4.32942473 C9.65593693,4.20658617 10.0207751,4.10741376 10.3945663,4.03528837 C10.697852,3.97555953 10.9239173,3.72312066 10.9239173,3.41320687 L10.9239173,2.64462068 C10.9239173,2.29075548 10.6385378,2 10.3027972,2 C10.2692231,2 10.2345299,2.00338088 10.1998367,2.00901567 Z M12.9372418,2.64462068 L12.9372418,3.41320687 C12.9372418,3.72312066 13.162188,3.97555953 13.4643546,4.03528837 C17.179884,4.75654228 19.9855563,8.04839018 19.9855563,11.9995092 C19.9855563,15.9506283 17.179884,19.2424762 13.4643546,19.9637301 C13.162188,20.022332 12.9372418,20.2747709 12.9372418,20.5858116 L12.9372418,21.3543978 C12.9372418,21.7431987 13.2819355,22.0564934 13.6613224,21.9900028 C18.3975033,21.1639417 22,17.0054621 22,11.9995092 C22,6.99355635 18.3975033,2.83507679 13.6613224,2.00901567 C13.6266292,2.00338088 13.591936,2 13.5583619,2 C13.2215022,2 12.9372418,2.29188244 12.9372418,2.64462068 Z M5.47372807,4.21785576 C5.10888994,4.52551563 4.76531538,4.85796861 4.4463618,5.21521468 C4.17217364,5.52287455 4.23260695,6.00408614 4.58849199,6.21031968 L5.2532584,6.5968667 C5.51289781,6.74787923 5.83632793,6.68589648 6.04001056,6.46501247 C6.23138271,6.25765197 6.43394621,6.06268802 6.6454628,5.87786671 C6.87824295,5.67276013 6.94762934,5.33805324 6.7943078,5.06758302 L6.4115635,4.40267708 C6.29293516,4.19531658 6.07470376,4.07923978 5.85647236,4.07923978 C5.72105698,4.07923978 5.5856416,4.12319119 5.47372807,4.21785576 Z M2.58747796,8.2084184 C2.32783856,8.85980083 2.13087073,9.54386508 2.01000411,10.2538494 C1.94285599,10.6370155 2.25621389,10.9852459 2.6423156,10.9852459 L3.39997024,10.9852459 C3.70997073,10.9852459 3.96289533,10.7576002 4.02109037,10.4510673 C4.11174033,9.98112526 4.24156003,9.52696069 4.4083112,9.09082747 C4.52246301,8.79105632 4.41838342,8.45296855 4.14307612,8.29294034 L3.49173934,7.91315508 C3.38989802,7.8545532 3.27798448,7.82637922 3.16830922,7.82637922 C2.92321857,7.82637922 2.68596187,7.9649952 2.58747796,8.2084184 Z M2.63895819,13.0126456 C2.25397562,13.0126456 1.94285599,13.359749 2.00888498,13.7417882 C2.11184543,14.3435844 2.26852438,14.9273493 2.47332616,15.4874481 C2.60426499,15.8514559 3.04520433,15.9934528 3.37870667,15.8007427 L4.0412348,15.4164496 C4.30758902,15.2598023 4.41278774,14.9386189 4.3131847,14.6456095 C4.19119894,14.2894904 4.09271503,13.9221017 4.02109037,13.5456973 C3.96289533,13.2402914 3.712209,13.0126456 3.40332764,13.0126456 L2.63895819,13.0126456 Z M5.04957577,17.1699982 L4.38816676,17.5554182 C4.05466443,17.7481283 3.95618051,18.2045468 4.20462856,18.502064 C4.58849199,18.9652442 5.0126443,19.3923618 5.4714898,19.7789088 C5.76806067,20.0279668 6.22131049,19.9299213 6.41268264,19.5940875 L6.79542693,18.9269276 C6.94874848,18.6598383 6.88048122,18.3273853 6.64770107,18.1245327 C6.36232155,17.8743477 6.09596733,17.6061314 5.84751928,17.3187568 C5.71881871,17.1688712 5.53863792,17.0866032 5.35509972,17.0866032 C5.25102013,17.0866032 5.14582141,17.1136502 5.04957577,17.1699982 Z M10.6130695,16.364461 C10.3336538,16.3862909 10.0460726,16.2894524 9.826774,16.0701538 L6.29538279,12.5387626 C5.90371453,12.1470943 5.90006449,11.5157246 6.29331144,11.1224777 C6.68383574,10.7319534 7.3100471,10.7249998 7.70959635,11.124549 L10.6039716,14.0189243 L16.3319725,8.29092336 C16.7214049,7.901491 17.3525346,7.90352625 17.7430589,8.29405054 C18.1363059,8.68729749 18.1349833,9.31633972 17.7461861,9.70513692 L11.3759707,16.0753523 C11.1665609,16.2847621 10.8872631,16.3809773 10.6130695,16.364461 Z M8.53680156,19.9434449 C8.65319164,19.7428461 8.86135082,19.6324041 9.08070135,19.6324041 C9.15456428,19.6324041 9.22954635,19.6448007 9.30229015,19.6707207 C9.65593693,19.7924323 10.0207751,19.8916047 10.3945663,19.9637301 C10.697852,20.022332 10.9239173,20.2747709 10.9239173,20.5858116 L10.9239173,21.3555248 C10.9239173,21.7431987 10.5792236,22.0564934 10.1998367,21.9900028 C9.60221843,21.8863226 9.02250631,21.7285483 8.46629603,21.5234417 C8.10481531,21.3904605 7.96268512,20.9453116 8.1551764,20.6094778 L8.53680156,19.9434449 Z" id="path-2"></path>
    </defs>
    <g id="PDS" stroke="none" stroke-width="1" fill="none" fill-rule="evenodd">
        <g id="inprogress">
            <mask id="mask-3" fill="white">
                <use xlink:href="#path-2"></use>
            </mask>
            <g id="Clip-2">
                <use fill="#D8D8D8" xlink:href="#path-2"></use>
                <use fill="url(#linearGradient-1)" xlink:href="#path-2"></use>
                <use fill="url(#linearGradient-1)" xlink:href="#path-2"></use>
                <use fill="url(#linearGradient-1)" xlink:href="#path-2"></use>
                <use fill="url(#linearGradient-1)" xlink:href="#path-2"></use>
                <use fill="url(#linearGradient-1)" xlink:href="#path-2"></use>
                <use fill="#000000" xlink:href="#path-2"></use>
            </g>
        </g>
    </g>
</svg>