<?xml version="1.0" encoding="UTF-8" standalone="no"?>
<svg width="24px" height="24px" viewBox="0 0 24 24" version="1.1" xmlns="http://www.w3.org/2000/svg" xmlns:xlink="http://www.w3.org/1999/xlink">
    <!-- Generator: Sketch 44.1 (41455) - http://www.bohemiancoding.com/sketch -->
    <title>insert</title>
    <desc>Created with Sketch.</desc>
    <defs></defs>
    <g id="PDS" stroke="none" stroke-width="1" fill="none" fill-rule="evenodd">
        <g id="insert" fill="#000000">
            <path d="M7.36594167,15.2999997 L7.36594167,18.7391304 C7.36594167,19.2373213 7.54987925,19.6637965 7.90594163,20.0185688 C8.26200402,20.3733411 8.67593959,20.5507246 9.17594209,20.5507246 L18.545942,20.5507246 C19.0459445,20.5507246 19.4698784,20.3733411 19.8259408,20.0185688 C20.1820031,19.6637965 20.3659417,19.2373213 20.3659417,18.7391304 L20.3659417,5.26086957 C20.3659417,4.76267867 20.1820031,4.33620346 19.8259408,3.98143116 C19.4698784,3.62665885 19.0459445,3.44927536 18.545942,3.44927536 L9.17594209,3.44927536 C8.67593959,3.44927536 8.26200402,3.62665885 7.90594163,3.98143116 C7.54987925,4.33620346 7.36594167,4.76267867 7.36594167,5.26086957 L7.36594167,8.69999981 L5.86594167,8.69999981 L5.86594167,15.2999997 L7.36594167,15.2999997 Z M21.8659417,5.26086957 L21.8659417,18.7391304 C21.8659417,19.6373837 21.5458691,20.4054165 20.9057144,21.0432518 C20.2655597,21.6810871 19.4947341,22 18.5932144,22 L9.13866894,22 C8.23714928,22 7.46632366,21.6810871 6.82616894,21.0432518 C6.18601423,20.4054165 5.86594167,19.6373837 5.86594167,18.7391304 L5.86594167,5.26086957 C5.86594167,4.36261628 6.18601423,3.5945835 6.82616894,2.95674819 C7.46632366,2.31891287 8.23714928,2 9.13866894,2 L18.5932144,2 C19.4947341,2 20.2655597,2.31891287 20.9057144,2.95674819 C21.5458691,3.5945835 21.8659417,4.36261628 21.8659417,5.26086957 Z" id="Path"></path>
            <path d="M6.61594167,9.5 C6.20172811,9.5 5.86594167,9.16421356 5.86594167,8.75 C5.86594167,8.33578644 6.20172811,8 6.61594167,8 C7.03015523,8 7.36594167,8.33578644 7.36594167,8.75 C7.36594167,9.16421356 7.03015523,9.5 6.61594167,9.5 Z M6.61594167,16 C6.20172811,16 5.86594167,15.6642136 5.86594167,15.25 C5.86594167,14.8357864 6.20172811,14.5 6.61594167,14.5 C7.03015523,14.5 7.36594167,14.8357864 7.36594167,15.25 C7.36594167,15.6642136 7.03015523,16 6.61594167,16 Z" id="Combined-Shape"></path>
            <path d="M8.1156089,8.00336053 L8.1156089,18.2887275 C8.1156089,18.7601762 8.49349729,19.1390816 8.95964625,19.1390816 C9.42904511,19.1390816 9.8036836,18.7583651 9.8036836,18.2887275 L9.8036836,7.9253818 L11.8306642,9.95236243 C12.1555726,10.2772708 12.6946748,10.2819581 13.0242919,9.95234105 C13.356207,9.62042594 13.3539186,9.08831865 13.0243133,8.75871336 L9.65284976,5.38724984 C9.47559671,5.20999679 9.23459482,5.12804869 8.99863562,5.14369221 C8.76267641,5.12804869 8.52167452,5.20999679 8.34442147,5.38724984 L4.97295794,8.75871336 C4.64335266,9.08831865 4.6410642,9.62042594 4.97297931,9.95234105 C5.3025964,10.2819581 5.84169859,10.2772708 6.16660701,9.95236243 L8.1156089,8.00336053 Z" id="Arrow" transform="translate(8.998636, 12.140446) rotate(90.000000) translate(-8.998636, -12.140446) "></path>
        </g>
    </g>
</svg>