<?xml version="1.0" encoding="UTF-8" standalone="no"?>
<svg width="24px" height="24px" viewBox="0 0 24 24" version="1.1" xmlns="http://www.w3.org/2000/svg" xmlns:xlink="http://www.w3.org/1999/xlink">
    <!-- Generator: Sketch 44.1 (41455) - http://www.bohemiancoding.com/sketch -->
    <title>left-right-arrows-f</title>
    <desc>Created with Sketch.</desc>
    <defs></defs>
    <g id="PDS" stroke="none" stroke-width="1" fill="none" fill-rule="evenodd">
        <g id="left-right-arrows-f" fill-rule="nonzero" fill="#000000">
            <path d="M2.001898,7.237372 C2.01144624,6.920312 2.1750968,6.6517872 2.29156392,6.5183192 L6.86589192,2.22148 C7.16596024,1.9270736 7.65052224,1.9251656 7.9528668,2.2218056 C8.25311816,2.5163912 8.24780288,2.9992248 7.95319816,3.2882712 L4.57007992,6.533596 L16.6023226,6.533596 C17.0262775,6.533596 17.3699609,6.869652 17.3699609,7.2907088 C17.3699609,7.7088512 17.0219938,8.0478224 16.6023226,8.0478224 L4.57068288,8.0478224 L7.95319816,11.290092 C8.2563716,11.5875448 8.26083368,12.0654336 7.95848904,12.3620736 C7.65823776,12.65666 7.16883672,12.6541112 6.86589192,12.3568824 L2.29156392,8.0410248 C2.16099936,7.9139288 2.04536048,7.6869752 2.0114684,7.4225656 C2.00393016,7.3797904 2,7.335736 2,7.2907088 C2,7.2727776 2.00063992,7.254992 2.001898,7.237372 Z M21.998102,16.762628 C21.9885538,17.079688 21.8249032,17.3482128 21.7084361,17.4816808 L17.1341081,21.77852 C16.8340398,22.0729264 16.3494778,22.0748344 16.0471332,21.7781944 C15.7468818,21.4836088 15.7521971,21.0007752 16.0468018,20.7117288 L19.4299201,17.466404 L7.39767736,17.466404 C6.97372248,17.466404 6.63003912,17.130348 6.63003912,16.7092912 C6.63003912,16.2911488 6.97800616,15.9521776 7.39767736,15.9521776 L19.4293171,15.9521776 L16.0468018,12.709908 C15.7436284,12.4124552 15.7391663,11.9345664 16.041511,11.6379264 C16.3417622,11.34334 16.8311633,11.3458888 17.1341081,11.6431176 L21.7084361,15.9589752 C21.8390006,16.0860712 21.9546395,16.3130248 21.9885316,16.5774344 C21.9960698,16.6202096 22,16.664264 22,16.7092912 C22,16.7272224 21.9993601,16.745008 21.998102,16.762628 Z" id="Shape"></path>
        </g>
    </g>
</svg>