<?xml version="1.0" encoding="UTF-8" standalone="no"?>
<svg width="24px" height="24px" viewBox="0 0 24 24" version="1.1" xmlns="http://www.w3.org/2000/svg" xmlns:xlink="http://www.w3.org/1999/xlink">
    <!-- Generator: Sketch 44.1 (41455) - http://www.bohemiancoding.com/sketch -->
    <title>locker</title>
    <desc>Created with Sketch.</desc>
    <defs></defs>
    <g id="PDS-Current" stroke="none" stroke-width="1" fill="none" fill-rule="evenodd">
        <g id="locker" fill="#000000">
            <path d="M17.7272727,9.91668292 C18.8588426,11.1987433 19.5454545,12.8828246 19.5454545,14.7272727 C19.5454545,18.7438891 16.2893436,22 12.2727273,22 C8.25611091,22 5,18.7438891 5,14.7272727 C5,12.8828246 5.68661198,11.1987433 6.81818182,9.91668292 L6.81818182,7.45454545 L6.81818182,7.45454545 C6.81818182,4.44208318 9.260265,2 12.2727273,2 L12.2727273,2 L12.2727273,2 C15.2851895,2 17.7272727,4.44208318 17.7272727,7.45454545 L17.7272727,9.91668292 Z M15.9090909,8.42750687 L15.9090909,7.90909091 C15.9090909,5.90078273 14.2810355,4.27272727 12.2727273,4.27272727 L12.2727273,4.27272727 L12.2727273,4.27272727 C10.2644191,4.27272727 8.63636364,5.90078273 8.63636364,7.90909091 L8.63636364,7.90909091 L8.63636364,8.42750687 C9.70608497,7.80870649 10.9480468,7.45454545 12.2727273,7.45454545 C13.5974078,7.45454545 14.8393696,7.80870649 15.9090909,8.42750687 Z M12.2727273,9.34000015 C12.0718965,9.34000015 11.9090909,9.5028057 11.9090909,9.70363652 L11.9090909,11.1595227 C11.9090909,11.3603535 12.0718965,11.5231591 12.2727273,11.5231591 L12.2727273,11.5231591 C12.4735581,11.5231591 12.6363636,11.3603535 12.6363636,11.1595227 L12.6363636,9.70363652 C12.6363636,9.5028057 12.4735581,9.34000015 12.2727273,9.34000015 Z M12.2727273,20.1231594 C12.4735581,20.1231594 12.6363636,19.9603539 12.6363636,19.7595231 L12.6363636,18.3036369 C12.6363636,18.1028061 12.4735581,17.9400005 12.2727273,17.9400005 C12.0718965,17.9400005 11.9090909,18.1028061 11.9090909,18.3036369 L11.9090909,19.7595231 C11.9090909,19.9603539 12.0718965,20.1231594 12.2727273,20.1231594 Z M17.6631585,14.9097613 C17.6631585,14.7089305 17.5003529,14.5461249 17.2995221,14.5461249 L15.8436359,14.5461249 C15.6428051,14.5461249 15.4799995,14.7089305 15.4799995,14.9097613 C15.4799995,15.1105921 15.6428051,15.2733976 15.8436359,15.2733976 L17.2995221,15.2733976 L17.2995221,15.2733976 C17.5003529,15.2733976 17.6631585,15.1105921 17.6631585,14.9097613 Z M6.8499999,14.9097613 C6.8499999,15.1105921 7.01280545,15.2733976 7.21363627,15.2733976 L8.66952246,15.2733976 C8.87035327,15.2733976 9.03315882,15.1105921 9.03315882,14.9097613 C9.03315882,14.7089305 8.87035327,14.5461249 8.66952246,14.5461249 L7.21363627,14.5461249 C7.01280545,14.5461249 6.8499999,14.7089305 6.8499999,14.9097613 Z M8.0471297,10.6571294 C7.90512087,10.7991382 7.90512087,11.02938 8.0471297,11.1713888 L9.0765967,12.2008558 C9.21860553,12.3428647 9.44884734,12.3428647 9.59085617,12.2008558 C9.73286501,12.058847 9.73286501,11.8286052 9.59085617,11.6865964 L8.56138918,10.6571294 C8.41938034,10.5151205 8.18913853,10.5151205 8.0471297,10.6571294 Z M16.4308563,10.6571294 C16.2888475,10.5151205 16.0586057,10.5151205 15.9165968,10.6571294 L14.8871299,11.6865964 C14.745121,11.8286052 14.745121,12.058847 14.8871299,12.2008558 C15.0291387,12.3428647 15.2593805,12.3428647 15.4013893,12.2008558 L16.4308563,11.1713888 C16.5728652,11.02938 16.5728652,10.7991382 16.4308563,10.6571294 Z M14.8871299,17.3171292 C14.745121,17.459138 14.745121,17.6893798 14.8871299,17.8313887 L15.9165968,18.8608557 C16.0586057,19.0028645 16.2888475,19.0028645 16.4308563,18.8608557 C16.5728652,18.7188468 16.5728652,18.488605 16.4308563,18.3465962 L15.4013893,17.3171292 C15.2593805,17.1751204 15.0291387,17.1751204 14.8871299,17.3171292 Z M9.59177196,17.22713 C9.44976313,17.0851212 9.21952132,17.0851212 9.07751248,17.22713 L8.04804549,18.256597 C7.90603665,18.3986058 7.90603665,18.6288476 8.04804549,18.7708565 C8.19005432,18.9128653 8.42029613,18.9128653 8.56230497,18.7708565 L9.59177196,17.7413895 C9.73378079,17.5993806 9.73378079,17.3691388 9.59177196,17.22713 Z M12.2727273,12.4636452 C11.0175347,12.4636452 10,13.4818052 10,14.7377691 C10,15.993733 11.0175347,17.011893 12.2727273,17.011893 C13.5279199,17.011893 14.5454545,15.993733 14.5454545,14.7377691 C14.5454545,13.4818052 13.5279199,12.4636452 12.2727273,12.4636452 Z M12.2727273,15.8217557 C11.6702348,15.8217557 11.1818182,15.333039 11.1818182,14.7301763 C11.1818182,14.1273136 11.6702348,13.6385968 12.2727273,13.6385968 C12.8752197,13.6385968 13.3636364,14.1273136 13.3636364,14.7301763 C13.3636364,15.333039 12.8752197,15.8217557 12.2727273,15.8217557 Z" id="Combined-Shape"></path>
        </g>
    </g>
</svg>