<?xml version="1.0" encoding="UTF-8" standalone="no"?>
<svg width="24px" height="24px" viewBox="0 0 24 24" version="1.1" xmlns="http://www.w3.org/2000/svg" xmlns:xlink="http://www.w3.org/1999/xlink">
    <!-- Generator: Sketch 44.1 (41455) - http://www.bohemiancoding.com/sketch -->
    <title>lock</title>
    <desc>Created with Sketch.</desc>
    <defs></defs>
    <g id="PDS" stroke="none" stroke-width="1" fill="none" fill-rule="evenodd">
        <g id="lock" fill="#000000">
            <path d="M8.28571429,10.5714286 L15.1428571,10.5714286 L15.1428571,8 C15.1428571,7.0535667 14.8080391,6.24553906 14.1383929,5.57589286 C13.4687467,4.90624665 12.660719,4.57142857 11.7142857,4.57142857 C10.7678524,4.57142857 9.95982478,4.90624665 9.29017857,5.57589286 C8.62053237,6.24553906 8.28571429,7.0535667 8.28571429,8 L8.28571429,10.5714286 Z M19.4285714,11.8571429 L19.4285714,20.5714286 C19.4285714,20.9285732 19.3035727,21.2321416 19.0535714,21.4821429 C18.8035702,21.7321441 18.5000018,21.8571429 18.1428571,21.8571429 L5.28571429,21.8571429 C4.92856964,21.8571429 4.62500125,21.7321441 4.375,21.4821429 C4.12499875,21.2321416 4,20.9285732 4,20.5714286 L4,11.8571429 C4,11.4999982 4.12499875,11.1964298 4.375,10.9464286 C4.62500125,10.6964273 4.92856964,10.5714286 5.28571429,10.5714286 L5.71428571,10.5714286 L5.71428571,8 C5.71428571,6.35713464 6.30356554,4.94643446 7.48214286,3.76785714 C8.66072018,2.58927982 10.0714204,2 11.7142857,2 C13.3571511,2 14.7678513,2.58927982 15.9464286,3.76785714 C17.1250059,4.94643446 17.7142857,6.35713464 17.7142857,8 L17.7142857,10.5714286 L18.1428571,10.5714286 C18.5000018,10.5714286 18.8035702,10.6964273 19.0535714,10.9464286 C19.3035727,11.1964298 19.4285714,11.4999982 19.4285714,11.8571429 Z" id="security"></path>
        </g>
    </g>
</svg>