<?xml version="1.0" encoding="UTF-8" standalone="no"?>
<svg width="24px" height="24px" viewBox="0 0 24 24" version="1.1" xmlns="http://www.w3.org/2000/svg" xmlns:xlink="http://www.w3.org/1999/xlink">
    <!-- Generator: Sketch 44.1 (41455) - http://www.bohemiancoding.com/sketch -->
    <title>mailbox</title>
    <desc>Created with Sketch.</desc>
    <defs></defs>
    <g id="PDS" stroke="none" stroke-width="1" fill="none" fill-rule="evenodd">
        <g id="mailbox" fill="#000000">
            <path d="M17.7624968,16.2615322 L12.5140747,16.2615322 C12.1222097,16.2615322 11.8020795,15.941402 11.8020795,15.5506077 C11.8020795,15.1587426 12.1222097,14.8386124 12.5140747,14.8386124 L17.7624968,14.8386124 C18.1543618,14.8386124 18.474492,15.1587426 18.474492,15.5506077 C18.474492,15.941402 18.1543618,16.2615322 17.7624968,16.2615322 M8.68857253,20.3407831 L3.69068718,20.3407831 C3.54293479,20.3407831 3.4230198,20.2208681 3.4230198,20.0731157 L3.4230198,13.4360353 C3.4230198,11.9574407 4.621099,10.7593615 6.09969361,10.7593615 L6.27956609,10.7593615 C7.75816071,10.7593615 8.95623991,11.9574407 8.95623991,13.4360353 L8.95623991,20.0731157 C8.95623991,20.2208681 8.83632492,20.3407831 8.68857253,20.3407831 M15.3773577,3.53412054 L15.3773577,2.49753233 C15.3773577,2.22910259 15.1507019,2 14.8711077,2 L14.2836077,2 C13.9998309,2 13.7773577,2.22275281 13.7773577,2.49753233 L13.7773577,10.0678239 C13.7773577,10.2742513 13.9113996,10.4574211 14.1004785,10.5310253 C14.0431946,10.5531858 13.9806726,10.5653562 13.915047,10.5653562 L13.2114007,10.5653562 C12.9326557,10.5653562 12.7066882,10.3362536 12.7066882,10.0678239 L12.7066882,9.49490081 L6.2827781,9.49490081 C3.91766912,9.49490081 2.0001,11.4124699 2.0001,13.7775789 L2.0001,21.4007459 C2.0001,21.5484983 2.12001499,21.6684133 2.26776738,21.6684133 L20.8310356,21.6684133 C20.978788,21.6684133 21.098703,21.5484983 21.098703,21.4007459 L21.098703,13.7775789 C21.098703,11.4124699 19.1811339,9.49490081 16.8160249,9.49490081 L15.3773577,9.49490081 L15.3773577,7.41739201 C15.3992121,7.42228107 15.4220064,7.4247256 15.4457405,7.4247256 C15.495395,7.4247256 15.5466004,7.41134236 15.5993583,7.38457549 C16.4434846,6.95035734 17.1634638,6.73325153 17.7593177,6.73325153 C17.9858663,6.73325153 18.2069806,6.7659661 18.4226673,6.83139623 C18.6383539,6.89682637 18.8175729,6.96820362 18.9603296,7.04553014 C19.1030862,7.12285666 19.2714434,7.19423391 19.4654063,7.25966405 C19.6593691,7.32509418 19.8510015,7.35780875 20.0403093,7.35780875 C20.5182337,7.35780875 21.0908034,7.18531372 21.7580356,6.84031848 C21.8418275,6.79868112 21.9031189,6.75778791 21.9419114,6.7176376 C21.980704,6.67748729 22.0001,6.62023678 22.0001,6.54588436 L22.0001,3.14204749 C22.0001,3.06472098 21.9706181,2.9978048 21.9116534,2.94129696 C21.8526887,2.88478912 21.7828631,2.85653562 21.7021746,2.85653562 C21.6618303,2.85653562 21.5772638,2.88776317 21.4484724,2.9502192 C21.3196811,3.01267524 21.1831333,3.08256547 21.038825,3.15989199 C20.8945166,3.23721851 20.7238319,3.30710873 20.5267656,3.36956477 C20.3296994,3.4320208 20.147377,3.46324835 19.9797932,3.46324835 C19.8246229,3.46324835 19.6880751,3.43499486 19.5701457,3.37848701 C19.1791166,3.2030153 18.8392988,3.072157 18.5506821,2.98590819 C18.2620654,2.89965938 17.9517295,2.85653562 17.6196651,2.85653562 C17.0455351,2.85653562 16.3922781,3.03497876 15.6598744,3.39187038 C15.5404124,3.44911256 15.4462406,3.49652909 15.3773577,3.53412054 Z" id="Combined-Shape"></path>
        </g>
    </g>
</svg>