<?xml version="1.0" encoding="UTF-8" standalone="no"?>
<svg width="24px" height="24px" viewBox="0 0 24 24" version="1.1" xmlns="http://www.w3.org/2000/svg" xmlns:xlink="http://www.w3.org/1999/xlink">
    <!-- Generator: Sketch 44.1 (41455) - http://www.bohemiancoding.com/sketch -->
    <title>mail-group</title>
    <desc>Created with Sketch.</desc>
    <defs></defs>
    <g id="PDS" stroke="none" stroke-width="1" fill="none" fill-rule="evenodd">
        <g id="mail-group" fill="#000000">
            <path d="M13.6678405,11.5563746 L19.7700005,7.2835962 L19.7700005,7.73518499 L21.0035346,7.73518499 C21.5538672,7.73518499 22,8.18002197 22,8.73076249 L22,17.7396075 C22,18.2894498 21.5550537,18.735185 21.0066023,18.735185 L4.99339768,18.735185 C4.44475929,18.735185 4,18.2918318 4,17.7258161 L4,16.287895 L3.19353271,16.287895 C2.93871227,16.287895 2.7025433,16.2073998 2.50868629,16.0704205 L9.19864915,12.3621135 C9.20521489,12.3584741 9.21168385,12.3547265 9.21805526,12.3508744 L10.5041983,13.2514414 C10.6285787,13.3385335 10.7708853,13.3717225 10.9068439,13.3570646 C11.0257776,13.3572978 11.1462029,13.3220442 11.2514625,13.2483407 L12.5934188,12.3086928 C12.6189099,12.3289685 12.6463945,12.3474132 12.6758024,12.3637143 L19.2930691,16.0317251 C19.2973098,16.0340758 19.3015671,16.0363704 19.3058402,16.0386092 C19.1044723,16.1949196 18.8517065,16.287895 18.5764677,16.287895 L5,16.287895 L5,17.2255191 C5,17.5127118 5.22224281,17.735185 5.4963932,17.735185 L20.5036068,17.735185 C20.773819,17.735185 21,17.5069998 21,17.2255191 L21,9.24485084 C21,8.95765814 20.7777572,8.73518499 20.5036068,8.73518499 L19.7700005,8.73518499 L19.7700005,14.9388571 L13.6678405,11.5563746 Z M2,14.9951545 L2,7.29673766 L8.13656045,11.5936035 L2,14.9951545 Z M19.2451231,6.20623248 C19.2262727,6.21662173 19.207784,6.22812583 19.189741,6.2407597 L10.8756163,12.0623725 L2.5176742,6.21007848 C2.709525,6.07755294 2.94215625,6 3.19353271,6 L18.5764677,6 C18.8242363,6 19.0543714,6.07610158 19.2451231,6.20623248 Z" id="Combined-Shape"></path>
        </g>
    </g>
</svg>