<?xml version="1.0" encoding="UTF-8" standalone="no"?>
<svg width="24px" height="24px" viewBox="0 0 24 24" version="1.1" xmlns="http://www.w3.org/2000/svg" xmlns:xlink="http://www.w3.org/1999/xlink">
    <!-- Generator: Sketch 44.1 (41455) - http://www.bohemiancoding.com/sketch -->
    <title>media-controls-pause</title>
    <desc>Created with Sketch.</desc>
    <defs></defs>
    <g id="PDS" stroke="none" stroke-width="1" fill="none" fill-rule="evenodd">
        <g id="media-controls-pause" fill="#000000">
            <path d="M2,6.99525338 C2,4.23645112 4.23603796,2 6.99525338,2 L17.0047466,2 C19.7635489,2 22,4.23603796 22,6.99525338 L22,17.0047466 C22,19.7635489 19.763962,22 17.0047466,22 L6.99525338,22 C4.23645112,22 2,19.763962 2,17.0047466 L2,6.99525338 Z M9,7.99539757 L9,16.0046024 C9,16.5443356 9.44771525,17 10,17 C10.5561352,17 11,16.5543453 11,16.0046024 L11,7.99539757 C11,7.4556644 10.5522847,7 10,7 C9.44386482,7 9,7.44565467 9,7.99539757 Z M13,7.99539757 L13,16.0046024 C13,16.5443356 13.4477153,17 14,17 C14.5561352,17 15,16.5543453 15,16.0046024 L15,7.99539757 C15,7.4556644 14.5522847,7 14,7 C13.4438648,7 13,7.44565467 13,7.99539757 Z" id="Combined-Shape"></path>
        </g>
    </g>
</svg>