<?xml version="1.0" encoding="UTF-8" standalone="no"?>
<svg width="24px" height="24px" viewBox="0 0 24 24" version="1.1" xmlns="http://www.w3.org/2000/svg" xmlns:xlink="http://www.w3.org/1999/xlink">
    <!-- Generator: Sketch 44.1 (41455) - http://www.bohemiancoding.com/sketch -->
    <title>members</title>
    <desc>Created with Sketch.</desc>
    <defs></defs>
    <g id="PDS" stroke="none" stroke-width="1" fill="none" fill-rule="evenodd">
        <g id="members" fill="#000000">
            <path d="M13.1230298,15.035423 L16.1225658,16.2749488 C16.6690753,16.4273095 17.0002703,16.951557 17.1798577,17.4884012 L15.7876476,17.4884012 C14.5984503,17.4884012 13.4962809,17.242047 12.2200555,16.9048075 C12.1153886,16.7735834 12.1506134,15.4409466 12.619046,15.2452596 L13.1230298,15.035423 Z M14.3746531,14.5143022 L15.2882333,14.1339277 C15.4472838,14.0677061 15.5152857,13.8861692 15.4433013,13.7321588 C15.4433013,13.7321588 15.0922673,13.0149533 14.9401901,12.504024 C14.7881129,11.9930946 14.8967409,11.7663584 14.7270353,11.7663584 C14.5579,11.7663584 14.5579,11.6233029 14.5579,11.6233029 L14.3104164,10.374056 C14.3104164,10.374056 14.2135655,10.0561549 14.4795516,10.0561549 C14.535832,9.8918168 14.5814562,8.9912485 14.5814562,8.9912485 C14.5814562,8.4269121 14.8707625,8.11979374 15.2901362,7.81578749 C15.7095099,7.51178131 16.3571372,7.41757625 16.8198547,7.41757625 C17.2825722,7.41757625 17.8889515,7.53358994 18.3064163,7.81578749 C18.7238809,8.09798505 19.020488,8.43485961 19.0030186,8.9912485 C19.0030186,9.41504196 19.1098714,10.0561549 19.1098714,10.0561549 C19.2902966,10.0561549 19.2456561,10.374056 19.2456561,10.374056 L19.0119321,11.6233029 C19.0119321,11.6233029 19.0119321,11.7663584 18.8761475,11.7663584 C18.7403629,11.7663584 18.780695,12.1963035 18.6757796,12.504024 C18.5708641,12.8117445 18.2307556,13.7257833 18.2307556,13.7257833 C18.1717322,13.8849736 18.2480652,14.0653394 18.4026515,14.1292204 L21.1147527,15.2499669 C21.8730464,15.4613707 21.9874441,16.7848983 21.8685576,16.9048075 C20.7518211,17.1735042 19.6425476,17.4884012 18.5295426,17.4884012 L18.2714282,17.4884012 C18.0565263,16.7380007 17.6800158,15.9337916 17.0259506,15.6033166 C16.498131,15.3366288 15.2167219,14.847903 14.3746531,14.5143022 Z" id="person"></path>
            <path d="M2.29964088,18.8489326 C2.13694455,18.6449553 2.19169866,16.5734774 2.9198399,16.2692976 L7.06887906,14.5418205 C7.31611031,14.4388843 7.4218139,14.1566996 7.3099199,13.9173028 C7.3099199,13.9173028 6.76426553,12.8024639 6.52787359,12.008265 C6.29148175,11.2140659 6.46033534,10.8616224 6.19654136,10.8616224 C5.93363412,10.8616224 5.93363412,10.6392541 5.93363412,10.6392541 L5.54894051,8.69739916 C5.54894051,8.69739916 5.39839341,8.20324732 5.81184775,8.20324732 C5.89933107,7.94779677 5.97025033,6.54793503 5.97025033,6.54793503 C5.97025033,5.67071902 6.41995391,5.19332798 7.07183699,4.72077446 C7.72372006,4.24822104 8.730405,4.10178678 9.44966257,4.10178678 C10.1689201,4.10178678 11.1114885,4.28212082 11.7604042,4.72077446 C12.4093198,5.1594281 12.8703718,5.68307279 12.8432171,6.54793503 C12.8432171,7.20668824 13.0093113,8.20324732 13.0093113,8.20324732 C13.289768,8.20324732 13.2203777,8.69739916 13.2203777,8.69739916 L12.8570725,10.6392541 C12.8570725,10.6392541 12.8570725,10.8616224 12.6460061,10.8616224 C12.4349397,10.8616224 12.4976328,11.5299379 12.3345501,12.008265 C12.1714674,12.486592 11.6427958,13.9073925 11.6427958,13.9073925 C11.5510485,14.1548412 11.6697021,14.4352054 11.9099942,14.5345035 L16.1257396,16.2766146 C17.3044469,16.6052251 17.4822689,18.6625434 17.2974694,18.8489326 C15.5615914,19.2666002 13.837314,19.7560826 12.1072363,19.7560826 L7.84517886,19.7560826 C5.9966662,19.7560826 4.28343159,19.3731446 2.29964088,18.8489326 Z" id="person"></path>
        </g>
    </g>
</svg>