<?xml version="1.0" encoding="UTF-8" standalone="no"?>
<svg width="24px" height="24px" viewBox="0 0 24 24" version="1.1" xmlns="http://www.w3.org/2000/svg" xmlns:xlink="http://www.w3.org/1999/xlink">
    <!-- Generator: Sketch 44.1 (41455) - http://www.bohemiancoding.com/sketch -->
    <title>message</title>
    <desc>Created with Sketch.</desc>
    <defs></defs>
    <g id="PDS" stroke="none" stroke-width="1" fill="none" fill-rule="evenodd">
        <g id="message" fill="#000000">
            <path d="M2.7008208,17.8925454 L10.422073,12.93126 L11.5974773,13.7542868 C11.7173709,13.8382373 11.8558994,13.8745713 11.9912113,13.8674333 C12.1265231,13.8745713 12.2650516,13.8382373 12.3849452,13.7542868 L13.5257833,12.9554635 L21.2476113,17.916075 C21.1117158,17.9702306 20.9636357,18 20.8088036,18 L3.19119644,18 C3.01638688,18 2.85037212,17.9613932 2.7008208,17.8925454 Z M2.00036013,16.8346605 C2.00012051,16.8249718 2,16.8152588 2,16.8055229 L2,7.19447708 C2,7.14244388 2.00332808,7.09118776 2.00978126,7.04090984 L9.30195275,12.1469433 L2.00036013,16.8346605 Z M21.9970831,16.8896446 L14.64596,12.1711073 L21.9884215,7.0298604 C21.9960538,7.08379694 22,7.13876377 22,7.19447708 L22,16.8055229 C22,16.8338038 21.9990169,16.8618551 21.9970831,16.8896446 Z M21.1665914,6.05586733 L11.9912113,12.4805377 L2.82053824,6.05916332 C2.93727075,6.02076658 3.06187859,6 3.19119644,6 L20.8088036,6 C20.9334659,6 21.0536556,6.01963378 21.1665914,6.05586733 Z" id="Combined-Shape"></path>
        </g>
    </g>
</svg>