<?xml version="1.0" encoding="UTF-8" standalone="no"?>
<svg width="16px" height="20px" viewBox="0 0 16 20" version="1.1" xmlns="http://www.w3.org/2000/svg" xmlns:xlink="http://www.w3.org/1999/xlink">
    <!-- Generator: Sketch 42 (36781) - http://www.bohemiancoding.com/sketch -->
    <title>planning</title>
    <desc>Created with Sketch.</desc>
    <defs></defs>
    <g id="Page-1" stroke="none" stroke-width="1" fill="none" fill-rule="evenodd">
        <g id="UI-Chrome/Main-Nav" transform="translate(-19.000000, -127.000000)" fill="#000000">
            <path d="M32,142.466376 C32,142.761572 31.7312355,143 31.4024063,143 L21.5975937,143 C21.2677464,143 21,142.761572 21,142.466376 L21,141.534498 C21,141.239301 21.2677464,141 21.5975937,141 L31.4024063,141 C31.7312355,141 32,141.239301 32,141.534498 L32,142.466376 Z M32,137.465502 C32,137.760699 31.7312355,138 31.4024063,138 L21.5975937,138 C21.2677464,138 21,137.760699 21,137.465502 L21,136.533624 C21,136.239301 21.2677464,136 21.5975937,136 L31.4024063,136 C31.7312355,136 32,136.239301 32,136.533624 L32,137.465502 Z M21,131.533858 C21,131.238532 21.2781387,131 21.6207886,131 L27.3802689,131 C27.7229189,131 28,131.238532 28,131.533858 L28,132.466142 C28,132.760594 27.7229189,133 27.3802689,133 L21.6207886,133 C21.2781387,133 21,132.760594 21,132.466142 L21,131.533858 Z M32.49,134.452 C32.389,134.558 32.254,134.616 32.111,134.616 C31.968,134.616 31.834,134.558 31.732,134.452 L29.856,132.494 C29.647,132.277 29.647,131.922 29.856,131.704 L30.64,130.89 C30.742,130.784 30.876,130.726 31.019,130.726 C31.163,130.726 31.297,130.784 31.399,130.89 L32.113,131.637 L34.872,128.767 C34.909,128.729 34.966629,128.678 35,128.643387 C35,127.716387 34.278,127 33.388,127 L20.61,127 C19.72,127 19,127.751 19,128.678 L19,145.322 C19,146.249 19.72,147 20.61,147 L33.388,147 C34.278,147 35,146.249 35,145.322 L35,131.842 L32.49,134.452 Z" id="planning"></path>
        </g>
    </g>
</svg>
