<?xml version="1.0" encoding="UTF-8" standalone="no"?>
<svg width="24px" height="24px" viewBox="0 0 24 24" version="1.1" xmlns="http://www.w3.org/2000/svg" xmlns:xlink="http://www.w3.org/1999/xlink">
    <!-- Generator: Sketch 44.1 (41455) - http://www.bohemiancoding.com/sketch -->
    <title>options-f</title>
    <desc>Created with Sketch.</desc>
    <defs></defs>
    <g id="PDS" stroke="none" stroke-width="1" fill="none" fill-rule="evenodd">
        <g id="options-f" fill="#000000">
            <path d="M4.38095238,14.7619048 C3.06598869,14.7619048 2,13.6959161 2,12.3809524 C2,11.0659887 3.06598869,10 4.38095238,10 C5.69591607,10 6.76190476,11.0659887 6.76190476,12.3809524 C6.76190476,13.6959161 5.69591607,14.7619048 4.38095238,14.7619048 Z M12,14.7619048 C10.6850363,14.7619048 9.61904762,13.6959161 9.61904762,12.3809524 C9.61904762,11.0659887 10.6850363,10 12,10 C13.3149637,10 14.3809524,11.0659887 14.3809524,12.3809524 C14.3809524,13.6959161 13.3149637,14.7619048 12,14.7619048 Z M19.6190476,14.7619048 C18.3040839,14.7619048 17.2380952,13.6959161 17.2380952,12.3809524 C17.2380952,11.0659887 18.3040839,10 19.6190476,10 C20.9340113,10 22,11.0659887 22,12.3809524 C22,13.6959161 20.9340113,14.7619048 19.6190476,14.7619048 Z" id="filled-checkbox-copy"></path>
        </g>
    </g>
</svg>