<?xml version="1.0" encoding="UTF-8" standalone="no"?>
<svg width="24px" height="24px" viewBox="0 0 24 24" version="1.1" xmlns="http://www.w3.org/2000/svg" xmlns:xlink="http://www.w3.org/1999/xlink">
    <!-- Generator: Sketch 44.1 (41455) - http://www.bohemiancoding.com/sketch -->
    <title>pdf</title>
    <desc>Created with Sketch.</desc>
    <defs></defs>
    <g id="PDS" stroke="none" stroke-width="1" fill="none" fill-rule="evenodd">
        <g id="pdf" fill="#000000">
            <path d="M17,9 L8.00010618,9 C6.89005841,9 6,9.89525812 6,10.999615 L6,17.000385 C6,18.1125667 6.89547804,19 8.00010618,19 L17,19 L17,20.951 C17,21.53 16.53,22 15.951,22 L3.049,22 C2.47,22 2,21.53 2,20.951 L2,3.049 C2,2.47 2.47,2 3.049,2 L12.427,2 C12.963,2 13.477,2.214 13.854,2.596 L16.419,5.188 C16.791,5.564 17,6.072 17,6.601 L17,9 Z M7,11.5047388 C7,10.6736945 7.66388585,10 8.49309635,10 L20.5069036,10 C21.331518,10 22,10.6683155 22,11.5047388 L22,16.4952612 C22,17.3263055 21.3361142,18 20.5069036,18 L8.49309635,18 C7.66848201,18 7,17.3316845 7,16.4952612 L7,11.5047388 Z M12.121582,13.0615234 C12.121582,12.5442682 11.9637874,12.1551934 11.6481934,11.8942871 C11.3325993,11.6333809 10.8717478,11.5029297 10.265625,11.5029297 L8.66943359,11.5029297 L8.66943359,16.5 L9.72900391,16.5 L9.72900391,14.7226562 L10.1835938,14.7226562 C10.8033885,14.7226562 11.2813297,14.5802423 11.6174316,14.2954102 C11.9535336,14.010578 12.121582,13.5992865 12.121582,13.0615234 Z M17.2109375,13.9536133 C17.2109375,13.1811485 16.9853538,12.579592 16.5341797,12.1489258 C16.0830056,11.7182596 15.4495483,11.5029297 14.6337891,11.5029297 L13.0649414,11.5029297 L13.0649414,16.5 L14.4799805,16.5 C15.3640995,16.5 16.0402809,16.2812522 16.5085449,15.84375 C16.976809,15.4062478 17.2109375,14.7762085 17.2109375,13.9536133 Z M19.2890625,16.5 L19.2890625,14.5244141 L20.984375,14.5244141 L20.984375,13.659668 L19.2890625,13.659668 L19.2890625,12.3710938 L21.1108398,12.3710938 L21.1108398,11.5029297 L18.246582,11.5029297 L18.246582,16.5 L19.2890625,16.5 Z M9.72900391,13.8544922 L9.72900391,12.3710938 L10.2109375,12.3710938 C10.500327,12.3710938 10.7128086,12.4303379 10.8483887,12.5488281 C10.9839688,12.6673183 11.0517578,12.8507475 11.0517578,13.0991211 C11.0517578,13.3452161 10.9708667,13.5326328 10.809082,13.661377 C10.6472974,13.7901211 10.4034847,13.8544922 10.0776367,13.8544922 L9.72900391,13.8544922 Z M16.1103516,13.980957 C16.1103516,15.0769912 15.59994,15.625 14.5791016,15.625 L14.1245117,15.625 L14.1245117,12.3710938 L14.6884766,12.3710938 C15.636398,12.3710938 16.1103516,12.9077095 16.1103516,13.980957 Z" id="Combined-Shape"></path>
        </g>
    </g>
</svg>