<?xml version="1.0" encoding="UTF-8" standalone="no"?>
<svg width="24px" height="24px" viewBox="0 0 24 24" version="1.1" xmlns="http://www.w3.org/2000/svg" xmlns:xlink="http://www.w3.org/1999/xlink">
    <!-- Generator: Sketch 44.1 (41455) - http://www.bohemiancoding.com/sketch -->
    <title>pen-f</title>
    <desc>Created with Sketch.</desc>
    <defs></defs>
    <g id="PDS" stroke="none" stroke-width="1" fill="none" fill-rule="evenodd">
        <g id="pen-f" fill-rule="nonzero" fill="#000000">
            <path d="M17.9901853,11.2794686 L17.9974404,11.2799997 C17.999142,11.327923 18,18.0037973 18,18.0037973 C18,20.2108391 16.2111696,22 14.0037973,22 L5.99620271,22 C3.78916089,22 2,20.2111696 2,18.0037973 L2,9.99620271 C2,7.78916089 3.78883037,6 5.99620271,6 L12.0299997,6 L12.0300002,6.00090522 C12.0415906,6.00030422 12.0532596,6 12.0649996,6 C12.432269,6 12.7299997,6.29773065 12.7299997,6.66500002 C12.7299997,7.03226939 12.432269,7.33000004 12.0649996,7.33000004 C12.0534708,7.33000004 12.0420105,7.32970667 12.0306257,7.32912697 L12.0306277,7.33333333 L6.32559359,7.33333333 C4.68517999,7.33333333 3.33333333,8.67301388 3.33333333,10.3255936 L3.33333333,17.6744064 C3.33333333,19.31482 4.67301388,20.6666667 6.32559359,20.6666667 L13.6744064,20.6666667 C15.31482,20.6666667 16.6666667,19.3269861 16.6666667,17.6744064 L16.6666667,11.1825757 L16.6702347,11.1828369 C16.6700786,11.1769103 16.6700001,11.1709643 16.6700001,11.165 C16.6700001,10.7977307 16.9677307,10.5 17.3350001,10.5 C17.7022695,10.5 18.0000001,10.7977307 18.0000001,11.165 C18.0000001,11.204033 17.9966372,11.2422805 17.9901853,11.2794686 Z M20.0763157,6.21687159 L17.5884401,3.72322717 L19.1247989,2.18481261 C19.3720598,1.93722093 19.7761973,1.94047377 20.0175044,2.18210376 L21.6165981,3.78333715 C21.8623648,4.02943277 21.8607961,4.43000342 21.6138928,4.67723709 L20.0763157,6.21687159 Z M11.3467638,14.9581042 L8.58816826,15.9454195 C8.58816826,15.9454195 8.19397328,16.1224768 7.93570592,15.838795 C7.67743855,15.5551133 7.86718282,15.1534866 7.86718282,15.1534866 L8.85766994,12.4656798 C8.85766994,12.4656798 17.1309356,4.18134383 17.1309356,4.18134383 C17.1309356,4.18134383 19.6240201,6.67249609 19.6228456,6.67094844 C19.6228456,6.67094844 11.3467638,14.9581042 11.3467638,14.9581042 Z" id="Combined-Shape"></path>
        </g>
    </g>
</svg>