<?xml version="1.0" encoding="UTF-8" standalone="no"?>
<svg width="24px" height="24px" viewBox="0 0 24 24" version="1.1" xmlns="http://www.w3.org/2000/svg" xmlns:xlink="http://www.w3.org/1999/xlink">
    <!-- Generator: Sketch 44.1 (41455) - http://www.bohemiancoding.com/sketch -->
    <title>play</title>
    <desc>Created with Sketch.</desc>
    <defs></defs>
    <g id="PDS-Current" stroke="none" stroke-width="1" fill="none" fill-rule="evenodd">
        <g id="play" fill="#000000">
            <path d="M12.663418,8.62180807 C13.0504578,8.52233836 13.4375682,8.33508895 13.8247492,8.06005984 C14.0759027,7.84293806 14.3579031,7.67394661 14.6693382,7.56059348 C16.9338248,6.73638779 19.8969948,9.16585575 21.2877638,12.9869621 C22.6785327,16.8080684 21.9702447,20.5738378 19.7057581,21.3980435 C17.9351418,22.0424951 15.7373661,20.6977239 14.1981002,18.2538571 C12.8022026,16.2011397 11.301301,16.257213 9.69539539,18.4220771 L9.69549352,18.4194554 C8.16253839,20.7580702 6.02444809,22.027787 4.29424186,21.3980435 C2.02975533,20.5738378 1.32146728,16.8080684 2.71223624,12.9869621 C4.1030052,9.16585575 7.06617524,6.73638779 9.33066178,7.56059348 C9.60573141,7.66071064 9.85783898,7.80423123 10.0860115,7.98598217 C10.4144492,8.23248063 10.7429335,8.4157853 11.0714687,8.53577867 C11.4664404,7.67247858 12.1506045,6.9424846 12.3452748,6.20240427 C12.6431894,5.06981896 12.3251515,4.18666476 11.3911611,3.55294168 C11.028091,3.27107576 11.1269784,2.85649383 11.4523223,2.54567185 C11.7776662,2.23484987 12.1831972,2.25203773 12.5400889,2.58887681 C13.8217636,3.81346339 14.2263086,5.07334924 13.7537239,6.36853436 C13.469658,7.147057 12.9748253,7.88949241 12.663418,8.62180807 Z M7.32083352,13.9791667 L7.32083352,12.5212873 C7.32083352,12.2315786 7.0876485,12 6.80000019,12 C6.51034645,12 6.27916686,12.2333883 6.27916686,12.5212873 L6.27916686,13.9791667 L4.82128751,13.9791667 C4.53157876,13.9791667 4.30000019,14.2123517 4.30000019,14.5 C4.30000019,14.7896537 4.53338847,15.0208333 4.82128751,15.0208333 L6.27916686,15.0208333 L6.27916686,16.4787127 C6.27916686,16.7684214 6.51235188,17 6.80000019,17 C7.08965393,17 7.32083352,16.7666117 7.32083352,16.4787127 L7.32083352,15.0208333 L8.77871287,15.0208333 C9.06842162,15.0208333 9.30000019,14.7876483 9.30000019,14.5 C9.30000019,14.2103463 9.06661191,13.9791667 8.77871287,13.9791667 L7.32083352,13.9791667 Z M17,17 C18.3807119,17 19.5,15.8807119 19.5,14.5 C19.5,13.1192881 18.3807119,12 17,12 C15.6192881,12 14.5,13.1192881 14.5,14.5 C14.5,15.8807119 15.6192881,17 17,17 Z M17,16 C16.1715729,16 15.5,15.3284271 15.5,14.5 C15.5,13.6715729 16.1715729,13 17,13 C17.8284271,13 18.5,13.6715729 18.5,14.5 C18.5,15.3284271 17.8284271,16 17,16 Z" id="Combined-Shape"></path>
        </g>
    </g>
</svg>