<?xml version="1.0" encoding="UTF-8" standalone="no"?>
<svg width="24px" height="24px" viewBox="0 0 24 24" version="1.1" xmlns="http://www.w3.org/2000/svg" xmlns:xlink="http://www.w3.org/1999/xlink">
    <!-- Generator: Sketch 44.1 (41455) - http://www.bohemiancoding.com/sketch -->
    <title>plus-s</title>
    <desc>Created with Sketch.</desc>
    <defs></defs>
    <g id="PDS" stroke="none" stroke-width="1" fill="none" fill-rule="evenodd">
        <g id="plus-s" fill="#000000">
            <path d="M13.25,10.75 L13.25,3.25108957 C13.25,2.55578858 12.6903559,2 12,2 C11.304831,2 10.75,2.56013188 10.75,3.25108957 L10.75,10.75 L3.25108957,10.75 C2.55578858,10.75 2,11.3096441 2,12 C2,12.695169 2.56013188,13.25 3.25108957,13.25 L10.75,13.25 L10.75,20.7489104 C10.75,21.4442114 11.3096441,22 12,22 C12.695169,22 13.25,21.4398681 13.25,20.7489104 L13.25,13.25 L20.7489104,13.25 C21.4442114,13.25 22,12.6903559 22,12 C22,11.304831 21.4398681,10.75 20.7489104,10.75 L13.25,10.75 Z" id="Plus"></path>
        </g>
    </g>
</svg>