<?xml version="1.0" encoding="UTF-8"?>
<svg width="26px" height="26px" viewBox="0 0 26 26" version="1.1" xmlns="http://www.w3.org/2000/svg" xmlns:xlink="http://www.w3.org/1999/xlink">
    <!-- Generator: Sketch 42 (36781) - http://www.bohemiancoding.com/sketch -->
    <title>Combined Shape</title>
    <desc>Created with Sketch.</desc>
    <defs></defs>
    <g id="Common-Portal-Screens" stroke="none" stroke-width="1" fill="none" fill-rule="evenodd">
        <g id="CPF-1358" transform="translate(-212.000000, -762.000000)" fill="#000000">
            <g id="UI-Chrome/Main-Nav">
                <g id="UI-Chrome/User-Bar" transform="translate(0.000000, 750.000000)">
                    <g id="Collapse-Arrow" transform="translate(212.000000, 12.000000)">
                        <path d="M10.3402398,12.9983476 L15.8709417,19.0368307 C16.0566971,19.2396404 16.0527424,19.5585893 15.8533946,19.7579371 L15.7596588,19.8516729 C15.5642125,20.0471192 15.255534,20.0415283 15.0694322,19.8383402 L9.14267933,13.3674443 C9.06209658,13.2794632 9.01721577,13.1696255 9.00850088,13.0571772 C8.9876843,12.9077032 9.03042991,12.7505755 9.13807989,12.6333027 L15.0703639,6.1707298 C15.2562926,5.9681809 15.5615567,5.95852168 15.7609044,6.15786944 L15.8546402,6.25160525 C16.0500866,6.44705157 16.058149,6.7693126 15.8718735,6.97223934 L10.3402398,12.9983476 Z M13,26 C5.82029825,26 0,20.1797017 0,13 C0,5.82029825 5.82029825,0 13,0 C20.1797017,0 26,5.82029825 26,13 C26,20.1797017 20.1797017,26 13,26 Z M13,25 C19.627417,25 25,19.627417 25,13 C25,6.372583 19.627417,1 13,1 C6.372583,1 1,6.372583 1,13 C1,19.627417 6.372583,25 13,25 Z" id="Combined-Shape"></path>
                    </g>
                </g>
            </g>
        </g>
    </g>
</svg>