<?xml version="1.0" encoding="UTF-8" standalone="no"?>
<svg width="24px" height="24px" viewBox="0 0 24 24" version="1.1" xmlns="http://www.w3.org/2000/svg" xmlns:xlink="http://www.w3.org/1999/xlink">
    <!-- Generator: Sketch 44.1 (41455) - http://www.bohemiancoding.com/sketch -->
    <title>process</title>
    <desc>Created with Sketch.</desc>
    <defs></defs>
    <g id="PDS" stroke="none" stroke-width="1" fill="none" fill-rule="evenodd">
        <g id="process" fill-rule="nonzero" fill="#000000">
            <path d="M4.68976853,12.2353064 C4.90962401,11.9919814 5.15347082,11.76656 5.41948599,11.5629534 L5.14620099,10.855664 C5.0077678,10.4973849 5.19033672,10.0945152 5.55280771,9.95627646 L7.19982544,9.32813904 C7.56282132,9.18970016 7.96535427,9.35767837 8.10774308,9.72619506 L8.38102807,10.4334844 C8.71584596,10.4079462 9.0488824,10.4133566 9.37614843,10.4480211 L9.70029013,9.73159669 C9.85922883,9.38030721 10.2759715,9.22165389 10.629966,9.37673299 L12.2384679,10.0813908 C12.5929751,10.2366945 12.7560561,10.6373315 12.5925759,10.9986589 L12.2823109,11.6844126 C12.5175426,11.8845525 12.7354485,12.1063603 12.9325342,12.3483518 L13.6649391,12.0690282 C14.0281456,11.930509 14.4349398,12.109009 14.5730927,12.4665627 L15.2008401,14.0912368 C15.3391931,14.4493082 15.1672916,14.8479163 14.7937068,14.9903936 L14.0613018,15.2697173 C14.0778264,15.5805708 14.0652847,15.8902665 14.0252739,16.1953779 L14.7177104,16.4987228 C15.0724232,16.6541166 15.2309744,17.065207 15.0723575,17.4157852 L14.3516246,19.0087635 C14.192778,19.3598492 13.7865916,19.5229292 13.4217432,19.3630953 L12.6983371,19.0461832 C12.4784817,19.2895081 12.2346349,19.5149295 11.9686197,19.7185362 L12.2419047,20.4258255 C12.3803379,20.7841047 12.197769,21.1869744 11.835298,21.3252131 L10.1882803,21.9533505 C9.82528439,22.0917894 9.42275143,21.9238111 9.28036263,21.5552945 L9.00707763,20.8480051 C8.67225973,20.8735434 8.3392233,20.8681329 8.01195727,20.8334685 L7.68781558,21.5498929 C7.52887687,21.9011823 7.11213417,22.0598357 6.75813964,21.9047565 L5.14963778,21.2000987 C4.79513065,21.0447951 4.63204957,20.644158 4.79552982,20.2828307 L5.10579476,19.597077 C4.87056311,19.3969371 4.6526572,19.1751292 4.45557156,18.9331378 L3.7231666,19.2124614 C3.35996014,19.3509806 2.95316587,19.1724806 2.815013,18.8149269 L2.1872656,17.1902528 C2.04891267,16.8321814 2.22081413,16.4335732 2.59439893,16.291096 L3.32680389,16.0117723 C3.31027932,15.7009188 3.32282097,15.3912231 3.36283176,15.0861116 L2.67039537,14.7827668 C2.31568257,14.627373 2.15713131,14.2162826 2.31574817,13.8657044 L3.03648113,12.2727261 C3.19532768,11.9216403 3.60151416,11.7585603 3.96636258,11.9183943 L4.68976853,12.2353064 L4.68976853,12.2353064 Z M9.26247007,18.5606562 C10.8145994,18.2869739 11.8559158,16.8348223 11.5883154,15.3171847 C11.3207149,13.7995472 9.84553244,12.7911221 8.29340312,13.0648044 C6.74127379,13.3384867 5.69995739,14.7906384 5.96755785,16.3082759 C6.23515829,17.8259135 7.71034074,18.8343384 9.26247007,18.5606562 Z M14.8514958,3.58248278 C15.0595243,3.45121549 15.2810682,3.33794627 15.5140114,3.24514024 L15.4765066,2.81645838 C15.4443261,2.44863396 15.7074216,2.12515314 16.0877455,2.0918791 L17.1071052,2.00269668 C17.4768636,1.97034702 17.8018302,2.23236805 17.8348799,2.61012746 L17.8723847,3.03880931 C18.1179046,3.08975524 18.3557518,3.16283296 18.5834141,3.25598224 L18.8722017,2.91181855 C19.1095378,2.62897238 19.5243099,2.58627347 19.8167678,2.83167481 L20.6006255,3.48940946 C20.8849588,3.72799346 20.9294681,4.14305642 20.6857215,4.4335423 L20.4132279,4.75828748 C20.5406627,4.95264021 20.6511888,5.1591499 20.7426054,5.37601165 L21.1835416,5.33743473 C21.5513661,5.30525426 21.8748469,5.56834969 21.9081209,5.94867364 L21.9973033,6.96803332 C22.029653,7.33779172 21.7676319,7.66275835 21.3898726,7.69580801 L20.9489363,7.73438493 C20.8965662,7.96382639 20.8235793,8.18639137 20.7318295,8.39992029 L21.0565747,8.67241384 C21.3394208,8.90974996 21.3821198,9.32452202 21.1367184,9.61697999 L20.4789838,10.4008376 C20.2403998,10.685171 19.8253369,10.7296802 19.5348509,10.4859336 L19.1906872,10.197146 C18.9826588,10.3284132 18.7611149,10.4416825 18.5281716,10.5344885 L18.5656764,10.9631704 C18.5978569,11.3309948 18.3347615,11.6544757 17.9544375,11.6877497 L16.9350779,11.7769321 C16.5653195,11.8092817 16.2403528,11.5472607 16.2073032,11.1695013 L16.1697983,10.7408194 C15.9242785,10.6898735 15.6864313,10.6167958 15.4587689,10.5236465 L15.1699813,10.8678102 C14.9326452,11.1506563 14.5178732,11.1933553 14.2254152,10.9479539 L13.4415576,10.2902192 C13.1572242,10.0516353 13.112715,9.63657236 13.3564616,9.34608643 L13.6289551,9.02134128 C13.5015203,8.82698854 13.3909943,8.62047885 13.2995777,8.4036171 L12.8586414,8.44219402 C12.4908171,8.47437449 12.1673361,8.21127905 12.1340621,7.83095511 L12.0448797,6.81159543 C12.0125301,6.44183703 12.2745511,6.1168704 12.6523105,6.08382073 L13.0932467,6.04524382 C13.1456169,5.81580236 13.2186038,5.59323737 13.3103535,5.37970846 L12.9856084,5.10721491 C12.7027622,4.86987879 12.6600633,4.45510674 12.9054646,4.1626488 L13.5631993,3.37879117 C13.8017833,3.09445783 14.2168463,3.04994857 14.5073321,3.29369516 L14.8514958,3.58248278 L14.8514958,3.58248278 Z M17.2026628,8.96518286 C18.374907,8.86262479 19.2439065,7.85031091 19.1436275,6.70411654 C19.0433484,5.55792217 18.0117645,4.7118878 16.8395204,4.81444588 C15.6672761,4.91700396 14.7982766,5.92931784 14.8985555,7.07551221 C14.9988346,8.22170657 16.0304185,9.06774095 17.2026628,8.96518286 Z" id="Combined-Shape"></path>
        </g>
    </g>
</svg>