<?xml version="1.0" encoding="UTF-8" standalone="no"?>
<svg width="24px" height="24px" viewBox="0 0 24 24" version="1.1" xmlns="http://www.w3.org/2000/svg" xmlns:xlink="http://www.w3.org/1999/xlink">
    <!-- Generator: Sketch 44.1 (41455) - http://www.bohemiancoding.com/sketch -->
    <title>products</title>
    <desc>Created with Sketch.</desc>
    <defs></defs>
    <g id="PDS" stroke="none" stroke-width="1" fill="none" fill-rule="evenodd">
        <g id="products" fill="#000000">
            <path d="M2,9.99850233 C2,9.44704472 2.45530558,9 2.99180311,9 L21.0081969,9 C21.5559546,9 22,9.44748943 22,9.99850233 L22,21.0014977 C22,21.5529553 21.5446944,22 21.0081969,22 L2.99180311,22 C2.44404538,22 2,21.5525106 2,21.0014977 L2,9.99850233 Z M8,11.9989566 L8,13.0010434 C8,13.5573397 8.44661595,14 8.99754465,14 L16.0024554,14 C16.5536886,14 17,13.5527519 17,13.0010434 L17,11.9989566 C17,11.4426603 16.553384,11 16.0024554,11 L8.99754465,11 C8.4463114,11 8,11.4472481 8,11.9989566 Z M4.55086969,2.89826062 C4.79891751,2.40216498 5.44677132,2 6.00138006,2 L10.4986199,2 C11.0516669,2 11.5,2.45097518 11.5,2.99077797 L11.5,7.00922203 C11.5,7.55641359 11.0545373,8 10.501289,8 L2.99871095,8 C2.44713812,8 2.19683838,7.60632324 2.44913031,7.10173938 L4.55086969,2.89826062 Z M19.6370637,2.89826062 L21.7388031,7.10173938 C21.991095,7.60632324 21.7408925,8 21.1894397,8 L13.6884933,8 C13.1353654,8 12.6899996,7.55641359 12.6899996,7.00922203 L12.6899996,2.99077797 C12.6899996,2.45097518 13.1381902,2 13.6910613,2 L18.1868717,2 C18.7413041,2 19.3890159,2.40216498 19.6370637,2.89826062 Z" id="Combined-Shape"></path>
        </g>
    </g>
</svg>