<?xml version="1.0" encoding="UTF-8" standalone="no"?>
<svg width="24px" height="24px" viewBox="0 0 24 24" version="1.1" xmlns="http://www.w3.org/2000/svg" xmlns:xlink="http://www.w3.org/1999/xlink">
    <!-- Generator: Sketch 44.1 (41455) - http://www.bohemiancoding.com/sketch -->
    <title>question-circle-s</title>
    <desc>Created with Sketch.</desc>
    <defs></defs>
    <g id="PDS" stroke="none" stroke-width="1" fill="none" fill-rule="evenodd">
        <g id="question-circle-s" fill="#000000">
            <path d="M10.8326141,16.4713653 L10.8318421,16.4713653 C10.8231296,16.1577171 10.8318421,16.2186487 10.8318421,16.0618246 C10.8318421,15.1383048 10.9625269,14.3411276 11.2239004,13.6702689 C11.4155743,13.1649468 11.7248616,12.6552761 12.1517717,12.1412415 C12.4654199,11.7666062 13.0295426,11.2199081 13.8441567,10.5011309 C14.6587708,9.78235378 15.1880443,9.20951876 15.4319929,8.7826087 C15.6759415,8.35569863 15.797914,7.88958953 15.797914,7.3842674 C15.797914,6.46946012 15.4407088,5.66574863 14.7262879,4.97310882 C14.011867,4.28046902 13.1362789,3.93415431 12.0994973,3.93415431 C11.0975655,3.93415431 10.2611828,4.24779782 9.59032411,4.87509424 C8.94760755,5.47607596 8.51681272,6.40091532 8.29792802,7.64963817 C8.2608844,8.2928846 7.72751978,8.80308632 7.07499117,8.80308632 C6.39844717,8.80308632 5.8499999,8.25463905 5.8499999,7.57809506 C5.8499999,7.47678148 5.86229914,7.37834054 5.88548596,7.28418389 C6.13093921,5.61700473 6.76690168,4.33044814 7.7933902,3.42447851 C8.86937782,2.47482142 10.291664,2 12.0602914,2 C13.9334683,2 15.4276311,2.5096707 16.5428247,3.52902739 C17.6580184,4.54838409 18.2156068,5.78117732 18.2156068,7.22744408 C18.2156068,8.06383932 18.0195796,8.83487961 17.6275194,9.54058809 C17.2354591,10.2462966 16.468775,11.1044601 15.327444,12.1151043 C14.5607484,12.7946754 14.05979,13.2956338 13.8245538,13.6179945 C13.5893177,13.9403551 13.4150713,14.3106287 13.3018094,14.7288263 C13.1906191,15.1393751 13.1258536,15.5163844 13.1070355,16.4202916 C13.1072304,16.4289586 13.1073284,16.4376496 13.1073284,16.4463634 C13.1073284,17.0745828 12.598056,17.5838553 11.9698366,17.5838553 C11.3499725,17.5838553 10.8459124,17.0880394 10.8326141,16.4713653 Z M11.9646644,22 C11.254009,22 10.6779089,21.4239 10.6779089,20.7132445 C10.6779089,20.0025891 11.254009,19.4264891 11.9646644,19.4264891 C12.6753198,19.4264891 13.2514199,20.0025891 13.2514199,20.7132445 C13.2514199,21.4239 12.6753198,22 11.9646644,22 Z" id="Combined-Shape-Copy"></path>
        </g>
    </g>
</svg>