<?xml version="1.0" encoding="UTF-8" standalone="no"?>
<svg width="24px" height="24px" viewBox="0 0 24 24" version="1.1" xmlns="http://www.w3.org/2000/svg" xmlns:xlink="http://www.w3.org/1999/xlink">
    <!-- Generator: Sketch 44.1 (41455) - http://www.bohemiancoding.com/sketch -->
    <title>refresh</title>
    <desc>Created with Sketch.</desc>
    <defs></defs>
    <g id="PDS" stroke="none" stroke-width="1" fill="none" fill-rule="evenodd">
        <g id="refresh" fill="#000000">
            <path d="M11.5869035,6.07444562 C9.65163947,5.95317668 7.6756128,6.63199904 6.19669914,8.1109127 C3.4630291,10.8445827 3.4630291,15.2767376 6.19669914,18.0104076 C8.93036918,20.7440777 13.362524,20.7440777 16.0961941,18.0104076 C18.8298641,15.2767376 18.8298641,10.8445827 16.0961941,8.1109127 C16.0449149,8.05963357 15.9930382,8.00931636 15.9405861,7.95996105 L15.9428501,7.95736846 C15.5642899,7.56597192 15.5682641,6.94178668 15.9547729,6.55527792 C16.3088686,6.20118218 16.8624487,6.16815173 17.2537607,6.45618655 L17.2568308,6.45267086 C17.2696321,6.46452434 17.2824073,6.47642187 17.2951563,6.48836345 C17.3205909,6.50922401 17.3452373,6.53152884 17.3689864,6.55527792 C17.3808292,6.56712074 17.3923129,6.5791867 17.4034375,6.59146227 C17.4393132,6.62618395 17.4749714,6.66126291 17.5104076,6.69669914 C21.0251263,10.2114178 21.0251263,15.9099026 17.5104076,19.4246212 C13.995689,22.9393398 8.2972042,22.9393398 4.78248558,19.4246212 C1.26776695,15.9099026 1.26776695,10.2114178 4.78248558,6.69669914 C6.60988671,4.86929801 9.02761505,3.99201415 11.4218151,4.06484758 L9.80095075,2.44398321 C9.46996439,2.11299684 9.46655634,1.57976996 9.79847145,1.24785485 C10.1280885,0.918237759 10.6599649,0.915699245 10.9945998,1.25033415 L14.2397417,4.49547599 C14.4202998,4.67603411 14.5033749,4.91677637 14.4877097,5.1521908 C14.5033749,5.38760524 14.4202998,5.62834749 14.2397417,5.80890562 L10.9945998,9.05404746 C10.6599649,9.38868236 10.1280885,9.38614385 9.79847145,9.05652676 C9.46655634,8.72461164 9.46996439,8.19138476 9.80095075,7.8603984 L11.5869035,6.07444562 Z" id="Combined-Shape"></path>
        </g>
    </g>
</svg>