<?xml version="1.0" encoding="UTF-8" standalone="no"?>
<svg width="24px" height="24px" viewBox="0 0 24 24" version="1.1" xmlns="http://www.w3.org/2000/svg" xmlns:xlink="http://www.w3.org/1999/xlink">
    <!-- Generator: Sketch 44.1 (41455) - http://www.bohemiancoding.com/sketch -->
    <title>repository</title>
    <desc>Created with Sketch.</desc>
    <defs></defs>
    <g id="PDS" stroke="none" stroke-width="1" fill="none" fill-rule="evenodd">
        <g id="repository" fill="#000000">
            <path d="M3,7.00087166 C3,6.4481055 3.44494629,6 3.99339768,6 L20.0066023,6 C20.5552407,6 21,6.44463086 21,7.00087166 L21,20.9991283 C21,21.5518945 20.5550537,22 20.0066023,22 L3.99339768,22 C3.44475929,22 3,21.5553691 3,20.9991283 L3,7.00087166 Z M8,9.99895656 L8,11.0010434 C8,11.5573397 8.44661595,12 8.99754465,12 L16.0024554,12 C16.5536886,12 17,11.5527519 17,11.0010434 L17,9.99895656 C17,9.44266033 16.553384,9 16.0024554,9 L8.99754465,9 C8.4463114,9 8,9.44724809 8,9.99895656 Z M3,2.99895656 C3,2.44724809 3.44494629,2 3.99339768,2 L20.0066023,2 C20.5552407,2 21,2.44266033 21,2.99895656 L21,4.00104344 C21,4.55275191 20.5550537,5 20.0066023,5 L3.99339768,5 C3.44475929,5 3,4.55733967 3,4.00104344 L3,2.99895656 Z" id="Combined-Shape"></path>
        </g>
    </g>
</svg>