<?xml version="1.0" encoding="UTF-8" standalone="no"?>
<svg width="24px" height="24px" viewBox="0 0 24 24" version="1.1" xmlns="http://www.w3.org/2000/svg" xmlns:xlink="http://www.w3.org/1999/xlink">
    <!-- Generator: Sketch 44.1 (41455) - http://www.bohemiancoding.com/sketch -->
    <title>rewind</title>
    <desc>Created with Sketch.</desc>
    <defs></defs>
    <g id="PDS" stroke="none" stroke-width="1" fill="none" fill-rule="evenodd">
        <g id="rewind" fill="#000000">
            <path d="M12.4129737,12.9417387 L12.4129737,16.2263782 C12.4129737,16.7797442 12.7692662,16.9513554 13.2087752,16.6087498 L18.3248678,12.6206595 C18.7600343,12.281439 18.7643767,11.7225807 18.3248678,11.3799752 L13.2087752,7.39188491 C12.7736086,7.05266438 12.4129737,7.220473 12.4129737,7.77425653 L12.4129737,11.0588961 L7.70877517,7.39188491 C7.27360858,7.05266438 6.91297375,7.220473 6.91297375,7.77425653 L6.91297375,16.2263782 C6.91297375,16.7797442 7.26926618,16.9513554 7.70877517,16.6087498 L12.4129737,12.9417387 Z M2,6.99525338 C2,4.23645112 4.23603796,2 6.99525338,2 L17.0047466,2 C19.7635489,2 22,4.23603796 22,6.99525338 L22,17.0047466 C22,19.7635489 19.763962,22 17.0047466,22 L6.99525338,22 C4.23645112,22 2,19.763962 2,17.0047466 L2,6.99525338 Z" id="Combined-Shape" transform="translate(12.000000, 12.000000) scale(-1, 1) translate(-12.000000, -12.000000) "></path>
        </g>
    </g>
</svg>