<?xml version="1.0" encoding="UTF-8" standalone="no"?>
<svg width="24px" height="24px" viewBox="0 0 24 24" version="1.1" xmlns="http://www.w3.org/2000/svg" xmlns:xlink="http://www.w3.org/1999/xlink">
    <!-- Generator: Sketch 44.1 (41455) - http://www.bohemiancoding.com/sketch -->
    <title>rocket-f</title>
    <desc>Created with Sketch.</desc>
    <defs></defs>
    <g id="PDS" stroke="none" stroke-width="1" fill="none" fill-rule="evenodd">
        <g id="rocket-f" fill="#000000">
            <path d="M13,21.952217 C12.8349498,21.9830777 12.6682372,22 12.5,22 C12.3322317,22 12.1654866,21.9832068 12,21.952569 L12,18.9976988 C12,18.7148438 11.7761424,18.5 11.5,18.5 C11.2319336,18.5 11,18.7228273 11,18.9976988 L11,21.6149326 C9.8732409,21.0844671 8.83355456,20.164003 7.96418265,19.8962845 C6.76761006,19.5278063 4.97334607,19.7956333 4.97334607,19.7956333 C4.43578188,19.850672 4,19.4529318 4,18.8948158 L4,4.00072736 C4,2.89575615 4.89005841,2 6.00010618,2 L18.9998938,2 C20.104522,2 21,2.8874302 21,4.00072736 L21,18.8948158 C21,19.4473623 20.5606316,19.8492269 19.9969345,19.8015606 C19.9969345,19.8015606 18.1322256,19.5498567 16.9905222,19.8952897 C16.122171,20.1580174 15.1093146,21.0761552 14,21.6090073 L14,19.4976988 C14,19.2148438 13.7761424,19 13.5,19 C13.2319336,19 13,19.2228273 13,19.4976988 L13,21.952217 Z M16.7303929,17.6867653 C16.8194533,17.0229567 16.9053704,16.3601853 16.9965264,15.6963767 C17.012243,15.5812474 16.9745233,15.4982713 16.8854628,15.4184069 C16.3228104,14.9143272 15.7685402,14.4029871 15.200649,13.9040935 C15.0707255,13.7889642 15.0392924,13.6810953 15.055009,13.5192919 C15.2352254,11.8172452 15.4070596,11.150325 15.4531615,9.43790624 C15.478308,8.50546259 15.3127604,7.60517218 14.9931906,6.72770018 C14.6620953,5.82326096 14.1801212,4.99350021 13.5818447,4.2176739 C13.2559882,3.79242152 12.9081287,3.38583875 12.4869252,3 C12.4355845,3.04771124 12.3957692,3.08297608 12.3580495,3.11927811 C11.4087701,4.05275895 10.6638058,5.10966671 10.148303,6.30037339 C9.71347856,7.3054211 9.49239914,8.34884525 9.52068892,9.43686904 C9.56574302,11.1876642 9.74176835,11.8919237 9.92617583,13.633384 C9.93665353,13.7319181 9.91465036,13.8003734 9.83606763,13.8709031 C9.26188978,14.3843175 8.69295078,14.902918 8.11877293,15.4173697 C8.02028257,15.5044945 7.98675394,15.5968054 8.00456602,15.7212695 C8.09467423,16.3695201 8.17954358,17.0188079 8.26650847,17.6680957 C8.29165495,17.8630895 8.32413581,17.8755359 8.50225668,17.767667 C9.05967021,17.4326511 9.61813151,17.1007468 10.171354,16.7605449 C10.2656532,16.7034988 10.3264239,16.7014244 10.4228187,16.7615821 C10.5275957,16.8269257 10.862882,17.5654128 10.862882,17.5654128 C10.862882,17.5654128 11.4150567,18 12.5120717,18 C13.6090867,18 14.1067773,17.576822 14.1067773,17.576822 C14.1067773,17.576822 14.554175,16.7584705 14.658952,16.704536 C14.6966717,16.6858664 14.790971,16.7512101 14.8527894,16.7875121 C15.4060119,17.117342 15.9592343,17.4502835 16.5124568,17.7811506 C16.6759089,17.8786475 16.707342,17.8641267 16.7303929,17.6867653 Z M12.5,10 C11.6715729,10 11,9.32842712 11,8.5 C11,7.67157288 11.6715729,7 12.5,7 C13.3284271,7 14,7.67157288 14,8.5 C14,9.32842712 13.3284271,10 12.5,10 Z" id="Combined-Shape"></path>
        </g>
    </g>
</svg>