<?xml version="1.0" encoding="UTF-8" standalone="no"?>
<svg width="24px" height="24px" viewBox="0 0 24 24" version="1.1" xmlns="http://www.w3.org/2000/svg" xmlns:xlink="http://www.w3.org/1999/xlink">
    <!-- Generator: Sketch 44.1 (41455) - http://www.bohemiancoding.com/sketch -->
    <title>rolodex</title>
    <desc>Created with Sketch.</desc>
    <defs></defs>
    <g id="PDS" stroke="none" stroke-width="1" fill="none" fill-rule="evenodd">
        <g id="rolodex" fill="#000000">
            <path d="M18,3.11111111 L18.2283874,3.11111111 C19.329552,3.11111111 20.2222222,4.0071835 20.2222222,5.10494593 L20.2222222,17.783943 C20.2222222,18.8851075 19.3261498,19.7777778 18.2283874,19.7777778 L5.54939037,19.7777778 C4.44822581,19.7777778 3.55555556,18.8817054 3.55555556,17.783943 L3.55555556,5.10494593 C3.55555556,4.00378137 4.45162794,3.11111111 5.54939037,3.11111111 L5.77777778,3.11111111 L5.77777778,3.00010991 C5.77777778,2.44776446 6.2274776,2 6.78485786,2 L6.99291992,2 C7.54911489,2 8,2.44954817 8,3.00010991 L8,3.11111111 L9.11111111,3.11111111 L9.11111111,3.00010991 C9.11111111,2.44776446 9.56081094,2 10.1181912,2 L10.3262533,2 C10.8824482,2 11.3333333,2.44954817 11.3333333,3.00010991 L11.3333333,3.11111111 L12.4444444,3.11111111 L12.4444444,3.00010991 C12.4444444,2.44776446 12.8941443,2 13.4515245,2 L13.6595866,2 C14.2157816,2 14.6666667,2.44954817 14.6666667,3.00010991 L14.6666667,3.11111111 L15.7777778,3.11111111 L15.7777778,3.00010991 C15.7777778,2.44776446 16.2274776,2 16.7848579,2 L16.9929199,2 C17.5491149,2 18,2.44954817 18,3.00010991 L18,3.11111111 Z M20.2222222,13.1111111 L20.2222222,20.0061652 C20.2222222,21.1073297 19.3270458,22 18.217827,22 C18.217827,22 19.8242837,22 14.4013743,22 C8.97846494,22 5.55737171,22 5.55737171,22 C4.45179918,22 3.55555556,21.1039276 3.55555556,20.0061652 L3.55555556,13.1111111 L3.55555556,18.8950541 C3.55555556,19.9928165 4.44822581,20.8888889 5.54939037,20.8888889 L18.2283874,20.8888889 C19.3261498,20.8888889 20.2222222,19.9962186 20.2222222,18.8950541 L20.2222222,13.1111111 Z M7.65402113,15.3737871 C8.78046562,15.6714474 9.75328179,15.8888889 10.8029121,15.8888889 L13.2230117,15.8888889 C14.2053918,15.8888889 15.1844783,15.6109489 16.1701519,15.3737871 C16.2750856,15.2679508 16.174114,14.0997556 15.5048154,13.9131626 L13.1110129,12.9239496 C12.9745692,12.8675658 12.9071948,12.7083681 12.9592911,12.5678608 C12.9592911,12.5678608 13.2594837,11.7610958 13.352086,11.4894901 C13.4446883,11.2178844 13.4090897,10.8383987 13.5289382,10.8383987 C13.6487869,10.8383987 13.6487869,10.7121325 13.6487869,10.7121325 L13.8550804,9.60950019 C13.8550804,9.60950019 13.8944819,9.32890879 13.7352318,9.32890879 C13.7352318,9.32890879 13.6409195,8.76303837 13.6409195,8.38898232 C13.6563386,7.89789256 13.3945421,7.6005544 13.026072,7.35147622 C12.657602,7.10239805 12.1223888,7 11.7139769,7 C11.305565,7 10.7339449,7.08314893 10.3637898,7.35147622 C9.99363482,7.61980357 9.73828221,7.89087779 9.73828221,8.38898232 C9.73828221,8.38898232 9.69801254,9.18385777 9.64833739,9.32890879 C9.41356798,9.32890879 9.49905228,9.60950019 9.49905228,9.60950019 L9.71749064,10.7121325 C9.71749064,10.7121325 9.71749064,10.8383987 9.86677575,10.8383987 C10.0165644,10.8383987 9.92068521,11.0385246 10.0549142,11.4894901 C10.1891433,11.9404555 10.4989791,12.5734881 10.4989791,12.5734881 C10.5625152,12.7094234 10.5024942,12.8696547 10.3621103,12.9281044 L8.00618518,13.9090078 C7.59272892,14.0817284 7.56163821,15.2579638 7.65402113,15.3737871 Z" id="Combined-Shape"></path>
        </g>
    </g>
</svg>