<?xml version="1.0" encoding="UTF-8" standalone="no"?>
<svg width="24px" height="24px" viewBox="0 0 24 24" version="1.1" xmlns="http://www.w3.org/2000/svg" xmlns:xlink="http://www.w3.org/1999/xlink">
    <!-- Generator: Sketch 44.1 (41455) - http://www.bohemiancoding.com/sketch -->
    <title>school</title>
    <desc>Created with Sketch.</desc>
    <defs></defs>
    <g id="PDS" stroke="none" stroke-width="1" fill="none" fill-rule="evenodd">
        <g id="school" fill-rule="nonzero" fill="#000000">
            <path d="M12.2581421,5.66838619 C12.2641825,5.65068517 12.2674452,5.6316999 12.2674452,5.61194718 L12.2674452,4.76346408 C12.2790072,4.76164532 12.2908184,4.75767646 12.302879,4.75155747 C12.5774662,4.61030993 12.8116695,4.53968722 13.0054957,4.53968722 C13.0791902,4.53968722 13.1511168,4.55032899 13.2212779,4.57161287 C13.2914389,4.59289675 13.3497374,4.61611518 13.3961749,4.64126884 C13.4426125,4.66642252 13.4973777,4.68964094 13.5604722,4.71092482 C13.6235667,4.73220869 13.6859031,4.74285047 13.7474833,4.74285047 C13.9029482,4.74285047 14.0892002,4.68673927 14.3062453,4.5745152 C14.3335022,4.56097092 14.3534397,4.5476687 14.3660587,4.53460813 C14.3786775,4.52154757 14.3849869,4.50292447 14.3849869,4.47873824 L14.3849869,3.37149852 C14.3849869,3.34634485 14.3753967,3.32457758 14.3562159,3.30619605 C14.3370352,3.28781452 14.3143215,3.27862389 14.2880742,3.27862389 C14.2749506,3.27862389 14.2474418,3.28878195 14.205547,3.30909838 C14.1636523,3.32941481 14.1192344,3.35214952 14.0722922,3.37730318 C14.0253498,3.40245686 13.9698275,3.42519157 13.9057235,3.44550799 C13.8416195,3.46582442 13.7823116,3.47598248 13.7277979,3.47598248 C13.6773223,3.47598248 13.6329045,3.46679185 13.594543,3.44841032 C13.4673445,3.39133084 13.3568046,3.34876372 13.26292,3.32070771 C13.1690354,3.29265169 13.0680857,3.27862389 12.960068,3.27862389 C12.7733082,3.27862389 12.5608092,3.33666996 12.3225644,3.45276382 C12.3018549,3.46268712 12.2834819,3.47170267 12.2674452,3.47981049 L12.2674452,3.17429172 C12.2674452,3.08038188 12.1885056,3 12.0911286,3 L11.8865142,3 C11.7876803,3 11.7101974,3.07803307 11.7101974,3.17429172 L11.7101974,5.61194718 C11.7101974,5.63676807 11.715712,5.66064392 11.7256239,5.68234038 L6.30215998,9.26365488 L17.8080402,9.26365488 L12.2581421,5.66838619 Z M6.21040853,9.93518413 L17.846049,9.93518413 L17.846049,19.2182885 L6.21040853,19.2182885 L6.21040853,9.93518413 Z M15.4298452,11.8040243 L15.4298452,12.2823609 C15.4298452,12.5134092 15.6171354,12.6945446 15.8481696,12.6945446 L16.2890914,12.6945446 C16.5189059,12.6945446 16.7074159,12.5100037 16.7074159,12.2823609 L16.7074159,11.8040243 C16.7074159,11.572976 16.5201257,11.3918407 16.2890914,11.3918407 L15.8481696,11.3918407 C15.6183552,11.3918407 15.4298452,11.5763816 15.4298452,11.8040243 Z M7.15164693,11.8040243 L7.15164693,12.2823609 C7.15164693,12.5134092 7.33893716,12.6945446 7.56997136,12.6945446 L8.01089321,12.6945446 C8.24070768,12.6945446 8.42921763,12.5100037 8.42921763,12.2823609 L8.42921763,11.8040243 C8.42921763,11.572976 8.24192741,11.3918407 8.01089321,11.3918407 L7.56997136,11.3918407 C7.34015689,11.3918407 7.15164693,11.5763816 7.15164693,11.8040243 Z M9.91104635,11.8040243 L9.91104635,12.2823609 C9.91104635,12.5134092 10.0983366,12.6945446 10.3293708,12.6945446 L10.7702926,12.6945446 C11.0001071,12.6945446 11.1886171,12.5100037 11.1886171,12.2823609 L11.1886171,11.8040243 C11.1886171,11.572976 11.0013268,11.3918407 10.7702926,11.3918407 L10.3293708,11.3918407 C10.0995563,11.3918407 9.91104635,11.5763816 9.91104635,11.8040243 Z M12.6704458,11.8040243 L12.6704458,12.2823609 C12.6704458,12.5134092 12.857736,12.6945446 13.0887702,12.6945446 L13.529692,12.6945446 C13.7595065,12.6945446 13.9480165,12.5100037 13.9480165,12.2823609 L13.9480165,11.8040243 C13.9480165,11.572976 13.7607263,11.3918407 13.529692,11.3918407 L13.0887702,11.3918407 C12.8589558,11.3918407 12.6704458,11.5763816 12.6704458,11.8040243 Z M12.3183205,15.7839362 L12.3183205,19.2182885 L14.3045249,19.2182885 L14.3045249,15.7839362 C14.3045249,15.0807263 13.8598979,14.6942495 13.3114227,14.6942495 C12.7591236,14.6942495 12.3183205,15.0788576 12.3183205,15.7839362 Z M9.50774821,15.7839362 L9.50774821,19.2182885 L11.4939527,19.2182885 L11.4939527,15.7839362 C11.4939527,15.0807263 11.0493257,14.6942495 10.5008504,14.6942495 C9.94855135,14.6942495 9.50774821,15.0788576 9.50774821,15.7839362 Z M2.63232422,12.6418434 C2.63232422,12.1802001 3.00250727,11.8059642 3.47078518,11.8059642 L5.37717692,11.8059642 L5.37717692,19.2182885 L3.47078518,19.2182885 C3.00771598,19.2182885 2.63232422,18.8405197 2.63232422,18.3824092 L2.63232422,12.6418434 Z M21.4337463,18.3824092 C21.4337463,18.8440526 21.0635633,19.2182885 20.5952853,19.2182885 L18.6888937,19.2182885 L18.6888937,11.8059642 L20.5952853,11.8059642 C21.0583546,11.8059642 21.4337463,12.1837329 21.4337463,12.6418434 L21.4337463,18.3824092 Z M2,20.3632096 C2,20.1000071 2.18522114,19.8866394 2.41772842,19.8866394 L21.5822716,19.8866394 C21.8129766,19.8866394 22,20.0987136 22,20.3632096 L22,20.4100692 C22,20.6732717 21.8147788,20.8866394 21.5822716,20.8866394 L2.41772842,20.8866394 C2.18702339,20.8866394 2,20.6745651 2,20.4100692 L2,20.3632096 Z" id="Combined-Shape"></path>
        </g>
    </g>
</svg>