<?xml version="1.0" encoding="UTF-8" standalone="no"?>
<svg width="24px" height="24px" viewBox="0 0 24 24" version="1.1" xmlns="http://www.w3.org/2000/svg" xmlns:xlink="http://www.w3.org/1999/xlink">
    <!-- Generator: Sketch 44.1 (41455) - http://www.bohemiancoding.com/sketch -->
    <title>settings-f</title>
    <desc>Created with Sketch.</desc>
    <defs></defs>
    <g id="PDS" stroke="none" stroke-width="1" fill="none" fill-rule="evenodd">
        <g id="settings-f" fill="#000000">
            <path d="M8.21137994,4.84420479 C8.6574644,4.60753539 9.12831999,4.41135734 9.61904762,4.26056973 L9.61904762,3.50562468 C9.61904762,2.67409113 10.2811701,2 11.125744,2 L12.874256,2 C13.7063814,2 14.3809524,2.66356841 14.3809524,3.50562468 L14.3809524,4.26056973 C14.87168,4.41135734 15.3425356,4.60753539 15.7886201,4.84420479 L16.3228428,4.30998204 C16.9108258,3.72199902 17.8556715,3.71353589 18.4528755,4.31073988 L19.6892601,5.5471245 C20.2776617,6.13552606 20.2854417,7.08173348 19.690018,7.67715718 L19.1557952,8.21137994 C19.3924646,8.6574644 19.5886427,9.12831999 19.7394303,9.61904762 L20.4943753,9.61904762 C21.3259089,9.61904762 22,10.2811701 22,11.125744 L22,12.874256 C22,13.7063814 21.3364316,14.3809524 20.4943753,14.3809524 L19.7394303,14.3809524 C19.5886427,14.87168 19.3924646,15.3425356 19.1557952,15.7886201 L19.690018,16.3228428 C20.278001,16.9108258 20.2864641,17.8556715 19.6892601,18.4528755 L18.4528755,19.6892601 C17.8644739,20.2776617 16.9182665,20.2854417 16.3228428,19.690018 L15.7886201,19.1557952 C15.3425356,19.3924646 14.87168,19.5886427 14.3809524,19.7394303 L14.3809524,20.4943753 C14.3809524,21.3259089 13.7188299,22 12.874256,22 L11.125744,22 C10.2936186,22 9.61904762,21.3364316 9.61904762,20.4943753 L9.61904762,19.7394303 C9.12831999,19.5886427 8.6574644,19.3924646 8.21137994,19.1557952 L7.67715718,19.690018 C7.08917417,20.278001 6.14432849,20.2864641 5.5471245,19.6892601 L4.31073988,18.4528755 C3.72233832,17.8644739 3.71455833,16.9182665 4.30998204,16.3228428 L4.84420479,15.7886201 C4.60753539,15.3425356 4.41135734,14.87168 4.26056973,14.3809524 L3.50562468,14.3809524 C2.67409113,14.3809524 2,13.7188299 2,12.874256 L2,11.125744 C2,10.2936186 2.66356841,9.61904762 3.50562468,9.61904762 L4.26056973,9.61904762 C4.41135734,9.12831999 4.60753539,8.6574644 4.84420479,8.21137994 L4.30998204,7.67715718 C3.72199902,7.08917417 3.71353589,6.14432849 4.31073988,5.5471245 L5.5471245,4.31073988 C6.13552606,3.72233832 7.08173348,3.71455833 7.67715718,4.30998204 L8.21137994,4.84420479 Z M12,16.2857143 C14.3669346,16.2857143 16.2857143,14.3669346 16.2857143,12 C16.2857143,9.63306536 14.3669346,7.71428571 12,7.71428571 C9.63306536,7.71428571 7.71428571,9.63306536 7.71428571,12 C7.71428571,14.3669346 9.63306536,16.2857143 12,16.2857143 Z" id="Gear"></path>
        </g>
    </g>
</svg>