<?xml version="1.0" encoding="UTF-8" standalone="no"?>
<svg width="24px" height="24px" viewBox="0 0 24 24" version="1.1" xmlns="http://www.w3.org/2000/svg" xmlns:xlink="http://www.w3.org/1999/xlink">
    <!-- Generator: Sketch 44.1 (41455) - http://www.bohemiancoding.com/sketch -->
    <title>signout</title>
    <desc>Created with Sketch.</desc>
    <defs></defs>
    <g id="PDS" stroke="none" stroke-width="1" fill="none" fill-rule="evenodd">
        <g id="signout" fill-rule="nonzero" fill="#000000">
            <path d="M11.9200473,22.275862 C11.5160891,22.263489 11.1739675,22.051416 11.0039189,21.900488 L5.5294145,15.972684 C5.1543178,15.583829 5.1518865,14.955893 5.5298287,14.564089 C5.9051542,14.174997 6.5203214,14.181885 6.8885883,14.563659 L11.0233827,18.947793 L11.0233827,7.539552 C11.0233827,6.990155 11.4515438,6.544781 11.9880033,6.544781 C12.5207485,6.544781 12.9526239,6.995706 12.9526239,7.539552 L12.9526239,18.947011 L17.0835255,14.563659 C17.4625037,14.170781 18.071371,14.164999 18.4493131,14.556803 C18.8246386,14.945894 18.8213918,15.580102 18.4426993,15.972684 L12.9439638,21.900488 C12.7820333,22.069685 12.4928769,22.21954 12.1559984,22.26346 C12.1014992,22.273229 12.0453705,22.278322 11.9880033,22.278322 C11.9651571,22.278322 11.9424964,22.277493 11.9200473,22.275862 Z M19.3894709,9.984836 L19.3894709,5.420452 C19.3894709,5.069849 19.0002099,4.488874 18.520032,4.488874 L5.4778596,4.488874 C5.003778,4.488874 4.6084206,5.06534 4.6084206,5.420452 L4.6084206,9.990627 C4.6084206,10.53014 4.1602471,10.986457 3.607397,10.987569 L3.0010236,10.988788 C2.4543522,10.989888 2,10.545373 2,9.995909 L2,3.808821 C2,2.998444 2.6729573,2.317896 3.5030921,2.317896 L20.4947994,2.317896 C21.3325259,2.317896 21.9978916,2.985406 21.9978916,3.808821 L21.9978916,9.995909 C21.9978916,10.548787 21.549718,10.9899 20.996868,10.988788 L20.3904945,10.987569 C19.8438231,10.98647 19.3894709,10.537518 19.3894709,9.984836 Z" id="Sign-Out-Icon"></path>
        </g>
    </g>
</svg>