<?xml version="1.0" encoding="UTF-8" standalone="no"?>
<svg width="24px" height="24px" viewBox="0 0 24 24" version="1.1" xmlns="http://www.w3.org/2000/svg" xmlns:xlink="http://www.w3.org/1999/xlink">
    <!-- Generator: Sketch 44.1 (41455) - http://www.bohemiancoding.com/sketch -->
    <title>skip-backwards</title>
    <desc>Created with Sketch.</desc>
    <defs></defs>
    <g id="PDS" stroke="none" stroke-width="1" fill="none" fill-rule="evenodd">
        <g id="skip-backwards" fill="#000000">
            <path d="M22,6.99525338 L22,17.0047466 C22,19.763962 19.7635489,22 17.0047466,22 L6.99525338,22 C4.23603796,22 2,19.7635489 2,17.0047466 L2,6.99525338 C2,4.23603796 4.23645112,2 6.99525338,2 L17.0047466,2 C19.763962,2 22,4.23645112 22,6.99525338 Z M17.0870263,7.77425653 C17.0870263,7.220473 16.7263914,7.05266438 16.2912248,7.39188491 L11.1751322,11.3799752 C10.7356233,11.7225807 10.7399657,12.281439 11.1751322,12.6206595 L16.2912248,16.6087498 C16.7307338,16.9513554 17.0870263,16.7797442 17.0870263,16.2263782 L17.0870263,7.77425653 Z M8,7.7516253 L8,16.2483747 C8,16.6672821 8.33578644,17 8.75,17 C9.16710138,17 9.5,16.6634859 9.5,16.2483747 L9.5,7.7516253 C9.5,7.3327179 9.16421356,7 8.75,7 C8.33289862,7 8,7.33651411 8,7.7516253 Z" id="Combined-Shape"></path>
        </g>
    </g>
</svg>