<?xml version="1.0" encoding="UTF-8" standalone="no"?>
<svg width="24px" height="24px" viewBox="0 0 24 24" version="1.1" xmlns="http://www.w3.org/2000/svg" xmlns:xlink="http://www.w3.org/1999/xlink">
    <!-- Generator: Sketch 44.1 (41455) - http://www.bohemiancoding.com/sketch -->
    <title>spell-check</title>
    <desc>Created with Sketch.</desc>
    <defs></defs>
    <g id="PDS" stroke="none" stroke-width="1" fill="none" fill-rule="evenodd">
        <g id="spell-check" fill="#000000">
            <path d="M6.46144041,8.90698949 L4.26896112,8.90698949 L3.96728277,9.93524528 L2,9.93524528 L4.34119397,3.70622468 L6.44019545,3.70622468 L8.78138942,9.93524528 L6.76736775,9.93524528 L6.46144041,8.90698949 Z M6.05778628,7.56005939 L5.36944976,5.3208412 L4.68536223,7.56005939 L6.05778628,7.56005939 Z M9.40174209,3.70622468 L13.0048863,3.70622468 C13.6054134,3.70622468 14.0664243,3.85493787 14.3879329,4.15236872 C14.7094414,4.44979956 14.8701933,4.81804176 14.8701933,5.25710634 C14.8701933,5.62535406 14.7554717,5.94119255 14.5260251,6.2046313 C14.3730606,6.38025714 14.1492827,6.51905612 13.8546845,6.62103241 C14.3022471,6.72867405 14.6315406,6.9135033 14.8425749,7.17552572 C15.0536092,7.43754813 15.1591247,7.76684163 15.1591247,8.16341609 C15.1591247,8.48634101 15.08406,8.77668582 14.9339282,9.03445922 C14.7837964,9.29223262 14.5784306,9.49618214 14.3178245,9.64631391 C14.1563621,9.73979217 13.9127557,9.80777535 13.5869981,9.85026547 C13.1535989,9.90691896 12.8660867,9.93524528 12.7244529,9.93524528 L9.40174209,9.93524528 L9.40174209,3.70622468 Z M11.3435309,6.14939442 L12.1805821,6.14939442 C12.4808456,6.14939442 12.6897523,6.09769888 12.8073083,5.99430626 C12.9248643,5.89091363 12.9836414,5.74149228 12.9836414,5.54603772 C12.9836414,5.36474654 12.9248643,5.22311492 12.8073083,5.12113863 C12.6897523,5.01916234 12.4850946,4.96817496 12.1933291,4.96817496 L11.3435309,4.96817496 L11.3435309,6.14939442 Z M11.3435309,8.59681316 L12.3250478,8.59681316 C12.6564707,8.59681316 12.8901629,8.53803604 13.0261313,8.42048004 C13.1620997,8.30292404 13.2300829,8.14500479 13.2300829,7.94671756 C13.2300829,7.7625937 13.1628078,7.61458867 13.0282558,7.50269801 C12.8937037,7.39080736 12.6578871,7.33486287 12.3207988,7.33486287 L11.3435309,7.33486287 L11.3435309,8.59681316 Z M10.1072717,20.7418756 C9.83855327,20.7518866 9.56740673,20.6551981 9.36626166,20.454053 L5.38995525,16.4777466 C5.00121855,16.0890099 4.99994501,15.4600167 5.39319197,15.0667697 C5.78371626,14.6762455 6.4209716,14.6803358 6.80416881,15.063533 L10.0820766,18.3414408 L16.433655,11.9898625 C16.8191166,11.6044009 17.457035,11.5996474 17.8475593,11.9901717 C18.2408063,12.3834187 18.2382221,13.0137225 17.8478686,13.404076 L10.800819,20.4511255 C10.6109706,20.640974 10.3598815,20.738471 10.1072717,20.7418756 Z M20.3131506,7.39009976 L22,7.89997866 C21.886693,8.37303534 21.7082372,8.76818754 21.4646272,9.08544711 C21.2210171,9.40270668 20.9186336,9.64206411 20.5574676,9.80352657 C20.1963016,9.96498903 19.736707,10.045719 19.1786701,10.045719 C18.5016608,10.045719 17.9485894,9.94728508 17.5194391,9.75041418 C17.0902889,9.55354329 16.7199222,9.20725399 16.408328,8.71153591 C16.0967338,8.21581784 15.940939,7.58130821 15.940939,6.80798801 C15.940939,5.7768944 16.2149962,4.98446553 16.7631188,4.43067762 C17.3112413,3.87688971 18.0866744,3.5999999 19.0894413,3.5999999 C19.8740922,3.5999999 20.4908978,3.75862731 20.9398768,4.07588688 C21.3888557,4.39314645 21.7223982,4.8803592 21.9405141,5.53753974 L20.2409178,5.91569993 C20.1814316,5.72591072 20.1191137,5.58711174 20.0539622,5.49929882 C19.9463205,5.35199973 19.8146031,5.23869444 19.658806,5.15937955 C19.5030089,5.08006466 19.328802,5.04040781 19.1361802,5.04040781 C18.6999482,5.04040781 18.3656976,5.21603101 18.1334183,5.56728267 C17.9577925,5.82788875 17.8699809,6.23720411 17.8699809,6.79524103 C17.8699809,7.48641367 17.9747883,7.96017142 18.1844062,8.21652848 C18.3940241,8.47288554 18.6886179,8.60106215 19.0681963,8.60106215 C19.436444,8.60106215 19.7147501,8.49767108 19.903123,8.29088582 C20.0914959,8.08410056 20.2281704,7.78384154 20.3131506,7.39009976 Z" id="Combined-Shape"></path>
        </g>
    </g>
</svg>