<?xml version="1.0" encoding="UTF-8" standalone="no"?>
<svg width="24px" height="24px" viewBox="0 0 24 24" version="1.1" xmlns="http://www.w3.org/2000/svg" xmlns:xlink="http://www.w3.org/1999/xlink">
    <!-- Generator: Sketch 44.1 (41455) - http://www.bohemiancoding.com/sketch -->
    <title>split</title>
    <desc>Created with Sketch.</desc>
    <defs></defs>
    <g id="PDS" stroke="none" stroke-width="1" fill="none" fill-rule="evenodd">
        <g id="split" fill="#000000">
            <path d="M10.7661024,3.39320766 L10.7661024,10.4946024 C10.7661024,11.0343356 11.2138176,11.49 11.7661024,11.49 C12.3222376,11.49 12.7661024,11.0443453 12.7661024,10.4946024 L12.7661024,3.30081989 L15.4179497,5.95266717 C15.8026114,6.3373289 16.4395389,6.34109145 16.8300632,5.95056716 C17.2233102,5.55732021 17.2215277,4.9278181 16.8321632,4.53845361 L12.5853225,0.291612905 C12.3756717,0.0819621275 12.0910845,-0.014541133 11.8122963,0.00427061663 C11.5335081,-0.0145411334 11.2489208,0.081962127 11.03927,0.291612905 L6.7924293,4.53845361 C6.40306481,4.9278181 6.40128235,5.55732021 6.79452931,5.95056716 C7.1850536,6.34109145 7.82198113,6.3373289 8.20664286,5.95266717 L10.7661024,3.39320766 Z" id="arrow"></path>
            <path d="M10.7661024,15.8912398 L10.7661024,22.9892404 C10.7661024,23.5289735 11.2138176,23.9846379 11.7661024,23.9846379 C12.3222376,23.9846379 12.7661024,23.5389833 12.7661024,22.9892404 L12.7661024,15.7988521 L15.4179497,18.4506994 C15.8026114,18.8353611 16.4395389,18.8391236 16.8300632,18.4485993 C17.2233102,18.0553524 17.2215277,17.4258503 16.8321632,17.0364858 L12.5853225,12.7896451 C12.3756717,12.5799943 12.0910845,12.483491 11.8122963,12.5023028 C11.5335081,12.483491 11.2489208,12.5799943 11.03927,12.7896451 L6.7924293,17.0364858 C6.40306481,17.4258503 6.40128235,18.0553524 6.79452931,18.4485993 C7.1850536,18.8391236 7.82198113,18.8353611 8.20664286,18.4506994 L10.7661024,15.8912398 Z" id="arrow" transform="translate(11.812296, 18.242319) scale(-1, -1) rotate(-360.000000) translate(-11.812296, -18.242319) "></path>
        </g>
    </g>
</svg>