<?xml version="1.0" encoding="UTF-8" standalone="no"?>
<svg width="24px" height="24px" viewBox="0 0 24 24" version="1.1" xmlns="http://www.w3.org/2000/svg" xmlns:xlink="http://www.w3.org/1999/xlink">
    <!-- Generator: Sketch 44.1 (41455) - http://www.bohemiancoding.com/sketch -->
    <title>standards</title>
    <desc>Created with Sketch.</desc>
    <defs></defs>
    <g id="PDS" stroke="none" stroke-width="1" fill="none" fill-rule="evenodd">
        <g id="standards" fill="#000000">
            <path d="M14.886843,7.83397232 C14.7215428,7.40597575 14.7287303,6.91957798 14.9281507,6.48471163 L16.4689023,3.12487008 L16.4689023,3.12487008 C16.9293299,2.12083811 18.116509,1.68015972 19.120541,2.14058733 C19.3364975,2.23962039 19.5330814,2.37633927 19.7010766,2.54433446 L19.9387787,2.7820366 L20.4904852,2.23033013 C20.7833784,1.93743691 21.2582521,1.93743691 21.5511454,2.23033013 C21.8440386,2.52322335 21.8440386,2.99809709 21.5511454,3.29099031 L20.9994389,3.84269678 L21.1697019,4.01295976 C21.9507505,4.79400834 21.9507505,6.0603383 21.1697019,6.84138689 C21.0017067,7.00938208 20.8051228,7.14610096 20.5891663,7.24513402 L17.2293247,8.7858856 C16.8279217,8.96996045 16.3826129,8.99024908 15.9798555,8.86228019 L10.5909903,14.2511454 C10.298097,14.5440386 9.8232233,14.5440386 9.53033009,14.2511454 C9.23743687,13.9582522 9.23743687,13.4833785 9.53033009,13.1904852 L14.886843,7.83397232 Z M14.111809,5.80330848 L13.1448976,7.56067674 C12.3369064,7.20031935 11.4418467,7 10.5,7 C6.91014913,7 4,9.91014913 4,13.5 C4,17.0898509 6.91014913,20 10.5,20 C14.0898509,20 17,17.0898509 17,13.5 C17,12.4556481 16.7537047,11.4688215 16.3160306,10.5944369 L18.0672575,9.6248076 C18.6635251,10.7868289 19,12.1041205 19,13.5 C19,18.1944204 15.1944204,22 10.5,22 C5.80557963,22 2,18.1944204 2,13.5 C2,8.80557963 5.80557963,5 10.5,5 C11.7914474,5 13.0156261,5.28801183 14.111809,5.80330848 Z M12.0334191,9.26802013 L10.2929911,11.0084481 C9.00912509,11.1136822 8,12.1889942 8,13.5 C8,14.8807119 9.11928813,16 10.5,16 C11.8807119,16 13,14.8807119 13,13.5 C13,13.4198417 12.9962275,13.3405646 12.9888503,13.2623364 L14.6026766,11.6485101 C14.8579195,12.2132099 15,12.8400126 15,13.5 C15,15.9852814 12.9852814,18 10.5,18 C8.01471863,18 6,15.9852814 6,13.5 C6,11.0147186 8.01471863,9 10.5,9 C11.0384638,9 11.5548385,9.094575 12.0334191,9.26802013 Z" id="Combined-Shape"></path>
        </g>
    </g>
</svg>