<?xml version="1.0" encoding="UTF-8" standalone="no"?>
<svg width="24px" height="24px" viewBox="0 0 24 24" version="1.1" xmlns="http://www.w3.org/2000/svg" xmlns:xlink="http://www.w3.org/1999/xlink">
    <!-- Generator: Sketch 44.1 (41455) - http://www.bohemiancoding.com/sketch -->
    <title>stop-hand</title>
    <desc>Created with Sketch.</desc>
    <defs></defs>
    <g id="PDS" stroke="none" stroke-width="1" fill="none" fill-rule="evenodd">
        <g id="stop-hand" fill="#000000">
            <path d="M14.7655556,2 C15.6466667,2 16.4922222,2.35 17.1144444,2.97333333 L21.0266667,6.88444444 C21.6488889,7.50777778 22,8.35333333 22,9.23444444 L22,14.7655556 C22,15.6466667 21.6488889,16.4922222 21.0266667,17.1155556 L17.1144444,21.0266667 C16.4922222,21.65 15.6466667,22 14.7655556,22 L9.23333333,22 C8.35333333,22 7.50777778,21.65 6.88444444,21.0266667 L2.97333333,17.1155556 C2.35,16.4922222 2,15.6466667 2,14.7655556 L2,9.23444444 C2,8.35333333 2.35,7.50777778 2.97333333,6.88444444 L6.88444444,2.97333333 C7.50777778,2.35 8.35333333,2 9.23333333,2 L14.7655556,2 Z M14.2113002,12.2678601 C14.1324114,12.0823045 14.4668558,8.33341566 14.4868558,8.03897121 C14.5068558,7.74452677 14.4868558,7.29119344 13.919078,7.23230455 C13.3513002,7.17341566 13.2479669,7.82341566 13.2479669,7.82341566 C13.2479669,7.82341566 12.8735225,11.146749 12.6668558,11.0856379 C12.4601891,11.0245268 12.2735225,7.09452677 12.2735225,7.09452677 C12.2735225,7.09452677 12.2046336,6.48563788 11.5557447,6.44563788 C10.9068558,6.40674899 10.8679669,7.33119344 10.8679669,7.33119344 C10.8679669,7.33119344 11.2813002,11.3034157 11.0846336,11.2456379 C10.8313002,11.1689712 10.0024114,8.15674899 10.0024114,8.15674899 C10.0024114,8.15674899 9.78574468,7.31119344 9.25574468,7.4878601 C8.72463357,7.66563788 8.88130024,8.62897121 8.88130024,8.62897121 C8.88130024,8.62897121 9.80574468,11.756749 9.58907802,11.8978601 C9.37352246,12.0378601 8.64574468,10.1234157 8.64574468,10.1234157 C8.64574468,10.1234157 8.38907802,9.67119344 7.89796691,9.89563788 C7.40685579,10.1200823 7.58130024,10.7734157 7.60241135,10.9500823 C7.64241135,11.2645268 8.96018913,14.9434157 9.11796691,15.6111934 C9.27463357,16.2800823 10.6313002,17.3834157 11.7535225,17.3834157 C13.3857447,17.3834157 13.5224114,16.9689712 13.919078,16.7523045 C14.3146336,16.5356379 14.8013002,15.6111934 14.8013002,15.6111934 C14.8013002,15.6111934 16.6301891,12.3856379 16.9057447,11.6189712 C17.1813002,10.8523045 16.3546336,10.3600823 15.9624114,10.6545268 C15.5679669,10.9500823 15.0568558,11.8978601 15.0568558,11.8978601 C14.6246336,12.7856379 14.2901891,12.4534157 14.2113002,12.2678601 Z" id="Stop"></path>
        </g>
    </g>
</svg>