<?xml version="1.0" encoding="UTF-8" standalone="no"?>
<svg width="24px" height="24px" viewBox="0 0 24 24" version="1.1" xmlns="http://www.w3.org/2000/svg" xmlns:xlink="http://www.w3.org/1999/xlink">
    <!-- Generator: Sketch 44.1 (41455) - http://www.bohemiancoding.com/sketch -->
    <title>student-f</title>
    <desc>Created with Sketch.</desc>
    <defs></defs>
    <g id="PDS" stroke="none" stroke-width="1" fill="none" fill-rule="evenodd">
        <g id="student-f" fill="#000000">
            <path d="M16.3354676,10.3199761 C17.0432295,9.28983508 17.4675009,8.01905473 17.4675009,6.63870669 C17.4675009,4.789368 16.7105621,3.13254075 15.5197094,2 L17.7477202,2 C18.8122557,2 19.6762266,2.91647737 19.6762266,4.04799412 L19.6762266,16.51823 L18.4491107,12.6004176 C18.1405497,11.4955248 17.3267199,10.6527752 16.3354676,10.3199761 Z M5.32610659,12.4928979 L4.25,15.583321 L4.25,4.04799412 C4.25,2.91647737 5.11300663,2 6.17850643,2 L8.22175898,2 C7.03187052,3.13254075 6.27493175,4.79039199 6.27493175,6.63870669 C6.27493175,8.01700673 6.69823891,9.28778709 7.40407226,10.3169041 C6.41667697,10.6425352 5.61056128,11.4658288 5.32610659,12.4928979 Z M11.5662713,2 C13.9094066,2 15.8080211,4.07666604 15.8080211,6.63870669 C15.8080211,9.20177133 13.9094066,11.2784374 11.5662713,11.2784374 C9.22217169,11.2784374 7.32355712,9.20177133 7.32355712,6.63870669 C7.32355712,4.07666604 9.22217169,2 11.5662713,2 Z M4.25867828,19.6485947 L4.26832081,19.5810109 C4.2789276,19.4980671 4.29435565,19.4181954 4.31653347,19.3424196 L6.68377511,12.5451271 C6.89591082,11.7791773 7.58824462,11.2170029 8.32493408,11.2170029 C8.41846664,11.2139309 9.94391522,11.8017052 11.9640257,11.8017052 C13.9822077,11.8017052 15.5086205,11.2139309 15.5915463,11.2159789 C16.3398068,11.2170029 17.0311763,11.7791773 17.2471691,12.556391 L19.6086252,19.3321796 C19.6327315,19.4192194 19.6481596,19.4990911 19.6597306,19.5799869 L19.6693731,19.6526907 C19.6693731,19.6526907 19.6780514,19.7786423 19.6780514,19.8093622 L19.6722659,19.9680818 L19.6558736,20.1114414 L19.6365885,20.2148651 C19.4562732,20.9828629 18.8777212,20.8476953 18.1593526,20.941903 C18.1593526,20.941903 15.2473079,21.4948614 14.5761877,21.4948614 C13.9060317,21.4948614 13.937852,21.8645243 12.9620278,21.8655483 C12.2070175,21.8665723 11.6901778,21.0647826 11.6901778,20.4227365 C11.6901778,19.7847863 11.9109918,19.2430919 12.3362274,18.9922126 C12.8511387,18.6870615 13.3024092,18.5938777 14.5646166,19.1109962 C15.0814563,19.3229636 16.790113,18.7167574 17.4631618,18.3225185 C17.6666192,18.2016868 17.6492626,17.8770798 17.4323057,17.785944 L16.6927235,17.4736249 L15.9782118,14.2275543 C15.9367489,13.974627 15.73522,13.8036195 15.4758359,13.8036195 C15.1894527,13.8036195 14.969603,13.9992029 14.965746,14.2582742 L15.3514472,17.3947772 C15.3958029,17.7501041 15.1431685,18.0644712 14.8153225,18.0644712 C14.8153225,18.0644712 13.3978702,17.7798001 11.9640257,17.7798001 C10.5301812,17.7798001 9.1117647,18.0644712 9.1117647,18.0644712 C8.78391861,18.0644712 8.53321277,17.7501041 8.57660417,17.3947772 L8.9613412,14.2582742 C8.95748418,13.9992029 8.7385987,13.8036195 8.4522155,13.8036195 C8.19186713,13.8036195 7.99033821,13.974627 7.94983958,14.2275543 L7.23532795,17.4736249 L6.46681814,17.797208 C6.25564668,17.8873197 6.23250461,18.2027108 6.42824801,18.3286625 C6.97112257,18.6778455 8.40207433,19.179604 8.94109188,19.1109962 C9.80891977,19.0004046 10.3190097,18.829397 10.3190097,18.829397 C10.56393,18.7474773 10.9235965,18.8007251 11.1010191,18.8775249 C10.8522417,19.3014597 10.7095323,19.7817143 10.689283,20.2834729 C10.6642124,20.8814872 10.8049933,21.4692615 11.0913765,21.974092 C10.940953,22.1348596 9.9689858,21.4948614 9.22940359,21.4948614 C8.49078563,21.4948614 5.76580605,20.941903 5.76580605,20.941903 C5.02236682,20.8405273 4.46213571,20.9777429 4.29724841,20.240465 C4.28278461,20.1800492 4.27796334,20.1483053 4.27314208,20.1165614 L4.25578552,19.9711538 L4.25,19.8093622 C4.25,19.7786423 4.25867828,19.6485947 4.25867828,19.6485947 Z" id="Combined-Shape"></path>
        </g>
    </g>
</svg>