<?xml version="1.0" encoding="UTF-8" standalone="no"?>
<svg width="24px" height="24px" viewBox="0 0 24 24" version="1.1" xmlns="http://www.w3.org/2000/svg" xmlns:xlink="http://www.w3.org/1999/xlink">
    <!-- Generator: Sketch 44.1 (41455) - http://www.bohemiancoding.com/sketch -->
    <title>teacher</title>
    <desc>Created with Sketch.</desc>
    <defs></defs>
    <g id="PDS-Current" stroke="none" stroke-width="1" fill="none" fill-rule="evenodd">
        <g id="teacher" fill="#000000">
            <path d="M2.0772388,21.0728168 C1.91094954,20.8643349 1.96691282,18.7471112 2.71113409,18.436214 L6.95179922,16.6705879 C7.20449024,16.5653785 7.31252816,16.2769622 7.19816313,16.0322786 C7.19816313,16.0322786 6.64045871,14.89282 6.39884637,14.0810822 C6.15723413,13.2693443 6.32981663,12.9091176 6.06019711,12.9091176 C5.79148391,12.9091176 5.79148391,12.6818385 5.79148391,12.6818385 L5.39829486,10.6971003 C5.39829486,10.6971003 5.24442313,10.1920358 5.66700806,10.1920358 C5.75642333,9.93094398 5.82890874,8.50016817 5.82890874,8.50016817 C5.82890874,7.60358002 6.28854343,7.11564643 6.95482247,6.6326572 C7.62110151,6.14966807 8.65001774,6 9.38515915,6 C10.1203006,6 11.0836843,6.18431648 11.7469304,6.6326572 C12.4101765,7.08099791 12.8814102,7.6162066 12.8536558,8.50016817 C12.8536558,9.17346906 13.023418,10.1920358 13.023418,10.1920358 C13.3100681,10.1920358 13.2391455,10.6971003 13.2391455,10.6971003 L12.8678171,12.6818385 C12.8678171,12.6818385 12.8678171,12.9091176 12.6520896,12.9091176 C12.4363622,12.9091176 12.5004398,13.5921919 12.3337556,14.0810822 C12.1670714,14.5699724 11.6267248,16.0221494 11.6267248,16.0221494 C11.5329514,16.2750627 11.6542253,16.5616184 11.8998239,16.6631093 L16.2086684,18.4436926 C17.4134059,18.77956 17.5951549,20.8823114 17.4062743,21.0728168 C15.6320618,21.4997081 13.869706,22 12.1014219,22 L7.74524257,22 C5.85590798,22 4.10483888,21.6086053 2.0772388,21.0728168 Z" id="Person"></path>
            <path d="M10.3125,4.1875 L19.6875,4.1875 L19.6875,4.1875 C20.2397847,4.1875 20.6875,4.63521525 20.6875,5.1875 L20.6875,14.5621629 L20.6875,14.5621629 C20.6875,15.1144477 20.2397847,15.5621629 19.6875,15.5621629 L10.3125,15.5621629 L10.3125,15.5621629 C9.76021525,15.5621629 9.3125,15.1144477 9.3125,14.5621629 L9.3125,5.1875 L9.3125,5.1875 C9.3125,4.63521525 9.76021525,4.1875 10.3125,4.1875 Z M12.2147527,17.7364087 L12.3504346,16.5158199 L17.2877471,16.5158199 L17.423429,17.7364087 L12.2147527,17.7364087 Z M21.9860011,4.48930123 L22,15.0327388 C22,15.9995851 21.2160603,16.5158199 20.2490578,16.5158199 L18.1621414,16.5158199 L18.5314976,18.9285609 C18.6014922,19.1637101 18.474425,19.4108903 18.2472118,19.4808882 C18.0189216,19.5519799 17.7777094,19.4185463 17.7077148,19.1833971 C17.7077148,19.1833971 17.5300362,18.3106104 17.5268056,18.3106104 C17.5268056,18.3106104 12.1038382,18.3095167 12.1016845,18.3095167 L11.92939,19.1833971 C11.8593954,19.4185463 11.6181832,19.5519799 11.3898931,19.4808882 C11.1626798,19.4108903 11.0356126,19.1637101 11.1056073,18.9285609 L11.4749635,16.5158199 L9.74986539,16.5158199 C8.7839397,16.5158199 8,15.9995851 8,15.0327388 L8.01399892,4.48930123 C8.08507038,3.58807794 8.83132067,2.87606779 9.74986539,2.87606779 L11.2789785,2.87606779 L14.2370587,2.87606779 L14.2370587,2.54467136 C14.2370587,2.24389902 14.5030382,2 14.8303977,2 L15.1706792,2 C15.4980386,2 15.7640182,2.24389902 15.7640182,2.54467136 L15.7640182,2.87606779 L20.0799938,2.87606779 L20.2490578,2.87606779 C21.1697562,2.87606779 21.9149296,3.58807794 21.9860011,4.48930123 Z M12.0466058,7.24984443 C11.7445751,7.24984443 11.4997308,7.49468871 11.4997308,7.79671943 C11.4997308,8.09875015 11.7445751,8.34359443 12.0466058,8.34359443 L17.9523174,8.34359443 C18.2543481,8.34359443 18.4991924,8.09875015 18.4991924,7.79671943 C18.4991924,7.49468871 18.2543481,7.24984443 17.9523174,7.24984443 L17.9523174,7.24984443 L12.0466058,7.24984443 Z M12.0466058,9.87476665 C11.7445751,9.87476665 11.4997308,10.1196109 11.4997308,10.4216416 C11.4997308,10.7236724 11.7445751,10.9685166 12.0466058,10.9685166 L12.0466058,10.9685166 L17.9523174,10.9685166 C18.2543481,10.9685166 18.4991924,10.7236724 18.4991924,10.4216416 C18.4991924,10.1196109 18.2543481,9.87476665 17.9523174,9.87476665 L17.9523174,9.87476665 L12.0466058,9.87476665 Z" id="Combined-Shape"></path>
        </g>
    </g>
</svg>