<?xml version="1.0" encoding="UTF-8" standalone="no"?>
<svg width="24px" height="24px" viewBox="0 0 24 24" version="1.1" xmlns="http://www.w3.org/2000/svg" xmlns:xlink="http://www.w3.org/1999/xlink">
    <!-- Generator: Sketch 44.1 (41455) - http://www.bohemiancoding.com/sketch -->
    <title>tiles</title>
    <desc>Created with Sketch.</desc>
    <defs></defs>
    <g id="PDS" stroke="none" stroke-width="1" fill="none" fill-rule="evenodd">
        <g id="tiles" fill="#000000">
            <path d="M2,3.00722369 C2,2.45094941 2.45394897,2 3.00722369,2 L10.404541,2 C10.9608153,2 11.4117647,2.45394897 11.4117647,3.00722369 L11.4117647,10.404541 C11.4117647,10.9608153 10.9578157,11.4117647 10.404541,11.4117647 L3.00722369,11.4117647 C2.45094941,11.4117647 2,10.9578157 2,10.404541 L2,3.00722369 Z M12.5882353,3.00722369 C12.5882353,2.45094941 13.0421843,2 13.595459,2 L20.9927763,2 C21.5490506,2 22,2.45394897 22,3.00722369 L22,10.404541 C22,10.9608153 21.546051,11.4117647 20.9927763,11.4117647 L13.595459,11.4117647 C13.0391847,11.4117647 12.5882353,10.9578157 12.5882353,10.404541 L12.5882353,3.00722369 Z M2,13.595459 C2,13.0391847 2.45394897,12.5882353 3.00722369,12.5882353 L10.404541,12.5882353 C10.9608153,12.5882353 11.4117647,13.0421843 11.4117647,13.595459 L11.4117647,20.9927763 C11.4117647,21.5490506 10.9578157,22 10.404541,22 L3.00722369,22 C2.45094941,22 2,21.546051 2,20.9927763 L2,13.595459 Z M12.5882353,13.595459 C12.5882353,13.0391847 13.0421843,12.5882353 13.595459,12.5882353 L20.9927763,12.5882353 C21.5490506,12.5882353 22,13.0421843 22,13.595459 L22,20.9927763 C22,21.5490506 21.546051,22 20.9927763,22 L13.595459,22 C13.0391847,22 12.5882353,21.546051 12.5882353,20.9927763 L12.5882353,13.595459 Z" id="Combined-Shape"></path>
        </g>
    </g>
</svg>