<?xml version="1.0" encoding="UTF-8" standalone="no"?>
<svg width="24px" height="24px" viewBox="0 0 24 24" version="1.1" xmlns="http://www.w3.org/2000/svg" xmlns:xlink="http://www.w3.org/1999/xlink">
    <!-- Generator: Sketch 44.1 (41455) - http://www.bohemiancoding.com/sketch -->
    <title>trash-s</title>
    <desc>Created with Sketch.</desc>
    <defs></defs>
    <g id="PDS" stroke="none" stroke-width="1" fill="none" fill-rule="evenodd">
        <g id="trash-s" fill="#000000">
            <path d="M5.5,9.49824524 C5.5,8.67078724 6.16254437,8 6.9912653,8 L17.0087347,8 C17.8323378,8 18.5,8.6752491 18.5,9.49824524 L18.5,20.5017548 C18.5,21.3292128 17.8374556,22 17.0087347,22 L6.9912653,22 C6.16766222,22 5.5,21.3247509 5.5,20.5017548 L5.5,9.49824524 Z M8.5,11.3003025 L8.5,18.6996975 C8.5,18.9753203 8.72385763,19.2 9,19.2 C9.26806641,19.2 9.5,18.9760069 9.5,18.6996975 L9.5,11.3003025 C9.5,11.0246797 9.27614237,10.8 9,10.8 C8.73193359,10.8 8.5,11.0239931 8.5,11.3003025 Z M11.5,11.3003025 L11.5,18.6996975 C11.5,18.9753203 11.7238576,19.2 12,19.2 C12.2680664,19.2 12.5,18.9760069 12.5,18.6996975 L12.5,11.3003025 C12.5,11.0246797 12.2761424,10.8 12,10.8 C11.7319336,10.8 11.5,11.0239931 11.5,11.3003025 Z M14.5,11.3003025 L14.5,18.6996975 C14.5,18.9753203 14.7238576,19.2 15,19.2 C15.2680664,19.2 15.5,18.9760069 15.5,18.6996975 L15.5,11.3003025 C15.5,11.0246797 15.2761424,10.8 15,10.8 C14.7319336,10.8 14.5,11.0239931 14.5,11.3003025 Z M4,4.99895656 C4,4.44724809 4.44463086,4 5.00087166,4 L18.9991283,4 C19.5518945,4 20,4.44266033 20,4.99895656 L20,6.00104344 C20,6.55275191 19.5553691,7 18.9991283,7 L5.00087166,7 C4.4481055,7 4,6.55733967 4,6.00104344 L4,4.99895656 Z M9,3 C9,2.44771525 9.45097518,2 9.99077797,2 L14.009222,2 C14.5564136,2 15,2.44386482 15,3 L15,4 L9,4 L9,3 Z M10,3.5 L10,4 L14,4 L14,3.5 C14,3.23193359 13.7804053,3 13.5095215,3 L10.4904785,3 C10.2150574,3 10,3.22385763 10,3.5 Z" id="Combined-Shape"></path>
        </g>
    </g>
</svg>