<?xml version="1.0" encoding="UTF-8" standalone="no"?>
<svg width="24px" height="24px" viewBox="0 0 24 24" version="1.1" xmlns="http://www.w3.org/2000/svg" xmlns:xlink="http://www.w3.org/1999/xlink">
    <!-- Generator: Sketch 44.1 (41455) - http://www.bohemiancoding.com/sketch -->
    <title>upload</title>
    <desc>Created with Sketch.</desc>
    <defs></defs>
    <g id="PDS" stroke="none" stroke-width="1" fill="none" fill-rule="evenodd">
        <g id="upload" fill="#000000">
            <path d="M11.3877239,6.39354528 L6.70591692,11.0753523 C6.31648456,11.4647847 5.68535483,11.4627494 5.29483054,11.0722251 C4.90158358,10.6789782 4.90290616,10.0499359 5.29170336,9.66113875 L11.6619187,3.29092336 C11.8736452,3.07919692 12.1568144,2.98318342 12.4339178,3.00240421 C12.7110213,2.98318342 12.9941905,3.07919692 13.2059169,3.29092336 L19.5761323,9.66113875 C19.9649295,10.0499359 19.9662521,10.6789782 19.5730051,11.0722251 C19.1824808,11.4627494 18.5513511,11.4647847 18.1619187,11.0753523 L13.3877239,6.30115751 L13.3877239,16.5884414 C13.3877239,17.139899 12.9438591,17.5869438 12.3877239,17.5869438 C11.8354392,17.5869438 11.3877239,17.1394543 11.3877239,16.5884414 L11.3877239,6.39354528 Z M19.3894709,14.3218501 C19.3894709,13.7691681 19.8438231,13.3202161 20.3904945,13.3191171 L20.996868,13.3178981 C21.549718,13.3167861 21.9978916,13.7578991 21.9978916,14.3107771 L21.9978916,20.4978651 C21.9978916,21.3212801 21.3325259,21.9887901 20.4947994,21.9887901 L3.5030921,21.9887901 C2.6729573,21.9887901 2,21.3082421 2,20.4978651 L2,14.3107771 C2,13.7613131 2.4543522,13.3167981 3.0010236,13.3178981 L3.607397,13.3191171 C4.1602471,13.3202291 4.6084206,13.7765461 4.6084206,14.3160591 L4.6084206,18.8862341 C4.6084206,19.2413461 5.003778,19.8178121 5.4778596,19.8178121 L18.520032,19.8178121 C19.0002099,19.8178121 19.3894709,19.2368371 19.3894709,18.8862341 L19.3894709,14.3218501 Z" id="Combined-Shape"></path>
        </g>
    </g>
</svg>