<?xml version="1.0" encoding="UTF-8" standalone="no"?>
<svg width="24px" height="24px" viewBox="0 0 24 24" version="1.1" xmlns="http://www.w3.org/2000/svg" xmlns:xlink="http://www.w3.org/1999/xlink">
    <!-- Generator: Sketch 44.1 (41455) - http://www.bohemiancoding.com/sketch -->
    <title>zoom-in</title>
    <desc>Created with Sketch.</desc>
    <defs></defs>
    <g id="PDS" stroke="none" stroke-width="1" fill="none" fill-rule="evenodd">
        <g id="zoom-in" fill="#000000">
            <path d="M15.7992484,13.671476 L21.5540776,19.4263052 C22.1445351,20.0167627 22.1509738,20.9676448 21.5593093,21.5593093 C20.9717412,22.1468774 20.0172922,22.1450646 19.4263052,21.5540776 L13.671476,15.7992484 C12.4822203,16.5869165 11.0560841,17.0456225 9.52281127,17.0456225 C5.36807733,17.0456225 2,13.6775452 2,9.52281127 C2,5.36807733 5.36807733,2 9.52281127,2 C13.6775452,2 17.0456225,5.36807733 17.0456225,9.52281127 C17.0456225,11.0560841 16.5869165,12.4822203 15.7992484,13.671476 Z M9.51672826,15.0334565 C12.5635332,15.0334565 15.0334565,12.5635332 15.0334565,9.51672826 C15.0334565,6.46992337 12.5635332,4 9.51672826,4 C6.46992337,4 4,6.46992337 4,9.51672826 C4,12.5635332 6.46992337,15.0334565 9.51672826,15.0334565 Z M10,9.19999981 L12.9995642,9.19999981 C13.2759472,9.19999981 13.5,9.42193222 13.5,9.69999981 C13.5,9.97614218 13.2776846,10.1999998 12.9995642,10.1999998 L10,10.1999998 L10,13.199564 C10,13.4759471 9.77806759,13.6999998 9.5,13.6999998 C9.22385763,13.6999998 9,13.4776844 9,13.199564 L9,10.1999998 L6.00043583,10.1999998 C5.72405275,10.1999998 5.5,9.9780674 5.5,9.69999981 C5.5,9.42385743 5.72231543,9.19999981 6.00043583,9.19999981 L9,9.19999981 L9,6.20043564 C9,5.92405256 9.22193241,5.69999981 9.5,5.69999981 C9.77614237,5.69999981 10,5.92231524 10,6.20043564 L10,9.19999981 Z" id="Zoom"></path>
        </g>
    </g>
</svg>